<?xml version="1.0" standalone="no"?>
<!DOCTYPE svg PUBLIC "-//W3C//DTD SVG 1.1//EN" "http://www.w3.org/Graphics/SVG/1.1/DTD/svg11.dtd" >
<svg>
<metadata>
Created by FontForge 20090914 at Thu Aug 25 10:53:43 2022
 By www-data
Copyright (c) 2018 by Swiss Typefaces. All rights reserved. |DCNT
</metadata>
<defs>
<font id="EuclidFlex-Bold" horiz-adv-x="0" >
  <font-face 
    font-family="Euclid Flex"
    font-weight="700"
    font-stretch="normal"
    units-per-em="1000"
    panose-1="2 11 8 4 0 0 0 0 0 0"
    ascent="732"
    descent="-268"
    x-height="500"
    cap-height="710"
    bbox="-369 -1767 1591 999.002"
    underline-thickness="100"
    underline-position="-240"
    unicode-range="U+000D-U+FEFF"
  />
<missing-glyph horiz-adv-x="500" 
d="M0 0v710h500v-710h-500zM34 691l216 -320l216 320h-432zM19 682v-654l221 327zM261 355l220 -327v654zM34 19h432l-216 320z" />
    <glyph glyph-name="uni0407_uni0407" unicode="&#x407;&#x407;" horiz-adv-x="624" 
d="M76 0v710h160v-710h-160zM388 0v710h160v-710h-160zM41 770c-22 0 -40.833 7.5 -56.5 22.5s-23.5 34.167 -23.5 57.5c0 22 7.83301 40.833 23.5 56.5s34.5 23.5 56.5 23.5s40.833 -7.83301 56.5 -23.5s23.5 -34.5 23.5 -56.5s-7.83301 -40.833 -23.5 -56.5
s-34.5 -23.5 -56.5 -23.5zM312 770c-22 0 -40.833 7.5 -56.5 22.5s-23.5 34.167 -23.5 57.5c0 22 7.83301 40.833 23.5 56.5s34.5 23.5 56.5 23.5s40.833 -7.83301 56.5 -23.5s23.5 -34.5 23.5 -56.5s-7.83301 -40.833 -23.5 -56.5s-34.5 -23.5 -56.5 -23.5zM583 770
c-22 0 -40.833 7.5 -56.5 22.5s-23.5 34.167 -23.5 57.5c0 22 7.83301 40.833 23.5 56.5s34.5 23.5 56.5 23.5s40.833 -7.83301 56.5 -23.5s23.5 -34.5 23.5 -56.5s-7.83301 -40.833 -23.5 -56.5s-34.5 -23.5 -56.5 -23.5z" />
    <glyph glyph-name="uni0457_uni0457" unicode="&#x457;&#x457;" horiz-adv-x="542" 
d="M60 0v500h151v-500h-151zM331 0v500h151v-500h-151zM42 567c-22 0 -40.833 7.5 -56.5 22.5s-23.5 34.167 -23.5 57.5c0 22 7.83301 40.833 23.5 56.5s34.5 23.5 56.5 23.5s40.833 -7.83301 56.5 -23.5s23.5 -34.5 23.5 -56.5s-7.83301 -40.833 -23.5 -56.5
s-34.5 -23.5 -56.5 -23.5zM271 567c-22 0 -40.833 7.5 -56.5 22.5s-23.5 34.167 -23.5 57.5c0 22 7.83301 40.833 23.5 56.5s34.5 23.5 56.5 23.5s40.833 -7.83301 56.5 -23.5s23.5 -34.5 23.5 -56.5s-7.83301 -40.833 -23.5 -56.5s-34.5 -23.5 -56.5 -23.5zM500 567
c-22 0 -40.833 7.5 -56.5 22.5s-23.5 34.167 -23.5 57.5c0 22 7.83301 40.833 23.5 56.5s34.5 23.5 56.5 23.5s40.833 -7.83301 56.5 -23.5s23.5 -34.5 23.5 -56.5s-7.83301 -40.833 -23.5 -56.5s-34.5 -23.5 -56.5 -23.5z" />
    <glyph glyph-name="uni0457_uni0458" unicode="&#x457;&#x458;" horiz-adv-x="542" 
d="M42 567c-22 0 -40.833 7.5 -56.5 22.5s-23.5 34.167 -23.5 57.5c0 22 7.83301 40.833 23.5 56.5s34.5 23.5 56.5 23.5s40.833 -7.83301 56.5 -23.5s23.5 -34.5 23.5 -56.5s-7.83301 -40.833 -23.5 -56.5s-34.5 -23.5 -56.5 -23.5zM271 567c-22 0 -40.833 7.5 -56.5 22.5
s-23.5 34.167 -23.5 57.5c0 22 7.83301 40.833 23.5 56.5s34.5 23.5 56.5 23.5s40.833 -7.83301 56.5 -23.5s23.5 -34.5 23.5 -56.5s-7.83301 -40.833 -23.5 -56.5s-34.5 -23.5 -56.5 -23.5zM500 567c-22 0 -40.833 7.5 -56.5 22.5s-23.5 34.167 -23.5 57.5
c0 22 7.83301 40.833 23.5 56.5s34.5 23.5 56.5 23.5s40.833 -7.83301 56.5 -23.5s23.5 -34.5 23.5 -56.5s-7.83301 -40.833 -23.5 -56.5s-34.5 -23.5 -56.5 -23.5zM60 0v500h151v-500h-151zM227 -184v142.999h25c26 0 45.667 4.33301 59 13s20 24.334 20 47.001v481h151
v-500c0 -60 -19.833 -105.667 -59.5 -137s-93.5 -47 -161.5 -47h-34z" />
    <glyph glyph-name=".notdef" horiz-adv-x="500" 
d="M0 0v710h500v-710h-500zM34 691l216 -320l216 320h-432zM19 682v-654l221 327zM261 355l220 -327v654zM34 19h432l-216 320z" />
    <glyph glyph-name="CR" unicode="&#xd;" horiz-adv-x="218" 
 />
    <glyph glyph-name="space" unicode=" " horiz-adv-x="218" 
 />
    <glyph glyph-name="exclam" unicode="!" horiz-adv-x="298" 
d="M103 255l-30 184v271h152v-271l-30 -184h-92zM149 -8c-30 0 -55.5 10.5 -76.5 31.5s-31.5 46.5 -31.5 76.5c0 34 13.333 62 40 84h136c26.667 -22 40 -50 40 -84c0 -30 -10.5 -55.5 -31.5 -76.5s-46.5 -31.5 -76.5 -31.5z" />
    <glyph glyph-name="quotedbl" unicode="&#x22;" horiz-adv-x="443" 
d="M57 412v298h127v-298h-127zM259 412v298h127v-298h-127z" />
    <glyph glyph-name="numbersign" unicode="#" horiz-adv-x="723" 
d="M186 0h-128l56 181h-83v114h119l37 120h-83v114h119l56 181h128l-56 -181h131l56 181h128l-56 -181h82v-114h-118l-37 -120h83v-114h-119l-56 -181h-128l56 181h-131zM278 295h131l37 120h-131z" />
    <glyph glyph-name="dollar" unicode="$" horiz-adv-x="527" 
d="M233 -88l0.00195312 81.999c-93.333 11.333 -161.333 57 -204 137l110 90c37.333 -58.667 81.666 -88 132.999 -88c22.667 0 39.667 5.66699 51 17s17 25.666 17 42.999c0 16 -6.16699 29.667 -18.5 41s-33.833 24 -64.5 38l-40 18c-104.667 46.667 -157 121 -157 223
c0 54 16.333 99.5 49 136.5s74 58.833 124 65.5v83h83v-83c52 -8 99 -36.667 141 -86l-96 -101c-17.333 19.333 -32 32.333 -44 39s-25.333 10 -40 10c-21.333 0 -37.5 -5.5 -48.5 -16.5s-16.5 -24.833 -16.5 -41.5c0 -17.333 7.16699 -32.166 21.5 -44.499
s39.166 -26.166 74.499 -41.499l38 -17c97.333 -44 146 -115 146 -213c0 -57.333 -15.667 -104.333 -47 -141s-74.333 -59 -129 -67v-83h-83z" />
    <glyph glyph-name="percent" unicode="%" horiz-adv-x="401" 
d="M200 445c-37.333 0 -69 13 -95 39s-39 57.667 -39 95s13 69.166 39 95.499s57.667 39.5 95 39.5s69.166 -13.167 95.499 -39.5s39.5 -58.166 39.5 -95.499s-13.167 -69 -39.5 -95s-58.166 -39 -95.499 -39zM200 536c12 0 22.167 4.16699 30.5 12.5s12.5 18.5 12.5 30.5
s-4.16699 22.167 -12.5 30.5s-18.5 12.5 -30.5 12.5s-22.167 -4.16699 -30.5 -12.5s-12.5 -18.5 -12.5 -30.5s4.16699 -22.167 12.5 -30.5s18.5 -12.5 30.5 -12.5zM46 298v114h309v-114h-309zM200 -4c-37.333 0 -69 13 -95 39s-39 57.667 -39 95s13 69.166 39 95.499
s57.667 39.5 95 39.5s69.166 -13.167 95.499 -39.5s39.5 -58.166 39.5 -95.499s-13.167 -69 -39.5 -95s-58.166 -39 -95.499 -39zM200 87c12 0 22.167 4.16699 30.5 12.5s12.5 18.5 12.5 30.5s-4.16699 22.167 -12.5 30.5s-18.5 12.5 -30.5 12.5
s-22.167 -4.16699 -30.5 -12.5s-12.5 -18.5 -12.5 -30.5s4.16699 -22.167 12.5 -30.5s18.5 -12.5 30.5 -12.5z" />
    <glyph glyph-name="ampersand" unicode="&#x26;" horiz-adv-x="619" 
d="M260 -8c-62.667 0 -116.334 22.3311 -161.001 66.998s-67 98.334 -67 161.001c0 53.333 15.333 99 46 137s67.334 64.667 110.001 80c13.333 4.66699 31 8.33398 53 11.001l-128 262h405v-132h-173l283 -578h-168l-35 71c-39.333 -52.667 -94.333 -79 -165 -79z
M260 134.998c22.667 0 42 8.33301 58 25s24 36.667 24 60s-8 43.333 -24 60s-35.333 25 -58 25s-42 -8.33301 -58 -25s-24 -36.667 -24 -60s8 -43.333 24 -60s35.333 -25 58 -25z" />
    <glyph glyph-name="quotesingle" unicode="'" horiz-adv-x="241" 
d="M57 412v298h127v-298h-127z" />
    <glyph glyph-name="parenleft" unicode="(" horiz-adv-x="289" 
d="M262 -115l-111 -49c-73.333 134 -110 288.667 -110 464s36.667 330 110 464l111 -49c-62.667 -148.667 -94 -287 -94 -415s31.333 -266.333 94 -415z" />
    <glyph glyph-name="parenright" unicode=")" horiz-adv-x="290" 
d="M138 -164l-111 49c62.667 148.667 94 287 94 415s-31.333 266.333 -94 415l111 49c73.333 -134 110 -288.667 110 -464s-36.667 -330 -110 -464z" />
    <glyph glyph-name="asterisk" unicode="*" horiz-adv-x="508" 
d="M166 283l-83 60l88 120l-142 46l32 98l142 -46v149h103v-149l141 47l32 -98l-141 -47l88 -120l-83 -60l-88 119z" />
    <glyph glyph-name="plus" unicode="+" horiz-adv-x="590" 
d="M77 225v114h161v161h114v-161h161v-114h-161v-161h-114v161h-161z" />
    <glyph glyph-name="comma" unicode="," horiz-adv-x="288" 
d="M80 -154l44 154h-67v174h174v-174l-64 -154h-87z" />
    <glyph glyph-name="hyphen" unicode="-" horiz-adv-x="396" 
d="M56 210v144h284v-144h-284z" />
    <glyph glyph-name="period" unicode="." horiz-adv-x="290" 
d="M145 -8c-30 0 -55.5 10.5 -76.5 31.5s-31.5 46.5 -31.5 76.5c0 30.667 10.5 56.334 31.5 77.001s46.5 31 76.5 31s55.5 -10.333 76.5 -31s31.5 -46.334 31.5 -77.001c0 -30 -10.5 -55.5 -31.5 -76.5s-46.5 -31.5 -76.5 -31.5z" />
    <glyph glyph-name="slash" unicode="/" horiz-adv-x="505" 
d="M20 0l331 710h136l-331 -710h-136z" />
    <glyph glyph-name="zero" unicode="0" horiz-adv-x="810" 
d="M405 -8c-100 0 -186 35.5 -258 106.5s-108 156.5 -108 256.5s36 185.5 108 256.5s158 106.5 258 106.5s186 -35.5 258 -106.5s108 -156.5 108 -256.5s-36 -185.5 -108 -256.5s-158 -106.5 -258 -106.5zM405 133c61.333 0 112.333 21.5 153 64.5s61 95.5 61 157.5
s-20.333 114.5 -61 157.5s-91.667 64.5 -153 64.5s-112.333 -21.5 -153 -64.5s-61 -95.5 -61 -157.5s20.333 -114.5 61 -157.5s91.667 -64.5 153 -64.5z" />
    <glyph glyph-name="one" unicode="1" horiz-adv-x="295" 
d="M67 0v566l152 152v-718h-152z" />
    <glyph glyph-name="two" unicode="2" horiz-adv-x="591" 
d="M16 0l220 270.001c-44 8 -82.667 33.667 -116 77s-50 90.666 -50 141.999c0 64 23 118.167 69 162.5s101.333 66.5 166 66.5s120.167 -22.333 166.5 -67s69.5 -98.667 69.5 -162c0 -54 -18 -102.667 -54 -146l-163 -202h216v-141h-524zM305 400.001
c24.667 0 44.834 8.66699 60.501 26s23.5 38.333 23.5 63s-7.83301 45.5 -23.5 62.5s-35.834 25.5 -60.501 25.5s-44.667 -8.5 -60 -25.5s-23 -37.833 -23 -62.5s7.66699 -45.667 23 -63s35.333 -26 60 -26z" />
    <glyph glyph-name="three" unicode="3" horiz-adv-x="535" 
d="M240 -8c-94 0 -166.333 33.333 -217 100l107 99c26.667 -38.667 60 -58 100 -58c33.333 0 59.666 9.5 78.999 28.5s29 45.167 29 78.5s-9.66699 59.5 -29 78.5s-45.666 28.5 -78.999 28.5h-72l105 222h-207v141h429l-118 -250c82.667 -44 124 -117.333 124 -220
c0 -74.667 -23 -134.667 -69 -180s-106.667 -68 -182 -68z" />
    <glyph glyph-name="four" unicode="4" horiz-adv-x="643" 
d="M376 0v160h-376l528 558v-426h76v-132h-76v-160h-152zM280 292h96v101z" />
    <glyph glyph-name="five" unicode="5" horiz-adv-x="541" 
d="M261 -8c-96 0 -168.332 33.3311 -216.999 99.998l110 102c26.667 -40.667 59 -61 97 -61c29.333 0 52.833 9.33301 70.5 28s26.5 41.334 26.5 68.001s-8.83301 49.334 -26.5 68.001s-41.167 28 -70.5 28c-45.333 0 -75.333 -19.667 -90 -59l-98 41v403h387v-141h-235
v-106c15.333 2 30.666 3 45.999 3c72 0 130 -21.5 174 -64.5s66 -100.5 66 -172.5s-22 -129.5 -66 -172.5s-102 -64.5 -174 -64.5z" />
    <glyph glyph-name="six" unicode="6" horiz-adv-x="565" 
d="M285 -8c-70.667 0 -129.832 22.668 -177.499 68.001s-71.5 101.666 -71.5 168.999c0 36 15 82 45 138l187 343h169l-133 -245c64 -2.66699 118.333 -26.334 163 -71.001s67 -99.667 67 -165c0 -67.333 -23.833 -123.666 -71.5 -168.999s-106.834 -68 -177.501 -68z
M285.002 133.001c29.333 0 52.833 9.33301 70.5 28s26.5 41.334 26.5 68.001s-8.83301 49.334 -26.5 68.001s-41.167 28 -70.5 28s-52.833 -9.33301 -70.5 -28s-26.5 -41.334 -26.5 -68.001s8.83301 -49.334 26.5 -68.001s41.167 -28 70.5 -28z" />
    <glyph glyph-name="seven" unicode="7" horiz-adv-x="529" 
d="M44 0l258 569h-264v141h492l-322 -710h-164z" />
    <glyph glyph-name="eight" unicode="8" horiz-adv-x="574" 
d="M287 -8c-70.667 0 -129.832 22.667 -177.499 68s-71.5 101.666 -71.5 168.999c0 76.667 31 136.667 93 180c-26.667 30.667 -40 68 -40 112c0 54.667 19.167 101.167 57.5 139.5s84.5 57.5 138.5 57.5s100.167 -19.167 138.5 -57.5s57.5 -84.833 57.5 -139.5
c0 -44 -13.333 -81.333 -40 -112c62 -43.333 93 -103.333 93 -180c0 -67.333 -23.833 -123.666 -71.5 -168.999s-106.834 -68 -177.501 -68zM287.002 577c-16.667 0 -29.834 -5.33301 -39.501 -16s-14.5 -24 -14.5 -40s4.83301 -29.333 14.5 -40s22.834 -16 39.501 -16
s29.834 5.33301 39.501 16s14.5 24 14.5 40s-4.83301 29.333 -14.5 40s-22.834 16 -39.501 16zM287.002 133c29.333 0 52.833 9.33301 70.5 28s26.5 41.334 26.5 68.001s-8.83301 49.334 -26.5 68.001s-41.167 28 -70.5 28s-52.833 -9.33301 -70.5 -28
s-26.5 -41.334 -26.5 -68.001s8.83301 -49.334 26.5 -68.001s41.167 -28 70.5 -28z" />
    <glyph glyph-name="nine" unicode="9" horiz-adv-x="565" 
d="M128 0l132.998 244.999c-64 2.66699 -118.333 26.334 -163 71.001s-67 99.667 -67 165c0 67.333 23.833 123.666 71.5 168.999s106.834 68 177.501 68s129.834 -22.667 177.501 -68s71.5 -101.666 71.5 -168.999c0 -36 -15 -82 -45 -138l-187 -343h-169zM279.998 384.999
c29.333 0 52.833 9.33301 70.5 28s26.5 41.334 26.5 68.001s-8.83301 49.334 -26.5 68.001s-41.167 28 -70.5 28s-52.833 -9.33301 -70.5 -28s-26.5 -41.334 -26.5 -68.001s8.83301 -49.334 26.5 -68.001s41.167 -28 70.5 -28z" />
    <glyph glyph-name="colon" unicode=":" horiz-adv-x="310" 
d="M155 292c-30 0 -55.5 10.5 -76.5 31.5s-31.5 46.5 -31.5 76.5c0 30.667 10.5 56.334 31.5 77.001s46.5 31 76.5 31s55.5 -10.333 76.5 -31s31.5 -46.334 31.5 -77.001c0 -30 -10.5 -55.5 -31.5 -76.5s-46.5 -31.5 -76.5 -31.5zM155 -8c-30 0 -55.5 10.5 -76.5 31.5
s-31.5 46.5 -31.5 76.5c0 30.667 10.5 56.334 31.5 77.001s46.5 31 76.5 31s55.5 -10.333 76.5 -31s31.5 -46.334 31.5 -77.001c0 -30 -10.5 -55.5 -31.5 -76.5s-46.5 -31.5 -76.5 -31.5z" />
    <glyph glyph-name="semicolon" unicode=";" horiz-adv-x="308" 
d="M154 292c-30 0 -55.5 10.5 -76.5 31.5s-31.5 46.5 -31.5 76.5c0 30.667 10.5 56.334 31.5 77.001s46.5 31 76.5 31s55.5 -10.333 76.5 -31s31.5 -46.334 31.5 -77.001c0 -30 -10.5 -55.5 -31.5 -76.5s-46.5 -31.5 -76.5 -31.5zM90 -154l44 154h-67v174h174v-174l-64 -154
h-87z" />
    <glyph glyph-name="less" unicode="&#x3c;" horiz-adv-x="590" 
d="M392 -8l-289 291l289 291l85 -85l-205 -206l205 -206z" />
    <glyph glyph-name="equal" unicode="=" horiz-adv-x="590" 
d="M77 328v114h436v-114h-436zM77 122v114h436v-114h-436z" />
    <glyph glyph-name="greater" unicode="&#x3e;" horiz-adv-x="590" 
d="M198 -8l-85 85l205 206l-205 206l85 85l289 -291z" />
    <glyph glyph-name="question" unicode="?" horiz-adv-x="536" 
d="M177 255v140.999h67c30 0 54 7.5 72 22.5s27 37.5 27 67.5c0 28.667 -8.33301 51 -25 67s-36 24 -58 24s-40.833 -7.83301 -56.5 -23.5s-23.5 -38.167 -23.5 -67.5h-152c0 64.667 22.167 119.5 66.5 164.5s99.5 67.5 165.5 67.5s121.667 -22.5 167 -67.5
s68 -99.833 68 -164.5c0 -65.333 -23.5 -120.166 -70.5 -164.499s-107.167 -66.5 -180.5 -66.5h-67zM240 -8.00098c-30 0 -55.5 10.5 -76.5 31.5s-31.5 46.5 -31.5 76.5c0 34.667 13.333 62.667 40 84h136c26.667 -22 40 -50 40 -84c0 -30 -10.5 -55.5 -31.5 -76.5
s-46.5 -31.5 -76.5 -31.5z" />
    <glyph glyph-name="at" unicode="@" horiz-adv-x="790" 
d="M384 -8c-105.333 0 -189.833 32.833 -253.5 98.5s-95.5 147.834 -95.5 246.501c0 111.333 38 202.666 114 273.999s167 107 273 107c100 0 182.333 -28.5 247 -85.5s97 -132.5 97 -226.5c0 -81.333 -17.833 -142.166 -53.5 -182.499s-79.167 -60.5 -130.5 -60.5
c-40 0 -73.333 15.667 -100 47c-36.667 -30 -77 -45 -121 -45c-52.667 0 -93.5 16.333 -122.5 49s-43.5 73.667 -43.5 123c0 61.333 20.333 113.166 61 155.499s92.667 63.5 156 63.5c35.333 0 65.333 -9 90 -27l4 17h95l-47 -220c-10.667 -52.667 4 -79 44 -79
c56 0 84 53.667 84 161c0 74 -25 130.667 -75 170s-112 59 -186 59c-82 0 -152.167 -26.833 -210.5 -80.5s-87.5 -126.834 -87.5 -219.501c0 -79.333 23.5 -142.666 70.5 -189.999s110.5 -71 190.5 -71c63.333 0 122 13.667 176 41l33 -81
c-66 -29.333 -135.667 -44 -209 -44zM299 345c0 -26.667 6.49902 -47.665 19.499 -62.998s32.5 -23 58.5 -23c30 0 54.667 9.66699 74 29c0 1.33301 0.166992 2.66602 0.5 3.99902s0.5 2.66602 0.5 3.99902l30 139c-18.667 18.667 -41.667 28 -69 28
c-33.333 0 -60.666 -11.167 -81.999 -33.5s-32 -50.5 -32 -84.5z" />
    <glyph glyph-name="A" unicode="A" horiz-adv-x="670" 
d="M-15 0l350 718l350 -718h-168l-52 110h-260l-52 -110h-168zM266 240h138l-69 147z" />
    <glyph glyph-name="B" unicode="B" horiz-adv-x="637" 
d="M76 0v710.002h267c58 0 107.667 -20.667 149 -62s62 -91 62 -149c0 -48 -16.667 -88.667 -50 -122c30.667 -16.667 55 -39.334 73 -68.001s27 -61.334 27 -98.001c0 -58.667 -20.833 -108.5 -62.5 -149.5s-92.5 -61.5 -152.5 -61.5h-313zM236 423.002h89
c21.333 0 39 6.66699 53 20s21 30 21 50s-7 36.833 -21 50.5s-31.667 20.5 -53 20.5h-89v-141zM236 147.002h138c21.333 0 39 6.66699 53 20s21 30 21 50s-7 36.833 -21 50.5s-31.667 20.5 -53 20.5h-138v-141z" />
    <glyph glyph-name="C" unicode="C" horiz-adv-x="715" 
d="M400 -8c-100 0 -185.5 35.5 -256.5 106.5s-106.5 156.5 -106.5 256.5s35.5 185.5 106.5 256.5s156.5 106.5 256.5 106.5c60 0 116 -13.833 168 -41.5s95 -65.167 129 -112.5l-121 -99c-18.667 30 -43.334 54 -74.001 72s-64.667 27 -102 27
c-57.333 0 -105.333 -20.333 -144 -61s-58 -90 -58 -148s19.333 -107.333 58 -148s86.667 -61 144 -61c37.333 0 71.333 9 102 27s55.334 42 74.001 72l121 -99c-34 -47.333 -77 -84.833 -129 -112.5s-108 -41.5 -168 -41.5z" />
    <glyph glyph-name="D" unicode="D" horiz-adv-x="723" 
d="M76 0v710h249c100 0 185.167 -34.667 255.5 -104s105.5 -153 105.5 -251s-35.167 -181.667 -105.5 -251s-155.5 -104 -255.5 -104h-249zM236 146h89c58.667 0 106.667 20.167 144 60.5s56 89.833 56 148.5s-18.667 108.167 -56 148.5s-85.333 60.5 -144 60.5h-89v-418z
" />
    <glyph glyph-name="E" unicode="E" horiz-adv-x="564" 
d="M76 0v710h440v-158h-280v-120h220v-154h-220v-120h280v-158h-440z" />
    <glyph glyph-name="F" unicode="F" horiz-adv-x="527" 
d="M76 0v710h420v-158h-260v-120h200v-154h-200v-278h-160z" />
    <glyph glyph-name="G" unicode="G" horiz-adv-x="744" 
d="M400 -8c-100 0 -185.502 35.5 -256.502 106.5s-106.5 156.5 -106.5 256.5s35.5 185.5 106.5 256.5s156.5 106.5 256.5 106.5c118.667 0 214.334 -44.667 287.001 -134l-121 -99c-22 28 -45.833 48.167 -71.5 60.5s-57.167 18.5 -94.5 18.5
c-57.333 0 -105.333 -20.333 -144 -61s-58 -90 -58 -148s19.333 -107.333 58 -148s86.667 -61 144 -61c58.667 0 104.334 11.667 137.001 35v99h-171l68 150h258v-322c-68.667 -77.333 -166 -116 -292 -116z" />
    <glyph glyph-name="H" unicode="H" horiz-adv-x="756" 
d="M76 0v710h160v-278h284v278h160v-710h-160v278h-284v-278h-160z" />
    <glyph glyph-name="I" unicode="I" horiz-adv-x="312" 
d="M76 0v710h160v-710h-160z" />
    <glyph glyph-name="J" unicode="J" horiz-adv-x="527" 
d="M236 -8c-64.667 0 -117.5 18.333 -158.5 55s-61.5 91.667 -61.5 165h160c0 -47.333 20 -71 60 -71s60 23.667 60 71v498h160v-508c0 -70 -20.5 -122.5 -61.5 -157.5s-93.833 -52.5 -158.5 -52.5z" />
    <glyph glyph-name="K" unicode="K" horiz-adv-x="685" 
d="M76 0v710h160v-356l248 356h184l-249 -359l281 -351h-198l-266 333v-333h-160z" />
    <glyph glyph-name="L" unicode="L" horiz-adv-x="533" 
d="M76 0v710h160v-551h276v-159h-436z" />
    <glyph glyph-name="M" unicode="M" horiz-adv-x="860" 
d="M76 0v718l354 -355l354 355v-718h-160v348l-194 -194l-194 194v-348h-160z" />
    <glyph glyph-name="N" unicode="N" horiz-adv-x="760" 
d="M684 -8l-448 379v-371h-160v718l448 -379v371h160v-718z" />
    <glyph glyph-name="O" unicode="O" horiz-adv-x="800" 
d="M400 -8c-100 0 -185.5 35.5 -256.5 106.5s-106.5 156.5 -106.5 256.5s35.5 185.5 106.5 256.5s156.5 106.5 256.5 106.5s185.5 -35.5 256.5 -106.5s106.5 -156.5 106.5 -256.5s-35.5 -185.5 -106.5 -256.5s-156.5 -106.5 -256.5 -106.5zM400 146
c57.333 0 105.333 20.333 144 61s58 90 58 148s-19.333 107.333 -58 148s-86.667 61 -144 61s-105.333 -20.333 -144 -61s-58 -90 -58 -148s19.333 -107.333 58 -148s86.667 -61 144 -61z" />
    <glyph glyph-name="P" unicode="P" horiz-adv-x="579" 
d="M76 0v710h234c68.667 0 126.334 -23.333 173.001 -70s70 -103.667 70 -171s-23.333 -124.333 -70 -171s-104.334 -70 -173.001 -70h-74v-228h-160zM236 377h72c25.333 0 46.666 9.16699 63.999 27.5s26 39.833 26 64.5s-8.66699 46 -26 64s-38.666 27 -63.999 27h-72
v-183z" />
    <glyph glyph-name="Q" unicode="Q" horiz-adv-x="811" 
d="M400 -8c-100 0 -185.5 35.501 -256.5 106.501s-106.5 156.5 -106.5 256.5s35.5 185.5 106.5 256.5s156.5 106.5 256.5 106.5s185.5 -35.5 256.5 -106.5s106.5 -156.5 106.5 -256.5c0 -60.667 -14 -117.334 -42 -170.001l101 -81l-91 -112l-101 82
c-67.333 -54.667 -144 -82 -230 -82zM400 146.001c38.667 0 73.667 9.66699 105 29l-108 88l91 111l104 -84c6.66699 19.333 10 41 10 65c0 58 -19.333 107.333 -58 148s-86.667 61 -144 61s-105.333 -20.333 -144 -61s-58 -90 -58 -148s19.333 -107.333 58 -148
s86.667 -61 144 -61z" />
    <glyph glyph-name="R" unicode="R" horiz-adv-x="643" 
d="M76 0v710.001h268c58 0 107.667 -20.667 149 -62s62 -91 62 -149c0 -44.667 -12.667 -84.834 -38 -120.501s-58.333 -61.5 -99 -77.5l231 -301h-191l-220 288h-2v-288h-160zM236 423.001h90c21.333 0 39 6.66699 53 20s21 30 21 50s-7 36.833 -21 50.5
s-31.667 20.5 -53 20.5h-90v-141z" />
    <glyph glyph-name="S" unicode="S" horiz-adv-x="542" 
d="M282 -8c-120.667 0 -205.665 46.3311 -254.998 138.998l121 99c16 -25.333 35.833 -46.333 59.5 -63s47.5 -25 71.5 -25c45.333 0 68 17 68 51c0 16 -6.16699 29.667 -18.5 41s-33.833 24 -64.5 38l-40 18c-54 24 -95.167 55.167 -123.5 93.5s-42.5 81.5 -42.5 129.5
c0 60 21.5 109.167 64.5 147.5s93.5 57.5 151.5 57.5c41.333 0 77.666 -6.5 108.999 -19.5s61.333 -36.167 90 -69.5l-108 -114c-17.333 21.333 -32.5 35.5 -45.5 42.5s-28.167 10.5 -45.5 10.5c-14.667 0 -27.5 -4.33301 -38.5 -13s-16.5 -20.667 -16.5 -36
c0 -17.333 7.16699 -32.166 21.5 -44.499s39.166 -26.166 74.499 -41.499l38 -17c103.333 -46 155 -117 155 -213c0 -63.333 -21.167 -114.333 -63.5 -153s-96.5 -58 -162.5 -58z" />
    <glyph glyph-name="T" unicode="T" horiz-adv-x="543" 
d="M191 0v552h-170v158h501v-158h-171v-552h-160z" />
    <glyph glyph-name="U" unicode="U" horiz-adv-x="718" 
d="M359 -8c-86 0 -156 27.167 -210 81.5s-81 125.833 -81 214.5v422h160v-424c0 -43.333 11.833 -77.5 35.5 -102.5s55.5 -37.5 95.5 -37.5s71.833 12.5 95.5 37.5s35.5 59.167 35.5 102.5v424h160v-423c0 -88.667 -27 -160 -81 -214s-124 -81 -210 -81z" />
    <glyph glyph-name="V" unicode="V" horiz-adv-x="652" 
d="M326 -8l-335 718h178l157 -355l157 355h178z" />
    <glyph glyph-name="W" unicode="W" horiz-adv-x="860" 
d="M243 -8l-246 718h163l110 -333l160 341l160 -341l110 333h163l-246 -718l-187 410z" />
    <glyph glyph-name="X" unicode="X" horiz-adv-x="682" 
d="M4 0l224 356l-209 354h185l137 -236l137 236h185l-209 -354l224 -356h-186l-151 244l-151 -244h-186z" />
    <glyph glyph-name="Y" unicode="Y" horiz-adv-x="682" 
d="M261 0v298l-263 412h187l156 -252l156 252h187l-263 -412v-298h-160z" />
    <glyph glyph-name="Z" unicode="Z" horiz-adv-x="627" 
d="M7 0l329 552h-287v158h560l-329 -552h308v-158h-581z" />
    <glyph glyph-name="bracketleft" unicode="[" horiz-adv-x="334" 
d="M302 -159h-231v918h231v-108h-104v-702h104v-108z" />
    <glyph glyph-name="backslash" unicode="\" horiz-adv-x="505" 
d="M349 0l-331 710h136l331 -710h-136z" />
    <glyph glyph-name="bracketright" unicode="]" horiz-adv-x="334" 
d="M263 -159h-231v108h104v702h-104v108h231v-918z" />
    <glyph glyph-name="asciicircum" unicode="^" horiz-adv-x="606" 
d="M25 301l278 417l278 -417h-137l-141 211l-141 -211h-137z" />
    <glyph glyph-name="underscore" unicode="_" horiz-adv-x="526" 
d="M45 -114v114h436v-114h-436z" />
    <glyph glyph-name="grave" unicode="`" 
d="M21 550l-147 160h173l84 -160h-110z" />
    <glyph glyph-name="a" unicode="a" horiz-adv-x="596" 
d="M385 0l-0.000976562 28.998c-30 -24.667 -66.667 -37 -110 -37c-72 0 -130.333 25.333 -175 76s-67 111.334 -67 182.001s22.333 131.334 67 182.001s103 76 175 76c42.667 0 79.334 -12.667 110.001 -38v30h151v-500h-151zM299.999 129.998
c35.333 0 63.667 13.667 85 41v157c-22 28 -50.333 42 -85 42s-62.5 -11.5 -83.5 -34.5s-31.5 -51.5 -31.5 -85.5s10.5 -62.5 31.5 -85.5s48.833 -34.5 83.5 -34.5z" />
    <glyph glyph-name="b" unicode="b" horiz-adv-x="596" 
d="M60 0l-0.000976562 710.002h151v-240c30.667 25.333 67.334 38 110.001 38c72 0 130.333 -25.333 175 -76s67 -111.334 67 -182.001s-22.333 -131.334 -67 -182.001s-103 -76 -175 -76c-43.333 0 -80 12.333 -110 37v-29h-151zM295.999 370.002
c-36 0 -64.333 -14 -85 -42v-157c20 -27.333 48.333 -41 85 -41c34.667 0 62.5 11.5 83.5 34.5s31.5 51.5 31.5 85.5s-10.5 62.5 -31.5 85.5s-48.833 34.5 -83.5 34.5z" />
    <glyph glyph-name="c" unicode="c" horiz-adv-x="530" 
d="M292 -8c-72 0 -133.333 25.333 -184 76s-76 111.334 -76 182.001s25.333 131.334 76 182.001s112 76 184 76c45.333 0 87.166 -10.5 125.499 -31.5s69.5 -49.833 93.5 -86.5l-120 -85c-22.667 41.333 -55.667 62 -99 62c-31.333 0 -57.166 -10.833 -77.499 -32.5
s-30.5 -49.834 -30.5 -84.501s10.167 -62.834 30.5 -84.501s46.166 -32.5 77.499 -32.5c43.333 0 76.333 20.667 99 62l120 -85c-24 -36.667 -55.167 -65.5 -93.5 -86.5s-80.166 -31.5 -125.499 -31.5z" />
    <glyph glyph-name="d" unicode="d" horiz-adv-x="596" 
d="M536 0l-151.001 -0.00195312v29c-30 -24.667 -66.667 -37 -110 -37c-72 0 -130.333 25.333 -175 76s-67 111.334 -67 182.001s22.333 131.334 67 182.001s103 76 175 76c42.667 0 79.334 -12.667 110.001 -38v240h151v-710zM299.999 369.998
c-34.667 0 -62.501 -11.5 -83.501 -34.5s-31.5 -51.5 -31.5 -85.5s10.5 -62.5 31.5 -85.5s48.833 -34.5 83.5 -34.5c36.667 0 65 13.667 85 41v157c-21.333 28 -49.666 42 -84.999 42z" />
    <glyph glyph-name="e" unicode="e" horiz-adv-x="564" 
d="M288 -8c-68.667 0 -128.334 24.166 -179.001 72.499s-76 110.166 -76 185.499c0 74.667 23.833 136.334 71.5 185.001s109.834 73 186.501 73c77.333 0 139.166 -26.167 185.499 -78.5s63.833 -121.166 52.5 -206.499h-351c4 -30.667 16.667 -53.834 38 -69.501
s45 -23.5 71 -23.5c48.667 0 84.334 21 107.001 63l120 -81c-24 -37.333 -55.5 -66.666 -94.5 -87.999s-82.833 -32 -131.5 -32zM282 386.999c-22.667 0 -43.668 -5.83301 -63.001 -17.5s-32.666 -31.167 -39.999 -58.5h204c-4 25.333 -15.333 44.333 -34 57s-41 19 -67 19z
" />
    <glyph glyph-name="f" unicode="f" horiz-adv-x="383" 
d="M98 0v367.999h-65v132h73c-20.667 25.333 -31 53 -31 83c0 36.667 12.333 67 37 91s57.334 36 98.001 36h155v-132h-98c-32.667 0 -49 -13 -49 -39c0 -11.333 3.66699 -20.666 11 -27.999s16.666 -11 27.999 -11h108v-132h-116v-368h-151z" />
    <glyph glyph-name="g" unicode="g" horiz-adv-x="594" 
d="M290 -194c-92.667 0 -167.666 18.6699 -224.999 56.0029l68 133c44 -34 93 -51 147 -51c33.333 0 60.666 6.33301 81.999 19s32 33 32 61c0 16 -4.33301 30 -13 42c-30.667 -25.333 -67.667 -38 -111 -38c-72.667 0 -130.167 23.667 -172.5 71
s-63.5 103.666 -63.5 168.999s21.167 121.666 63.5 168.999s99.833 71 172.5 71c42.667 0 79.334 -12.667 110.001 -38v30h151v-403c14 -32.667 21 -65.334 21 -98.001c0 -44.667 -13.167 -82 -39.5 -112s-58.333 -51 -96 -63s-79.834 -18 -126.501 -18zM290.001 166.003
c37.333 0 67.333 13.998 90 41.998v120c-22.667 28 -52.667 42 -90 42c-32 0 -57.333 -10.167 -76 -30.5s-28 -44.166 -28 -71.499s9.33301 -51.166 28 -71.499s44 -30.5 76 -30.5z" />
    <glyph glyph-name="h" unicode="h" horiz-adv-x="598" 
d="M60 0l0.000976562 710h151v-241c31.333 26 69.666 39 114.999 39c69.333 0 123 -20.833 161 -62.5s57 -97.167 57 -166.5v-279h-151v252c0 35.333 -7.5 63.833 -22.5 85.5s-38.167 32.5 -69.5 32.5c-34.667 0 -64.667 -14.333 -90 -43v-327h-151z" />
    <glyph glyph-name="i" unicode="i" horiz-adv-x="271" 
d="M60 0v500h151v-500h-151zM206 571h-139.998c-13.333 15.333 -20 34.333 -20 57c0 25.333 8.66699 46.666 26 63.999s38.666 26 63.999 26s46.666 -8.66699 63.999 -26s26 -38.666 26 -63.999c0 -22.667 -6.66699 -41.667 -20 -57z" />
    <glyph glyph-name="j" unicode="j" horiz-adv-x="279" 
d="M-36 -184v142.999h25c26 0 45.667 4.33301 59 13s20 24.334 20 47.001v481h151v-500c0 -60 -19.833 -105.667 -59.5 -137s-93.5 -47 -161.5 -47h-34zM214 570.999h-139.998c-13.333 15.333 -20 34.333 -20 57c0 25.333 8.66699 46.666 26 63.999s38.666 26 63.999 26
s46.666 -8.66699 63.999 -26s26 -38.666 26 -63.999c0 -22.667 -6.66699 -41.667 -20 -57z" />
    <glyph glyph-name="k" unicode="k" horiz-adv-x="564" 
d="M60 0v710h151v-439l163 229h174l-170 -237l196 -263h-178l-185 249v-249h-151z" />
    <glyph glyph-name="l" unicode="l" horiz-adv-x="271" 
d="M60 0v710h151v-710h-151z" />
    <glyph glyph-name="m" unicode="m" horiz-adv-x="891" 
d="M373 0v252.001c0 78 -26.333 117 -79 117c-34 0 -61.667 -13.333 -83 -40v-329h-151v500h151v-30c32 25.333 70 38 114 38c58 0 105.333 -20.333 142 -61c40.667 40.667 94 61 160 61c70 0 122.5 -21.333 157.5 -64s52.5 -97.667 52.5 -165v-279h-151v252
c0 78 -26.333 117 -79 117c-36 0 -64.667 -14.333 -86 -43c2 -14.667 3 -30.334 3 -47.001v-279h-151z" />
    <glyph glyph-name="n" unicode="n" horiz-adv-x="598" 
d="M60 0l0.000976562 500h151v-31c31.333 26 69.666 39 114.999 39c69.333 0 123 -20.833 161 -62.5s57 -97.167 57 -166.5v-279h-151v252c0 35.333 -7.5 63.833 -22.5 85.5s-38.167 32.5 -69.5 32.5c-34.667 0 -64.667 -14.333 -90 -43v-327h-151z" />
    <glyph glyph-name="o" unicode="o" horiz-adv-x="584" 
d="M292 -8c-72 0 -133.333 25.333 -184 76s-76 111.334 -76 182.001s25.333 131.334 76 182.001s112 76 184 76s133.333 -25.333 184 -76s76 -111.334 76 -182.001s-25.333 -131.334 -76 -182.001s-112 -76 -184 -76zM292 133c31.333 0 57.166 10.833 77.499 32.5
s30.5 49.834 30.5 84.501s-10.167 62.834 -30.5 84.501s-46.166 32.5 -77.499 32.5s-57.166 -10.833 -77.499 -32.5s-30.5 -49.834 -30.5 -84.501s10.167 -62.834 30.5 -84.501s46.166 -32.5 77.499 -32.5z" />
    <glyph glyph-name="p" unicode="p" horiz-adv-x="596" 
d="M60 500l151.001 0.00195312v-29c30 24.667 66.667 37 110 37c72 0 130.333 -25.333 175 -76s67 -111.334 67 -182.001s-22.333 -131.334 -67 -182.001s-103 -76 -175 -76c-42.667 0 -79.334 12.667 -110.001 38v-214h-151v684zM296.001 130.002
c34.667 0 62.5 11.5 83.5 34.5s31.5 51.5 31.5 85.5s-10.5 62.5 -31.5 85.5s-48.833 34.5 -83.5 34.5c-36.667 0 -65 -13.667 -85 -41v-157c20.667 -28 49 -42 85 -42z" />
    <glyph glyph-name="q" unicode="q" horiz-adv-x="596" 
d="M536 500l0.000976562 -684.002h-151v214c-30.667 -25.333 -67.334 -38 -110.001 -38c-72 0 -130.333 25.333 -175 76s-67 111.334 -67 182.001s22.333 131.334 67 182.001s103 76 175 76c43.333 0 80 -12.333 110 -37v29h151zM300.001 129.998c35.333 0 63.667 14 85 42
v157c-20 27.333 -48.333 41 -85 41c-34.667 0 -62.5 -11.5 -83.5 -34.5s-31.5 -51.5 -31.5 -85.5s10.5 -62.5 31.5 -85.5s48.833 -34.5 83.5 -34.5z" />
    <glyph glyph-name="r" unicode="r" horiz-adv-x="398" 
d="M60 0l-0.000976562 500h151v-44c28.667 34.667 66.667 52 114 52c21.333 0 39.333 -2.66699 54 -8v-157c-22 11.333 -47.667 17 -77 17c-35.333 0 -65.666 -11 -90.999 -33v-327h-151z" />
    <glyph glyph-name="s" unicode="s" horiz-adv-x="439" 
d="M226 -8c-94 0 -161.001 35.3301 -201.001 105.997l115 78c22.667 -40.667 53.334 -61 92.001 -61c26 0 39 7.66699 39 23c0 8.66699 -3.83301 15.667 -11.5 21s-24.834 13 -51.501 23l-26 10c-88 34.667 -132 88.334 -132 161.001c0 45.333 16.5 82.5 49.5 111.5
s73.833 43.5 122.5 43.5c68.667 0 121.334 -26.333 158.001 -79l-86 -85c-21.333 30 -45.333 45 -72 45c-24 0 -36 -7.66699 -36 -23c0 -9.33301 4 -16.666 12 -21.999s26 -13 54 -23l21 -8c47.333 -18 81.5 -40 102.5 -66s31.5 -58 31.5 -96
c0 -49.333 -17 -88.166 -51 -116.499s-77.333 -42.5 -130 -42.5z" />
    <glyph glyph-name="t" unicode="t" horiz-adv-x="430" 
d="M397 0h-138.001c-47.333 0 -84.666 13.667 -111.999 41s-41 65 -41 113v214h-65l-33 132h98v75l151 75v-150h158l-33 -132h-125v-171c0 -21.333 4.5 -36.5 13.5 -45.5s23.833 -13.5 44.5 -13.5h82v-138z" />
    <glyph glyph-name="u" unicode="u" horiz-adv-x="598" 
d="M387 0v37c-32 -30 -71.667 -45 -119 -45c-66.667 0 -119 20.833 -157 62.5s-57 97.167 -57 166.5v279h151v-252c0 -35.333 7.5 -63.833 22.5 -85.5s36.833 -32.5 65.5 -32.5c42 0 73.333 16.667 94 50v320h151v-500h-151z" />
    <glyph glyph-name="v" unicode="v" horiz-adv-x="552" 
d="M276 -8l-291 508h174l117 -218l117 218h174z" />
    <glyph glyph-name="w" unicode="w" horiz-adv-x="734" 
d="M161 0l-159 500h159l83 -282l123 290l123 -290l83 282h159l-159 -500h-115l-91 205l-91 -205h-115z" />
    <glyph glyph-name="x" unicode="x" horiz-adv-x="560" 
d="M2 0l180 252l-171 248h175l94 -143l94 143h175l-171 -248l180 -252h-175l-103 150l-103 -150h-175z" />
    <glyph glyph-name="y" unicode="y" horiz-adv-x="528" 
d="M117 -184l68 184l-184 500h160l104 -317l104 317h160l-252 -684h-160z" />
    <glyph glyph-name="z" unicode="z" horiz-adv-x="518" 
d="M13 0l232 370h-202v130h454l-231 -369h216v-131h-469z" />
    <glyph glyph-name="braceleft" unicode="{" horiz-adv-x="352" 
d="M321 -159l-83 0.00390625c-44 0 -79.667 12.833 -107 38.5s-41 60.167 -41 103.5v210c0 35.333 -17.667 53 -53 53h-8v108h8c35.333 0 53 17.667 53 53v210c0 43.333 12.833 77.833 38.5 103.5s60.167 38.5 103.5 38.5h89v-108h-47
c-20.667 0 -35.334 -4.33301 -44.001 -13s-13 -23.334 -13 -44.001v-196c0 -54.667 -20.667 -87.334 -62 -98.001c41.333 -10.667 62 -43.334 62 -98.001v-196c0 -20.667 4.33301 -35.334 13 -44.001s23.334 -13 44.001 -13h47v-108z" />
    <glyph glyph-name="bar" unicode="|" horiz-adv-x="269" 
d="M71 -184v894h127v-894h-127z" />
    <glyph glyph-name="braceright" unicode="}" horiz-adv-x="351" 
d="M113 -159l-83 -0.00390625v108h47c20.667 0 35.334 4.33301 44.001 13s13 23.334 13 44.001v196c0 54.667 20.667 87.334 62 98.001c-41.333 10.667 -62 43.334 -62 98.001v196c0 20.667 -4.33301 35.334 -13 44.001s-23.334 13 -44.001 13h-47v108h89
c43.333 0 77.833 -12.833 103.5 -38.5s38.5 -60.167 38.5 -103.5v-210c0 -35.333 17.667 -53 53 -53h8v-108h-8c-35.333 0 -53 -17.667 -53 -53v-210c0 -43.333 -13.667 -77.833 -41 -103.5s-63 -38.5 -107 -38.5z" />
    <glyph glyph-name="asciitilde" unicode="~" horiz-adv-x="590" 
d="M79 178v135l137 84l162 -94l137 83v-135l-137 -84l-162 94z" />
    <glyph glyph-name="uni00A0" unicode="&#xa0;" horiz-adv-x="218" 
 />
    <glyph glyph-name="exclamdown" unicode="&#xa1;" horiz-adv-x="286" 
d="M143 508c30 0 55.5 -10.5 76.5 -31.5s31.5 -46.5 31.5 -76.5c0 -34 -13.333 -62 -40 -84h-136c-26.667 22 -40 50 -40 84c0 30 10.5 55.5 31.5 76.5s46.5 31.5 76.5 31.5zM97 245h92l30 -184v-245h-152v245z" />
    <glyph glyph-name="cent" unicode="&#xa2;" horiz-adv-x="545" 
d="M255 -88v84.001c-62 9.33301 -113.833 38 -155.5 86s-62.5 104 -62.5 168s20.667 119.667 62 167s93.333 76.333 156 87v84h83v-83c76.667 -12 136 -50.333 178 -115l-120 -85c-22.667 41.333 -55.667 62 -99 62c-31.333 0 -57.166 -10.833 -77.499 -32.5
s-30.5 -49.834 -30.5 -84.501s10.167 -62.834 30.5 -84.501s46.166 -32.5 77.499 -32.5c43.333 0 76.333 20.667 99 62l120 -85c-42.667 -65.333 -102 -103.666 -178 -114.999v-83h-83z" />
    <glyph glyph-name="sterling" unicode="&#xa3;" horiz-adv-x="598" 
d="M46 0l-0.000976562 141.001h76v178h-76v74h80c-21.333 32 -32 68 -32 108c0 58.667 22.167 109.5 66.5 152.5s99.166 64.5 164.499 64.5c62.667 0 116.334 -21.667 161.001 -65s68.334 -96 71.001 -158h-152c0 24 -7.66699 43.667 -23 59s-34.333 23 -57 23
c-23.333 0 -42.333 -7.83301 -57 -23.5s-22 -37.834 -22 -66.501c0 -26.667 8.16699 -49 24.5 -67s38.833 -27 67.5 -27h67v-74h-131v-178h283v-141h-511z" />
    <glyph glyph-name="currency" unicode="&#xa4;" horiz-adv-x="624" 
d="M549 348c0 -49.333 -14 -94 -42 -134l70 -70l-56 -55l-69 69c-40 -31.333 -86.667 -47 -140 -47s-100 15.667 -140 47l-69 -69l-56 55l70 70c-28 40 -42 84.667 -42 134s14 94 42 134l-70 70l56 55l69 -69c40 31.333 86.667 47 140 47s100 -15.667 140 -47l69 69l56 -55
l-70 -70c28 -40 42 -84.667 42 -134zM414 348c0 28 -10 52 -30 72s-43.667 30 -71 30c-28 0 -52.167 -10 -72.5 -30s-30.5 -44 -30.5 -72s10.167 -52 30.5 -72s44.5 -30 72.5 -30c27.333 0 51 10 71 30s30 44 30 72z" />
    <glyph glyph-name="yen" unicode="&#xa5;" horiz-adv-x="728" 
d="M111 298v74h126l-216 338h187l156 -252l156 252h187l-216 -338h126v-74h-173v-73h173v-74h-173v-151h-160v151h-173v74h173v73h-173z" />
    <glyph glyph-name="brokenbar" unicode="&#xa6;" horiz-adv-x="269" 
d="M71 327v383h127v-383h-127zM71 -184v384h127v-384h-127z" />
    <glyph glyph-name="section" unicode="&#xa7;" horiz-adv-x="451" 
d="M231 -204c-84.667 0 -144.668 30.3291 -180.001 90.9961l88 65c18.667 -32 46.334 -48 83.001 -48c17.333 0 31.5 4.83301 42.5 14.5s16.5 22.167 16.5 37.5c0 14.667 -5.5 28.334 -16.5 41.001s-30.5 27.667 -58.5 45l-55 35c-68.667 44.667 -103 99.334 -103 164.001
c0 25.333 4.16699 49.166 12.5 71.499s16.666 39.5 24.999 51.5s19.833 26.333 34.5 43c-48.667 40.667 -73 92.334 -73 155.001c0 48.667 16.833 87.5 50.5 116.5s74.834 43.5 123.501 43.5c70 0 123.333 -30.333 160 -91l-88 -65c-20.667 32 -43 48 -67 48
c-14 0 -26.333 -4 -37 -12s-16 -21 -16 -39c0 -11.333 1.16699 -20.666 3.5 -27.999s9 -16.833 20 -28.5s27.5 -24.167 49.5 -37.5l55 -35c70 -44 105 -98.667 105 -164c0 -24.667 -4.33301 -48.5 -13 -71.5s-17 -40.167 -25 -51.5s-19.333 -25.666 -34 -42.999
c48.667 -42 73 -91.333 73 -148c0 -48 -17.167 -86.667 -51.5 -116s-75.833 -44 -124.5 -44zM232.999 168.996l5.00098 -3c28.667 28.667 43 57.334 43 86.001c0 21.333 -5.16699 38.666 -15.5 51.999s-25.5 26 -45.5 38l-4 3c-28.667 -28.667 -43 -57.334 -43 -86.001
c0 -22 4.66699 -39.167 14 -51.5s24.666 -25.166 45.999 -38.499z" />
    <glyph glyph-name="dieresis" unicode="&#xa8;" 
d="M119 567c-22 0 -40.833 7.83301 -56.5 23.5s-23.5 34.5 -23.5 56.5c0 23.333 7.83301 42.5 23.5 57.5s34.5 22.5 56.5 22.5s40.833 -7.5 56.5 -22.5s23.5 -34.167 23.5 -57.5c0 -22 -7.83301 -40.833 -23.5 -56.5s-34.5 -23.5 -56.5 -23.5zM-119 567
c-22 0 -40.833 7.83301 -56.5 23.5s-23.5 34.5 -23.5 56.5c0 23.333 7.83301 42.5 23.5 57.5s34.5 22.5 56.5 22.5s40.833 -7.5 56.5 -22.5s23.5 -34.167 23.5 -57.5c0 -22 -7.83301 -40.833 -23.5 -56.5s-34.5 -23.5 -56.5 -23.5z" />
    <glyph glyph-name="copyright" unicode="&#xa9;" horiz-adv-x="800" 
d="M400 -8c-100 0 -185.5 35.5 -256.5 106.5s-106.5 156.5 -106.5 256.5s35.5 185.5 106.5 256.5s156.5 106.5 256.5 106.5s185.5 -35.5 256.5 -106.5s106.5 -156.5 106.5 -256.5s-35.5 -185.5 -106.5 -256.5s-156.5 -106.5 -256.5 -106.5zM400 73c78 0 143.333 27 196 81
s79 121.333 79 202c0 79.333 -26.333 146 -79 200s-118 81 -196 81s-143.333 -27 -196 -81s-79 -120.667 -79 -200c0 -80.667 26.333 -148 79 -202s118 -81 196 -81zM413 183c-47.333 0 -87.833 16.833 -121.5 50.5s-50.5 74.167 -50.5 121.5s16.833 87.833 50.5 121.5
s74.167 50.5 121.5 50.5c60 0 107.667 -25.333 143 -76l-67 -54c-17.333 30.667 -42.666 46 -75.999 46c-23.333 0 -43.166 -8.66699 -59.499 -26s-24.5 -38 -24.5 -62s8.16699 -44.5 24.5 -61.5s36.166 -25.5 59.499 -25.5c33.333 0 58.666 15.333 75.999 46l67 -55
c-35.333 -50.667 -83 -76 -143 -76z" />
    <glyph glyph-name="ordfeminine" unicode="&#xaa;" horiz-adv-x="393" 
d="M241 410l0.000976562 16c-18 -14 -39.333 -21 -64 -21c-43.333 0 -78.166 15 -104.499 45s-39.5 66.667 -39.5 110s13.167 80 39.5 110s61.166 45 104.499 45c25.333 0 46.666 -7.33301 63.999 -22v17h94v-300h-94zM193.001 491c20.667 0 36.667 7.66699 48 23v92
c-12 15.333 -28 23 -48 23s-36 -6.5 -48 -19.5s-18 -29.5 -18 -49.5s6 -36.5 18 -49.5s28 -19.5 48 -19.5z" />
    <glyph glyph-name="guillemotleft" unicode="&#xab;" horiz-adv-x="562" 
d="M425 9l-164 241l164 241l100 -68l-118 -173l118 -173zM190 9l-164 241l164 241l100 -68l-118 -173l118 -173z" />
    <glyph glyph-name="uni00AD" unicode="&#xad;" horiz-adv-x="396" 
d="M56 210v144h284v-144h-284z" />
    <glyph glyph-name="registered" unicode="&#xae;" horiz-adv-x="800" 
d="M400 -8c-100 0 -185.5 35.5 -256.5 106.5s-106.5 156.5 -106.5 256.5s35.5 185.5 106.5 256.5s156.5 106.5 256.5 106.5s185.5 -35.5 256.5 -106.5s106.5 -156.5 106.5 -256.5s-35.5 -185.5 -106.5 -256.5s-156.5 -106.5 -256.5 -106.5zM400 73c78 0 143.333 27 196 81
s79 121.333 79 202c0 79.333 -26.333 146 -79 200s-118 81 -196 81s-143.333 -27 -196 -81s-79 -120.667 -79 -200c0 -80.667 26.333 -148 79 -202s118 -81 196 -81zM286 187v336h136c25.333 0 47.833 -10.167 67.5 -30.5s29.5 -43.833 29.5 -70.5
c0 -21.333 -5.83301 -40.333 -17.5 -57s-26.167 -29 -43.5 -37l108 -141h-103l-91 119v-119h-86zM372 392h39c16.667 0 25 8.66699 25 26s-8.33301 26 -25 26h-39v-52z" />
    <glyph glyph-name="macron" unicode="&#xaf;" 
d="M-165 579v96h330v-96h-330z" />
    <glyph glyph-name="degree" unicode="&#xb0;" horiz-adv-x="308" 
d="M154 470c-34 0 -62.833 11.833 -86.5 35.5s-35.5 52.5 -35.5 86.5s11.833 62.833 35.5 86.5s52.5 35.5 86.5 35.5s62.833 -11.833 86.5 -35.5s35.5 -52.5 35.5 -86.5s-11.833 -62.833 -35.5 -86.5s-52.5 -35.5 -86.5 -35.5zM154 547c12.667 0 23.334 4.33301 32.001 13
s13 19.334 13 32.001s-4.33301 23.334 -13 32.001s-19.334 13 -32.001 13s-23.334 -4.33301 -32.001 -13s-13 -19.334 -13 -32.001s4.33301 -23.334 13 -32.001s19.334 -13 32.001 -13z" />
    <glyph glyph-name="plusminus" unicode="&#xb1;" horiz-adv-x="590" 
d="M77 275v114h161v111h114v-111h161v-114h-161v-111h-114v111h-161zM77 0v114h436v-114h-436z" />
    <glyph glyph-name="twosuperior" unicode="&#xb2;" horiz-adv-x="360" 
d="M5 410l124.001 159c-26 10 -47.5 27 -64.5 51s-25.5 50.667 -25.5 80c0 39.333 14.167 72.333 42.5 99s62.166 40 101.499 40s73 -13.333 101 -40s42 -59.667 42 -99c0 -30 -11.667 -60 -35 -90l-85 -107h120v-93h-321zM182.001 654c13.333 0 24.5 4.5 33.5 13.5
s13.5 19.833 13.5 32.5c0 13.333 -4.5 24.5 -13.5 33.5s-20.167 13.5 -33.5 13.5s-24.333 -4.5 -33 -13.5s-13 -20.167 -13 -33.5c0 -12.667 4.33301 -23.5 13 -32.5s19.667 -13.5 33 -13.5z" />
    <glyph glyph-name="threesuperior" unicode="&#xb3;" horiz-adv-x="331" 
d="M149 404c-58 0 -101.667 20.001 -131 60.001l68 65c14.667 -21.333 34.334 -32 59.001 -32c17.333 0 31.166 5.5 41.499 16.5s15.5 24.833 15.5 41.5c0 17.333 -5.66699 31.166 -17 41.499s-26 15.5 -44 15.5h-44l57 129h-118v92h263l-66 -147c44 -27.333 66 -71 66 -131
c0 -46.667 -13.5 -83.5 -40.5 -110.5s-63.5 -40.5 -109.5 -40.5z" />
    <glyph glyph-name="acute" unicode="&#xb4;" 
d="M127 710l-147 -160h-110l84 160h173z" />
    <glyph glyph-name="paragraph" unicode="&#xb6;" horiz-adv-x="675" 
d="M250 -184v444c-62 0 -115 22 -159 66s-66 97 -66 159s22 115 66 159s97 66 159 66h339v-894h-127v762h-85v-762h-127z" />
    <glyph glyph-name="periodcentered" unicode="&#xb7;" horiz-adv-x="298" 
d="M149 142c-30 0 -55.5 10.5 -76.5 31.5s-31.5 46.5 -31.5 76.5c0 30.667 10.5 56.334 31.5 77.001s46.5 31 76.5 31s55.5 -10.333 76.5 -31s31.5 -46.334 31.5 -77.001c0 -30 -10.5 -55.5 -31.5 -76.5s-46.5 -31.5 -76.5 -31.5z" />
    <glyph glyph-name="cedilla" unicode="&#xb8;" 
d="M-93 -165l72 165h102l-47 -165h-127z" />
    <glyph glyph-name="onesuperior" unicode="&#xb9;" horiz-adv-x="187" 
d="M40 410v330l100 99v-429h-100z" />
    <glyph glyph-name="ordmasculine" unicode="&#xba;" horiz-adv-x="375" 
d="M187 405c-42.667 0 -79.334 15.333 -110.001 46s-46 67 -46 109s15.333 78.333 46 109s67.334 46 110.001 46c43.333 0 80.333 -15.333 111 -46s46 -67 46 -109s-15.333 -78.333 -46 -109s-67.667 -46 -111 -46zM187 493c18 0 32.833 6.16699 44.5 18.5
s17.5 28.5 17.5 48.5s-5.83301 36.167 -17.5 48.5s-26.5 18.5 -44.5 18.5s-32.667 -6.16699 -44 -18.5s-17 -28.5 -17 -48.5s5.66699 -36.167 17 -48.5s26 -18.5 44 -18.5z" />
    <glyph glyph-name="guillemotright" unicode="&#xbb;" horiz-adv-x="562" 
d="M372 9l-100 68l118 173l-118 173l100 68l164 -241zM137 9l-100 68l118 173l-118 173l100 68l164 -241z" />
    <glyph glyph-name="onequarter" unicode="&#xbc;" horiz-adv-x="737" 
d="M40 287v330l100 99v-429h-100zM25 0l500 710h130l-500 -710h-130zM568 0v91h-221l321 338v-252h43v-86h-43v-91h-100zM529 177h39v41z" />
    <glyph glyph-name="onehalf" unicode="&#xbd;" horiz-adv-x="789" 
d="M40 287v330l100 99v-429h-100zM25 0l500 710h130l-500 -710h-130zM434 0l124.001 159c-26 10 -47.5 27 -64.5 51s-25.5 50.667 -25.5 80c0 39.333 14.167 72.333 42.5 99s62.166 40 101.499 40s73 -13.333 101 -40s42 -59.667 42 -99c0 -30 -11.667 -60 -35 -90l-85 -107
h120v-93h-321zM611.001 244c13.333 0 24.5 4.5 33.5 13.5s13.5 19.833 13.5 32.5c0 13.333 -4.5 24.5 -13.5 33.5s-20.167 13.5 -33.5 13.5s-24.333 -4.5 -33 -13.5s-13 -20.167 -13 -33.5c0 -12.667 4.33301 -23.5 13 -32.5s19.667 -13.5 33 -13.5z" />
    <glyph glyph-name="threequarters" unicode="&#xbe;" horiz-adv-x="819" 
d="M149 281c-58 0 -101.667 20.001 -131 60.001l68 65c14.667 -21.333 34.334 -32 59.001 -32c17.333 0 31.166 5.5 41.499 16.5s15.5 24.833 15.5 41.5c0 17.333 -5.66699 31.166 -17 41.499s-26 15.5 -44 15.5h-44l57 129h-118v92h263l-66 -147c44 -27.333 66 -71 66 -131
c0 -46.667 -13.5 -83.5 -40.5 -110.5s-63.5 -40.5 -109.5 -40.5zM107 0.000976562l500 710h130l-500 -710h-130zM650 0.000976562v91h-221l321 338v-252h43v-86h-43v-91h-100zM611 177.001h39v41z" />
    <glyph glyph-name="questiondown" unicode="&#xbf;" horiz-adv-x="529" 
d="M361 316h-136c-26.667 22 -40 50 -40 84c0 30 10.5 55.5 31.5 76.5s46.5 31.5 76.5 31.5s55.5 -10.5 76.5 -31.5s31.5 -46.5 31.5 -76.5c0 -34.667 -13.333 -62.667 -40 -84zM273 -194c-66 0 -121.667 22.501 -167 67.501s-68 99.833 -68 164.5
c0 65.333 23.5 120.166 70.5 164.499s107.167 66.5 180.5 66.5h67v-141h-67c-30 0 -54 -7.5 -72 -22.5s-27 -37.5 -27 -67.5c0 -29.333 8.33301 -51.833 25 -67.5s36 -23.5 58 -23.5s40.833 7.83301 56.5 23.5s23.5 38.167 23.5 67.5h152
c0 -64.667 -22.167 -119.5 -66.5 -164.5s-99.5 -67.5 -165.5 -67.5z" />
    <glyph glyph-name="Agrave" unicode="&#xc0;" horiz-adv-x="670" 
d="M-15 0l350 718l350 -718h-168l-52 110h-260l-52 -110h-168zM266 240h138l-69 147zM281 768l-126 145h166l70 -145h-110z" />
    <glyph glyph-name="Aacute" unicode="&#xc1;" horiz-adv-x="670" 
d="M335 718l-350 -718h168l52 110h260l52 -110h168zM404 240h-138l69 147zM527 913l-126 -145h-110l70 145h166z" />
    <glyph glyph-name="Acircumflex" unicode="&#xc2;" horiz-adv-x="670" 
d="M-15 0l350 718l350 -718h-168l-52 110h-260l-52 -110h-168zM266 240h138l-69 147zM199 759l-41 96l177 76l177 -76l-41 -96l-136 59z" />
    <glyph glyph-name="Atilde" unicode="&#xc3;" horiz-adv-x="670" 
d="M-15 0l350 718l350 -718h-168l-52 110h-260l-52 -110h-168zM266 240h138l-69 147zM142 777l4 29c5.33301 36 19.333 64.333 42 85s47.667 31 75 31c22 0 46.667 -6.66699 74 -20s44.666 -20 51.999 -20c11.333 0 20.333 3.16699 27 9.5s12 17.166 16 32.499h96l-4 -29
c-5.33301 -36 -19.333 -64.333 -42 -85s-47.667 -31 -75 -31c-22 0 -46.667 6.66699 -74 20s-44.666 20 -51.999 20c-11.333 0 -20.333 -3.16699 -27 -9.5s-12 -17.166 -16 -32.499h-96z" />
    <glyph glyph-name="Adieresis" unicode="&#xc4;" horiz-adv-x="670" 
d="M-15 0l350 718l350 -718h-168l-52 110h-260l-52 -110h-168zM266 240h138l-69 147zM454 770c-22 0 -40.833 7.83301 -56.5 23.5s-23.5 34.5 -23.5 56.5c0 23.333 7.83301 42.5 23.5 57.5s34.5 22.5 56.5 22.5s40.833 -7.5 56.5 -22.5s23.5 -34.167 23.5 -57.5
c0 -22 -7.83301 -40.833 -23.5 -56.5s-34.5 -23.5 -56.5 -23.5zM216 770c-22 0 -40.833 7.83301 -56.5 23.5s-23.5 34.5 -23.5 56.5c0 23.333 7.83301 42.5 23.5 57.5s34.5 22.5 56.5 22.5s40.833 -7.5 56.5 -22.5s23.5 -34.167 23.5 -57.5
c0 -22 -7.83301 -40.833 -23.5 -56.5s-34.5 -23.5 -56.5 -23.5z" />
    <glyph glyph-name="Aring" unicode="&#xc5;" horiz-adv-x="670" 
d="M-15 0l350 718l350 -718h-168l-52 110h-260l-52 -110h-168zM266 240h138l-69 147zM335 759c-32.667 0 -60.834 11.833 -84.501 35.5s-35.5 51.834 -35.5 84.501s11.833 60.834 35.5 84.501s51.834 35.5 84.501 35.5s60.834 -11.833 84.501 -35.5
s35.5 -51.834 35.5 -84.501s-11.833 -60.834 -35.5 -84.501s-51.834 -35.5 -84.501 -35.5zM335 832c13.333 0 24.5 4.5 33.5 13.5s13.5 20.167 13.5 33.5s-4.5 24.5 -13.5 33.5s-20.167 13.5 -33.5 13.5s-24.5 -4.5 -33.5 -13.5s-13.5 -20.167 -13.5 -33.5
s4.5 -24.5 13.5 -33.5s20.167 -13.5 33.5 -13.5z" />
    <glyph glyph-name="AE" unicode="&#xc6;" horiz-adv-x="922" 
d="M169 0h-168l266 545l-81 165h401l77 -158h-232l58 -120h172l75 -154h-171l58 -120h232l77 -158h-400l-54 110h-258zM282 240h134l-68 139z" />
    <glyph glyph-name="Ccedilla" unicode="&#xc7;" horiz-adv-x="715" 
d="M400 -8c-100 0 -185.5 35.5 -256.5 106.5s-106.5 156.5 -106.5 256.5s35.5 185.5 106.5 256.5s156.5 106.5 256.5 106.5c60 0 116 -13.833 168 -41.5s95 -65.167 129 -112.5l-121 -99c-18.667 30 -43.334 54 -74.001 72s-64.667 27 -102 27
c-57.333 0 -105.333 -20.333 -144 -61s-58 -90 -58 -148s19.333 -107.333 58 -148s86.667 -61 144 -61c37.333 0 71.333 9 102 27s55.334 42 74.001 72l121 -99c-34 -47.333 -77 -84.833 -129 -112.5s-108 -41.5 -168 -41.5zM281 -165l72 165h102l-47 -165h-127z" />
    <glyph glyph-name="Egrave" unicode="&#xc8;" horiz-adv-x="564" 
d="M76 0v710h440v-158h-280v-120h220v-154h-220v-120h280v-158h-440zM242 768l-126 145h166l70 -145h-110z" />
    <glyph glyph-name="Eacute" unicode="&#xc9;" horiz-adv-x="564" 
d="M76 710v-710h440v158h-280v120h220v154h-220v120h280v158h-440zM488 913l-126 -145h-110l70 145h166z" />
    <glyph glyph-name="Ecircumflex" unicode="&#xca;" horiz-adv-x="564" 
d="M76 0v710h440v-158h-280v-120h220v-154h-220v-120h280v-158h-440zM160 759l-41 96l177 76l177 -76l-41 -96l-136 59z" />
    <glyph glyph-name="Edieresis" unicode="&#xcb;" horiz-adv-x="564" 
d="M76 0v710h440v-158h-280v-120h220v-154h-220v-120h280v-158h-440zM415 770c-22 0 -40.833 7.83301 -56.5 23.5s-23.5 34.5 -23.5 56.5c0 23.333 7.83301 42.5 23.5 57.5s34.5 22.5 56.5 22.5s40.833 -7.5 56.5 -22.5s23.5 -34.167 23.5 -57.5
c0 -22 -7.83301 -40.833 -23.5 -56.5s-34.5 -23.5 -56.5 -23.5zM177 770c-22 0 -40.833 7.83301 -56.5 23.5s-23.5 34.5 -23.5 56.5c0 23.333 7.83301 42.5 23.5 57.5s34.5 22.5 56.5 22.5s40.833 -7.5 56.5 -22.5s23.5 -34.167 23.5 -57.5
c0 -22 -7.83301 -40.833 -23.5 -56.5s-34.5 -23.5 -56.5 -23.5z" />
    <glyph glyph-name="Igrave" unicode="&#xcc;" horiz-adv-x="312" 
d="M76 0v710h160v-710h-160zM103 768l-126 145h166l70 -145h-110z" />
    <glyph glyph-name="Iacute" unicode="&#xcd;" horiz-adv-x="312" 
d="M76 710v-710h160v710h-160zM349 913l-126 -145h-110l70 145h166z" />
    <glyph glyph-name="Icircumflex" unicode="&#xce;" horiz-adv-x="312" 
d="M76 0v710h160v-710h-160zM21 759l-41 96l177 76l177 -76l-41 -96l-136 59z" />
    <glyph glyph-name="Idieresis" unicode="&#xcf;" horiz-adv-x="312" 
d="M76 0v710h160v-710h-160zM276 770c-22 0 -40.833 7.83301 -56.5 23.5s-23.5 34.5 -23.5 56.5c0 23.333 7.83301 42.5 23.5 57.5s34.5 22.5 56.5 22.5s40.833 -7.5 56.5 -22.5s23.5 -34.167 23.5 -57.5c0 -22 -7.83301 -40.833 -23.5 -56.5s-34.5 -23.5 -56.5 -23.5z
M38 770c-22 0 -40.833 7.83301 -56.5 23.5s-23.5 34.5 -23.5 56.5c0 23.333 7.83301 42.5 23.5 57.5s34.5 22.5 56.5 22.5s40.833 -7.5 56.5 -22.5s23.5 -34.167 23.5 -57.5c0 -22 -7.83301 -40.833 -23.5 -56.5s-34.5 -23.5 -56.5 -23.5z" />
    <glyph glyph-name="Eth" unicode="&#xd0;" horiz-adv-x="748" 
d="M101 0v710h249c100 0 185.167 -34.667 255.5 -104s105.5 -153 105.5 -251s-35.167 -181.667 -105.5 -251s-155.5 -104 -255.5 -104h-249zM261 146h89c58.667 0 106.667 20.167 144 60.5s56 89.833 56 148.5s-18.667 108.167 -56 148.5s-85.333 60.5 -144 60.5h-89v-418z
M12 318v74h338v-74h-338z" />
    <glyph glyph-name="Ntilde" unicode="&#xd1;" horiz-adv-x="760" 
d="M684 -8l-448 379v-371h-160v718l448 -379v371h160v-718zM154 777l4 29c5.33301 36 19.333 64.333 42 85s47.667 31 75 31c22 0 46.667 -6.66699 74 -20s44.666 -20 51.999 -20c11.333 0 20.333 3.16699 27 9.5s12 17.166 16 32.499h96l-4 -29
c-5.33301 -36 -19.333 -64.333 -42 -85s-47.667 -31 -75 -31c-22 0 -46.667 6.66699 -74 20s-44.666 20 -51.999 20c-11.333 0 -20.333 -3.16699 -27 -9.5s-12 -17.166 -16 -32.499h-96z" />
    <glyph glyph-name="Ograve" unicode="&#xd2;" horiz-adv-x="800" 
d="M400 -8c-100 0 -185.5 35.5 -256.5 106.5s-106.5 156.5 -106.5 256.5s35.5 185.5 106.5 256.5s156.5 106.5 256.5 106.5s185.5 -35.5 256.5 -106.5s106.5 -156.5 106.5 -256.5s-35.5 -185.5 -106.5 -256.5s-156.5 -106.5 -256.5 -106.5zM400 146
c57.333 0 105.333 20.333 144 61s58 90 58 148s-19.333 107.333 -58 148s-86.667 61 -144 61s-105.333 -20.333 -144 -61s-58 -90 -58 -148s19.333 -107.333 58 -148s86.667 -61 144 -61zM346 768l-126 145h166l70 -145h-110z" />
    <glyph glyph-name="Oacute" unicode="&#xd3;" horiz-adv-x="800" 
d="M400 -8c100 0 185.5 35.5 256.5 106.5s106.5 156.5 106.5 256.5s-35.5 185.5 -106.5 256.5s-156.5 106.5 -256.5 106.5s-185.5 -35.5 -256.5 -106.5s-106.5 -156.5 -106.5 -256.5s35.5 -185.5 106.5 -256.5s156.5 -106.5 256.5 -106.5zM400 146
c-57.333 0 -105.333 20.333 -144 61s-58 90 -58 148s19.333 107.333 58 148s86.667 61 144 61s105.333 -20.333 144 -61s58 -90 58 -148s-19.333 -107.333 -58 -148s-86.667 -61 -144 -61zM592 913l-126 -145h-110l70 145h166z" />
    <glyph glyph-name="Ocircumflex" unicode="&#xd4;" horiz-adv-x="800" 
d="M400 -8c-100 0 -185.5 35.5 -256.5 106.5s-106.5 156.5 -106.5 256.5s35.5 185.5 106.5 256.5s156.5 106.5 256.5 106.5s185.5 -35.5 256.5 -106.5s106.5 -156.5 106.5 -256.5s-35.5 -185.5 -106.5 -256.5s-156.5 -106.5 -256.5 -106.5zM400 146
c57.333 0 105.333 20.333 144 61s58 90 58 148s-19.333 107.333 -58 148s-86.667 61 -144 61s-105.333 -20.333 -144 -61s-58 -90 -58 -148s19.333 -107.333 58 -148s86.667 -61 144 -61zM264 759l-41 96l177 76l177 -76l-41 -96l-136 59z" />
    <glyph glyph-name="Otilde" unicode="&#xd5;" horiz-adv-x="800" 
d="M400 -8c-100 0 -185.5 35.5 -256.5 106.5s-106.5 156.5 -106.5 256.5s35.5 185.5 106.5 256.5s156.5 106.5 256.5 106.5s185.5 -35.5 256.5 -106.5s106.5 -156.5 106.5 -256.5s-35.5 -185.5 -106.5 -256.5s-156.5 -106.5 -256.5 -106.5zM400 146
c57.333 0 105.333 20.333 144 61s58 90 58 148s-19.333 107.333 -58 148s-86.667 61 -144 61s-105.333 -20.333 -144 -61s-58 -90 -58 -148s19.333 -107.333 58 -148s86.667 -61 144 -61zM207 777l4 29c5.33301 36 19.333 64.333 42 85s47.667 31 75 31
c21.333 0 45.666 -6.66699 72.999 -20s45 -20 53 -20c11.333 0 20.333 3.16699 27 9.5s12 17.166 16 32.499h96l-4 -29c-5.33301 -36 -19.333 -64.333 -42 -85s-47.667 -31 -75 -31c-21.333 0 -45.666 6.66699 -72.999 20s-45 20 -53 20
c-11.333 0 -20.333 -3.16699 -27 -9.5s-12 -17.166 -16 -32.499h-96z" />
    <glyph glyph-name="Odieresis" unicode="&#xd6;" horiz-adv-x="800" 
d="M400 -8c-100 0 -185.5 35.5 -256.5 106.5s-106.5 156.5 -106.5 256.5s35.5 185.5 106.5 256.5s156.5 106.5 256.5 106.5s185.5 -35.5 256.5 -106.5s106.5 -156.5 106.5 -256.5s-35.5 -185.5 -106.5 -256.5s-156.5 -106.5 -256.5 -106.5zM400 146
c57.333 0 105.333 20.333 144 61s58 90 58 148s-19.333 107.333 -58 148s-86.667 61 -144 61s-105.333 -20.333 -144 -61s-58 -90 -58 -148s19.333 -107.333 58 -148s86.667 -61 144 -61zM519 770c-22 0 -40.833 7.83301 -56.5 23.5s-23.5 34.5 -23.5 56.5
c0 23.333 7.83301 42.5 23.5 57.5s34.5 22.5 56.5 22.5s40.833 -7.5 56.5 -22.5s23.5 -34.167 23.5 -57.5c0 -22 -7.83301 -40.833 -23.5 -56.5s-34.5 -23.5 -56.5 -23.5zM281 770c-22 0 -40.833 7.83301 -56.5 23.5s-23.5 34.5 -23.5 56.5c0 23.333 7.83301 42.5 23.5 57.5
s34.5 22.5 56.5 22.5s40.833 -7.5 56.5 -22.5s23.5 -34.167 23.5 -57.5c0 -22 -7.83301 -40.833 -23.5 -56.5s-34.5 -23.5 -56.5 -23.5z" />
    <glyph glyph-name="multiply" unicode="&#xd7;" horiz-adv-x="590" 
d="M167 54l-81 80l128 128l-128 128l81 81l128 -128l128 128l80 -81l-128 -128l128 -128l-80 -80l-128 128z" />
    <glyph glyph-name="Oslash" unicode="&#xd8;" horiz-adv-x="800" 
d="M97 -58l-56.001 47l97 115c-30 30 -54.333 66.667 -73 110s-28 90.333 -28 141c0 100 35.5 185.5 106.5 256.5s156.5 106.5 256.5 106.5c49.333 0 96.333 -9.66699 141 -29c22.667 -9.33301 43.334 -20.333 62.001 -33l96 114l58 -47l-97 -115
c32 -34 56.667 -71.333 74 -112c19.333 -44.667 29 -91.667 29 -141c0 -100 -35.5 -185.5 -106.5 -256.5s-156.5 -106.5 -256.5 -106.5c-50.667 0 -97.667 9.33301 -141 28c-23.333 10 -45.333 22 -66 36zM399.999 146c57.333 0 105.334 20.333 144.001 61s58 90 58 148
c0 30 -5.33301 57 -16 81c-6.66699 18 -16.334 35 -29.001 51l-263 -311c9.33301 -5.33301 18 -10 26 -14c24 -10.667 50.667 -16 80 -16zM502 536l-22 10.999c-26 11.333 -52.667 17 -80 17c-57.333 0 -105.333 -20.333 -144 -61s-58 -90 -58 -148
c0 -28.667 5 -55.667 15 -81c6.66699 -17.333 15.667 -33.666 27 -48.999z" />
    <glyph glyph-name="Ugrave" unicode="&#xd9;" horiz-adv-x="718" 
d="M359 -8c-86 0 -156 27.167 -210 81.5s-81 125.833 -81 214.5v422h160v-424c0 -43.333 11.833 -77.5 35.5 -102.5s55.5 -37.5 95.5 -37.5s71.833 12.5 95.5 37.5s35.5 59.167 35.5 102.5v424h160v-423c0 -88.667 -27 -160 -81 -214s-124 -81 -210 -81zM305 768l-126 145
h166l70 -145h-110z" />
    <glyph glyph-name="Uacute" unicode="&#xda;" horiz-adv-x="718" 
d="M359 -8c86 0 156 27 210 81s81 125.333 81 214v423h-160v-424c0 -43.333 -11.833 -77.5 -35.5 -102.5s-55.5 -37.5 -95.5 -37.5s-71.833 12.5 -95.5 37.5s-35.5 59.167 -35.5 102.5v424h-160v-422c0 -88.667 27 -160.167 81 -214.5s124 -81.5 210 -81.5zM551 913
l-126 -145h-110l70 145h166z" />
    <glyph glyph-name="Ucircumflex" unicode="&#xdb;" horiz-adv-x="718" 
d="M359 -8c-86 0 -156 27.167 -210 81.5s-81 125.833 -81 214.5v422h160v-424c0 -43.333 11.833 -77.5 35.5 -102.5s55.5 -37.5 95.5 -37.5s71.833 12.5 95.5 37.5s35.5 59.167 35.5 102.5v424h160v-423c0 -88.667 -27 -160 -81 -214s-124 -81 -210 -81zM223 759l-41 96
l177 76l177 -76l-41 -96l-136 59z" />
    <glyph glyph-name="Udieresis" unicode="&#xdc;" horiz-adv-x="718" 
d="M359 -8c-86 0 -156 27.167 -210 81.5s-81 125.833 -81 214.5v422h160v-424c0 -43.333 11.833 -77.5 35.5 -102.5s55.5 -37.5 95.5 -37.5s71.833 12.5 95.5 37.5s35.5 59.167 35.5 102.5v424h160v-423c0 -88.667 -27 -160 -81 -214s-124 -81 -210 -81zM478 770
c-22 0 -40.833 7.83301 -56.5 23.5s-23.5 34.5 -23.5 56.5c0 23.333 7.83301 42.5 23.5 57.5s34.5 22.5 56.5 22.5s40.833 -7.5 56.5 -22.5s23.5 -34.167 23.5 -57.5c0 -22 -7.83301 -40.833 -23.5 -56.5s-34.5 -23.5 -56.5 -23.5zM240 770
c-22 0 -40.833 7.83301 -56.5 23.5s-23.5 34.5 -23.5 56.5c0 23.333 7.83301 42.5 23.5 57.5s34.5 22.5 56.5 22.5s40.833 -7.5 56.5 -22.5s23.5 -34.167 23.5 -57.5c0 -22 -7.83301 -40.833 -23.5 -56.5s-34.5 -23.5 -56.5 -23.5z" />
    <glyph glyph-name="Yacute" unicode="&#xdd;" horiz-adv-x="682" 
d="M261 298v-298h160v298l263 412h-187l-156 -252l-156 252h-187zM533 913l-126 -145h-110l70 145h166z" />
    <glyph glyph-name="Thorn" unicode="&#xde;" horiz-adv-x="585" 
d="M76 0v710h160v-114h74c68.667 0 126.334 -23.333 173.001 -70s70 -103.667 70 -171s-23.333 -124.333 -70 -171s-104.334 -70 -173.001 -70h-74v-114h-160zM308 446h-72v-183h72c25.333 0 46.666 9.16699 63.999 27.5s26 39.833 26 64.5s-8.66699 46 -26 64
s-38.666 27 -63.999 27z" />
    <glyph glyph-name="germandbls" unicode="&#xdf;" horiz-adv-x="575" 
d="M390 68c0 28.667 -10.9971 52.5 -32.9971 71.5s-50.667 28.5 -86 28.5v117l43 83h-102v-368h-152v556c0 48 13.667 85.667 41 113s64.666 41 111.999 41h103v-138h-46c-20.667 0 -35.5 -4.5 -44.5 -13.5s-13.5 -24.167 -13.5 -45.5v-13h317l-114 -221
c39.333 -19.333 70.166 -48.833 92.499 -88.5s33.5 -80.5 33.5 -122.5c0 -70 -25.833 -129.5 -77.5 -178.5s-115.834 -73.5 -192.501 -73.5v152c35.333 0 64 9.5 86 28.5s33 42.833 33 71.5z" />
    <glyph glyph-name="agrave" unicode="&#xe0;" horiz-adv-x="596" 
d="M385 0l-0.000976562 28.998c-30 -24.667 -66.667 -37 -110 -37c-72 0 -130.333 25.333 -175 76s-67 111.334 -67 182.001s22.333 131.334 67 182.001s103 76 175 76c42.667 0 79.334 -12.667 110.001 -38v30h151v-500h-151zM299.999 129.998
c35.333 0 63.667 13.667 85 41v157c-22 28 -50.333 42 -85 42s-62.5 -11.5 -83.5 -34.5s-31.5 -51.5 -31.5 -85.5s10.5 -62.5 31.5 -85.5s48.833 -34.5 83.5 -34.5zM259 549.998l-147 160h173l84 -160h-110z" />
    <glyph glyph-name="aacute" unicode="&#xe1;" horiz-adv-x="596" 
d="M385 29l0.000976562 -28.998h151v500h-151v-30c-30.667 25.333 -67.334 38 -110.001 38c-72 0 -130.333 -25.333 -175 -76s-67 -111.334 -67 -182.001s22.333 -131.334 67 -182.001s103 -76 175 -76c43.333 0 80 12.333 110 37zM300.001 130.002
c-34.667 0 -62.501 11.5 -83.501 34.5s-31.5 51.5 -31.5 85.5s10.5 62.5 31.5 85.5s48.833 34.5 83.5 34.5s63 -14 85 -42v-157c-21.333 -27.333 -49.666 -41 -84.999 -41zM513 710.002l-147 -160h-110l84 160h173z" />
    <glyph glyph-name="acircumflex" unicode="&#xe2;" horiz-adv-x="596" 
d="M385 0l-0.000976562 28.998c-30 -24.667 -66.667 -37 -110 -37c-72 0 -130.333 25.333 -175 76s-67 111.334 -67 182.001s22.333 131.334 67 182.001s103 76 175 76c42.667 0 79.334 -12.667 110.001 -38v30h151v-500h-151zM299.999 129.998
c35.333 0 63.667 13.667 85 41v157c-22 28 -50.333 42 -85 42s-62.5 -11.5 -83.5 -34.5s-31.5 -51.5 -31.5 -85.5s10.5 -62.5 31.5 -85.5s48.833 -34.5 83.5 -34.5zM306 727.998l170 -91l-47 -92l-123 63l-123 -63l-47 92z" />
    <glyph glyph-name="atilde" unicode="&#xe3;" horiz-adv-x="596" 
d="M385 0l-0.000976562 28.998c-30 -24.667 -66.667 -37 -110 -37c-72 0 -130.333 25.333 -175 76s-67 111.334 -67 182.001s22.333 131.334 67 182.001s103 76 175 76c42.667 0 79.334 -12.667 110.001 -38v30h151v-500h-151zM299.999 129.998
c35.333 0 63.667 13.667 85 41v157c-22 28 -50.333 42 -85 42s-62.5 -11.5 -83.5 -34.5s-31.5 -51.5 -31.5 -85.5s10.5 -62.5 31.5 -85.5s48.833 -34.5 83.5 -34.5zM113 553.998l4 29c5.33301 36 19.333 64.333 42 85s47.667 31 75 31c21.333 0 45.666 -6.66699 72.999 -20
s45 -20 53 -20c11.333 0 20.333 3.16699 27 9.5s12 17.166 16 32.499h96l-4 -29c-5.33301 -36 -19.333 -64.333 -42 -85s-47.667 -31 -75 -31c-21.333 0 -45.666 6.66699 -72.999 20s-45 20 -53 20c-11.333 0 -20.333 -3.16699 -27 -9.5s-12 -17.166 -16 -32.499h-96z" />
    <glyph glyph-name="adieresis" unicode="&#xe4;" horiz-adv-x="596" 
d="M385 0l-0.000976562 28.998c-30 -24.667 -66.667 -37 -110 -37c-72 0 -130.333 25.333 -175 76s-67 111.334 -67 182.001s22.333 131.334 67 182.001s103 76 175 76c42.667 0 79.334 -12.667 110.001 -38v30h151v-500h-151zM299.999 129.998
c35.333 0 63.667 13.667 85 41v157c-22 28 -50.333 42 -85 42s-62.5 -11.5 -83.5 -34.5s-31.5 -51.5 -31.5 -85.5s10.5 -62.5 31.5 -85.5s48.833 -34.5 83.5 -34.5zM425 566.998c-22 0 -40.833 7.83301 -56.5 23.5s-23.5 34.5 -23.5 56.5c0 23.333 7.83301 42.5 23.5 57.5
s34.5 22.5 56.5 22.5s40.833 -7.5 56.5 -22.5s23.5 -34.167 23.5 -57.5c0 -22 -7.83301 -40.833 -23.5 -56.5s-34.5 -23.5 -56.5 -23.5zM187 566.998c-22 0 -40.833 7.83301 -56.5 23.5s-23.5 34.5 -23.5 56.5c0 23.333 7.83301 42.5 23.5 57.5s34.5 22.5 56.5 22.5
s40.833 -7.5 56.5 -22.5s23.5 -34.167 23.5 -57.5c0 -22 -7.83301 -40.833 -23.5 -56.5s-34.5 -23.5 -56.5 -23.5z" />
    <glyph glyph-name="aring" unicode="&#xe5;" horiz-adv-x="596" 
d="M385 0l-0.000976562 28.998c-30 -24.667 -66.667 -37 -110 -37c-72 0 -130.333 25.333 -175 76s-67 111.334 -67 182.001s22.333 131.334 67 182.001s103 76 175 76c42.667 0 79.334 -12.667 110.001 -38v30h151v-500h-151zM299.999 129.998
c35.333 0 63.667 13.667 85 41v157c-22 28 -50.333 42 -85 42s-62.5 -11.5 -83.5 -34.5s-31.5 -51.5 -31.5 -85.5s10.5 -62.5 31.5 -85.5s48.833 -34.5 83.5 -34.5zM306 545.998c-33.333 0 -61.666 11.667 -84.999 35s-35 51.666 -35 84.999s11.667 61.666 35 84.999
s51.666 35 84.999 35s61.666 -11.667 84.999 -35s35 -51.666 35 -84.999s-11.667 -61.666 -35 -84.999s-51.666 -35 -84.999 -35zM306 618.998c13.333 0 24.5 4.5 33.5 13.5s13.5 20.167 13.5 33.5s-4.5 24.5 -13.5 33.5s-20.167 13.5 -33.5 13.5s-24.5 -4.5 -33.5 -13.5
s-13.5 -20.167 -13.5 -33.5s4.5 -24.5 13.5 -33.5s20.167 -13.5 33.5 -13.5z" />
    <glyph glyph-name="ae" unicode="&#xe6;" horiz-adv-x="870" 
d="M700 193l120.002 -81.001c-24 -37.333 -55.5 -66.666 -94.5 -87.999s-82.833 -32 -131.5 -32c-64.667 0 -122.667 22.333 -174 67c-52.667 -44.667 -115.334 -67 -188.001 -67c-60 0 -108.5 13.833 -145.5 41.5s-55.5 68.5 -55.5 122.5c0 47.333 18.167 84.333 54.5 111
s82.5 40 138.5 40c40.667 0 79.334 -8.66699 116.001 -26v6c0 26.667 -11 47 -33 61s-49.667 21 -83 21c-50.667 0 -92.334 -10 -125.001 -30l-21 141c48 18.667 98.333 28 151 28c76.667 0 139 -22.333 187 -67c51.333 44.667 111.666 67 180.999 67
c77.333 0 139.166 -26.167 185.499 -78.5s63.833 -121.166 52.5 -206.499h-354c6 -32.667 20.167 -56.334 42.5 -71.001s45.5 -22 69.5 -22c48.667 0 84.334 21 107.001 63zM588.002 386.999c-54 0 -88.333 -25.333 -103 -76h204c-4 25.333 -15.333 44.333 -34 57
s-41 19 -67 19zM244.002 117.999c46.667 0 78.667 11.668 96 35.001v28c-25.333 15.333 -57 23 -95 23c-45.333 0 -68 -14.667 -68 -44c0 -14.667 6.66699 -25.334 20 -32.001s29 -10 47 -10z" />
    <glyph glyph-name="ccedilla" unicode="&#xe7;" horiz-adv-x="530" 
d="M292 -8c-72 0 -133.333 25.333 -184 76s-76 111.334 -76 182.001s25.333 131.334 76 182.001s112 76 184 76c45.333 0 87.166 -10.5 125.499 -31.5s69.5 -49.833 93.5 -86.5l-120 -85c-22.667 41.333 -55.667 62 -99 62c-31.333 0 -57.166 -10.833 -77.499 -32.5
s-30.5 -49.834 -30.5 -84.501s10.167 -62.834 30.5 -84.501s46.166 -32.5 77.499 -32.5c43.333 0 76.333 20.667 99 62l120 -85c-24 -36.667 -55.167 -65.5 -93.5 -86.5s-80.166 -31.5 -125.499 -31.5zM172 -165l72 165h102l-47 -165h-127z" />
    <glyph glyph-name="egrave" unicode="&#xe8;" horiz-adv-x="564" 
d="M288 -8c-68.667 0 -128.334 24.166 -179.001 72.499s-76 110.166 -76 185.499c0 74.667 23.833 136.334 71.5 185.001s109.834 73 186.501 73c77.333 0 139.166 -26.167 185.499 -78.5s63.833 -121.166 52.5 -206.499h-351c4 -30.667 16.667 -53.834 38 -69.501
s45 -23.5 71 -23.5c48.667 0 84.334 21 107.001 63l120 -81c-24 -37.333 -55.5 -66.666 -94.5 -87.999s-82.833 -32 -131.5 -32zM282 386.999c-22.667 0 -43.668 -5.83301 -63.001 -17.5s-32.666 -31.167 -39.999 -58.5h204c-4 25.333 -15.333 44.333 -34 57s-41 19 -67 19z
M245.999 549.999l-147 160h173l84 -160h-110z" />
    <glyph glyph-name="eacute" unicode="&#xe9;" horiz-adv-x="564" 
d="M288 -8c48.667 0 92.5 10.668 131.5 32.001s70.5 50.666 94.5 87.999l-120 81c-22.667 -42 -58.334 -63 -107.001 -63c-26 0 -49.667 7.83301 -71 23.5s-34 38.834 -38 69.501h351c11.333 85.333 -6.16699 154.166 -52.5 206.499s-108.166 78.5 -185.499 78.5
c-76.667 0 -138.834 -24.333 -186.501 -73s-71.5 -110.334 -71.5 -185.001c0 -75.333 25.333 -137.166 76 -185.499s110.334 -72.5 179.001 -72.5zM282 387.001c26 0 48.334 -6.33301 67.001 -19s30 -31.667 34 -57h-204c7.33301 27.333 20.666 46.833 39.999 58.5
s40.333 17.5 63 17.5zM500.001 710.001l-147 -160h-110l84 160h173z" />
    <glyph glyph-name="ecircumflex" unicode="&#xea;" horiz-adv-x="564" 
d="M288 -8c-68.667 0 -128.334 24.166 -179.001 72.499s-76 110.166 -76 185.499c0 74.667 23.833 136.334 71.5 185.001s109.834 73 186.501 73c77.333 0 139.166 -26.167 185.499 -78.5s63.833 -121.166 52.5 -206.499h-351c4 -30.667 16.667 -53.834 38 -69.501
s45 -23.5 71 -23.5c48.667 0 84.334 21 107.001 63l120 -81c-24 -37.333 -55.5 -66.666 -94.5 -87.999s-82.833 -32 -131.5 -32zM282 386.999c-22.667 0 -43.668 -5.83301 -63.001 -17.5s-32.666 -31.167 -39.999 -58.5h204c-4 25.333 -15.333 44.333 -34 57s-41 19 -67 19z
M292.999 727.999l170 -91l-47 -92l-123 63l-123 -63l-47 92z" />
    <glyph glyph-name="edieresis" unicode="&#xeb;" horiz-adv-x="564" 
d="M288 -8c-68.667 0 -128.334 24.166 -179.001 72.499s-76 110.166 -76 185.499c0 74.667 23.833 136.334 71.5 185.001s109.834 73 186.501 73c77.333 0 139.166 -26.167 185.499 -78.5s63.833 -121.166 52.5 -206.499h-351c4 -30.667 16.667 -53.834 38 -69.501
s45 -23.5 71 -23.5c48.667 0 84.334 21 107.001 63l120 -81c-24 -37.333 -55.5 -66.666 -94.5 -87.999s-82.833 -32 -131.5 -32zM282 386.999c-22.667 0 -43.668 -5.83301 -63.001 -17.5s-32.666 -31.167 -39.999 -58.5h204c-4 25.333 -15.333 44.333 -34 57s-41 19 -67 19z
M411.999 566.999c-22 0 -40.833 7.83301 -56.5 23.5s-23.5 34.5 -23.5 56.5c0 23.333 7.83301 42.5 23.5 57.5s34.5 22.5 56.5 22.5s40.833 -7.5 56.5 -22.5s23.5 -34.167 23.5 -57.5c0 -22 -7.83301 -40.833 -23.5 -56.5s-34.5 -23.5 -56.5 -23.5zM173.999 566.999
c-22 0 -40.833 7.83301 -56.5 23.5s-23.5 34.5 -23.5 56.5c0 23.333 7.83301 42.5 23.5 57.5s34.5 22.5 56.5 22.5s40.833 -7.5 56.5 -22.5s23.5 -34.167 23.5 -57.5c0 -22 -7.83301 -40.833 -23.5 -56.5s-34.5 -23.5 -56.5 -23.5z" />
    <glyph glyph-name="igrave" unicode="&#xec;" horiz-adv-x="271" 
d="M60 0v500h151v-500h-151zM89 550l-147 160h173l84 -160h-110z" />
    <glyph glyph-name="iacute" unicode="&#xed;" horiz-adv-x="271" 
d="M60 500v-500h151v500h-151zM343 710l-147 -160h-110l84 160h173z" />
    <glyph glyph-name="icircumflex" unicode="&#xee;" horiz-adv-x="271" 
d="M60 0v500h151v-500h-151zM136 728l170 -91l-47 -92l-123 63l-123 -63l-47 92z" />
    <glyph glyph-name="idieresis" unicode="&#xef;" horiz-adv-x="271" 
d="M60 0v500h151v-500h-151zM42 567c-22 0 -40.833 7.5 -56.5 22.5s-23.5 34.167 -23.5 57.5c0 22 7.83301 40.833 23.5 56.5s34.5 23.5 56.5 23.5s40.833 -7.83301 56.5 -23.5s23.5 -34.5 23.5 -56.5s-7.83301 -40.833 -23.5 -56.5s-34.5 -23.5 -56.5 -23.5zM230 567
c-22 0 -40.833 7.5 -56.5 22.5s-23.5 34.167 -23.5 57.5c0 22 7.83301 40.833 23.5 56.5s34.5 23.5 56.5 23.5s40.833 -7.83301 56.5 -23.5s23.5 -34.5 23.5 -56.5s-7.83301 -40.833 -23.5 -56.5s-34.5 -23.5 -56.5 -23.5z" />
    <glyph glyph-name="eth" unicode="&#xf0;" horiz-adv-x="585" 
d="M108 579v65h69l-42 66h169l43 -66h110v-65h-69l117 -181c31.333 -48 47 -97.333 47 -148c0 -70.667 -25.333 -131.334 -76 -182.001s-112 -76 -184 -76s-133.333 25.333 -184 76s-76 111.334 -76 182.001c0 60 19.833 114.333 59.5 163s88.167 78.334 145.5 89.001
c4 1.33301 13.667 2.66602 29 3.99902l-47 73h-111zM292 133c31.333 0 57.166 10.833 77.499 32.5s30.5 49.834 30.5 84.501s-10.167 62.834 -30.5 84.501s-46.166 32.5 -77.499 32.5s-57.166 -10.833 -77.499 -32.5s-30.5 -49.834 -30.5 -84.501
s10.167 -62.834 30.5 -84.501s46.166 -32.5 77.499 -32.5z" />
    <glyph glyph-name="ntilde" unicode="&#xf1;" horiz-adv-x="598" 
d="M60 0l0.000976562 500h151v-31c31.333 26 69.666 39 114.999 39c69.333 0 123 -20.833 161 -62.5s57 -97.167 57 -166.5v-279h-151v252c0 35.333 -7.5 63.833 -22.5 85.5s-38.167 32.5 -69.5 32.5c-34.667 0 -64.667 -14.333 -90 -43v-327h-151zM114.001 554l3.99902 29
c5.33301 36 19.333 64.333 42 85s47.667 31 75 31c21.333 0 45.833 -6.66699 73.5 -20s45.167 -20 52.5 -20c11.333 0 20.333 3.16699 27 9.5s12 17.166 16 32.499h96l-4 -29c-5.33301 -36 -19.333 -64.333 -42 -85s-47.667 -31 -75 -31c-22 0 -46.667 6.66699 -74 20
s-44.666 20 -51.999 20c-11.333 0 -20.333 -3.16699 -27 -9.5s-12 -17.166 -16 -32.499h-96z" />
    <glyph glyph-name="ograve" unicode="&#xf2;" horiz-adv-x="584" 
d="M292 -8c-72 0 -133.333 25.333 -184 76s-76 111.334 -76 182.001s25.333 131.334 76 182.001s112 76 184 76s133.333 -25.333 184 -76s76 -111.334 76 -182.001s-25.333 -131.334 -76 -182.001s-112 -76 -184 -76zM292 133c31.333 0 57.166 10.833 77.499 32.5
s30.5 49.834 30.5 84.501s-10.167 62.834 -30.5 84.501s-46.166 32.5 -77.499 32.5s-57.166 -10.833 -77.499 -32.5s-30.5 -49.834 -30.5 -84.501s10.167 -62.834 30.5 -84.501s46.166 -32.5 77.499 -32.5zM245 550l-147 160h173l84 -160h-110z" />
    <glyph glyph-name="oacute" unicode="&#xf3;" horiz-adv-x="584" 
d="M292 -8c72 0 133.333 25.333 184 76s76 111.334 76 182.001s-25.333 131.334 -76 182.001s-112 76 -184 76s-133.333 -25.333 -184 -76s-76 -111.334 -76 -182.001s25.333 -131.334 76 -182.001s112 -76 184 -76zM292 133c-31.333 0 -57.166 10.833 -77.499 32.5
s-30.5 49.834 -30.5 84.501s10.167 62.834 30.5 84.501s46.166 32.5 77.499 32.5s57.166 -10.833 77.499 -32.5s30.5 -49.834 30.5 -84.501s-10.167 -62.834 -30.5 -84.501s-46.166 -32.5 -77.499 -32.5zM499 710l-147 -160h-110l84 160h173z" />
    <glyph glyph-name="ocircumflex" unicode="&#xf4;" horiz-adv-x="584" 
d="M292 -8c-72 0 -133.333 25.333 -184 76s-76 111.334 -76 182.001s25.333 131.334 76 182.001s112 76 184 76s133.333 -25.333 184 -76s76 -111.334 76 -182.001s-25.333 -131.334 -76 -182.001s-112 -76 -184 -76zM292 133c31.333 0 57.166 10.833 77.499 32.5
s30.5 49.834 30.5 84.501s-10.167 62.834 -30.5 84.501s-46.166 32.5 -77.499 32.5s-57.166 -10.833 -77.499 -32.5s-30.5 -49.834 -30.5 -84.501s10.167 -62.834 30.5 -84.501s46.166 -32.5 77.499 -32.5zM292 728l170 -91l-47 -92l-123 63l-123 -63l-47 92z" />
    <glyph glyph-name="otilde" unicode="&#xf5;" horiz-adv-x="584" 
d="M292 -8c-72 0 -133.333 25.333 -184 76s-76 111.334 -76 182.001s25.333 131.334 76 182.001s112 76 184 76s133.333 -25.333 184 -76s76 -111.334 76 -182.001s-25.333 -131.334 -76 -182.001s-112 -76 -184 -76zM292 133c31.333 0 57.166 10.833 77.499 32.5
s30.5 49.834 30.5 84.501s-10.167 62.834 -30.5 84.501s-46.166 32.5 -77.499 32.5s-57.166 -10.833 -77.499 -32.5s-30.5 -49.834 -30.5 -84.501s10.167 -62.834 30.5 -84.501s46.166 -32.5 77.499 -32.5zM99 554l4 29c5.33301 36 19.333 64.333 42 85s47.667 31 75 31
c21.333 0 45.666 -6.66699 72.999 -20s45 -20 53 -20c11.333 0 20.333 3.16699 27 9.5s12 17.166 16 32.499h96l-4 -29c-5.33301 -36 -19.333 -64.333 -42 -85s-47.667 -31 -75 -31c-21.333 0 -45.666 6.66699 -72.999 20s-45 20 -53 20
c-11.333 0 -20.333 -3.16699 -27 -9.5s-12 -17.166 -16 -32.499h-96z" />
    <glyph glyph-name="odieresis" unicode="&#xf6;" horiz-adv-x="584" 
d="M292 -8c-72 0 -133.333 25.333 -184 76s-76 111.334 -76 182.001s25.333 131.334 76 182.001s112 76 184 76s133.333 -25.333 184 -76s76 -111.334 76 -182.001s-25.333 -131.334 -76 -182.001s-112 -76 -184 -76zM292 133c31.333 0 57.166 10.833 77.499 32.5
s30.5 49.834 30.5 84.501s-10.167 62.834 -30.5 84.501s-46.166 32.5 -77.499 32.5s-57.166 -10.833 -77.499 -32.5s-30.5 -49.834 -30.5 -84.501s10.167 -62.834 30.5 -84.501s46.166 -32.5 77.499 -32.5zM411 567c-22 0 -40.833 7.83301 -56.5 23.5s-23.5 34.5 -23.5 56.5
c0 23.333 7.83301 42.5 23.5 57.5s34.5 22.5 56.5 22.5s40.833 -7.5 56.5 -22.5s23.5 -34.167 23.5 -57.5c0 -22 -7.83301 -40.833 -23.5 -56.5s-34.5 -23.5 -56.5 -23.5zM173 567c-22 0 -40.833 7.83301 -56.5 23.5s-23.5 34.5 -23.5 56.5c0 23.333 7.83301 42.5 23.5 57.5
s34.5 22.5 56.5 22.5s40.833 -7.5 56.5 -22.5s23.5 -34.167 23.5 -57.5c0 -22 -7.83301 -40.833 -23.5 -56.5s-34.5 -23.5 -56.5 -23.5z" />
    <glyph glyph-name="divide" unicode="&#xf7;" horiz-adv-x="590" 
d="M295 369c-22 0 -40.833 7.83301 -56.5 23.5s-23.5 34.5 -23.5 56.5s7.83301 40.833 23.5 56.5s34.5 23.5 56.5 23.5s40.833 -7.83301 56.5 -23.5s23.5 -34.5 23.5 -56.5c0 -23.333 -7.83301 -42.5 -23.5 -57.5s-34.5 -22.5 -56.5 -22.5zM77 225v114h436v-114h-436z
M295 35c-22 0 -40.833 7.83301 -56.5 23.5s-23.5 34.5 -23.5 56.5s7.83301 40.833 23.5 56.5s34.5 23.5 56.5 23.5s40.833 -7.83301 56.5 -23.5s23.5 -34.5 23.5 -56.5c0 -23.333 -7.83301 -42.5 -23.5 -57.5s-34.5 -22.5 -56.5 -22.5z" />
    <glyph glyph-name="oslash" unicode="&#xf8;" horiz-adv-x="586" 
d="M82 -58l-54 44.999l73 88c-19.333 22 -35.333 47 -48 75c-13.333 32 -20 65.333 -20 100c0 70.667 25.333 131.334 76 182.001s112 76 184 76c36.667 0 70.334 -7 101.001 -21c11.333 -4.66699 23 -10.667 35 -18l75 90l54 -45l-74 -89c20 -22 36 -47 48 -75
c14 -31.333 21 -64.666 21 -99.999c0 -70.667 -25.333 -131.334 -76 -182.001s-112 -76 -184 -76c-35.333 0 -69.333 6.66699 -102 20c-12.667 5.33301 -24.334 11.333 -35.001 18zM293 132.999c31.333 0 57.167 10.8311 77.5 32.498s30.5 49.834 30.5 84.501
c0 22.667 -4.33301 42.334 -13 59.001l-140 -168c14 -5.33301 29 -8 45 -8zM293.001 366.997c-31.333 0 -57.166 -10.8311 -77.499 -32.498s-30.5 -49.834 -30.5 -84.501c0 -22.667 4 -42.334 12 -59.001l140 167c-12.667 6 -27.334 9 -44.001 9z" />
    <glyph glyph-name="ugrave" unicode="&#xf9;" horiz-adv-x="598" 
d="M387 0v37c-32 -30 -71.667 -45 -119 -45c-66.667 0 -119 20.833 -157 62.5s-57 97.167 -57 166.5v279h151v-252c0 -35.333 7.5 -63.833 22.5 -85.5s36.833 -32.5 65.5 -32.5c42 0 73.333 16.667 94 50v320h151v-500h-151zM249 550l-147 160h173l84 -160h-110z" />
    <glyph glyph-name="uacute" unicode="&#xfa;" horiz-adv-x="598" 
d="M387 37v-37h151v500h-151v-320c-20.667 -33.333 -52 -50 -94 -50c-28.667 0 -50.5 10.833 -65.5 32.5s-22.5 50.167 -22.5 85.5v252h-151v-279c0 -69.333 19 -124.833 57 -166.5s90.333 -62.5 157 -62.5c47.333 0 87 15 119 45zM503 710l-147 -160h-110l84 160h173z" />
    <glyph glyph-name="ucircumflex" unicode="&#xfb;" horiz-adv-x="598" 
d="M387 0v37c-32 -30 -71.667 -45 -119 -45c-66.667 0 -119 20.833 -157 62.5s-57 97.167 -57 166.5v279h151v-252c0 -35.333 7.5 -63.833 22.5 -85.5s36.833 -32.5 65.5 -32.5c42 0 73.333 16.667 94 50v320h151v-500h-151zM296 728l170 -91l-47 -92l-123 63l-123 -63
l-47 92z" />
    <glyph glyph-name="udieresis" unicode="&#xfc;" horiz-adv-x="598" 
d="M387 0v37c-32 -30 -71.667 -45 -119 -45c-66.667 0 -119 20.833 -157 62.5s-57 97.167 -57 166.5v279h151v-252c0 -35.333 7.5 -63.833 22.5 -85.5s36.833 -32.5 65.5 -32.5c42 0 73.333 16.667 94 50v320h151v-500h-151zM415 567c-22 0 -40.833 7.83301 -56.5 23.5
s-23.5 34.5 -23.5 56.5c0 23.333 7.83301 42.5 23.5 57.5s34.5 22.5 56.5 22.5s40.833 -7.5 56.5 -22.5s23.5 -34.167 23.5 -57.5c0 -22 -7.83301 -40.833 -23.5 -56.5s-34.5 -23.5 -56.5 -23.5zM177 567c-22 0 -40.833 7.83301 -56.5 23.5s-23.5 34.5 -23.5 56.5
c0 23.333 7.83301 42.5 23.5 57.5s34.5 22.5 56.5 22.5s40.833 -7.5 56.5 -22.5s23.5 -34.167 23.5 -57.5c0 -22 -7.83301 -40.833 -23.5 -56.5s-34.5 -23.5 -56.5 -23.5z" />
    <glyph glyph-name="yacute" unicode="&#xfd;" horiz-adv-x="528" 
d="M185 0l-68 -184h160l252 684h-160l-104 -317l-104 317h-160zM472 710l-147 -160h-110l84 160h173z" />
    <glyph glyph-name="thorn" unicode="&#xfe;" horiz-adv-x="596" 
d="M211 -184l-151.001 0.00195312v894h151v-240c30.667 25.333 67.334 38 110.001 38c72 0 130.333 -25.333 175 -76s67 -111.334 67 -182.001s-22.333 -131.334 -67 -182.001s-103 -76 -175 -76c-43.333 0 -80 12.333 -110 37v-213zM295.999 370.002
c-36 0 -64.333 -14 -85 -42v-157c20 -27.333 48.333 -41 85 -41c34.667 0 62.5 11.5 83.5 34.5s31.5 51.5 31.5 85.5s-10.5 62.5 -31.5 85.5s-48.833 34.5 -83.5 34.5z" />
    <glyph glyph-name="ydieresis" unicode="&#xff;" horiz-adv-x="528" 
d="M117 -184l68 184l-184 500h160l104 -317l104 317h160l-252 -684h-160zM384 567c-22 0 -40.833 7.83301 -56.5 23.5s-23.5 34.5 -23.5 56.5c0 23.333 7.83301 42.5 23.5 57.5s34.5 22.5 56.5 22.5s40.833 -7.5 56.5 -22.5s23.5 -34.167 23.5 -57.5
c0 -22 -7.83301 -40.833 -23.5 -56.5s-34.5 -23.5 -56.5 -23.5zM146 567c-22 0 -40.833 7.83301 -56.5 23.5s-23.5 34.5 -23.5 56.5c0 23.333 7.83301 42.5 23.5 57.5s34.5 22.5 56.5 22.5s40.833 -7.5 56.5 -22.5s23.5 -34.167 23.5 -57.5
c0 -22 -7.83301 -40.833 -23.5 -56.5s-34.5 -23.5 -56.5 -23.5z" />
    <glyph glyph-name="Amacron" unicode="&#x100;" horiz-adv-x="670" 
d="M-15 0l350 718l350 -718h-168l-52 110h-260l-52 -110h-168zM266 240h138l-69 147zM170 796v106h330v-106h-330z" />
    <glyph glyph-name="amacron" unicode="&#x101;" horiz-adv-x="596" 
d="M385 0l-0.000976562 28.998c-30 -24.667 -66.667 -37 -110 -37c-72 0 -130.333 25.333 -175 76s-67 111.334 -67 182.001s22.333 131.334 67 182.001s103 76 175 76c42.667 0 79.334 -12.667 110.001 -38v30h151v-500h-151zM299.999 129.998
c35.333 0 63.667 13.667 85 41v157c-22 28 -50.333 42 -85 42s-62.5 -11.5 -83.5 -34.5s-31.5 -51.5 -31.5 -85.5s10.5 -62.5 31.5 -85.5s48.833 -34.5 83.5 -34.5zM141 578.998v96h330v-96h-330z" />
    <glyph glyph-name="Abreve" unicode="&#x102;" horiz-adv-x="670" 
d="M-15 0l350 718l350 -718h-168l-52 110h-260l-52 -110h-168zM266 240h138l-69 147zM335 766c-50.667 0 -94 18 -130 54s-54 79.333 -54 130h96c0 -28 8 -51.333 24 -70s37.333 -28 64 -28s48 9.33301 64 28s24 42 24 70h96c0 -50.667 -18 -94 -54 -130
s-79.333 -54 -130 -54z" />
    <glyph glyph-name="abreve" unicode="&#x103;" horiz-adv-x="596" 
d="M385 0l-0.000976562 28.998c-30 -24.667 -66.667 -37 -110 -37c-72 0 -130.333 25.333 -175 76s-67 111.334 -67 182.001s22.333 131.334 67 182.001s103 76 175 76c42.667 0 79.334 -12.667 110.001 -38v30h151v-500h-151zM299.999 129.998
c35.333 0 63.667 13.667 85 41v157c-22 28 -50.333 42 -85 42s-62.5 -11.5 -83.5 -34.5s-31.5 -51.5 -31.5 -85.5s10.5 -62.5 31.5 -85.5s48.833 -34.5 83.5 -34.5zM306 545.998c-52 0 -95.667 15 -131 45s-53 69.667 -53 119h96c0 -52 29.333 -78 88 -78s88 26 88 78h96
c0 -49.333 -17.667 -89 -53 -119s-79 -45 -131 -45z" />
    <glyph glyph-name="Aogonek" unicode="&#x104;" horiz-adv-x="670" 
d="M-15 0l349.999 718.002l350 -718c-18 -8 -30.667 -13.833 -38 -17.5s-14 -8.83398 -20 -15.501s-9 -14.334 -9 -23.001c0 -20 10.667 -30 32 -30c14.667 0 26.334 4.33301 35.001 13v-87c-25.333 -19.333 -55.333 -29 -90 -29s-62.667 9.33301 -84 28s-32 43 -32 73
c0 34.667 12.667 64 38 88l-52 110h-260l-52 -110h-168zM265.999 240.002h138l-69 147z" />
    <glyph glyph-name="aogonek" unicode="&#x105;" horiz-adv-x="596" 
d="M385 0l-0.000976562 28.998c-30 -24.667 -66.667 -37 -110 -37c-72 0 -130.333 25.333 -175 76s-67 111.334 -67 182.001s22.333 131.334 67 182.001s103 76 175 76c42.667 0 79.334 -12.667 110.001 -38v30h151v-500h-151zM299.999 129.998
c35.333 0 63.667 13.667 85 41v157c-22 28 -50.333 42 -85 42s-62.5 -11.5 -83.5 -34.5s-31.5 -51.5 -31.5 -85.5s10.5 -62.5 31.5 -85.5s48.833 -34.5 83.5 -34.5zM453 -189.002c-29.333 0 -54.501 10.502 -75.501 31.502s-31.5 46.167 -31.5 75.5
c0 33.333 13 60.666 39 81.999h151c-38 -18 -57 -36.667 -57 -56c0 -8.66699 2.83301 -15.834 8.5 -21.501s12.834 -8.5 21.501 -8.5c9.33301 0 18.333 4.33301 27 13v-87c-19.333 -19.333 -47 -29 -83 -29z" />
    <glyph glyph-name="Cacute" unicode="&#x106;" horiz-adv-x="715" 
d="M400 -8c60 0 116 13.833 168 41.5s95 65.167 129 112.5l-121 99c-18.667 -30 -43.334 -54 -74.001 -72s-64.667 -27 -102 -27c-57.333 0 -105.333 20.333 -144 61s-58 90 -58 148s19.333 107.333 58 148s86.667 61 144 61c37.333 0 71.333 -9 102 -27
s55.334 -42 74.001 -72l121 99c-34 47.333 -77 84.833 -129 112.5s-108 41.5 -168 41.5c-100 0 -185.5 -35.5 -256.5 -106.5s-106.5 -156.5 -106.5 -256.5s35.5 -185.5 106.5 -256.5s156.5 -106.5 256.5 -106.5zM592 913l-126 -145h-110l70 145h166z" />
    <glyph glyph-name="cacute" unicode="&#x107;" horiz-adv-x="530" 
d="M292 -8c45.333 0 87.166 10.5 125.499 31.5s69.5 49.833 93.5 86.5l-120 85c-22.667 -41.333 -55.667 -62 -99 -62c-31.333 0 -57.166 10.833 -77.499 32.5s-30.5 49.834 -30.5 84.501s10.167 62.834 30.5 84.501s46.166 32.5 77.499 32.5
c43.333 0 76.333 -20.667 99 -62l120 85c-24 36.667 -55.167 65.5 -93.5 86.5s-80.166 31.5 -125.499 31.5c-72 0 -133.333 -25.333 -184 -76s-76 -111.334 -76 -182.001s25.333 -131.334 76 -182.001s112 -76 184 -76zM500 710l-147 -160h-110l84 160h173z" />
    <glyph glyph-name="Ccircumflex" unicode="&#x108;" horiz-adv-x="715" 
d="M400 -8c-100 0 -185.5 35.5 -256.5 106.5s-106.5 156.5 -106.5 256.5s35.5 185.5 106.5 256.5s156.5 106.5 256.5 106.5c60 0 116 -13.833 168 -41.5s95 -65.167 129 -112.5l-121 -99c-18.667 30 -43.334 54 -74.001 72s-64.667 27 -102 27
c-57.333 0 -105.333 -20.333 -144 -61s-58 -90 -58 -148s19.333 -107.333 58 -148s86.667 -61 144 -61c37.333 0 71.333 9 102 27s55.334 42 74.001 72l121 -99c-34 -47.333 -77 -84.833 -129 -112.5s-108 -41.5 -168 -41.5zM264 759l-41 96l177 76l177 -76l-41 -96l-136 59
z" />
    <glyph glyph-name="ccircumflex" unicode="&#x109;" horiz-adv-x="530" 
d="M292 -8c-72 0 -133.333 25.333 -184 76s-76 111.334 -76 182.001s25.333 131.334 76 182.001s112 76 184 76c45.333 0 87.166 -10.5 125.499 -31.5s69.5 -49.833 93.5 -86.5l-120 -85c-22.667 41.333 -55.667 62 -99 62c-31.333 0 -57.166 -10.833 -77.499 -32.5
s-30.5 -49.834 -30.5 -84.501s10.167 -62.834 30.5 -84.501s46.166 -32.5 77.499 -32.5c43.333 0 76.333 20.667 99 62l120 -85c-24 -36.667 -55.167 -65.5 -93.5 -86.5s-80.166 -31.5 -125.499 -31.5zM293 728l170 -91l-47 -92l-123 63l-123 -63l-47 92z" />
    <glyph glyph-name="Cdotaccent" unicode="&#x10a;" horiz-adv-x="715" 
d="M400 -8c-100 0 -185.5 35.5 -256.5 106.5s-106.5 156.5 -106.5 256.5s35.5 185.5 106.5 256.5s156.5 106.5 256.5 106.5c60 0 116 -13.833 168 -41.5s95 -65.167 129 -112.5l-121 -99c-18.667 30 -43.334 54 -74.001 72s-64.667 27 -102 27
c-57.333 0 -105.333 -20.333 -144 -61s-58 -90 -58 -148s19.333 -107.333 58 -148s86.667 -61 144 -61c37.333 0 71.333 9 102 27s55.334 42 74.001 72l121 -99c-34 -47.333 -77 -84.833 -129 -112.5s-108 -41.5 -168 -41.5zM400 770c-22 0 -40.833 7.5 -56.5 22.5
s-23.5 34.167 -23.5 57.5c0 22 7.83301 40.833 23.5 56.5s34.5 23.5 56.5 23.5s40.833 -7.83301 56.5 -23.5s23.5 -34.5 23.5 -56.5s-7.83301 -40.833 -23.5 -56.5s-34.5 -23.5 -56.5 -23.5z" />
    <glyph glyph-name="cdotaccent" unicode="&#x10b;" horiz-adv-x="530" 
d="M292 -8c-72 0 -133.333 25.333 -184 76s-76 111.334 -76 182.001s25.333 131.334 76 182.001s112 76 184 76c45.333 0 87.166 -10.5 125.499 -31.5s69.5 -49.833 93.5 -86.5l-120 -85c-22.667 41.333 -55.667 62 -99 62c-31.333 0 -57.166 -10.833 -77.499 -32.5
s-30.5 -49.834 -30.5 -84.501s10.167 -62.834 30.5 -84.501s46.166 -32.5 77.499 -32.5c43.333 0 76.333 20.667 99 62l120 -85c-24 -36.667 -55.167 -65.5 -93.5 -86.5s-80.166 -31.5 -125.499 -31.5zM293 567c-22 0 -40.833 7.5 -56.5 22.5s-23.5 34.167 -23.5 57.5
c0 22 7.83301 40.833 23.5 56.5s34.5 23.5 56.5 23.5s40.833 -7.83301 56.5 -23.5s23.5 -34.5 23.5 -56.5s-7.83301 -40.833 -23.5 -56.5s-34.5 -23.5 -56.5 -23.5z" />
    <glyph glyph-name="Ccaron" unicode="&#x10c;" horiz-adv-x="715" 
d="M400 -8c-100 0 -185.5 35.5 -256.5 106.5s-106.5 156.5 -106.5 256.5s35.5 185.5 106.5 256.5s156.5 106.5 256.5 106.5c60 0 116 -13.833 168 -41.5s95 -65.167 129 -112.5l-121 -99c-18.667 30 -43.334 54 -74.001 72s-64.667 27 -102 27
c-57.333 0 -105.333 -20.333 -144 -61s-58 -90 -58 -148s19.333 -107.333 58 -148s86.667 -61 144 -61c37.333 0 71.333 9 102 27s55.334 42 74.001 72l121 -99c-34 -47.333 -77 -84.833 -129 -112.5s-108 -41.5 -168 -41.5zM536 931l41 -96l-177 -76l-177 76l41 96l136 -59
z" />
    <glyph glyph-name="ccaron" unicode="&#x10d;" horiz-adv-x="530" 
d="M292 -8c-72 0 -133.333 25.333 -184 76s-76 111.334 -76 182.001s25.333 131.334 76 182.001s112 76 184 76c45.333 0 87.166 -10.5 125.499 -31.5s69.5 -49.833 93.5 -86.5l-120 -85c-22.667 41.333 -55.667 62 -99 62c-31.333 0 -57.166 -10.833 -77.499 -32.5
s-30.5 -49.834 -30.5 -84.501s10.167 -62.834 30.5 -84.501s46.166 -32.5 77.499 -32.5c43.333 0 76.333 20.667 99 62l120 -85c-24 -36.667 -55.167 -65.5 -93.5 -86.5s-80.166 -31.5 -125.499 -31.5zM293 546l-170 91l47 92l123 -63l123 63l47 -92z" />
    <glyph glyph-name="Dcaron" unicode="&#x10e;" horiz-adv-x="723" 
d="M76 0v710h249c100 0 185.167 -34.667 255.5 -104s105.5 -153 105.5 -251s-35.167 -181.667 -105.5 -251s-155.5 -104 -255.5 -104h-249zM236 146h89c58.667 0 106.667 20.167 144 60.5s56 89.833 56 148.5s-18.667 108.167 -56 148.5s-85.333 60.5 -144 60.5h-89v-418z
M467 931l41 -96l-177 -76l-177 76l41 96l136 -59z" />
    <glyph glyph-name="dcaron" unicode="&#x10f;" horiz-adv-x="620" 
d="M536 0l-151.001 -0.00195312v29c-30 -24.667 -66.667 -37 -110 -37c-72 0 -130.333 25.333 -175 76s-67 111.334 -67 182.001s22.333 131.334 67 182.001s103 76 175 76c42.667 0 79.334 -12.667 110.001 -38v240h151v-710zM299.999 369.998
c-34.667 0 -62.501 -11.5 -83.501 -34.5s-31.5 -51.5 -31.5 -85.5s10.5 -62.5 31.5 -85.5s48.833 -34.5 83.5 -34.5c36.667 0 65 13.667 85 41v157c-21.333 28 -49.666 42 -84.999 42zM564.998 549.998l20 160h151l-69 -160h-102z" />
    <glyph glyph-name="Dcroat" unicode="&#x110;" horiz-adv-x="748" 
d="M101 0v710h249c100 0 185.167 -34.667 255.5 -104s105.5 -153 105.5 -251s-35.167 -181.667 -105.5 -251s-155.5 -104 -255.5 -104h-249zM261 146h89c58.667 0 106.667 20.167 144 60.5s56 89.833 56 148.5s-18.667 108.167 -56 148.5s-85.333 60.5 -144 60.5h-89v-418z
M12 318v74h338v-74h-338z" />
    <glyph glyph-name="dcroat" unicode="&#x111;" horiz-adv-x="596" 
d="M536 0l-151.001 -0.00195312v29c-30 -24.667 -66.667 -37 -110 -37c-72 0 -130.333 25.333 -175 76s-67 111.334 -67 182.001s22.333 131.334 67 182.001s103 76 175 76c42.667 0 79.334 -12.667 110.001 -38v240h151v-710zM299.999 369.998
c-34.667 0 -62.501 -11.5 -83.501 -34.5s-31.5 -51.5 -31.5 -85.5s10.5 -62.5 31.5 -85.5s48.833 -34.5 83.5 -34.5c36.667 0 65 13.667 85 41v157c-21.333 28 -49.666 42 -84.999 42zM255.998 578.998v65h349v-65h-349z" />
    <glyph glyph-name="Emacron" unicode="&#x112;" horiz-adv-x="564" 
d="M76 0v710h440v-158h-280v-120h220v-154h-220v-120h280v-158h-440zM131 796v106h330v-106h-330z" />
    <glyph glyph-name="emacron" unicode="&#x113;" horiz-adv-x="564" 
d="M288 -8c-68.667 0 -128.334 24.166 -179.001 72.499s-76 110.166 -76 185.499c0 74.667 23.833 136.334 71.5 185.001s109.834 73 186.501 73c77.333 0 139.166 -26.167 185.499 -78.5s63.833 -121.166 52.5 -206.499h-351c4 -30.667 16.667 -53.834 38 -69.501
s45 -23.5 71 -23.5c48.667 0 84.334 21 107.001 63l120 -81c-24 -37.333 -55.5 -66.666 -94.5 -87.999s-82.833 -32 -131.5 -32zM282 386.999c-22.667 0 -43.668 -5.83301 -63.001 -17.5s-32.666 -31.167 -39.999 -58.5h204c-4 25.333 -15.333 44.333 -34 57s-41 19 -67 19z
M127.999 578.999v96h330v-96h-330z" />
    <glyph glyph-name="Ebreve" unicode="&#x114;" horiz-adv-x="564" 
d="M76 0v710h440v-158h-280v-120h220v-154h-220v-120h280v-158h-440zM296 766c-50.667 0 -94 18 -130 54s-54 79.333 -54 130h96c0 -28 8 -51.333 24 -70s37.333 -28 64 -28s48 9.33301 64 28s24 42 24 70h96c0 -50.667 -18 -94 -54 -130s-79.333 -54 -130 -54z" />
    <glyph glyph-name="ebreve" unicode="&#x115;" horiz-adv-x="564" 
d="M288 -8c-68.667 0 -128.334 24.166 -179.001 72.499s-76 110.166 -76 185.499c0 74.667 23.833 136.334 71.5 185.001s109.834 73 186.501 73c77.333 0 139.166 -26.167 185.499 -78.5s63.833 -121.166 52.5 -206.499h-351c4 -30.667 16.667 -53.834 38 -69.501
s45 -23.5 71 -23.5c48.667 0 84.334 21 107.001 63l120 -81c-24 -37.333 -55.5 -66.666 -94.5 -87.999s-82.833 -32 -131.5 -32zM282 386.999c-22.667 0 -43.668 -5.83301 -63.001 -17.5s-32.666 -31.167 -39.999 -58.5h204c-4 25.333 -15.333 44.333 -34 57s-41 19 -67 19z
M292.999 545.999c-52 0 -95.667 15 -131 45s-53 69.667 -53 119h96c0 -52 29.333 -78 88 -78s88 26 88 78h96c0 -49.333 -17.667 -89 -53 -119s-79 -45 -131 -45z" />
    <glyph glyph-name="Edotaccent" unicode="&#x116;" horiz-adv-x="564" 
d="M76 0v710h440v-158h-280v-120h220v-154h-220v-120h280v-158h-440zM296 770c-22 0 -40.833 7.5 -56.5 22.5s-23.5 34.167 -23.5 57.5c0 22 7.83301 40.833 23.5 56.5s34.5 23.5 56.5 23.5s40.833 -7.83301 56.5 -23.5s23.5 -34.5 23.5 -56.5s-7.83301 -40.833 -23.5 -56.5
s-34.5 -23.5 -56.5 -23.5z" />
    <glyph glyph-name="edotaccent" unicode="&#x117;" horiz-adv-x="564" 
d="M288 -8c-68.667 0 -128.334 24.166 -179.001 72.499s-76 110.166 -76 185.499c0 74.667 23.833 136.334 71.5 185.001s109.834 73 186.501 73c77.333 0 139.166 -26.167 185.499 -78.5s63.833 -121.166 52.5 -206.499h-351c4 -30.667 16.667 -53.834 38 -69.501
s45 -23.5 71 -23.5c48.667 0 84.334 21 107.001 63l120 -81c-24 -37.333 -55.5 -66.666 -94.5 -87.999s-82.833 -32 -131.5 -32zM282 386.999c-22.667 0 -43.668 -5.83301 -63.001 -17.5s-32.666 -31.167 -39.999 -58.5h204c-4 25.333 -15.333 44.333 -34 57s-41 19 -67 19z
M292.999 566.999c-22 0 -40.833 7.5 -56.5 22.5s-23.5 34.167 -23.5 57.5c0 22 7.83301 40.833 23.5 56.5s34.5 23.5 56.5 23.5s40.833 -7.83301 56.5 -23.5s23.5 -34.5 23.5 -56.5s-7.83301 -40.833 -23.5 -56.5s-34.5 -23.5 -56.5 -23.5z" />
    <glyph glyph-name="Eogonek" unicode="&#x118;" horiz-adv-x="564" 
d="M76 0v710h440v-158h-280v-120h220v-154h-220v-120h280v-158h-440zM426 -189c-34.667 0 -62.668 9.33496 -84.001 28.002s-32 43 -32 73c0 36 15.333 65.333 46 88h160c-18 -8 -30.667 -13.833 -38 -17.5s-14 -8.83398 -20 -15.501s-9 -14.334 -9 -23.001
c0 -20 10.667 -30 32 -30c14.667 0 26.334 4.33301 35.001 13v-87c-25.333 -19.333 -55.333 -29 -90 -29z" />
    <glyph glyph-name="eogonek" unicode="&#x119;" horiz-adv-x="564" 
d="M503 -73l-0.00195312 -86.999c-19.333 -19.333 -47 -29 -83 -29c-29.333 0 -54.5 10.5 -75.5 31.5s-31.5 46.167 -31.5 75.5c0 33.333 12.667 60.333 38 81c-18 -4.66699 -39 -7 -63 -7c-68.667 0 -128.334 24.167 -179.001 72.5s-76 110.166 -76 185.499
c0 74.667 23.833 136.334 71.5 185.001s109.834 73 186.501 73s138.5 -26.5 185.5 -79.5s64.5 -121.5 52.5 -205.5h-351c3.33301 -30.667 16.166 -53.834 38.499 -69.501s45.833 -23.5 70.5 -23.5c48.667 0 84.334 21 107.001 63l120 -81l-23 -39.5
c-11.333 -19.667 -19.666 -34.5 -24.999 -44.5s-10.666 -22.333 -15.999 -37s-8 -27.667 -8 -39c0 -25.333 11.333 -38 34 -38c9.33301 0 18.333 4.33301 27 13zM281.998 387.001c-21.333 0 -42 -5.5 -62 -16.5s-33.667 -30.833 -41 -59.5h204
c-4 25.333 -15.333 44.333 -34 57s-41 19 -67 19z" />
    <glyph glyph-name="Ecaron" unicode="&#x11a;" horiz-adv-x="564" 
d="M76 0v710h440v-158h-280v-120h220v-154h-220v-120h280v-158h-440zM432 931l41 -96l-177 -76l-177 76l41 96l136 -59z" />
    <glyph glyph-name="ecaron" unicode="&#x11b;" horiz-adv-x="564" 
d="M288 -8c-68.667 0 -128.334 24.166 -179.001 72.499s-76 110.166 -76 185.499c0 74.667 23.833 136.334 71.5 185.001s109.834 73 186.501 73c77.333 0 139.166 -26.167 185.499 -78.5s63.833 -121.166 52.5 -206.499h-351c4 -30.667 16.667 -53.834 38 -69.501
s45 -23.5 71 -23.5c48.667 0 84.334 21 107.001 63l120 -81c-24 -37.333 -55.5 -66.666 -94.5 -87.999s-82.833 -32 -131.5 -32zM282 386.999c-22.667 0 -43.668 -5.83301 -63.001 -17.5s-32.666 -31.167 -39.999 -58.5h204c-4 25.333 -15.333 44.333 -34 57s-41 19 -67 19z
M292.999 545.999l-170 91l47 92l123 -63l123 63l47 -92z" />
    <glyph glyph-name="Gcircumflex" unicode="&#x11c;" horiz-adv-x="744" 
d="M400 -8c-100 0 -185.502 35.5 -256.502 106.5s-106.5 156.5 -106.5 256.5s35.5 185.5 106.5 256.5s156.5 106.5 256.5 106.5c118.667 0 214.334 -44.667 287.001 -134l-121 -99c-22 28 -45.833 48.167 -71.5 60.5s-57.167 18.5 -94.5 18.5
c-57.333 0 -105.333 -20.333 -144 -61s-58 -90 -58 -148s19.333 -107.333 58 -148s86.667 -61 144 -61c58.667 0 104.334 11.667 137.001 35v99h-171l68 150h258v-322c-68.667 -77.333 -166 -116 -292 -116zM285.998 759l-41 96l177 76l177 -76l-41 -96l-136 59z" />
    <glyph glyph-name="gcircumflex" unicode="&#x11d;" horiz-adv-x="594" 
d="M290 -194c-92.667 0 -167.666 18.6699 -224.999 56.0029l68 133c44 -34 93 -51 147 -51c33.333 0 60.666 6.33301 81.999 19s32 33 32 61c0 16 -4.33301 30 -13 42c-30.667 -25.333 -67.667 -38 -111 -38c-72.667 0 -130.167 23.667 -172.5 71
s-63.5 103.666 -63.5 168.999s21.167 121.666 63.5 168.999s99.833 71 172.5 71c42.667 0 79.334 -12.667 110.001 -38v30h151v-403c14 -32.667 21 -65.334 21 -98.001c0 -44.667 -13.167 -82 -39.5 -112s-58.333 -51 -96 -63s-79.834 -18 -126.501 -18zM290.001 166.003
c37.333 0 67.333 13.998 90 41.998v120c-22.667 28 -52.667 42 -90 42c-32 0 -57.333 -10.167 -76 -30.5s-28 -44.166 -28 -71.499s9.33301 -51.166 28 -71.499s44 -30.5 76 -30.5zM288.001 728.001l170 -91l-47 -92l-123 63l-123 -63l-47 92z" />
    <glyph glyph-name="Gbreve" unicode="&#x11e;" horiz-adv-x="744" 
d="M400 -8c-100 0 -185.502 35.5 -256.502 106.5s-106.5 156.5 -106.5 256.5s35.5 185.5 106.5 256.5s156.5 106.5 256.5 106.5c118.667 0 214.334 -44.667 287.001 -134l-121 -99c-22 28 -45.833 48.167 -71.5 60.5s-57.167 18.5 -94.5 18.5
c-57.333 0 -105.333 -20.333 -144 -61s-58 -90 -58 -148s19.333 -107.333 58 -148s86.667 -61 144 -61c58.667 0 104.334 11.667 137.001 35v99h-171l68 150h258v-322c-68.667 -77.333 -166 -116 -292 -116zM421.998 766c-50.667 0 -94 18 -130 54s-54 79.333 -54 130h96
c0 -28 8 -51.333 24 -70s37.333 -28 64 -28s48 9.33301 64 28s24 42 24 70h96c0 -50.667 -18 -94 -54 -130s-79.333 -54 -130 -54z" />
    <glyph glyph-name="gbreve" unicode="&#x11f;" horiz-adv-x="594" 
d="M290 -194c-92.667 0 -167.666 18.6699 -224.999 56.0029l68 133c44 -34 93 -51 147 -51c33.333 0 60.666 6.33301 81.999 19s32 33 32 61c0 16 -4.33301 30 -13 42c-30.667 -25.333 -67.667 -38 -111 -38c-72.667 0 -130.167 23.667 -172.5 71
s-63.5 103.666 -63.5 168.999s21.167 121.666 63.5 168.999s99.833 71 172.5 71c42.667 0 79.334 -12.667 110.001 -38v30h151v-403c14 -32.667 21 -65.334 21 -98.001c0 -44.667 -13.167 -82 -39.5 -112s-58.333 -51 -96 -63s-79.834 -18 -126.501 -18zM290.001 166.003
c37.333 0 67.333 13.998 90 41.998v120c-22.667 28 -52.667 42 -90 42c-32 0 -57.333 -10.167 -76 -30.5s-28 -44.166 -28 -71.499s9.33301 -51.166 28 -71.499s44 -30.5 76 -30.5zM288.001 546.001c-52 0 -95.667 15 -131 45s-53 69.667 -53 119h96
c0 -52 29.333 -78 88 -78s88 26 88 78h96c0 -49.333 -17.667 -89 -53 -119s-79 -45 -131 -45z" />
    <glyph glyph-name="Gdotaccent" unicode="&#x120;" horiz-adv-x="744" 
d="M400 -8c-100 0 -185.502 35.5 -256.502 106.5s-106.5 156.5 -106.5 256.5s35.5 185.5 106.5 256.5s156.5 106.5 256.5 106.5c118.667 0 214.334 -44.667 287.001 -134l-121 -99c-22 28 -45.833 48.167 -71.5 60.5s-57.167 18.5 -94.5 18.5
c-57.333 0 -105.333 -20.333 -144 -61s-58 -90 -58 -148s19.333 -107.333 58 -148s86.667 -61 144 -61c58.667 0 104.334 11.667 137.001 35v99h-171l68 150h258v-322c-68.667 -77.333 -166 -116 -292 -116zM421.998 770c-22 0 -40.833 7.5 -56.5 22.5
s-23.5 34.167 -23.5 57.5c0 22 7.83301 40.833 23.5 56.5s34.5 23.5 56.5 23.5s40.833 -7.83301 56.5 -23.5s23.5 -34.5 23.5 -56.5s-7.83301 -40.833 -23.5 -56.5s-34.5 -23.5 -56.5 -23.5z" />
    <glyph glyph-name="gdotaccent" unicode="&#x121;" horiz-adv-x="594" 
d="M290 -194c-92.667 0 -167.666 18.6699 -224.999 56.0029l68 133c44 -34 93 -51 147 -51c33.333 0 60.666 6.33301 81.999 19s32 33 32 61c0 16 -4.33301 30 -13 42c-30.667 -25.333 -67.667 -38 -111 -38c-72.667 0 -130.167 23.667 -172.5 71
s-63.5 103.666 -63.5 168.999s21.167 121.666 63.5 168.999s99.833 71 172.5 71c42.667 0 79.334 -12.667 110.001 -38v30h151v-403c14 -32.667 21 -65.334 21 -98.001c0 -44.667 -13.167 -82 -39.5 -112s-58.333 -51 -96 -63s-79.834 -18 -126.501 -18zM290.001 166.003
c37.333 0 67.333 13.998 90 41.998v120c-22.667 28 -52.667 42 -90 42c-32 0 -57.333 -10.167 -76 -30.5s-28 -44.166 -28 -71.499s9.33301 -51.166 28 -71.499s44 -30.5 76 -30.5zM288.001 567.001c-22 0 -40.833 7.5 -56.5 22.5s-23.5 34.167 -23.5 57.5
c0 22 7.83301 40.833 23.5 56.5s34.5 23.5 56.5 23.5s40.833 -7.83301 56.5 -23.5s23.5 -34.5 23.5 -56.5s-7.83301 -40.833 -23.5 -56.5s-34.5 -23.5 -56.5 -23.5z" />
    <glyph glyph-name="uni0122" unicode="&#x122;" horiz-adv-x="744" 
d="M400 -8c-100 0 -185.502 35.5 -256.502 106.5s-106.5 156.5 -106.5 256.5s35.5 185.5 106.5 256.5s156.5 106.5 256.5 106.5c118.667 0 214.334 -44.667 287.001 -134l-121 -99c-22 28 -45.833 48.167 -71.5 60.5s-57.167 18.5 -94.5 18.5
c-57.333 0 -105.333 -20.333 -144 -61s-58 -90 -58 -148s19.333 -107.333 58 -148s86.667 -61 144 -61c58.667 0 104.334 11.667 137.001 35v99h-171l68 150h258v-322c-68.667 -77.333 -166 -116 -292 -116zM305.998 -215l27 165h138l-78 -165h-87z" />
    <glyph glyph-name="uni0123" unicode="&#x123;" horiz-adv-x="594" 
d="M290 -194c-92.667 0 -167.666 18.6699 -224.999 56.0029l68 133c44 -34 93 -51 147 -51c33.333 0 60.666 6.33301 81.999 19s32 33 32 61c0 16 -4.33301 30 -13 42c-30.667 -25.333 -67.667 -38 -111 -38c-72.667 0 -130.167 23.667 -172.5 71
s-63.5 103.666 -63.5 168.999s21.167 121.666 63.5 168.999s99.833 71 172.5 71c42.667 0 79.334 -12.667 110.001 -38v30h151v-403c14 -32.667 21 -65.334 21 -98.001c0 -44.667 -13.167 -82 -39.5 -112s-58.333 -51 -96 -63s-79.834 -18 -126.501 -18zM290.001 166.003
c37.333 0 67.333 13.998 90 41.998v120c-22.667 28 -52.667 42 -90 42c-32 0 -57.333 -10.167 -76 -30.5s-28 -44.166 -28 -71.499s9.33301 -51.166 28 -71.499s44 -30.5 76 -30.5zM379.001 717.001l-27 -165h-138l78 165h87z" />
    <glyph glyph-name="Hcircumflex" unicode="&#x124;" horiz-adv-x="756" 
d="M76 0v710h160v-278h284v278h160v-710h-160v278h-284v-278h-160zM242 759l-41 96l177 76l177 -76l-41 -96l-136 59z" />
    <glyph glyph-name="hcircumflex" unicode="&#x125;" horiz-adv-x="598" 
d="M60 0l0.000976562 710h151v-241c31.333 26 69.666 39 114.999 39c69.333 0 123 -20.833 161 -62.5s57 -97.167 57 -166.5v-279h-151v252c0 35.333 -7.5 63.833 -22.5 85.5s-38.167 32.5 -69.5 32.5c-34.667 0 -64.667 -14.333 -90 -43v-327h-151zM191.001 759l-41 96
l177 76l177 -76l-41 -96l-136 59z" />
    <glyph glyph-name="Hbar" unicode="&#x126;" horiz-adv-x="776" 
d="M86 0v710h160v-278h284v278h160v-710h-160v278h-284v-278h-160zM19 535v74h738v-74h-738z" />
    <glyph glyph-name="hbar" unicode="&#x127;" horiz-adv-x="598" 
d="M60 0l0.000976562 710h151v-241c31.333 26 69.666 39 114.999 39c69.333 0 123 -20.833 161 -62.5s57 -97.167 57 -166.5v-279h-151v252c0 35.333 -7.5 63.833 -22.5 85.5s-38.167 32.5 -69.5 32.5c-34.667 0 -64.667 -14.333 -90 -43v-327h-151zM-8.99902 579v65h349
v-65h-349z" />
    <glyph glyph-name="Itilde" unicode="&#x128;" horiz-adv-x="312" 
d="M76 0v710h160v-710h-160zM-36 777l4 29c5.33301 36 19.333 64.333 42 85s47.667 31 75 31c22 0 46.667 -6.66699 74 -20s44.666 -20 51.999 -20c11.333 0 20.333 3.16699 27 9.5s12 17.166 16 32.499h96l-4 -29c-5.33301 -36 -19.333 -64.333 -42 -85
s-47.667 -31 -75 -31c-21.333 0 -45.666 6.66699 -72.999 20s-45 20 -53 20c-11.333 0 -20.333 -3.16699 -27 -9.5s-12 -17.166 -16 -32.499h-96z" />
    <glyph glyph-name="itilde" unicode="&#x129;" horiz-adv-x="271" 
d="M60 0v500h151v-500h-151zM-57 554l3.99902 29c5.33301 36 19.333 64.333 42 85s47.667 31 75 31c22 0 46.5 -6.66699 73.5 -20s44.5 -20 52.5 -20c11.333 0 20.333 3.16699 27 9.5s12 17.166 16 32.499h96l-4 -29c-5.33301 -36 -19.333 -64.333 -42 -85
s-47.667 -31 -75 -31c-21.333 0 -45.666 6.66699 -72.999 20s-45 20 -53 20c-11.333 0 -20.333 -3.16699 -27 -9.5s-12 -17.166 -16 -32.499h-96z" />
    <glyph glyph-name="Imacron" unicode="&#x12a;" horiz-adv-x="312" 
d="M76 0v710h160v-710h-160zM-8 796v106h330v-106h-330z" />
    <glyph glyph-name="imacron" unicode="&#x12b;" horiz-adv-x="271" 
d="M60 0v500h151v-500h-151zM-29 579v96h330v-96h-330z" />
    <glyph glyph-name="Ibreve" unicode="&#x12c;" horiz-adv-x="312" 
d="M76 0v710h160v-710h-160zM157 766c-50.667 0 -94 18 -130 54s-54 79.333 -54 130h96c0 -28 8 -51.333 24 -70s37.333 -28 64 -28s48 9.33301 64 28s24 42 24 70h96c0 -50.667 -18 -94 -54 -130s-79.333 -54 -130 -54z" />
    <glyph glyph-name="ibreve" unicode="&#x12d;" horiz-adv-x="271" 
d="M60 0v500h151v-500h-151zM136 546c-52 0 -95.667 15 -131 45s-53 69.667 -53 119h96c0 -52 29.333 -78 88 -78s88 26 88 78h96c0 -49.333 -17.667 -89 -53 -119s-79 -45 -131 -45z" />
    <glyph glyph-name="Iogonek" unicode="&#x12e;" horiz-adv-x="312" 
d="M76 0v710h160v-710h-160zM146 -189c-34.667 0 -62.668 9.33496 -84.001 28.002s-32 43 -32 73c0 36 15.333 65.333 46 88h160c-18 -8 -30.667 -13.833 -38 -17.5s-14 -8.83398 -20 -15.501s-9 -14.334 -9 -23.001c0 -20 10.667 -30 32 -30
c14.667 0 26.334 4.33301 35.001 13v-87c-25.333 -19.333 -55.333 -29 -90 -29z" />
    <glyph glyph-name="iogonek" unicode="&#x12f;" horiz-adv-x="271" 
d="M60 0v500h151v-500h-151zM206 571h-139.998c-13.333 15.333 -20 34.333 -20 57c0 25.333 8.66699 46.666 26 63.999s38.666 26 63.999 26s46.666 -8.66699 63.999 -26s26 -38.666 26 -63.999c0 -22.667 -6.66699 -41.667 -20 -57zM128.002 -189
c-29.333 0 -54.501 10.502 -75.501 31.502s-31.5 46.167 -31.5 75.5c0 33.333 13 60.666 39 81.999h151c-38 -18 -57 -36.667 -57 -56c0 -8.66699 2.83301 -15.834 8.5 -21.501s12.834 -8.5 21.501 -8.5c9.33301 0 18.333 4.33301 27 13v-87
c-19.333 -19.333 -47 -29 -83 -29z" />
    <glyph glyph-name="Idotaccent" unicode="&#x130;" horiz-adv-x="312" 
d="M76 0v710h160v-710h-160zM157 770c-22 0 -40.833 7.5 -56.5 22.5s-23.5 34.167 -23.5 57.5c0 22 7.83301 40.833 23.5 56.5s34.5 23.5 56.5 23.5s40.833 -7.83301 56.5 -23.5s23.5 -34.5 23.5 -56.5s-7.83301 -40.833 -23.5 -56.5s-34.5 -23.5 -56.5 -23.5z" />
    <glyph glyph-name="dotlessi" unicode="&#x131;" horiz-adv-x="271" 
d="M60 0v500h151v-500h-151z" />
    <glyph glyph-name="Jcircumflex" unicode="&#x134;" horiz-adv-x="527" 
d="M236 -8c-64.667 0 -117.5 18.333 -158.5 55s-61.5 91.667 -61.5 165h160c0 -47.333 20 -71 60 -71s60 23.667 60 71v498h160v-508c0 -70 -20.5 -122.5 -61.5 -157.5s-93.833 -52.5 -158.5 -52.5zM241 759l-41 96l177 76l177 -76l-41 -96l-136 59z" />
    <glyph glyph-name="jcircumflex" unicode="&#x135;" horiz-adv-x="279" 
d="M-36 -184v142.999h25c26 0 45.667 4.33301 59 13s20 24.334 20 47.001v481h151v-500c0 -60 -19.833 -105.667 -59.5 -137s-93.5 -47 -161.5 -47h-34zM143 727.999l170 -91l-47 -92l-123 63l-123 -63l-47 92z" />
    <glyph glyph-name="uni0136" unicode="&#x136;" horiz-adv-x="685" 
d="M76 0v710h160v-356l248 356h184l-249 -359l281 -351h-198l-266 333v-333h-160zM269 -215l27 165h138l-78 -165h-87z" />
    <glyph glyph-name="uni0137" unicode="&#x137;" horiz-adv-x="564" 
d="M60 0v710h151v-439l163 229h174l-170 -237l196 -263h-178l-185 249v-249h-151zM210 -215l27 165h138l-78 -165h-87z" />
    <glyph glyph-name="Lacute" unicode="&#x139;" horiz-adv-x="533" 
d="M76 710v-710h436v159h-276v551h-160zM342 913l-126 -145h-110l70 145h166z" />
    <glyph glyph-name="lacute" unicode="&#x13a;" horiz-adv-x="271" 
d="M60 710v-710h151v710h-151zM329 920l-147 -160h-110l84 160h173z" />
    <glyph glyph-name="uni013B" unicode="&#x13b;" horiz-adv-x="533" 
d="M76 0v710h160v-551h276v-159h-436zM198 -215l27 165h138l-78 -165h-87z" />
    <glyph glyph-name="uni013C" unicode="&#x13c;" horiz-adv-x="271" 
d="M60 0v710h151v-710h-151zM40 -215l27 165h138l-78 -165h-87z" />
    <glyph glyph-name="Lcaron" unicode="&#x13d;" horiz-adv-x="536" 
d="M76 0v710h160v-551h276v-159h-436zM285 550l20 160h151l-69 -160h-102z" />
    <glyph glyph-name="lcaron" unicode="&#x13e;" horiz-adv-x="295" 
d="M60 0v710h151v-710h-151zM240 550l20 160h151l-69 -160h-102z" />
    <glyph glyph-name="Ldot" unicode="&#x13f;" horiz-adv-x="542" 
d="M76 0v710h160v-551h276v-159h-436zM415 343c-22 0 -40.833 7.5 -56.5 22.5s-23.5 34.167 -23.5 57.5c0 22 7.83301 40.833 23.5 56.5s34.5 23.5 56.5 23.5s40.833 -7.83301 56.5 -23.5s23.5 -34.5 23.5 -56.5s-7.83301 -40.833 -23.5 -56.5s-34.5 -23.5 -56.5 -23.5z" />
    <glyph glyph-name="ldot" unicode="&#x140;" horiz-adv-x="408" 
d="M60 0v710h151v-710h-151zM344 291c-22 0 -40.833 7.5 -56.5 22.5s-23.5 34.167 -23.5 57.5c0 22 7.83301 40.833 23.5 56.5s34.5 23.5 56.5 23.5s40.833 -7.83301 56.5 -23.5s23.5 -34.5 23.5 -56.5s-7.83301 -40.833 -23.5 -56.5s-34.5 -23.5 -56.5 -23.5z" />
    <glyph glyph-name="Lslash" unicode="&#x141;" horiz-adv-x="602" 
d="M145 0v710h160v-551h276v-159h-436zM45 214l-38 67l424 242l38 -67z" />
    <glyph glyph-name="lslash" unicode="&#x142;" horiz-adv-x="400" 
d="M133 0v710h151v-710h-151zM52 241l-34 60l349 199l34 -60z" />
    <glyph glyph-name="Nacute" unicode="&#x143;" horiz-adv-x="760" 
d="M236 371l448 -379v718h-160v-371l-448 379v-718h160v371zM539 913l-126 -145h-110l70 145h166z" />
    <glyph glyph-name="nacute" unicode="&#x144;" horiz-adv-x="598" 
d="M60 500l-0.000976562 -500h151v327c25.333 28.667 55.333 43 90 43c31.333 0 54.5 -10.833 69.5 -32.5s22.5 -50.167 22.5 -85.5v-252h151v279c0 69.333 -19 124.833 -57 166.5s-91.667 62.5 -161 62.5c-45.333 0 -83.666 -13 -114.999 -39v31h-151zM513.999 710
l-147 -160h-110l84 160h173z" />
    <glyph glyph-name="uni0145" unicode="&#x145;" horiz-adv-x="760" 
d="M684 -8l-448 379v-371h-160v718l448 -379v371h160v-718zM349 -215l27 165h138l-78 -165h-87z" />
    <glyph glyph-name="uni0146" unicode="&#x146;" horiz-adv-x="598" 
d="M60 0l0.000976562 500h151v-31c31.333 26 69.666 39 114.999 39c69.333 0 123 -20.833 161 -62.5s57 -97.167 57 -166.5v-279h-151v252c0 35.333 -7.5 63.833 -22.5 85.5s-38.167 32.5 -69.5 32.5c-34.667 0 -64.667 -14.333 -90 -43v-327h-151zM208.001 -215l27 165h138
l-78 -165h-87z" />
    <glyph glyph-name="Ncaron" unicode="&#x147;" horiz-adv-x="760" 
d="M684 -8l-448 379v-371h-160v718l448 -379v371h160v-718zM483 931l41 -96l-177 -76l-177 76l41 96l136 -59z" />
    <glyph glyph-name="ncaron" unicode="&#x148;" horiz-adv-x="598" 
d="M60 0l0.000976562 500h151v-31c31.333 26 69.666 39 114.999 39c69.333 0 123 -20.833 161 -62.5s57 -97.167 57 -166.5v-279h-151v252c0 35.333 -7.5 63.833 -22.5 85.5s-38.167 32.5 -69.5 32.5c-34.667 0 -64.667 -14.333 -90 -43v-327h-151zM307.001 546l-170 91
l47 92l123 -63l123 63l47 -92z" />
    <glyph glyph-name="Eng" unicode="&#x14a;" horiz-adv-x="760" 
d="M684 710v-718c-1.33301 -54 -18 -96.833 -50 -128.5s-74.667 -47.5 -128 -47.5h-78v129h26c24 0 41.667 5.5 53 16.5s17 29.167 17 54.5v111l-288 244v-371h-160v718l448 -379v371h160z" />
    <glyph glyph-name="eng" unicode="&#x14b;" horiz-adv-x="598" 
d="M348 -184l-59.998 0.000976562v143h39c23.333 0 40.166 5.16699 50.499 15.5s15.5 27.166 15.5 50.499v227c0 35.333 -7.5 63.833 -22.5 85.5s-38.167 32.5 -69.5 32.5c-34.667 0 -64.667 -14.333 -90 -43v-327h-151v500h151v-31c31.333 26 69.666 39 114.999 39
c69.333 0 123 -20.833 161 -62.5s57 -97.167 57 -166.5v-279c0 -55.333 -18.167 -99.833 -54.5 -133.5s-83.5 -50.5 -141.5 -50.5z" />
    <glyph glyph-name="Omacron" unicode="&#x14c;" horiz-adv-x="800" 
d="M400 -8c-100 0 -185.5 35.5 -256.5 106.5s-106.5 156.5 -106.5 256.5s35.5 185.5 106.5 256.5s156.5 106.5 256.5 106.5s185.5 -35.5 256.5 -106.5s106.5 -156.5 106.5 -256.5s-35.5 -185.5 -106.5 -256.5s-156.5 -106.5 -256.5 -106.5zM400 146
c57.333 0 105.333 20.333 144 61s58 90 58 148s-19.333 107.333 -58 148s-86.667 61 -144 61s-105.333 -20.333 -144 -61s-58 -90 -58 -148s19.333 -107.333 58 -148s86.667 -61 144 -61zM235 796v106h330v-106h-330z" />
    <glyph glyph-name="omacron" unicode="&#x14d;" horiz-adv-x="584" 
d="M292 -8c-72 0 -133.333 25.333 -184 76s-76 111.334 -76 182.001s25.333 131.334 76 182.001s112 76 184 76s133.333 -25.333 184 -76s76 -111.334 76 -182.001s-25.333 -131.334 -76 -182.001s-112 -76 -184 -76zM292 133c31.333 0 57.166 10.833 77.499 32.5
s30.5 49.834 30.5 84.501s-10.167 62.834 -30.5 84.501s-46.166 32.5 -77.499 32.5s-57.166 -10.833 -77.499 -32.5s-30.5 -49.834 -30.5 -84.501s10.167 -62.834 30.5 -84.501s46.166 -32.5 77.499 -32.5zM127 579v96h330v-96h-330z" />
    <glyph glyph-name="Obreve" unicode="&#x14e;" horiz-adv-x="800" 
d="M400 -8c-100 0 -185.5 35.5 -256.5 106.5s-106.5 156.5 -106.5 256.5s35.5 185.5 106.5 256.5s156.5 106.5 256.5 106.5s185.5 -35.5 256.5 -106.5s106.5 -156.5 106.5 -256.5s-35.5 -185.5 -106.5 -256.5s-156.5 -106.5 -256.5 -106.5zM400 146
c57.333 0 105.333 20.333 144 61s58 90 58 148s-19.333 107.333 -58 148s-86.667 61 -144 61s-105.333 -20.333 -144 -61s-58 -90 -58 -148s19.333 -107.333 58 -148s86.667 -61 144 -61zM400 766c-50.667 0 -94 18 -130 54s-54 79.333 -54 130h96c0 -28 8 -51.333 24 -70
s37.333 -28 64 -28s48 9.33301 64 28s24 42 24 70h96c0 -50.667 -18 -94 -54 -130s-79.333 -54 -130 -54z" />
    <glyph glyph-name="obreve" unicode="&#x14f;" horiz-adv-x="584" 
d="M292 -8c-72 0 -133.333 25.333 -184 76s-76 111.334 -76 182.001s25.333 131.334 76 182.001s112 76 184 76s133.333 -25.333 184 -76s76 -111.334 76 -182.001s-25.333 -131.334 -76 -182.001s-112 -76 -184 -76zM292 133c31.333 0 57.166 10.833 77.499 32.5
s30.5 49.834 30.5 84.501s-10.167 62.834 -30.5 84.501s-46.166 32.5 -77.499 32.5s-57.166 -10.833 -77.499 -32.5s-30.5 -49.834 -30.5 -84.501s10.167 -62.834 30.5 -84.501s46.166 -32.5 77.499 -32.5zM292 546c-52 0 -95.667 15 -131 45s-53 69.667 -53 119h96
c0 -52 29.333 -78 88 -78s88 26 88 78h96c0 -49.333 -17.667 -89 -53 -119s-79 -45 -131 -45z" />
    <glyph glyph-name="Ohungarumlaut" unicode="&#x150;" horiz-adv-x="800" 
d="M400 -8c-100 0 -185.5 35.5 -256.5 106.5s-106.5 156.5 -106.5 256.5s35.5 185.5 106.5 256.5s156.5 106.5 256.5 106.5s185.5 -35.5 256.5 -106.5s106.5 -156.5 106.5 -256.5s-35.5 -185.5 -106.5 -256.5s-156.5 -106.5 -256.5 -106.5zM400 146
c57.333 0 105.333 20.333 144 61s58 90 58 148s-19.333 107.333 -58 148s-86.667 61 -144 61s-105.333 -20.333 -144 -61s-58 -90 -58 -148s19.333 -107.333 58 -148s86.667 -61 144 -61zM270 768l70 145h148l-115 -145h-103zM448 768l70 145h148l-115 -145h-103z" />
    <glyph glyph-name="ohungarumlaut" unicode="&#x151;" horiz-adv-x="584" 
d="M292 -8c-72 0 -133.333 25.333 -184 76s-76 111.334 -76 182.001s25.333 131.334 76 182.001s112 76 184 76s133.333 -25.333 184 -76s76 -111.334 76 -182.001s-25.333 -131.334 -76 -182.001s-112 -76 -184 -76zM292 133c31.333 0 57.166 10.833 77.499 32.5
s30.5 49.834 30.5 84.501s-10.167 62.834 -30.5 84.501s-46.166 32.5 -77.499 32.5s-57.166 -10.833 -77.499 -32.5s-30.5 -49.834 -30.5 -84.501s10.167 -62.834 30.5 -84.501s46.166 -32.5 77.499 -32.5zM160 550l83 160h143l-131 -160h-95zM333 550l83 160h143l-131 -160
h-95z" />
    <glyph glyph-name="OE" unicode="&#x152;" horiz-adv-x="1027" 
d="M400 -8c-100 0 -185.5 35.5 -256.5 106.5s-106.5 156.5 -106.5 256.5s35.5 185.5 106.5 256.5s156.5 106.5 256.5 106.5c45.333 0 90.666 -9 135.999 -27v19h440v-158h-272c24.667 -36.667 41.334 -76.667 50.001 -120h179v-154h-179
c-9.33301 -44.667 -26 -84.667 -50 -120h273v-158h-441v18c-44 -17.333 -89.333 -26 -136 -26zM400 146c57.333 0 105.333 20.333 144 61s58 90 58 148s-19.333 107.333 -58 148s-86.667 61 -144 61s-105.333 -20.333 -144 -61s-58 -90 -58 -148s19.333 -107.333 58 -148
s86.667 -61 144 -61z" />
    <glyph glyph-name="oe" unicode="&#x153;" horiz-adv-x="931" 
d="M761 193l119.999 -81.0049c-24 -37.333 -55.5 -66.666 -94.5 -87.999s-82.833 -32 -131.5 -32c-67.333 0 -127.333 24.333 -180 73c-52.667 -48.667 -113.667 -73 -183 -73c-72 0 -133.333 25.333 -184 76s-76 111.334 -76 182.001s25.333 131.334 76 182.001
s112 76 184 76c70 0 130 -24 180 -72c52 48 114 72 186 72c76.667 0 138 -26.167 184 -78.5s64 -121.166 54 -206.499h-354c6 -33.333 20 -57.166 42 -71.499s45.333 -21.5 70 -21.5c48.667 0 84.334 21 107.001 63zM648.999 386.995c-54 0 -88.333 -25.333 -103 -76h204
c-4 25.333 -15.333 44.333 -34 57s-41 19 -67 19zM291.999 132.995c31.333 0 57.166 10.833 77.499 32.5s30.5 49.834 30.5 84.501s-10.167 62.834 -30.5 84.501s-46.166 32.5 -77.499 32.5s-57.166 -10.833 -77.499 -32.5s-30.5 -49.834 -30.5 -84.501
s10.167 -62.834 30.5 -84.501s46.166 -32.5 77.499 -32.5z" />
    <glyph glyph-name="Racute" unicode="&#x154;" horiz-adv-x="643" 
d="M76 710v-710.001h160v288h2l220 -288h191l-231 301c40.667 16 73.667 41.833 99 77.5s38 75.834 38 120.501c0 58 -20.667 107.667 -62 149s-91 62 -149 62h-268zM326 422.999h-90v141h90c21.333 0 39 -6.83301 53 -20.5s21 -30.5 21 -50.5s-7 -36.667 -21 -50
s-31.667 -20 -53 -20zM477 912.999l-126 -145h-110l70 145h166z" />
    <glyph glyph-name="racute" unicode="&#x155;" horiz-adv-x="398" 
d="M60 500l0.000976562 -500h151v327c25.333 22 55.666 33 90.999 33c29.333 0 55 -5.66699 77 -17v157c-14.667 5.33301 -32.667 8 -54 8c-47.333 0 -85.333 -17.333 -114 -52v44h-151zM424.001 710l-147 -160h-110l84 160h173z" />
    <glyph glyph-name="uni0156" unicode="&#x156;" horiz-adv-x="643" 
d="M76 0v710.001h268c58 0 107.667 -20.667 149 -62s62 -91 62 -149c0 -44.667 -12.667 -84.834 -38 -120.501s-58.333 -61.5 -99 -77.5l231 -301h-191l-220 288h-2v-288h-160zM236 423.001h90c21.333 0 39 6.66699 53 20s21 30 21 50s-7 36.833 -21 50.5
s-31.667 20.5 -53 20.5h-90v-141zM249 -214.999l27 165h138l-78 -165h-87z" />
    <glyph glyph-name="uni0157" unicode="&#x157;" horiz-adv-x="398" 
d="M60 0l-0.000976562 500h151v-44c28.667 34.667 66.667 52 114 52c21.333 0 39.333 -2.66699 54 -8v-157c-22 11.333 -47.667 17 -77 17c-35.333 0 -65.666 -11 -90.999 -33v-327h-151zM36.999 -215l27 165h138l-78 -165h-87z" />
    <glyph glyph-name="Rcaron" unicode="&#x158;" horiz-adv-x="643" 
d="M76 0v710.001h268c58 0 107.667 -20.667 149 -62s62 -91 62 -149c0 -44.667 -12.667 -84.834 -38 -120.501s-58.333 -61.5 -99 -77.5l231 -301h-191l-220 288h-2v-288h-160zM236 423.001h90c21.333 0 39 6.66699 53 20s21 30 21 50s-7 36.833 -21 50.5
s-31.667 20.5 -53 20.5h-90v-141zM438 931.001l41 -96l-177 -76l-177 76l41 96l136 -59z" />
    <glyph glyph-name="rcaron" unicode="&#x159;" horiz-adv-x="398" 
d="M60 0l-0.000976562 500h151v-44c28.667 34.667 66.667 52 114 52c21.333 0 39.333 -2.66699 54 -8v-157c-22 11.333 -47.667 17 -77 17c-35.333 0 -65.666 -11 -90.999 -33v-327h-151zM216.999 546l-170 91l47 92l123 -63l123 63l47 -92z" />
    <glyph glyph-name="Sacute" unicode="&#x15a;" horiz-adv-x="542" 
d="M282 -8c66 0 120.165 19.335 162.498 58.002s63.5 89.667 63.5 153c0 96 -51.667 167 -155 213l-38 17c-35.333 15.333 -60.166 29.166 -74.499 41.499s-21.5 27.166 -21.5 44.499c0 15.333 5.5 27.333 16.5 36s23.833 13 38.5 13c17.333 0 32.5 -3.5 45.5 -10.5
s28.167 -21.167 45.5 -42.5l108 114c-28.667 33.333 -58.667 56.5 -90 69.5s-67.666 19.5 -108.999 19.5c-58 0 -108.5 -19.167 -151.5 -57.5s-64.5 -87.5 -64.5 -147.5c0 -48 14.167 -91.167 42.5 -129.5s69.5 -69.5 123.5 -93.5l40 -18
c30.667 -14 52.167 -26.667 64.5 -38s18.5 -25 18.5 -41c0 -34 -22.667 -51 -68 -51c-24 0 -47.833 8.33301 -71.5 25s-43.5 37.667 -59.5 63l-121 -99c49.333 -92.667 134.333 -139 255 -139zM470.998 913.002l-126 -145h-110l70 145h166z" />
    <glyph glyph-name="sacute" unicode="&#x15b;" horiz-adv-x="439" 
d="M226 -8c52.667 0 96.001 14.1699 130.001 42.5029s51 67.166 51 116.499c0 38 -10.5 70 -31.5 96s-55.167 48 -102.5 66l-21 8c-28 10 -46 17.667 -54 23s-12 12.666 -12 21.999c0 15.333 12 23 36 23c26.667 0 50.667 -15 72 -45l86 85
c-36.667 52.667 -89.334 79 -158.001 79c-48.667 0 -89.5 -14.5 -122.5 -43.5s-49.5 -66.167 -49.5 -111.5c0 -72.667 44 -126.334 132 -161.001l26 -10c26.667 -10 43.834 -17.667 51.501 -23s11.5 -12.333 11.5 -21c0 -15.333 -13 -23 -39 -23
c-38.667 0 -69.334 20.333 -92.001 61l-115 -78c40 -70.667 107 -106 201 -106zM429.001 710.003l-147 -160h-110l84 160h173z" />
    <glyph glyph-name="Scircumflex" unicode="&#x15c;" horiz-adv-x="542" 
d="M282 -8c-120.667 0 -205.665 46.3311 -254.998 138.998l121 99c16 -25.333 35.833 -46.333 59.5 -63s47.5 -25 71.5 -25c45.333 0 68 17 68 51c0 16 -6.16699 29.667 -18.5 41s-33.833 24 -64.5 38l-40 18c-54 24 -95.167 55.167 -123.5 93.5s-42.5 81.5 -42.5 129.5
c0 60 21.5 109.167 64.5 147.5s93.5 57.5 151.5 57.5c41.333 0 77.666 -6.5 108.999 -19.5s61.333 -36.167 90 -69.5l-108 -114c-17.333 21.333 -32.5 35.5 -45.5 42.5s-28.167 10.5 -45.5 10.5c-14.667 0 -27.5 -4.33301 -38.5 -13s-16.5 -20.667 -16.5 -36
c0 -17.333 7.16699 -32.166 21.5 -44.499s39.166 -26.166 74.499 -41.499l38 -17c103.333 -46 155 -117 155 -213c0 -63.333 -21.167 -114.333 -63.5 -153s-96.5 -58 -162.5 -58zM143.002 758.998l-41 96l177 76l177 -76l-41 -96l-136 59z" />
    <glyph glyph-name="scircumflex" unicode="&#x15d;" horiz-adv-x="439" 
d="M226 -8c-94 0 -161.001 35.3301 -201.001 105.997l115 78c22.667 -40.667 53.334 -61 92.001 -61c26 0 39 7.66699 39 23c0 8.66699 -3.83301 15.667 -11.5 21s-24.834 13 -51.501 23l-26 10c-88 34.667 -132 88.334 -132 161.001c0 45.333 16.5 82.5 49.5 111.5
s73.833 43.5 122.5 43.5c68.667 0 121.334 -26.333 158.001 -79l-86 -85c-21.333 30 -45.333 45 -72 45c-24 0 -36 -7.66699 -36 -23c0 -9.33301 4 -16.666 12 -21.999s26 -13 54 -23l21 -8c47.333 -18 81.5 -40 102.5 -66s31.5 -58 31.5 -96
c0 -49.333 -17 -88.166 -51 -116.499s-77.333 -42.5 -130 -42.5zM221.999 727.997l170 -91l-47 -92l-123 63l-123 -63l-47 92z" />
    <glyph glyph-name="Scedilla" unicode="&#x15e;" horiz-adv-x="542" 
d="M282 -8c-120.667 0 -205.665 46.3311 -254.998 138.998l121 99c16 -25.333 35.833 -46.333 59.5 -63s47.5 -25 71.5 -25c45.333 0 68 17 68 51c0 16 -6.16699 29.667 -18.5 41s-33.833 24 -64.5 38l-40 18c-54 24 -95.167 55.167 -123.5 93.5s-42.5 81.5 -42.5 129.5
c0 60 21.5 109.167 64.5 147.5s93.5 57.5 151.5 57.5c41.333 0 77.666 -6.5 108.999 -19.5s61.333 -36.167 90 -69.5l-108 -114c-17.333 21.333 -32.5 35.5 -45.5 42.5s-28.167 10.5 -45.5 10.5c-14.667 0 -27.5 -4.33301 -38.5 -13s-16.5 -20.667 -16.5 -36
c0 -17.333 7.16699 -32.166 21.5 -44.499s39.166 -26.166 74.499 -41.499l38 -17c103.333 -46 155 -117 155 -213c0 -63.333 -21.167 -114.333 -63.5 -153s-96.5 -58 -162.5 -58zM164.002 -165.002l72 165h102l-47 -165h-127z" />
    <glyph glyph-name="scedilla" unicode="&#x15f;" horiz-adv-x="439" 
d="M226 -8c-94 0 -161.001 35.3301 -201.001 105.997l115 78c22.667 -40.667 53.334 -61 92.001 -61c26 0 39 7.66699 39 23c0 8.66699 -3.83301 15.667 -11.5 21s-24.834 13 -51.501 23l-26 10c-88 34.667 -132 88.334 -132 161.001c0 45.333 16.5 82.5 49.5 111.5
s73.833 43.5 122.5 43.5c68.667 0 121.334 -26.333 158.001 -79l-86 -85c-21.333 30 -45.333 45 -72 45c-24 0 -36 -7.66699 -36 -23c0 -9.33301 4 -16.666 12 -21.999s26 -13 54 -23l21 -8c47.333 -18 81.5 -40 102.5 -66s31.5 -58 31.5 -96
c0 -49.333 -17 -88.166 -51 -116.499s-77.333 -42.5 -130 -42.5zM105.999 -165.003l72 165h102l-47 -165h-127z" />
    <glyph glyph-name="Scaron" unicode="&#x160;" horiz-adv-x="542" 
d="M282 -8c-120.667 0 -205.665 46.3311 -254.998 138.998l121 99c16 -25.333 35.833 -46.333 59.5 -63s47.5 -25 71.5 -25c45.333 0 68 17 68 51c0 16 -6.16699 29.667 -18.5 41s-33.833 24 -64.5 38l-40 18c-54 24 -95.167 55.167 -123.5 93.5s-42.5 81.5 -42.5 129.5
c0 60 21.5 109.167 64.5 147.5s93.5 57.5 151.5 57.5c41.333 0 77.666 -6.5 108.999 -19.5s61.333 -36.167 90 -69.5l-108 -114c-17.333 21.333 -32.5 35.5 -45.5 42.5s-28.167 10.5 -45.5 10.5c-14.667 0 -27.5 -4.33301 -38.5 -13s-16.5 -20.667 -16.5 -36
c0 -17.333 7.16699 -32.166 21.5 -44.499s39.166 -26.166 74.499 -41.499l38 -17c103.333 -46 155 -117 155 -213c0 -63.333 -21.167 -114.333 -63.5 -153s-96.5 -58 -162.5 -58zM415.002 930.998l41 -96l-177 -76l-177 76l41 96l136 -59z" />
    <glyph glyph-name="scaron" unicode="&#x161;" horiz-adv-x="439" 
d="M226 -8c-94 0 -161.001 35.3301 -201.001 105.997l115 78c22.667 -40.667 53.334 -61 92.001 -61c26 0 39 7.66699 39 23c0 8.66699 -3.83301 15.667 -11.5 21s-24.834 13 -51.501 23l-26 10c-88 34.667 -132 88.334 -132 161.001c0 45.333 16.5 82.5 49.5 111.5
s73.833 43.5 122.5 43.5c68.667 0 121.334 -26.333 158.001 -79l-86 -85c-21.333 30 -45.333 45 -72 45c-24 0 -36 -7.66699 -36 -23c0 -9.33301 4 -16.666 12 -21.999s26 -13 54 -23l21 -8c47.333 -18 81.5 -40 102.5 -66s31.5 -58 31.5 -96
c0 -49.333 -17 -88.166 -51 -116.499s-77.333 -42.5 -130 -42.5zM221.999 545.997l-170 91l47 92l123 -63l123 63l47 -92z" />
    <glyph glyph-name="uni0162" unicode="&#x162;" horiz-adv-x="543" 
d="M191 0v552h-170v158h501v-158h-171v-552h-160zM172 -215l27 165h138l-78 -165h-87z" />
    <glyph glyph-name="uni0163" unicode="&#x163;" horiz-adv-x="430" 
d="M397 0h-138.001c-47.333 0 -84.666 13.667 -111.999 41s-41 65 -41 113v214h-65l-33 132h98v75l151 75v-150h158l-33 -132h-125v-171c0 -21.333 4.5 -36.5 13.5 -45.5s23.833 -13.5 44.5 -13.5h82v-138zM155.999 -215l27 165h138l-78 -165h-87z" />
    <glyph glyph-name="Tcaron" unicode="&#x164;" horiz-adv-x="543" 
d="M191 0v552h-170v158h501v-158h-171v-552h-160zM407 931l41 -96l-177 -76l-177 76l41 96l136 -59z" />
    <glyph glyph-name="tcaron" unicode="&#x165;" horiz-adv-x="430" 
d="M397 0h-138.001c-47.333 0 -84.666 13.667 -111.999 41s-41 65 -41 113v214h-65l-33 132h98v75l151 75v-150h158l-33 -132h-125v-171c0 -21.333 4.5 -36.5 13.5 -45.5s23.833 -13.5 44.5 -13.5h82v-138zM306.999 550l20 160h151l-69 -160h-102z" />
    <glyph glyph-name="Tbar" unicode="&#x166;" horiz-adv-x="571" 
d="M205 0v552h-170v158h501v-158h-171v-552h-160zM64 341v74h443v-74h-443z" />
    <glyph glyph-name="tbar" unicode="&#x167;" horiz-adv-x="436" 
d="M400 0h-138.001c-47.333 0 -84.666 13.667 -111.999 41s-41 65 -41 113v214h-65l-33 132h98v75l151 75v-150h158l-33 -132h-125v-171c0 -21.333 4.5 -36.5 13.5 -45.5s23.833 -13.5 44.5 -13.5h82v-138zM27.999 229v65h372v-65h-372z" />
    <glyph glyph-name="Utilde" unicode="&#x168;" horiz-adv-x="718" 
d="M359 -8c-86 0 -156 27.167 -210 81.5s-81 125.833 -81 214.5v422h160v-424c0 -43.333 11.833 -77.5 35.5 -102.5s55.5 -37.5 95.5 -37.5s71.833 12.5 95.5 37.5s35.5 59.167 35.5 102.5v424h160v-423c0 -88.667 -27 -160 -81 -214s-124 -81 -210 -81zM166 777l4 29
c5.33301 36 19.333 64.333 42 85s47.667 31 75 31c22 0 46.667 -6.66699 74 -20s44.666 -20 51.999 -20c11.333 0 20.333 3.16699 27 9.5s12 17.166 16 32.499h96l-4 -29c-5.33301 -36 -19.333 -64.333 -42 -85s-47.667 -31 -75 -31c-22 0 -46.667 6.66699 -74 20
s-44.666 20 -51.999 20c-11.333 0 -20.333 -3.16699 -27 -9.5s-12 -17.166 -16 -32.499h-96z" />
    <glyph glyph-name="utilde" unicode="&#x169;" horiz-adv-x="598" 
d="M387 0v37c-32 -30 -71.667 -45 -119 -45c-66.667 0 -119 20.833 -157 62.5s-57 97.167 -57 166.5v279h151v-252c0 -35.333 7.5 -63.833 22.5 -85.5s36.833 -32.5 65.5 -32.5c42 0 73.333 16.667 94 50v320h151v-500h-151zM103 554l4 29c5.33301 36 19.333 64.333 42 85
s47.667 31 75 31c21.333 0 45.666 -6.66699 72.999 -20s45 -20 53 -20c11.333 0 20.333 3.16699 27 9.5s12 17.166 16 32.499h96l-4 -29c-5.33301 -36 -19.333 -64.333 -42 -85s-47.667 -31 -75 -31c-21.333 0 -45.666 6.66699 -72.999 20s-45 20 -53 20
c-11.333 0 -20.333 -3.16699 -27 -9.5s-12 -17.166 -16 -32.499h-96z" />
    <glyph glyph-name="Umacron" unicode="&#x16a;" horiz-adv-x="718" 
d="M359 -8c-86 0 -156 27.167 -210 81.5s-81 125.833 -81 214.5v422h160v-424c0 -43.333 11.833 -77.5 35.5 -102.5s55.5 -37.5 95.5 -37.5s71.833 12.5 95.5 37.5s35.5 59.167 35.5 102.5v424h160v-423c0 -88.667 -27 -160 -81 -214s-124 -81 -210 -81zM194 796v106h330
v-106h-330z" />
    <glyph glyph-name="umacron" unicode="&#x16b;" horiz-adv-x="598" 
d="M387 0v37c-32 -30 -71.667 -45 -119 -45c-66.667 0 -119 20.833 -157 62.5s-57 97.167 -57 166.5v279h151v-252c0 -35.333 7.5 -63.833 22.5 -85.5s36.833 -32.5 65.5 -32.5c42 0 73.333 16.667 94 50v320h151v-500h-151zM131 579v96h330v-96h-330z" />
    <glyph glyph-name="Ubreve" unicode="&#x16c;" horiz-adv-x="718" 
d="M359 -8c-86 0 -156 27.167 -210 81.5s-81 125.833 -81 214.5v422h160v-424c0 -43.333 11.833 -77.5 35.5 -102.5s55.5 -37.5 95.5 -37.5s71.833 12.5 95.5 37.5s35.5 59.167 35.5 102.5v424h160v-423c0 -88.667 -27 -160 -81 -214s-124 -81 -210 -81zM359 766
c-50.667 0 -94 18 -130 54s-54 79.333 -54 130h96c0 -28 8 -51.333 24 -70s37.333 -28 64 -28s48 9.33301 64 28s24 42 24 70h96c0 -50.667 -18 -94 -54 -130s-79.333 -54 -130 -54z" />
    <glyph glyph-name="ubreve" unicode="&#x16d;" horiz-adv-x="598" 
d="M387 0v37c-32 -30 -71.667 -45 -119 -45c-66.667 0 -119 20.833 -157 62.5s-57 97.167 -57 166.5v279h151v-252c0 -35.333 7.5 -63.833 22.5 -85.5s36.833 -32.5 65.5 -32.5c42 0 73.333 16.667 94 50v320h151v-500h-151zM296 546c-52 0 -95.667 15 -131 45
s-53 69.667 -53 119h96c0 -52 29.333 -78 88 -78s88 26 88 78h96c0 -49.333 -17.667 -89 -53 -119s-79 -45 -131 -45z" />
    <glyph glyph-name="Uring" unicode="&#x16e;" horiz-adv-x="718" 
d="M359 -8c-86 0 -156 27.167 -210 81.5s-81 125.833 -81 214.5v422h160v-424c0 -43.333 11.833 -77.5 35.5 -102.5s55.5 -37.5 95.5 -37.5s71.833 12.5 95.5 37.5s35.5 59.167 35.5 102.5v424h160v-423c0 -88.667 -27 -160 -81 -214s-124 -81 -210 -81zM359 759
c-32.667 0 -60.834 11.833 -84.501 35.5s-35.5 51.834 -35.5 84.501s11.833 60.834 35.5 84.501s51.834 35.5 84.501 35.5s60.834 -11.833 84.501 -35.5s35.5 -51.834 35.5 -84.501s-11.833 -60.834 -35.5 -84.501s-51.834 -35.5 -84.501 -35.5zM359 832
c13.333 0 24.5 4.5 33.5 13.5s13.5 20.167 13.5 33.5s-4.5 24.5 -13.5 33.5s-20.167 13.5 -33.5 13.5s-24.5 -4.5 -33.5 -13.5s-13.5 -20.167 -13.5 -33.5s4.5 -24.5 13.5 -33.5s20.167 -13.5 33.5 -13.5z" />
    <glyph glyph-name="uring" unicode="&#x16f;" horiz-adv-x="598" 
d="M387 0v37c-32 -30 -71.667 -45 -119 -45c-66.667 0 -119 20.833 -157 62.5s-57 97.167 -57 166.5v279h151v-252c0 -35.333 7.5 -63.833 22.5 -85.5s36.833 -32.5 65.5 -32.5c42 0 73.333 16.667 94 50v320h151v-500h-151zM296 546c-33.333 0 -61.666 11.667 -84.999 35
s-35 51.666 -35 84.999s11.667 61.666 35 84.999s51.666 35 84.999 35s61.666 -11.667 84.999 -35s35 -51.666 35 -84.999s-11.667 -61.666 -35 -84.999s-51.666 -35 -84.999 -35zM296 619c13.333 0 24.5 4.5 33.5 13.5s13.5 20.167 13.5 33.5s-4.5 24.5 -13.5 33.5
s-20.167 13.5 -33.5 13.5s-24.5 -4.5 -33.5 -13.5s-13.5 -20.167 -13.5 -33.5s4.5 -24.5 13.5 -33.5s20.167 -13.5 33.5 -13.5z" />
    <glyph glyph-name="Uhungarumlaut" unicode="&#x170;" horiz-adv-x="718" 
d="M359 -8c-86 0 -156 27.167 -210 81.5s-81 125.833 -81 214.5v422h160v-424c0 -43.333 11.833 -77.5 35.5 -102.5s55.5 -37.5 95.5 -37.5s71.833 12.5 95.5 37.5s35.5 59.167 35.5 102.5v424h160v-423c0 -88.667 -27 -160 -81 -214s-124 -81 -210 -81zM229 768l70 145h148
l-115 -145h-103zM407 768l70 145h148l-115 -145h-103z" />
    <glyph glyph-name="uhungarumlaut" unicode="&#x171;" horiz-adv-x="598" 
d="M387 0v37c-32 -30 -71.667 -45 -119 -45c-66.667 0 -119 20.833 -157 62.5s-57 97.167 -57 166.5v279h151v-252c0 -35.333 7.5 -63.833 22.5 -85.5s36.833 -32.5 65.5 -32.5c42 0 73.333 16.667 94 50v320h151v-500h-151zM164 550l83 160h143l-131 -160h-95zM337 550
l83 160h143l-131 -160h-95z" />
    <glyph glyph-name="Uogonek" unicode="&#x172;" horiz-adv-x="718" 
d="M359 -8c-86 0 -156 27.167 -210 81.5s-81 125.833 -81 214.5v422h160v-424c0 -43.333 11.833 -77.5 35.5 -102.5s55.5 -37.5 95.5 -37.5s71.833 12.5 95.5 37.5s35.5 59.167 35.5 102.5v424h160v-423c0 -88.667 -27 -160 -81 -214s-124 -81 -210 -81zM357 -185
c-34.667 0 -62.668 9.33496 -84.001 28.002s-32 43 -32 73c0 36 15.333 65.333 46 88h160c-18 -8 -30.667 -13.833 -38 -17.5s-14 -8.83398 -20 -15.501s-9 -14.334 -9 -23.001c0 -20 10.667 -30 32 -30c14.667 0 26.334 4.33301 35.001 13v-87
c-25.333 -19.333 -55.333 -29 -90 -29z" />
    <glyph glyph-name="uogonek" unicode="&#x173;" horiz-adv-x="598" 
d="M387 0v37c-32 -30 -71.667 -45 -119 -45c-66.667 0 -119 20.833 -157 62.5s-57 97.167 -57 166.5v279h151v-252c0 -35.333 7.5 -63.833 22.5 -85.5s36.833 -32.5 65.5 -32.5c42 0 73.333 16.667 94 50v320h151v-500h-151zM455 -189
c-29.333 0 -54.501 10.502 -75.501 31.502s-31.5 46.167 -31.5 75.5c0 33.333 13 60.666 39 81.999h151c-38 -18 -57 -36.667 -57 -56c0 -8.66699 2.83301 -15.834 8.5 -21.501s12.834 -8.5 21.501 -8.5c9.33301 0 18.333 4.33301 27 13v-87
c-19.333 -19.333 -47 -29 -83 -29z" />
    <glyph glyph-name="Wcircumflex" unicode="&#x174;" horiz-adv-x="860" 
d="M243 -8l-246 718h163l110 -333l160 341l160 -341l110 333h163l-246 -718l-187 410zM294 759l-41 96l177 76l177 -76l-41 -96l-136 59z" />
    <glyph glyph-name="wcircumflex" unicode="&#x175;" horiz-adv-x="734" 
d="M161 0l-159 500h159l83 -282l123 290l123 -290l83 282h159l-159 -500h-115l-91 205l-91 -205h-115zM367 728l170 -91l-47 -92l-123 63l-123 -63l-47 92z" />
    <glyph glyph-name="Ycircumflex" unicode="&#x176;" horiz-adv-x="682" 
d="M261 0v298l-263 412h187l156 -252l156 252h187l-263 -412v-298h-160zM205 759l-41 96l177 76l177 -76l-41 -96l-136 59z" />
    <glyph glyph-name="ycircumflex" unicode="&#x177;" horiz-adv-x="528" 
d="M117 -184l68 184l-184 500h160l104 -317l104 317h160l-252 -684h-160zM265 728l170 -91l-47 -92l-123 63l-123 -63l-47 92z" />
    <glyph glyph-name="Ydieresis" unicode="&#x178;" horiz-adv-x="682" 
d="M261 0v298l-263 412h187l156 -252l156 252h187l-263 -412v-298h-160zM460 770c-22 0 -40.833 7.83301 -56.5 23.5s-23.5 34.5 -23.5 56.5c0 23.333 7.83301 42.5 23.5 57.5s34.5 22.5 56.5 22.5s40.833 -7.5 56.5 -22.5s23.5 -34.167 23.5 -57.5
c0 -22 -7.83301 -40.833 -23.5 -56.5s-34.5 -23.5 -56.5 -23.5zM222 770c-22 0 -40.833 7.83301 -56.5 23.5s-23.5 34.5 -23.5 56.5c0 23.333 7.83301 42.5 23.5 57.5s34.5 22.5 56.5 22.5s40.833 -7.5 56.5 -22.5s23.5 -34.167 23.5 -57.5
c0 -22 -7.83301 -40.833 -23.5 -56.5s-34.5 -23.5 -56.5 -23.5z" />
    <glyph glyph-name="Zacute" unicode="&#x179;" horiz-adv-x="627" 
d="M336 552l-329 -552h581v158h-308l329 552h-560v-158h287zM518 913l-126 -145h-110l70 145h166z" />
    <glyph glyph-name="zacute" unicode="&#x17a;" horiz-adv-x="518" 
d="M245 370l-232 -370h469v131h-216l231 369h-454v-130h202zM478 710l-147 -160h-110l84 160h173z" />
    <glyph glyph-name="Zdotaccent" unicode="&#x17b;" horiz-adv-x="627" 
d="M7 0l329 552h-287v158h560l-329 -552h308v-158h-581zM326 770c-22 0 -40.833 7.5 -56.5 22.5s-23.5 34.167 -23.5 57.5c0 22 7.83301 40.833 23.5 56.5s34.5 23.5 56.5 23.5s40.833 -7.83301 56.5 -23.5s23.5 -34.5 23.5 -56.5s-7.83301 -40.833 -23.5 -56.5
s-34.5 -23.5 -56.5 -23.5z" />
    <glyph glyph-name="zdotaccent" unicode="&#x17c;" horiz-adv-x="518" 
d="M13 0l232 370h-202v130h454l-231 -369h216v-131h-469zM271 567c-22 0 -40.833 7.5 -56.5 22.5s-23.5 34.167 -23.5 57.5c0 22 7.83301 40.833 23.5 56.5s34.5 23.5 56.5 23.5s40.833 -7.83301 56.5 -23.5s23.5 -34.5 23.5 -56.5s-7.83301 -40.833 -23.5 -56.5
s-34.5 -23.5 -56.5 -23.5z" />
    <glyph glyph-name="Zcaron" unicode="&#x17d;" horiz-adv-x="627" 
d="M7 0l329 552h-287v158h560l-329 -552h308v-158h-581zM462 931l41 -96l-177 -76l-177 76l41 96l136 -59z" />
    <glyph glyph-name="zcaron" unicode="&#x17e;" horiz-adv-x="518" 
d="M13 0l232 370h-202v130h454l-231 -369h216v-131h-469zM271 546l-170 91l47 92l123 -63l123 63l47 -92z" />
    <glyph glyph-name="uni018F" unicode="&#x18f;" horiz-adv-x="774" 
d="M387 -8c-78 0 -145.331 20.5029 -201.998 61.5029s-97.334 93.667 -122.001 158s-33.334 133.833 -26.001 208.5h531c-12 41.333 -35.5 75.666 -70.5 102.999s-74.167 41 -117.5 41c-76 0 -139 -30.667 -189 -92l-120 89c34.667 49.333 78.5 87.833 131.5 115.5
s112.167 41.5 177.5 41.5c100.667 0 185.167 -34.333 253.5 -103s102.5 -155.334 102.5 -260.001c0 -100.667 -33.5 -186.334 -100.5 -257.001s-149.833 -106 -248.5 -106zM390.002 146.003c44.667 0 82.501 13.6689 113.501 41.002s52.5 61.666 64.5 102.999h-361
c8 -42.667 28.667 -77.334 62 -104.001s73.666 -40 120.999 -40z" />
    <glyph glyph-name="uni0218" unicode="&#x218;" horiz-adv-x="542" 
d="M282 -8c-120.667 0 -205.665 46.3311 -254.998 138.998l121 99c16 -25.333 35.833 -46.333 59.5 -63s47.5 -25 71.5 -25c45.333 0 68 17 68 51c0 16 -6.16699 29.667 -18.5 41s-33.833 24 -64.5 38l-40 18c-54 24 -95.167 55.167 -123.5 93.5s-42.5 81.5 -42.5 129.5
c0 60 21.5 109.167 64.5 147.5s93.5 57.5 151.5 57.5c41.333 0 77.666 -6.5 108.999 -19.5s61.333 -36.167 90 -69.5l-108 -114c-17.333 21.333 -32.5 35.5 -45.5 42.5s-28.167 10.5 -45.5 10.5c-14.667 0 -27.5 -4.33301 -38.5 -13s-16.5 -20.667 -16.5 -36
c0 -17.333 7.16699 -32.166 21.5 -44.499s39.166 -26.166 74.499 -41.499l38 -17c103.333 -46 155 -117 155 -213c0 -63.333 -21.167 -114.333 -63.5 -153s-96.5 -58 -162.5 -58zM186.002 -215.002l27 165h138l-78 -165h-87z" />
    <glyph glyph-name="uni0219" unicode="&#x219;" horiz-adv-x="439" 
d="M226 -8c-94 0 -161.001 35.3301 -201.001 105.997l115 78c22.667 -40.667 53.334 -61 92.001 -61c26 0 39 7.66699 39 23c0 8.66699 -3.83301 15.667 -11.5 21s-24.834 13 -51.501 23l-26 10c-88 34.667 -132 88.334 -132 161.001c0 45.333 16.5 82.5 49.5 111.5
s73.833 43.5 122.5 43.5c68.667 0 121.334 -26.333 158.001 -79l-86 -85c-21.333 30 -45.333 45 -72 45c-24 0 -36 -7.66699 -36 -23c0 -9.33301 4 -16.666 12 -21.999s26 -13 54 -23l21 -8c47.333 -18 81.5 -40 102.5 -66s31.5 -58 31.5 -96
c0 -49.333 -17 -88.166 -51 -116.499s-77.333 -42.5 -130 -42.5zM129.999 -215.003l27 165h138l-78 -165h-87z" />
    <glyph glyph-name="uni021A" unicode="&#x21a;" horiz-adv-x="543" 
d="M191 0v552h-170v158h501v-158h-171v-552h-160zM172 -215l27 165h138l-78 -165h-87z" />
    <glyph glyph-name="uni021B" unicode="&#x21b;" horiz-adv-x="430" 
d="M397 0h-138.001c-47.333 0 -84.666 13.667 -111.999 41s-41 65 -41 113v214h-65l-33 132h98v75l151 75v-150h158l-33 -132h-125v-171c0 -21.333 4.5 -36.5 13.5 -45.5s23.833 -13.5 44.5 -13.5h82v-138zM155.999 -215l27 165h138l-78 -165h-87z" />
    <glyph glyph-name="uni0232" unicode="&#x232;" horiz-adv-x="682" 
d="M261 0v298l-263 412h187l156 -252l156 252h187l-263 -412v-298h-160zM176 796v106h330v-106h-330z" />
    <glyph glyph-name="uni0233" unicode="&#x233;" horiz-adv-x="528" 
d="M117 -184l68 184l-184 500h160l104 -317l104 317h160l-252 -684h-160zM100 579v96h330v-96h-330z" />
    <glyph glyph-name="uni0237" unicode="&#x237;" horiz-adv-x="279" 
d="M-36 -184v142.999h25c26 0 45.667 4.33301 59 13s20 24.334 20 47.001v481h151v-500c0 -60 -19.833 -105.667 -59.5 -137s-93.5 -47 -161.5 -47h-34z" />
    <glyph glyph-name="uni0259" unicode="&#x259;" horiz-adv-x="565" 
d="M277 509c68.667 0 128.334 -24.166 179.001 -72.499s76 -110.166 76 -185.499c0 -74.667 -23.833 -136.334 -71.5 -185.001s-109.834 -73 -186.501 -73c-77.333 0 -139.166 26.167 -185.499 78.5s-63.833 121.166 -52.5 206.499h351c-4 30.667 -16.667 53.834 -38 69.501
s-45 23.5 -71 23.5c-48.667 0 -84.334 -21 -107.001 -63l-120 81c24 37.333 55.5 66.666 94.5 87.999s82.833 32 131.5 32zM283 114.001c22.667 0 43.668 5.83301 63.001 17.5s32.666 31.167 39.999 58.5h-204c4 -25.333 15.333 -44.333 34 -57s41 -19 67 -19z" />
    <glyph glyph-name="uni02BB" unicode="&#x2bb;" horiz-adv-x="274" 
d="M201 710l-44 -154h67v-174h-174v174l64 154h87z" />
    <glyph glyph-name="uni02BC" unicode="&#x2bc;" horiz-adv-x="264" 
d="M71 382l44 154h-67v174h174v-174l-64 -154h-87z" />
    <glyph glyph-name="circumflex" unicode="&#x2c6;" 
d="M0 728l170 -91l-47 -92l-123 63l-123 -63l-47 92z" />
    <glyph glyph-name="caron" unicode="&#x2c7;" 
d="M0 546l-170 91l47 92l123 -63l123 63l47 -92z" />
    <glyph glyph-name="breve" unicode="&#x2d8;" 
d="M0 546c-52 0 -95.667 15 -131 45s-53 69.667 -53 119h96c0 -52 29.333 -78 88 -78s88 26 88 78h96c0 -49.333 -17.667 -89 -53 -119s-79 -45 -131 -45z" />
    <glyph glyph-name="dotaccent" unicode="&#x2d9;" 
d="M0 567c-22 0 -40.833 7.5 -56.5 22.5s-23.5 34.167 -23.5 57.5c0 22 7.83301 40.833 23.5 56.5s34.5 23.5 56.5 23.5s40.833 -7.83301 56.5 -23.5s23.5 -34.5 23.5 -56.5s-7.83301 -40.833 -23.5 -56.5s-34.5 -23.5 -56.5 -23.5z" />
    <glyph glyph-name="ring" unicode="&#x2da;" 
d="M0 546c-33.333 0 -61.666 11.667 -84.999 35s-35 51.666 -35 84.999s11.667 61.666 35 84.999s51.666 35 84.999 35s61.666 -11.667 84.999 -35s35 -51.666 35 -84.999s-11.667 -61.666 -35 -84.999s-51.666 -35 -84.999 -35zM0 619c13.333 0 24.5 4.5 33.5 13.5
s13.5 20.167 13.5 33.5s-4.5 24.5 -13.5 33.5s-20.167 13.5 -33.5 13.5s-24.5 -4.5 -33.5 -13.5s-13.5 -20.167 -13.5 -33.5s4.5 -24.5 13.5 -33.5s20.167 -13.5 33.5 -13.5z" />
    <glyph glyph-name="ogonek" unicode="&#x2db;" 
d="M12 -189c-29.333 0 -54.501 10.502 -75.501 31.502s-31.5 46.167 -31.5 75.5c0 33.333 13 60.666 39 81.999h151c-38 -18 -57 -36.667 -57 -56c0 -8.66699 2.83301 -15.834 8.5 -21.501s12.834 -8.5 21.501 -8.5c9.33301 0 18.333 4.33301 27 13v-87
c-19.333 -19.333 -47 -29 -83 -29z" />
    <glyph glyph-name="tilde" unicode="&#x2dc;" 
d="M-193 554l4 29c5.33301 36 19.333 64.333 42 85s47.667 31 75 31c21.333 0 45.666 -6.66699 72.999 -20s45 -20 53 -20c11.333 0 20.333 3.16699 27 9.5s12 17.166 16 32.499h96l-4 -29c-5.33301 -36 -19.333 -64.333 -42 -85s-47.667 -31 -75 -31
c-21.333 0 -45.666 6.66699 -72.999 20s-45 20 -53 20c-11.333 0 -20.333 -3.16699 -27 -9.5s-12 -17.166 -16 -32.499h-96z" />
    <glyph glyph-name="hungarumlaut" unicode="&#x2dd;" 
d="M-201 550l83 160h143l-131 -160h-95zM-28 550l83 160h143l-131 -160h-95z" />
    <glyph glyph-name="uni0326" unicode="&#x326;" 
d="M-96 -215l27 165h138l-78 -165h-87z" />
    <glyph glyph-name="uni0401" unicode="&#x401;" horiz-adv-x="564" 
d="M76 0v710h440v-158h-280v-120h220v-154h-220v-120h280v-158h-440zM415 770c-22 0 -40.833 7.83301 -56.5 23.5s-23.5 34.5 -23.5 56.5c0 23.333 7.83301 42.5 23.5 57.5s34.5 22.5 56.5 22.5s40.833 -7.5 56.5 -22.5s23.5 -34.167 23.5 -57.5
c0 -22 -7.83301 -40.833 -23.5 -56.5s-34.5 -23.5 -56.5 -23.5zM177 770c-22 0 -40.833 7.83301 -56.5 23.5s-23.5 34.5 -23.5 56.5c0 23.333 7.83301 42.5 23.5 57.5s34.5 22.5 56.5 22.5s40.833 -7.5 56.5 -22.5s23.5 -34.167 23.5 -57.5
c0 -22 -7.83301 -40.833 -23.5 -56.5s-34.5 -23.5 -56.5 -23.5z" />
    <glyph glyph-name="uni0402" unicode="&#x402;" horiz-adv-x="750" 
d="M192 0l-0.000976562 552h-171v158h538v-158h-207v-124c42.667 13.333 90 20 142 20c69.333 0 124.333 -22.333 165 -67s61 -104.334 61 -179.001c0 -52 -7.66699 -97.833 -23 -137.5s-36.166 -71.167 -62.499 -94.5s-55 -40.666 -86 -51.999s-63.833 -17 -98.5 -17h-11
v143h10c30.667 0 57 11.667 79 35s33 57.333 33 102c0 75.333 -37.667 113 -113 113c-36.667 0 -68.667 -6.33301 -96 -19v-275h-160z" />
    <glyph glyph-name="uni0403" unicode="&#x403;" horiz-adv-x="512" 
d="M491 552v158h-415v-710h160v552h255zM475 913l-126 -145h-110l70 145h166z" />
    <glyph glyph-name="uni0404" unicode="&#x404;" horiz-adv-x="722" 
d="M400 -8c-100 0 -185.5 35.5 -256.5 106.5s-106.5 156.5 -106.5 256.5s35.5 185.5 106.5 256.5s156.5 106.5 256.5 106.5c60 0 116 -13.833 168 -41.5s95 -65.167 129 -112.5l-121 -99c-18.667 30 -43.334 54 -74.001 72s-64.667 27 -102 27
c-44.667 0 -84 -12.667 -118 -38s-58 -58.333 -72 -99h281v-144h-281c14 -40.667 38.167 -73.667 72.5 -99s73.5 -38 117.5 -38c37.333 0 71.333 9 102 27s55.334 42 74.001 72l121 -99c-34 -47.333 -77 -84.833 -129 -112.5s-108 -41.5 -168 -41.5z" />
    <glyph glyph-name="uni0405" unicode="&#x405;" horiz-adv-x="542" 
d="M282 -8c-120.667 0 -205.665 46.3311 -254.998 138.998l121 99c16 -25.333 35.833 -46.333 59.5 -63s47.5 -25 71.5 -25c45.333 0 68 17 68 51c0 16 -6.16699 29.667 -18.5 41s-33.833 24 -64.5 38l-40 18c-54 24 -95.167 55.167 -123.5 93.5s-42.5 81.5 -42.5 129.5
c0 60 21.5 109.167 64.5 147.5s93.5 57.5 151.5 57.5c41.333 0 77.666 -6.5 108.999 -19.5s61.333 -36.167 90 -69.5l-108 -114c-17.333 21.333 -32.5 35.5 -45.5 42.5s-28.167 10.5 -45.5 10.5c-14.667 0 -27.5 -4.33301 -38.5 -13s-16.5 -20.667 -16.5 -36
c0 -17.333 7.16699 -32.166 21.5 -44.499s39.166 -26.166 74.499 -41.499l38 -17c103.333 -46 155 -117 155 -213c0 -63.333 -21.167 -114.333 -63.5 -153s-96.5 -58 -162.5 -58z" />
    <glyph glyph-name="uni0406" unicode="&#x406;" horiz-adv-x="312" 
d="M76 0v710h160v-710h-160z" />
    <glyph glyph-name="uni0407" unicode="&#x407;" horiz-adv-x="312" 
d="M37 770c-22 0 -40.833 7.5 -56.5 22.5s-23.5 34.167 -23.5 57.5c0 22 7.83301 40.833 23.5 56.5s34.5 23.5 56.5 23.5s40.833 -7.83301 56.5 -23.5s23.5 -34.5 23.5 -56.5s-7.83301 -40.833 -23.5 -56.5s-34.5 -23.5 -56.5 -23.5zM275 770c-22 0 -40.833 7.5 -56.5 22.5
s-23.5 34.167 -23.5 57.5c0 22 7.83301 40.833 23.5 56.5s34.5 23.5 56.5 23.5s40.833 -7.83301 56.5 -23.5s23.5 -34.5 23.5 -56.5s-7.83301 -40.833 -23.5 -56.5s-34.5 -23.5 -56.5 -23.5zM76 0v710h160v-710h-160z" />
    <glyph glyph-name="uni0408" unicode="&#x408;" horiz-adv-x="527" 
d="M236 -8c-64.667 0 -117.5 18.333 -158.5 55s-61.5 91.667 -61.5 165h160c0 -47.333 20 -71 60 -71s60 23.667 60 71v498h160v-508c0 -70 -20.5 -122.5 -61.5 -157.5s-93.833 -52.5 -158.5 -52.5z" />
    <glyph glyph-name="uni0409" unicode="&#x409;" horiz-adv-x="909" 
d="M-14 0l335.002 718l119 -256h196c71.333 0 129.666 -20.5 174.999 -61.5s68 -97.5 68 -169.5c0 -70 -22.833 -126 -68.5 -168s-103.834 -63 -174.501 -63h-158l-157 355l-157 -355h-178zM634.002 313h-124l76 -163h48c26.667 0 48.334 7 65.001 21s25 34 25 60
s-8.33301 46.167 -25 60.5s-38.334 21.5 -65.001 21.5z" />
    <glyph glyph-name="uni040A" unicode="&#x40a;" horiz-adv-x="974" 
d="M76 0l-0.000976562 710h160v-278h244v278h160v-278h64c74 0 133 -19.5 177 -58.5s66 -89.833 66 -152.5c0 -62 -23.167 -114.333 -69.5 -157s-104.166 -64 -173.499 -64h-224v278h-244v-278h-160zM701.999 278h-62v-128h62c60 0 90 22.333 90 67c0 40.667 -30 61 -90 61z
" />
    <glyph glyph-name="uni040B" unicode="&#x40b;" horiz-adv-x="772" 
d="M192 552h-171v158h538v-158h-207v-123c42.667 13.333 90 20 142 20c70 0 127 -21.333 171 -64s66 -98 66 -166v-219h-160v177c0 78.667 -35 118 -105 118c-45.333 0 -83.333 -6.66699 -114 -20v-275h-160v552z" />
    <glyph glyph-name="uni040C" unicode="&#x40c;" horiz-adv-x="685" 
d="M76 710v-710h160v333l266 -333h198l-281 351l249 359h-184l-248 -356v356h-160zM543 913l-126 -145h-110l70 145h166z" />
    <glyph glyph-name="uni040E" unicode="&#x40e;" horiz-adv-x="714" 
d="M191 0l88 177l-276 533h187l181 -348l173 348h182l-353 -710h-182zM456 914h96c0 -50.667 -16.833 -92.667 -50.5 -126s-78.167 -50 -133.5 -50s-99.833 16.667 -133.5 50s-50.5 75.333 -50.5 126h96c0 -60 29.333 -90 88 -90s88 30 88 90z" />
    <glyph glyph-name="uni040F" unicode="&#x40f;" horiz-adv-x="716" 
d="M435 0v-148h-154v148h-205v710h160v-556h244v556h160v-710h-205z" />
    <glyph glyph-name="uni0410" unicode="&#x410;" horiz-adv-x="670" 
d="M-15 0l350 718l350 -718h-168l-52 110h-260l-52 -110h-168zM266 240h138l-69 147z" />
    <glyph glyph-name="uni0411" unicode="&#x411;" horiz-adv-x="635" 
d="M236 552v-100h125c69.333 0 127.166 -21.667 173.499 -65s69.5 -97 69.5 -161s-23.167 -117.667 -69.5 -161s-104.166 -65 -173.499 -65h-285v710h468v-158h-308zM236 150h123c26.667 0 48.334 6.83301 65.001 20.5s25 32.167 25 55.5s-8.33301 42 -25 56
s-38.334 21 -65.001 21h-123v-153z" />
    <glyph glyph-name="uni0412" unicode="&#x412;" horiz-adv-x="637" 
d="M76 0v710.002h267c58 0 107.667 -20.667 149 -62s62 -91 62 -149c0 -48 -16.667 -88.667 -50 -122c30.667 -16.667 55 -39.334 73 -68.001s27 -61.334 27 -98.001c0 -58.667 -20.833 -108.5 -62.5 -149.5s-92.5 -61.5 -152.5 -61.5h-313zM236 423.002h89
c21.333 0 39 6.66699 53 20s21 30 21 50s-7 36.833 -21 50.5s-31.667 20.5 -53 20.5h-89v-141zM236 147.002h138c21.333 0 39 6.66699 53 20s21 30 21 50s-7 36.833 -21 50.5s-31.667 20.5 -53 20.5h-138v-141z" />
    <glyph glyph-name="uni0413" unicode="&#x413;" horiz-adv-x="512" 
d="M491 710v-158h-255v-552h-160v710h415z" />
    <glyph glyph-name="uni0414" unicode="&#x414;" horiz-adv-x="772" 
d="M501 154l-115 239l-115 -239h230zM18 -148v302h83l285 564l285 -564h83v-302h-154v148h-428v-148h-154z" />
    <glyph glyph-name="uni0415" unicode="&#x415;" horiz-adv-x="564" 
d="M76 0v710h440v-158h-280v-120h220v-154h-220v-120h280v-158h-440z" />
    <glyph glyph-name="uni0416" unicode="&#x416;" horiz-adv-x="1048" 
d="M-14 0l275 351l-243 359h184l242 -355v355h160v-355l243 355h184l-244 -359l276 -351h-198l-261 333v-333h-160v333l-260 -333h-198z" />
    <glyph glyph-name="uni0417" unicode="&#x417;" horiz-adv-x="559" 
d="M121 517l-88.001 111.999c70.667 59.333 149.667 89 237 89c62.667 0 115.834 -16 159.501 -48s65.5 -78 65.5 -138c0 -31.333 -5.33301 -58.833 -16 -82.5s-29.667 -46.167 -57 -67.5c64.667 -38 97 -94.333 97 -169c0 -68 -24.167 -121.833 -72.5 -161.5
s-108.166 -59.5 -179.499 -59.5c-100.667 0 -184.334 43 -251.001 129l117 98c40.667 -51.333 86 -77 136 -77c30 0 52.833 7.83301 68.5 23.5s23.5 35.5 23.5 59.5c0 22.667 -7.33301 40.5 -22 53.5s-35 19.5 -61 19.5h-99v135h89c21.333 0 38.5 6.33301 51.5 19
s19.5 29.334 19.5 50.001c0 46.667 -29 70 -87 70c-26.667 0 -49.5 -4.33301 -68.5 -13s-39.833 -22.667 -62.5 -42z" />
    <glyph glyph-name="uni0418" unicode="&#x418;" horiz-adv-x="760" 
d="M76 -8v718h160v-371l448 379v-718h-160v371z" />
    <glyph glyph-name="uni0419" unicode="&#x419;" horiz-adv-x="760" 
d="M76 -8v718h160v-371l448 379v-718h-160v371zM510 914h96c0 -50.667 -16.833 -92.667 -50.5 -126s-78.167 -50 -133.5 -50s-99.833 16.667 -133.5 50s-50.5 75.333 -50.5 126h96c0 -60 29.333 -90 88 -90s88 30 88 90z" />
    <glyph glyph-name="uni041A" unicode="&#x41a;" horiz-adv-x="685" 
d="M76 0v710h160v-356l248 356h184l-249 -359l281 -351h-198l-266 333v-333h-160z" />
    <glyph glyph-name="uni041B" unicode="&#x41b;" horiz-adv-x="670" 
d="M-15 0l350 718l350 -718h-170l-180 373l-181 -373h-169z" />
    <glyph glyph-name="uni041C" unicode="&#x41c;" horiz-adv-x="860" 
d="M76 0v718l354 -355l354 355v-718h-160v348l-194 -194l-194 194v-348h-160z" />
    <glyph glyph-name="uni041D" unicode="&#x41d;" horiz-adv-x="756" 
d="M76 0v710h160v-278h284v278h160v-710h-160v278h-284v-278h-160z" />
    <glyph glyph-name="uni041E" unicode="&#x41e;" horiz-adv-x="800" 
d="M400 -8c-100 0 -185.5 35.5 -256.5 106.5s-106.5 156.5 -106.5 256.5s35.5 185.5 106.5 256.5s156.5 106.5 256.5 106.5s185.5 -35.5 256.5 -106.5s106.5 -156.5 106.5 -256.5s-35.5 -185.5 -106.5 -256.5s-156.5 -106.5 -256.5 -106.5zM400 146
c57.333 0 105.333 20.333 144 61s58 90 58 148s-19.333 107.333 -58 148s-86.667 61 -144 61s-105.333 -20.333 -144 -61s-58 -90 -58 -148s19.333 -107.333 58 -148s86.667 -61 144 -61z" />
    <glyph glyph-name="uni041F" unicode="&#x41f;" horiz-adv-x="741" 
d="M505 0v556h-269v-556h-160v710h589v-710h-160z" />
    <glyph glyph-name="uni0420" unicode="&#x420;" horiz-adv-x="579" 
d="M76 0v710h234c68.667 0 126.334 -23.333 173.001 -70s70 -103.667 70 -171s-23.333 -124.333 -70 -171s-104.334 -70 -173.001 -70h-74v-228h-160zM236 377h72c25.333 0 46.666 9.16699 63.999 27.5s26 39.833 26 64.5s-8.66699 46 -26 64s-38.666 27 -63.999 27h-72
v-183z" />
    <glyph glyph-name="uni0421" unicode="&#x421;" horiz-adv-x="715" 
d="M400 -8c-100 0 -185.5 35.5 -256.5 106.5s-106.5 156.5 -106.5 256.5s35.5 185.5 106.5 256.5s156.5 106.5 256.5 106.5c60 0 116 -13.833 168 -41.5s95 -65.167 129 -112.5l-121 -99c-18.667 30 -43.334 54 -74.001 72s-64.667 27 -102 27
c-57.333 0 -105.333 -20.333 -144 -61s-58 -90 -58 -148s19.333 -107.333 58 -148s86.667 -61 144 -61c37.333 0 71.333 9 102 27s55.334 42 74.001 72l121 -99c-34 -47.333 -77 -84.833 -129 -112.5s-108 -41.5 -168 -41.5z" />
    <glyph glyph-name="uni0422" unicode="&#x422;" horiz-adv-x="543" 
d="M191 0v552h-170v158h501v-158h-171v-552h-160z" />
    <glyph glyph-name="uni0423" unicode="&#x423;" horiz-adv-x="714" 
d="M191 0l88 177l-276 533h187l181 -348l173 348h182l-353 -710h-182z" />
    <glyph glyph-name="uni0424" unicode="&#x424;" horiz-adv-x="906" 
d="M533 -20h-160.004v87c-105.333 0 -188.166 27.167 -248.499 81.5s-90.5 124.5 -90.5 210.5c0 85.333 29.833 155.166 89.5 209.499s142.834 81.5 249.501 81.5v80h160v-80c106.667 0 189.834 -27.167 249.501 -81.5s89.5 -124.166 89.5 -209.499
c0 -86 -30.167 -156.167 -90.5 -210.5s-143.166 -81.5 -248.499 -81.5v-87zM194.996 360c0 -98 59.333 -147 178 -147v292c-118.667 0 -178 -48.333 -178 -145zM532.996 505v-292c118.667 0 178 49 178 147c0 96.667 -59.333 145 -178 145z" />
    <glyph glyph-name="uni0425" unicode="&#x425;" horiz-adv-x="682" 
d="M4 0l224 356l-209 354h185l137 -236l137 236h185l-209 -354l224 -356h-186l-151 244l-151 -244h-186z" />
    <glyph glyph-name="uni0426" unicode="&#x426;" horiz-adv-x="768" 
d="M640 154h94v-302h-154v148h-504v710h160v-556h244v556h160v-556z" />
    <glyph glyph-name="uni0427" unicode="&#x427;" horiz-adv-x="688" 
d="M612 0h-159.999v258c-42.667 -13.333 -93.334 -20 -152.001 -20c-71.333 0 -132 21.667 -182 65s-75 98.333 -75 165v242h160v-200c0 -41.333 11.667 -71.333 35 -90s53.333 -28 90 -28c52.667 0 94 6.66699 124 20v298h160v-710z" />
    <glyph glyph-name="uni0428" unicode="&#x428;" horiz-adv-x="972" 
d="M76 0v710h160v-556h170v556h160v-556h170v556h160v-710h-820z" />
    <glyph glyph-name="uni0429" unicode="&#x429;" horiz-adv-x="1023" 
d="M406 154v556h160v-556h170v556h160v-556h93v-302h-154v148h-759v710h160v-556h170z" />
    <glyph glyph-name="uni042A" unicode="&#x42a;" horiz-adv-x="726" 
d="M190 0v552.002h-169v158h329v-248h104c69.333 0 127.166 -21.833 173.499 -65.5s69.5 -98.834 69.5 -165.501s-23.167 -121.834 -69.5 -165.501s-104.166 -65.5 -173.499 -65.5h-264zM350 150.002h102c26.667 0 48.334 7 65.001 21s25 34 25 60s-8.33301 46.167 -25 60.5
s-38.334 21.5 -65.001 21.5h-102v-163z" />
    <glyph glyph-name="uni042B" unicode="&#x42b;" horiz-adv-x="906" 
d="M670 0v710h160v-710h-160zM236 462l104 0.00195312c69.333 0 127.166 -21.833 173.499 -65.5s69.5 -98.834 69.5 -165.501s-23.167 -121.834 -69.5 -165.501s-104.166 -65.5 -173.499 -65.5h-264v710h160v-248zM236 150.002h102c26.667 0 48.334 7 65.001 21s25 34 25 60
s-8.33301 46.167 -25 60.5s-38.334 21.5 -65.001 21.5h-102v-163z" />
    <glyph glyph-name="uni042C" unicode="&#x42c;" horiz-adv-x="612" 
d="M236 462l104 0.00195312c69.333 0 127.166 -21.833 173.499 -65.5s69.5 -98.834 69.5 -165.501s-23.167 -121.834 -69.5 -165.501s-104.166 -65.5 -173.499 -65.5h-264v710h160v-248zM236 150.002h102c26.667 0 48.334 7 65.001 21s25 34 25 60s-8.33301 46.167 -25 60.5
s-38.334 21.5 -65.001 21.5h-102v-163z" />
    <glyph glyph-name="uni042D" unicode="&#x42d;" horiz-adv-x="722" 
d="M322 -8c-60 0 -116 13.833 -168 41.5s-95 65.167 -129 112.5l121 99c18.667 -30 43.334 -54 74.001 -72s64.667 -27 102 -27c44.667 0 84 12.667 118 38s58 58.333 72 99h-281v144h281c-14 40.667 -38 73.667 -72 99s-73.333 38 -118 38c-37.333 0 -71.333 -9 -102 -27
s-55.334 -42 -74.001 -72l-121 99c34 47.333 77 84.833 129 112.5s108 41.5 168 41.5c100 0 185.5 -35.5 256.5 -106.5s106.5 -156.5 106.5 -256.5s-35.5 -185.5 -106.5 -256.5s-156.5 -106.5 -256.5 -106.5z" />
    <glyph glyph-name="uni042E" unicode="&#x42e;" horiz-adv-x="1082" 
d="M76 0l0.00195312 710h160v-278h103c17.333 84.667 58.166 153.5 122.499 206.5s139.833 79.5 226.5 79.5c100.667 0 185.167 -34.667 253.5 -104s102.5 -155.666 102.5 -258.999c0 -102.667 -34.333 -188.834 -103 -258.501s-153 -104.5 -253 -104.5
c-86.667 0 -162.334 26.667 -227.001 80s-105 122 -121 206h-104v-278h-160zM688.002 146c57.333 0 104.166 19.667 140.499 59s54.5 89.333 54.5 150s-18.167 110.667 -54.5 150s-83.166 59 -140.499 59s-104.166 -19.667 -140.499 -59s-54.5 -89.333 -54.5 -150
s18.167 -110.667 54.5 -150s83.166 -59 140.499 -59z" />
    <glyph glyph-name="uni042F" unicode="&#x42f;" horiz-adv-x="627" 
d="M12 0l192.999 265c-39.333 19.333 -71 46.833 -95 82.5s-36 76.167 -36 121.5c0 67.333 23.333 124.333 70 171s104.334 70 173.001 70h234v-710h-160v228h-31l-164 -228h-184zM318.999 377h72v183h-72c-26 0 -47.5 -8.5 -64.5 -25.5s-25.5 -38.833 -25.5 -65.5
s8.5 -48.667 25.5 -66s38.5 -26 64.5 -26z" />
    <glyph glyph-name="uni0430" unicode="&#x430;" horiz-adv-x="596" 
d="M385 0l-0.000976562 28.998c-30 -24.667 -66.667 -37 -110 -37c-72 0 -130.333 25.333 -175 76s-67 111.334 -67 182.001s22.333 131.334 67 182.001s103 76 175 76c42.667 0 79.334 -12.667 110.001 -38v30h151v-500h-151zM299.999 129.998
c35.333 0 63.667 13.667 85 41v157c-22 28 -50.333 42 -85 42s-62.5 -11.5 -83.5 -34.5s-31.5 -51.5 -31.5 -85.5s10.5 -62.5 31.5 -85.5s48.833 -34.5 83.5 -34.5z" />
    <glyph glyph-name="uni0431" unicode="&#x431;" horiz-adv-x="595" 
d="M303 -8c-84.667 0 -148.832 27.332 -192.499 81.999s-65.5 130.667 -65.5 228v23c0 114.667 20.833 202.334 62.5 263.001s113.5 100 215.5 118l196 33v-146l-181 -30c-46.667 -8 -81.334 -21.667 -104.001 -41s-35.667 -49.333 -39 -90c36 33.333 81.667 50 137 50
c71.333 0 127.5 -22.167 168.5 -66.5s61.5 -99.5 61.5 -165.5c0 -72 -25 -133 -75 -183s-111.333 -75 -184 -75zM302.002 132.999c32.667 0 58.833 9.66797 78.5 29.001s29.5 47.333 29.5 84c0 28 -10 52.5 -30 73.5s-46 31.5 -78 31.5c-35.333 0 -62 -10.333 -80 -31
s-27 -45.334 -27 -74.001c0 -36 9.66699 -63.833 29 -83.5s45.333 -29.5 78 -29.5z" />
    <glyph glyph-name="uni0432" unicode="&#x432;" horiz-adv-x="554" 
d="M60 0v500.001h242c62.667 0 110 -15.5 142 -46.5s48 -66.833 48 -107.5c0 -28.667 -9.33301 -55.334 -28 -80.001c40 -30 60 -67.333 60 -112c0 -41.333 -15.167 -77.333 -45.5 -108s-76.5 -46 -138.5 -46h-280zM211 300.001h86c28.667 0 43 13.333 43 40
s-14.333 40 -43 40h-86v-80zM211 127.001l116 0.000976562c12.667 0 23.334 3.83301 32.001 11.5s13 18.167 13 31.5s-4.33301 23.666 -13 30.999s-19.334 11 -32.001 11h-116v-85z" />
    <glyph glyph-name="uni0433" unicode="&#x433;" horiz-adv-x="426" 
d="M60 0v500h347v-132h-196v-368h-151z" />
    <glyph glyph-name="uni0434" unicode="&#x434;" horiz-adv-x="593" 
d="M15 -118v250h66l215 376l215 -376h67v-250h-140v118h-283v-118h-140zM355 132l-59 109l-59 -109h118z" />
    <glyph glyph-name="uni0435" unicode="&#x435;" horiz-adv-x="565" 
d="M288 -8c-68.667 0 -128.335 24.167 -179.002 72.5s-76 110.166 -76 185.499c0 74.667 23.833 136.334 71.5 185.001s109.834 73 186.501 73s138.5 -26.5 185.5 -79.5s64.5 -121.5 52.5 -205.5h-351c4 -30.667 16.667 -53.834 38 -69.501s45 -23.5 71 -23.5
c48.667 0 84.334 21 107.001 63l120 -81c-24 -37.333 -55.5 -66.666 -94.5 -87.999s-82.833 -32 -131.5 -32zM281.999 387c-22.667 0 -43.668 -5.83301 -63.001 -17.5s-32.666 -31.167 -39.999 -58.5h204c-4 25.333 -15.333 44.333 -34 57s-41 19 -67 19z" />
    <glyph glyph-name="uni0436" unicode="&#x436;" horiz-adv-x="835" 
d="M-5 0l185 245l-156 255h165l153 -251v251h151v-251l153 251h165l-156 -255l185 -245h-178l-169 225v-225h-151v225l-169 -225h-178z" />
    <glyph glyph-name="uni0437" unicode="&#x437;" horiz-adv-x="469" 
d="M219 -8c-88.667 0 -156.667 35.333 -204 106l103 71c22.667 -36 54.334 -54 95.001 -54c20.667 0 37.5 4.66699 50.5 14s19.5 20.333 19.5 33s-4.83301 23.167 -14.5 31.5s-22.167 12.5 -37.5 12.5h-70v100h65c13.333 0 24.333 4 33 12s13 18 13 30
s-4.83301 21.833 -14.5 29.5s-22.834 11.5 -39.501 11.5c-38 0 -70.667 -16 -98 -48l-87 86c50.667 54 115.667 81 195 81c64.667 0 112.167 -15.667 142.5 -47s45.5 -65.333 45.5 -102c0 -40 -15.667 -71.667 -47 -95c44.667 -29.333 67 -67.333 67 -114
c0 -40 -18.333 -76.333 -55 -109s-90.667 -49 -162 -49z" />
    <glyph glyph-name="uni0438" unicode="&#x438;" horiz-adv-x="604" 
d="M60 -9v509h151v-235l333 243v-508h-151v233z" />
    <glyph glyph-name="uni0439" unicode="&#x439;" horiz-adv-x="604" 
d="M60 -9v509h151v-235l333 243v-508h-151v233zM416 710h96.002c0 -54.667 -17.333 -97.667 -52 -129s-78.334 -47 -131.001 -47s-96.334 15.667 -131.001 47s-52 74.333 -52 129h96c0 -60 29 -90 87 -90s87 30 87 90z" />
    <glyph glyph-name="uni043A" unicode="&#x43a;" horiz-adv-x="548" 
d="M60 0v500h151v-251l153 251h163l-156 -255l185 -245h-176l-169 225v-225h-151z" />
    <glyph glyph-name="uni043B" unicode="&#x43b;" horiz-adv-x="558" 
d="M-12 0l291 508l291 -508h-169l-122 226l-128 -226h-163z" />
    <glyph glyph-name="uni043C" unicode="&#x43c;" horiz-adv-x="664" 
d="M453 0v234l-121 -100l-121 100v-234h-151v518l272 -227l272 227v-518h-151z" />
    <glyph glyph-name="uni043D" unicode="&#x43d;" horiz-adv-x="604" 
d="M60 0v500h151v-184h182v184h151v-500h-151v184h-182v-184h-151z" />
    <glyph glyph-name="uni043E" unicode="&#x43e;" horiz-adv-x="584" 
d="M292 -8c-72 0 -133.333 25.333 -184 76s-76 111.334 -76 182.001s25.333 131.334 76 182.001s112 76 184 76s133.333 -25.333 184 -76s76 -111.334 76 -182.001s-25.333 -131.334 -76 -182.001s-112 -76 -184 -76zM292 133c31.333 0 57.166 10.833 77.499 32.5
s30.5 49.834 30.5 84.501s-10.167 62.834 -30.5 84.501s-46.166 32.5 -77.499 32.5s-57.166 -10.833 -77.499 -32.5s-30.5 -49.834 -30.5 -84.501s10.167 -62.834 30.5 -84.501s46.166 -32.5 77.499 -32.5z" />
    <glyph glyph-name="uni043F" unicode="&#x43f;" horiz-adv-x="594" 
d="M60 0v500h474v-500h-151v368h-172v-368h-151z" />
    <glyph glyph-name="uni0440" unicode="&#x440;" horiz-adv-x="596" 
d="M60 500l151.001 0.00195312v-29c30 24.667 66.667 37 110 37c72 0 130.333 -25.333 175 -76s67 -111.334 67 -182.001s-22.333 -131.334 -67 -182.001s-103 -76 -175 -76c-42.667 0 -79.334 12.667 -110.001 38v-214h-151v684zM296.001 130.002
c34.667 0 62.5 11.5 83.5 34.5s31.5 51.5 31.5 85.5s-10.5 62.5 -31.5 85.5s-48.833 34.5 -83.5 34.5c-36.667 0 -65 -13.667 -85 -41v-157c20.667 -28 49 -42 85 -42z" />
    <glyph glyph-name="uni0441" unicode="&#x441;" horiz-adv-x="530" 
d="M292 -8c-72 0 -133.333 25.333 -184 76s-76 111.334 -76 182.001s25.333 131.334 76 182.001s112 76 184 76c45.333 0 87.166 -10.5 125.499 -31.5s69.5 -49.833 93.5 -86.5l-120 -85c-22.667 41.333 -55.667 62 -99 62c-31.333 0 -57.166 -10.833 -77.499 -32.5
s-30.5 -49.834 -30.5 -84.501s10.167 -62.834 30.5 -84.501s46.166 -32.5 77.499 -32.5c43.333 0 76.333 20.667 99 62l120 -85c-24 -36.667 -55.167 -65.5 -93.5 -86.5s-80.166 -31.5 -125.499 -31.5z" />
    <glyph glyph-name="uni0442" unicode="&#x442;" horiz-adv-x="461" 
d="M150 0v368h-130v132h421v-132h-140v-368h-151z" />
    <glyph glyph-name="uni0443" unicode="&#x443;" horiz-adv-x="528" 
d="M117 -184l68 184l-184 500h160l104 -317l104 317h160l-252 -684h-160z" />
    <glyph glyph-name="uni0444" unicode="&#x444;" horiz-adv-x="775" 
d="M463 -184h-151v176h-12c-82.667 0 -147.834 25 -195.501 75s-71.5 111 -71.5 183s23.833 133 71.5 183s112.834 75 195.501 75h12v202h151v-202h12c82.667 0 147.834 -25 195.501 -75s71.5 -111 71.5 -183s-23.833 -133 -71.5 -183s-112.834 -75 -195.501 -75h-12v-176z
M463 130h12c34.667 0 62.5 11.5 83.5 34.5s31.5 51.5 31.5 85.5s-10.5 62.5 -31.5 85.5s-48.833 34.5 -83.5 34.5h-12v-240zM312 130v240h-12c-34.667 0 -62.5 -11.5 -83.5 -34.5s-31.5 -51.5 -31.5 -85.5s10.5 -62.5 31.5 -85.5s48.833 -34.5 83.5 -34.5h12z" />
    <glyph glyph-name="uni0445" unicode="&#x445;" horiz-adv-x="560" 
d="M2 0l180 252l-171 248h175l94 -143l94 143h175l-171 -248l180 -252h-175l-103 150l-103 -150h-175z" />
    <glyph glyph-name="uni0446" unicode="&#x446;" horiz-adv-x="647" 
d="M618 132v-254h-140v122h-418v500h151v-368h172v368h151v-368h84z" />
    <glyph glyph-name="uni0447" unicode="&#x447;" horiz-adv-x="563" 
d="M503 0h-151v173c-12 -6.66699 -30.5 -12.5 -55.5 -17.5s-48.5 -7.5 -70.5 -7.5c-54 0 -99.167 14.5 -135.5 43.5s-54.5 72.5 -54.5 130.5v178h151v-160c0 -40 25.667 -60 77 -60c38 0 67.333 8.33301 88 25v195h151v-500z" />
    <glyph glyph-name="uni0448" unicode="&#x448;" horiz-adv-x="827" 
d="M60 0v500h151v-368h127v368h151v-368h127v368h151v-500h-707z" />
    <glyph glyph-name="uni0449" unicode="&#x449;" horiz-adv-x="880" 
d="M851 132v-254h-140v122h-651v500h151v-368h127v368h151v-368h127v368h151v-368h84z" />
    <glyph glyph-name="uni044A" unicode="&#x44a;" horiz-adv-x="580" 
d="M138 0l0.000976562 368.999h-118v131h269v-141h82c32 0 60.333 -5.66699 85 -17s44 -25.833 58 -43.5s24.333 -36.334 31 -56.001s10 -39.167 10 -58.5s-3.33301 -39.166 -10 -59.499s-16.834 -40.166 -30.501 -59.499s-33 -35 -58 -47s-53.5 -18 -85.5 -18h-233z
M289.001 130.999l63 -0.000976562c19.333 0 34.5 4.83301 45.5 14.5s16.5 22.834 16.5 39.501s-5.5 30 -16.5 40s-26.167 15 -45.5 15h-63v-109z" />
    <glyph glyph-name="uni044B" unicode="&#x44b;" horiz-adv-x="753" 
d="M542 0v500h151v-500h-151zM60 0l0.000976562 499.999h151v-141h82c32 0 60.333 -5.66699 85 -17s44 -25.833 58 -43.5s24.333 -36.334 31 -56.001s10 -39.167 10 -58.5s-3.33301 -39.166 -10 -59.499s-16.834 -40.166 -30.501 -59.499s-33 -35 -58 -47
s-53.5 -18 -85.5 -18h-233zM211.001 130.999l63 -0.000976562c19.333 0 34.5 4.83301 45.5 14.5s16.5 22.834 16.5 39.501s-5.5 30 -16.5 40s-26.167 15 -45.5 15h-63v-109z" />
    <glyph glyph-name="uni044C" unicode="&#x44c;" horiz-adv-x="502" 
d="M60 0l0.000976562 499.999h151v-141h82c32 0 60.333 -5.66699 85 -17s44 -25.833 58 -43.5s24.333 -36.334 31 -56.001s10 -39.167 10 -58.5s-3.33301 -39.166 -10 -59.499s-16.834 -40.166 -30.501 -59.499s-33 -35 -58 -47s-53.5 -18 -85.5 -18h-233zM211.001 130.999
l63 -0.000976562c19.333 0 34.5 4.83301 45.5 14.5s16.5 22.834 16.5 39.501s-5.5 30 -16.5 40s-26.167 15 -45.5 15h-63v-109z" />
    <glyph glyph-name="uni044D" unicode="&#x44d;" horiz-adv-x="533" 
d="M241 -8c-45.333 0 -87.166 10.502 -125.499 31.502s-69.5 49.833 -93.5 86.5l120 85c22.667 -41.333 55.667 -62 99 -62c25.333 0 47 7 65 21s30.667 33.333 38 58h-151v88h147c-18.667 44.667 -51.667 67 -99 67c-43.333 0 -76.333 -20.667 -99 -62l-120 85
c24 36.667 55.167 65.5 93.5 86.5s80.166 31.5 125.499 31.5c72 0 133.333 -25.333 184 -76s76 -111.334 76 -182.001s-25.333 -131.334 -76 -182.001s-112 -76 -184 -76z" />
    <glyph glyph-name="uni044E" unicode="&#x44e;" horiz-adv-x="817" 
d="M211 316l76 0.00390625c14 55.333 43.667 101.166 89 137.499s97.333 54.5 156 54.5c71.333 0 131.333 -25.333 180 -76s73 -111.334 73 -182.001s-24.333 -131.334 -73 -182.001s-108.667 -76 -180 -76c-58.667 0 -110.5 18.167 -155.5 54.5s-74.5 82.166 -88.5 137.499
h-77v-184h-151v500h151v-184zM532 133.004c30.667 0 55.167 10.8311 73.5 32.498s27.5 49.834 27.5 84.501s-9.16699 62.834 -27.5 84.501s-42.833 32.5 -73.5 32.5c-31.333 0 -56 -10.667 -74 -32s-27 -49.333 -27 -84s9 -63 27 -85s42.667 -33 74 -33z" />
    <glyph glyph-name="uni044F" unicode="&#x44f;" horiz-adv-x="539" 
d="M18 0l121 186.999c-59.333 30.667 -89 78 -89 142c0 50.667 16.333 91.834 49 123.501s77.667 47.5 135 47.5h245v-500h-151v151h-52l-97 -151h-161zM243 270.999l85 -0.000976562v109h-86c-34 0 -51 -19.333 -51 -58c0 -15.333 5.16699 -27.666 15.5 -36.999
s22.5 -14 36.5 -14z" />
    <glyph glyph-name="uni0451" unicode="&#x451;" horiz-adv-x="565" 
d="M288 -8c-68.667 0 -128.335 24.167 -179.002 72.5s-76 110.166 -76 185.499c0 74.667 23.833 136.334 71.5 185.001s109.834 73 186.501 73s138.5 -26.5 185.5 -79.5s64.5 -121.5 52.5 -205.5h-351c4 -30.667 16.667 -53.834 38 -69.501s45 -23.5 71 -23.5
c48.667 0 84.334 21 107.001 63l120 -81c-24 -37.333 -55.5 -66.666 -94.5 -87.999s-82.833 -32 -131.5 -32zM281.999 387c-22.667 0 -43.668 -5.83301 -63.001 -17.5s-32.666 -31.167 -39.999 -58.5h204c-4 25.333 -15.333 44.333 -34 57s-41 19 -67 19zM409.998 567
c-22 0 -40.833 7.83301 -56.5 23.5s-23.5 34.5 -23.5 56.5c0 23.333 7.83301 42.5 23.5 57.5s34.5 22.5 56.5 22.5s40.833 -7.5 56.5 -22.5s23.5 -34.167 23.5 -57.5c0 -22 -7.83301 -40.833 -23.5 -56.5s-34.5 -23.5 -56.5 -23.5zM171.998 567
c-22 0 -40.833 7.83301 -56.5 23.5s-23.5 34.5 -23.5 56.5c0 23.333 7.83301 42.5 23.5 57.5s34.5 22.5 56.5 22.5s40.833 -7.5 56.5 -22.5s23.5 -34.167 23.5 -57.5c0 -22 -7.83301 -40.833 -23.5 -56.5s-34.5 -23.5 -56.5 -23.5z" />
    <glyph glyph-name="uni0452" unicode="&#x452;" horiz-adv-x="599" 
d="M322 -184l0.000976562 143h18c35.333 0 53 18 53 54v238c0 35.333 -7.5 63.833 -22.5 85.5s-38.167 32.5 -69.5 32.5c-35.333 0 -65.333 -14.333 -90 -43v-326h-151v579h-91v65h91v66h151v-66h164v-65h-164v-113c34 27.333 78.333 41 133 41
c61.333 0 110.166 -20.833 146.499 -62.5s54.5 -98.167 54.5 -169.5v-272c0 -62.667 -16.667 -109.5 -50 -140.5s-79 -46.5 -137 -46.5h-36z" />
    <glyph glyph-name="uni0453" unicode="&#x453;" horiz-adv-x="426" 
d="M60 500v-500h151v368h196v132h-347zM440 710l-147 -160h-110l84 160h173z" />
    <glyph glyph-name="uni0454" unicode="&#x454;" horiz-adv-x="533" 
d="M292 -8c-72 0 -133.333 25.3311 -184 75.998s-76 111.334 -76 182.001s25.333 131.334 76 182.001s112 76 184 76c45.333 0 87.166 -10.5 125.499 -31.5s69.5 -49.833 93.5 -86.5l-120 -85c-22.667 41.333 -55.667 62 -99 62c-23.333 0 -43.666 -6 -60.999 -18
s-30 -28.333 -38 -49h147v-88h-151c6.66699 -24 19.167 -43.167 37.5 -57.5s40.166 -21.5 65.499 -21.5c43.333 0 76.333 20.667 99 62l120 -85c-24 -36.667 -55.167 -65.5 -93.5 -86.5s-80.166 -31.5 -125.499 -31.5z" />
    <glyph glyph-name="uni0455" unicode="&#x455;" horiz-adv-x="439" 
d="M226 -8c-94 0 -161.001 35.3301 -201.001 105.997l115 78c22.667 -40.667 53.334 -61 92.001 -61c26 0 39 7.66699 39 23c0 8.66699 -3.83301 15.667 -11.5 21s-24.834 13 -51.501 23l-26 10c-88 34.667 -132 88.334 -132 161.001c0 45.333 16.5 82.5 49.5 111.5
s73.833 43.5 122.5 43.5c68.667 0 121.334 -26.333 158.001 -79l-86 -85c-21.333 30 -45.333 45 -72 45c-24 0 -36 -7.66699 -36 -23c0 -9.33301 4 -16.666 12 -21.999s26 -13 54 -23l21 -8c47.333 -18 81.5 -40 102.5 -66s31.5 -58 31.5 -96
c0 -49.333 -17 -88.166 -51 -116.499s-77.333 -42.5 -130 -42.5z" />
    <glyph glyph-name="uni0456" unicode="&#x456;" horiz-adv-x="271" 
d="M60 0v500h151v-500h-151zM206 571h-139.998c-13.333 15.333 -20 34.333 -20 57c0 25.333 8.66699 46.666 26 63.999s38.666 26 63.999 26s46.666 -8.66699 63.999 -26s26 -38.666 26 -63.999c0 -22.667 -6.66699 -41.667 -20 -57z" />
    <glyph glyph-name="uni0457" unicode="&#x457;" horiz-adv-x="271" 
d="M60 0v500h151v-500h-151zM42 567c-22 0 -40.833 7.5 -56.5 22.5s-23.5 34.167 -23.5 57.5c0 22 7.83301 40.833 23.5 56.5s34.5 23.5 56.5 23.5s40.833 -7.83301 56.5 -23.5s23.5 -34.5 23.5 -56.5s-7.83301 -40.833 -23.5 -56.5s-34.5 -23.5 -56.5 -23.5zM230 567
c-22 0 -40.833 7.5 -56.5 22.5s-23.5 34.167 -23.5 57.5c0 22 7.83301 40.833 23.5 56.5s34.5 23.5 56.5 23.5s40.833 -7.83301 56.5 -23.5s23.5 -34.5 23.5 -56.5s-7.83301 -40.833 -23.5 -56.5s-34.5 -23.5 -56.5 -23.5z" />
    <glyph glyph-name="uni0458" unicode="&#x458;" horiz-adv-x="279" 
d="M-36 -184v142.999h25c26 0 45.667 4.33301 59 13s20 24.334 20 47.001v481h151v-500c0 -60 -19.833 -105.667 -59.5 -137s-93.5 -47 -161.5 -47h-34zM213 570.999h-139.998c-13.333 15.333 -20 34.333 -20 57c0 25.333 8.66699 46.666 26 63.999s38.666 26 63.999 26
s46.666 -8.66699 63.999 -26s26 -38.666 26 -63.999c0 -22.667 -6.66699 -41.667 -20 -57z" />
    <glyph glyph-name="uni0459" unicode="&#x459;" horiz-adv-x="739" 
d="M401 0l-121.999 224.999l-128 -225h-163l291 508l85 -149h166c32 0 60.333 -5.66699 85 -17s44 -25.833 58 -43.5s24.333 -36.334 31 -56.001s10 -39.167 10 -58.5s-3.33301 -39.166 -10 -59.499s-16.834 -40.166 -30.501 -59.499s-33 -35 -58 -47s-53.5 -18 -85.5 -18
h-129zM511.001 239.999l-78 -0.000976562l62 -109h16c19.333 0 34.5 4.83301 45.5 14.5s16.5 22.834 16.5 39.501s-5.5 30 -16.5 40s-26.167 15 -45.5 15z" />
    <glyph glyph-name="uni045A" unicode="&#x45a;" horiz-adv-x="783" 
d="M597 0l-224 -0.000976562v184h-162v-184h-151v500h151v-184h162v184h151v-184h73c54.667 0 95.5 -16 122.5 -48s40.5 -67.333 40.5 -106c0 -39.333 -13.667 -76.166 -41 -110.499s-68 -51.5 -122 -51.5zM619 156.999c0 18 -10 27 -30 27h-65v-53h65
c20 0 30 8.66699 30 26z" />
    <glyph glyph-name="uni045B" unicode="&#x45b;" horiz-adv-x="598" 
d="M60 0l0.000976562 579h-91v65h91v66h151v-66h164v-65h-164v-110c31.333 26 69.666 39 114.999 39c69.333 0 123 -20.833 161 -62.5s57 -97.167 57 -166.5v-279h-151v252c0 35.333 -7.5 63.833 -22.5 85.5s-38.167 32.5 -69.5 32.5c-34.667 0 -64.667 -14.333 -90 -43
v-327h-151z" />
    <glyph glyph-name="uni045C" unicode="&#x45c;" horiz-adv-x="548" 
d="M60 500v-500h151v225l169 -225h176l-185 245l156 255h-163l-153 -251v251h-151zM493 710l-147 -160h-110l84 160h173z" />
    <glyph glyph-name="uni045E" unicode="&#x45e;" horiz-adv-x="528" 
d="M117 -184l68 184l-184 500h160l104 -317l104 317h160l-252 -684h-160zM352 710h96.002c0 -54.667 -17.333 -97.667 -52 -129s-78.334 -47 -131.001 -47s-96.334 15.667 -131.001 47s-52 74.333 -52 129h96c0 -60 29 -90 87 -90s87 30 87 90z" />
    <glyph glyph-name="uni045F" unicode="&#x45f;" horiz-adv-x="594" 
d="M534 0h-167v-122h-140v122h-167v500h151v-368h172v368h151v-500z" />
    <glyph glyph-name="uni0462" unicode="&#x462;" horiz-adv-x="732" 
d="M359 428h122.999c70.667 0 124.834 -19.5 162.501 -58.5s56.5 -91.833 56.5 -158.5c0 -56.667 -19.833 -106 -59.5 -148s-92.5 -63 -158.5 -63h-284v535h-180v74h180v121h160v-121h216v-74h-216v-107zM358.999 146l109 0.000976562c24 0 43.167 6.16699 57.5 18.5
s21.5 30.166 21.5 53.499c0 24 -7.16699 42.333 -21.5 55s-33.5 19 -57.5 19h-109v-146z" />
    <glyph glyph-name="uni0463" unicode="&#x463;" horiz-adv-x="544" 
d="M261 478l161 -0.000976562v-65h-161v-96h87c54.667 0 95.5 -16.167 122.5 -48.5s40.5 -67.833 40.5 -106.5c0 -39.333 -13.667 -76.166 -41 -110.499s-68 -51.5 -122 -51.5h-238v413h-95v65h95v232h151v-232zM261 211.999v-97.001h68c16 0 28.333 4.33301 37 13
s13 20.334 13 35.001s-4.33301 26.5 -13 35.5s-21 13.5 -37 13.5h-68z" />
    <glyph glyph-name="uni0472" unicode="&#x472;" horiz-adv-x="800" 
d="M400 -8c-100 0 -185.5 35.5 -256.5 106.5s-106.5 156.5 -106.5 256.5s35.5 185.5 106.5 256.5s156.5 106.5 256.5 106.5s185.5 -35.5 256.5 -106.5s106.5 -156.5 106.5 -256.5s-35.5 -185.5 -106.5 -256.5s-156.5 -106.5 -256.5 -106.5zM400 146
c57.333 0 105.333 20.333 144 61s58 90 58 148s-19.333 107.333 -58 148s-86.667 61 -144 61s-105.333 -20.333 -144 -61s-58 -90 -58 -148s19.333 -107.333 58 -148s86.667 -61 144 -61zM188 382v-85c29.333 30 66.666 45 111.999 45c21.333 0 54.333 -6.66699 99 -20
s82.667 -20 114 -20c42 0 75 7 99 21v87c-19.333 -21.333 -46.666 -32 -81.999 -32c-21.333 0 -55.5 6.66699 -102.5 20s-86.5 20 -118.5 20c-46 0 -86.333 -12 -121 -36z" />
    <glyph glyph-name="uni0473" unicode="&#x473;" horiz-adv-x="584" 
d="M292 -8c-72 0 -133.333 25.333 -184 76s-76 111.334 -76 182.001s25.333 131.334 76 182.001s112 76 184 76s133.333 -25.333 184 -76s76 -111.334 76 -182.001s-25.333 -131.334 -76 -182.001s-112 -76 -184 -76zM292 133c31.333 0 57.166 10.833 77.499 32.5
s30.5 49.834 30.5 84.501s-10.167 62.834 -30.5 84.501s-46.166 32.5 -77.499 32.5s-57.166 -10.833 -77.499 -32.5s-30.5 -49.834 -30.5 -84.501s10.167 -62.834 30.5 -84.501s46.166 -32.5 77.499 -32.5zM105 283v-65h374v65h-374z" />
    <glyph glyph-name="uni0474" unicode="&#x474;" horiz-adv-x="657" 
d="M574 517l-248 -525l-335 718h180l159 -355l104 233c18.667 42 42.5 72.833 71.5 92.5s65.5 29.5 109.5 29.5h24v-158c-18 0 -31.833 -2.66699 -41.5 -8s-17.5 -14.333 -23.5 -27z" />
    <glyph glyph-name="uni0475" unicode="&#x475;" horiz-adv-x="546" 
d="M466 323l-187 -330.999l-291 508h174l119 -219l64 123c16.667 36 39.167 61 67.5 75s66.5 21 114.5 21v-150c-18 0 -31.333 -1.83301 -40 -5.5s-15.667 -10.834 -21 -21.501z" />
    <glyph glyph-name="uni0490" unicode="&#x490;" horiz-adv-x="512" 
d="M76 710h261v148h154v-306h-255v-552h-160v710z" />
    <glyph glyph-name="uni0491" unicode="&#x491;" horiz-adv-x="426" 
d="M60 0v500h207v122h140v-254h-196v-368h-151z" />
    <glyph glyph-name="uni0492" unicode="&#x492;" horiz-adv-x="539" 
d="M516 710v-158h-255v-552h-160v710h415zM13 392h407v-74h-407v74z" />
    <glyph glyph-name="uni0493" unicode="&#x493;" horiz-adv-x="462" 
d="M96 0v500h347v-132h-196v-368h-151zM347 205h-330v65h330v-65z" />
    <glyph glyph-name="uni0496" unicode="&#x496;" horiz-adv-x="1080" 
d="M-14 0l275 351l-243 359h184l242 -355v355h160v-355l243 355h184l-244 -359l276 -351h-198l-261 333v-333h-160v333l-260 -333h-198zM912 -148v148h-12v154h166v-302h-154z" />
    <glyph glyph-name="uni0497" unicode="&#x497;" horiz-adv-x="862" 
d="M-5 0l185 245l-156 255h165l153 -251v251h151v-251l153 251h165l-156 -255l185 -245h-178l-169 225v-225h-151v225l-169 -225h-178zM703 -122v122h-16v132h156v-254h-140z" />
    <glyph glyph-name="uni049A" unicode="&#x49a;" horiz-adv-x="715" 
d="M76 0v710h160v-356l248 356h184l-249 -359l281 -351h-198l-266 333v-333h-160zM547 -148v148h-12v154h166v-302h-154z" />
    <glyph glyph-name="uni049B" unicode="&#x49b;" horiz-adv-x="575" 
d="M60 0v500h151v-251l153 251h163l-156 -255l185 -245h-176l-169 225v-225h-151zM419 -122v122h-16v132h156v-254h-140z" />
    <glyph glyph-name="uni04A2" unicode="&#x4a2;" horiz-adv-x="817" 
d="M76 0v710h160v-278h284v278h160v-710h-160v278h-284v-278h-160zM630 -148v148h-12v154h166v-302h-154z" />
    <glyph glyph-name="uni04A3" unicode="&#x4a3;" horiz-adv-x="657" 
d="M60 0v500h151v-184h182v184h151v-500h-151v184h-182v-184h-151zM489 -122v122h-16v132h156v-254h-140z" />
    <glyph glyph-name="uni04AE" unicode="&#x4ae;" horiz-adv-x="682" 
d="M261 0v298l-263 412h187l156 -252l156 252h187l-263 -412v-298h-160z" />
    <glyph glyph-name="uni04AF" unicode="&#x4af;" horiz-adv-x="574" 
d="M211 -184v183l-215 501h174l117 -310l117 310h174l-216 -503v-181h-151z" />
    <glyph glyph-name="uni04B0" unicode="&#x4b0;" horiz-adv-x="680" 
d="M261 0v298l-263 412h187l156 -252l156 252h187l-263 -412v-298h-160zM564 298v-74h-448v74h448z" />
    <glyph glyph-name="uni04B1" unicode="&#x4b1;" horiz-adv-x="574" 
d="M211 -184v183l-215 501h174l117 -310l117 310h174l-216 -503v-181h-151zM85 -50v65h402v-65h-402z" />
    <glyph glyph-name="uni04B2" unicode="&#x4b2;" horiz-adv-x="723" 
d="M4 0l224 356l-209 354h185l137 -236l137 236h185l-209 -354l224 -356h-186l-151 244l-151 -244h-186zM552 -148v148h-12v154h166v-302h-154z" />
    <glyph glyph-name="uni04B3" unicode="&#x4b3;" horiz-adv-x="588" 
d="M2 0l180 252l-171 248h175l94 -143l94 143h175l-171 -248l180 -252h-175l-103 150l-103 -150h-175zM426 -122v122h-16v132h156v-254h-140z" />
    <glyph glyph-name="uni04B6" unicode="&#x4b6;" horiz-adv-x="749" 
d="M612 0h-159.999v258c-42.667 -13.333 -93.334 -20 -152.001 -20c-71.333 0 -132 21.667 -182 65s-75 98.333 -75 165v242h160v-200c0 -41.333 11.667 -71.333 35 -90s53.333 -28 90 -28c52.667 0 94 6.66699 124 20v298h160v-710zM562.001 -148v148h-12v154h166v-302
h-154z" />
    <glyph glyph-name="uni04B7" unicode="&#x4b7;" horiz-adv-x="616" 
d="M503 0h-151v173c-12 -6.66699 -30.5 -12.5 -55.5 -17.5s-48.5 -7.5 -70.5 -7.5c-54 0 -99.167 14.5 -135.5 43.5s-54.5 72.5 -54.5 130.5v178h151v-160c0 -40 25.667 -60 77 -60c38 0 67.333 8.33301 88 25v195h151v-500zM448 -122v122h-16v132h156v-254h-140z" />
    <glyph glyph-name="uni04BA" unicode="&#x4ba;" horiz-adv-x="688" 
d="M76 710h159.999v-258c42.667 13.333 93.334 20 152.001 20c71.333 0 132 -21.667 182 -65s75 -98.333 75 -165v-242h-160v200c0 41.333 -11.667 71.333 -35 90s-53.333 28 -90 28c-52.667 0 -94 -6.66699 -124 -20v-298h-160v710z" />
    <glyph glyph-name="uni04BB" unicode="&#x4bb;" horiz-adv-x="598" 
d="M60 0l0.000976562 710h151v-241c31.333 26 69.666 39 114.999 39c69.333 0 123 -20.833 161 -62.5s57 -97.167 57 -166.5v-279h-151v252c0 35.333 -7.5 63.833 -22.5 85.5s-38.167 32.5 -69.5 32.5c-34.667 0 -64.667 -14.333 -90 -43v-327h-151z" />
    <glyph glyph-name="uni04C0" unicode="&#x4c0;" horiz-adv-x="312" 
d="M76 0v710h160v-710h-160z" />
    <glyph glyph-name="uni04CF" unicode="&#x4cf;" horiz-adv-x="271" 
d="M60 0v710h151v-710h-151z" />
    <glyph glyph-name="uni04D8" unicode="&#x4d8;" horiz-adv-x="774" 
d="M384 -8c-108.667 0 -194.667 36.501 -258 109.501s-95 171.5 -95 295.5h541c-9.33301 48.667 -32.166 88.667 -68.499 120s-78.833 47 -127.5 47c-38.667 0 -73.334 -8.83301 -104.001 -26.5s-55.334 -41.834 -74.001 -72.501l-121 99
c34.667 48 77.834 85.667 129.501 113s108.167 41 169.5 41c99.333 0 184.333 -35.5 255 -106.5s106 -156.5 106 -256.5c0 -102 -33 -188 -99 -258s-150.667 -105 -254 -105zM384 146.001c82 0 139.666 39 172.999 117h-349c30.667 -78 89.334 -117 176.001 -117z" />
    <glyph glyph-name="uni04D9" unicode="&#x4d9;" horiz-adv-x="565" 
d="M277 508c68.667 0 128.334 -24.166 179.001 -72.499s76 -110.166 76 -185.499c0 -74.667 -23.833 -136.334 -71.5 -185.001s-109.834 -73 -186.501 -73c-77.333 0 -139.166 26.167 -185.499 78.5s-63.833 121.166 -52.5 206.499h351c-4 30.667 -16.667 53.834 -38 69.501
s-45 23.5 -71 23.5c-48.667 0 -84.334 -21 -107.001 -63l-120 81c24 37.333 55.5 66.666 94.5 87.999s82.833 32 131.5 32zM283 113.001c22.667 0 43.668 5.83301 63.001 17.5s32.666 31.167 39.999 58.5h-204c4 -25.333 15.333 -44.333 34 -57s41 -19 67 -19z" />
    <glyph glyph-name="uni04E2" unicode="&#x4e2;" horiz-adv-x="760" 
d="M76 -8v718h160v-371l448 379v-718h-160v371zM257 796v106h330v-106h-330z" />
    <glyph glyph-name="uni04E3" unicode="&#x4e3;" horiz-adv-x="604" 
d="M60 -9v509h151v-235l333 243v-508h-151v233zM164 579v96h330v-96h-330z" />
    <glyph glyph-name="uni04E8" unicode="&#x4e8;" horiz-adv-x="800" 
d="M400 -8c-100 0 -185.5 35.5 -256.5 106.5s-106.5 156.5 -106.5 256.5s35.5 185.5 106.5 256.5s156.5 106.5 256.5 106.5s185.5 -35.5 256.5 -106.5s106.5 -156.5 106.5 -256.5s-35.5 -185.5 -106.5 -256.5s-156.5 -106.5 -256.5 -106.5zM400 146
c57.333 0 105.333 20.333 144 61s58 90 58 148s-19.333 107.333 -58 148s-86.667 61 -144 61s-105.333 -20.333 -144 -61s-58 -90 -58 -148s19.333 -107.333 58 -148s86.667 -61 144 -61zM108 392v-74h584v74h-584z" />
    <glyph glyph-name="uni04E9" unicode="&#x4e9;" horiz-adv-x="584" 
d="M292 -8c-72 0 -133.333 25.333 -184 76s-76 111.334 -76 182.001s25.333 131.334 76 182.001s112 76 184 76s133.333 -25.333 184 -76s76 -111.334 76 -182.001s-25.333 -131.334 -76 -182.001s-112 -76 -184 -76zM292 133c31.333 0 57.166 10.833 77.499 32.5
s30.5 49.834 30.5 84.501s-10.167 62.834 -30.5 84.501s-46.166 32.5 -77.499 32.5s-57.166 -10.833 -77.499 -32.5s-30.5 -49.834 -30.5 -84.501s10.167 -62.834 30.5 -84.501s46.166 -32.5 77.499 -32.5zM105 283v-65h374v65h-374z" />
    <glyph glyph-name="uni04EE" unicode="&#x4ee;" horiz-adv-x="714" 
d="M191 0l88 177l-276 533h187l181 -348l173 348h182l-353 -710h-182zM203 796v106h330v-106h-330z" />
    <glyph glyph-name="uni04EF" unicode="&#x4ef;" horiz-adv-x="528" 
d="M117 -184l68 184l-184 500h160l104 -317l104 317h160l-252 -684h-160zM100 579v96h330v-96h-330z" />
    <glyph glyph-name="Wgrave" unicode="&#x1e80;" horiz-adv-x="860" 
d="M243 -8l-246 718h163l110 -333l160 341l160 -341l110 333h163l-246 -718l-187 410zM376 768l-126 145h166l70 -145h-110z" />
    <glyph glyph-name="wgrave" unicode="&#x1e81;" horiz-adv-x="734" 
d="M161 0l-159 500h159l83 -282l123 290l123 -290l83 282h159l-159 -500h-115l-91 205l-91 -205h-115zM320 550l-147 160h173l84 -160h-110z" />
    <glyph glyph-name="Wacute" unicode="&#x1e82;" horiz-adv-x="860" 
d="M-3 710l246 -718l187 410l187 -410l246 718h-163l-110 -333l-160 341l-160 -341l-110 333h-163zM622 913l-126 -145h-110l70 145h166z" />
    <glyph glyph-name="wacute" unicode="&#x1e83;" horiz-adv-x="734" 
d="M2 500l159 -500h115l91 205l91 -205h115l159 500h-159l-83 -282l-123 290l-123 -290l-83 282h-159zM574 710l-147 -160h-110l84 160h173z" />
    <glyph glyph-name="Wdieresis" unicode="&#x1e84;" horiz-adv-x="860" 
d="M243 -8l-246 718h163l110 -333l160 341l160 -341l110 333h163l-246 -718l-187 410zM549 770c-22 0 -40.833 7.83301 -56.5 23.5s-23.5 34.5 -23.5 56.5c0 23.333 7.83301 42.5 23.5 57.5s34.5 22.5 56.5 22.5s40.833 -7.5 56.5 -22.5s23.5 -34.167 23.5 -57.5
c0 -22 -7.83301 -40.833 -23.5 -56.5s-34.5 -23.5 -56.5 -23.5zM311 770c-22 0 -40.833 7.83301 -56.5 23.5s-23.5 34.5 -23.5 56.5c0 23.333 7.83301 42.5 23.5 57.5s34.5 22.5 56.5 22.5s40.833 -7.5 56.5 -22.5s23.5 -34.167 23.5 -57.5
c0 -22 -7.83301 -40.833 -23.5 -56.5s-34.5 -23.5 -56.5 -23.5z" />
    <glyph glyph-name="wdieresis" unicode="&#x1e85;" horiz-adv-x="734" 
d="M161 0l-159 500h159l83 -282l123 290l123 -290l83 282h159l-159 -500h-115l-91 205l-91 -205h-115zM486 567c-22 0 -40.833 7.83301 -56.5 23.5s-23.5 34.5 -23.5 56.5c0 23.333 7.83301 42.5 23.5 57.5s34.5 22.5 56.5 22.5s40.833 -7.5 56.5 -22.5
s23.5 -34.167 23.5 -57.5c0 -22 -7.83301 -40.833 -23.5 -56.5s-34.5 -23.5 -56.5 -23.5zM248 567c-22 0 -40.833 7.83301 -56.5 23.5s-23.5 34.5 -23.5 56.5c0 23.333 7.83301 42.5 23.5 57.5s34.5 22.5 56.5 22.5s40.833 -7.5 56.5 -22.5s23.5 -34.167 23.5 -57.5
c0 -22 -7.83301 -40.833 -23.5 -56.5s-34.5 -23.5 -56.5 -23.5z" />
    <glyph glyph-name="uni1E9E" unicode="&#x1e9e;" horiz-adv-x="652" 
d="M76 0l-0.000976562 709.999h496l-101 -247c96 -36.667 144 -108.334 144 -215.001c0 -76.667 -24.167 -137.167 -72.5 -181.5s-111.166 -66.5 -188.499 -66.5h-48v152h43c30 0 55 8.33301 75 25s30 40.334 30 71.001s-10 54.334 -30 71.001s-45 25 -75 25h-43v113l44 108
h-115v-565h-159z" />
    <glyph glyph-name="uni1ECA" unicode="&#x1eca;" horiz-adv-x="312" 
d="M76 0v710h160v-710h-160zM156 -206c-22 0 -40.833 7.5 -56.5 22.5s-23.5 34.167 -23.5 57.5c0 22 7.83301 40.833 23.5 56.5s34.5 23.5 56.5 23.5s40.833 -7.83301 56.5 -23.5s23.5 -34.5 23.5 -56.5s-7.83301 -40.833 -23.5 -56.5s-34.5 -23.5 -56.5 -23.5z" />
    <glyph glyph-name="uni1ECB" unicode="&#x1ecb;" horiz-adv-x="271" 
d="M60 0v500h151v-500h-151zM206 571h-139.998c-13.333 15.333 -20 34.333 -20 57c0 25.333 8.66699 46.666 26 63.999s38.666 26 63.999 26s46.666 -8.66699 63.999 -26s26 -38.666 26 -63.999c0 -22.667 -6.66699 -41.667 -20 -57zM135.002 -206
c-22 0 -40.833 7.5 -56.5 22.5s-23.5 34.167 -23.5 57.5c0 22 7.83301 40.833 23.5 56.5s34.5 23.5 56.5 23.5s40.833 -7.83301 56.5 -23.5s23.5 -34.5 23.5 -56.5s-7.83301 -40.833 -23.5 -56.5s-34.5 -23.5 -56.5 -23.5z" />
    <glyph glyph-name="uni1ECC" unicode="&#x1ecc;" horiz-adv-x="800" 
d="M400 -8c-100 0 -185.5 35.5 -256.5 106.5s-106.5 156.5 -106.5 256.5s35.5 185.5 106.5 256.5s156.5 106.5 256.5 106.5s185.5 -35.5 256.5 -106.5s106.5 -156.5 106.5 -256.5s-35.5 -185.5 -106.5 -256.5s-156.5 -106.5 -256.5 -106.5zM400 146
c57.333 0 105.333 20.333 144 61s58 90 58 148s-19.333 107.333 -58 148s-86.667 61 -144 61s-105.333 -20.333 -144 -61s-58 -90 -58 -148s19.333 -107.333 58 -148s86.667 -61 144 -61zM400 -206c-22 0 -40.833 7.5 -56.5 22.5s-23.5 34.167 -23.5 57.5
c0 22 7.83301 40.833 23.5 56.5s34.5 23.5 56.5 23.5s40.833 -7.83301 56.5 -23.5s23.5 -34.5 23.5 -56.5s-7.83301 -40.833 -23.5 -56.5s-34.5 -23.5 -56.5 -23.5z" />
    <glyph glyph-name="uni1ECD" unicode="&#x1ecd;" horiz-adv-x="584" 
d="M292 -8c-72 0 -133.333 25.333 -184 76s-76 111.334 -76 182.001s25.333 131.334 76 182.001s112 76 184 76s133.333 -25.333 184 -76s76 -111.334 76 -182.001s-25.333 -131.334 -76 -182.001s-112 -76 -184 -76zM292 133c31.333 0 57.166 10.833 77.499 32.5
s30.5 49.834 30.5 84.501s-10.167 62.834 -30.5 84.501s-46.166 32.5 -77.499 32.5s-57.166 -10.833 -77.499 -32.5s-30.5 -49.834 -30.5 -84.501s10.167 -62.834 30.5 -84.501s46.166 -32.5 77.499 -32.5zM292 -206c-22 0 -40.833 7.5 -56.5 22.5s-23.5 34.167 -23.5 57.5
c0 22 7.83301 40.833 23.5 56.5s34.5 23.5 56.5 23.5s40.833 -7.83301 56.5 -23.5s23.5 -34.5 23.5 -56.5s-7.83301 -40.833 -23.5 -56.5s-34.5 -23.5 -56.5 -23.5z" />
    <glyph glyph-name="uni1EE4" unicode="&#x1ee4;" horiz-adv-x="718" 
d="M359 -8c-86 0 -156 27.167 -210 81.5s-81 125.833 -81 214.5v422h160v-424c0 -43.333 11.833 -77.5 35.5 -102.5s55.5 -37.5 95.5 -37.5s71.833 12.5 95.5 37.5s35.5 59.167 35.5 102.5v424h160v-423c0 -88.667 -27 -160 -81 -214s-124 -81 -210 -81zM359 -206
c-22 0 -40.833 7.5 -56.5 22.5s-23.5 34.167 -23.5 57.5c0 22 7.83301 40.833 23.5 56.5s34.5 23.5 56.5 23.5s40.833 -7.83301 56.5 -23.5s23.5 -34.5 23.5 -56.5s-7.83301 -40.833 -23.5 -56.5s-34.5 -23.5 -56.5 -23.5z" />
    <glyph glyph-name="uni1EE5" unicode="&#x1ee5;" horiz-adv-x="598" 
d="M387 0v37c-32 -30 -71.667 -45 -119 -45c-66.667 0 -119 20.833 -157 62.5s-57 97.167 -57 166.5v279h151v-252c0 -35.333 7.5 -63.833 22.5 -85.5s36.833 -32.5 65.5 -32.5c42 0 73.333 16.667 94 50v320h151v-500h-151zM293 -206c-22 0 -40.833 7.5 -56.5 22.5
s-23.5 34.167 -23.5 57.5c0 22 7.83301 40.833 23.5 56.5s34.5 23.5 56.5 23.5s40.833 -7.83301 56.5 -23.5s23.5 -34.5 23.5 -56.5s-7.83301 -40.833 -23.5 -56.5s-34.5 -23.5 -56.5 -23.5z" />
    <glyph glyph-name="Ygrave" unicode="&#x1ef2;" horiz-adv-x="682" 
d="M261 0v298l-263 412h187l156 -252l156 252h187l-263 -412v-298h-160zM287 768l-126 145h166l70 -145h-110z" />
    <glyph glyph-name="ygrave" unicode="&#x1ef3;" horiz-adv-x="528" 
d="M117 -184l68 184l-184 500h160l104 -317l104 317h160l-252 -684h-160zM218 550l-147 160h173l84 -160h-110z" />
    <glyph glyph-name="uni2007" unicode="&#x2007;" horiz-adv-x="810" 
 />
    <glyph glyph-name="uni2008" unicode="&#x2008;" horiz-adv-x="290" 
 />
    <glyph glyph-name="uni2009" unicode="&#x2009;" horiz-adv-x="43" 
 />
    <glyph glyph-name="uni200B" unicode="&#x200b;" 
 />
    <glyph glyph-name="endash" unicode="&#x2013;" horiz-adv-x="596" 
d="M56 210v144h484v-144h-484z" />
    <glyph glyph-name="emdash" unicode="&#x2014;" horiz-adv-x="889" 
d="M56 210v144h777v-144h-777z" />
    <glyph glyph-name="quoteleft" unicode="&#x2018;" horiz-adv-x="274" 
d="M201 710l-44 -154h67v-174h-174v174l64 154h87z" />
    <glyph glyph-name="quoteright" unicode="&#x2019;" horiz-adv-x="264" 
d="M71 382l44 154h-67v174h174v-174l-64 -154h-87z" />
    <glyph glyph-name="quotesinglbase" unicode="&#x201a;" horiz-adv-x="288" 
d="M80 -154l44 154h-67v174h174v-174l-64 -154h-87z" />
    <glyph glyph-name="quotedblleft" unicode="&#x201c;" horiz-adv-x="498" 
d="M201 710l-44 -154h67v-174h-174v174l64 154h87zM425 710l-44 -154h67v-174h-174v174l64 154h87z" />
    <glyph glyph-name="quotedblright" unicode="&#x201d;" horiz-adv-x="488" 
d="M71 382l44 154h-67v174h174v-174l-64 -154h-87zM295 382l44 154h-67v174h174v-174l-64 -154h-87z" />
    <glyph glyph-name="quotedblbase" unicode="&#x201e;" horiz-adv-x="512" 
d="M80 -154l44 154h-67v174h174v-174l-64 -154h-87zM304 -154l44 154h-67v174h174v-174l-64 -154h-87z" />
    <glyph glyph-name="dagger" unicode="&#x2020;" horiz-adv-x="519" 
d="M196 -98v490h-170v108h170v210h127v-210h170v-108h-170v-490h-127z" />
    <glyph glyph-name="daggerdbl" unicode="&#x2021;" horiz-adv-x="543" 
d="M208 -98v210h-170v108h170v172h-170v108h170v210h127v-210h170v-108h-170v-172h170v-108h-170v-210h-127z" />
    <glyph glyph-name="bullet" unicode="&#x2022;" horiz-adv-x="396" 
d="M198 166c-38 0 -70.167 13.167 -96.5 39.5s-39.5 58.5 -39.5 96.5s13.167 70.167 39.5 96.5s58.5 39.5 96.5 39.5s70.167 -13.167 96.5 -39.5s39.5 -58.5 39.5 -96.5s-13.167 -70.167 -39.5 -96.5s-58.5 -39.5 -96.5 -39.5z" />
    <glyph glyph-name="ellipsis" unicode="&#x2026;" horiz-adv-x="870" 
d="M145 -8c-30 0 -55.5 10.5 -76.5 31.5s-31.5 46.5 -31.5 76.5c0 30.667 10.5 56.334 31.5 77.001s46.5 31 76.5 31s55.5 -10.333 76.5 -31s31.5 -46.334 31.5 -77.001c0 -30 -10.5 -55.5 -31.5 -76.5s-46.5 -31.5 -76.5 -31.5zM435 -8c-30 0 -55.5 10.5 -76.5 31.5
s-31.5 46.5 -31.5 76.5c0 30.667 10.5 56.334 31.5 77.001s46.5 31 76.5 31s55.5 -10.333 76.5 -31s31.5 -46.334 31.5 -77.001c0 -30 -10.5 -55.5 -31.5 -76.5s-46.5 -31.5 -76.5 -31.5zM725 -8c-30 0 -55.5 10.5 -76.5 31.5s-31.5 46.5 -31.5 76.5
c0 30.667 10.5 56.334 31.5 77.001s46.5 31 76.5 31s55.5 -10.333 76.5 -31s31.5 -46.334 31.5 -77.001c0 -30 -10.5 -55.5 -31.5 -76.5s-46.5 -31.5 -76.5 -31.5z" />
    <glyph glyph-name="perthousand" unicode="&#x2030;" horiz-adv-x="676" 
d="M200 445c-37.333 0 -69 13 -95 39s-39 57.667 -39 95s13 69.166 39 95.499s57.667 39.5 95 39.5s69.166 -13.167 95.499 -39.5s39.5 -58.166 39.5 -95.499s-13.167 -69 -39.5 -95s-58.166 -39 -95.499 -39zM200 536c12 0 22.167 4.16699 30.5 12.5s12.5 18.5 12.5 30.5
s-4.16699 22.167 -12.5 30.5s-18.5 12.5 -30.5 12.5s-22.167 -4.16699 -30.5 -12.5s-12.5 -18.5 -12.5 -30.5s4.16699 -22.167 12.5 -30.5s18.5 -12.5 30.5 -12.5zM46 298v114h598v-114h-598zM200 -4c-37.333 0 -69 13 -95 39s-39 57.667 -39 95s13 69.166 39 95.499
s57.667 39.5 95 39.5s69.166 -13.167 95.499 -39.5s39.5 -58.166 39.5 -95.499s-13.167 -69 -39.5 -95s-58.166 -39 -95.499 -39zM489 -4c-37.333 0 -69 13 -95 39s-39 57.667 -39 95s13 69.166 39 95.499s57.667 39.5 95 39.5s69.166 -13.167 95.499 -39.5
s39.5 -58.166 39.5 -95.499s-13.167 -69 -39.5 -95s-58.166 -39 -95.499 -39zM200 87c12 0 22.167 4.16699 30.5 12.5s12.5 18.5 12.5 30.5s-4.16699 22.167 -12.5 30.5s-18.5 12.5 -30.5 12.5s-22.167 -4.16699 -30.5 -12.5s-12.5 -18.5 -12.5 -30.5
s4.16699 -22.167 12.5 -30.5s18.5 -12.5 30.5 -12.5zM489 87c12 0 22.167 4.16699 30.5 12.5s12.5 18.5 12.5 30.5s-4.16699 22.167 -12.5 30.5s-18.5 12.5 -30.5 12.5s-22.167 -4.16699 -30.5 -12.5s-12.5 -18.5 -12.5 -30.5s4.16699 -22.167 12.5 -30.5
s18.5 -12.5 30.5 -12.5z" />
    <glyph glyph-name="guilsinglleft" unicode="&#x2039;" horiz-adv-x="327" 
d="M190 9l-164 241l164 241l100 -68l-118 -173l118 -173z" />
    <glyph glyph-name="guilsinglright" unicode="&#x203a;" horiz-adv-x="327" 
d="M137 9l-100 68l118 173l-118 173l100 68l164 -241z" />
    <glyph glyph-name="fraction" unicode="&#x2044;" horiz-adv-x="180" 
d="M-224 0l500 710h130l-500 -710h-130z" />
    <glyph glyph-name="uni2060" unicode="&#x2060;" 
 />
    <glyph glyph-name="uni2070" unicode="&#x2070;" horiz-adv-x="492" 
d="M246 404c-60 0 -111.5 21.167 -154.5 63.5s-64.5 93.5 -64.5 153.5s21.5 111.167 64.5 153.5s94.5 63.5 154.5 63.5s111.5 -21.167 154.5 -63.5s64.5 -93.5 64.5 -153.5s-21.5 -111.167 -64.5 -153.5s-94.5 -63.5 -154.5 -63.5zM246 497c34 0 62.333 12 85 36
s34 53.333 34 88s-11.333 64 -34 88s-51 36 -85 36s-62.5 -12 -85.5 -36s-34.5 -53.333 -34.5 -88s11.5 -64 34.5 -88s51.5 -36 85.5 -36z" />
    <glyph glyph-name="uni2074" unicode="&#x2074;" horiz-adv-x="391" 
d="M221 410v91h-221l321 338v-252h43v-86h-43v-91h-100zM182 587h39v41z" />
    <glyph glyph-name="uni2075" unicode="&#x2075;" horiz-adv-x="329" 
d="M163 404c-27.333 0 -52.8301 5.5 -76.4971 16.5s-41.834 25.5 -54.501 43.5l68 65c14.667 -21.333 34 -32 58 -32c15.333 0 27.5 4.83301 36.5 14.5s13.5 21.5 13.5 35.5c0 13.333 -4.83301 24.833 -14.5 34.5s-21.834 14.5 -36.501 14.5
c-24.667 0 -41.334 -12 -50.001 -36l-66 27v246h235v-92h-135v-53c5.33301 0.666992 12.333 1 21 1c44 0 78.833 -12.667 104.5 -38s38.5 -60 38.5 -104c0 -42.667 -12.833 -77.167 -38.5 -103.5s-60.167 -39.5 -103.5 -39.5z" />
    <glyph glyph-name="uni2076" unicode="&#x2076;" horiz-adv-x="339" 
d="M170 404c-42.667 0 -78.168 13.666 -106.501 40.999s-42.5 61.333 -42.5 102c0 20.667 9 48.334 27 83.001l107 203h111l-74 -140c36.667 -4 67.167 -19.167 91.5 -45.5s36.5 -59.833 36.5 -100.5s-14.167 -74.667 -42.5 -102s-64.166 -41 -107.499 -41zM170.999 496.999
c14 0 26.167 5 36.5 15s15.5 22.333 15.5 37s-5.16699 27 -15.5 37s-22.5 15 -36.5 15c-14.667 0 -27 -5 -37 -15s-15 -22.333 -15 -37s5 -27 15 -37s22.333 -15 37 -15z" />
    <glyph glyph-name="uni2077" unicode="&#x2077;" horiz-adv-x="320" 
d="M24 410l149 331h-148v92h298l-190 -423h-109z" />
    <glyph glyph-name="uni2078" unicode="&#x2078;" horiz-adv-x="354" 
d="M177 404c-43.333 0 -79.332 13.833 -107.999 41.5s-43 61.5 -43 101.5c0 44.667 18.333 80.334 55 107.001c-15.333 17.333 -23 39 -23 65c0 33.333 11.333 61.5 34 84.5s51 34.5 85 34.5c33.333 0 61.666 -11.5 84.999 -34.5s35 -51.167 35 -84.5
c0 -25.333 -8 -47 -24 -65c36.667 -26.667 55 -62.334 55 -107.001c0 -40 -14.333 -73.833 -43 -101.5s-64.667 -41.5 -108 -41.5zM178.001 691c8 0 14.667 2.83301 20 8.5s8 12.5 8 20.5c0 7.33301 -2.66699 13.833 -8 19.5s-12 8.5 -20 8.5s-14.833 -2.83301 -20.5 -8.5
s-8.5 -12.167 -8.5 -19.5c0 -8 2.83301 -14.833 8.5 -20.5s12.5 -8.5 20.5 -8.5zM177.001 495c14.667 0 27.334 5.33301 38.001 16s16 23 16 37c0 15.333 -5.33301 28.333 -16 39s-23.334 16 -38.001 16c-15.333 0 -28.166 -5.33301 -38.499 -16s-15.5 -23.667 -15.5 -39
c0 -14 5.16699 -26.333 15.5 -37s23.166 -16 38.499 -16z" />
    <glyph glyph-name="uni2079" unicode="&#x2079;" horiz-adv-x="340" 
d="M169 839c42.667 0 78.168 -13.666 106.501 -40.999s42.5 -61.333 42.5 -102c0 -20.667 -9 -48.334 -27 -83.001l-107 -203h-111l74 140c-36.667 4 -67.167 19.167 -91.5 45.5s-36.5 59.833 -36.5 100.5s14.167 74.667 42.5 102s64.166 41 107.499 41zM168.001 746.001
c-14 0 -26.167 -5 -36.5 -15s-15.5 -22.333 -15.5 -37s5.16699 -27 15.5 -37s22.5 -15 36.5 -15c14.667 0 27 5 37 15s15 22.333 15 37s-5 27 -15 37s-22.333 15 -37 15z" />
    <glyph glyph-name="uni2080" unicode="&#x2080;" horiz-adv-x="492" 
d="M246 -121c-60 0 -111.5 21.167 -154.5 63.5s-64.5 93.5 -64.5 153.5s21.5 111.167 64.5 153.5s94.5 63.5 154.5 63.5s111.5 -21.167 154.5 -63.5s64.5 -93.5 64.5 -153.5s-21.5 -111.167 -64.5 -153.5s-94.5 -63.5 -154.5 -63.5zM246 -28c34 0 62.333 12 85 36
s34 53.333 34 88s-11.333 64 -34 88s-51 36 -85 36s-62.5 -12 -85.5 -36s-34.5 -53.333 -34.5 -88s11.5 -64 34.5 -88s51.5 -36 85.5 -36z" />
    <glyph glyph-name="uni2081" unicode="&#x2081;" horiz-adv-x="187" 
d="M40 -115v330l100 99v-429h-100z" />
    <glyph glyph-name="uni2082" unicode="&#x2082;" horiz-adv-x="360" 
d="M5 -115l124.001 159c-26 10 -47.5 27 -64.5 51s-25.5 50.667 -25.5 80c0 39.333 14.167 72.333 42.5 99s62.166 40 101.499 40s73 -13.333 101 -40s42 -59.667 42 -99c0 -30 -11.667 -60 -35 -90l-85 -107h120v-93h-321zM182.001 129c13.333 0 24.5 4.5 33.5 13.5
s13.5 19.833 13.5 32.5c0 13.333 -4.5 24.5 -13.5 33.5s-20.167 13.5 -33.5 13.5s-24.333 -4.5 -33 -13.5s-13 -20.167 -13 -33.5c0 -12.667 4.33301 -23.5 13 -32.5s19.667 -13.5 33 -13.5z" />
    <glyph glyph-name="uni2083" unicode="&#x2083;" horiz-adv-x="331" 
d="M149 -121c-58 0 -101.667 20.001 -131 60.001l68 65c14.667 -21.333 34.334 -32 59.001 -32c17.333 0 31.166 5.5 41.499 16.5s15.5 24.833 15.5 41.5c0 17.333 -5.66699 31.166 -17 41.499s-26 15.5 -44 15.5h-44l57 129h-118v92h263l-66 -147
c44 -27.333 66 -71 66 -131c0 -46.667 -13.5 -83.5 -40.5 -110.5s-63.5 -40.5 -109.5 -40.5z" />
    <glyph glyph-name="uni2084" unicode="&#x2084;" horiz-adv-x="391" 
d="M221 -115v91h-221l321 338v-252h43v-86h-43v-91h-100zM182 62h39v41z" />
    <glyph glyph-name="uni2085" unicode="&#x2085;" horiz-adv-x="329" 
d="M162 -121c-27.333 0 -52.8301 5.5 -76.4971 16.5s-41.834 25.5 -54.501 43.5l68 65c14.667 -21.333 34 -32 58 -32c15.333 0 27.5 4.83301 36.5 14.5s13.5 21.5 13.5 35.5c0 13.333 -4.83301 24.833 -14.5 34.5s-21.834 14.5 -36.501 14.5
c-24.667 0 -41.334 -12 -50.001 -36l-66 27v246h235v-92h-135v-53c5.33301 0.666992 12.333 1 21 1c44 0 78.833 -12.667 104.5 -38s38.5 -60 38.5 -104c0 -42.667 -12.833 -77.167 -38.5 -103.5s-60.167 -39.5 -103.5 -39.5z" />
    <glyph glyph-name="uni2086" unicode="&#x2086;" horiz-adv-x="339" 
d="M170 -121c-42.667 0 -78.168 13.666 -106.501 40.999s-42.5 61.333 -42.5 102c0 20.667 9 48.334 27 83.001l107 203h111l-74 -140c36.667 -4 67.167 -19.167 91.5 -45.5s36.5 -59.833 36.5 -100.5s-14.167 -74.667 -42.5 -102s-64.166 -41 -107.499 -41z
M170.999 -28.001c14 0 26.167 5 36.5 15s15.5 22.333 15.5 37s-5.16699 27 -15.5 37s-22.5 15 -36.5 15c-14.667 0 -27 -5 -37 -15s-15 -22.333 -15 -37s5 -27 15 -37s22.333 -15 37 -15z" />
    <glyph glyph-name="uni2087" unicode="&#x2087;" horiz-adv-x="320" 
d="M24 -115l149 331h-148v92h298l-190 -423h-109z" />
    <glyph glyph-name="uni2088" unicode="&#x2088;" horiz-adv-x="354" 
d="M177 -121c-43.333 0 -79.332 13.833 -107.999 41.5s-43 61.5 -43 101.5c0 44.667 18.333 80.334 55 107.001c-15.333 17.333 -23 39 -23 65c0 33.333 11.333 61.5 34 84.5s51 34.5 85 34.5c33.333 0 61.666 -11.5 84.999 -34.5s35 -51.167 35 -84.5
c0 -25.333 -8 -47 -24 -65c36.667 -26.667 55 -62.334 55 -107.001c0 -40 -14.333 -73.833 -43 -101.5s-64.667 -41.5 -108 -41.5zM178.001 166c8 0 14.667 2.83301 20 8.5s8 12.5 8 20.5c0 7.33301 -2.66699 13.833 -8 19.5s-12 8.5 -20 8.5s-14.833 -2.83301 -20.5 -8.5
s-8.5 -12.167 -8.5 -19.5c0 -8 2.83301 -14.833 8.5 -20.5s12.5 -8.5 20.5 -8.5zM177.001 -30c14.667 0 27.334 5.33301 38.001 16s16 23 16 37c0 15.333 -5.33301 28.333 -16 39s-23.334 16 -38.001 16c-15.333 0 -28.166 -5.33301 -38.499 -16s-15.5 -23.667 -15.5 -39
c0 -14 5.16699 -26.333 15.5 -37s23.166 -16 38.499 -16z" />
    <glyph glyph-name="uni2089" unicode="&#x2089;" horiz-adv-x="340" 
d="M169 314c42.667 0 78.168 -13.666 106.501 -40.999s42.5 -61.333 42.5 -102c0 -20.667 -9 -48.334 -27 -83.001l-107 -203h-111l74 140c-36.667 4 -67.167 19.167 -91.5 45.5s-36.5 59.833 -36.5 100.5s14.167 74.667 42.5 102s64.166 41 107.499 41zM168.001 221.001
c-14 0 -26.167 -5 -36.5 -15s-15.5 -22.333 -15.5 -37s5.16699 -27 15.5 -37s22.5 -15 36.5 -15c14.667 0 27 5 37 15s15 22.333 15 37s-5 27 -15 37s-22.333 15 -37 15z" />
    <glyph glyph-name="Euro" unicode="&#x20ac;" horiz-adv-x="755" 
d="M29 243l26.001 74h91c-1.33301 16 -2 28.667 -2 38c0 11.333 0.333008 19.666 1 24.999h-116l26 74h103c22 76.667 65.167 139.834 129.5 189.501s137.5 74.5 219.5 74.5s155.333 -25 220 -75l-48 -142c-19.333 22 -44.333 40.167 -75 54.5s-62.667 21.5 -96 21.5
c-42 0 -80 -10.833 -114 -32.5s-59.667 -51.834 -77 -90.501h346l-26 -74h-339c-0.666992 -5.33301 -1 -13.666 -1 -24.999c0 -13.333 1 -26 3 -38h318l-26 -74h-269c18 -34.667 43.167 -61.667 75.5 -81s68.5 -29 108.5 -29c62 0 116.667 20 164 60v-162
c-50.667 -26 -105.334 -39 -164.001 -39c-79.333 0 -150.5 23.5 -213.5 70.5s-106.833 107.167 -131.5 180.5h-133z" />
    <glyph glyph-name="uni20B4" unicode="&#x20b4;" horiz-adv-x="617" 
d="M39 393l0.000976562 74h307c10 12 15 29.333 15 52c0 15.333 -5.5 27.333 -16.5 36s-23.833 13 -38.5 13c-38.667 0 -72.334 -17.667 -101.001 -53l-108 114c50 59.333 119.667 89 209 89c60 0 112.333 -17.667 157 -53s67 -82.666 67 -141.999
c0 -16.667 -4.66699 -35.334 -14 -56.001h57v-74h-534zM39.001 268v74h534v-74h-301c-18 -16 -27 -37 -27 -63c0 -42 22.667 -63 68 -63c53.333 0 97 27 131 81l121 -92c-24 -45.333 -59.5 -79.833 -106.5 -103.5s-99.833 -35.5 -158.5 -35.5
c-66 0 -118.5 17.167 -157.5 51.5s-58.5 80.833 -58.5 139.5c0 34 6 62.333 18 85h-63z" />
    <glyph glyph-name="uni20B8" unicode="&#x20b8;" horiz-adv-x="559" 
d="M29 636v74h501v-74h-501zM199 0v511h-170v74h501v-74h-171v-511h-160z" />
    <glyph glyph-name="uni20BD" unicode="&#x20bd;" horiz-adv-x="612" 
d="M48 113l-0.000976562 74.001h80v51h-80v149h80v323h211c70.667 0 128.834 -21.833 174.501 -65.5s68.5 -101.834 68.5 -174.501c0 -68 -23 -123.667 -69 -167s-104 -65 -174 -65h-51v-51h136v-74h-136v-113h-160v113h-80zM287.999 387.001h48.998
c26.667 0 48.334 7.16699 65.001 21.5s25 34.5 25 60.5c0 30.667 -8.16699 53.5 -24.5 68.5s-38.166 22.5 -65.499 22.5h-49v-173z" />
    <glyph glyph-name="uni2116" unicode="&#x2116;" horiz-adv-x="1104" 
d="M911 405c-42.667 0 -79.334 15.333 -110.001 46s-46 67 -46 109s15.333 78.333 46 109s67.334 46 110.001 46s79.334 -15.333 110.001 -46s46 -67 46 -109s-15.333 -78.333 -46 -109s-67.334 -46 -110.001 -46zM911 497c16.667 0 30.334 5.66699 41.001 17
s16 26.666 16 45.999s-5.33301 34.666 -16 45.999s-24.334 17 -41.001 17s-30.334 -5.66699 -41.001 -17s-16 -26.666 -16 -45.999s5.33301 -34.666 16 -45.999s24.334 -17 41.001 -17zM765 209v130h292v-130h-292zM684 -8l-448 379v-371h-160v718l448 -379v371h160v-718z
" />
    <glyph glyph-name="uni2117" unicode="&#x2117;" horiz-adv-x="800" 
d="M400 -8c-100 0 -185.5 35.5 -256.5 106.5s-106.5 156.5 -106.5 256.5s35.5 185.5 106.5 256.5s156.5 106.5 256.5 106.5s185.5 -35.5 256.5 -106.5s106.5 -156.5 106.5 -256.5s-35.5 -185.5 -106.5 -256.5s-156.5 -106.5 -256.5 -106.5zM400 73c78 0 143.333 27 196 81
s79 121.333 79 202c0 79.333 -26.333 146 -79 200s-118 81 -196 81s-143.333 -27 -196 -81s-79 -120.667 -79 -200c0 -80.667 26.333 -148 79 -202s118 -81 196 -81zM305 187v336h116c31.333 0 58.166 -11.667 80.499 -35s33.5 -51 33.5 -83s-11.167 -59.667 -33.5 -83
s-49.166 -35 -80.499 -35h-30v-100h-86zM391 368h29c21.333 0 32 12.333 32 37s-10.667 37 -32 37h-29v-74z" />
    <glyph glyph-name="trademark" unicode="&#x2122;" horiz-adv-x="767" 
d="M344 355v369l178 -190l178 190v-369h-92v143l-86 -89l-86 89v-143h-92zM114 355v265h-82v90h256v-90h-82v-265h-92z" />
    <glyph glyph-name="uni2150" unicode="&#x2150;" horiz-adv-x="792" 
d="M40 287v330l100 99v-429h-100zM25 0l500 710h130l-500 -710h-130zM496 0l149 332h-148v92h298l-190 -424h-109z" />
    <glyph glyph-name="uni2151" unicode="&#x2151;" horiz-adv-x="769" 
d="M40 287v330l100 99v-429h-100zM25 0l500 710h130l-500 -710h-130zM599 429c42.667 0 78.168 -13.666 106.501 -40.999s42.5 -61.333 42.5 -102c0 -20.667 -9 -48.334 -27 -83.001l-107 -203h-111l74 140c-36.667 4 -67.167 19.167 -91.5 45.5s-36.5 59.833 -36.5 100.5
s14.167 74.667 42.5 102s64.166 41 107.499 41zM598.001 336.001c-14 0 -26.167 -5 -36.5 -15s-15.5 -22.333 -15.5 -37s5.16699 -27 15.5 -37s22.5 -15 36.5 -15c14.667 0 27 5 37 15s15 22.333 15 37s-5 27 -15 37s-22.333 15 -37 15z" />
    <glyph glyph-name="uni2152" unicode="&#x2152;" horiz-adv-x="1108" 
d="M40 287v330l100 99v-429h-100zM25 0l500 710h130l-500 -710h-130zM469 0v330l100 99v-429h-100zM862 -6c-60 0 -111.5 21.167 -154.5 63.5s-64.5 93.5 -64.5 153.5s21.5 111.167 64.5 153.5s94.5 63.5 154.5 63.5s111.5 -21.167 154.5 -63.5s64.5 -93.5 64.5 -153.5
s-21.5 -111.167 -64.5 -153.5s-94.5 -63.5 -154.5 -63.5zM862 87c34 0 62.333 12 85 36s34 53.333 34 88s-11.333 64 -34 88s-51 36 -85 36s-62.5 -12 -85.5 -36s-34.5 -53.333 -34.5 -88s11.5 -64 34.5 -88s51.5 -36 85.5 -36z" />
    <glyph glyph-name="onethird" unicode="&#x2153;" horiz-adv-x="791" 
d="M40 287v330l100 99v-429h-100zM25 0l500 710h130l-500 -710h-130zM609 -6c-58 0 -101.667 20.001 -131 60.001l68 65c14.667 -21.333 34.334 -32 59.001 -32c17.333 0 31.166 5.5 41.499 16.5s15.5 24.833 15.5 41.5c0 17.333 -5.66699 31.166 -17 41.499
s-26 15.5 -44 15.5h-44l57 129h-118v92h263l-66 -147c44 -27.333 66 -71 66 -131c0 -46.667 -13.5 -83.5 -40.5 -110.5s-63.5 -40.5 -109.5 -40.5z" />
    <glyph glyph-name="twothirds" unicode="&#x2154;" horiz-adv-x="918" 
d="M5 287l124.001 159c-26 10 -47.5 27 -64.5 51s-25.5 50.667 -25.5 80c0 39.333 14.167 72.333 42.5 99s62.166 40 101.499 40s73 -13.333 101 -40s42 -59.667 42 -99c0 -30 -11.667 -60 -35 -90l-85 -107h120v-93h-321zM182.001 531c13.333 0 24.5 4.5 33.5 13.5
s13.5 19.833 13.5 32.5c0 13.333 -4.5 24.5 -13.5 33.5s-20.167 13.5 -33.5 13.5s-24.333 -4.5 -33 -13.5s-13 -20.167 -13 -33.5c0 -12.667 4.33301 -23.5 13 -32.5s19.667 -13.5 33 -13.5zM152.001 0l500 710h130l-500 -710h-130zM736.001 -6
c-58 0 -101.667 20.001 -131 60.001l68 65c14.667 -21.333 34.334 -32 59.001 -32c17.333 0 31.166 5.5 41.499 16.5s15.5 24.833 15.5 41.5c0 17.333 -5.66699 31.166 -17 41.499s-26 15.5 -44 15.5h-44l57 129h-118v92h263l-66 -147c44 -27.333 66 -71 66 -131
c0 -46.667 -13.5 -83.5 -40.5 -110.5s-63.5 -40.5 -109.5 -40.5z" />
    <glyph glyph-name="uni2155" unicode="&#x2155;" horiz-adv-x="785" 
d="M40 287v330l100 99v-429h-100zM25 0l500 710h130l-500 -710h-130zM618 -6c-27.333 0 -52.8301 5.5 -76.4971 16.5s-41.834 25.5 -54.501 43.5l68 65c14.667 -21.333 34 -32 58 -32c15.333 0 27.5 4.83301 36.5 14.5s13.5 21.5 13.5 35.5
c0 13.333 -4.83301 24.833 -14.5 34.5s-21.834 14.5 -36.501 14.5c-24.667 0 -41.334 -12 -50.001 -36l-66 27v246h235v-92h-135v-53c5.33301 0.666992 12.333 1 21 1c44 0 78.833 -12.667 104.5 -38s38.5 -60 38.5 -104c0 -42.667 -12.833 -77.167 -38.5 -103.5
s-60.167 -39.5 -103.5 -39.5z" />
    <glyph glyph-name="uni2156" unicode="&#x2156;" horiz-adv-x="912" 
d="M5 287l124.001 159c-26 10 -47.5 27 -64.5 51s-25.5 50.667 -25.5 80c0 39.333 14.167 72.333 42.5 99s62.166 40 101.499 40s73 -13.333 101 -40s42 -59.667 42 -99c0 -30 -11.667 -60 -35 -90l-85 -107h120v-93h-321zM182.001 531c13.333 0 24.5 4.5 33.5 13.5
s13.5 19.833 13.5 32.5c0 13.333 -4.5 24.5 -13.5 33.5s-20.167 13.5 -33.5 13.5s-24.333 -4.5 -33 -13.5s-13 -20.167 -13 -33.5c0 -12.667 4.33301 -23.5 13 -32.5s19.667 -13.5 33 -13.5zM152.001 0l500 710h130l-500 -710h-130zM745.001 -6
c-27.333 0 -52.8301 5.5 -76.4971 16.5s-41.834 25.5 -54.501 43.5l68 65c14.667 -21.333 34 -32 58 -32c15.333 0 27.5 4.83301 36.5 14.5s13.5 21.5 13.5 35.5c0 13.333 -4.83301 24.833 -14.5 34.5s-21.834 14.5 -36.501 14.5c-24.667 0 -41.334 -12 -50.001 -36l-66 27
v246h235v-92h-135v-53c5.33301 0.666992 12.333 1 21 1c44 0 78.833 -12.667 104.5 -38s38.5 -60 38.5 -104c0 -42.667 -12.833 -77.167 -38.5 -103.5s-60.167 -39.5 -103.5 -39.5z" />
    <glyph glyph-name="uni2157" unicode="&#x2157;" horiz-adv-x="867" 
d="M149 281c-58 0 -101.667 20.001 -131 60.001l68 65c14.667 -21.333 34.334 -32 59.001 -32c17.333 0 31.166 5.5 41.499 16.5s15.5 24.833 15.5 41.5c0 17.333 -5.66699 31.166 -17 41.499s-26 15.5 -44 15.5h-44l57 129h-118v92h263l-66 -147c44 -27.333 66 -71 66 -131
c0 -46.667 -13.5 -83.5 -40.5 -110.5s-63.5 -40.5 -109.5 -40.5zM107 0.000976562l500 710h130l-500 -710h-130zM700 -5.99902c-27.333 0 -52.8301 5.5 -76.4971 16.5s-41.834 25.5 -54.501 43.5l68 65c14.667 -21.333 34 -32 58 -32c15.333 0 27.5 4.83301 36.5 14.5
s13.5 21.5 13.5 35.5c0 13.333 -4.83301 24.833 -14.5 34.5s-21.834 14.5 -36.501 14.5c-24.667 0 -41.334 -12 -50.001 -36l-66 27v246h235v-92h-135v-53c5.33301 0.666992 12.333 1 21 1c44 0 78.833 -12.667 104.5 -38s38.5 -60 38.5 -104
c0 -42.667 -12.833 -77.167 -38.5 -103.5s-60.167 -39.5 -103.5 -39.5z" />
    <glyph glyph-name="uni2158" unicode="&#x2158;" horiz-adv-x="927" 
d="M221 287v91h-221l321 338v-252h43v-86h-43v-91h-100zM182 464h39v41zM167 0l500 710h130l-500 -710h-130zM760 -6c-27.333 0 -52.8301 5.5 -76.4971 16.5s-41.834 25.5 -54.501 43.5l68 65c14.667 -21.333 34 -32 58 -32c15.333 0 27.5 4.83301 36.5 14.5
s13.5 21.5 13.5 35.5c0 13.333 -4.83301 24.833 -14.5 34.5s-21.834 14.5 -36.501 14.5c-24.667 0 -41.334 -12 -50.001 -36l-66 27v246h235v-92h-135v-53c5.33301 0.666992 12.333 1 21 1c44 0 78.833 -12.667 104.5 -38s38.5 -60 38.5 -104
c0 -42.667 -12.833 -77.167 -38.5 -103.5s-60.167 -39.5 -103.5 -39.5z" />
    <glyph glyph-name="uni2159" unicode="&#x2159;" horiz-adv-x="735" 
d="M40 287v330l100 99v-429h-100zM25 0l500 710h130l-500 -710h-130zM566 -6c-42.667 0 -78.168 13.666 -106.501 40.999s-42.5 61.333 -42.5 102c0 20.667 9 48.334 27 83.001l107 203h111l-74 -140c36.667 -4 67.167 -19.167 91.5 -45.5s36.5 -59.833 36.5 -100.5
s-14.167 -74.667 -42.5 -102s-64.166 -41 -107.499 -41zM566.999 86.999c14 0 26.167 5 36.5 15s15.5 22.333 15.5 37s-5.16699 27 -15.5 37s-22.5 15 -36.5 15c-14.667 0 -27 -5 -37 -15s-15 -22.333 -15 -37s5 -27 15 -37s22.333 -15 37 -15z" />
    <glyph glyph-name="uni215A" unicode="&#x215a;" horiz-adv-x="815" 
d="M162 281c-27.333 0 -52.8301 5.5 -76.4971 16.5s-41.834 25.5 -54.501 43.5l68 65c14.667 -21.333 34 -32 58 -32c15.333 0 27.5 4.83301 36.5 14.5s13.5 21.5 13.5 35.5c0 13.333 -4.83301 24.833 -14.5 34.5s-21.834 14.5 -36.501 14.5
c-24.667 0 -41.334 -12 -50.001 -36l-66 27v246h235v-92h-135v-53c5.33301 0.666992 12.333 1 21 1c44 0 78.833 -12.667 104.5 -38s38.5 -60 38.5 -104c0 -42.667 -12.833 -77.167 -38.5 -103.5s-60.167 -39.5 -103.5 -39.5zM105.003 0l500 710h130l-500 -710h-130z
M646.003 -6c-42.667 0 -78.168 13.666 -106.501 40.999s-42.5 61.333 -42.5 102c0 20.667 9 48.334 27 83.001l107 203h111l-74 -140c36.667 -4 67.167 -19.167 91.5 -45.5s36.5 -59.833 36.5 -100.5s-14.167 -74.667 -42.5 -102s-64.166 -41 -107.499 -41zM647.002 86.999
c14 0 26.167 5 36.5 15s15.5 22.333 15.5 37s-5.16699 27 -15.5 37s-22.5 15 -36.5 15c-14.667 0 -27 -5 -37 -15s-15 -22.333 -15 -37s5 -27 15 -37s22.333 -15 37 -15z" />
    </font>
</defs>
</svg>
