<?xml version="1.0" standalone="no"?>
<!DOCTYPE svg PUBLIC "-//W3C//DTD SVG 1.1//EN" "http://www.w3.org/Graphics/SVG/1.1/DTD/svg11.dtd" >
<svg>
<metadata>
Created by FontForge 20090914 at Thu Aug 25 10:54:16 2022
 By www-data
Copyright (c) 2018 by Swiss Typefaces. All rights reserved. |DCNT
</metadata>
<defs>
<font id="EuclidFlex-Regular" horiz-adv-x="0" >
  <font-face 
    font-family="Euclid Flex"
    font-weight="400"
    font-stretch="normal"
    units-per-em="1000"
    panose-1="2 11 5 4 0 0 0 0 0 0"
    ascent="732"
    descent="-268"
    x-height="500"
    cap-height="710"
    bbox="-350 -1767 1586 940"
    underline-thickness="73"
    underline-position="-198"
    unicode-range="U+000D-U+FEFF"
  />
<missing-glyph horiz-adv-x="500" 
d="M0 0v710h500v-710h-500zM34 691l216 -320l216 320h-432zM19 682v-654l221 327zM261 355l220 -327v654zM34 19h432l-216 320z" />
    <glyph glyph-name="uni0407_uni0407" unicode="&#x407;&#x407;" horiz-adv-x="556" 
d="M95 0v710h91v-710h-91zM370 0v710h91v-710h-91zM38 785c-16.667 0 -31 5.66699 -43 17s-18 25.666 -18 42.999c0 16.667 5.83301 30.667 17.5 42s26.167 17 43.5 17c16.667 0 30.667 -5.66699 42 -17s17 -25.333 17 -42c0 -17.333 -5.83301 -31.666 -17.5 -42.999
s-25.5 -17 -41.5 -17zM279 785c-16.667 0 -31 5.66699 -43 17s-18 25.666 -18 42.999c0 16.667 5.83301 30.667 17.5 42s26.167 17 43.5 17c16.667 0 30.667 -5.66699 42 -17s17 -25.333 17 -42c0 -17.333 -5.83301 -31.666 -17.5 -42.999s-25.5 -17 -41.5 -17zM520 785
c-16.667 0 -31 5.66699 -43 17s-18 25.666 -18 42.999c0 16.667 5.83301 30.667 17.5 42s26.167 17 43.5 17c16.667 0 30.667 -5.66699 42 -17s17 -25.333 17 -42c0 -17.333 -5.83301 -31.666 -17.5 -42.999s-25.5 -17 -41.5 -17z" />
    <glyph glyph-name="uni0457_uni0457" unicode="&#x457;&#x457;" horiz-adv-x="476" 
d="M75 0v500h86v-500h-86zM315 0v500h86v-500h-86zM22 571c-16.667 0 -31 5.66699 -43 17s-18 25.666 -18 42.999c0 16.667 5.83301 30.667 17.5 42s26.167 17 43.5 17c16.667 0 30.667 -5.66699 42 -17s17 -25.333 17 -42c0 -17.333 -5.83301 -31.666 -17.5 -42.999
s-25.5 -17 -41.5 -17zM239 571c-16.667 0 -31 5.66699 -43 17s-18 25.666 -18 42.999c0 16.667 5.83301 30.667 17.5 42s26.167 17 43.5 17c16.667 0 30.667 -5.66699 42 -17s17 -25.333 17 -42c0 -17.333 -5.83301 -31.666 -17.5 -42.999s-25.5 -17 -41.5 -17zM456 571
c-16.667 0 -31 5.66699 -43 17s-18 25.666 -18 42.999c0 16.667 5.83301 30.667 17.5 42s26.167 17 43.5 17c16.667 0 30.667 -5.66699 42 -17s17 -25.333 17 -42c0 -17.333 -5.83301 -31.666 -17.5 -42.999s-25.5 -17 -41.5 -17z" />
    <glyph glyph-name="uni0457_uni0458" unicode="&#x457;&#x458;" horiz-adv-x="476" 
d="M22 571c-16.667 0 -31 5.66699 -43 17s-18 25.666 -18 42.999c0 16.667 5.83301 30.667 17.5 42s26.167 17 43.5 17c16.667 0 30.667 -5.66699 42 -17s17 -25.333 17 -42c0 -17.333 -5.83301 -31.666 -17.5 -42.999s-25.5 -17 -41.5 -17zM239 571
c-16.667 0 -31 5.66699 -43 17s-18 25.666 -18 42.999c0 16.667 5.83301 30.667 17.5 42s26.167 17 43.5 17c16.667 0 30.667 -5.66699 42 -17s17 -25.333 17 -42c0 -17.333 -5.83301 -31.666 -17.5 -42.999s-25.5 -17 -41.5 -17zM456 571c-16.667 0 -31 5.66699 -43 17
s-18 25.666 -18 42.999c0 16.667 5.83301 30.667 17.5 42s26.167 17 43.5 17c16.667 0 30.667 -5.66699 42 -17s17 -25.333 17 -42c0 -17.333 -5.83301 -31.666 -17.5 -42.999s-25.5 -17 -41.5 -17zM75 0v500h86v-500h-86zM211 -184v78h30c26.667 0 45.667 6.66699 57 20
s17 33.333 17 60v526h86v-539c0 -47.333 -13 -83.333 -39 -108s-63.333 -37 -112 -37h-39z" />
    <glyph glyph-name=".notdef" horiz-adv-x="500" 
d="M0 0v710h500v-710h-500zM34 691l216 -320l216 320h-432zM19 682v-654l221 327zM261 355l220 -327v654zM34 19h432l-216 320z" />
    <glyph glyph-name="CR" unicode="&#xd;" horiz-adv-x="250" 
 />
    <glyph glyph-name="space" unicode=" " horiz-adv-x="250" 
 />
    <glyph glyph-name="exclam" unicode="!" horiz-adv-x="267" 
d="M106 220l-16 197v293h87v-293l-16 -197h-55zM132 -8c-20 0 -37.168 7.16797 -51.501 21.501s-21.5 31.833 -21.5 52.5c0 27.333 11.333 48 34 62h80c22.667 -14.667 34 -35.334 34 -62.001c0 -20.667 -7.16699 -38.167 -21.5 -52.5s-32.166 -21.5 -53.499 -21.5z" />
    <glyph glyph-name="quotedbl" unicode="&#x22;" horiz-adv-x="416" 
d="M68 465v245h78v-245h-78zM270 465v245h78v-245h-78z" />
    <glyph glyph-name="numbersign" unicode="#" horiz-adv-x="737" 
d="M166 0h-79l63 200h-116v73h138l54 171h-119v73h142l60 193h79l-60 -193h181l60 193h79l-60 -193h116v-73h-139l-54 -171h121v-73h-143l-63 -200h-79l63 200h-181zM251 273h181l54 171h-181z" />
    <glyph glyph-name="dollar" unicode="$" horiz-adv-x="521" 
d="M223 -88l0.000976562 83c-43.333 5.33301 -81.5 17.833 -114.5 37.5s-58.5 42.834 -76.5 69.501l63 53c18 -24 41.333 -44 70 -60s60 -24 94 -24c42.667 0 76.334 10 101.001 30s37 46 37 78c0 29.333 -9.33301 53 -28 71s-49.334 37.667 -92.001 59l-65 32
c-53.333 26 -92 54.5 -116 85.5s-36 68.833 -36 113.5c0 42.667 14.833 80.334 44.5 113.001s69.167 53 118.5 61v84h83v-84c61.333 -8.66699 113 -37.667 155 -87l-59 -55c-37.333 44.667 -83.333 67 -138 67c-34.667 0 -63.334 -9.33301 -86.001 -28s-34 -42 -34 -70
c0 -26.667 8.33301 -48.834 25 -66.501s44.667 -35.834 84 -54.501l65 -32c53.333 -26 94.166 -54.167 122.499 -84.5s42.5 -68.5 42.5 -114.5c0 -49.333 -15.167 -92 -45.5 -128s-74.166 -57.667 -131.499 -65v-84h-83z" />
    <glyph glyph-name="percent" unicode="%" horiz-adv-x="427" 
d="M211 437c-39.333 0 -72.833 13.5 -100.5 40.5s-41.5 60.167 -41.5 99.5s13.833 72.5 41.5 99.5s61.167 40.5 100.5 40.5c40 0 74.167 -13.5 102.5 -40.5s42.5 -60.167 42.5 -99.5s-14.167 -72.5 -42.5 -99.5s-62.5 -40.5 -102.5 -40.5zM211 502
c22 0 39.833 7.16895 53.5 21.502s20.5 32.166 20.5 53.499c0 20.667 -6.83301 38.167 -20.5 52.5s-31.5 21.5 -53.5 21.5c-21.333 0 -38.666 -7.16699 -51.999 -21.5s-20 -31.833 -20 -52.5s6.66699 -38.334 20 -53.001s30.666 -22 51.999 -22zM71 317.002v73h290v-73h-290
zM211 -6.99805c-39.333 0 -72.833 13.5 -100.5 40.5s-41.5 60.167 -41.5 99.5s13.833 72.5 41.5 99.5s61.167 40.5 100.5 40.5c40 0 74.167 -13.5 102.5 -40.5s42.5 -60.167 42.5 -99.5s-14.167 -72.5 -42.5 -99.5s-62.5 -40.5 -102.5 -40.5zM211 58.002
c22 0 39.833 7.1709 53.5 21.5039s20.5 32.166 20.5 53.499s-6.83301 39.166 -20.5 53.499s-31.5 21.5 -53.5 21.5c-21.333 0 -38.666 -7.33301 -51.999 -22s-20 -32.334 -20 -53.001s6.66699 -38.334 20 -53.001s30.666 -22 51.999 -22z" />
    <glyph glyph-name="ampersand" unicode="&#x26;" horiz-adv-x="608" 
d="M251 -8c-64.667 0 -118.333 21.5 -161 64.5s-64 95.833 -64 158.5c0 62 21.5 114.667 64.5 158s96.5 65 160.5 65c16.667 0 30.667 -1.33301 42 -4l-143 276h359v-78h-228l330 -632h-94l-67 126c-38 -89.333 -104.333 -134 -199 -134zM251.001 71
c40 0 73.333 13.5 100 40.5s40 61.5 40 103.5s-13.333 76.5 -40 103.5s-60 40.5 -100 40.5s-73.333 -13.5 -100 -40.5s-40 -61.5 -40 -103.5s13.333 -76.5 40 -103.5s60 -40.5 100 -40.5z" />
    <glyph glyph-name="quotesingle" unicode="'" horiz-adv-x="214" 
d="M68 465v245h78v-245h-78z" />
    <glyph glyph-name="parenleft" unicode="(" horiz-adv-x="261" 
d="M226 -113l-68 -29.002c-38 76.667 -65.5 148.334 -82.5 215.001s-25.5 142.667 -25.5 228s8.5 161.333 25.5 228s44.5 138.334 82.5 215.001l68 -29c-66 -140 -99 -278 -99 -414s33 -274 99 -414z" />
    <glyph glyph-name="parenright" unicode=")" horiz-adv-x="261" 
d="M103 -142l-68 29.002c66 140 99 278 99 414s-33 274 -99 414l68 29c38 -76.667 65.5 -148.334 82.5 -215.001s25.5 -142.667 25.5 -228s-8.5 -161.333 -25.5 -228s-44.5 -138.334 -82.5 -215.001z" />
    <glyph glyph-name="asterisk" unicode="*" horiz-adv-x="437" 
d="M141 376l-55 38l78 105l-125 42l20 64l126 -42v127h66v-127l127 42l20 -64l-126 -41l78 -106l-53 -39l-79 106z" />
    <glyph glyph-name="plus" unicode="+" horiz-adv-x="590" 
d="M77 240v70h183v178h71v-178h183v-70h-183v-182h-71v182h-183z" />
    <glyph glyph-name="comma" unicode="," horiz-adv-x="258" 
d="M76 -142l43 142h-51v123h122v-124l-57 -141h-57z" />
    <glyph glyph-name="hyphen" unicode="-" horiz-adv-x="375" 
d="M66 229v89h243v-89h-243z" />
    <glyph glyph-name="period" unicode="." horiz-adv-x="250" 
d="M125 -8c-20 0 -37.333 7.16699 -52 21.5s-22 31.833 -22 52.5c0 21.333 7.33301 39 22 53s32 21 52 21s37.333 -7 52 -21s22 -31.667 22 -53c0 -20.667 -7.33301 -38.167 -22 -52.5s-32 -21.5 -52 -21.5z" />
    <glyph glyph-name="slash" unicode="/" horiz-adv-x="472" 
d="M24 0l344 710h81l-344 -710h-81z" />
    <glyph glyph-name="zero" unicode="0" horiz-adv-x="824" 
d="M412 -8c-102 0 -188.167 35 -258.5 105s-105.5 156 -105.5 258s35.167 188 105.5 258s156.5 105 258.5 105s188.167 -35 258.5 -105s105.5 -156 105.5 -258s-35.167 -188 -105.5 -258s-156.5 -105 -258.5 -105zM412 71c79.333 0 145.333 27.167 198 81.5
s79 121.833 79 202.5s-26.333 148.167 -79 202.5s-118.667 81.5 -198 81.5s-145.166 -27.167 -197.499 -81.5s-78.5 -121.833 -78.5 -202.5s26.167 -148.167 78.5 -202.5s118.166 -81.5 197.499 -81.5z" />
    <glyph glyph-name="one" unicode="1" horiz-adv-x="272" 
d="M91 0v632l86 86v-718h-86z" />
    <glyph glyph-name="two" unicode="2" horiz-adv-x="550" 
d="M27 0l275 298.999c-12.667 -2 -23.667 -3 -33 -3c-59.333 1.33301 -108.5 22.333 -147.5 63s-58.5 89.334 -58.5 146.001c0 60 20.667 110.5 62 151.5s92.333 61.5 153 61.5s111.834 -20.5 153.501 -61.5s62.5 -91.5 62.5 -151.5c0 -41.333 -9.33301 -80 -28 -116
s-50.334 -78.333 -95.001 -127l-164 -182h287v-80h-467zM278 370.999c38 0 69.333 12.667 94 38s37 57.333 37 96c0 38 -12.333 69.833 -37 95.5s-56 38.5 -94 38.5s-69.167 -12.833 -93.5 -38.5s-36.5 -57.5 -36.5 -95.5c0 -38.667 12.167 -70.667 36.5 -96
s55.5 -38 93.5 -38z" />
    <glyph glyph-name="three" unicode="3" horiz-adv-x="525" 
d="M236 -8c-42 0 -81.332 9.83398 -117.999 29.501s-65.334 46.167 -86.001 79.5l66 51c12.667 -24 31.167 -43.5 55.5 -58.5s51.5 -22.5 81.5 -22.5c44.667 0 81.5 14.167 110.5 42.5s43.5 65.5 43.5 111.5s-14.5 83.833 -43.5 113.5s-67.5 44.5 -115.5 44.5h-63l143 247
h-249v80h382l-148 -257c58 -12.667 102.833 -40.334 134.5 -83.001s47.5 -91 47.5 -145c0 -66.667 -22.333 -122.167 -67 -166.5s-102.667 -66.5 -174 -66.5z" />
    <glyph glyph-name="four" unicode="4" horiz-adv-x="630" 
d="M411 0v196h-401l486 522v-442h93v-80h-93v-196h-85zM185 276h226v243z" />
    <glyph glyph-name="five" unicode="5" horiz-adv-x="528" 
d="M253 -8c-42.667 0 -82.834 9.83203 -120.501 29.499s-66.5 46.167 -86.5 79.5l67 52c12 -23.333 30.5 -42.833 55.5 -58.5s52.5 -23.5 82.5 -23.5c44 0 80.333 14.333 109 43s43 65 43 109c0 44.667 -14.333 81.834 -43 111.501s-66.334 44.5 -113.001 44.5
c-43.333 0 -80.333 -18.333 -111 -55l-59 25v361h358v-80h-272v-192c30 12.667 59 19 87 19c72.667 0 130.834 -22.333 174.501 -67s65.5 -100.334 65.5 -167.001c0 -65.333 -22.167 -120.166 -66.5 -164.499s-101.166 -66.5 -170.499 -66.5z" />
    <glyph glyph-name="six" unicode="6" horiz-adv-x="544" 
d="M278 -8c-66 0 -121.667 22.499 -167 67.499s-68 99.5 -68 163.5c0 41.333 13.667 85.333 41 132l212 355h99l-158 -262c15.333 4 30.666 6 45.999 6c62.667 0 116.834 -22.667 162.501 -68s68.5 -99.666 68.5 -162.999c0 -64 -22.833 -118.5 -68.5 -163.5
s-101.5 -67.5 -167.5 -67.5zM278 70.999c42.667 0 78 14.667 106 44s42 65.333 42 108s-14 78.667 -42 108s-63.333 44 -106 44s-78 -14.667 -106 -44s-42 -65.333 -42 -108s14 -78.667 42 -108s63.333 -44 106 -44z" />
    <glyph glyph-name="seven" unicode="7" horiz-adv-x="499" 
d="M66 0l302 630h-336v80h465l-340 -710h-91z" />
    <glyph glyph-name="eight" unicode="8" horiz-adv-x="550" 
d="M275 -8c-63.333 0 -117.168 21.667 -161.501 65s-66.5 97.666 -66.5 162.999c0 41.333 9.5 78.833 28.5 112.5s44.833 60.834 77.5 81.501c-36 34 -54 76.667 -54 128c0 50 17.167 91.833 51.5 125.5s75.833 50.5 124.5 50.5s90.167 -16.833 124.5 -50.5
s51.5 -75.5 51.5 -125.5c0 -51.333 -18 -94 -54 -128c32.667 -20.667 58.5 -47.834 77.5 -81.501s28.5 -71.167 28.5 -112.5c0 -65.333 -22.167 -119.666 -66.5 -162.999s-98.166 -65 -161.499 -65zM274.998 637c-26 0 -47.667 -8.83301 -65 -26.5s-26 -40.5 -26 -68.5
s8.66699 -50.833 26 -68.5s39 -26.5 65 -26.5s47.667 8.83301 65 26.5s26 40.5 26 68.5s-8.66699 50.833 -26 68.5s-39 26.5 -65 26.5zM274.998 73c38.667 0 71.5 14.167 98.5 42.5s40.5 63.166 40.5 104.499s-13.5 76.166 -40.5 104.499s-59.833 42.5 -98.5 42.5
c-39.333 0 -72.333 -14.167 -99 -42.5s-40 -63.166 -40 -104.499s13.333 -76.166 40 -104.499s59.667 -42.5 99 -42.5z" />
    <glyph glyph-name="nine" unicode="9" horiz-adv-x="544" 
d="M149 -1l158 262.001c-15.333 -4 -30.666 -6 -45.999 -6c-62.667 0 -116.834 22.667 -162.501 68s-68.5 99.666 -68.5 162.999c0 64 22.833 118.667 68.5 164s101.5 68 167.5 68c65.333 0 120.833 -22.667 166.5 -68s68.5 -100 68.5 -164c0 -40.667 -14 -84.667 -42 -132
l-212 -355h-98zM266 334.001c42.667 0 78 14.667 106 44s42 65.333 42 108s-14 78.834 -42 108.501s-63.333 44.5 -106 44.5c-43.333 0 -78.833 -14.833 -106.5 -44.5s-41.5 -65.834 -41.5 -108.501s13.667 -78.667 41 -108s63 -44 107 -44z" />
    <glyph glyph-name="colon" unicode=":" horiz-adv-x="280" 
d="M140 360c-20 0 -37.333 7.16699 -52 21.5s-22 31.833 -22 52.5c0 21.333 7.33301 39 22 53s32 21 52 21s37.333 -7 52 -21s22 -31.667 22 -53c0 -20.667 -7.33301 -38.167 -22 -52.5s-32 -21.5 -52 -21.5zM140 -8c-20 0 -37.333 7.16699 -52 21.5s-22 31.833 -22 52.5
c0 21.333 7.33301 39 22 53s32 21 52 21s37.333 -7 52 -21s22 -31.667 22 -53c0 -20.667 -7.33301 -38.167 -22 -52.5s-32 -21.5 -52 -21.5z" />
    <glyph glyph-name="semicolon" unicode=";" horiz-adv-x="282" 
d="M85 -142l43 142h-51v123h122v-124l-57 -141h-57zM144 360c-20 0 -37.333 7.16699 -52 21.5s-22 31.833 -22 52.5c0 21.333 7.33301 39 22 53s32 21 52 21s37.333 -7 52 -21s22 -31.667 22 -53c0 -20.667 -7.33301 -38.167 -22 -52.5s-32 -21.5 -52 -21.5z" />
    <glyph glyph-name="less" unicode="&#x3c;" horiz-adv-x="590" 
d="M410 -8l-289 277l289 276l50 -52l-237 -224l237 -226z" />
    <glyph glyph-name="equal" unicode="=" horiz-adv-x="590" 
d="M73 350v70h444v-70h-444zM73 131v70h444v-70h-444z" />
    <glyph glyph-name="greater" unicode="&#x3e;" horiz-adv-x="590" 
d="M181 -8l-51 51l237 226l-237 224l51 52l289 -276z" />
    <glyph glyph-name="question" unicode="?" horiz-adv-x="515" 
d="M188 292v79h60c38 0 69.333 12.667 94 38s37 57.333 37 96c0 38 -12.333 69.833 -37 95.5s-56 38.5 -94 38.5s-69.167 -12.833 -93.5 -38.5s-36.5 -57.5 -36.5 -95.5h-85c0 60 20.667 110.5 62 151.5s92.333 61.5 153 61.5s111.834 -20.5 153.501 -61.5
s62.5 -91.5 62.5 -151.5s-20.833 -110.5 -62.5 -151.5s-92.834 -61.5 -153.501 -61.5h-60zM251 -8c-20 0 -37.168 7.16797 -51.501 21.501s-21.5 31.833 -21.5 52.5c0 27.333 11.333 48 34 62h80c22.667 -14.667 34 -35.334 34 -62.001
c0 -20.667 -7.16699 -38.167 -21.5 -52.5s-32.166 -21.5 -53.499 -21.5z" />
    <glyph glyph-name="at" unicode="@" horiz-adv-x="804" 
d="M393 -8c-105.333 0 -189.836 32.8301 -253.503 98.4971s-95.5 147.834 -95.5 246.501c0 110.667 38.333 201.834 115 273.501s167.334 107.5 272.001 107.5c99.333 0 181.166 -28.5 245.499 -85.5s96.5 -132.5 96.5 -226.5c0 -81.333 -17.667 -142.166 -53 -182.499
s-78.333 -60.5 -129 -60.5c-45.333 0 -78 17.667 -98 53c-35.333 -34 -79.666 -51 -132.999 -51c-46.667 0 -84.667 16.667 -114 50s-44 74 -44 122c0 60.667 20.833 112.334 62.5 155.001s93.167 64 154.5 64c44.667 0 81.334 -12.667 110.001 -38l6 28h72l-51 -239
c-4.66699 -23.333 -3.16699 -42.333 4.5 -57s21.834 -22 42.501 -22c28 0 52 16 72 48s30 76 30 132c0 76 -25.833 136.167 -77.5 180.5s-117.5 66.5 -197.5 66.5c-88 0 -162.667 -29.5 -224 -88.5s-92 -135.5 -92 -229.5c0 -80.667 25 -147.334 75 -200.001
s118 -79 204 -79c68.667 0 130 13.667 184 41l25 -63c-66 -29.333 -135.667 -44 -209 -44zM278.997 343.997c0 -35.333 8.83301 -63.001 26.5 -83.001s41.5 -30 71.5 -30c48 0 82.333 19.333 103 58c0 0.666992 0.666992 4.33398 2 11.001l31 144
c-22 30.667 -54.667 46 -98 46c-36.667 0 -68.5 -14 -95.5 -42s-40.5 -62.667 -40.5 -104z" />
    <glyph glyph-name="A" unicode="A" horiz-adv-x="678" 
d="M-7 0l346 718l346 -718h-98l-88 186h-320l-88 -186h-98zM219 270h240l-120 254z" />
    <glyph glyph-name="B" unicode="B" horiz-adv-x="632" 
d="M95 0v710h237c66 0 117.333 -17.667 154 -53s55 -79.333 55 -132c0 -66 -24.667 -115.333 -74 -148c80.667 -30.667 121 -89.667 121 -177c0 -63.333 -22.167 -112.5 -66.5 -147.5s-103.833 -52.5 -178.5 -52.5h-248zM186 404h144.002c37.333 0 66.666 10.333 87.999 31
s32 47.334 32 80.001c0 31.333 -10.833 57.666 -32.5 78.999s-50.834 32 -87.501 32h-144v-222zM186.002 84h168c46 0 81.167 11 105.5 33s36.5 51 36.5 87s-12.167 65.333 -36.5 88s-59.5 34 -105.5 34h-168v-242z" />
    <glyph glyph-name="C" unicode="C" horiz-adv-x="722" 
d="M409 -8c-102 0 -188 34.8291 -258 104.496s-105 155.834 -105 258.501s35 188.834 105 258.501s156 104.5 258 104.5c60 0 115.333 -12.667 166 -38s90 -57.666 118 -96.999l-65 -57c-51.333 70 -124.333 105 -219 105c-77.333 0 -141.666 -26.5 -192.999 -79.5
s-77 -118.5 -77 -196.5s25.667 -143.5 77 -196.5s115.666 -79.5 192.999 -79.5c94.667 0 167.667 35 219 105l65 -57c-28 -39.333 -67.333 -71.666 -118 -96.999s-106 -38 -166 -38z" />
    <glyph glyph-name="D" unicode="D" horiz-adv-x="731" 
d="M95 0v710h211c109.333 0 199.833 -33.667 271.5 -101s107.5 -152 107.5 -254s-35.833 -186.667 -107.5 -254s-162.167 -101 -271.5 -101h-211zM186 85l120 -0.00195312c85.333 0 154.333 25.333 207 76s79 115.334 79 194.001s-26.333 143.334 -79 194.001
s-121.667 76 -207 76h-120v-540z" />
    <glyph glyph-name="E" unicode="E" horiz-adv-x="555" 
d="M95 0v710h410v-88h-319v-215h259v-88h-259v-231h319v-88h-410z" />
    <glyph glyph-name="F" unicode="F" horiz-adv-x="517" 
d="M95 0v710h398v-88h-307v-215h240v-88h-240v-319h-91z" />
    <glyph glyph-name="G" unicode="G" horiz-adv-x="742" 
d="M409 -8c-102 0 -187.998 34.8311 -257.998 104.498s-105 155.834 -105 258.501s35 188.834 105 258.501s156 104.5 258 104.5c54 0 105 -10.667 153 -32s86.333 -49 115 -83l-65 -58c-52.667 57.333 -120.334 86 -203.001 86c-77.333 0 -141.666 -26.5 -192.999 -79.5
s-77 -118.5 -77 -196.5s25.667 -143.5 77 -196.5s115.666 -79.5 192.999 -79.5c75.333 0 135.666 17.667 180.999 53v187h-218l39 88h270v-317c-22.667 -26.667 -59 -49.667 -109 -69s-104.333 -29 -163 -29z" />
    <glyph glyph-name="H" unicode="H" horiz-adv-x="764" 
d="M95 0v710h91v-303h392v303h91v-710h-91v319h-392v-319h-91z" />
    <glyph glyph-name="I" unicode="I" horiz-adv-x="281" 
d="M95 0v710h91v-710h-91z" />
    <glyph glyph-name="J" unicode="J" horiz-adv-x="523" 
d="M228 -8c-59.333 0 -108.667 18.333 -148 55s-59 87 -59 151h91c0 -38.667 10.833 -68.167 32.5 -88.5s49.167 -30.5 82.5 -30.5c35.333 0 63.666 10 84.999 30s32 49.667 32 89v512h91v-518c0 -64 -19.667 -113.333 -59 -148s-88.666 -52 -147.999 -52z" />
    <glyph glyph-name="K" unicode="K" horiz-adv-x="641" 
d="M95 0v710h91v-356l324 356h112l-328 -361l355 -349h-121l-342 337v-337h-91z" />
    <glyph glyph-name="L" unicode="L" horiz-adv-x="515" 
d="M95 0v710h91v-621h311v-89h-402z" />
    <glyph glyph-name="M" unicode="M" horiz-adv-x="882" 
d="M95 0v718l346 -381l346 381v-718h-91v494l-255 -285l-255 285v-494h-91z" />
    <glyph glyph-name="N" unicode="N" horiz-adv-x="787" 
d="M692 -8l-506 513v-505h-91v718l506 -513v505h91v-718z" />
    <glyph glyph-name="O" unicode="O" horiz-adv-x="818" 
d="M409 -8c-102 0 -188 34.833 -258 104.5s-105 155.834 -105 258.501s35 188.834 105 258.501s156 104.5 258 104.5s188 -34.833 258 -104.5s105 -155.834 105 -258.501s-35 -188.834 -105 -258.501s-156 -104.5 -258 -104.5zM409 79c77.333 0 141.666 26.5 192.999 79.5
s77 118.5 77 196.5s-25.667 143.5 -77 196.5s-115.666 79.5 -192.999 79.5s-141.666 -26.5 -192.999 -79.5s-77 -118.5 -77 -196.5s25.667 -143.5 77 -196.5s115.666 -79.5 192.999 -79.5z" />
    <glyph glyph-name="P" unicode="P" horiz-adv-x="574" 
d="M95 0v710h201c74.667 0 134.334 -19.5 179.001 -58.5s67 -91.833 67 -158.5c0 -66 -22.333 -118.667 -67 -158s-104.334 -59 -179.001 -59h-110v-276h-91zM186 360h107c50.667 0 89.334 11.5 116.001 34.5s40 55.833 40 98.5s-13.333 75.5 -40 98.5
s-65.334 34.5 -116.001 34.5h-107v-266z" />
    <glyph glyph-name="Q" unicode="Q" horiz-adv-x="835" 
d="M409 -8c-102 0 -188 34.8311 -258 104.498s-105 155.834 -105 258.501s35 188.834 105 258.501s156 104.5 258 104.5s188 -34.833 258 -104.5s105 -155.834 105 -258.501c0 -81.333 -23.333 -153.666 -70 -216.999l92 -84l-58 -62l-91 84c-67.333 -56 -146 -84 -236 -84z
M409 78.998c64 0 120.666 19.333 169.999 58l-93 86l58 62l91 -85c29.333 46 44 97.667 44 155c0 78 -25.667 143.5 -77 196.5s-115.666 79.5 -192.999 79.5s-141.666 -26.5 -192.999 -79.5s-77 -118.5 -77 -196.5s25.667 -143.5 77 -196.5s115.666 -79.5 192.999 -79.5z
" />
    <glyph glyph-name="R" unicode="R" horiz-adv-x="619" 
d="M95 0l0.000976562 710h211c69.333 0 124.666 -18.167 165.999 -54.5s62 -84.833 62 -145.5c0 -46 -13.667 -87 -41 -123s-70 -59.667 -128 -71l246 -316h-110l-237 310h-78v-310h-91zM186.001 391l114 0.000976562c46 0 80.833 10.167 104.5 30.5
s35.5 49.166 35.5 86.499c0 38 -11.833 67.167 -35.5 87.5s-58.5 30.5 -104.5 30.5h-114v-235z" />
    <glyph glyph-name="S" unicode="S" horiz-adv-x="528" 
d="M263 -8c-49.333 0 -94.498 10.3359 -135.498 31.0029s-72.833 47 -95.5 79l69 60c44 -55.333 97.667 -83 161 -83c42 0 74.833 8.83301 98.5 26.5s35.5 42.167 35.5 73.5s-9.33301 56.833 -28 76.5s-48 38.167 -88 55.5l-65 28c-103.333 44.667 -155 111.667 -155 201
c0 52 20.833 94.667 62.5 128s89.834 50 144.501 50c83.333 0 149.666 -30.333 198.999 -91l-64 -64c-38 45.333 -84 68 -138 68c-31.333 0 -58 -8.33301 -80 -25s-33 -39.334 -33 -68.001c0 -26 8.16699 -48.333 24.5 -67s43.166 -36.334 80.499 -53.001l65 -28
c53.333 -24 94.5 -51.833 123.5 -83.5s43.5 -70.834 43.5 -117.501c0 -58.667 -20.333 -106.167 -61 -142.5s-95.334 -54.5 -164.001 -54.5z" />
    <glyph glyph-name="T" unicode="T" horiz-adv-x="526" 
d="M217 0v622h-201v88h494v-88h-202v-622h-91z" />
    <glyph glyph-name="U" unicode="U" horiz-adv-x="738" 
d="M369 -8c-84 0 -152.169 25 -204.502 75s-78.5 117.667 -78.5 203v440h91v-444c0 -60 17.333 -106.167 52 -138.5s81.334 -48.5 140.001 -48.5s105.334 16.167 140.001 48.5s52 78.5 52 138.5v444h91v-440c0 -85.333 -26.167 -153 -78.5 -203s-120.5 -75 -204.5 -75z" />
    <glyph glyph-name="V" unicode="V" horiz-adv-x="656" 
d="M328 -8l-328 718h100l228 -509l227 509h100z" />
    <glyph glyph-name="W" unicode="W" horiz-adv-x="889" 
d="M252 -8l-244 718h94l157 -474l185 482l186 -482l157 474h94l-244 -718l-193 500z" />
    <glyph glyph-name="X" unicode="X" horiz-adv-x="639" 
d="M6 0l256 362l-243 348h105l195 -279l195 279h105l-241 -348l255 -362h-103l-210 295l-208 -295h-106z" />
    <glyph glyph-name="Y" unicode="Y" horiz-adv-x="628" 
d="M268 0v301l-260 409h106l200 -319l200 319h106l-260 -409v-301h-92z" />
    <glyph glyph-name="Z" unicode="Z" horiz-adv-x="593" 
d="M9 0l395 622h-352v88h508l-395 -622h397v-88h-553z" />
    <glyph glyph-name="bracketleft" unicode="[" horiz-adv-x="306" 
d="M276 -141h-187v882h187v-71h-108v-740h108v-71z" />
    <glyph glyph-name="backslash" unicode="\" horiz-adv-x="472" 
d="M367 0l-344 710h81l344 -710h-81z" />
    <glyph glyph-name="bracketright" unicode="]" horiz-adv-x="306" 
d="M217 -141h-187v71h108v740h-108v71h187v-882z" />
    <glyph glyph-name="asciicircum" unicode="^" horiz-adv-x="607" 
d="M32 317l271 395l272 -395h-86l-186 268l-186 -268h-85z" />
    <glyph glyph-name="underscore" unicode="_" horiz-adv-x="536" 
d="M56 -73v73h424v-73h-424z" />
    <glyph glyph-name="grave" unicode="`" 
d="M25 550l-123 160h109l85 -160h-71z" />
    <glyph glyph-name="a" unicode="a" horiz-adv-x="617" 
d="M456 0v50.002c-42.667 -38.667 -95.667 -58 -159 -58c-73.333 0 -134.166 24.667 -182.499 74s-72.5 110.666 -72.5 183.999s24.167 134.666 72.5 183.999s109.166 74 182.499 74c63.333 0 116.333 -19.333 159 -58v50h86v-500h-86zM299 73.002
c34.667 0 65.667 7.33301 93 22s48.666 34.334 63.999 59.001v192c-15.333 24.667 -36.666 44.334 -63.999 59.001s-58.333 22 -93 22c-48.667 0 -88.834 -16.833 -120.501 -50.5s-47.5 -75.834 -47.5 -126.501s15.833 -92.834 47.5 -126.501s71.834 -50.5 120.501 -50.5z
" />
    <glyph glyph-name="b" unicode="b" horiz-adv-x="617" 
d="M75 0v709.998h86v-260c40.667 38.667 93.667 58 159 58c73.333 0 134.166 -24.667 182.499 -74s72.5 -110.666 72.5 -183.999s-24.167 -134.666 -72.5 -183.999s-109.166 -74 -182.499 -74c-65.333 0 -118.333 19.333 -159 58v-50h-86zM318 426.998
c-34.667 0 -65.834 -7.50195 -93.501 -22.502s-48.834 -34.5 -63.501 -58.5v-192c14.667 -24 35.834 -43.5 63.501 -58.5s58.834 -22.5 93.501 -22.5c48.667 0 88.834 16.833 120.501 50.5s47.5 75.834 47.5 126.501s-15.833 92.834 -47.5 126.501
s-71.834 50.5 -120.501 50.5z" />
    <glyph glyph-name="c" unicode="c" horiz-adv-x="517" 
d="M298 -8c-73.333 0 -134.5 24.833 -183.5 74.5s-73.5 110.834 -73.5 183.501s24.5 133.834 73.5 183.501s110.167 74.5 183.5 74.5c76 0 139.667 -26.333 191 -79l-55 -60c-38.667 38.667 -84 58 -136 58c-48.667 0 -88.834 -16.833 -120.501 -50.5
s-47.5 -75.834 -47.5 -126.501s15.833 -92.834 47.5 -126.501s71.834 -50.5 120.501 -50.5c52 0 97.333 19.333 136 58l55 -60c-51.333 -52.667 -115 -79 -191 -79z" />
    <glyph glyph-name="d" unicode="d" horiz-adv-x="617" 
d="M542 0l-86 0.00195312v50c-40.667 -38.667 -93.667 -58 -159 -58c-73.333 0 -134.166 24.667 -182.499 74s-72.5 110.666 -72.5 183.999s24.167 134.666 72.5 183.999s109.166 74 182.499 74c65.333 0 118.333 -19.333 159 -58v260h86v-710zM299 427.002
c-48.667 0 -88.834 -16.8311 -120.501 -50.498s-47.5 -75.834 -47.5 -126.501s15.833 -92.834 47.5 -126.501s71.834 -50.5 120.501 -50.5c34.667 0 65.834 7.5 93.501 22.5s48.834 34.5 63.501 58.5v192c-14.667 24 -35.834 43.5 -63.501 58.5s-58.834 22.5 -93.501 22.5z
" />
    <glyph glyph-name="e" unicode="e" horiz-adv-x="569" 
d="M298 -8c-73.333 0 -134.499 24.833 -183.499 74.5s-73.5 110.834 -73.5 183.501s24.333 133.834 73 183.501s108 74.5 178 74.5c74 0 133.167 -25.833 177.5 -77.5s66.5 -118.834 66.5 -201.501h-406c4 -46.667 22.167 -84.334 54.5 -113.001s70.166 -43 113.499 -43
c57.333 0 106 20 146 60l55 -60c-51.333 -54 -118.333 -81 -201 -81zM287.001 429c-34 0 -65.667 -10.5 -95 -31.5s-48.333 -52.167 -57 -93.5h304c-6 40 -23 71 -51 93s-61.667 32.667 -101 32z" />
    <glyph glyph-name="f" unicode="f" horiz-adv-x="352" 
d="M113 0l-0.000976562 422.002h-86v78h84c-24.667 24.667 -37 54 -37 88c0 35.333 13.5 64.5 40.5 87.5s62.167 34.5 105.5 34.5h118v-78h-104c-22.667 0 -41 -5.33301 -55 -16s-21 -26.334 -21 -47.001s6.83301 -36.834 20.5 -48.501s29.834 -18.5 48.501 -20.5h111v-78
h-139v-422h-86z" />
    <glyph glyph-name="g" unicode="g" horiz-adv-x="611" 
d="M291 -194c-81.333 0 -152.334 19.668 -213.001 59.001l45 73c48 -34.667 105 -52 171 -52c48.667 0 88.834 10.167 120.501 30.5s47.5 52.166 47.5 95.499c0 24 -4.33301 45 -13 63c-40.667 -40 -93.667 -60 -159 -60c-73.333 0 -132.833 23.333 -178.5 70
s-68.5 105.334 -68.5 176.001s22.833 129.5 68.5 176.5s105.167 70.5 178.5 70.5c62.667 0 114.667 -19.667 156 -59v51h86v-398c12.667 -34 19 -66.667 19 -98c0 -66.667 -25.333 -116.334 -76 -149.001s-112 -49 -184 -49zM291.999 95.001
c34.667 0 65.5 7.49902 92.5 22.499s47.5 34.833 61.5 59.5v169c-14 24.667 -34.5 44.334 -61.5 59.001s-57.833 22 -92.5 22c-47.333 0 -85.833 -15.667 -115.5 -47s-44.5 -71 -44.5 -119c0 -47.333 14.833 -86.833 44.5 -118.5s68.167 -47.5 115.5 -47.5z" />
    <glyph glyph-name="h" unicode="h" horiz-adv-x="578" 
d="M75 0l0.000976562 710h86v-267c35.333 43.333 87 65 155 65c56.667 0 103 -18.5 139 -55.5s54 -86.167 54 -147.5v-305h-86v300c0 37.333 -11.333 67.833 -34 91.5s-53.334 35.5 -92.001 35.5c-70.667 0 -116 -34.667 -136 -104v-323h-86z" />
    <glyph glyph-name="i" unicode="i" horiz-adv-x="236" 
d="M75 0v500h86v-500h-86zM161 609h-86c-12.667 10.667 -19 26 -19 46c0 17.333 6 32.166 18 44.499s26.667 18.5 44 18.5s32 -6.16699 44 -18.5s18 -27.166 18 -44.499c0 -20 -6.33301 -35.333 -19 -46z" />
    <glyph glyph-name="j" unicode="j" horiz-adv-x="244" 
d="M-21 -184v78h30c26.667 0 45.667 6.66699 57 20s17 33.333 17 60v526h86v-539c0 -47.333 -13 -83.333 -39 -108s-63.333 -37 -112 -37h-39zM169 609h-86c-12.667 10.667 -19 26 -19 46c0 17.333 6 32.166 18 44.499s26.667 18.5 44 18.5s32 -6.16699 44 -18.5
s18 -27.166 18 -44.499c0 -20 -6.33301 -35.333 -19 -46z" />
    <glyph glyph-name="k" unicode="k" horiz-adv-x="512" 
d="M75 0v710h86v-436l221 226h113l-232 -235l255 -265h-116l-241 250v-250h-86z" />
    <glyph glyph-name="l" unicode="l" horiz-adv-x="236" 
d="M75 0v710h86v-710h-86z" />
    <glyph glyph-name="m" unicode="m" horiz-adv-x="875" 
d="M398 0l0.000976562 300c0 37.333 -10.333 67.833 -31 91.5s-48.667 35.5 -84 35.5c-60.667 0 -101.334 -31.333 -122.001 -94v-333h-86v500h86v-55c33.333 42 80.333 63 141 63c66.667 0 117 -27.333 151 -82c38 54.667 93.667 82 167 82
c57.333 0 102.666 -18.333 135.999 -55s50 -86 50 -148v-305h-86v300c0 37.333 -10.167 67.833 -30.5 91.5s-48.166 35.5 -83.499 35.5c-60.667 0 -101.667 -33.667 -123 -101c0.666992 -2 1 -5.66699 1 -11v-315h-86z" />
    <glyph glyph-name="n" unicode="n" horiz-adv-x="578" 
d="M75 0l0.000976562 500h86v-57c35.333 43.333 87 65 155 65c56.667 0 103 -18.5 139 -55.5s54 -86.167 54 -147.5v-305h-86v300c0 37.333 -11.333 67.833 -34 91.5s-53.334 35.5 -92.001 35.5c-70.667 0 -116 -34.667 -136 -104v-323h-86z" />
    <glyph glyph-name="o" unicode="o" horiz-adv-x="602" 
d="M301 -8c-74.667 0 -136.667 24.833 -186 74.5s-74 110.834 -74 183.501s24.667 133.834 74 183.501s111.333 74.5 186 74.5c74 0 135.667 -24.833 185 -74.5s74 -110.834 74 -183.501s-24.667 -133.834 -74 -183.501s-111 -74.5 -185 -74.5zM301 73
c50 0 90.833 16.833 122.5 50.5s47.5 75.834 47.5 126.501s-15.833 92.834 -47.5 126.501s-72.5 50.5 -122.5 50.5s-91 -16.833 -123 -50.5s-48 -75.834 -48 -126.501s16 -92.834 48 -126.501s73 -50.5 123 -50.5z" />
    <glyph glyph-name="p" unicode="p" horiz-adv-x="617" 
d="M75 500l86 -0.00195312v-50c40.667 38.667 93.667 58 159 58c73.333 0 134.166 -24.667 182.499 -74s72.5 -110.666 72.5 -183.999s-24.167 -134.666 -72.5 -183.999s-109.166 -74 -182.499 -74c-65.333 0 -118.333 19.333 -159 58v-234h-86v684zM318 72.998
c48.667 0 88.834 16.8311 120.501 50.498s47.5 75.834 47.5 126.501s-15.833 92.834 -47.5 126.501s-71.834 50.5 -120.501 50.5c-34.667 0 -65.834 -7.5 -93.501 -22.5s-48.834 -34.5 -63.501 -58.5v-192c14.667 -24 35.834 -43.5 63.501 -58.5s58.834 -22.5 93.501 -22.5z
" />
    <glyph glyph-name="q" unicode="q" horiz-adv-x="617" 
d="M542 500v-683.998h-86v234c-40.667 -38.667 -93.667 -58 -159 -58c-73.333 0 -134.166 24.667 -182.499 74s-72.5 110.666 -72.5 183.999s24.167 134.666 72.5 183.999s109.166 74 182.499 74c65.333 0 118.333 -19.333 159 -58v50h86zM299 73.002
c34.667 0 65.834 7.50195 93.501 22.502s48.834 34.5 63.501 58.5v192c-14.667 24 -35.834 43.5 -63.501 58.5s-58.834 22.5 -93.501 22.5c-48.667 0 -88.834 -16.833 -120.501 -50.5s-47.5 -75.834 -47.5 -126.501s15.833 -92.834 47.5 -126.501
s71.834 -50.5 120.501 -50.5z" />
    <glyph glyph-name="r" unicode="r" horiz-adv-x="351" 
d="M75 0l-0.000976562 500h86v-59c34.667 42.667 80.667 64 138 64c12.667 0 24.334 -1 35.001 -3v-89c-14 4 -30 6 -48 6c-60 0 -101.667 -26.333 -125 -79v-340h-86z" />
    <glyph glyph-name="s" unicode="s" horiz-adv-x="420" 
d="M207 -8c-78.667 0 -137.664 33.334 -176.997 100.001l68 46c28 -46 65 -69 111 -69c25.333 0 46.5 5.66699 63.5 17s25.5 26.666 25.5 45.999s-6.5 34.833 -19.5 46.5s-34.833 22.834 -65.5 33.501l-39 15c-79.333 30 -119 79.333 -119 148c0 38 14.667 69.667 44 95
s66.666 38 111.999 38c69.333 0 119.333 -30 150 -90l-67 -39c-16.667 34.667 -44.334 52 -83.001 52c-20 0 -36.833 -5 -50.5 -15s-20.5 -23.333 -20.5 -40s5.16699 -31 15.5 -43s29.5 -23 57.5 -33l41 -15c44 -16 76.667 -35.833 98 -59.5s32 -53.834 32 -90.501
c0 -40.667 -16.333 -74.667 -49 -102s-75.334 -41 -128.001 -41z" />
    <glyph glyph-name="t" unicode="t" horiz-adv-x="364" 
d="M334 0h-76c-48.667 -0 -86 12.333 -112 37s-39 60.667 -39 108v277h-80l-19 78h99v107l86 43v-150h151l-19 -78h-132v-264c0 -26.667 5.66699 -46.667 17 -60s30.333 -20 57 -20h67v-78z" />
    <glyph glyph-name="u" unicode="u" horiz-adv-x="577" 
d="M416 0v56c-34.667 -42.667 -86 -64 -154 -64c-58 0 -104.667 18.5 -140 55.5s-53 86.167 -53 147.5v305h86v-300c0 -37.333 11.333 -67.833 34 -91.5s53 -35.5 91 -35.5c70 0 115.333 33.333 136 100v327h86v-500h-86z" />
    <glyph glyph-name="v" unicode="v" horiz-adv-x="520" 
d="M260 -8l-264 508h97l167 -338l168 338h97z" />
    <glyph glyph-name="w" unicode="w" horiz-adv-x="700" 
d="M169 0l-158 500h89l112 -364l138 372l138 -372l112 364h89l-158 -500h-69l-112 304l-111 -304h-70z" />
    <glyph glyph-name="x" unicode="x" horiz-adv-x="514" 
d="M10 0l195 254l-185 246h99l139 -184l137 184h99l-185 -246l195 -254h-100l-147 194l-147 -194h-100z" />
    <glyph glyph-name="y" unicode="y" horiz-adv-x="507" 
d="M107 -184l103 226l-204 458h93l156 -364l157 364h93l-307 -684h-91z" />
    <glyph glyph-name="z" unicode="z" horiz-adv-x="486" 
d="M16 0l292 422h-260v78h411l-291 -422h281v-78h-433z" />
    <glyph glyph-name="braceleft" unicode="{" horiz-adv-x="316" 
d="M281 -141l-48 -0.00292969c-46 0 -78.833 11.667 -98.5 35s-29.5 59.666 -29.5 108.999v190c0 25.333 -3.83301 43.5 -11.5 54.5s-23.167 16.5 -46.5 16.5h-16v71h16c23.333 0 38.833 5.5 46.5 16.5s11.5 29.167 11.5 54.5v191c0 48.667 9.5 84.834 28.5 108.501
s51.5 35.5 97.5 35.5h50v-71h-39c-23.333 0 -39 -5.5 -47 -16.5s-12 -29.833 -12 -56.5v-187c0 -31.333 -3.83301 -55.166 -11.5 -71.499s-21.5 -29.166 -41.5 -38.499c20 -10 33.833 -23.167 41.5 -39.5s11.5 -40.166 11.5 -71.499v-186c0 -26.667 4 -45.5 12 -56.5
s23.667 -16.5 47 -16.5h39v-71z" />
    <glyph glyph-name="bar" unicode="|" horiz-adv-x="257" 
d="M89 -184v894h79v-894h-79z" />
    <glyph glyph-name="braceright" unicode="}" horiz-adv-x="316" 
d="M83 -141l-48 0.00292969v71h39c23.333 0 39 5.5 47 16.5s12 29.833 12 56.5v186c0 31.333 3.83301 55.166 11.5 71.499s21.5 29.5 41.5 39.5c-20 9.33301 -33.833 22.166 -41.5 38.499s-11.5 40.166 -11.5 71.499v187c0 26.667 -4 45.5 -12 56.5s-23.667 16.5 -47 16.5
h-39v71h50c46 0 78.5 -11.833 97.5 -35.5s28.5 -59.834 28.5 -108.501v-191c0 -25.333 3.83301 -43.5 11.5 -54.5s23.167 -16.5 46.5 -16.5h16v-71h-16c-23.333 0 -38.833 -5.5 -46.5 -16.5s-11.5 -29.167 -11.5 -54.5v-190c0 -49.333 -9.83301 -85.666 -29.5 -108.999
s-52.5 -35 -98.5 -35z" />
    <glyph glyph-name="asciitilde" unicode="~" horiz-adv-x="590" 
d="M87 206v86l108 73l198 -75l112 74v-82l-108 -75l-199 75z" />
    <glyph glyph-name="uni00A0" unicode="&#xa0;" horiz-adv-x="250" 
 />
    <glyph glyph-name="exclamdown" unicode="&#xa1;" horiz-adv-x="255" 
d="M126 508c21.333 0 39.167 -7.16797 53.5 -21.501s21.5 -31.833 21.5 -52.5c0 -27.333 -11.333 -47.666 -34 -60.999h-80c-22.667 12.667 -34 33 -34 61c0 20.667 7.16699 38.167 21.5 52.5s31.5 21.5 51.5 21.5zM100.001 280.999h55l16 -197v-268h-87v268z" />
    <glyph glyph-name="cent" unicode="&#xa2;" horiz-adv-x="531" 
d="M259 -88v85c-62.667 9.33301 -114.167 37.833 -154.5 85.5s-60.5 103.834 -60.5 168.501s20.167 120.834 60.5 168.501s91.833 76.167 154.5 85.5v83h83v-82c57.333 -8 107.333 -33.333 150 -76l-55 -60c-38.667 38.667 -84 58 -136 58
c-48.667 0 -88.834 -16.833 -120.501 -50.5s-47.5 -75.834 -47.5 -126.501s15.833 -92.834 47.5 -126.501s71.834 -50.5 120.501 -50.5c52 0 97.333 19.333 136 58l55 -60c-40 -42 -90 -67.333 -150 -76v-84h-83z" />
    <glyph glyph-name="sterling" unicode="&#xa3;" horiz-adv-x="580" 
d="M53 0l-0.00195312 80.001h90v224h-90v74h91c-35.333 37.333 -53 81.666 -53 132.999c0 57.333 20.167 106.166 60.5 146.499s91.5 60.5 153.5 60.5c60.667 0 111.334 -20.5 152.001 -61.5s61 -90.833 61 -149.5h-87c0 36.667 -11.667 67.834 -35 93.501
s-53.666 38.5 -90.999 38.5s-68 -12.167 -92 -36.5s-36 -54.833 -36 -91.5c0 -37.333 12 -68.833 36 -94.5s54.667 -38.5 92 -38.5h82v-74h-157v-224h315v-80h-492z" />
    <glyph glyph-name="currency" unicode="&#xa4;" horiz-adv-x="647" 
d="M563 348c0 -52.667 -14.333 -98 -43 -136l68 -68l-55 -54l-68 68c-42.667 -31.333 -89.667 -47 -141 -47s-98.333 15.667 -141 47l-68 -68l-55 54l68 68c-28.667 38 -43 83.333 -43 136s14.333 98 43 136l-68 68l55 54l68 -68c42.667 31.333 89.667 47 141 47
s98.333 -15.667 141 -47l68 68l55 -54l-68 -68c28.667 -38 43 -83.333 43 -136zM478 348c0 45.333 -14.5 83 -43.5 113s-65.833 45 -110.5 45s-81.5 -15 -110.5 -45s-43.5 -67.667 -43.5 -113c0 -46.667 14.333 -84.667 43 -114s65.667 -44 111 -44s82.333 14.667 111 44
s43 67.333 43 114z" />
    <glyph glyph-name="yen" unicode="&#xa5;" horiz-adv-x="664" 
d="M131 271v74h127l-232 365h106l200 -319l200 319h106l-232 -365h126v-74h-154v-73h154v-74h-154v-124h-92v124h-155v74h155v73h-155z" />
    <glyph glyph-name="brokenbar" unicode="&#xa6;" horiz-adv-x="257" 
d="M89 327v383h79v-383h-79zM89 -184v384h79v-384h-79z" />
    <glyph glyph-name="section" unicode="&#xa7;" horiz-adv-x="455" 
d="M237 -194c-36 0 -67.667 8.66602 -95 25.999s-47.666 41.333 -60.999 72l62 33c22.667 -40.667 54 -61 94 -61c24.667 0 45.167 7 61.5 21s24.166 33.333 23.499 58c-2.66699 49.333 -35 88.666 -97 117.999l-62 30c-33.333 16 -60.333 37.833 -81 65.5
s-31 58.834 -31 93.501c0 73.333 36 126.333 108 159c-34 18.667 -59.833 40.167 -77.5 64.5s-26.5 54.5 -26.5 90.5c0 42 14 76 42 102s65.667 39 113 39c76 0 128 -33 156 -99l-63 -31c-22 40 -53 60 -93 60c-23.333 0 -41.833 -6.33301 -55.5 -19s-20.5 -30 -20.5 -52
c0 -24.667 8.5 -45 25.5 -61s40.5 -31.333 70.5 -46l60 -29c35.333 -17.333 63.333 -39.666 84 -66.999s31 -58.666 31 -93.999c0 -73.333 -35.667 -126 -107 -158c66 -40.667 100.333 -96.334 103 -167.001c0 -44 -15.5 -79.667 -46.5 -107s-70.167 -41 -117.5 -41z
M212 163.999l5 -2.99902c36 13.333 63.167 28.666 81.5 45.999s27.5 40.333 27.5 69c0 40.667 -26.333 74 -79 100l-8 4c-36.667 -13.333 -64 -28.333 -82 -45s-27 -39.667 -27 -69c0 -42 27.333 -76 82 -102z" />
    <glyph glyph-name="dieresis" unicode="&#xa8;" 
d="M114 571c-16.667 0 -31.001 5.66699 -43.001 17s-18 25.666 -18 42.999c0 16.667 5.83301 30.667 17.5 42s26.167 17 43.5 17c16.667 0 30.834 -5.66699 42.501 -17s17.5 -25.333 17.5 -42c0 -17.333 -6 -31.666 -18 -42.999s-26 -17 -42 -17zM-111.001 571
c-16.667 0 -31.001 5.66699 -43.001 17s-18 25.666 -18 42.999c0 16.667 5.83301 30.667 17.5 42s26.167 17 43.5 17c16.667 0 30.834 -5.66699 42.501 -17s17.5 -25.333 17.5 -42c0 -17.333 -6 -31.666 -18 -42.999s-26 -17 -42 -17z" />
    <glyph glyph-name="copyright" unicode="&#xa9;" horiz-adv-x="816" 
d="M408 -9c-100 0 -185.5 35.5 -256.5 106.5s-106.5 156.5 -106.5 256.5s35.5 185.667 106.5 257s156.5 107 256.5 107s185.5 -35.667 256.5 -107s106.5 -157 106.5 -257s-35.5 -185.5 -106.5 -256.5s-156.5 -106.5 -256.5 -106.5zM408 54
c81.333 0 150.666 29.333 207.999 88s86 129.667 86 213s-28.667 154.166 -86 212.499s-126.666 87.5 -207.999 87.5c-80.667 0 -149.667 -29.167 -207 -87.5s-86 -129.166 -86 -212.499s28.667 -154.333 86 -213s126.333 -88 207 -88zM426 183
c-48.667 0 -89.5 16.333 -122.5 49s-49.5 73.667 -49.5 123c0 48.667 16.667 89.5 50 122.5s74 49.5 122 49.5c44 0 80.667 -14.333 110 -43l-39 -51c-22 19.333 -45.667 29 -71 29c-29.333 0 -53.666 -10.333 -72.999 -31s-29 -46 -29 -76s9.66699 -55.333 29 -76
s43.666 -31 72.999 -31c24.667 0 48.334 9.66699 71.001 29l39 -51c-28.667 -28.667 -65.334 -43 -110.001 -43z" />
    <glyph glyph-name="ordfeminine" unicode="&#xaa;" horiz-adv-x="420" 
d="M281 410v22c-24 -18 -52.333 -27 -85 -27c-43.333 0 -79.5 14.833 -108.5 44.5s-43.5 66.5 -43.5 110.5s14.5 80.833 43.5 110.5s65.167 44.5 108.5 44.5c32.667 0 61 -9 85 -27v22h69v-300h-69zM198 470c38 0 65.667 14.665 83 43.998v93c-18 28.667 -45.667 43 -83 43
c-24 0 -43.833 -8.66699 -59.5 -26s-23.5 -38.666 -23.5 -63.999s7.83301 -46.666 23.5 -63.999s35.5 -26 59.5 -26z" />
    <glyph glyph-name="guillemotleft" unicode="&#xab;" horiz-adv-x="509" 
d="M396 29l-152 221l152 221l62 -42l-123 -179l123 -179zM194 29l-152 221l152 221l62 -42l-123 -179l123 -179z" />
    <glyph glyph-name="uni00AD" unicode="&#xad;" horiz-adv-x="375" 
d="M66 229v89h243v-89h-243z" />
    <glyph glyph-name="registered" unicode="&#xae;" horiz-adv-x="816" 
d="M408 -9c-100 0 -185.5 35.5 -256.5 106.5s-106.5 156.5 -106.5 256.5s35.5 185.667 106.5 257s156.5 107 256.5 107s185.5 -35.667 256.5 -107s106.5 -157 106.5 -257s-35.5 -185.5 -106.5 -256.5s-156.5 -106.5 -256.5 -106.5zM407 61
c81.333 0 150.666 28.667 207.999 86s86 126.333 86 207c0 81.333 -28.667 150.666 -86 207.999s-126.666 86 -207.999 86c-80.667 0 -149.667 -28.667 -207 -86s-86 -126.666 -86 -207.999c0 -80.667 28.667 -149.667 86 -207s126.333 -86 207 -86zM303 186
l-0.000976562 335.999h108c32.667 0 59.834 -9.16699 81.501 -27.5s32.5 -43.166 32.5 -74.499c0 -46 -22.667 -77.333 -68 -94l104 -140h-82l-94 132h-14v-132h-68zM370.999 377.999h34c33.333 0 50 13.333 50 40c0 28 -16.667 42 -50 42h-34v-82z" />
    <glyph glyph-name="macron" unicode="&#xaf;" 
d="M-146 614v65h292v-65h-292z" />
    <glyph glyph-name="degree" unicode="&#xb0;" horiz-adv-x="332" 
d="M166 470c-34 0 -62.833 11.833 -86.5 35.5s-35.5 52.5 -35.5 86.5s11.833 62.833 35.5 86.5s52.5 35.5 86.5 35.5s62.833 -11.833 86.5 -35.5s35.5 -52.5 35.5 -86.5s-11.833 -62.833 -35.5 -86.5s-52.5 -35.5 -86.5 -35.5zM166 525c18 0 33.501 6.66699 46.501 20
s19.5 29 19.5 47s-6.33301 33.5 -19 46.5s-28.334 19.5 -47.001 19.5c-18 0 -33.667 -6.5 -47 -19.5s-20 -28.5 -20 -46.5s6.66699 -33.667 20 -47s29 -20 47 -20z" />
    <glyph glyph-name="plusminus" unicode="&#xb1;" horiz-adv-x="590" 
d="M260 145v144h-184v70h184v141h70v-141h184v-70h-184v-144h-70zM76 0v70h438v-70h-438z" />
    <glyph glyph-name="twosuperior" unicode="&#xb2;" horiz-adv-x="355" 
d="M20 410l146.999 168.999c-38 2.66699 -69 15.667 -93 39s-36 53 -36 89c0 37.333 13.833 68.666 41.5 93.999s60.834 38 99.501 38s71.667 -12.667 99 -38s41 -56.666 41 -93.999c0 -18.667 -3.83301 -36.667 -11.5 -54s-16 -31.666 -25 -42.999s-24.5 -29.333 -46.5 -54
l-72 -82h146v-64h-290zM178.999 636.999c19.333 0 35.666 6.83301 48.999 20.5s20 30.167 20 49.5s-6.66699 35.666 -20 48.999s-29.666 20 -48.999 20s-35.833 -6.66699 -49.5 -20s-20.5 -29.666 -20.5 -48.999s6.83301 -35.833 20.5 -49.5s30.167 -20.5 49.5 -20.5z" />
    <glyph glyph-name="threesuperior" unicode="&#xb3;" horiz-adv-x="332" 
d="M155 405c-26.667 0 -52.168 6.33301 -76.501 19s-42.5 30 -54.5 52l52 41c18.667 -32.667 45.334 -49 80.001 -49c20.667 0 37.667 7.83301 51 23.5s20 34.5 20 56.5c0 21.333 -7.5 39.5 -22.5 54.5s-35.5 22.5 -61.5 22.5h-42l74 146h-133v63h238l-80 -155
c65.333 -18 98 -61.667 98 -131c0 -38 -13.333 -71.333 -40 -100s-61 -43 -103 -43z" />
    <glyph glyph-name="acute" unicode="&#xb4;" 
d="M99 710l-123 -160h-71l85 160h109z" />
    <glyph glyph-name="paragraph" unicode="&#xb6;" horiz-adv-x="635" 
d="M255 -184v444c-62 0 -115 22 -159 66s-66 97 -66 159s22 115 66 159s97 66 159 66h275v-894h-78v816h-118v-816h-79z" />
    <glyph glyph-name="periodcentered" unicode="&#xb7;" horiz-adv-x="270" 
d="M135 175c-20 0 -37.333 7.16699 -52 21.5s-22 31.833 -22 52.5c0 21.333 7.33301 39 22 53s32 21 52 21s37.333 -7 52 -21s22 -31.667 22 -53c0 -20.667 -7.33301 -38.167 -22 -52.5s-32 -21.5 -52 -21.5z" />
    <glyph glyph-name="cedilla" unicode="&#xb8;" 
d="M-84 -165l93 165h59l-54 -165h-98z" />
    <glyph glyph-name="onesuperior" unicode="&#xb9;" horiz-adv-x="188" 
d="M58 410v364l69 65v-429h-69z" />
    <glyph glyph-name="ordmasculine" unicode="&#xba;" horiz-adv-x="398" 
d="M199 405c-45.333 0 -82.666 14.833 -111.999 44.5s-44 66.5 -44 110.5s14.667 80.833 44 110.5s66.666 44.5 111.999 44.5s82.666 -14.833 111.999 -44.5s44 -66.5 44 -110.5s-14.667 -80.833 -44 -110.5s-66.666 -44.5 -111.999 -44.5zM199 470
c25.333 0 45.666 8.5 60.999 25.5s23 38.5 23 64.5s-7.66699 47.5 -23 64.5s-35.666 25.5 -60.999 25.5s-45.833 -8.5 -61.5 -25.5s-23.5 -38.5 -23.5 -64.5s7.83301 -47.5 23.5 -64.5s36.167 -25.5 61.5 -25.5z" />
    <glyph glyph-name="guillemotright" unicode="&#xbb;" horiz-adv-x="509" 
d="M315 29l-62 42l123 179l-123 179l62 42l152 -221zM113 29l-62 42l123 179l-123 179l62 42l152 -221z" />
    <glyph glyph-name="onequarter" unicode="&#xbc;" horiz-adv-x="723" 
d="M58 287v364l69 65v-429h-69zM9 0l500 710h80l-500 -710h-80zM570 0v114h-232l301 315v-252h53v-63h-53v-114h-69zM478 177h92v94z" />
    <glyph glyph-name="onehalf" unicode="&#xbd;" horiz-adv-x="743" 
d="M58 287v364l69 65v-429h-69zM9 0l500 710h80l-500 -710h-80zM408 0l146.999 168.999c-38 2.66699 -69 15.667 -93 39s-36 53 -36 89c0 37.333 13.833 68.666 41.5 93.999s60.834 38 99.501 38s71.667 -12.667 99 -38s41 -56.666 41 -93.999
c0 -18.667 -3.83301 -36.667 -11.5 -54s-16 -31.666 -25 -42.999s-24.5 -29.333 -46.5 -54l-72 -82h146v-64h-290zM566.999 226.999c19.333 0 35.666 6.83301 48.999 20.5s20 30.167 20 49.5s-6.66699 35.666 -20 48.999s-29.666 20 -48.999 20s-35.833 -6.66699 -49.5 -20
s-20.5 -29.666 -20.5 -48.999s6.83301 -35.833 20.5 -49.5s30.167 -20.5 49.5 -20.5z" />
    <glyph glyph-name="threequarters" unicode="&#xbe;" horiz-adv-x="847" 
d="M155 281c-26.667 0 -52.168 6.33301 -76.501 19s-42.5 30 -54.5 52l52 41c18.667 -32.667 45.334 -49 80.001 -49c20.667 0 37.667 7.83301 51 23.5s20 34.5 20 56.5c0 21.333 -7.5 39.5 -22.5 54.5s-35.5 22.5 -61.5 22.5h-42l74 146h-133v63h238l-80 -155
c65.333 -18 98 -61.667 98 -131c0 -38 -13.333 -71.333 -40 -100s-61 -43 -103 -43zM132.999 0l500 710h80l-500 -710h-80zM693.999 0v114h-232l301 315v-252h53v-63h-53v-114h-69zM601.999 177h92v94z" />
    <glyph glyph-name="questiondown" unicode="&#xbf;" horiz-adv-x="502" 
d="M294 372l-79.999 -0.000976562c-22.667 14.667 -34 35.334 -34 62.001c0 20.667 7.16699 38.167 21.5 52.5s32.166 21.5 53.499 21.5c20 0 37.167 -7.16699 51.5 -21.5s21.5 -31.833 21.5 -52.5c0 -27.333 -11.333 -48 -34 -62zM258.001 -194.001
c-60.667 0 -111.834 20.5 -153.501 61.5s-62.5 91.5 -62.5 151.5s20.833 110.5 62.5 151.5s92.834 61.5 153.501 61.5h60v-79h-60c-38 0 -69.333 -12.833 -94 -38.5s-37 -57.5 -37 -95.5c0 -38.667 12.333 -70.667 37 -96s56 -38 94 -38s69.167 12.667 93.5 38
s36.5 57.333 36.5 96h85c0 -60 -20.667 -110.5 -62 -151.5s-92.333 -61.5 -153 -61.5z" />
    <glyph glyph-name="Agrave" unicode="&#xc0;" horiz-adv-x="678" 
d="M-7 0l346 718l346 -718h-98l-88 186h-320l-88 -186h-98zM219 270h240l-120 254zM297 768l-113 145h109l77 -145h-73z" />
    <glyph glyph-name="Aacute" unicode="&#xc1;" horiz-adv-x="678" 
d="M339 718l-346 -718h98l88 186h320l88 -186h98zM459 270h-240l120 254zM490 913l-113 -145h-73l77 145h109z" />
    <glyph glyph-name="Acircumflex" unicode="&#xc2;" horiz-adv-x="678" 
d="M-7 0l346 718l346 -718h-98l-88 186h-320l-88 -186h-98zM219 270h240l-120 254zM201 766l-35 60l173 100l173 -100l-35 -60l-138 82z" />
    <glyph glyph-name="Atilde" unicode="&#xc3;" horiz-adv-x="678" 
d="M-7 0l346 718l346 -718h-98l-88 186h-320l-88 -186h-98zM219 270h240l-120 254zM166 784l3 19c6 29.333 18.667 52.333 38 69s41 25 65 25c20 0 43.833 -7.33301 71.5 -22s45.834 -22 54.501 -22c24.667 0 40.667 14.667 48 44h66l-3 -18
c-5.33301 -28 -17.5 -50.667 -36.5 -68s-41.167 -26 -66.5 -26c-20.667 0 -44.834 7.33301 -72.501 22s-46.167 22 -55.5 22c-24 0 -39.333 -15 -46 -45h-66z" />
    <glyph glyph-name="Adieresis" unicode="&#xc4;" horiz-adv-x="678" 
d="M-7 0l346 718l346 -718h-98l-88 186h-320l-88 -186h-98zM219 270h240l-120 254zM453 785c-16.667 0 -31.001 5.66699 -43.001 17s-18 25.666 -18 42.999c0 16.667 5.83301 30.667 17.5 42s26.167 17 43.5 17c16.667 0 30.834 -5.66699 42.501 -17s17.5 -25.333 17.5 -42
c0 -17.333 -6 -31.666 -18 -42.999s-26 -17 -42 -17zM227.999 785c-16.667 0 -31.001 5.66699 -43.001 17s-18 25.666 -18 42.999c0 16.667 5.83301 30.667 17.5 42s26.167 17 43.5 17c16.667 0 30.834 -5.66699 42.501 -17s17.5 -25.333 17.5 -42
c0 -17.333 -6 -31.666 -18 -42.999s-26 -17 -42 -17z" />
    <glyph glyph-name="Aring" unicode="&#xc5;" horiz-adv-x="678" 
d="M-7 0l346 718l346 -718h-98l-88 186h-320l-88 -186h-98zM219 270h240l-120 254zM339 751c-28 0 -51.5 9 -70.5 27s-28.5 40.333 -28.5 67c0 27.333 9.5 50 28.5 68s42.5 27 70.5 27s51.5 -9 70.5 -27s28.5 -40.667 28.5 -68c0 -26.667 -9.5 -49 -28.5 -67
s-42.5 -27 -70.5 -27zM339 798c14 0 25.5 4.33301 34.5 13s13.5 20 13.5 34s-4.5 25.5 -13.5 34.5s-20.5 13.5 -34.5 13.5s-25.5 -4.5 -34.5 -13.5s-13.5 -20.5 -13.5 -34.5s4.5 -25.333 13.5 -34s20.5 -13 34.5 -13z" />
    <glyph glyph-name="AE" unicode="&#xc6;" horiz-adv-x="998" 
d="M100 0h-98l299 621l-42 89h399l42 -88h-306l104 -215h262l42 -88h-262l111 -231h306l43 -88h-404l-88 186h-320zM228 270h240l-120 253z" />
    <glyph glyph-name="Ccedilla" unicode="&#xc7;" horiz-adv-x="722" 
d="M409 -8c-102 0 -188 34.8291 -258 104.496s-105 155.834 -105 258.501s35 188.834 105 258.501s156 104.5 258 104.5c60 0 115.333 -12.667 166 -38s90 -57.666 118 -96.999l-65 -57c-51.333 70 -124.333 105 -219 105c-77.333 0 -141.666 -26.5 -192.999 -79.5
s-77 -118.5 -77 -196.5s25.667 -143.5 77 -196.5s115.666 -79.5 192.999 -79.5c94.667 0 167.667 35 219 105l65 -57c-28 -39.333 -67.333 -71.666 -118 -96.999s-106 -38 -166 -38zM313 -165.004l93 165h59l-54 -165h-98z" />
    <glyph glyph-name="Egrave" unicode="&#xc8;" horiz-adv-x="555" 
d="M95 0v710h410v-88h-319v-215h259v-88h-259v-231h319v-88h-410zM265 768l-113 145h109l77 -145h-73z" />
    <glyph glyph-name="Eacute" unicode="&#xc9;" horiz-adv-x="555" 
d="M95 710v-710h410v88h-319v231h259v88h-259v215h319v88h-410zM458 913l-113 -145h-73l77 145h109z" />
    <glyph glyph-name="Ecircumflex" unicode="&#xca;" horiz-adv-x="555" 
d="M95 0v710h410v-88h-319v-215h259v-88h-259v-231h319v-88h-410zM169 766l-35 60l173 100l173 -100l-35 -60l-138 82z" />
    <glyph glyph-name="Edieresis" unicode="&#xcb;" horiz-adv-x="555" 
d="M95 0v710h410v-88h-319v-215h259v-88h-259v-231h319v-88h-410zM421 785c-16.667 0 -31.001 5.66699 -43.001 17s-18 25.666 -18 42.999c0 16.667 5.83301 30.667 17.5 42s26.167 17 43.5 17c16.667 0 30.834 -5.66699 42.501 -17s17.5 -25.333 17.5 -42
c0 -17.333 -6 -31.666 -18 -42.999s-26 -17 -42 -17zM195.999 785c-16.667 0 -31.001 5.66699 -43.001 17s-18 25.666 -18 42.999c0 16.667 5.83301 30.667 17.5 42s26.167 17 43.5 17c16.667 0 30.834 -5.66699 42.501 -17s17.5 -25.333 17.5 -42
c0 -17.333 -6 -31.666 -18 -42.999s-26 -17 -42 -17z" />
    <glyph glyph-name="Igrave" unicode="&#xcc;" horiz-adv-x="281" 
d="M95 0v710h91v-710h-91zM98 768l-113 145h109l77 -145h-73z" />
    <glyph glyph-name="Iacute" unicode="&#xcd;" horiz-adv-x="281" 
d="M95 710v-710h91v710h-91zM291 913l-113 -145h-73l77 145h109z" />
    <glyph glyph-name="Icircumflex" unicode="&#xce;" horiz-adv-x="281" 
d="M95 0v710h91v-710h-91zM2 766l-35 60l173 100l173 -100l-35 -60l-138 82z" />
    <glyph glyph-name="Idieresis" unicode="&#xcf;" horiz-adv-x="281" 
d="M95 0v710h91v-710h-91zM254 785c-16.667 0 -31.001 5.66699 -43.001 17s-18 25.666 -18 42.999c0 16.667 5.83301 30.667 17.5 42s26.167 17 43.5 17c16.667 0 30.834 -5.66699 42.501 -17s17.5 -25.333 17.5 -42c0 -17.333 -6 -31.666 -18 -42.999s-26 -17 -42 -17z
M28.999 785c-16.667 0 -31.001 5.66699 -43.001 17s-18 25.666 -18 42.999c0 16.667 5.83301 30.667 17.5 42s26.167 17 43.5 17c16.667 0 30.834 -5.66699 42.501 -17s17.5 -25.333 17.5 -42c0 -17.333 -6 -31.666 -18 -42.999s-26 -17 -42 -17z" />
    <glyph glyph-name="Eth" unicode="&#xd0;" horiz-adv-x="765" 
d="M129 0v710h211c109.333 0 199.833 -33.667 271.5 -101s107.5 -152 107.5 -254s-35.833 -186.667 -107.5 -254s-162.167 -101 -271.5 -101h-211zM220 85l120 -0.00195312c85.333 0 154.333 25.333 207 76s79 115.334 79 194.001s-26.333 143.334 -79 194.001
s-121.667 76 -207 76h-120v-540zM8 318.998v74h333v-74h-333z" />
    <glyph glyph-name="Ntilde" unicode="&#xd1;" horiz-adv-x="787" 
d="M692 -8l-506 513v-505h-91v718l506 -513v505h91v-718zM215 784l3 19c6 29.333 18.667 52.333 38 69s41 25 65 25c20 0 43.833 -7.33301 71.5 -22s45.834 -22 54.501 -22c24.667 0 40.667 14.667 48 44h66l-3 -18c-5.33301 -28 -17.5 -50.667 -36.5 -68
s-41.167 -26 -66.5 -26c-20.667 0 -44.834 7.33301 -72.501 22s-46.167 22 -55.5 22c-24 0 -39.333 -15 -46 -45h-66z" />
    <glyph glyph-name="Ograve" unicode="&#xd2;" horiz-adv-x="818" 
d="M409 -8c-102 0 -188 34.833 -258 104.5s-105 155.834 -105 258.501s35 188.834 105 258.501s156 104.5 258 104.5s188 -34.833 258 -104.5s105 -155.834 105 -258.501s-35 -188.834 -105 -258.501s-156 -104.5 -258 -104.5zM409 79c77.333 0 141.666 26.5 192.999 79.5
s77 118.5 77 196.5s-25.667 143.5 -77 196.5s-115.666 79.5 -192.999 79.5s-141.666 -26.5 -192.999 -79.5s-77 -118.5 -77 -196.5s25.667 -143.5 77 -196.5s115.666 -79.5 192.999 -79.5zM368 768l-113 145h109l77 -145h-73z" />
    <glyph glyph-name="Oacute" unicode="&#xd3;" horiz-adv-x="818" 
d="M409 -8c102 0 188 34.833 258 104.5s105 155.834 105 258.501s-35 188.834 -105 258.501s-156 104.5 -258 104.5s-188 -34.833 -258 -104.5s-105 -155.834 -105 -258.501s35 -188.834 105 -258.501s156 -104.5 258 -104.5zM409 79c-77.333 0 -141.666 26.5 -192.999 79.5
s-77 118.5 -77 196.5s25.667 143.5 77 196.5s115.666 79.5 192.999 79.5s141.666 -26.5 192.999 -79.5s77 -118.5 77 -196.5s-25.667 -143.5 -77 -196.5s-115.666 -79.5 -192.999 -79.5zM561 913l-113 -145h-73l77 145h109z" />
    <glyph glyph-name="Ocircumflex" unicode="&#xd4;" horiz-adv-x="818" 
d="M409 -8c-102 0 -188 34.833 -258 104.5s-105 155.834 -105 258.501s35 188.834 105 258.501s156 104.5 258 104.5s188 -34.833 258 -104.5s105 -155.834 105 -258.501s-35 -188.834 -105 -258.501s-156 -104.5 -258 -104.5zM409 79c77.333 0 141.666 26.5 192.999 79.5
s77 118.5 77 196.5s-25.667 143.5 -77 196.5s-115.666 79.5 -192.999 79.5s-141.666 -26.5 -192.999 -79.5s-77 -118.5 -77 -196.5s25.667 -143.5 77 -196.5s115.666 -79.5 192.999 -79.5zM272 766l-35 60l173 100l173 -100l-35 -60l-138 82z" />
    <glyph glyph-name="Otilde" unicode="&#xd5;" horiz-adv-x="818" 
d="M409 -8c-102 0 -188 34.833 -258 104.5s-105 155.834 -105 258.501s35 188.834 105 258.501s156 104.5 258 104.5s188 -34.833 258 -104.5s105 -155.834 105 -258.501s-35 -188.834 -105 -258.501s-156 -104.5 -258 -104.5zM409 79c77.333 0 141.666 26.5 192.999 79.5
s77 118.5 77 196.5s-25.667 143.5 -77 196.5s-115.666 79.5 -192.999 79.5s-141.666 -26.5 -192.999 -79.5s-77 -118.5 -77 -196.5s25.667 -143.5 77 -196.5s115.666 -79.5 192.999 -79.5zM237 783l3 19c6 29.333 18.667 52.333 38 69s41 25 65 25
c20 0 43.833 -7.33301 71.5 -22s45.834 -22 54.501 -22c24.667 0 40.667 14.667 48 44h66l-3 -18c-5.33301 -28 -17.5 -50.667 -36.5 -68s-41.167 -26 -66.5 -26c-20.667 0 -44.834 7.33301 -72.501 22s-46.167 22 -55.5 22c-24 0 -39.333 -15 -46 -45h-66z" />
    <glyph glyph-name="Odieresis" unicode="&#xd6;" horiz-adv-x="818" 
d="M409 -8c-102 0 -188 34.833 -258 104.5s-105 155.834 -105 258.501s35 188.834 105 258.501s156 104.5 258 104.5s188 -34.833 258 -104.5s105 -155.834 105 -258.501s-35 -188.834 -105 -258.501s-156 -104.5 -258 -104.5zM409 79c77.333 0 141.666 26.5 192.999 79.5
s77 118.5 77 196.5s-25.667 143.5 -77 196.5s-115.666 79.5 -192.999 79.5s-141.666 -26.5 -192.999 -79.5s-77 -118.5 -77 -196.5s25.667 -143.5 77 -196.5s115.666 -79.5 192.999 -79.5zM524 784c-16.667 0 -31.001 5.66699 -43.001 17s-18 25.666 -18 42.999
c0 16.667 5.83301 30.667 17.5 42s26.167 17 43.5 17c16.667 0 30.834 -5.66699 42.501 -17s17.5 -25.333 17.5 -42c0 -17.333 -6 -31.666 -18 -42.999s-26 -17 -42 -17zM298.999 784c-16.667 0 -31.001 5.66699 -43.001 17s-18 25.666 -18 42.999
c0 16.667 5.83301 30.667 17.5 42s26.167 17 43.5 17c16.667 0 30.834 -5.66699 42.501 -17s17.5 -25.333 17.5 -42c0 -17.333 -6 -31.666 -18 -42.999s-26 -17 -42 -17z" />
    <glyph glyph-name="multiply" unicode="&#xd7;" horiz-adv-x="590" 
d="M148 70l-50 49l148 148l-150 149l50 49l149 -149l148 147l49 -49l-147 -147l149 -150l-49 -49l-150 149z" />
    <glyph glyph-name="Oslash" unicode="&#xd8;" horiz-adv-x="820" 
d="M127 -57l-56.9961 46l84 105l-2 2c-70 70 -105 156.333 -105 259s35 188.834 105 258.501s156 104.5 258 104.5c51.333 0 98.666 -9.33301 141.999 -28c25.333 -12 43.666 -21.667 54.999 -29l85 107l58 -46l-85 -106l3 -3c70 -68.667 105 -154.667 105 -258
c0 -102.667 -35 -188.834 -105 -258.501s-156 -104.5 -258 -104.5c-50.667 0 -98.334 9 -143.001 27c-24.667 11.333 -43.334 21 -56.001 29zM410.004 79c77.333 0 141.666 26.501 192.999 79.501s77 118.5 77 196.5c0 39.333 -7 75.333 -21 108
c-14 33.333 -30.667 60.666 -50 81.999l-342 -427c10.667 -6.66699 22.334 -12.667 35.001 -18c33.333 -14 69.333 -21 108 -21zM517.004 610.001c-32.667 14 -68.333 21 -107 21c-77.333 0 -141.666 -26.5 -192.999 -79.5s-77 -118.5 -77 -196.5
c0 -38.667 6.66699 -75 20 -109c13.333 -32.667 30 -59.667 50 -81l342 427c-10.667 6.66699 -22.334 12.667 -35.001 18z" />
    <glyph glyph-name="Ugrave" unicode="&#xd9;" horiz-adv-x="738" 
d="M369 -8c-84 0 -152.169 25 -204.502 75s-78.5 117.667 -78.5 203v440h91v-444c0 -60 17.333 -106.167 52 -138.5s81.334 -48.5 140.001 -48.5s105.334 16.167 140.001 48.5s52 78.5 52 138.5v444h91v-440c0 -85.333 -26.167 -153 -78.5 -203s-120.5 -75 -204.5 -75z
M324.998 768l-113 145h109l77 -145h-73z" />
    <glyph glyph-name="Uacute" unicode="&#xda;" horiz-adv-x="738" 
d="M369 -8c84 0 152.169 25 204.502 75s78.5 117.667 78.5 203v440h-91v-444c0 -60 -17.333 -106.167 -52 -138.5s-81.334 -48.5 -140.001 -48.5s-105.334 16.167 -140.001 48.5s-52 78.5 -52 138.5v444h-91v-440c0 -85.333 26.167 -153 78.5 -203s120.5 -75 204.5 -75z
M518.002 913l-113 -145h-73l77 145h109z" />
    <glyph glyph-name="Ucircumflex" unicode="&#xdb;" horiz-adv-x="738" 
d="M369 -8c-84 0 -152.169 25 -204.502 75s-78.5 117.667 -78.5 203v440h91v-444c0 -60 17.333 -106.167 52 -138.5s81.334 -48.5 140.001 -48.5s105.334 16.167 140.001 48.5s52 78.5 52 138.5v444h91v-440c0 -85.333 -26.167 -153 -78.5 -203s-120.5 -75 -204.5 -75z
M228.998 766l-35 60l173 100l173 -100l-35 -60l-138 82z" />
    <glyph glyph-name="Udieresis" unicode="&#xdc;" horiz-adv-x="738" 
d="M369 -8c-84 0 -152.169 25 -204.502 75s-78.5 117.667 -78.5 203v440h91v-444c0 -60 17.333 -106.167 52 -138.5s81.334 -48.5 140.001 -48.5s105.334 16.167 140.001 48.5s52 78.5 52 138.5v444h91v-440c0 -85.333 -26.167 -153 -78.5 -203s-120.5 -75 -204.5 -75z
M480.998 785c-16.667 0 -31.001 5.66699 -43.001 17s-18 25.666 -18 42.999c0 16.667 5.83301 30.667 17.5 42s26.167 17 43.5 17c16.667 0 30.834 -5.66699 42.501 -17s17.5 -25.333 17.5 -42c0 -17.333 -6 -31.666 -18 -42.999s-26 -17 -42 -17zM255.997 785
c-16.667 0 -31.001 5.66699 -43.001 17s-18 25.666 -18 42.999c0 16.667 5.83301 30.667 17.5 42s26.167 17 43.5 17c16.667 0 30.834 -5.66699 42.501 -17s17.5 -25.333 17.5 -42c0 -17.333 -6 -31.666 -18 -42.999s-26 -17 -42 -17z" />
    <glyph glyph-name="Yacute" unicode="&#xdd;" horiz-adv-x="628" 
d="M268 301v-301h92v301l260 409h-106l-200 -319l-200 319h-106zM466 913l-113 -145h-73l77 145h109z" />
    <glyph glyph-name="Thorn" unicode="&#xde;" horiz-adv-x="580" 
d="M95 0v710h91v-136h102c76 0 137 -19.833 183 -59.5s69 -92.167 69 -157.5c0 -66 -23 -118.833 -69 -158.5s-107 -59.5 -183 -59.5h-102v-139h-91zM287 489h-101v-266h101c51.333 0 91 11.833 119 35.5s42 56.5 42 98.5s-13.833 74.5 -41.5 97.5s-67.5 34.5 -119.5 34.5z
" />
    <glyph glyph-name="germandbls" unicode="&#xdf;" horiz-adv-x="543" 
d="M420 56c0 46.667 -16.5 84.665 -49.5 113.998s-76.167 44 -129.5 44v67l95 141h-175v-422h-86v565c0 47.333 13 83.333 39 108s63.333 37 112 37h39v-78h-30c-26.667 0 -45.667 -6.66699 -57 -20s-17 -33.333 -17 -60v-52h325l-151 -224
c56 -17.333 98.5 -45.166 127.5 -83.499s43.5 -83.833 43.5 -136.5c0 -69.333 -24.833 -126.666 -74.5 -171.999s-113.167 -68 -190.5 -68v82c53.333 0 96.5 14.667 129.5 44s49.5 67.333 49.5 114z" />
    <glyph glyph-name="agrave" unicode="&#xe0;" horiz-adv-x="617" 
d="M456 0v50.002c-42.667 -38.667 -95.667 -58 -159 -58c-73.333 0 -134.166 24.667 -182.499 74s-72.5 110.666 -72.5 183.999s24.167 134.666 72.5 183.999s109.166 74 182.499 74c63.333 0 116.333 -19.333 159 -58v50h86v-500h-86zM299 73.002
c34.667 0 65.667 7.33301 93 22s48.666 34.334 63.999 59.001v192c-15.333 24.667 -36.666 44.334 -63.999 59.001s-58.333 22 -93 22c-48.667 0 -88.834 -16.833 -120.501 -50.5s-47.5 -75.834 -47.5 -126.501s15.833 -92.834 47.5 -126.501s71.834 -50.5 120.501 -50.5z
M290 550.002l-123 160h109l85 -160h-71z" />
    <glyph glyph-name="aacute" unicode="&#xe1;" horiz-adv-x="617" 
d="M456 50v-50.002h86v500h-86v-50c-42.667 38.667 -95.667 58 -159 58c-73.333 0 -134.166 -24.667 -182.499 -74s-72.5 -110.666 -72.5 -183.999s24.167 -134.666 72.5 -183.999s109.166 -74 182.499 -74c63.333 0 116.333 19.333 159 58zM299 72.998
c-48.667 0 -88.834 16.833 -120.501 50.5s-47.5 75.834 -47.5 126.501s15.833 92.834 47.5 126.501s71.834 50.5 120.501 50.5c34.667 0 65.667 -7.33301 93 -22s48.666 -34.334 63.999 -59.001v-192c-15.333 -24.667 -36.666 -44.334 -63.999 -59.001s-58.333 -22 -93 -22z
M465 709.998l-123 -160h-71l85 160h109z" />
    <glyph glyph-name="acircumflex" unicode="&#xe2;" horiz-adv-x="617" 
d="M456 0v50.002c-42.667 -38.667 -95.667 -58 -159 -58c-73.333 0 -134.166 24.667 -182.499 74s-72.5 110.666 -72.5 183.999s24.167 134.666 72.5 183.999s109.166 74 182.499 74c63.333 0 116.333 -19.333 159 -58v50h86v-500h-86zM299 73.002
c34.667 0 65.667 7.33301 93 22s48.666 34.334 63.999 59.001v192c-15.333 24.667 -36.666 44.334 -63.999 59.001s-58.333 22 -93 22c-48.667 0 -88.834 -16.833 -120.501 -50.5s-47.5 -75.834 -47.5 -126.501s15.833 -92.834 47.5 -126.501s71.834 -50.5 120.501 -50.5z
M313 718.002l161 -109l-38 -55l-123 83l-123 -83l-38 55z" />
    <glyph glyph-name="atilde" unicode="&#xe3;" horiz-adv-x="617" 
d="M456 0v50.002c-42.667 -38.667 -95.667 -58 -159 -58c-73.333 0 -134.166 24.667 -182.499 74s-72.5 110.666 -72.5 183.999s24.167 134.666 72.5 183.999s109.166 74 182.499 74c63.333 0 116.333 -19.333 159 -58v50h86v-500h-86zM299 73.002
c34.667 0 65.667 7.33301 93 22s48.666 34.334 63.999 59.001v192c-15.333 24.667 -36.666 44.334 -63.999 59.001s-58.333 22 -93 22c-48.667 0 -88.834 -16.833 -120.501 -50.5s-47.5 -75.834 -47.5 -126.501s15.833 -92.834 47.5 -126.501s71.834 -50.5 120.501 -50.5z
M141 566.002l3 19c6 29.333 18.667 52.333 38 69s41 25 65 25c20 0 43.833 -7.33301 71.5 -22s45.834 -22 54.501 -22c24.667 0 40.667 14.667 48 44h66l-3 -18c-5.33301 -28 -17.5 -50.667 -36.5 -68s-41.167 -26 -66.5 -26c-20.667 0 -44.834 7.33301 -72.501 22
s-46.167 22 -55.5 22c-24 0 -39.333 -15 -46 -45h-66z" />
    <glyph glyph-name="adieresis" unicode="&#xe4;" horiz-adv-x="617" 
d="M456 0v50.002c-42.667 -38.667 -95.667 -58 -159 -58c-73.333 0 -134.166 24.667 -182.499 74s-72.5 110.666 -72.5 183.999s24.167 134.666 72.5 183.999s109.166 74 182.499 74c63.333 0 116.333 -19.333 159 -58v50h86v-500h-86zM299 73.002
c34.667 0 65.667 7.33301 93 22s48.666 34.334 63.999 59.001v192c-15.333 24.667 -36.666 44.334 -63.999 59.001s-58.333 22 -93 22c-48.667 0 -88.834 -16.833 -120.501 -50.5s-47.5 -75.834 -47.5 -126.501s15.833 -92.834 47.5 -126.501s71.834 -50.5 120.501 -50.5z
M427 571.002c-16.667 0 -31.001 5.66699 -43.001 17s-18 25.666 -18 42.999c0 16.667 5.83301 30.667 17.5 42s26.167 17 43.5 17c16.667 0 30.834 -5.66699 42.501 -17s17.5 -25.333 17.5 -42c0 -17.333 -6 -31.666 -18 -42.999s-26 -17 -42 -17zM201.999 571.002
c-16.667 0 -31.001 5.66699 -43.001 17s-18 25.666 -18 42.999c0 16.667 5.83301 30.667 17.5 42s26.167 17 43.5 17c16.667 0 30.834 -5.66699 42.501 -17s17.5 -25.333 17.5 -42c0 -17.333 -6 -31.666 -18 -42.999s-26 -17 -42 -17z" />
    <glyph glyph-name="aring" unicode="&#xe5;" horiz-adv-x="617" 
d="M456 0v50.002c-42.667 -38.667 -95.667 -58 -159 -58c-73.333 0 -134.166 24.667 -182.499 74s-72.5 110.666 -72.5 183.999s24.167 134.666 72.5 183.999s109.166 74 182.499 74c63.333 0 116.333 -19.333 159 -58v50h86v-500h-86zM299 73.002
c34.667 0 65.667 7.33301 93 22s48.666 34.334 63.999 59.001v192c-15.333 24.667 -36.666 44.334 -63.999 59.001s-58.333 22 -93 22c-48.667 0 -88.834 -16.833 -120.501 -50.5s-47.5 -75.834 -47.5 -126.501s15.833 -92.834 47.5 -126.501s71.834 -50.5 120.501 -50.5z
M313 566.002c-28 0 -51.5 9 -70.5 27s-28.5 40.333 -28.5 67c0 27.333 9.5 50 28.5 68s42.5 27 70.5 27s51.5 -9 70.5 -27s28.5 -40.667 28.5 -68c0 -26.667 -9.5 -49 -28.5 -67s-42.5 -27 -70.5 -27zM313 613.002c14 0 25.5 4.33301 34.5 13s13.5 20 13.5 34
s-4.5 25.5 -13.5 34.5s-20.5 13.5 -34.5 13.5s-25.5 -4.5 -34.5 -13.5s-13.5 -20.5 -13.5 -34.5s4.5 -25.333 13.5 -34s20.5 -13 34.5 -13z" />
    <glyph glyph-name="ae" unicode="&#xe6;" horiz-adv-x="921" 
d="M796 133l54.999 -60.0029c-51.333 -54 -118.333 -81 -201 -81c-86 0 -154.333 33 -205 99c-56 -66 -126.667 -99 -212 -99c-60.667 0 -109 14.833 -145 44.5s-54 70.167 -54 121.5c0 48 19.167 87.333 57.5 118s87.5 46 147.5 46c58.667 0 109.667 -12 153 -36v25
c0 77.333 -46 116 -138 116c-53.333 0 -100.666 -17 -141.999 -51l-41 70c50.667 41.333 112 62 184 62c94 0 157.333 -33 190 -99c24.667 32.667 54.5 57.334 89.5 74.001s71.5 25 109.5 25c71.333 0 129.5 -24.667 174.5 -74s68.167 -117.666 69.5 -204.999h-407
c5.33301 -47.333 24 -85.166 56 -113.499s69.667 -42.5 113 -42.5c57.333 0 106 20 146 60zM638.999 428.997c-33.333 0 -65 -10.833 -95 -32.5s-49.333 -52.5 -58 -92.5h305c-6 40 -23 71 -51 93s-61.667 32.667 -101 32zM236.999 72.9971c72 0 123.665 25.667 154.998 77
v56c-37.333 28.667 -86 43 -146 43c-35.333 0 -64.666 -7.83301 -87.999 -23.5s-35 -38.167 -35 -67.5c0 -28.667 10.833 -50 32.5 -64s48.834 -21 81.501 -21z" />
    <glyph glyph-name="ccedilla" unicode="&#xe7;" horiz-adv-x="517" 
d="M298 -8c-73.333 0 -134.5 24.833 -183.5 74.5s-73.5 110.834 -73.5 183.501s24.5 133.834 73.5 183.501s110.167 74.5 183.5 74.5c76 0 139.667 -26.333 191 -79l-55 -60c-38.667 38.667 -84 58 -136 58c-48.667 0 -88.834 -16.833 -120.501 -50.5
s-47.5 -75.834 -47.5 -126.501s15.833 -92.834 47.5 -126.501s71.834 -50.5 120.501 -50.5c52 0 97.333 19.333 136 58l55 -60c-51.333 -52.667 -115 -79 -191 -79zM176 -165l93 165h59l-54 -165h-98z" />
    <glyph glyph-name="egrave" unicode="&#xe8;" horiz-adv-x="569" 
d="M298 -8c-73.333 0 -134.499 24.833 -183.499 74.5s-73.5 110.834 -73.5 183.501s24.333 133.834 73 183.501s108 74.5 178 74.5c74 0 133.167 -25.833 177.5 -77.5s66.5 -118.834 66.5 -201.501h-406c4 -46.667 22.167 -84.334 54.5 -113.001s70.166 -43 113.499 -43
c57.333 0 106 20 146 60l55 -60c-51.333 -54 -118.333 -81 -201 -81zM287.001 429c-34 0 -65.667 -10.5 -95 -31.5s-48.333 -52.167 -57 -93.5h304c-6 40 -23 71 -51 93s-61.667 32.667 -101 32zM269.001 550l-123 160h109l85 -160h-71z" />
    <glyph glyph-name="eacute" unicode="&#xe9;" horiz-adv-x="569" 
d="M298 -8c82.667 0 149.666 27 200.999 81l-55 60c-40 -40 -88.667 -60 -146 -60c-43.333 0 -81.166 14.333 -113.499 43s-50.5 66.334 -54.5 113.001h406c0 82.667 -22.167 149.834 -66.5 201.501s-103.5 77.5 -177.5 77.5c-70 0 -129.333 -24.833 -178 -74.5
s-73 -110.834 -73 -183.501s24.5 -133.834 73.5 -183.501s110.167 -74.5 183.5 -74.5zM286.999 429c39.333 0.666992 73 -10 101 -32s45 -53 51 -93h-304c8.66699 41.333 27.667 72.5 57 93.5s61 31.5 95 31.5zM443.999 710l-123 -160h-71l85 160h109z" />
    <glyph glyph-name="ecircumflex" unicode="&#xea;" horiz-adv-x="569" 
d="M298 -8c-73.333 0 -134.499 24.833 -183.499 74.5s-73.5 110.834 -73.5 183.501s24.333 133.834 73 183.501s108 74.5 178 74.5c74 0 133.167 -25.833 177.5 -77.5s66.5 -118.834 66.5 -201.501h-406c4 -46.667 22.167 -84.334 54.5 -113.001s70.166 -43 113.499 -43
c57.333 0 106 20 146 60l55 -60c-51.333 -54 -118.333 -81 -201 -81zM287.001 429c-34 0 -65.667 -10.5 -95 -31.5s-48.333 -52.167 -57 -93.5h304c-6 40 -23 71 -51 93s-61.667 32.667 -101 32zM292.001 718l161 -109l-38 -55l-123 83l-123 -83l-38 55z" />
    <glyph glyph-name="edieresis" unicode="&#xeb;" horiz-adv-x="569" 
d="M298 -8c-73.333 0 -134.499 24.833 -183.499 74.5s-73.5 110.834 -73.5 183.501s24.333 133.834 73 183.501s108 74.5 178 74.5c74 0 133.167 -25.833 177.5 -77.5s66.5 -118.834 66.5 -201.501h-406c4 -46.667 22.167 -84.334 54.5 -113.001s70.166 -43 113.499 -43
c57.333 0 106 20 146 60l55 -60c-51.333 -54 -118.333 -81 -201 -81zM287.001 429c-34 0 -65.667 -10.5 -95 -31.5s-48.333 -52.167 -57 -93.5h304c-6 40 -23 71 -51 93s-61.667 32.667 -101 32zM406.001 571c-16.667 0 -31.001 5.66699 -43.001 17s-18 25.666 -18 42.999
c0 16.667 5.83301 30.667 17.5 42s26.167 17 43.5 17c16.667 0 30.834 -5.66699 42.501 -17s17.5 -25.333 17.5 -42c0 -17.333 -6 -31.666 -18 -42.999s-26 -17 -42 -17zM181 571c-16.667 0 -31.001 5.66699 -43.001 17s-18 25.666 -18 42.999
c0 16.667 5.83301 30.667 17.5 42s26.167 17 43.5 17c16.667 0 30.834 -5.66699 42.501 -17s17.5 -25.333 17.5 -42c0 -17.333 -6 -31.666 -18 -42.999s-26 -17 -42 -17z" />
    <glyph glyph-name="igrave" unicode="&#xec;" horiz-adv-x="236" 
d="M75 0v500h86v-500h-86zM95 550l-123 160h109l85 -160h-71z" />
    <glyph glyph-name="iacute" unicode="&#xed;" horiz-adv-x="236" 
d="M75 500v-500h86v500h-86zM270 710l-123 -160h-71l85 160h109z" />
    <glyph glyph-name="icircumflex" unicode="&#xee;" horiz-adv-x="236" 
d="M75 0v500h86v-500h-86zM118 718l161 -109l-38 -55l-123 83l-123 -83l-38 55z" />
    <glyph glyph-name="idieresis" unicode="&#xef;" horiz-adv-x="236" 
d="M75 0v500h86v-500h-86zM17 571c-16.667 0 -31 5.66699 -43 17s-18 25.666 -18 42.999c0 16 5.83301 29.833 17.5 41.5s26.167 17.5 43.5 17.5c16.667 0 30.834 -5.83301 42.501 -17.5s17.5 -25.5 17.5 -41.5c0 -17.333 -5.83301 -31.666 -17.5 -42.999
s-25.834 -17 -42.501 -17zM220 571c-16.667 0 -31 5.66699 -43 17s-18 25.666 -18 42.999c0 16 5.83301 29.833 17.5 41.5s26.167 17.5 43.5 17.5c16.667 0 30.834 -5.83301 42.501 -17.5s17.5 -25.5 17.5 -41.5c0 -17.333 -5.83301 -31.666 -17.5 -42.999
s-25.834 -17 -42.501 -17z" />
    <glyph glyph-name="eth" unicode="&#xf0;" horiz-adv-x="602" 
d="M175 563v65h86l-56 82h94l57 -82h124v-65h-80l106 -153c36 -54 54 -107.333 54 -160c0 -71.333 -24.833 -132.166 -74.5 -182.499s-111.5 -75.5 -185.5 -75.5c-73.333 0 -134.833 25.167 -184.5 75.5s-74.5 111.166 -74.5 182.499s23.667 131.5 71 180.5
s107.333 74.833 180 77.5c18.667 0 37.667 -2.66699 57 -8l-43 63h-131zM300 71c50.667 0 92 17.167 124 51.5s48 76.833 48 127.5s-16 93.167 -48 127.5s-73.333 51.5 -124 51.5c-50 0 -91.167 -17.167 -123.5 -51.5s-48.5 -76.833 -48.5 -127.5
s16.167 -93.167 48.5 -127.5s73.5 -51.5 123.5 -51.5z" />
    <glyph glyph-name="ntilde" unicode="&#xf1;" horiz-adv-x="578" 
d="M75 0l0.000976562 500h86v-57c35.333 43.333 87 65 155 65c56.667 0 103 -18.5 139 -55.5s54 -86.167 54 -147.5v-305h-86v300c0 37.333 -11.333 67.833 -34 91.5s-53.334 35.5 -92.001 35.5c-70.667 0 -116 -34.667 -136 -104v-323h-86zM138.001 566l3 19
c6 29.333 18.667 52.333 38 69s41 25 65 25c20 0 43.833 -7.33301 71.5 -22s45.834 -22 54.501 -22c24.667 0 40.667 14.667 48 44h66l-3 -18c-5.33301 -28 -17.5 -50.667 -36.5 -68s-41.167 -26 -66.5 -26c-20.667 0 -44.834 7.33301 -72.501 22s-46.167 22 -55.5 22
c-24 0 -39.333 -15 -46 -45h-66z" />
    <glyph glyph-name="ograve" unicode="&#xf2;" horiz-adv-x="602" 
d="M301 -8c-74.667 0 -136.667 24.833 -186 74.5s-74 110.834 -74 183.501s24.667 133.834 74 183.501s111.333 74.5 186 74.5c74 0 135.667 -24.833 185 -74.5s74 -110.834 74 -183.501s-24.667 -133.834 -74 -183.501s-111 -74.5 -185 -74.5zM301 73
c50 0 90.833 16.833 122.5 50.5s47.5 75.834 47.5 126.501s-15.833 92.834 -47.5 126.501s-72.5 50.5 -122.5 50.5s-91 -16.833 -123 -50.5s-48 -75.834 -48 -126.501s16 -92.834 48 -126.501s73 -50.5 123 -50.5zM278 550l-123 160h109l85 -160h-71z" />
    <glyph glyph-name="oacute" unicode="&#xf3;" horiz-adv-x="602" 
d="M301 -8c74 0 135.667 24.833 185 74.5s74 110.834 74 183.501s-24.667 133.834 -74 183.501s-111 74.5 -185 74.5c-74.667 0 -136.667 -24.833 -186 -74.5s-74 -110.834 -74 -183.501s24.667 -133.834 74 -183.501s111.333 -74.5 186 -74.5zM301 73
c-50 0 -91 16.833 -123 50.5s-48 75.834 -48 126.501s16 92.834 48 126.501s73 50.5 123 50.5s90.833 -16.833 122.5 -50.5s47.5 -75.834 47.5 -126.501s-15.833 -92.834 -47.5 -126.501s-72.5 -50.5 -122.5 -50.5zM453 710l-123 -160h-71l85 160h109z" />
    <glyph glyph-name="ocircumflex" unicode="&#xf4;" horiz-adv-x="602" 
d="M301 -8c-74.667 0 -136.667 24.833 -186 74.5s-74 110.834 -74 183.501s24.667 133.834 74 183.501s111.333 74.5 186 74.5c74 0 135.667 -24.833 185 -74.5s74 -110.834 74 -183.501s-24.667 -133.834 -74 -183.501s-111 -74.5 -185 -74.5zM301 73
c50 0 90.833 16.833 122.5 50.5s47.5 75.834 47.5 126.501s-15.833 92.834 -47.5 126.501s-72.5 50.5 -122.5 50.5s-91 -16.833 -123 -50.5s-48 -75.834 -48 -126.501s16 -92.834 48 -126.501s73 -50.5 123 -50.5zM301 718l161 -109l-38 -55l-123 83l-123 -83l-38 55z" />
    <glyph glyph-name="otilde" unicode="&#xf5;" horiz-adv-x="602" 
d="M301 -8c-74.667 0 -136.667 24.833 -186 74.5s-74 110.834 -74 183.501s24.667 133.834 74 183.501s111.333 74.5 186 74.5c74 0 135.667 -24.833 185 -74.5s74 -110.834 74 -183.501s-24.667 -133.834 -74 -183.501s-111 -74.5 -185 -74.5zM301 73
c50 0 90.833 16.833 122.5 50.5s47.5 75.834 47.5 126.501s-15.833 92.834 -47.5 126.501s-72.5 50.5 -122.5 50.5s-91 -16.833 -123 -50.5s-48 -75.834 -48 -126.501s16 -92.834 48 -126.501s73 -50.5 123 -50.5zM129 566l3 19c6 29.333 18.667 52.333 38 69s41 25 65 25
c20 0 43.833 -7.33301 71.5 -22s45.834 -22 54.501 -22c24.667 0 40.667 14.667 48 44h66l-3 -18c-5.33301 -28 -17.5 -50.667 -36.5 -68s-41.167 -26 -66.5 -26c-20.667 0 -44.834 7.33301 -72.501 22s-46.167 22 -55.5 22c-24 0 -39.333 -15 -46 -45h-66z" />
    <glyph glyph-name="odieresis" unicode="&#xf6;" horiz-adv-x="602" 
d="M301 -8c-74.667 0 -136.667 24.833 -186 74.5s-74 110.834 -74 183.501s24.667 133.834 74 183.501s111.333 74.5 186 74.5c74 0 135.667 -24.833 185 -74.5s74 -110.834 74 -183.501s-24.667 -133.834 -74 -183.501s-111 -74.5 -185 -74.5zM301 73
c50 0 90.833 16.833 122.5 50.5s47.5 75.834 47.5 126.501s-15.833 92.834 -47.5 126.501s-72.5 50.5 -122.5 50.5s-91 -16.833 -123 -50.5s-48 -75.834 -48 -126.501s16 -92.834 48 -126.501s73 -50.5 123 -50.5zM415 571c-16.667 0 -31.001 5.66699 -43.001 17
s-18 25.666 -18 42.999c0 16.667 5.83301 30.667 17.5 42s26.167 17 43.5 17c16.667 0 30.834 -5.66699 42.501 -17s17.5 -25.333 17.5 -42c0 -17.333 -6 -31.666 -18 -42.999s-26 -17 -42 -17zM189.999 571c-16.667 0 -31.001 5.66699 -43.001 17s-18 25.666 -18 42.999
c0 16.667 5.83301 30.667 17.5 42s26.167 17 43.5 17c16.667 0 30.834 -5.66699 42.501 -17s17.5 -25.333 17.5 -42c0 -17.333 -6 -31.666 -18 -42.999s-26 -17 -42 -17z" />
    <glyph glyph-name="divide" unicode="&#xf7;" horiz-adv-x="590" 
d="M296 348c-18 0 -33.834 6.33301 -47.501 19s-20.5 28.667 -20.5 48c0 18.667 6.5 34.334 19.5 47.001s29.167 19 48.5 19c18.667 0 34.334 -6.33301 47.001 -19s19 -28.334 19 -47.001c0 -19.333 -6.5 -35.333 -19.5 -48s-28.5 -19 -46.5 -19zM75.999 240v70h438v-70
h-438zM295.999 68c-18 0 -33.834 6.33301 -47.501 19s-20.5 28.667 -20.5 48c0 18.667 6.5 34.334 19.5 47.001s29.167 19 48.5 19c18.667 0 34.334 -6.33301 47.001 -19s19 -28.334 19 -47.001c0 -19.333 -6.5 -35.333 -19.5 -48s-28.5 -19 -46.5 -19z" />
    <glyph glyph-name="oslash" unicode="&#xf8;" horiz-adv-x="607" 
d="M93 -57l-54 44.999l71 86c-19.333 22.667 -35 47.667 -47 75c-12.667 30 -19 63.667 -19 101c0 72.667 24.667 133.834 74 183.501s111.333 74.5 186 74.5c36.667 0 71 -6.66699 103 -20c8 -3.33301 19.333 -9 34 -17l74 89l54 -45l-74 -88c20 -22 36 -47.333 48 -76
c13.333 -32 20 -65.667 20 -101c0 -72.667 -24.667 -133.834 -74 -183.501s-111 -74.5 -185 -74.5c-37.333 0 -72.333 6.66699 -105 20c-16 6.66699 -27.667 12.334 -35 17.001zM304 72.999c50 0 90.833 16.8311 122.5 50.498s47.5 75.834 47.5 126.501
c0 25.333 -4 48.333 -12 69c-6.66699 16.667 -14 30.334 -22 41.001l-222 -266l16 -8c20 -8.66699 43.333 -13 70 -13zM373 412.997c-22 9.33301 -44.999 14.001 -68.999 14.001c-50 0 -91 -16.833 -123 -50.5s-48 -75.834 -48 -126.501c0 -24.667 4 -48 12 -70
c6 -14 13 -27 21 -39l221 265c-2.66699 2 -7.33398 4.33301 -14.001 7z" />
    <glyph glyph-name="ugrave" unicode="&#xf9;" horiz-adv-x="577" 
d="M416 0v56c-34.667 -42.667 -86 -64 -154 -64c-58 0 -104.667 18.5 -140 55.5s-53 86.167 -53 147.5v305h86v-300c0 -37.333 11.333 -67.833 34 -91.5s53 -35.5 91 -35.5c70 0 115.333 33.333 136 100v327h86v-500h-86zM262 550l-123 160h109l85 -160h-71z" />
    <glyph glyph-name="uacute" unicode="&#xfa;" horiz-adv-x="577" 
d="M416 56v-56h86v500h-86v-327c-20.667 -66.667 -66 -100 -136 -100c-38 0 -68.333 11.833 -91 35.5s-34 54.167 -34 91.5v300h-86v-305c0 -61.333 17.667 -110.5 53 -147.5s82 -55.5 140 -55.5c68 0 119.333 21.333 154 64zM437 710l-123 -160h-71l85 160h109z" />
    <glyph glyph-name="ucircumflex" unicode="&#xfb;" horiz-adv-x="577" 
d="M416 0v56c-34.667 -42.667 -86 -64 -154 -64c-58 0 -104.667 18.5 -140 55.5s-53 86.167 -53 147.5v305h86v-300c0 -37.333 11.333 -67.833 34 -91.5s53 -35.5 91 -35.5c70 0 115.333 33.333 136 100v327h86v-500h-86zM285 718l161 -109l-38 -55l-123 83l-123 -83l-38 55
z" />
    <glyph glyph-name="udieresis" unicode="&#xfc;" horiz-adv-x="577" 
d="M416 0v56c-34.667 -42.667 -86 -64 -154 -64c-58 0 -104.667 18.5 -140 55.5s-53 86.167 -53 147.5v305h86v-300c0 -37.333 11.333 -67.833 34 -91.5s53 -35.5 91 -35.5c70 0 115.333 33.333 136 100v327h86v-500h-86zM399 571c-16.667 0 -31.001 5.66699 -43.001 17
s-18 25.666 -18 42.999c0 16.667 5.83301 30.667 17.5 42s26.167 17 43.5 17c16.667 0 30.834 -5.66699 42.501 -17s17.5 -25.333 17.5 -42c0 -17.333 -6 -31.666 -18 -42.999s-26 -17 -42 -17zM173.999 571c-16.667 0 -31.001 5.66699 -43.001 17s-18 25.666 -18 42.999
c0 16.667 5.83301 30.667 17.5 42s26.167 17 43.5 17c16.667 0 30.834 -5.66699 42.501 -17s17.5 -25.333 17.5 -42c0 -17.333 -6 -31.666 -18 -42.999s-26 -17 -42 -17z" />
    <glyph glyph-name="yacute" unicode="&#xfd;" horiz-adv-x="507" 
d="M210 42l-103 -226h91l307 684h-93l-157 -364l-156 364h-93zM409 710l-123 -160h-71l85 160h109z" />
    <glyph glyph-name="thorn" unicode="&#xfe;" horiz-adv-x="617" 
d="M161 -184l-86 -0.00195312v894h86v-260c40.667 38.667 93.667 58 159 58c73.333 0 134.166 -24.667 182.499 -74s72.5 -110.666 72.5 -183.999s-24.167 -134.666 -72.5 -183.999s-109.166 -74 -182.499 -74c-65.333 0 -118.333 19.333 -159 58v-234zM318 426.998
c-34.667 0 -65.834 -7.50195 -93.501 -22.502s-48.834 -34.5 -63.501 -58.5v-192c14.667 -24 35.834 -43.5 63.501 -58.5s58.834 -22.5 93.501 -22.5c48.667 0 88.834 16.833 120.501 50.5s47.5 75.834 47.5 126.501s-15.833 92.834 -47.5 126.501
s-71.834 50.5 -120.501 50.5z" />
    <glyph glyph-name="ydieresis" unicode="&#xff;" horiz-adv-x="507" 
d="M107 -184l103 226l-204 458h93l156 -364l157 364h93l-307 -684h-91zM371 571c-16.667 0 -31.001 5.66699 -43.001 17s-18 25.666 -18 42.999c0 16.667 5.83301 30.667 17.5 42s26.167 17 43.5 17c16.667 0 30.834 -5.66699 42.501 -17s17.5 -25.333 17.5 -42
c0 -17.333 -6 -31.666 -18 -42.999s-26 -17 -42 -17zM145.999 571c-16.667 0 -31.001 5.66699 -43.001 17s-18 25.666 -18 42.999c0 16.667 5.83301 30.667 17.5 42s26.167 17 43.5 17c16.667 0 30.834 -5.66699 42.501 -17s17.5 -25.333 17.5 -42
c0 -17.333 -6 -31.666 -18 -42.999s-26 -17 -42 -17z" />
    <glyph glyph-name="Amacron" unicode="&#x100;" horiz-adv-x="678" 
d="M-7 0l346 718l346 -718h-98l-88 186h-320l-88 -186h-98zM219 270h240l-120 254zM193 803v65h292v-65h-292z" />
    <glyph glyph-name="amacron" unicode="&#x101;" horiz-adv-x="617" 
d="M456 0v50.002c-42.667 -38.667 -95.667 -58 -159 -58c-73.333 0 -134.166 24.667 -182.499 74s-72.5 110.666 -72.5 183.999s24.167 134.666 72.5 183.999s109.166 74 182.499 74c63.333 0 116.333 -19.333 159 -58v50h86v-500h-86zM299 73.002
c34.667 0 65.667 7.33301 93 22s48.666 34.334 63.999 59.001v192c-15.333 24.667 -36.666 44.334 -63.999 59.001s-58.333 22 -93 22c-48.667 0 -88.834 -16.833 -120.501 -50.5s-47.5 -75.834 -47.5 -126.501s15.833 -92.834 47.5 -126.501s71.834 -50.5 120.501 -50.5z
M167 614.002v65h292v-65h-292z" />
    <glyph glyph-name="Abreve" unicode="&#x102;" horiz-adv-x="678" 
d="M-7 0l346 718l346 -718h-98l-88 186h-320l-88 -186h-98zM219 270h240l-120 254zM338 772c-44.667 0 -81.5 13.167 -110.5 39.5s-44.167 58.833 -45.5 97.5h64c1.33301 -22 10.333 -40.667 27 -56s38.667 -23 66 -23s49.5 7.66699 66.5 23s26.167 34 27.5 56h64
c-2.66699 -39.333 -18.167 -72 -46.5 -98s-65.833 -39 -112.5 -39z" />
    <glyph glyph-name="abreve" unicode="&#x103;" horiz-adv-x="617" 
d="M456 0v50.002c-42.667 -38.667 -95.667 -58 -159 -58c-73.333 0 -134.166 24.667 -182.499 74s-72.5 110.666 -72.5 183.999s24.167 134.666 72.5 183.999s109.166 74 182.499 74c63.333 0 116.333 -19.333 159 -58v50h86v-500h-86zM299 73.002
c34.667 0 65.667 7.33301 93 22s48.666 34.334 63.999 59.001v192c-15.333 24.667 -36.666 44.334 -63.999 59.001s-58.333 22 -93 22c-48.667 0 -88.834 -16.833 -120.501 -50.5s-47.5 -75.834 -47.5 -126.501s15.833 -92.834 47.5 -126.501s71.834 -50.5 120.501 -50.5z
M313 573.002c-48 0 -85.667 12.833 -113 38.5s-42.333 58.5 -45 98.5h67c1.33301 -22 10 -40.5 26 -55.5s37.667 -22.5 65 -22.5s49 7.5 65 22.5s24.667 33.5 26 55.5h67c-2.66699 -40 -17.667 -72.833 -45 -98.5s-65 -38.5 -113 -38.5z" />
    <glyph glyph-name="Aogonek" unicode="&#x104;" horiz-adv-x="678" 
d="M-7 0l346.002 718.001l346 -718c-54.667 -24 -82 -52.667 -82 -86c0 -27.333 16.667 -41 50 -41c9.33301 0 20.333 2.33301 33 7v-59c-14.667 -8.66699 -35.334 -13 -62.001 -13c-29.333 0 -54.833 7.66699 -76.5 23s-32.5 36.333 -32.5 63
c0 22.667 7.16699 43.167 21.5 61.5s31.166 33.166 50.499 44.499l-88 186h-320l-88 -186h-98zM219.002 270.001h240l-120 254z" />
    <glyph glyph-name="aogonek" unicode="&#x105;" horiz-adv-x="617" 
d="M456 0v50.002c-42.667 -38.667 -95.667 -58 -159 -58c-73.333 0 -134.166 24.667 -182.499 74s-72.5 110.666 -72.5 183.999s24.167 134.666 72.5 183.999s109.166 74 182.499 74c63.333 0 116.333 -19.333 159 -58v50h86v-500h-86zM299 73.002
c34.667 0 65.667 7.33301 93 22s48.666 34.334 63.999 59.001v192c-15.333 24.667 -36.666 44.334 -63.999 59.001s-58.333 22 -93 22c-48.667 0 -88.834 -16.833 -120.501 -50.5s-47.5 -75.834 -47.5 -126.501s15.833 -92.834 47.5 -126.501s71.834 -50.5 120.501 -50.5z
M481 -191.998c-30 0 -54.999 7.50098 -74.999 22.501s-30 36.167 -30 63.5c0 22.667 8.16699 43.667 24.5 63s34.833 33.666 55.5 42.999h86c-54.667 -24 -82 -52.667 -82 -86c0 -27.333 16.667 -41 50 -41c9.33301 0 20.333 2.33301 33 7v-59
c-14.667 -8.66699 -35.334 -13 -62.001 -13z" />
    <glyph glyph-name="Cacute" unicode="&#x106;" horiz-adv-x="722" 
d="M409 -8c60 0 115.333 12.6709 166 38.0039s90 57.666 118 96.999l-65 57c-51.333 -70 -124.333 -105 -219 -105c-77.333 0 -141.666 26.5 -192.999 79.5s-77 118.5 -77 196.5s25.667 143.5 77 196.5s115.666 79.5 192.999 79.5c94.667 0 167.667 -35 219 -105l65 57
c-28 39.333 -67.333 71.666 -118 96.999s-106 38 -166 38c-102 0 -188 -34.833 -258 -104.5s-105 -155.834 -105 -258.501s35 -188.834 105 -258.501s156 -104.5 258 -104.5zM560 913.004l-113 -145h-73l77 145h109z" />
    <glyph glyph-name="cacute" unicode="&#x107;" horiz-adv-x="517" 
d="M298 -8c76 0 139.667 26.333 191 79l-55 60c-38.667 -38.667 -84 -58 -136 -58c-48.667 0 -88.834 16.833 -120.501 50.5s-47.5 75.834 -47.5 126.501s15.833 92.834 47.5 126.501s71.834 50.5 120.501 50.5c52 0 97.333 -19.333 136 -58l55 60
c-51.333 52.667 -115 79 -191 79c-73.333 0 -134.5 -24.833 -183.5 -74.5s-73.5 -110.834 -73.5 -183.501s24.5 -133.834 73.5 -183.501s110.167 -74.5 183.5 -74.5zM450 710l-123 -160h-71l85 160h109z" />
    <glyph glyph-name="Ccircumflex" unicode="&#x108;" horiz-adv-x="722" 
d="M409 -8c-102 0 -188 34.8291 -258 104.496s-105 155.834 -105 258.501s35 188.834 105 258.501s156 104.5 258 104.5c60 0 115.333 -12.667 166 -38s90 -57.666 118 -96.999l-65 -57c-51.333 70 -124.333 105 -219 105c-77.333 0 -141.666 -26.5 -192.999 -79.5
s-77 -118.5 -77 -196.5s25.667 -143.5 77 -196.5s115.666 -79.5 192.999 -79.5c94.667 0 167.667 35 219 105l65 -57c-28 -39.333 -67.333 -71.666 -118 -96.999s-106 -38 -166 -38zM271 765.996l-35 60l173 100l173 -100l-35 -60l-138 82z" />
    <glyph glyph-name="ccircumflex" unicode="&#x109;" horiz-adv-x="517" 
d="M298 -8c-73.333 0 -134.5 24.833 -183.5 74.5s-73.5 110.834 -73.5 183.501s24.5 133.834 73.5 183.501s110.167 74.5 183.5 74.5c76 0 139.667 -26.333 191 -79l-55 -60c-38.667 38.667 -84 58 -136 58c-48.667 0 -88.834 -16.833 -120.501 -50.5
s-47.5 -75.834 -47.5 -126.501s15.833 -92.834 47.5 -126.501s71.834 -50.5 120.501 -50.5c52 0 97.333 19.333 136 58l55 -60c-51.333 -52.667 -115 -79 -191 -79zM298 718l161 -109l-38 -55l-123 83l-123 -83l-38 55z" />
    <glyph glyph-name="Cdotaccent" unicode="&#x10a;" horiz-adv-x="722" 
d="M409 -8c-102 0 -188 34.8291 -258 104.496s-105 155.834 -105 258.501s35 188.834 105 258.501s156 104.5 258 104.5c60 0 115.333 -12.667 166 -38s90 -57.666 118 -96.999l-65 -57c-51.333 70 -124.333 105 -219 105c-77.333 0 -141.666 -26.5 -192.999 -79.5
s-77 -118.5 -77 -196.5s25.667 -143.5 77 -196.5s115.666 -79.5 192.999 -79.5c94.667 0 167.667 35 219 105l65 -57c-28 -39.333 -67.333 -71.666 -118 -96.999s-106 -38 -166 -38zM409 784.996c-16.667 0 -31 5.66699 -43 17s-18 25.666 -18 42.999
c0 16.667 5.83301 30.667 17.5 42s26.167 17 43.5 17c16.667 0 30.667 -5.66699 42 -17s17 -25.333 17 -42c0 -17.333 -5.83301 -31.666 -17.5 -42.999s-25.5 -17 -41.5 -17z" />
    <glyph glyph-name="cdotaccent" unicode="&#x10b;" horiz-adv-x="517" 
d="M298 -8c-73.333 0 -134.5 24.833 -183.5 74.5s-73.5 110.834 -73.5 183.501s24.5 133.834 73.5 183.501s110.167 74.5 183.5 74.5c76 0 139.667 -26.333 191 -79l-55 -60c-38.667 38.667 -84 58 -136 58c-48.667 0 -88.834 -16.833 -120.501 -50.5
s-47.5 -75.834 -47.5 -126.501s15.833 -92.834 47.5 -126.501s71.834 -50.5 120.501 -50.5c52 0 97.333 19.333 136 58l55 -60c-51.333 -52.667 -115 -79 -191 -79zM299 571c-16.667 0 -31 5.66699 -43 17s-18 25.666 -18 42.999c0 16.667 5.83301 30.667 17.5 42
s26.167 17 43.5 17c16.667 0 30.667 -5.66699 42 -17s17 -25.333 17 -42c0 -17.333 -5.83301 -31.666 -17.5 -42.999s-25.5 -17 -41.5 -17z" />
    <glyph glyph-name="Ccaron" unicode="&#x10c;" horiz-adv-x="722" 
d="M409 -8c-102 0 -188 34.8291 -258 104.496s-105 155.834 -105 258.501s35 188.834 105 258.501s156 104.5 258 104.5c60 0 115.333 -12.667 166 -38s90 -57.666 118 -96.999l-65 -57c-51.333 70 -124.333 105 -219 105c-77.333 0 -141.666 -26.5 -192.999 -79.5
s-77 -118.5 -77 -196.5s25.667 -143.5 77 -196.5s115.666 -79.5 192.999 -79.5c94.667 0 167.667 35 219 105l65 -57c-28 -39.333 -67.333 -71.666 -118 -96.999s-106 -38 -166 -38zM547 925.996l35 -60l-173 -100l-173 100l35 60l138 -82z" />
    <glyph glyph-name="ccaron" unicode="&#x10d;" horiz-adv-x="517" 
d="M298 -8c-73.333 0 -134.5 24.833 -183.5 74.5s-73.5 110.834 -73.5 183.501s24.5 133.834 73.5 183.501s110.167 74.5 183.5 74.5c76 0 139.667 -26.333 191 -79l-55 -60c-38.667 38.667 -84 58 -136 58c-48.667 0 -88.834 -16.833 -120.501 -50.5
s-47.5 -75.834 -47.5 -126.501s15.833 -92.834 47.5 -126.501s71.834 -50.5 120.501 -50.5c52 0 97.333 19.333 136 58l55 -60c-51.333 -52.667 -115 -79 -191 -79zM297 553l-161 109l38 55l123 -83l123 83l38 -55z" />
    <glyph glyph-name="Dcaron" unicode="&#x10e;" horiz-adv-x="731" 
d="M95 0v710h211c109.333 0 199.833 -33.667 271.5 -101s107.5 -152 107.5 -254s-35.833 -186.667 -107.5 -254s-162.167 -101 -271.5 -101h-211zM186 85l120 -0.00195312c85.333 0 154.333 25.333 207 76s79 115.334 79 194.001s-26.333 143.334 -79 194.001
s-121.667 76 -207 76h-120v-540zM476 925.998l35 -60l-173 -100l-173 100l35 60l138 -82z" />
    <glyph glyph-name="dcaron" unicode="&#x10f;" horiz-adv-x="641" 
d="M542 0l-86 0.00195312v50c-40.667 -38.667 -93.667 -58 -159 -58c-73.333 0 -134.166 24.667 -182.499 74s-72.5 110.666 -72.5 183.999s24.167 134.666 72.5 183.999s109.166 74 182.499 74c65.333 0 118.333 -19.333 159 -58v260h86v-710zM299 427.002
c-48.667 0 -88.834 -16.8311 -120.501 -50.498s-47.5 -75.834 -47.5 -126.501s15.833 -92.834 47.5 -126.501s71.834 -50.5 120.501 -50.5c34.667 0 65.834 7.5 93.501 22.5s48.834 34.5 63.501 58.5v192c-14.667 24 -35.834 43.5 -63.501 58.5s-58.834 22.5 -93.501 22.5z
M603 545.004l25 165h87l-51 -165h-61z" />
    <glyph glyph-name="Dcroat" unicode="&#x110;" horiz-adv-x="765" 
d="M129 0v710h211c109.333 0 199.833 -33.667 271.5 -101s107.5 -152 107.5 -254s-35.833 -186.667 -107.5 -254s-162.167 -101 -271.5 -101h-211zM220 85l120 -0.00195312c85.333 0 154.333 25.333 207 76s79 115.334 79 194.001s-26.333 143.334 -79 194.001
s-121.667 76 -207 76h-120v-540zM8 318.998v74h333v-74h-333z" />
    <glyph glyph-name="dcroat" unicode="&#x111;" horiz-adv-x="617" 
d="M542 0l-86 0.00195312v50c-40.667 -38.667 -93.667 -58 -159 -58c-73.333 0 -134.166 24.667 -182.499 74s-72.5 110.666 -72.5 183.999s24.167 134.666 72.5 183.999s109.166 74 182.499 74c65.333 0 118.333 -19.333 159 -58v260h86v-710zM299 427.002
c-48.667 0 -88.834 -16.8311 -120.501 -50.498s-47.5 -75.834 -47.5 -126.501s15.833 -92.834 47.5 -126.501s71.834 -50.5 120.501 -50.5c34.667 0 65.834 7.5 93.501 22.5s48.834 34.5 63.501 58.5v192c-14.667 24 -35.834 43.5 -63.501 58.5s-58.834 22.5 -93.501 22.5z
M285 573.004v65h327v-65h-327z" />
    <glyph glyph-name="Emacron" unicode="&#x112;" horiz-adv-x="555" 
d="M95 0v710h410v-88h-319v-215h259v-88h-259v-231h319v-88h-410zM161 803v65h292v-65h-292z" />
    <glyph glyph-name="emacron" unicode="&#x113;" horiz-adv-x="569" 
d="M298 -8c-73.333 0 -134.499 24.833 -183.499 74.5s-73.5 110.834 -73.5 183.501s24.333 133.834 73 183.501s108 74.5 178 74.5c74 0 133.167 -25.833 177.5 -77.5s66.5 -118.834 66.5 -201.501h-406c4 -46.667 22.167 -84.334 54.5 -113.001s70.166 -43 113.499 -43
c57.333 0 106 20 146 60l55 -60c-51.333 -54 -118.333 -81 -201 -81zM287.001 429c-34 0 -65.667 -10.5 -95 -31.5s-48.333 -52.167 -57 -93.5h304c-6 40 -23 71 -51 93s-61.667 32.667 -101 32zM146.001 614v65h292v-65h-292z" />
    <glyph glyph-name="Ebreve" unicode="&#x114;" horiz-adv-x="555" 
d="M95 0v710h410v-88h-319v-215h259v-88h-259v-231h319v-88h-410zM306 772c-44.667 0 -81.5 13.167 -110.5 39.5s-44.167 58.833 -45.5 97.5h64c1.33301 -22 10.333 -40.667 27 -56s38.667 -23 66 -23s49.5 7.66699 66.5 23s26.167 34 27.5 56h64
c-2.66699 -39.333 -18.167 -72 -46.5 -98s-65.833 -39 -112.5 -39z" />
    <glyph glyph-name="ebreve" unicode="&#x115;" horiz-adv-x="569" 
d="M298 -8c-73.333 0 -134.499 24.833 -183.499 74.5s-73.5 110.834 -73.5 183.501s24.333 133.834 73 183.501s108 74.5 178 74.5c74 0 133.167 -25.833 177.5 -77.5s66.5 -118.834 66.5 -201.501h-406c4 -46.667 22.167 -84.334 54.5 -113.001s70.166 -43 113.499 -43
c57.333 0 106 20 146 60l55 -60c-51.333 -54 -118.333 -81 -201 -81zM287.001 429c-34 0 -65.667 -10.5 -95 -31.5s-48.333 -52.167 -57 -93.5h304c-6 40 -23 71 -51 93s-61.667 32.667 -101 32zM292.001 573c-48 0 -85.667 12.833 -113 38.5s-42.333 58.5 -45 98.5h67
c1.33301 -22 10 -40.5 26 -55.5s37.667 -22.5 65 -22.5s49 7.5 65 22.5s24.667 33.5 26 55.5h67c-2.66699 -40 -17.667 -72.833 -45 -98.5s-65 -38.5 -113 -38.5z" />
    <glyph glyph-name="Edotaccent" unicode="&#x116;" horiz-adv-x="555" 
d="M95 0v710h410v-88h-319v-215h259v-88h-259v-231h319v-88h-410zM307 785c-16.667 0 -31 5.66699 -43 17s-18 25.666 -18 42.999c0 16.667 5.83301 30.667 17.5 42s26.167 17 43.5 17c16.667 0 30.667 -5.66699 42 -17s17 -25.333 17 -42
c0 -17.333 -5.83301 -31.666 -17.5 -42.999s-25.5 -17 -41.5 -17z" />
    <glyph glyph-name="edotaccent" unicode="&#x117;" horiz-adv-x="569" 
d="M298 -8c-73.333 0 -134.499 24.833 -183.499 74.5s-73.5 110.834 -73.5 183.501s24.333 133.834 73 183.501s108 74.5 178 74.5c74 0 133.167 -25.833 177.5 -77.5s66.5 -118.834 66.5 -201.501h-406c4 -46.667 22.167 -84.334 54.5 -113.001s70.166 -43 113.499 -43
c57.333 0 106 20 146 60l55 -60c-51.333 -54 -118.333 -81 -201 -81zM287.001 429c-34 0 -65.667 -10.5 -95 -31.5s-48.333 -52.167 -57 -93.5h304c-6 40 -23 71 -51 93s-61.667 32.667 -101 32zM293.001 571c-16.667 0 -31 5.66699 -43 17s-18 25.666 -18 42.999
c0 16.667 5.83301 30.667 17.5 42s26.167 17 43.5 17c16.667 0 30.667 -5.66699 42 -17s17 -25.333 17 -42c0 -17.333 -5.83301 -31.666 -17.5 -42.999s-25.5 -17 -41.5 -17z" />
    <glyph glyph-name="Eogonek" unicode="&#x118;" horiz-adv-x="555" 
d="M95 0v710h410v-88h-319v-215h259v-88h-259v-231h319v-88h-410zM444 -192c-29.333 0 -54.832 7.66504 -76.499 22.998s-32.5 36.333 -32.5 63c0 22.667 8 43.834 24 63.501s34.333 33.834 55 42.501h91c-54.667 -24 -82 -52.667 -82 -86c0 -27.333 16.667 -41 50 -41
c9.33301 0 20.333 2.33301 33 7v-59c-14.667 -8.66699 -35.334 -13 -62.001 -13z" />
    <glyph glyph-name="eogonek" unicode="&#x119;" horiz-adv-x="567" 
d="M491 -120l0.000976562 -59.001c-14.667 -8.66699 -35.334 -13 -62.001 -13c-32 0 -58.833 8.33301 -80.5 25s-32.5 40 -32.5 70c0 32 12 63 36 93c-13.333 -2.66699 -31.333 -4 -54 -4c-73.333 0 -134.5 24.833 -183.5 74.5s-73.5 110.834 -73.5 183.501
s24.333 133.834 73 183.501s108 74.5 178 74.5c70.667 0 129 -25 175 -75s69 -118 69 -204h-406c4 -48.667 22.5 -86.834 55.5 -114.501s70.5 -41.5 112.5 -41.5c57.333 0 106 20 146 60l55 -60c-65.333 -62.667 -98 -113 -98 -151c0 -32.667 19 -49 57 -49
c9.33301 0 20.333 2.33301 33 7zM287.001 428.999c-36 0 -68 -10.833 -96 -32.5s-46.667 -52.5 -56 -92.5h304c-6 40 -23 70.833 -51 92.5s-61.667 32.5 -101 32.5z" />
    <glyph glyph-name="Ecaron" unicode="&#x11a;" horiz-adv-x="555" 
d="M95 0v710h410v-88h-319v-215h259v-88h-259v-231h319v-88h-410zM445 926l35 -60l-173 -100l-173 100l35 60l138 -82z" />
    <glyph glyph-name="ecaron" unicode="&#x11b;" horiz-adv-x="569" 
d="M298 -8c-73.333 0 -134.499 24.833 -183.499 74.5s-73.5 110.834 -73.5 183.501s24.333 133.834 73 183.501s108 74.5 178 74.5c74 0 133.167 -25.833 177.5 -77.5s66.5 -118.834 66.5 -201.501h-406c4 -46.667 22.167 -84.334 54.5 -113.001s70.166 -43 113.499 -43
c57.333 0 106 20 146 60l55 -60c-51.333 -54 -118.333 -81 -201 -81zM287.001 429c-34 0 -65.667 -10.5 -95 -31.5s-48.333 -52.167 -57 -93.5h304c-6 40 -23 71 -51 93s-61.667 32.667 -101 32zM291.001 553l-161 109l38 55l123 -83l123 83l38 -55z" />
    <glyph glyph-name="Gcircumflex" unicode="&#x11c;" horiz-adv-x="742" 
d="M409 -8c-102 0 -187.998 34.8311 -257.998 104.498s-105 155.834 -105 258.501s35 188.834 105 258.501s156 104.5 258 104.5c54 0 105 -10.667 153 -32s86.333 -49 115 -83l-65 -58c-52.667 57.333 -120.334 86 -203.001 86c-77.333 0 -141.666 -26.5 -192.999 -79.5
s-77 -118.5 -77 -196.5s25.667 -143.5 77 -196.5s115.666 -79.5 192.999 -79.5c75.333 0 135.666 17.667 180.999 53v187h-218l39 88h270v-317c-22.667 -26.667 -59 -49.667 -109 -69s-104.333 -29 -163 -29zM251.002 765.998l-35 60l173 100l173 -100l-35 -60l-138 82z" />
    <glyph glyph-name="gcircumflex" unicode="&#x11d;" horiz-adv-x="611" 
d="M291 -194c-81.333 0 -152.334 19.668 -213.001 59.001l45 73c48 -34.667 105 -52 171 -52c48.667 0 88.834 10.167 120.501 30.5s47.5 52.166 47.5 95.499c0 24 -4.33301 45 -13 63c-40.667 -40 -93.667 -60 -159 -60c-73.333 0 -132.833 23.333 -178.5 70
s-68.5 105.334 -68.5 176.001s22.833 129.5 68.5 176.5s105.167 70.5 178.5 70.5c62.667 0 114.667 -19.667 156 -59v51h86v-398c12.667 -34 19 -66.667 19 -98c0 -66.667 -25.333 -116.334 -76 -149.001s-112 -49 -184 -49zM291.999 95.001
c34.667 0 65.5 7.49902 92.5 22.499s47.5 34.833 61.5 59.5v169c-14 24.667 -34.5 44.334 -61.5 59.001s-57.833 22 -92.5 22c-47.333 0 -85.833 -15.667 -115.5 -47s-44.5 -71 -44.5 -119c0 -47.333 14.833 -86.833 44.5 -118.5s68.167 -47.5 115.5 -47.5zM289.999 718
l161 -109l-38 -55l-123 83l-123 -83l-38 55z" />
    <glyph glyph-name="Gbreve" unicode="&#x11e;" horiz-adv-x="742" 
d="M409 -8c-102 0 -187.998 34.8311 -257.998 104.498s-105 155.834 -105 258.501s35 188.834 105 258.501s156 104.5 258 104.5c54 0 105 -10.667 153 -32s86.333 -49 115 -83l-65 -58c-52.667 57.333 -120.334 86 -203.001 86c-77.333 0 -141.666 -26.5 -192.999 -79.5
s-77 -118.5 -77 -196.5s25.667 -143.5 77 -196.5s115.666 -79.5 192.999 -79.5c75.333 0 135.666 17.667 180.999 53v187h-218l39 88h270v-317c-22.667 -26.667 -59 -49.667 -109 -69s-104.333 -29 -163 -29zM388.002 771.998c-44.667 0 -81.5 13.167 -110.5 39.5
s-44.167 58.833 -45.5 97.5h64c1.33301 -22 10.333 -40.667 27 -56s38.667 -23 66 -23s49.5 7.66699 66.5 23s26.167 34 27.5 56h64c-2.66699 -39.333 -18.167 -72 -46.5 -98s-65.833 -39 -112.5 -39z" />
    <glyph glyph-name="gbreve" unicode="&#x11f;" horiz-adv-x="611" 
d="M291 -194c-81.333 0 -152.334 19.668 -213.001 59.001l45 73c48 -34.667 105 -52 171 -52c48.667 0 88.834 10.167 120.501 30.5s47.5 52.166 47.5 95.499c0 24 -4.33301 45 -13 63c-40.667 -40 -93.667 -60 -159 -60c-73.333 0 -132.833 23.333 -178.5 70
s-68.5 105.334 -68.5 176.001s22.833 129.5 68.5 176.5s105.167 70.5 178.5 70.5c62.667 0 114.667 -19.667 156 -59v51h86v-398c12.667 -34 19 -66.667 19 -98c0 -66.667 -25.333 -116.334 -76 -149.001s-112 -49 -184 -49zM291.999 95.001
c34.667 0 65.5 7.49902 92.5 22.499s47.5 34.833 61.5 59.5v169c-14 24.667 -34.5 44.334 -61.5 59.001s-57.833 22 -92.5 22c-47.333 0 -85.833 -15.667 -115.5 -47s-44.5 -71 -44.5 -119c0 -47.333 14.833 -86.833 44.5 -118.5s68.167 -47.5 115.5 -47.5zM289.999 573
c-48 0 -85.667 12.833 -113 38.5s-42.333 58.5 -45 98.5h67c1.33301 -22 10 -40.5 26 -55.5s37.667 -22.5 65 -22.5s49 7.5 65 22.5s24.667 33.5 26 55.5h67c-2.66699 -40 -17.667 -72.833 -45 -98.5s-65 -38.5 -113 -38.5z" />
    <glyph glyph-name="Gdotaccent" unicode="&#x120;" horiz-adv-x="742" 
d="M409 -8c-102 0 -187.998 34.8311 -257.998 104.498s-105 155.834 -105 258.501s35 188.834 105 258.501s156 104.5 258 104.5c54 0 105 -10.667 153 -32s86.333 -49 115 -83l-65 -58c-52.667 57.333 -120.334 86 -203.001 86c-77.333 0 -141.666 -26.5 -192.999 -79.5
s-77 -118.5 -77 -196.5s25.667 -143.5 77 -196.5s115.666 -79.5 192.999 -79.5c75.333 0 135.666 17.667 180.999 53v187h-218l39 88h270v-317c-22.667 -26.667 -59 -49.667 -109 -69s-104.333 -29 -163 -29zM389.002 784.998c-16.667 0 -31 5.66699 -43 17
s-18 25.666 -18 42.999c0 16.667 5.83301 30.667 17.5 42s26.167 17 43.5 17c16.667 0 30.667 -5.66699 42 -17s17 -25.333 17 -42c0 -17.333 -5.83301 -31.666 -17.5 -42.999s-25.5 -17 -41.5 -17z" />
    <glyph glyph-name="gdotaccent" unicode="&#x121;" horiz-adv-x="611" 
d="M291 -194c-81.333 0 -152.334 19.668 -213.001 59.001l45 73c48 -34.667 105 -52 171 -52c48.667 0 88.834 10.167 120.501 30.5s47.5 52.166 47.5 95.499c0 24 -4.33301 45 -13 63c-40.667 -40 -93.667 -60 -159 -60c-73.333 0 -132.833 23.333 -178.5 70
s-68.5 105.334 -68.5 176.001s22.833 129.5 68.5 176.5s105.167 70.5 178.5 70.5c62.667 0 114.667 -19.667 156 -59v51h86v-398c12.667 -34 19 -66.667 19 -98c0 -66.667 -25.333 -116.334 -76 -149.001s-112 -49 -184 -49zM291.999 95.001
c34.667 0 65.5 7.49902 92.5 22.499s47.5 34.833 61.5 59.5v169c-14 24.667 -34.5 44.334 -61.5 59.001s-57.833 22 -92.5 22c-47.333 0 -85.833 -15.667 -115.5 -47s-44.5 -71 -44.5 -119c0 -47.333 14.833 -86.833 44.5 -118.5s68.167 -47.5 115.5 -47.5zM290.999 571
c-16.667 0 -31 5.66699 -43 17s-18 25.666 -18 42.999c0 16.667 5.83301 30.667 17.5 42s26.167 17 43.5 17c16.667 0 30.667 -5.66699 42 -17s17 -25.333 17 -42c0 -17.333 -5.83301 -31.666 -17.5 -42.999s-25.5 -17 -41.5 -17z" />
    <glyph glyph-name="uni0122" unicode="&#x122;" horiz-adv-x="742" 
d="M409 -8c-102 0 -187.998 34.8311 -257.998 104.498s-105 155.834 -105 258.501s35 188.834 105 258.501s156 104.5 258 104.5c54 0 105 -10.667 153 -32s86.333 -49 115 -83l-65 -58c-52.667 57.333 -120.334 86 -203.001 86c-77.333 0 -141.666 -26.5 -192.999 -79.5
s-77 -118.5 -77 -196.5s25.667 -143.5 77 -196.5s115.666 -79.5 192.999 -79.5c75.333 0 135.666 17.667 180.999 53v187h-218l39 88h270v-317c-22.667 -26.667 -59 -49.667 -109 -69s-104.333 -29 -163 -29zM283.002 -215.002l69 165h100l-104 -165h-65z" />
    <glyph glyph-name="uni0123" unicode="&#x123;" horiz-adv-x="611" 
d="M291 -194c-81.333 0 -152.334 19.668 -213.001 59.001l45 73c48 -34.667 105 -52 171 -52c48.667 0 88.834 10.167 120.501 30.5s47.5 52.166 47.5 95.499c0 24 -4.33301 45 -13 63c-40.667 -40 -93.667 -60 -159 -60c-73.333 0 -132.833 23.333 -178.5 70
s-68.5 105.334 -68.5 176.001s22.833 129.5 68.5 176.5s105.167 70.5 178.5 70.5c62.667 0 114.667 -19.667 156 -59v51h86v-398c12.667 -34 19 -66.667 19 -98c0 -66.667 -25.333 -116.334 -76 -149.001s-112 -49 -184 -49zM291.999 95.001
c34.667 0 65.5 7.49902 92.5 22.499s47.5 34.833 61.5 59.5v169c-14 24.667 -34.5 44.334 -61.5 59.001s-57.833 22 -92.5 22c-47.333 0 -85.833 -15.667 -115.5 -47s-44.5 -71 -44.5 -119c0 -47.333 14.833 -86.833 44.5 -118.5s68.167 -47.5 115.5 -47.5zM413.999 710
l-69 -165h-100l104 165h65z" />
    <glyph glyph-name="Hcircumflex" unicode="&#x124;" horiz-adv-x="764" 
d="M95 0v710h91v-303h392v303h91v-710h-91v319h-392v-319h-91zM244 766l-35 60l173 100l173 -100l-35 -60l-138 82z" />
    <glyph glyph-name="hcircumflex" unicode="&#x125;" horiz-adv-x="578" 
d="M75 0l0.000976562 710h86v-267c35.333 43.333 87 65 155 65c56.667 0 103 -18.5 139 -55.5s54 -86.167 54 -147.5v-305h-86v300c0 37.333 -11.333 67.833 -34 91.5s-53.334 35.5 -92.001 35.5c-70.667 0 -116 -34.667 -136 -104v-323h-86zM179.001 766l-35 60l173 100
l173 -100l-35 -60l-138 82z" />
    <glyph glyph-name="Hbar" unicode="&#x126;" horiz-adv-x="768" 
d="M97 0v710h91v-303h392v303h91v-710h-91v319h-392v-319h-91zM34 522v74h700v-74h-700z" />
    <glyph glyph-name="hbar" unicode="&#x127;" horiz-adv-x="578" 
d="M75 0l0.000976562 710h86v-267c35.333 43.333 87 65 155 65c56.667 0 103 -18.5 139 -55.5s54 -86.167 54 -147.5v-305h-86v300c0 37.333 -11.333 67.833 -34 91.5s-53.334 35.5 -92.001 35.5c-70.667 0 -116 -34.667 -136 -104v-323h-86zM5.00098 573v65h327v-65h-327z
" />
    <glyph glyph-name="Itilde" unicode="&#x128;" horiz-adv-x="281" 
d="M95 0v710h91v-710h-91zM-33 784l3 19c6 29.333 18.667 52.333 38 69s41 25 65 25c20 0 43.833 -7.33301 71.5 -22s45.834 -22 54.501 -22c24.667 0 40.667 14.667 48 44h66l-3 -18c-5.33301 -28 -17.5 -50.667 -36.5 -68s-41.167 -26 -66.5 -26
c-20.667 0 -44.834 7.33301 -72.501 22s-46.167 22 -55.5 22c-24 0 -39.333 -15 -46 -45h-66z" />
    <glyph glyph-name="itilde" unicode="&#x129;" horiz-adv-x="236" 
d="M75 0v500h86v-500h-86zM-54 566l3 19c6 29.333 18.667 52.333 38 69s41 25 65 25c20 0 43.833 -7.33301 71.5 -22s45.834 -22 54.501 -22c24.667 0 40.667 14.667 48 44h66l-3 -18c-5.33301 -28 -17.5 -50.667 -36.5 -68s-41.167 -26 -66.5 -26
c-20.667 0 -44.834 7.33301 -72.501 22s-46.167 22 -55.5 22c-24 0 -39.333 -15 -46 -45h-66z" />
    <glyph glyph-name="Imacron" unicode="&#x12a;" horiz-adv-x="281" 
d="M95 0v710h91v-710h-91zM-6 803v65h292v-65h-292z" />
    <glyph glyph-name="imacron" unicode="&#x12b;" horiz-adv-x="236" 
d="M75 0v500h86v-500h-86zM-28 614v65h292v-65h-292z" />
    <glyph glyph-name="Ibreve" unicode="&#x12c;" horiz-adv-x="281" 
d="M95 0v710h91v-710h-91zM139 772c-44.667 0 -81.5 13.167 -110.5 39.5s-44.167 58.833 -45.5 97.5h64c1.33301 -22 10.333 -40.667 27 -56s38.667 -23 66 -23s49.5 7.66699 66.5 23s26.167 34 27.5 56h64c-2.66699 -39.333 -18.167 -72 -46.5 -98s-65.833 -39 -112.5 -39z
" />
    <glyph glyph-name="ibreve" unicode="&#x12d;" horiz-adv-x="236" 
d="M75 0v500h86v-500h-86zM118 573c-48 0 -85.667 12.833 -113 38.5s-42.333 58.5 -45 98.5h67c1.33301 -22 10 -40.5 26 -55.5s37.667 -22.5 65 -22.5s49 7.5 65 22.5s24.667 33.5 26 55.5h67c-2.66699 -40 -17.667 -72.833 -45 -98.5s-65 -38.5 -113 -38.5z" />
    <glyph glyph-name="Iogonek" unicode="&#x12e;" horiz-adv-x="281" 
d="M95 0v710h91v-710h-91zM125 -192c-29.333 0 -54.832 7.66504 -76.499 22.998s-32.5 36.333 -32.5 63c0 22.667 8 43.834 24 63.501s34.333 33.834 55 42.501h91c-54.667 -24 -82 -52.667 -82 -86c0 -27.333 16.667 -41 50 -41c9.33301 0 20.333 2.33301 33 7v-59
c-14.667 -8.66699 -35.334 -13 -62.001 -13z" />
    <glyph glyph-name="iogonek" unicode="&#x12f;" horiz-adv-x="236" 
d="M75 0v500h86v-500h-86zM161 609h-86c-12.667 10.667 -19 26 -19 46c0 17.333 6 32.166 18 44.499s26.667 18.5 44 18.5s32 -6.16699 44 -18.5s18 -27.166 18 -44.499c0 -20 -6.33301 -35.333 -19 -46zM100 -192c-30 0 -54.999 7.50098 -74.999 22.501
s-30 36.167 -30 63.5c0 22.667 8.16699 43.667 24.5 63s34.833 33.666 55.5 42.999h86c-54.667 -24 -82 -52.667 -82 -86c0 -27.333 16.667 -41 50 -41c9.33301 0 20.333 2.33301 33 7v-59c-14.667 -8.66699 -35.334 -13 -62.001 -13z" />
    <glyph glyph-name="Idotaccent" unicode="&#x130;" horiz-adv-x="281" 
d="M95 0v710h91v-710h-91zM140 785c-16.667 0 -31 5.66699 -43 17s-18 25.666 -18 42.999c0 16.667 5.83301 30.667 17.5 42s26.167 17 43.5 17c16.667 0 30.667 -5.66699 42 -17s17 -25.333 17 -42c0 -17.333 -5.83301 -31.666 -17.5 -42.999s-25.5 -17 -41.5 -17z" />
    <glyph glyph-name="dotlessi" unicode="&#x131;" horiz-adv-x="236" 
d="M75 0v500h86v-500h-86z" />
    <glyph glyph-name="Jcircumflex" unicode="&#x134;" horiz-adv-x="523" 
d="M228 -8c-59.333 0 -108.667 18.333 -148 55s-59 87 -59 151h91c0 -38.667 10.833 -68.167 32.5 -88.5s49.167 -30.5 82.5 -30.5c35.333 0 63.666 10 84.999 30s32 49.667 32 89v512h91v-518c0 -64 -19.667 -113.333 -59 -148s-88.666 -52 -147.999 -52zM250.999 766
l-35 60l173 100l173 -100l-35 -60l-138 82z" />
    <glyph glyph-name="jcircumflex" unicode="&#x135;" horiz-adv-x="244" 
d="M-21 -184v78h30c26.667 0 45.667 6.66699 57 20s17 33.333 17 60v526h86v-539c0 -47.333 -13 -83.333 -39 -108s-63.333 -37 -112 -37h-39zM126 718l161 -109l-38 -55l-123 83l-123 -83l-38 55z" />
    <glyph glyph-name="uni0136" unicode="&#x136;" horiz-adv-x="641" 
d="M95 0v710h91v-356l324 356h112l-328 -361l355 -349h-121l-342 337v-337h-91zM229 -215l69 165h100l-104 -165h-65z" />
    <glyph glyph-name="uni0137" unicode="&#x137;" horiz-adv-x="512" 
d="M75 0v710h86v-436l221 226h113l-232 -235l255 -265h-116l-241 250v-250h-86zM163 -215l69 165h100l-104 -165h-65z" />
    <glyph glyph-name="Lacute" unicode="&#x139;" horiz-adv-x="515" 
d="M95 710v-710h402v89h-311v621h-91zM293 913l-113 -145h-73l77 145h109z" />
    <glyph glyph-name="lacute" unicode="&#x13a;" horiz-adv-x="236" 
d="M75 710v-710h86v710h-86zM270 920l-123 -160h-71l85 160h109z" />
    <glyph glyph-name="uni013B" unicode="&#x13b;" horiz-adv-x="515" 
d="M95 0v710h91v-621h311v-89h-402zM172 -215l69 165h100l-104 -165h-65z" />
    <glyph glyph-name="uni013C" unicode="&#x13c;" horiz-adv-x="236" 
d="M75 0v710h86v-710h-86zM-1 -215l69 165h100l-104 -165h-65z" />
    <glyph glyph-name="Lcaron" unicode="&#x13d;" horiz-adv-x="516" 
d="M95 0v710h91v-621h311v-89h-402zM265 545l25 165h87l-51 -165h-61z" />
    <glyph glyph-name="lcaron" unicode="&#x13e;" horiz-adv-x="260" 
d="M75 0v710h86v-710h-86zM222 545l25 165h87l-51 -165h-61z" />
    <glyph glyph-name="Ldot" unicode="&#x13f;" horiz-adv-x="521" 
d="M95 0v710h91v-621h311v-89h-402zM391 320c-16.667 0 -31 5.66699 -43 17s-18 25.666 -18 42.999c0 16.667 5.83301 30.667 17.5 42s26.167 17 43.5 17c16.667 0 30.667 -5.66699 42 -17s17 -25.333 17 -42c0 -17.333 -5.83301 -31.666 -17.5 -42.999s-25.5 -17 -41.5 -17
z" />
    <glyph glyph-name="ldot" unicode="&#x140;" horiz-adv-x="364" 
d="M75 0v710h86v-710h-86zM301 302c-16.667 0 -31 5.66699 -43 17s-18 25.666 -18 42.999c0 16.667 5.83301 30.667 17.5 42s26.167 17 43.5 17c16.667 0 30.667 -5.66699 42 -17s17 -25.333 17 -42c0 -17.333 -5.83301 -31.666 -17.5 -42.999s-25.5 -17 -41.5 -17z" />
    <glyph glyph-name="Lslash" unicode="&#x141;" horiz-adv-x="600" 
d="M179 0v710h91v-621h311v-89h-402zM52 212l-42 63l386 252l42 -63z" />
    <glyph glyph-name="lslash" unicode="&#x142;" horiz-adv-x="352" 
d="M141 0v710h86v-710h-86zM61 254l-37 57l284 184l37 -57z" />
    <glyph glyph-name="Nacute" unicode="&#x143;" horiz-adv-x="787" 
d="M186 505l506 -513v718h-91v-505l-506 513v-718h91v505zM539 913l-113 -145h-73l77 145h109z" />
    <glyph glyph-name="nacute" unicode="&#x144;" horiz-adv-x="578" 
d="M75 500l-0.000976562 -500h86v323c20 69.333 65.333 104 136 104c38.667 0 69.334 -11.833 92.001 -35.5s34 -54.167 34 -91.5v-300h86v305c0 61.333 -18 110.5 -54 147.5s-82.333 55.5 -139 55.5c-68 0 -119.667 -21.667 -155 -65v57h-86zM461.999 710l-123 -160h-71
l85 160h109z" />
    <glyph glyph-name="uni0145" unicode="&#x145;" horiz-adv-x="787" 
d="M692 -8l-506 513v-505h-91v718l506 -513v505h91v-718zM300 -215l69 165h100l-104 -165h-65z" />
    <glyph glyph-name="uni0146" unicode="&#x146;" horiz-adv-x="578" 
d="M75 0l0.000976562 500h86v-57c35.333 43.333 87 65 155 65c56.667 0 103 -18.5 139 -55.5s54 -86.167 54 -147.5v-305h-86v300c0 37.333 -11.333 67.833 -34 91.5s-53.334 35.5 -92.001 35.5c-70.667 0 -116 -34.667 -136 -104v-323h-86zM176.001 -215l69 165h100
l-104 -165h-65z" />
    <glyph glyph-name="Ncaron" unicode="&#x147;" horiz-adv-x="787" 
d="M692 -8l-506 513v-505h-91v718l506 -513v505h91v-718zM526 926l35 -60l-173 -100l-173 100l35 60l138 -82z" />
    <glyph glyph-name="ncaron" unicode="&#x148;" horiz-adv-x="578" 
d="M75 0l0.000976562 500h86v-57c35.333 43.333 87 65 155 65c56.667 0 103 -18.5 139 -55.5s54 -86.167 54 -147.5v-305h-86v300c0 37.333 -11.333 67.833 -34 91.5s-53.334 35.5 -92.001 35.5c-70.667 0 -116 -34.667 -136 -104v-323h-86zM309.001 553l-161 109l38 55
l123 -83l123 83l38 -55z" />
    <glyph glyph-name="Eng" unicode="&#x14a;" horiz-adv-x="787" 
d="M692 710l0.000976562 -739c0 -50 -13.333 -88.333 -40 -115s-65.334 -40 -116.001 -40h-41v75h17c59.333 0 89 28.333 89 85v108l-415 421v-505h-91v718l506 -513v505h91z" />
    <glyph glyph-name="eng" unicode="&#x14b;" horiz-adv-x="578" 
d="M366 -184h-46.999v78h30c25.333 0 44 6 56 18s18 31 18 57v331c0 37.333 -11.333 67.833 -34 91.5s-53.334 35.5 -92.001 35.5c-70.667 0 -116 -34.667 -136 -104v-323h-86v500h86v-57c35.333 43.333 87 65 155 65c56.667 0 103 -18.5 139 -55.5s54 -86.167 54 -147.5
v-346c0 -44 -12.667 -78.833 -38 -104.5s-60.333 -38.5 -105 -38.5z" />
    <glyph glyph-name="Omacron" unicode="&#x14c;" horiz-adv-x="818" 
d="M409 -8c-102 0 -188 34.833 -258 104.5s-105 155.834 -105 258.501s35 188.834 105 258.501s156 104.5 258 104.5s188 -34.833 258 -104.5s105 -155.834 105 -258.501s-35 -188.834 -105 -258.501s-156 -104.5 -258 -104.5zM409 79c77.333 0 141.666 26.5 192.999 79.5
s77 118.5 77 196.5s-25.667 143.5 -77 196.5s-115.666 79.5 -192.999 79.5s-141.666 -26.5 -192.999 -79.5s-77 -118.5 -77 -196.5s25.667 -143.5 77 -196.5s115.666 -79.5 192.999 -79.5zM264 803v65h292v-65h-292z" />
    <glyph glyph-name="omacron" unicode="&#x14d;" horiz-adv-x="602" 
d="M301 -8c-74.667 0 -136.667 24.833 -186 74.5s-74 110.834 -74 183.501s24.667 133.834 74 183.501s111.333 74.5 186 74.5c74 0 135.667 -24.833 185 -74.5s74 -110.834 74 -183.501s-24.667 -133.834 -74 -183.501s-111 -74.5 -185 -74.5zM301 73
c50 0 90.833 16.833 122.5 50.5s47.5 75.834 47.5 126.501s-15.833 92.834 -47.5 126.501s-72.5 50.5 -122.5 50.5s-91 -16.833 -123 -50.5s-48 -75.834 -48 -126.501s16 -92.834 48 -126.501s73 -50.5 123 -50.5zM155 614v65h292v-65h-292z" />
    <glyph glyph-name="Obreve" unicode="&#x14e;" horiz-adv-x="818" 
d="M409 -8c-102 0 -188 34.833 -258 104.5s-105 155.834 -105 258.501s35 188.834 105 258.501s156 104.5 258 104.5s188 -34.833 258 -104.5s105 -155.834 105 -258.501s-35 -188.834 -105 -258.501s-156 -104.5 -258 -104.5zM409 79c77.333 0 141.666 26.5 192.999 79.5
s77 118.5 77 196.5s-25.667 143.5 -77 196.5s-115.666 79.5 -192.999 79.5s-141.666 -26.5 -192.999 -79.5s-77 -118.5 -77 -196.5s25.667 -143.5 77 -196.5s115.666 -79.5 192.999 -79.5zM409 772c-44.667 0 -81.5 13.167 -110.5 39.5s-44.167 58.833 -45.5 97.5h64
c1.33301 -22 10.333 -40.667 27 -56s38.667 -23 66 -23s49.5 7.66699 66.5 23s26.167 34 27.5 56h64c-2.66699 -39.333 -18.167 -72 -46.5 -98s-65.833 -39 -112.5 -39z" />
    <glyph glyph-name="obreve" unicode="&#x14f;" horiz-adv-x="602" 
d="M301 -8c-74.667 0 -136.667 24.833 -186 74.5s-74 110.834 -74 183.501s24.667 133.834 74 183.501s111.333 74.5 186 74.5c74 0 135.667 -24.833 185 -74.5s74 -110.834 74 -183.501s-24.667 -133.834 -74 -183.501s-111 -74.5 -185 -74.5zM301 73
c50 0 90.833 16.833 122.5 50.5s47.5 75.834 47.5 126.501s-15.833 92.834 -47.5 126.501s-72.5 50.5 -122.5 50.5s-91 -16.833 -123 -50.5s-48 -75.834 -48 -126.501s16 -92.834 48 -126.501s73 -50.5 123 -50.5zM301 573c-48 0 -85.667 12.833 -113 38.5
s-42.333 58.5 -45 98.5h67c1.33301 -22 10 -40.5 26 -55.5s37.667 -22.5 65 -22.5s49 7.5 65 22.5s24.667 33.5 26 55.5h67c-2.66699 -40 -17.667 -72.833 -45 -98.5s-65 -38.5 -113 -38.5z" />
    <glyph glyph-name="Ohungarumlaut" unicode="&#x150;" horiz-adv-x="818" 
d="M409 -8c-102 0 -188 34.833 -258 104.5s-105 155.834 -105 258.501s35 188.834 105 258.501s156 104.5 258 104.5s188 -34.833 258 -104.5s105 -155.834 105 -258.501s-35 -188.834 -105 -258.501s-156 -104.5 -258 -104.5zM409 79c77.333 0 141.666 26.5 192.999 79.5
s77 118.5 77 196.5s-25.667 143.5 -77 196.5s-115.666 79.5 -192.999 79.5s-141.666 -26.5 -192.999 -79.5s-77 -118.5 -77 -196.5s25.667 -143.5 77 -196.5s115.666 -79.5 192.999 -79.5zM282 768l77 145h104l-113 -145h-68zM482 768l77 145h104l-113 -145h-68z" />
    <glyph glyph-name="ohungarumlaut" unicode="&#x151;" horiz-adv-x="602" 
d="M301 -8c-74.667 0 -136.667 24.833 -186 74.5s-74 110.834 -74 183.501s24.667 133.834 74 183.501s111.333 74.5 186 74.5c74 0 135.667 -24.833 185 -74.5s74 -110.834 74 -183.501s-24.667 -133.834 -74 -183.501s-111 -74.5 -185 -74.5zM301 73
c50 0 90.833 16.833 122.5 50.5s47.5 75.834 47.5 126.501s-15.833 92.834 -47.5 126.501s-72.5 50.5 -122.5 50.5s-91 -16.833 -123 -50.5s-48 -75.834 -48 -126.501s16 -92.834 48 -126.501s73 -50.5 123 -50.5zM183 549l85 161h101l-123 -161h-63zM352 549l85 161h101
l-123 -161h-63z" />
    <glyph glyph-name="OE" unicode="&#x152;" horiz-adv-x="1077" 
d="M409 -8c-102 0 -188.001 34.8311 -258.001 104.498s-105 155.834 -105 258.501s35 188.834 105 258.501s156 104.5 258 104.5c75.333 0 144.333 -21 207 -63v55h411v-88h-324v-51c35.333 -47.333 57 -102 65 -164h198v-88h-196
c-7.33301 -68.667 -29.666 -129 -66.999 -181v-50h324v-88h-411v54c-63.333 -41.333 -132.333 -62 -207 -62zM408.999 78.998c77.333 0 141.666 26.5 192.999 79.5s77 118.5 77 196.5s-25.667 143.5 -77 196.5s-115.666 79.5 -192.999 79.5s-141.666 -26.5 -192.999 -79.5
s-77 -118.5 -77 -196.5s25.667 -143.5 77 -196.5s115.666 -79.5 192.999 -79.5z" />
    <glyph glyph-name="oe" unicode="&#x153;" horiz-adv-x="1000" 
d="M875 133l55.002 -60.002c-51.333 -54 -118.333 -81 -201 -81c-88.667 0 -159.667 36.667 -213 110c-53.333 -73.333 -125 -110 -215 -110c-74.667 0 -136.667 24.833 -186 74.5s-74 110.834 -74 183.501s24.667 133.834 74 183.501s111.333 74.5 186 74.5
c92 0 163.667 -36.333 215 -109c52 72.667 121 109 207 109c71.333 0 129.833 -25 175.5 -75s68.5 -118 68.5 -204h-408c5.33301 -46 24.166 -83.5 56.499 -112.5s70.166 -43.5 113.499 -43.5c57.333 0 106 20 146 60zM718.002 428.998c-34 0 -65.667 -10.5 -95 -31.5
s-49 -52.167 -59 -93.5h306c-6 40 -23 71 -51 93s-61.667 32.667 -101 32zM301.002 72.998c50 0 91 16.833 123 50.5s48 75.834 48 126.501s-16 92.834 -48 126.501s-73 50.5 -123 50.5s-91 -16.833 -123 -50.5s-48 -75.834 -48 -126.501s16 -92.834 48 -126.501
s73 -50.5 123 -50.5z" />
    <glyph glyph-name="Racute" unicode="&#x154;" horiz-adv-x="619" 
d="M95 710l-0.000976562 -710h91v310h78l237 -310h110l-246 316c58 11.333 100.667 35 128 71s41 77 41 123c0 60.667 -20.667 109.167 -62 145.5s-96.666 54.5 -165.999 54.5h-211zM299.999 391l-114 -0.000976562v235h114c46 0 80.833 -10.167 104.5 -30.5
s35.5 -49.5 35.5 -87.5c0 -37.333 -11.833 -66.166 -35.5 -86.499s-58.5 -30.5 -104.5 -30.5zM450.999 912.999l-113 -145h-73l77 145h109z" />
    <glyph glyph-name="racute" unicode="&#x155;" horiz-adv-x="351" 
d="M75 500l0.000976562 -500h86v340c23.333 52.667 65 79 125 79c18 0 34 -2 48 -6v89c-10.667 2 -22.334 3 -35.001 3c-57.333 0 -103.333 -21.333 -138 -64v59h-86zM364.001 710l-123 -160h-71l85 160h109z" />
    <glyph glyph-name="uni0156" unicode="&#x156;" horiz-adv-x="619" 
d="M95 0l0.000976562 710h211c69.333 0 124.666 -18.167 165.999 -54.5s62 -84.833 62 -145.5c0 -46 -13.667 -87 -41 -123s-70 -59.667 -128 -71l246 -316h-110l-237 310h-78v-310h-91zM186.001 391l114 0.000976562c46 0 80.833 10.167 104.5 30.5
s35.5 49.166 35.5 86.499c0 38 -11.833 67.167 -35.5 87.5s-58.5 30.5 -104.5 30.5h-114v-235zM213.001 -214.999l69 165h100l-104 -165h-65z" />
    <glyph glyph-name="uni0157" unicode="&#x157;" horiz-adv-x="351" 
d="M75 0l-0.000976562 500h86v-59c34.667 42.667 80.667 64 138 64c12.667 0 24.334 -1 35.001 -3v-89c-14 4 -30 6 -48 6c-60 0 -101.667 -26.333 -125 -79v-340h-86zM-2.00098 -215l69 165h100l-104 -165h-65z" />
    <glyph glyph-name="Rcaron" unicode="&#x158;" horiz-adv-x="619" 
d="M95 0l0.000976562 710h211c69.333 0 124.666 -18.167 165.999 -54.5s62 -84.833 62 -145.5c0 -46 -13.667 -87 -41 -123s-70 -59.667 -128 -71l246 -316h-110l-237 310h-78v-310h-91zM186.001 391l114 0.000976562c46 0 80.833 10.167 104.5 30.5
s35.5 49.166 35.5 86.499c0 38 -11.833 67.167 -35.5 87.5s-58.5 30.5 -104.5 30.5h-114v-235zM438.001 926.001l35 -60l-173 -100l-173 100l35 60l138 -82z" />
    <glyph glyph-name="rcaron" unicode="&#x159;" horiz-adv-x="351" 
d="M75 0l-0.000976562 500h86v-59c34.667 42.667 80.667 64 138 64c12.667 0 24.334 -1 35.001 -3v-89c-14 4 -30 6 -48 6c-60 0 -101.667 -26.333 -125 -79v-340h-86zM210.999 553l-161 109l38 55l123 -83l123 83l38 -55z" />
    <glyph glyph-name="Sacute" unicode="&#x15a;" horiz-adv-x="528" 
d="M263 -8c68.667 0 123.332 18.1641 163.999 54.4971s61 83.833 61 142.5c0 46.667 -14.5 85.834 -43.5 117.501s-70.167 59.5 -123.5 83.5l-65 28c-37.333 16.667 -64.166 34.334 -80.499 53.001s-24.5 41 -24.5 67c0 28.667 11 51.334 33 68.001s48.667 25 80 25
c54 0 100 -22.667 138 -68l64 64c-49.333 60.667 -115.666 91 -198.999 91c-54.667 0 -102.834 -16.667 -144.501 -50s-62.5 -76 -62.5 -128c0 -89.333 51.667 -156.333 155 -201l65 -28c40 -17.333 69.333 -35.833 88 -55.5s28 -45.167 28 -76.5
s-11.833 -55.833 -35.5 -73.5s-56.5 -26.5 -98.5 -26.5c-63.333 0 -117 27.667 -161 83l-69 -60c22.667 -32 54.5 -58.333 95.5 -79s86.167 -31 135.5 -31zM417.998 912.997l-113 -145h-73l77 145h109z" />
    <glyph glyph-name="sacute" unicode="&#x15b;" horiz-adv-x="420" 
d="M207 -8c52.667 0 95.3311 13.666 127.998 40.999s49 61.333 49 102c0 36.667 -10.667 66.834 -32 90.501s-54 43.5 -98 59.5l-41 15c-28 10 -47.167 21 -57.5 33s-15.5 26.333 -15.5 43s6.83301 30 20.5 40s30.5 15 50.5 15c38.667 0 66.334 -17.333 83.001 -52l67 39
c-30.667 60 -80.667 90 -150 90c-45.333 0 -82.666 -12.667 -111.999 -38s-44 -57 -44 -95c0 -68.667 39.667 -118 119 -148l39 -15c30.667 -10.667 52.5 -21.834 65.5 -33.501s19.5 -27.167 19.5 -46.5s-8.5 -34.666 -25.5 -45.999s-38.167 -17 -63.5 -17
c-46 0 -83 23 -111 69l-68 -46c39.333 -66.667 98.333 -100 177 -100zM367.997 709.999l-123 -160h-71l85 160h109z" />
    <glyph glyph-name="Scircumflex" unicode="&#x15c;" horiz-adv-x="528" 
d="M263 -8c-49.333 0 -94.498 10.3359 -135.498 31.0029s-72.833 47 -95.5 79l69 60c44 -55.333 97.667 -83 161 -83c42 0 74.833 8.83301 98.5 26.5s35.5 42.167 35.5 73.5s-9.33301 56.833 -28 76.5s-48 38.167 -88 55.5l-65 28c-103.333 44.667 -155 111.667 -155 201
c0 52 20.833 94.667 62.5 128s89.834 50 144.501 50c83.333 0 149.666 -30.333 198.999 -91l-64 -64c-38 45.333 -84 68 -138 68c-31.333 0 -58 -8.33301 -80 -25s-33 -39.334 -33 -68.001c0 -26 8.16699 -48.333 24.5 -67s43.166 -36.334 80.499 -53.001l65 -28
c53.333 -24 94.5 -51.833 123.5 -83.5s43.5 -70.834 43.5 -117.501c0 -58.667 -20.333 -106.167 -61 -142.5s-95.334 -54.5 -164.001 -54.5zM129.002 766.003l-35 60l173 100l173 -100l-35 -60l-138 82z" />
    <glyph glyph-name="scircumflex" unicode="&#x15d;" horiz-adv-x="420" 
d="M207 -8c-78.667 0 -137.664 33.334 -176.997 100.001l68 46c28 -46 65 -69 111 -69c25.333 0 46.5 5.66699 63.5 17s25.5 26.666 25.5 45.999s-6.5 34.833 -19.5 46.5s-34.833 22.834 -65.5 33.501l-39 15c-79.333 30 -119 79.333 -119 148c0 38 14.667 69.667 44 95
s66.666 38 111.999 38c69.333 0 119.333 -30 150 -90l-67 -39c-16.667 34.667 -44.334 52 -83.001 52c-20 0 -36.833 -5 -50.5 -15s-20.5 -23.333 -20.5 -40s5.16699 -31 15.5 -43s29.5 -23 57.5 -33l41 -15c44 -16 76.667 -35.833 98 -59.5s32 -53.834 32 -90.501
c0 -40.667 -16.333 -74.667 -49 -102s-75.334 -41 -128.001 -41zM216.003 718.001l161 -109l-38 -55l-123 83l-123 -83l-38 55z" />
    <glyph glyph-name="Scedilla" unicode="&#x15e;" horiz-adv-x="528" 
d="M263 -8c-49.333 0 -94.498 10.3359 -135.498 31.0029s-72.833 47 -95.5 79l69 60c44 -55.333 97.667 -83 161 -83c42 0 74.833 8.83301 98.5 26.5s35.5 42.167 35.5 73.5s-9.33301 56.833 -28 76.5s-48 38.167 -88 55.5l-65 28c-103.333 44.667 -155 111.667 -155 201
c0 52 20.833 94.667 62.5 128s89.834 50 144.501 50c83.333 0 149.666 -30.333 198.999 -91l-64 -64c-38 45.333 -84 68 -138 68c-31.333 0 -58 -8.33301 -80 -25s-33 -39.334 -33 -68.001c0 -26 8.16699 -48.333 24.5 -67s43.166 -36.334 80.499 -53.001l65 -28
c53.333 -24 94.5 -51.833 123.5 -83.5s43.5 -70.834 43.5 -117.501c0 -58.667 -20.333 -106.167 -61 -142.5s-95.334 -54.5 -164.001 -54.5zM179.002 -164.997l93 165h59l-54 -165h-98z" />
    <glyph glyph-name="scedilla" unicode="&#x15f;" horiz-adv-x="420" 
d="M207 -8c-78.667 0 -137.664 33.334 -176.997 100.001l68 46c28 -46 65 -69 111 -69c25.333 0 46.5 5.66699 63.5 17s25.5 26.666 25.5 45.999s-6.5 34.833 -19.5 46.5s-34.833 22.834 -65.5 33.501l-39 15c-79.333 30 -119 79.333 -119 148c0 38 14.667 69.667 44 95
s66.666 38 111.999 38c69.333 0 119.333 -30 150 -90l-67 -39c-16.667 34.667 -44.334 52 -83.001 52c-20 0 -36.833 -5 -50.5 -15s-20.5 -23.333 -20.5 -40s5.16699 -31 15.5 -43s29.5 -23 57.5 -33l41 -15c44 -16 76.667 -35.833 98 -59.5s32 -53.834 32 -90.501
c0 -40.667 -16.333 -74.667 -49 -102s-75.334 -41 -128.001 -41zM97.0029 -164.999l93 165h59l-54 -165h-98z" />
    <glyph glyph-name="Scaron" unicode="&#x160;" horiz-adv-x="528" 
d="M263 -8c-49.333 0 -94.498 10.3359 -135.498 31.0029s-72.833 47 -95.5 79l69 60c44 -55.333 97.667 -83 161 -83c42 0 74.833 8.83301 98.5 26.5s35.5 42.167 35.5 73.5s-9.33301 56.833 -28 76.5s-48 38.167 -88 55.5l-65 28c-103.333 44.667 -155 111.667 -155 201
c0 52 20.833 94.667 62.5 128s89.834 50 144.501 50c83.333 0 149.666 -30.333 198.999 -91l-64 -64c-38 45.333 -84 68 -138 68c-31.333 0 -58 -8.33301 -80 -25s-33 -39.334 -33 -68.001c0 -26 8.16699 -48.333 24.5 -67s43.166 -36.334 80.499 -53.001l65 -28
c53.333 -24 94.5 -51.833 123.5 -83.5s43.5 -70.834 43.5 -117.501c0 -58.667 -20.333 -106.167 -61 -142.5s-95.334 -54.5 -164.001 -54.5zM405.002 926.003l35 -60l-173 -100l-173 100l35 60l138 -82z" />
    <glyph glyph-name="scaron" unicode="&#x161;" horiz-adv-x="420" 
d="M207 -8c-78.667 0 -137.664 33.334 -176.997 100.001l68 46c28 -46 65 -69 111 -69c25.333 0 46.5 5.66699 63.5 17s25.5 26.666 25.5 45.999s-6.5 34.833 -19.5 46.5s-34.833 22.834 -65.5 33.501l-39 15c-79.333 30 -119 79.333 -119 148c0 38 14.667 69.667 44 95
s66.666 38 111.999 38c69.333 0 119.333 -30 150 -90l-67 -39c-16.667 34.667 -44.334 52 -83.001 52c-20 0 -36.833 -5 -50.5 -15s-20.5 -23.333 -20.5 -40s5.16699 -31 15.5 -43s29.5 -23 57.5 -33l41 -15c44 -16 76.667 -35.833 98 -59.5s32 -53.834 32 -90.501
c0 -40.667 -16.333 -74.667 -49 -102s-75.334 -41 -128.001 -41zM215.003 553.001l-161 109l38 55l123 -83l123 83l38 -55z" />
    <glyph glyph-name="uni0162" unicode="&#x162;" horiz-adv-x="526" 
d="M217 0v622h-201v88h494v-88h-202v-622h-91zM140 -215l69 165h100l-104 -165h-65z" />
    <glyph glyph-name="uni0163" unicode="&#x163;" horiz-adv-x="364" 
d="M334 0h-76c-48.667 -0 -86 12.333 -112 37s-39 60.667 -39 108v277h-80l-19 78h99v107l86 43v-150h151l-19 -78h-132v-264c0 -26.667 5.66699 -46.667 17 -60s30.333 -20 57 -20h67v-78zM101 -215l69 165h100l-104 -165h-65z" />
    <glyph glyph-name="Tcaron" unicode="&#x164;" horiz-adv-x="526" 
d="M217 0v622h-201v88h494v-88h-202v-622h-91zM400 926l35 -60l-173 -100l-173 100l35 60l138 -82z" />
    <glyph glyph-name="tcaron" unicode="&#x165;" horiz-adv-x="364" 
d="M334 0h-76c-48.667 -0 -86 12.333 -112 37s-39 60.667 -39 108v277h-80l-19 78h99v107l86 43v-150h151l-19 -78h-132v-264c0 -26.667 5.66699 -46.667 17 -60s30.333 -20 57 -20h67v-78zM258 545l25 165h87l-51 -165h-61z" />
    <glyph glyph-name="Tbar" unicode="&#x166;" horiz-adv-x="560" 
d="M234 0v622h-201v88h494v-88h-202v-622h-91zM79 338v74h403v-74h-403z" />
    <glyph glyph-name="tbar" unicode="&#x167;" horiz-adv-x="378" 
d="M343 0h-76c-48.667 -0 -86 12.333 -112 37s-39 60.667 -39 108v277h-80l-19 78h99v107l86 43v-150h151l-19 -78h-132v-264c0 -26.667 5.66699 -46.667 17 -60s30.333 -20 57 -20h67v-78zM25 261v65h320v-65h-320z" />
    <glyph glyph-name="Utilde" unicode="&#x168;" horiz-adv-x="738" 
d="M369 -8c-84 0 -152.169 25 -204.502 75s-78.5 117.667 -78.5 203v440h91v-444c0 -60 17.333 -106.167 52 -138.5s81.334 -48.5 140.001 -48.5s105.334 16.167 140.001 48.5s52 78.5 52 138.5v444h91v-440c0 -85.333 -26.167 -153 -78.5 -203s-120.5 -75 -204.5 -75z
M193.998 784l3 19c6 29.333 18.667 52.333 38 69s41 25 65 25c20 0 43.833 -7.33301 71.5 -22s45.834 -22 54.501 -22c24.667 0 40.667 14.667 48 44h66l-3 -18c-5.33301 -28 -17.5 -50.667 -36.5 -68s-41.167 -26 -66.5 -26c-20.667 0 -44.834 7.33301 -72.501 22
s-46.167 22 -55.5 22c-24 0 -39.333 -15 -46 -45h-66z" />
    <glyph glyph-name="utilde" unicode="&#x169;" horiz-adv-x="577" 
d="M416 0v56c-34.667 -42.667 -86 -64 -154 -64c-58 0 -104.667 18.5 -140 55.5s-53 86.167 -53 147.5v305h86v-300c0 -37.333 11.333 -67.833 34 -91.5s53 -35.5 91 -35.5c70 0 115.333 33.333 136 100v327h86v-500h-86zM113 566l3 19c6 29.333 18.667 52.333 38 69
s41 25 65 25c20 0 43.833 -7.33301 71.5 -22s45.834 -22 54.501 -22c24.667 0 40.667 14.667 48 44h66l-3 -18c-5.33301 -28 -17.5 -50.667 -36.5 -68s-41.167 -26 -66.5 -26c-20.667 0 -44.834 7.33301 -72.501 22s-46.167 22 -55.5 22c-24 0 -39.333 -15 -46 -45h-66z" />
    <glyph glyph-name="Umacron" unicode="&#x16a;" horiz-adv-x="738" 
d="M369 -8c-84 0 -152.169 25 -204.502 75s-78.5 117.667 -78.5 203v440h91v-444c0 -60 17.333 -106.167 52 -138.5s81.334 -48.5 140.001 -48.5s105.334 16.167 140.001 48.5s52 78.5 52 138.5v444h91v-440c0 -85.333 -26.167 -153 -78.5 -203s-120.5 -75 -204.5 -75z
M220.998 803v65h292v-65h-292z" />
    <glyph glyph-name="umacron" unicode="&#x16b;" horiz-adv-x="577" 
d="M416 0v56c-34.667 -42.667 -86 -64 -154 -64c-58 0 -104.667 18.5 -140 55.5s-53 86.167 -53 147.5v305h86v-300c0 -37.333 11.333 -67.833 34 -91.5s53 -35.5 91 -35.5c70 0 115.333 33.333 136 100v327h86v-500h-86zM139 614v65h292v-65h-292z" />
    <glyph glyph-name="Ubreve" unicode="&#x16c;" horiz-adv-x="738" 
d="M369 -8c-84 0 -152.169 25 -204.502 75s-78.5 117.667 -78.5 203v440h91v-444c0 -60 17.333 -106.167 52 -138.5s81.334 -48.5 140.001 -48.5s105.334 16.167 140.001 48.5s52 78.5 52 138.5v444h91v-440c0 -85.333 -26.167 -153 -78.5 -203s-120.5 -75 -204.5 -75z
M365.998 772c-44.667 0 -81.5 13.167 -110.5 39.5s-44.167 58.833 -45.5 97.5h64c1.33301 -22 10.333 -40.667 27 -56s38.667 -23 66 -23s49.5 7.66699 66.5 23s26.167 34 27.5 56h64c-2.66699 -39.333 -18.167 -72 -46.5 -98s-65.833 -39 -112.5 -39z" />
    <glyph glyph-name="ubreve" unicode="&#x16d;" horiz-adv-x="577" 
d="M416 0v56c-34.667 -42.667 -86 -64 -154 -64c-58 0 -104.667 18.5 -140 55.5s-53 86.167 -53 147.5v305h86v-300c0 -37.333 11.333 -67.833 34 -91.5s53 -35.5 91 -35.5c70 0 115.333 33.333 136 100v327h86v-500h-86zM285 573c-48 0 -85.667 12.833 -113 38.5
s-42.333 58.5 -45 98.5h67c1.33301 -22 10 -40.5 26 -55.5s37.667 -22.5 65 -22.5s49 7.5 65 22.5s24.667 33.5 26 55.5h67c-2.66699 -40 -17.667 -72.833 -45 -98.5s-65 -38.5 -113 -38.5z" />
    <glyph glyph-name="Uring" unicode="&#x16e;" horiz-adv-x="738" 
d="M369 -8c-84 0 -152.169 25 -204.502 75s-78.5 117.667 -78.5 203v440h91v-444c0 -60 17.333 -106.167 52 -138.5s81.334 -48.5 140.001 -48.5s105.334 16.167 140.001 48.5s52 78.5 52 138.5v444h91v-440c0 -85.333 -26.167 -153 -78.5 -203s-120.5 -75 -204.5 -75z
M366.998 751c-28 0 -51.5 9 -70.5 27s-28.5 40.333 -28.5 67c0 27.333 9.5 50 28.5 68s42.5 27 70.5 27s51.5 -9 70.5 -27s28.5 -40.667 28.5 -68c0 -26.667 -9.5 -49 -28.5 -67s-42.5 -27 -70.5 -27zM366.998 798c14 0 25.5 4.33301 34.5 13s13.5 20 13.5 34
s-4.5 25.5 -13.5 34.5s-20.5 13.5 -34.5 13.5s-25.5 -4.5 -34.5 -13.5s-13.5 -20.5 -13.5 -34.5s4.5 -25.333 13.5 -34s20.5 -13 34.5 -13z" />
    <glyph glyph-name="uring" unicode="&#x16f;" horiz-adv-x="577" 
d="M416 0v56c-34.667 -42.667 -86 -64 -154 -64c-58 0 -104.667 18.5 -140 55.5s-53 86.167 -53 147.5v305h86v-300c0 -37.333 11.333 -67.833 34 -91.5s53 -35.5 91 -35.5c70 0 115.333 33.333 136 100v327h86v-500h-86zM285 566c-28 0 -51.5 9 -70.5 27
s-28.5 40.333 -28.5 67c0 27.333 9.5 50 28.5 68s42.5 27 70.5 27s51.5 -9 70.5 -27s28.5 -40.667 28.5 -68c0 -26.667 -9.5 -49 -28.5 -67s-42.5 -27 -70.5 -27zM285 613c14 0 25.5 4.33301 34.5 13s13.5 20 13.5 34s-4.5 25.5 -13.5 34.5s-20.5 13.5 -34.5 13.5
s-25.5 -4.5 -34.5 -13.5s-13.5 -20.5 -13.5 -34.5s4.5 -25.333 13.5 -34s20.5 -13 34.5 -13z" />
    <glyph glyph-name="Uhungarumlaut" unicode="&#x170;" horiz-adv-x="738" 
d="M369 -8c-84 0 -152.169 25 -204.502 75s-78.5 117.667 -78.5 203v440h91v-444c0 -60 17.333 -106.167 52 -138.5s81.334 -48.5 140.001 -48.5s105.334 16.167 140.001 48.5s52 78.5 52 138.5v444h91v-440c0 -85.333 -26.167 -153 -78.5 -203s-120.5 -75 -204.5 -75z
M238.998 768l77 145h104l-113 -145h-68zM438.998 768l77 145h104l-113 -145h-68z" />
    <glyph glyph-name="uhungarumlaut" unicode="&#x171;" horiz-adv-x="577" 
d="M416 0v56c-34.667 -42.667 -86 -64 -154 -64c-58 0 -104.667 18.5 -140 55.5s-53 86.167 -53 147.5v305h86v-300c0 -37.333 11.333 -67.833 34 -91.5s53 -35.5 91 -35.5c70 0 115.333 33.333 136 100v327h86v-500h-86zM167 549l85 161h101l-123 -161h-63zM336 549l85 161
h101l-123 -161h-63z" />
    <glyph glyph-name="Uogonek" unicode="&#x172;" horiz-adv-x="738" 
d="M369 -8c-84 0 -152.169 25 -204.502 75s-78.5 117.667 -78.5 203v440h91v-444c0 -60 17.333 -106.167 52 -138.5s81.334 -48.5 140.001 -48.5s105.334 16.167 140.001 48.5s52 78.5 52 138.5v444h91v-440c0 -85.333 -26.167 -153 -78.5 -203s-120.5 -75 -204.5 -75z
M377.998 -192c-29.333 0 -54.832 7.66504 -76.499 22.998s-32.5 36.333 -32.5 63c0 22.667 8 43.834 24 63.501s34.333 33.834 55 42.501h91c-54.667 -24 -82 -52.667 -82 -86c0 -27.333 16.667 -41 50 -41c9.33301 0 20.333 2.33301 33 7v-59
c-14.667 -8.66699 -35.334 -13 -62.001 -13z" />
    <glyph glyph-name="uogonek" unicode="&#x173;" horiz-adv-x="577" 
d="M416 0v56c-34.667 -42.667 -86 -64 -154 -64c-58 0 -104.667 18.5 -140 55.5s-53 86.167 -53 147.5v305h86v-300c0 -37.333 11.333 -67.833 34 -91.5s53 -35.5 91 -35.5c70 0 115.333 33.333 136 100v327h86v-500h-86zM441 -192c-30 0 -54.999 7.50098 -74.999 22.501
s-30 36.167 -30 63.5c0 22.667 8.16699 43.667 24.5 63s34.833 33.666 55.5 42.999h86c-54.667 -24 -82 -52.667 -82 -86c0 -27.333 16.667 -41 50 -41c9.33301 0 20.333 2.33301 33 7v-59c-14.667 -8.66699 -35.334 -13 -62.001 -13z" />
    <glyph glyph-name="Wcircumflex" unicode="&#x174;" horiz-adv-x="889" 
d="M252 -8l-244 718h94l157 -474l185 482l186 -482l157 474h94l-244 -718l-193 500zM306 766l-35 60l173 100l173 -100l-35 -60l-138 82z" />
    <glyph glyph-name="wcircumflex" unicode="&#x175;" horiz-adv-x="700" 
d="M169 0l-158 500h89l112 -364l138 372l138 -372l112 364h89l-158 -500h-69l-112 304l-111 -304h-70zM350 718l161 -109l-38 -55l-123 83l-123 -83l-38 55z" />
    <glyph glyph-name="Ycircumflex" unicode="&#x176;" horiz-adv-x="628" 
d="M268 0v301l-260 409h106l200 -319l200 319h106l-260 -409v-301h-92zM177 766l-35 60l173 100l173 -100l-35 -60l-138 82z" />
    <glyph glyph-name="ycircumflex" unicode="&#x177;" horiz-adv-x="507" 
d="M107 -184l103 226l-204 458h93l156 -364l157 364h93l-307 -684h-91zM257 718l161 -109l-38 -55l-123 83l-123 -83l-38 55z" />
    <glyph glyph-name="Ydieresis" unicode="&#x178;" horiz-adv-x="628" 
d="M268 0v301l-260 409h106l200 -319l200 319h106l-260 -409v-301h-92zM429 785c-16.667 0 -31.001 5.66699 -43.001 17s-18 25.666 -18 42.999c0 16.667 5.83301 30.667 17.5 42s26.167 17 43.5 17c16.667 0 30.834 -5.66699 42.501 -17s17.5 -25.333 17.5 -42
c0 -17.333 -6 -31.666 -18 -42.999s-26 -17 -42 -17zM203.999 785c-16.667 0 -31.001 5.66699 -43.001 17s-18 25.666 -18 42.999c0 16.667 5.83301 30.667 17.5 42s26.167 17 43.5 17c16.667 0 30.834 -5.66699 42.501 -17s17.5 -25.333 17.5 -42
c0 -17.333 -6 -31.666 -18 -42.999s-26 -17 -42 -17z" />
    <glyph glyph-name="Zacute" unicode="&#x179;" horiz-adv-x="593" 
d="M404 622l-395 -622h553v88h-397l395 622h-508v-88h352zM460 913l-113 -145h-73l77 145h109z" />
    <glyph glyph-name="zacute" unicode="&#x17a;" horiz-adv-x="486" 
d="M308 422l-292 -422h433v78h-281l291 422h-411v-78h260zM405 710l-123 -160h-71l85 160h109z" />
    <glyph glyph-name="Zdotaccent" unicode="&#x17b;" horiz-adv-x="593" 
d="M9 0l395 622h-352v88h508l-395 -622h397v-88h-553zM309 785c-16.667 0 -31 5.66699 -43 17s-18 25.666 -18 42.999c0 16.667 5.83301 30.667 17.5 42s26.167 17 43.5 17c16.667 0 30.667 -5.66699 42 -17s17 -25.333 17 -42c0 -17.333 -5.83301 -31.666 -17.5 -42.999
s-25.5 -17 -41.5 -17z" />
    <glyph glyph-name="zdotaccent" unicode="&#x17c;" horiz-adv-x="486" 
d="M16 0l292 422h-260v78h411l-291 -422h281v-78h-433zM254 571c-16.667 0 -31 5.66699 -43 17s-18 25.666 -18 42.999c0 16.667 5.83301 30.667 17.5 42s26.167 17 43.5 17c16.667 0 30.667 -5.66699 42 -17s17 -25.333 17 -42c0 -17.333 -5.83301 -31.666 -17.5 -42.999
s-25.5 -17 -41.5 -17z" />
    <glyph glyph-name="Zcaron" unicode="&#x17d;" horiz-adv-x="593" 
d="M9 0l395 622h-352v88h508l-395 -622h397v-88h-553zM447 926l35 -60l-173 -100l-173 100l35 60l138 -82z" />
    <glyph glyph-name="zcaron" unicode="&#x17e;" horiz-adv-x="486" 
d="M16 0l292 422h-260v78h411l-291 -422h281v-78h-433zM252 553l-161 109l38 55l123 -83l123 83l38 -55z" />
    <glyph glyph-name="uni018F" unicode="&#x18f;" horiz-adv-x="787" 
d="M392 -7c-114 0 -202.168 37.667 -264.501 113s-92.166 168.666 -89.499 279.999h606c-6.66699 70 -34.834 128.5 -84.501 175.5s-109.167 70.5 -178.5 70.5c-82.667 0 -159 -30.333 -229 -91l-59 64c74.667 76 170.667 114 288 114c102 0 187.333 -34.5 256 -103.5
s103 -155.5 103 -259.5c0 -101.333 -33.667 -187.166 -101 -257.499s-149.666 -105.5 -246.999 -105.5zM391.999 80c64 0 119 20.167 165 60.5s74.667 92.833 86 157.5h-503c8.66699 -64.667 34.5 -117.167 77.5 -157.5s101.167 -60.5 174.5 -60.5z" />
    <glyph glyph-name="uni0218" unicode="&#x218;" horiz-adv-x="528" 
d="M263 -8c-49.333 0 -94.498 10.3359 -135.498 31.0029s-72.833 47 -95.5 79l69 60c44 -55.333 97.667 -83 161 -83c42 0 74.833 8.83301 98.5 26.5s35.5 42.167 35.5 73.5s-9.33301 56.833 -28 76.5s-48 38.167 -88 55.5l-65 28c-103.333 44.667 -155 111.667 -155 201
c0 52 20.833 94.667 62.5 128s89.834 50 144.501 50c83.333 0 149.666 -30.333 198.999 -91l-64 -64c-38 45.333 -84 68 -138 68c-31.333 0 -58 -8.33301 -80 -25s-33 -39.334 -33 -68.001c0 -26 8.16699 -48.333 24.5 -67s43.166 -36.334 80.499 -53.001l65 -28
c53.333 -24 94.5 -51.833 123.5 -83.5s43.5 -70.834 43.5 -117.501c0 -58.667 -20.333 -106.167 -61 -142.5s-95.334 -54.5 -164.001 -54.5zM137.002 -214.997l69 165h100l-104 -165h-65z" />
    <glyph glyph-name="uni0219" unicode="&#x219;" horiz-adv-x="420" 
d="M207 -8c-78.667 0 -137.664 33.334 -176.997 100.001l68 46c28 -46 65 -69 111 -69c25.333 0 46.5 5.66699 63.5 17s25.5 26.666 25.5 45.999s-6.5 34.833 -19.5 46.5s-34.833 22.834 -65.5 33.501l-39 15c-79.333 30 -119 79.333 -119 148c0 38 14.667 69.667 44 95
s66.666 38 111.999 38c69.333 0 119.333 -30 150 -90l-67 -39c-16.667 34.667 -44.334 52 -83.001 52c-20 0 -36.833 -5 -50.5 -15s-20.5 -23.333 -20.5 -40s5.16699 -31 15.5 -43s29.5 -23 57.5 -33l41 -15c44 -16 76.667 -35.833 98 -59.5s32 -53.834 32 -90.501
c0 -40.667 -16.333 -74.667 -49 -102s-75.334 -41 -128.001 -41zM93.0029 -214.999l69 165h100l-104 -165h-65z" />
    <glyph glyph-name="uni021A" unicode="&#x21a;" horiz-adv-x="526" 
d="M217 0v622h-201v88h494v-88h-202v-622h-91zM140 -215l69 165h100l-104 -165h-65z" />
    <glyph glyph-name="uni021B" unicode="&#x21b;" horiz-adv-x="364" 
d="M334 0h-76c-48.667 -0 -86 12.333 -112 37s-39 60.667 -39 108v277h-80l-19 78h99v107l86 43v-150h151l-19 -78h-132v-264c0 -26.667 5.66699 -46.667 17 -60s30.333 -20 57 -20h67v-78zM101 -215l69 165h100l-104 -165h-65z" />
    <glyph glyph-name="uni0232" unicode="&#x232;" horiz-adv-x="628" 
d="M268 0v301l-260 409h106l200 -319l200 319h106l-260 -409v-301h-92zM169 803v65h292v-65h-292z" />
    <glyph glyph-name="uni0233" unicode="&#x233;" horiz-adv-x="507" 
d="M107 -184l103 226l-204 458h93l156 -364l157 364h93l-307 -684h-91zM111 614v65h292v-65h-292z" />
    <glyph glyph-name="uni0237" unicode="&#x237;" horiz-adv-x="244" 
d="M-21 -184v78h30c26.667 0 45.667 6.66699 57 20s17 33.333 17 60v526h86v-539c0 -47.333 -13 -83.333 -39 -108s-63.333 -37 -112 -37h-39z" />
    <glyph glyph-name="uni0259" unicode="&#x259;" horiz-adv-x="571" 
d="M272 509c73.333 0 134.499 -24.833 183.499 -74.5s73.5 -110.834 73.5 -183.501s-24.333 -133.834 -73 -183.501s-108 -74.5 -178 -74.5c-74 0 -133.167 25.833 -177.5 77.5s-66.5 118.834 -66.5 201.501h406c-4 46.667 -22.167 84.334 -54.5 113.001
s-70.166 43 -113.499 43c-57.333 0 -106 -20 -146 -60l-55 60c51.333 54 118.333 81 201 81zM282.999 72c34 0 65.667 10.5 95 31.5s48.333 52.167 57 93.5h-304c6 -40 23 -71 51 -93s61.667 -32.667 101 -32z" />
    <glyph glyph-name="uni02BB" unicode="&#x2bb;" horiz-adv-x="244" 
d="M174 710l-43 -142h51v-123h-122v124l57 141h57z" />
    <glyph glyph-name="uni02BC" unicode="&#x2bc;" horiz-adv-x="234" 
d="M70 445l43 142h-51v123h122v-124l-57 -141h-57z" />
    <glyph glyph-name="circumflex" unicode="&#x2c6;" 
d="M0 718l161 -109l-38 -55l-123 83l-123 -83l-38 55z" />
    <glyph glyph-name="caron" unicode="&#x2c7;" 
d="M0 553l-161 109l38 55l123 -83l123 83l38 -55z" />
    <glyph glyph-name="breve" unicode="&#x2d8;" 
d="M0 573c-48 0 -85.667 12.833 -113 38.5s-42.333 58.5 -45 98.5h67c1.33301 -22 10 -40.5 26 -55.5s37.667 -22.5 65 -22.5s49 7.5 65 22.5s24.667 33.5 26 55.5h67c-2.66699 -40 -17.667 -72.833 -45 -98.5s-65 -38.5 -113 -38.5z" />
    <glyph glyph-name="dotaccent" unicode="&#x2d9;" 
d="M1 571c-16.667 0 -31 5.66699 -43 17s-18 25.666 -18 42.999c0 16.667 5.83301 30.667 17.5 42s26.167 17 43.5 17c16.667 0 30.667 -5.66699 42 -17s17 -25.333 17 -42c0 -17.333 -5.83301 -31.666 -17.5 -42.999s-25.5 -17 -41.5 -17z" />
    <glyph glyph-name="ring" unicode="&#x2da;" 
d="M0 566c-28 0 -51.5 9 -70.5 27s-28.5 40.333 -28.5 67c0 27.333 9.5 50 28.5 68s42.5 27 70.5 27s51.5 -9 70.5 -27s28.5 -40.667 28.5 -68c0 -26.667 -9.5 -49 -28.5 -67s-42.5 -27 -70.5 -27zM0 613c14 0 25.5 4.33301 34.5 13s13.5 20 13.5 34s-4.5 25.5 -13.5 34.5
s-20.5 13.5 -34.5 13.5s-25.5 -4.5 -34.5 -13.5s-13.5 -20.5 -13.5 -34.5s4.5 -25.333 13.5 -34s20.5 -13 34.5 -13z" />
    <glyph glyph-name="ogonek" unicode="&#x2db;" 
d="M22 -192c-30 0 -54.999 7.50098 -74.999 22.501s-30 36.167 -30 63.5c0 22.667 8.16699 43.667 24.5 63s34.833 33.666 55.5 42.999h86c-54.667 -24 -82 -52.667 -82 -86c0 -27.333 16.667 -41 50 -41c9.33301 0 20.333 2.33301 33 7v-59
c-14.667 -8.66699 -35.334 -13 -62.001 -13z" />
    <glyph glyph-name="tilde" unicode="&#x2dc;" 
d="M-172 566l3 19c6 29.333 18.667 52.333 38 69s41 25 65 25c20 0 43.833 -7.33301 71.5 -22s45.834 -22 54.501 -22c24.667 0 40.667 14.667 48 44h66l-3 -18c-5.33301 -28 -17.5 -50.667 -36.5 -68s-41.167 -26 -66.5 -26c-20.667 0 -44.834 7.33301 -72.501 22
s-46.167 22 -55.5 22c-24 0 -39.333 -15 -46 -45h-66z" />
    <glyph glyph-name="hungarumlaut" unicode="&#x2dd;" 
d="M-177 549l85 161h101l-123 -161h-63zM-8 549l85 161h101l-123 -161h-63z" />
    <glyph glyph-name="uni0326" unicode="&#x326;" 
d="M-82 -215l69 165h100l-104 -165h-65z" />
    <glyph glyph-name="uni0401" unicode="&#x401;" horiz-adv-x="555" 
d="M95 0v710h410v-88h-319v-215h259v-88h-259v-231h319v-88h-410zM414 785c-16.667 0 -31.001 5.66699 -43.001 17s-18 25.666 -18 42.999c0 16.667 5.83301 30.667 17.5 42s26.167 17 43.5 17c16.667 0 30.834 -5.66699 42.501 -17s17.5 -25.333 17.5 -42
c0 -17.333 -6 -31.666 -18 -42.999s-26 -17 -42 -17zM188.999 785c-16.667 0 -31.001 5.66699 -43.001 17s-18 25.666 -18 42.999c0 16.667 5.83301 30.667 17.5 42s26.167 17 43.5 17c16.667 0 30.834 -5.66699 42.501 -17s17.5 -25.333 17.5 -42
c0 -17.333 -6 -31.666 -18 -42.999s-26 -17 -42 -17z" />
    <glyph glyph-name="uni0402" unicode="&#x402;" horiz-adv-x="732" 
d="M189 0l0.00292969 621.999h-172v88h475v-88h-212v-222c40.667 16 74.667 26.833 102 32.5s60.666 8.5 99.999 8.5c64 0 115.5 -20.667 154.5 -62s58.5 -100 58.5 -176c0 -94 -26.333 -168.167 -79 -222.5s-118.334 -81.5 -197.001 -81.5h-15v82h12
c14 0 28.333 1.66699 43 5s31 9.83301 49 19.5s33.833 21.834 47.5 36.501s25.167 35 34.5 61s14 55.667 14 89c0 52.667 -12.333 92.667 -37 120s-58.334 41 -101.001 41c-36 0 -66 -2.66699 -90 -8s-56 -16 -96 -32v-313h-91z" />
    <glyph glyph-name="uni0403" unicode="&#x403;" horiz-adv-x="500" 
d="M483 622v88h-388v-710h91v622h297zM440 913l-113 -145h-73l77 145h109z" />
    <glyph glyph-name="uni0404" unicode="&#x404;" horiz-adv-x="726" 
d="M409 -8c-102 0 -188 34.8291 -258 104.496s-105 155.834 -105 258.501s35 188.834 105 258.501s156 104.5 258 104.5c60 0 115.333 -12.667 166 -38s90 -57.666 118 -96.999l-65 -57c-51.333 70 -124.333 105 -219 105c-68 0 -126.333 -20.833 -175 -62.5
s-79 -95.5 -91 -161.5h353v-88h-355c8 -70 36.833 -127.5 86.5 -172.5s110.167 -67.5 181.5 -67.5c94.667 0 167.667 35 219 105l65 -57c-28 -39.333 -67.333 -71.666 -118 -96.999s-106 -38 -166 -38z" />
    <glyph glyph-name="uni0405" unicode="&#x405;" horiz-adv-x="528" 
d="M263 -8c-49.333 0 -94.498 10.3359 -135.498 31.0029s-72.833 47 -95.5 79l69 60c44 -55.333 97.667 -83 161 -83c42 0 74.833 8.83301 98.5 26.5s35.5 42.167 35.5 73.5s-9.33301 56.833 -28 76.5s-48 38.167 -88 55.5l-65 28c-103.333 44.667 -155 111.667 -155 201
c0 52 20.833 94.667 62.5 128s89.834 50 144.501 50c83.333 0 149.666 -30.333 198.999 -91l-64 -64c-38 45.333 -84 68 -138 68c-31.333 0 -58 -8.33301 -80 -25s-33 -39.334 -33 -68.001c0 -26 8.16699 -48.333 24.5 -67s43.166 -36.334 80.499 -53.001l65 -28
c53.333 -24 94.5 -51.833 123.5 -83.5s43.5 -70.834 43.5 -117.501c0 -58.667 -20.333 -106.167 -61 -142.5s-95.334 -54.5 -164.001 -54.5z" />
    <glyph glyph-name="uni0406" unicode="&#x406;" horiz-adv-x="281" 
d="M95 0v710h91v-710h-91z" />
    <glyph glyph-name="uni0407" unicode="&#x407;" horiz-adv-x="281" 
d="M95 0v710h91v-710h-91zM40 785c-16.667 0 -31 5.66699 -43 17s-18 25.666 -18 42.999c0 16.667 5.83301 30.667 17.5 42s26.167 17 43.5 17c16.667 0 30.667 -5.66699 42 -17s17 -25.333 17 -42c0 -17.333 -5.83301 -31.666 -17.5 -42.999s-25.5 -17 -41.5 -17zM242 785
c-16.667 0 -31 5.66699 -43 17s-18 25.666 -18 42.999c0 16.667 5.83301 30.667 17.5 42s26.167 17 43.5 17c16.667 0 30.667 -5.66699 42 -17s17 -25.333 17 -42c0 -17.333 -5.83301 -31.666 -17.5 -42.999s-25.5 -17 -41.5 -17z" />
    <glyph glyph-name="uni0408" unicode="&#x408;" horiz-adv-x="523" 
d="M228 -8c-59.333 0 -108.667 18.333 -148 55s-59 87 -59 151h91c0 -38.667 10.833 -68.167 32.5 -88.5s49.167 -30.5 82.5 -30.5c35.333 0 63.666 10 84.999 30s32 49.667 32 89v512h91v-518c0 -64 -19.667 -113.333 -59 -148s-88.666 -52 -147.999 -52z" />
    <glyph glyph-name="uni0409" unicode="&#x409;" horiz-adv-x="941" 
d="M-7 0l346 718l140 -290h179c76 0 136.667 -19.333 182 -58s68 -90.667 68 -156c0 -66 -22.667 -118.167 -68 -156.5s-106 -57.5 -182 -57.5h-71l-248 524l-248 -524h-98zM657 344h-137l125 -260h12c52 0 91.667 11.167 119 33.5s41 54.5 41 96.5s-13.667 74.167 -41 96.5
s-67 33.5 -119 33.5z" />
    <glyph glyph-name="uni040A" unicode="&#x40a;" horiz-adv-x="999" 
d="M95 0v710h91v-303h332v303h91v-303h108c76 0 136.833 -18.333 182.5 -55s68.5 -83.667 68.5 -141c0 -64 -22.667 -115.167 -68 -153.5s-106.333 -57.5 -183 -57.5h-199v319h-332v-319h-91zM717 319h-108v-235h108c106 0 159 42 159 126c0 34.667 -13.5 61.5 -40.5 80.5
s-66.5 28.5 -118.5 28.5z" />
    <glyph glyph-name="uni040B" unicode="&#x40b;" horiz-adv-x="757" 
d="M189 622h-172v88h475v-88h-212v-222c69.333 26.667 141 40 215 40c63.333 0 115 -19.333 155 -58s60 -87.667 60 -147v-235h-91v225c0 36.667 -11.833 67.167 -35.5 91.5s-55.5 36.5 -95.5 36.5c-68.667 0 -138 -13.333 -208 -40v-313h-91v622z" />
    <glyph glyph-name="uni040C" unicode="&#x40c;" horiz-adv-x="641" 
d="M95 710v-710h91v337l342 -337h121l-355 349l328 361h-112l-324 -356v356h-91zM496 913l-113 -145h-73l77 145h109z" />
    <glyph glyph-name="uni040E" unicode="&#x40e;" horiz-adv-x="657" 
d="M197 0l89 169l-273 541h100l224 -445l235 445h94l-375 -710h-94zM429 914h71.998c-1.33301 -50 -16.166 -88.5 -44.499 -115.5s-66.5 -40.5 -114.5 -40.5s-86.167 13.5 -114.5 40.5s-43.166 65.5 -44.499 115.5h72c0.666992 -31.333 8.66699 -55.333 24 -72
s36.333 -25 63 -25s47.667 8.33301 63 25s23.333 40.667 24 72z" />
    <glyph glyph-name="uni040F" unicode="&#x40f;" horiz-adv-x="737" 
d="M413 0v-148h-89v148h-229v710h91v-622h365v622h91v-710h-229z" />
    <glyph glyph-name="uni0410" unicode="&#x410;" horiz-adv-x="678" 
d="M-7 0l346 718l346 -718h-98l-88 186h-320l-88 -186h-98zM219 270h240l-120 254z" />
    <glyph glyph-name="uni0411" unicode="&#x411;" horiz-adv-x="621" 
d="M186 622v-209h165c70.667 0 127.667 -19.167 171 -57.5s65 -88.833 65 -151.5c0 -64 -23.667 -114 -71 -150s-109.333 -54 -186 -54h-235v710h428v-88h-337zM186 85h160c48.667 0 86 11 112 33s39 51.333 39 88c0 37.333 -13.167 67.333 -39.5 90s-63.5 34 -111.5 34
h-160v-245z" />
    <glyph glyph-name="uni0412" unicode="&#x412;" horiz-adv-x="632" 
d="M95 0v710h237c66 0 117.333 -17.667 154 -53s55 -79.333 55 -132c0 -66 -24.667 -115.333 -74 -148c80.667 -30.667 121 -89.667 121 -177c0 -63.333 -22.167 -112.5 -66.5 -147.5s-103.833 -52.5 -178.5 -52.5h-248zM186 404h144.002c37.333 0 66.666 10.333 87.999 31
s32 47.334 32 80.001c0 31.333 -10.833 57.666 -32.5 78.999s-50.834 32 -87.501 32h-144v-222zM186.002 84h168c46 0 81.167 11 105.5 33s36.5 51 36.5 87s-12.167 65.333 -36.5 88s-59.5 34 -105.5 34h-168v-242z" />
    <glyph glyph-name="uni0413" unicode="&#x413;" horiz-adv-x="500" 
d="M483 710v-88h-297v-622h-91v710h388z" />
    <glyph glyph-name="uni0414" unicode="&#x414;" horiz-adv-x="755" 
d="M16 -148v236h69l292 630l292 -630h70v-236h-89v148h-545v-148h-89zM178 88h398l-199 437z" />
    <glyph glyph-name="uni0415" unicode="&#x415;" horiz-adv-x="555" 
d="M95 0v710h410v-88h-319v-215h259v-88h-259v-231h319v-88h-410z" />
    <glyph glyph-name="uni0416" unicode="&#x416;" horiz-adv-x="961" 
d="M-8 0l336 349l-309 361h112l304 -356v356h91v-356l304 356h112l-309 -361l336 -349h-121l-322 337v-337h-91v337l-322 -337h-121z" />
    <glyph glyph-name="uni0417" unicode="&#x417;" horiz-adv-x="550" 
d="M116 567l-63.001 60.998c62 60 131.667 90 209 90c65.333 0 117 -18.5 155 -55.5s57 -82.833 57 -137.5c0 -68.667 -30.333 -119.667 -91 -153c36.667 -12.667 65.167 -34.167 85.5 -64.5s30.5 -66.166 30.5 -107.499c0 -64.667 -23.667 -115.5 -71 -152.5
s-104.333 -55.5 -171 -55.5c-48.667 0 -94.167 10 -136.5 30s-76.166 46 -101.499 78l67 61c20.667 -24.667 46.334 -44.667 77.001 -60s63 -23 97 -23c44.667 0 80.5 11.833 107.5 35.5s40.5 53.834 40.5 90.501c0 36 -12.333 65.667 -37 89s-60.334 35 -107.001 35h-69v78
h72c36.667 0 65 10.667 85 32s30 48.333 30 81c0 33.333 -10.5 60.5 -31.5 81.5s-51.167 31.5 -90.5 31.5c-54 0 -102 -21.667 -144 -65z" />
    <glyph glyph-name="uni0418" unicode="&#x418;" horiz-adv-x="787" 
d="M95 -8v718h91v-505l506 513v-718h-91v505z" />
    <glyph glyph-name="uni0419" unicode="&#x419;" horiz-adv-x="787" 
d="M95 -8v718h91v-505l506 513v-718h-91v505zM496 914h71.998c-1.33301 -50 -16.166 -88.5 -44.499 -115.5s-66.5 -40.5 -114.5 -40.5s-86.167 13.5 -114.5 40.5s-43.166 65.5 -44.499 115.5h72c0.666992 -31.333 8.66699 -55.333 24 -72s36.333 -25 63 -25
s47.667 8.33301 63 25s23.333 40.667 24 72z" />
    <glyph glyph-name="uni041A" unicode="&#x41a;" horiz-adv-x="641" 
d="M95 0v710h91v-356l324 356h112l-328 -361l355 -349h-121l-342 337v-337h-91z" />
    <glyph glyph-name="uni041B" unicode="&#x41b;" horiz-adv-x="678" 
d="M-7 0l346 718l346 -718h-98l-248 524l-248 -524h-98z" />
    <glyph glyph-name="uni041C" unicode="&#x41c;" horiz-adv-x="882" 
d="M95 0v718l346 -381l346 381v-718h-91v494l-255 -285l-255 285v-494h-91z" />
    <glyph glyph-name="uni041D" unicode="&#x41d;" horiz-adv-x="764" 
d="M95 0v710h91v-303h392v303h91v-710h-91v319h-392v-319h-91z" />
    <glyph glyph-name="uni041E" unicode="&#x41e;" horiz-adv-x="818" 
d="M409 -8c-102 0 -188 34.833 -258 104.5s-105 155.834 -105 258.501s35 188.834 105 258.501s156 104.5 258 104.5s188 -34.833 258 -104.5s105 -155.834 105 -258.501s-35 -188.834 -105 -258.501s-156 -104.5 -258 -104.5zM409 79c77.333 0 141.666 26.5 192.999 79.5
s77 118.5 77 196.5s-25.667 143.5 -77 196.5s-115.666 79.5 -192.999 79.5s-141.666 -26.5 -192.999 -79.5s-77 -118.5 -77 -196.5s25.667 -143.5 77 -196.5s115.666 -79.5 192.999 -79.5z" />
    <glyph glyph-name="uni041F" unicode="&#x41f;" horiz-adv-x="732" 
d="M546 0v622h-360v-622h-91v710h542v-710h-91z" />
    <glyph glyph-name="uni0420" unicode="&#x420;" horiz-adv-x="574" 
d="M95 0v710h201c74.667 0 134.334 -19.5 179.001 -58.5s67 -91.833 67 -158.5c0 -66 -22.333 -118.667 -67 -158s-104.334 -59 -179.001 -59h-110v-276h-91zM186 360h107c50.667 0 89.334 11.5 116.001 34.5s40 55.833 40 98.5s-13.333 75.5 -40 98.5
s-65.334 34.5 -116.001 34.5h-107v-266z" />
    <glyph glyph-name="uni0421" unicode="&#x421;" horiz-adv-x="722" 
d="M409 -8c-102 0 -188 34.8291 -258 104.496s-105 155.834 -105 258.501s35 188.834 105 258.501s156 104.5 258 104.5c60 0 115.333 -12.667 166 -38s90 -57.666 118 -96.999l-65 -57c-51.333 70 -124.333 105 -219 105c-77.333 0 -141.666 -26.5 -192.999 -79.5
s-77 -118.5 -77 -196.5s25.667 -143.5 77 -196.5s115.666 -79.5 192.999 -79.5c94.667 0 167.667 35 219 105l65 -57c-28 -39.333 -67.333 -71.666 -118 -96.999s-106 -38 -166 -38z" />
    <glyph glyph-name="uni0422" unicode="&#x422;" horiz-adv-x="526" 
d="M217 0v622h-201v88h494v-88h-202v-622h-91z" />
    <glyph glyph-name="uni0423" unicode="&#x423;" horiz-adv-x="657" 
d="M197 0l89 169l-273 541h100l224 -445l235 445h94l-375 -710h-94z" />
    <glyph glyph-name="uni0424" unicode="&#x424;" horiz-adv-x="851" 
d="M471 -20h-91v88c-106.667 4 -189.667 32.167 -249 84.5s-89 121.833 -89 208.5c0 86 29.333 154.833 88 206.5s142 79.5 250 83.5v79h91v-79c106.667 -4 189.667 -32.333 249 -85s89 -122 89 -208c0 -85.333 -29.333 -154 -88 -206s-142 -80 -250 -84v-88zM471 567
v-415.002c163.333 4.66699 245 73.334 245 206.001c0 134.667 -81.667 204.334 -245 209.001zM135 360.998c0 -134.667 81.667 -204.332 245 -208.999v415c-163.333 -4.66699 -245 -73.334 -245 -206.001z" />
    <glyph glyph-name="uni0425" unicode="&#x425;" horiz-adv-x="639" 
d="M6 0l256 362l-243 348h105l195 -279l195 279h105l-241 -348l255 -362h-103l-210 295l-208 -295h-106z" />
    <glyph glyph-name="uni0426" unicode="&#x426;" horiz-adv-x="754" 
d="M629 88h88v-236h-89v148h-533v710h91v-622h352v622h91v-622z" />
    <glyph glyph-name="uni0427" unicode="&#x427;" horiz-adv-x="689" 
d="M594 0h-91v310c-68 -26.667 -140 -40 -216 -40s-135 17.833 -177 53.5s-63 89.5 -63 161.5v225h91v-205c0 -56 14.167 -94.667 42.5 -116s68.5 -32 120.5 -32c72 0 139.333 13.333 202 40v313h91v-710z" />
    <glyph glyph-name="uni0428" unicode="&#x428;" horiz-adv-x="981" 
d="M95 0v710h91v-622h259v622h91v-622h259v622h91v-710h-791z" />
    <glyph glyph-name="uni0429" unicode="&#x429;" horiz-adv-x="1011" 
d="M445 88v622h91v-622h259v622h91v-622h88v-236h-89v148h-790v710h91v-622h259z" />
    <glyph glyph-name="uni042A" unicode="&#x42a;" horiz-adv-x="702" 
d="M208 0v622h-191v88h282v-282h120c76 0 136.667 -19.333 182 -58s68 -90.667 68 -156c0 -66 -22.667 -118.167 -68 -156.5s-106 -57.5 -182 -57.5h-211zM299 84h119c52 0 91.667 11.167 119 33.5s41 54.5 41 96.5s-13.667 74.167 -41 96.5s-67 33.5 -119 33.5h-119v-260z
" />
    <glyph glyph-name="uni042B" unicode="&#x42b;" horiz-adv-x="850" 
d="M186 428h120c76 0 136.667 -19.333 182 -58s68 -90.667 68 -156c0 -66 -22.667 -118.167 -68 -156.5s-106 -57.5 -182 -57.5h-211v710h91v-282zM186 84h119c52 0 91.667 11.167 119 33.5s41 54.5 41 96.5s-13.667 74.167 -41 96.5s-67 33.5 -119 33.5h-119v-260zM664 0
v710h91v-710h-91z" />
    <glyph glyph-name="uni042C" unicode="&#x42c;" horiz-adv-x="589" 
d="M186 428h120c76 0 136.667 -19.333 182 -58s68 -90.667 68 -156c0 -66 -22.667 -118.167 -68 -156.5s-106 -57.5 -182 -57.5h-211v710h91v-282zM186 84h119c52 0 91.667 11.167 119 33.5s41 54.5 41 96.5s-13.667 74.167 -41 96.5s-67 33.5 -119 33.5h-119v-260z" />
    <glyph glyph-name="uni042D" unicode="&#x42d;" horiz-adv-x="726" 
d="M317 -8c-60 0 -115.333 12.6709 -166 38.0039s-90 57.666 -118 96.999l65 57c51.333 -70 124.333 -105 219 -105c71.333 0 131.833 22.5 181.5 67.5s78.5 102.5 86.5 172.5h-338v88h336c-12 66 -42.333 119.833 -91 161.5s-107 62.5 -175 62.5
c-94.667 0 -167.667 -35 -219 -105l-65 57c28 39.333 67.333 71.666 118 96.999s106 38 166 38c102 0 188 -34.833 258 -104.5s105 -155.834 105 -258.501s-35 -188.834 -105 -258.501s-156 -104.5 -258 -104.5z" />
    <glyph glyph-name="uni042E" unicode="&#x42e;" horiz-adv-x="1054" 
d="M95 0v710.001h91v-303h118c12 90 50.833 164.333 116.5 223s143.5 88 233.5 88c98.667 0 182.167 -35 250.5 -105s102.5 -156 102.5 -258c0 -102.667 -34.167 -188.834 -102.5 -258.501s-151.833 -104.5 -250.5 -104.5c-92 0 -171.5 31 -238.5 93s-104.5 140 -112.5 234
h-117v-319h-91zM654 79.001c74 0 135.833 26.5 185.5 79.5s74.5 118.5 74.5 196.5s-24.833 143.5 -74.5 196.5s-111.5 79.5 -185.5 79.5s-135.833 -26.5 -185.5 -79.5s-74.5 -118.5 -74.5 -196.5s24.833 -143.5 74.5 -196.5s111.5 -79.5 185.5 -79.5z" />
    <glyph glyph-name="uni042F" unicode="&#x42f;" horiz-adv-x="625" 
d="M24 0l197.999 299c-48.667 12 -85.667 35 -111 69s-38 75.667 -38 125c0 66.667 22.333 119.5 67 158.5s104.334 58.5 179.001 58.5h211v-710h-91v276h-126l-182 -276h-107zM321.999 360h117v266h-117c-50.667 0 -89.334 -11.5 -116.001 -34.5s-40 -55.833 -40 -98.5
s13.333 -75.5 40 -98.5s65.334 -34.5 116.001 -34.5z" />
    <glyph glyph-name="uni0430" unicode="&#x430;" horiz-adv-x="617" 
d="M456 0v50.002c-42.667 -38.667 -95.667 -58 -159 -58c-73.333 0 -134.166 24.667 -182.499 74s-72.5 110.666 -72.5 183.999s24.167 134.666 72.5 183.999s109.166 74 182.499 74c63.333 0 116.333 -19.333 159 -58v50h86v-500h-86zM299 73.002
c34.667 0 65.667 7.33301 93 22s48.666 34.334 63.999 59.001v192c-15.333 24.667 -36.666 44.334 -63.999 59.001s-58.333 22 -93 22c-48.667 0 -88.834 -16.833 -120.501 -50.5s-47.5 -75.834 -47.5 -126.501s15.833 -92.834 47.5 -126.501s71.834 -50.5 120.501 -50.5z
" />
    <glyph glyph-name="uni0431" unicode="&#x431;" horiz-adv-x="619" 
d="M319 -8c-76.667 0 -139.166 26.168 -187.499 78.501s-72.5 118.5 -72.5 198.5v51c0 116.667 23.167 205.834 69.5 267.501s119.166 101.167 218.499 118.5l185 33v-81l-169 -29c-41.333 -7.33301 -75.5 -16.833 -102.5 -28.5s-48.833 -27.334 -65.5 -47.001
s-29.167 -40.334 -37.5 -62.001s-15.833 -49.5 -22.5 -83.5c47.333 63.333 111.333 95 192 95c74.667 0 135.167 -24.5 181.5 -73.5s69.5 -107.5 69.5 -175.5c0 -73.333 -24.667 -135.333 -74 -186s-111 -76 -185 -76zM319.001 71.001c50.667 0 92.167 17.5 124.5 52.5
s48.5 78.5 48.5 130.5c0 49.333 -16.167 90.166 -48.5 122.499s-73.833 48.5 -124.5 48.5s-92.167 -16.167 -124.5 -48.5s-48.5 -73.166 -48.5 -122.499c0 -52 16.167 -95.5 48.5 -130.5s73.833 -52.5 124.5 -52.5z" />
    <glyph glyph-name="uni0432" unicode="&#x432;" horiz-adv-x="534" 
d="M75 0v500h212c56 0 99 -11.833 129 -35.5s45 -56.834 45 -99.501c0 -44 -17.667 -77.333 -53 -100c57.333 -20.667 86 -61 86 -121c0 -43.333 -15.5 -78.166 -46.5 -104.499s-76.833 -39.5 -137.5 -39.5h-235zM161 291h136c20.667 0 38.167 5.5 52.5 16.5
s21.5 27.5 21.5 49.5s-7.33301 38.667 -22 50s-32 17 -52 17h-136v-133zM161 76l156 -0.000976562c25.333 0 46 6.33301 62 19s24 31.334 24 56.001c0 23.333 -8 41.333 -24 54s-36.667 19 -62 19h-156v-148z" />
    <glyph glyph-name="uni0433" unicode="&#x433;" horiz-adv-x="399" 
d="M75 0v500h307v-78h-222v-422h-85z" />
    <glyph glyph-name="uni0434" unicode="&#x434;" horiz-adv-x="584" 
d="M14 -127v205h55l223 430l224 -430h54v-205h-80v127h-396v-127h-80zM423 78l-134 265l-131 -265h265z" />
    <glyph glyph-name="uni0435" unicode="&#x435;" horiz-adv-x="569" 
d="M299 -8c-73.333 0 -134.499 24.833 -183.499 74.5s-73.5 110.834 -73.5 183.501s24.333 133.834 73 183.501s108 74.5 178 74.5c71.333 0 129.5 -24.833 174.5 -74.5s68.167 -117.834 69.5 -204.501h-406c4 -46.667 22.167 -84.334 54.5 -113.001s70.166 -43 113.499 -43
c57.333 0 106 20 146 60l55 -60c-51.333 -54 -118.333 -81 -201 -81zM288.001 429c-34 0 -65.667 -10.5 -95 -31.5s-48.333 -52.167 -57 -93.5h304c-6 40 -23 71 -51 93s-61.667 32.667 -101 32z" />
    <glyph glyph-name="uni0436" unicode="&#x436;" horiz-adv-x="764" 
d="M-1 0l245 249l-221 251h101l215 -247v247h86v-247l215 247h101l-221 -251l245 -249h-108l-232 240v-240h-86v240l-232 -240h-108z" />
    <glyph glyph-name="uni0437" unicode="&#x437;" horiz-adv-x="459" 
d="M224 -8c-88.667 0 -154.332 33.332 -196.999 99.999l68 45c14 -24 31 -41.833 51 -53.5s46 -17.5 78 -17.5c70.667 0 106 26.667 106 80c0 24.667 -9.83301 44 -29.5 58s-46.834 21 -81.501 21h-65v68h62c26.667 0 49.5 6 68.5 18s28.5 30 28.5 54
c0 22.667 -8.83301 39.834 -26.5 51.501s-39.167 17.5 -64.5 17.5c-55.333 0 -93.333 -19.333 -114 -58l-66 42c42 60 102.333 90 181 90c51.333 0 93 -12.667 125 -38s48 -58.666 48 -99.999c0 -48.667 -22.333 -85 -67 -109c27.333 -10.667 48.833 -26.834 64.5 -48.501
s23.5 -46.5 23.5 -74.5c0 -40 -16.833 -74.333 -50.5 -103s-81.167 -43 -142.5 -43z" />
    <glyph glyph-name="uni0438" unicode="&#x438;" horiz-adv-x="597" 
d="M75 -8v508h85v-334l362 342v-508h-85v329z" />
    <glyph glyph-name="uni0439" unicode="&#x439;" horiz-adv-x="597" 
d="M75 -8v508h85v-334l362 342v-508h-85v329zM400 710l69 0.000976562c-1.33301 -50.667 -16.333 -89.334 -45 -116.001s-66.667 -40 -114 -40c-48 0 -86.167 13.5 -114.5 40.5s-43.166 65.5 -44.499 115.5h68c0.666992 -32.667 9.16699 -57.5 25.5 -74.5
s38.166 -25.5 65.499 -25.5c26.667 0 48 8.33301 64 25s24.667 41.667 26 75z" />
    <glyph glyph-name="uni043A" unicode="&#x43a;" horiz-adv-x="504" 
d="M75 0v500h86v-247l221 247h105l-226 -251l250 -249h-112l-238 240v-240h-86z" />
    <glyph glyph-name="uni043B" unicode="&#x43b;" horiz-adv-x="525" 
d="M-2 0l264 508l265 -508h-98l-166 332l-169 -332h-96z" />
    <glyph glyph-name="uni043C" unicode="&#x43c;" horiz-adv-x="687" 
d="M527 0v303l-183 -211l-184 211v-303h-85v510l269 -305l268 305v-510h-85z" />
    <glyph glyph-name="uni043D" unicode="&#x43d;" horiz-adv-x="590" 
d="M75 0v500h85v-206h270v206h85v-500h-85v216h-270v-216h-85z" />
    <glyph glyph-name="uni043E" unicode="&#x43e;" horiz-adv-x="602" 
d="M302 -8c-74.667 0 -136.667 24.833 -186 74.5s-74 110.834 -74 183.501s24.667 133.834 74 183.501s111.333 74.5 186 74.5c74 0 135.667 -24.833 185 -74.5s74 -110.834 74 -183.501s-24.667 -133.834 -74 -183.501s-111 -74.5 -185 -74.5zM302 73
c50 0 90.833 16.833 122.5 50.5s47.5 75.834 47.5 126.501s-15.833 92.834 -47.5 126.501s-72.5 50.5 -122.5 50.5s-91 -16.833 -123 -50.5s-48 -75.834 -48 -126.501s16 -92.834 48 -126.501s73 -50.5 123 -50.5z" />
    <glyph glyph-name="uni043F" unicode="&#x43f;" horiz-adv-x="579" 
d="M75 0v500h429v-500h-86v422h-257v-422h-86z" />
    <glyph glyph-name="uni0440" unicode="&#x440;" horiz-adv-x="617" 
d="M75 500l86 -0.00195312v-50c40.667 38.667 93.667 58 159 58c73.333 0 134.166 -24.667 182.499 -74s72.5 -110.666 72.5 -183.999s-24.167 -134.666 -72.5 -183.999s-109.166 -74 -182.499 -74c-65.333 0 -118.333 19.333 -159 58v-234h-86v684zM318 72.998
c48.667 0 88.834 16.8311 120.501 50.498s47.5 75.834 47.5 126.501s-15.833 92.834 -47.5 126.501s-71.834 50.5 -120.501 50.5c-34.667 0 -65.834 -7.5 -93.501 -22.5s-48.834 -34.5 -63.501 -58.5v-192c14.667 -24 35.834 -43.5 63.501 -58.5s58.834 -22.5 93.501 -22.5z
" />
    <glyph glyph-name="uni0441" unicode="&#x441;" horiz-adv-x="518" 
d="M299 -8c-73.333 0 -134.5 24.833 -183.5 74.5s-73.5 110.834 -73.5 183.501s24.5 133.834 73.5 183.501s110.167 74.5 183.5 74.5c76 0 139.667 -26.333 191 -79l-55 -60c-38.667 38.667 -84 58 -136 58c-48.667 0 -88.834 -16.833 -120.501 -50.5
s-47.5 -75.834 -47.5 -126.501s15.833 -92.834 47.5 -126.501s71.834 -50.5 120.501 -50.5c52 0 97.333 19.333 136 58l55 -60c-51.333 -52.667 -115 -79 -191 -79z" />
    <glyph glyph-name="uni0442" unicode="&#x442;" horiz-adv-x="442" 
d="M175 0v422h-158v78h408v-78h-165v-422h-85z" />
    <glyph glyph-name="uni0443" unicode="&#x443;" horiz-adv-x="507" 
d="M107 -184l103 226l-204 458h93l156 -364l157 364h93l-307 -684h-91z" />
    <glyph glyph-name="uni0444" unicode="&#x444;" horiz-adv-x="726" 
d="M406 -184h-85v176c-87.333 2.66699 -155.666 28.167 -204.999 76.5s-74 108.833 -74 181.5s24.667 133.5 74 182.5s117.666 74.167 204.999 75.5v202h85v-202c87.333 -1.33301 155.666 -26.5 204.999 -75.5s74 -109.833 74 -182.5s-24.667 -133.167 -74 -181.5
s-117.666 -73.833 -204.999 -76.5v-176zM406 430v-360c61.333 1.33301 108.666 19 141.999 53s50 76.333 50 127s-16.667 93 -50 127s-80.666 51.667 -141.999 53zM129 250c0 -50.667 16.667 -93 50 -127s80.666 -51.667 141.999 -53v360
c-61.333 -1.33301 -108.666 -19 -141.999 -53s-50 -76.333 -50 -127z" />
    <glyph glyph-name="uni0445" unicode="&#x445;" horiz-adv-x="514" 
d="M10 0l195 254l-185 246h99l139 -184l137 184h99l-185 -246l195 -254h-100l-147 194l-147 -194h-100z" />
    <glyph glyph-name="uni0446" unicode="&#x446;" horiz-adv-x="609" 
d="M579 78v-205h-80v127h-424v500h86v-422h252v422h86v-422h80z" />
    <glyph glyph-name="uni0447" unicode="&#x447;" horiz-adv-x="534" 
d="M459 0h-86v200c-50 -19.333 -97 -29 -141 -29c-59.333 0 -106.333 16.5 -141 49.5s-52 79.833 -52 140.5v139h86v-127c0 -42.667 11.167 -73.5 33.5 -92.5s51.5 -28.5 87.5 -28.5c46 0 88.333 10.333 127 31v217h86v-500z" />
    <glyph glyph-name="uni0448" unicode="&#x448;" horiz-adv-x="797" 
d="M75 0v500h85v-422h196v422h85v-422h196v422h85v-500h-647z" />
    <glyph glyph-name="uni0449" unicode="&#x449;" horiz-adv-x="832" 
d="M802 78v-205h-80v127h-647v500h85v-422h196v422h85v-422h196v422h85v-422h80z" />
    <glyph glyph-name="uni044A" unicode="&#x44a;" horiz-adv-x="556" 
d="M158 0v422h-140v78h226v-186h90c62.667 0 110.167 -15 142.5 -45s48.5 -67 48.5 -111c0 -44.667 -16.167 -82.167 -48.5 -112.5s-79.833 -45.5 -142.5 -45.5h-176zM244 78h93c32.667 0 58 6.83301 76 20.5s27 33.5 27 59.5s-9 45.5 -27 58.5s-42.667 19.5 -74 19.5h-95
v-158z" />
    <glyph glyph-name="uni044B" unicode="&#x44b;" horiz-adv-x="687" 
d="M526 0v500h86v-500h-86zM75 0v500h86v-186h100c62.667 0 110.167 -15 142.5 -45s48.5 -67 48.5 -111c0 -44.667 -16.167 -82.167 -48.5 -112.5s-79.833 -45.5 -142.5 -45.5h-186zM161 78h103c32.667 0 58 6.83301 76 20.5s27 33.5 27 59.5s-9 45.5 -27 58.5
s-42.667 19.5 -74 19.5h-105v-158z" />
    <glyph glyph-name="uni044C" unicode="&#x44c;" horiz-adv-x="482" 
d="M75 0v500h86v-186h100c62.667 0 110.167 -15 142.5 -45s48.5 -67 48.5 -111c0 -44.667 -16.167 -82.167 -48.5 -112.5s-79.833 -45.5 -142.5 -45.5h-186zM161 78h103c32.667 0 58 6.83301 76 20.5s27 33.5 27 59.5s-9 45.5 -27 58.5s-42.667 19.5 -74 19.5h-105v-158z
" />
    <glyph glyph-name="uni044D" unicode="&#x44d;" horiz-adv-x="521" 
d="M222 -8c-76 0 -139.669 26.335 -191.002 79.002l55 60c38.667 -38.667 84 -58 136 -58c42 0 78.333 13.5 109 40.5s49.334 61.167 56.001 102.5h-223v77h221c-8.66699 40 -27.667 72.333 -57 97s-64.666 37 -105.999 37c-52 0 -97.333 -19.333 -136 -58l-55 60
c51.333 52.667 115 79 191 79c73.333 0 134.5 -24.833 183.5 -74.5s73.5 -110.834 73.5 -183.501s-24.5 -133.834 -73.5 -183.501s-110.167 -74.5 -183.5 -74.5z" />
    <glyph glyph-name="uni044E" unicode="&#x44e;" horiz-adv-x="793" 
d="M161 293l94 0.00195312c9.33301 62.667 36.833 114.167 82.5 154.5s100.5 60.5 164.5 60.5c71.333 0 130.666 -24.833 177.999 -74.5s71 -110.834 71 -183.501s-23.667 -133.834 -71 -183.501s-106.666 -74.5 -177.999 -74.5c-66 0 -121.833 21 -167.5 63
s-72.5 95.667 -80.5 161h-93v-216h-86v500h86v-207zM502 73.002c47.333 0 85.833 16.833 115.5 50.5s44.5 75.834 44.5 126.501s-14.833 92.834 -44.5 126.501s-68.167 50.5 -115.5 50.5s-86 -16.833 -116 -50.5s-45 -75.834 -45 -126.501s15 -92.834 45 -126.501
s68.667 -50.5 116 -50.5z" />
    <glyph glyph-name="uni044F" unicode="&#x44f;" horiz-adv-x="513" 
d="M26 0l151.001 203c-36 8.66699 -64.167 25.667 -84.5 51s-30.5 56 -30.5 92c0 47.333 15.667 84.833 47 112.5s78.666 41.5 141.999 41.5h187v-500h-86v189h-90l-139 -189h-97zM246.001 263h106v163h-106c-67.333 0 -101 -27.333 -101 -82c0 -54 33.667 -81 101 -81z" />
    <glyph glyph-name="uni0451" unicode="&#x451;" horiz-adv-x="569" 
d="M299 -8c-73.333 0 -134.499 24.833 -183.499 74.5s-73.5 110.834 -73.5 183.501s24.333 133.834 73 183.501s108 74.5 178 74.5c71.333 0 129.5 -24.833 174.5 -74.5s68.167 -117.834 69.5 -204.501h-406c4 -46.667 22.167 -84.334 54.5 -113.001s70.166 -43 113.499 -43
c57.333 0 106 20 146 60l55 -60c-51.333 -54 -118.333 -81 -201 -81zM288.001 429c-34 0 -65.667 -10.5 -95 -31.5s-48.333 -52.167 -57 -93.5h304c-6 40 -23 71 -51 93s-61.667 32.667 -101 32zM407.001 571c-16.667 0 -31.001 5.66699 -43.001 17s-18 25.666 -18 42.999
c0 16.667 5.83301 30.667 17.5 42s26.167 17 43.5 17c16.667 0 30.834 -5.66699 42.501 -17s17.5 -25.333 17.5 -42c0 -17.333 -6 -31.666 -18 -42.999s-26 -17 -42 -17zM182 571c-16.667 0 -31.001 5.66699 -43.001 17s-18 25.666 -18 42.999
c0 16.667 5.83301 30.667 17.5 42s26.167 17 43.5 17c16.667 0 30.834 -5.66699 42.501 -17s17.5 -25.333 17.5 -42c0 -17.333 -6 -31.666 -18 -42.999s-26 -17 -42 -17z" />
    <glyph glyph-name="uni0452" unicode="&#x452;" horiz-adv-x="578" 
d="M319 -184l0.000976562 78h30c26.667 0 45.667 6.66699 57 20s17 33.333 17 60v326c0 37.333 -11.333 67.833 -34 91.5s-53.334 35.5 -92.001 35.5c-70.667 0 -116 -34.667 -136 -104v-323h-86v573h-70v65h70v72h86v-72h171v-65h-171v-130c35.333 43.333 87 65 155 65
c56.667 0 103 -18.5 139 -55.5s54 -86.167 54 -147.5v-344c0 -47.333 -13 -83.333 -39 -108s-63.333 -37 -112 -37h-39z" />
    <glyph glyph-name="uni0453" unicode="&#x453;" horiz-adv-x="399" 
d="M75 500v-500h85v422h222v78h-307zM390 710l-123 -160h-71l85 160h109z" />
    <glyph glyph-name="uni0454" unicode="&#x454;" horiz-adv-x="521" 
d="M299 -8c-73.333 0 -134.5 24.8311 -183.5 74.498s-73.5 110.834 -73.5 183.501s24.5 133.834 73.5 183.501s110.167 74.5 183.5 74.5c76 0 139.667 -26.333 191 -79l-55 -60c-38.667 38.667 -84 58 -136 58c-41.333 0 -77 -12.5 -107 -37.5s-49 -57.167 -57 -96.5h222
v-77h-224c7.33301 -42.667 26 -77.167 56 -103.5s66.667 -39.5 110 -39.5c52 0 97.333 19.333 136 58l55 -60c-51.333 -52.667 -115 -79 -191 -79z" />
    <glyph glyph-name="uni0455" unicode="&#x455;" horiz-adv-x="420" 
d="M207 -8c-78.667 0 -137.664 33.334 -176.997 100.001l68 46c28 -46 65 -69 111 -69c25.333 0 46.5 5.66699 63.5 17s25.5 26.666 25.5 45.999s-6.5 34.833 -19.5 46.5s-34.833 22.834 -65.5 33.501l-39 15c-79.333 30 -119 79.333 -119 148c0 38 14.667 69.667 44 95
s66.666 38 111.999 38c69.333 0 119.333 -30 150 -90l-67 -39c-16.667 34.667 -44.334 52 -83.001 52c-20 0 -36.833 -5 -50.5 -15s-20.5 -23.333 -20.5 -40s5.16699 -31 15.5 -43s29.5 -23 57.5 -33l41 -15c44 -16 76.667 -35.833 98 -59.5s32 -53.834 32 -90.501
c0 -40.667 -16.333 -74.667 -49 -102s-75.334 -41 -128.001 -41z" />
    <glyph glyph-name="uni0456" unicode="&#x456;" horiz-adv-x="236" 
d="M161 609h-86c-12.667 10.667 -19 26 -19 46c0 17.333 6 32.166 18 44.499s26.667 18.5 44 18.5s32 -6.16699 44 -18.5s18 -27.166 18 -44.499c0 -20 -6.33301 -35.333 -19 -46zM75 0v500h86v-500h-86z" />
    <glyph glyph-name="uni0457" unicode="&#x457;" horiz-adv-x="236" 
d="M23 571c-16.667 0 -31 5.66699 -43 17s-18 25.666 -18 42.999c0 16.667 5.83301 30.667 17.5 42s26.167 17 43.5 17c16.667 0 30.667 -5.66699 42 -17s17 -25.333 17 -42c0 -17.333 -5.83301 -31.666 -17.5 -42.999s-25.5 -17 -41.5 -17zM75 0v500h86v-500h-86zM217 571
c-16.667 0 -31 5.66699 -43 17s-18 25.666 -18 42.999c0 16.667 5.83301 30.667 17.5 42s26.167 17 43.5 17c16.667 0 30.667 -5.66699 42 -17s17 -25.333 17 -42c0 -17.333 -5.83301 -31.666 -17.5 -42.999s-25.5 -17 -41.5 -17z" />
    <glyph glyph-name="uni0458" unicode="&#x458;" horiz-adv-x="244" 
d="M169 609h-86c-12.667 10.667 -19 26 -19 46c0 17.333 6 32.166 18 44.499s26.667 18.5 44 18.5s32 -6.16699 44 -18.5s18 -27.166 18 -44.499c0 -20 -6.33301 -35.333 -19 -46zM-21 -184v78h30c26.667 0 45.667 6.66699 57 20s17 33.333 17 60v526h86v-539
c0 -47.333 -13 -83.333 -39 -108s-63.333 -37 -112 -37h-39z" />
    <glyph glyph-name="uni0459" unicode="&#x459;" horiz-adv-x="729" 
d="M262 508l99.999 -193.999h148c63.333 0 110.5 -14.833 141.5 -44.5s46.5 -66.834 46.5 -111.501c0 -45.333 -15.667 -83 -47 -113s-78.666 -45 -141.999 -45h-81l-168 329l-167 -329h-95zM513.999 236.001h-111l81 -158h28c32.667 0 58 6.83301 76 20.5s27 33.5 27 59.5
c0 52 -33.667 78 -101 78z" />
    <glyph glyph-name="uni045A" unicode="&#x45a;" horiz-adv-x="774" 
d="M567 0h-178v216h-229v-216h-85v500h85v-207h229v207h85v-207h93c58 0 102 -13.833 132 -41.5s45 -62.167 45 -103.5s-15 -76.333 -45 -105s-74 -43 -132 -43zM661 147c0 46 -29.333 69 -88 69h-99v-139h97c28 0 50 6.16699 66 18.5s24 29.5 24 51.5z" />
    <glyph glyph-name="uni045B" unicode="&#x45b;" horiz-adv-x="578" 
d="M75 0l0.000976562 573h-70v65h70v72h86v-72h171v-65h-171v-130c35.333 43.333 87 65 155 65c56.667 0 103 -18.5 139 -55.5s54 -86.167 54 -147.5v-305h-86v300c0 37.333 -11.333 67.833 -34 91.5s-53.334 35.5 -92.001 35.5c-70.667 0 -116 -34.667 -136 -104v-323h-86z
" />
    <glyph glyph-name="uni045C" unicode="&#x45c;" horiz-adv-x="504" 
d="M75 500v-500h86v240l238 -240h112l-250 249l226 251h-105l-221 -247v247h-86zM435 710l-123 -160h-71l85 160h109z" />
    <glyph glyph-name="uni045E" unicode="&#x45e;" horiz-adv-x="507" 
d="M107 -184l103 226l-204 458h93l156 -364l157 364h93l-307 -684h-91zM345 710l69 0.000976562c-1.33301 -50.667 -16.333 -89.334 -45 -116.001s-66.667 -40 -114 -40c-48 0 -86.167 13.5 -114.5 40.5s-43.166 65.5 -44.499 115.5h68
c0.666992 -32.667 9.16699 -57.5 25.5 -74.5s38.166 -25.5 65.499 -25.5c26.667 0 48 8.33301 64 25s24.667 41.667 26 75z" />
    <glyph glyph-name="uni045F" unicode="&#x45f;" horiz-adv-x="585" 
d="M510 0h-177v-127h-80v127h-178v500h85v-422h265v422h85v-500z" />
    <glyph glyph-name="uni0462" unicode="&#x462;" horiz-adv-x="705" 
d="M301 428h120c76 0 136.667 -19.333 182 -58s68 -90.667 68 -156c0 -66 -22.667 -118.167 -68 -156.5s-106 -57.5 -182 -57.5h-211v536h-184v65h184v129h91v-129h228v-65h-228v-108zM301 84h119c52 0 91.667 11.167 119 33.5s41 54.5 41 96.5s-13.667 74.167 -41 96.5
s-67 33.5 -119 33.5h-119v-260z" />
    <glyph glyph-name="uni0463" unicode="&#x463;" horiz-adv-x="552" 
d="M219 500l208.998 -0.000976562v-65h-209v-106h97c66.667 0 117.334 -14.833 152.001 -44.5s52 -67.5 52 -113.5c0 -47.333 -17.667 -87.666 -53 -120.999s-85.666 -50 -150.999 -50h-182v435h-117v65h117v210h85v-210zM218.998 255.999v-179h107c34 0 61 8.33301 81 25
s30 40 30 70c0 56 -36.333 84 -109 84h-109z" />
    <glyph glyph-name="uni0472" unicode="&#x472;" horiz-adv-x="818" 
d="M409 -8c-102 0 -188 34.833 -258 104.5s-105 155.834 -105 258.501s35 188.834 105 258.501s156 104.5 258 104.5s188 -34.833 258 -104.5s105 -155.834 105 -258.501s-35 -188.834 -105 -258.501s-156 -104.5 -258 -104.5zM409 79c77.333 0 141.666 26.5 192.999 79.5
s77 118.5 77 196.5s-25.667 143.5 -77 196.5s-115.666 79.5 -192.999 79.5s-141.666 -26.5 -192.999 -79.5s-77 -118.5 -77 -196.5s25.667 -143.5 77 -196.5s115.666 -79.5 192.999 -79.5zM127 373l5 -85.999c48.667 40.667 98.667 61 150 61
c22 0 62.833 -7.33301 122.5 -22s106.5 -22 140.5 -22c48.667 0 97.334 10.667 146.001 32l-1 81c-44 -24.667 -95.667 -37 -155 -37c-34 0 -76 7.33301 -126 22s-88.333 22 -115 22c-24.667 0 -52.834 -4.33301 -84.501 -13s-59.167 -21.334 -82.5 -38.001z" />
    <glyph glyph-name="uni0473" unicode="&#x473;" horiz-adv-x="602" 
d="M302 -8c-74.667 0 -136.667 24.833 -186 74.5s-74 110.834 -74 183.501s24.667 133.834 74 183.501s111.333 74.5 186 74.5c74 0 135.667 -24.833 185 -74.5s74 -110.834 74 -183.501s-24.667 -133.834 -74 -183.501s-111 -74.5 -185 -74.5zM302 73
c50 0 90.833 16.833 122.5 50.5s47.5 75.834 47.5 126.501s-15.833 92.834 -47.5 126.501s-72.5 50.5 -122.5 50.5s-91 -16.833 -123 -50.5s-48 -75.834 -48 -126.501s16 -92.834 48 -126.501s73 -50.5 123 -50.5zM111 284v-65h381v65h-381z" />
    <glyph glyph-name="uni0474" unicode="&#x474;" horiz-adv-x="656" 
d="M579 568l-251 -576l-328 718h100l228 -509l171 407c15.333 36 33.333 62 54 78s46 24 76 24h9v-92c-14 0 -25.333 -3.66699 -34 -11s-17 -20.333 -25 -39z" />
    <glyph glyph-name="uni0475" unicode="&#x475;" horiz-adv-x="529" 
d="M457 372l-195 -380l-264 508h100l165 -338l121 243c30 63.333 73.333 95 130 95v-79c-21.333 0 -40.333 -16.333 -57 -49z" />
    <glyph glyph-name="uni0490" unicode="&#x490;" horiz-adv-x="500" 
d="M95 710h299v148h89v-236h-297v-622h-91v710z" />
    <glyph glyph-name="uni0491" unicode="&#x491;" horiz-adv-x="399" 
d="M75 0v500h226v127h81v-205h-222v-422h-85z" />
    <glyph glyph-name="uni0492" unicode="&#x492;" horiz-adv-x="518" 
d="M497 710v-88h-297v-622h-91v710h388zM18 397h363v-74h-363v74z" />
    <glyph glyph-name="uni0493" unicode="&#x493;" horiz-adv-x="422" 
d="M98 0v500h307v-78h-222v-422h-85zM311 230h-291v65h291v-65z" />
    <glyph glyph-name="uni0496" unicode="&#x496;" horiz-adv-x="985" 
d="M-8 0l336 349l-309 361h112l304 -356v356h91v-356l304 356h112l-309 -361l336 -349h-121l-322 337v-337h-91v337l-322 -337h-121zM889 -148v148h-18v88h103v-236h-85z" />
    <glyph glyph-name="uni0497" unicode="&#x497;" horiz-adv-x="784" 
d="M-1 0l245 249l-221 251h101l215 -247v247h86v-247l215 247h101l-221 -251l245 -249h-108l-232 240v-240h-86v240l-232 -240h-108zM688 -127v127h-25v78h105v-205h-80z" />
    <glyph glyph-name="uni049A" unicode="&#x49a;" horiz-adv-x="662" 
d="M95 0v710h91v-356l324 356h112l-328 -361l355 -349h-121l-342 337v-337h-91zM565 -148v148h-18v88h103v-236h-85z" />
    <glyph glyph-name="uni049B" unicode="&#x49b;" horiz-adv-x="523" 
d="M75 0v500h86v-247l221 247h105l-226 -251l250 -249h-112l-238 240v-240h-86zM432 -127v127h-25v78h105v-205h-80z" />
    <glyph glyph-name="uni04A2" unicode="&#x4a2;" horiz-adv-x="792" 
d="M95 0v710h91v-303h392v303h91v-710h-91v319h-392v-319h-91zM669 -148v148h-18v88h103v-236h-85z" />
    <glyph glyph-name="uni04A3" unicode="&#x4a3;" horiz-adv-x="625" 
d="M75 0v500h85v-206h270v206h85v-500h-85v216h-270v-216h-85zM515 -127v127h-25v78h105v-205h-80z" />
    <glyph glyph-name="uni04AE" unicode="&#x4ae;" horiz-adv-x="628" 
d="M268 0v301l-260 409h106l200 -319l200 319h106l-260 -409v-301h-92z" />
    <glyph glyph-name="uni04AF" unicode="&#x4af;" horiz-adv-x="536" 
d="M225 -184v184l-221 500h97l167 -408l168 408h97l-222 -500v-184h-86z" />
    <glyph glyph-name="uni04B0" unicode="&#x4b0;" horiz-adv-x="630" 
d="M269 0v301l-260 409h106l200 -319l200 319h106l-260 -409v-301h-92zM514 301v-74h-398v74h398z" />
    <glyph glyph-name="uni04B1" unicode="&#x4b1;" horiz-adv-x="537" 
d="M225 -184v184l-221 500h97l167 -408l168 408h97l-222 -500v-184h-86zM92 -65v65h352v-65h-352z" />
    <glyph glyph-name="uni04B2" unicode="&#x4b2;" horiz-adv-x="674" 
d="M6 0l256 362l-243 348h105l195 -279l195 279h105l-241 -348l255 -362h-103l-210 295l-208 -295h-106zM575 -148v148h-18v88h103v-236h-85z" />
    <glyph glyph-name="uni04B3" unicode="&#x4b3;" horiz-adv-x="543" 
d="M10 0l195 254l-185 246h99l139 -184l137 184h99l-185 -246l195 -254h-100l-147 194l-147 -194h-100zM444 -127v127h-25v78h105v-205h-80z" />
    <glyph glyph-name="uni04B6" unicode="&#x4b6;" horiz-adv-x="717" 
d="M594 0h-91v310c-68 -26.667 -140 -40 -216 -40s-135 17.833 -177 53.5s-63 89.5 -63 161.5v225h91v-205c0 -56 14.167 -94.667 42.5 -116s68.5 -32 120.5 -32c72 0 139.333 13.333 202 40v313h91v-710zM594 -148v148h-18v88h103v-236h-85z" />
    <glyph glyph-name="uni04B7" unicode="&#x4b7;" horiz-adv-x="569" 
d="M459 0h-86v200c-50 -19.333 -97 -29 -141 -29c-59.333 0 -106.333 16.5 -141 49.5s-52 79.833 -52 140.5v139h86v-127c0 -42.667 11.167 -73.5 33.5 -92.5s51.5 -28.5 87.5 -28.5c46 0 88.333 10.333 127 31v217h86v-500zM459 -127v127h-25v78h105v-205h-80z" />
    <glyph glyph-name="uni04BA" unicode="&#x4ba;" horiz-adv-x="689" 
d="M95 710h91v-310c68 26.667 140 40 216 40s135 -17.833 177 -53.5s63 -89.5 63 -161.5v-225h-91v205c0 56 -14.167 94.667 -42.5 116s-68.5 32 -120.5 32c-72 0 -139.333 -13.333 -202 -40v-313h-91v710z" />
    <glyph glyph-name="uni04BB" unicode="&#x4bb;" horiz-adv-x="578" 
d="M75 0l0.000976562 710h86v-267c35.333 43.333 87 65 155 65c56.667 0 103 -18.5 139 -55.5s54 -86.167 54 -147.5v-305h-86v300c0 37.333 -11.333 67.833 -34 91.5s-53.334 35.5 -92.001 35.5c-70.667 0 -116 -34.667 -136 -104v-323h-86z" />
    <glyph glyph-name="uni04C0" unicode="&#x4c0;" horiz-adv-x="281" 
d="M95 0v710h91v-710h-91z" />
    <glyph glyph-name="uni04CF" unicode="&#x4cf;" horiz-adv-x="236" 
d="M75 0v710h86v-710h-86z" />
    <glyph glyph-name="uni04D8" unicode="&#x4d8;" horiz-adv-x="782" 
d="M382 -7c-109.333 0 -195.501 37.166 -258.501 111.499s-94.5 172.5 -94.5 294.5h606c-9.33301 70.667 -38.333 127.167 -87 169.5s-103 63.5 -163 63.5c-73.333 0 -136.666 -22 -189.999 -66l-53 69c62 56 142.333 84 241 84c96.667 0 179.5 -35 248.5 -105
s103.5 -156 103.5 -258c0 -103.333 -33.5 -189.666 -100.5 -258.999s-151.167 -104 -252.5 -104zM381.999 79.999c67.333 0 124.499 21.333 171.499 64s74.5 101 82.5 175h-512c6.66699 -71.333 32.834 -129 78.501 -173s105.5 -66 179.5 -66z" />
    <glyph glyph-name="uni04D9" unicode="&#x4d9;" horiz-adv-x="571" 
d="M272 509c73.333 0 134.499 -24.833 183.499 -74.5s73.5 -110.834 73.5 -183.501s-24.333 -133.834 -73 -183.501s-108 -74.5 -178 -74.5c-74 0 -133.167 25.833 -177.5 77.5s-66.5 118.834 -66.5 201.501h406c-4 46.667 -22.167 84.334 -54.5 113.001
s-70.166 43 -113.499 43c-57.333 0 -106 -20 -146 -60l-55 60c51.333 54 118.333 81 201 81zM282.999 72c34 0 65.667 10.5 95 31.5s48.333 52.167 57 93.5h-304c6 -40 23 -71 51 -93s61.667 -32.667 101 -32z" />
    <glyph glyph-name="uni04E2" unicode="&#x4e2;" horiz-adv-x="787" 
d="M95 -8v718h91v-505l506 513v-718h-91v505zM263 803v65h292v-65h-292z" />
    <glyph glyph-name="uni04E3" unicode="&#x4e3;" horiz-adv-x="597" 
d="M75 -8v508h85v-334l362 342v-508h-85v329zM164 614v65h292v-65h-292z" />
    <glyph glyph-name="uni04E8" unicode="&#x4e8;" horiz-adv-x="818" 
d="M409 -8c-102 0 -188 34.833 -258 104.5s-105 155.834 -105 258.501s35 188.834 105 258.501s156 104.5 258 104.5s188 -34.833 258 -104.5s105 -155.834 105 -258.501s-35 -188.834 -105 -258.501s-156 -104.5 -258 -104.5zM409 79c77.333 0 141.666 26.5 192.999 79.5
s77 118.5 77 196.5s-25.667 143.5 -77 196.5s-115.666 79.5 -192.999 79.5s-141.666 -26.5 -192.999 -79.5s-77 -118.5 -77 -196.5s25.667 -143.5 77 -196.5s115.666 -79.5 192.999 -79.5zM90 392v-74h638v74h-638z" />
    <glyph glyph-name="uni04E9" unicode="&#x4e9;" horiz-adv-x="602" 
d="M302 -8c-74.667 0 -136.667 24.833 -186 74.5s-74 110.834 -74 183.501s24.667 133.834 74 183.501s111.333 74.5 186 74.5c74 0 135.667 -24.833 185 -74.5s74 -110.834 74 -183.501s-24.667 -133.834 -74 -183.501s-111 -74.5 -185 -74.5zM302 73
c50 0 90.833 16.833 122.5 50.5s47.5 75.834 47.5 126.501s-15.833 92.834 -47.5 126.501s-72.5 50.5 -122.5 50.5s-91 -16.833 -123 -50.5s-48 -75.834 -48 -126.501s16 -92.834 48 -126.501s73 -50.5 123 -50.5zM111 284v-65h381v65h-381z" />
    <glyph glyph-name="uni04EE" unicode="&#x4ee;" horiz-adv-x="657" 
d="M197 0l89 169l-273 541h100l224 -445l235 445h94l-375 -710h-94zM196 803v65h292v-65h-292z" />
    <glyph glyph-name="uni04EF" unicode="&#x4ef;" horiz-adv-x="507" 
d="M107 -184l103 226l-204 458h93l156 -364l157 364h93l-307 -684h-91zM109 614v65h292v-65h-292z" />
    <glyph glyph-name="Wgrave" unicode="&#x1e80;" horiz-adv-x="889" 
d="M252 -8l-244 718h94l157 -474l185 482l186 -482l157 474h94l-244 -718l-193 500zM402 768l-113 145h109l77 -145h-73z" />
    <glyph glyph-name="wgrave" unicode="&#x1e81;" horiz-adv-x="700" 
d="M169 0l-158 500h89l112 -364l138 372l138 -372l112 364h89l-158 -500h-69l-112 304l-111 -304h-70zM327 550l-123 160h109l85 -160h-71z" />
    <glyph glyph-name="Wacute" unicode="&#x1e82;" horiz-adv-x="889" 
d="M8 710l244 -718l192 500l193 -500l244 718h-94l-157 -474l-186 482l-185 -482l-157 474h-94zM595 913l-113 -145h-73l77 145h109z" />
    <glyph glyph-name="wacute" unicode="&#x1e83;" horiz-adv-x="700" 
d="M11 500l158 -500h70l111 304l112 -304h69l158 500h-89l-112 -364l-138 372l-138 -372l-112 364h-89zM502 710l-123 -160h-71l85 160h109z" />
    <glyph glyph-name="Wdieresis" unicode="&#x1e84;" horiz-adv-x="889" 
d="M252 -8l-244 718h94l157 -474l185 482l186 -482l157 474h94l-244 -718l-193 500zM558 785c-16.667 0 -31.001 5.66699 -43.001 17s-18 25.666 -18 42.999c0 16.667 5.83301 30.667 17.5 42s26.167 17 43.5 17c16.667 0 30.834 -5.66699 42.501 -17s17.5 -25.333 17.5 -42
c0 -17.333 -6 -31.666 -18 -42.999s-26 -17 -42 -17zM332.999 785c-16.667 0 -31.001 5.66699 -43.001 17s-18 25.666 -18 42.999c0 16.667 5.83301 30.667 17.5 42s26.167 17 43.5 17c16.667 0 30.834 -5.66699 42.501 -17s17.5 -25.333 17.5 -42
c0 -17.333 -6 -31.666 -18 -42.999s-26 -17 -42 -17z" />
    <glyph glyph-name="wdieresis" unicode="&#x1e85;" horiz-adv-x="700" 
d="M169 0l-158 500h89l112 -364l138 372l138 -372l112 364h89l-158 -500h-69l-112 304l-111 -304h-70zM464 571c-16.667 0 -31.001 5.66699 -43.001 17s-18 25.666 -18 42.999c0 16.667 5.83301 30.667 17.5 42s26.167 17 43.5 17c16.667 0 30.834 -5.66699 42.501 -17
s17.5 -25.333 17.5 -42c0 -17.333 -6 -31.666 -18 -42.999s-26 -17 -42 -17zM238.999 571c-16.667 0 -31.001 5.66699 -43.001 17s-18 25.666 -18 42.999c0 16.667 5.83301 30.667 17.5 42s26.167 17 43.5 17c16.667 0 30.834 -5.66699 42.501 -17s17.5 -25.333 17.5 -42
c0 -17.333 -6 -31.666 -18 -42.999s-26 -17 -42 -17z" />
    <glyph glyph-name="uni1E9E" unicode="&#x1e9e;" horiz-adv-x="634" 
d="M95 0l0.000976562 709.999h441l-138 -264c127.333 -20 191 -92.667 191 -218c0 -73.333 -23.333 -129.666 -70 -168.999s-108.334 -59 -185.001 -59h-37v88h44c46.667 0 84.334 12.167 113.001 36.5s43 58.833 43 103.5s-14.333 79.167 -43 103.5
s-66.334 36.5 -113.001 36.5h-44v77l94 181h-203v-626h-93z" />
    <glyph glyph-name="uni1ECA" unicode="&#x1eca;" horiz-adv-x="281" 
d="M95 0v710h91v-710h-91zM141 -189c-16.667 0 -31 5.66699 -43 17s-18 25.666 -18 42.999c0 16.667 5.83301 30.667 17.5 42s26.167 17 43.5 17c16.667 0 30.667 -5.66699 42 -17s17 -25.333 17 -42c0 -17.333 -5.83301 -31.666 -17.5 -42.999s-25.5 -17 -41.5 -17z" />
    <glyph glyph-name="uni1ECB" unicode="&#x1ecb;" horiz-adv-x="236" 
d="M75 0v500h86v-500h-86zM161 609h-86c-12.667 10.667 -19 26 -19 46c0 17.333 6 32.166 18 44.499s26.667 18.5 44 18.5s32 -6.16699 44 -18.5s18 -27.166 18 -44.499c0 -20 -6.33301 -35.333 -19 -46zM119 -189c-16.667 0 -31 5.66699 -43 17s-18 25.666 -18 42.999
c0 16.667 5.83301 30.667 17.5 42s26.167 17 43.5 17c16.667 0 30.667 -5.66699 42 -17s17 -25.333 17 -42c0 -17.333 -5.83301 -31.666 -17.5 -42.999s-25.5 -17 -41.5 -17z" />
    <glyph glyph-name="uni1ECC" unicode="&#x1ecc;" horiz-adv-x="818" 
d="M409 -8c-102 0 -188 34.833 -258 104.5s-105 155.834 -105 258.501s35 188.834 105 258.501s156 104.5 258 104.5s188 -34.833 258 -104.5s105 -155.834 105 -258.501s-35 -188.834 -105 -258.501s-156 -104.5 -258 -104.5zM409 79c77.333 0 141.666 26.5 192.999 79.5
s77 118.5 77 196.5s-25.667 143.5 -77 196.5s-115.666 79.5 -192.999 79.5s-141.666 -26.5 -192.999 -79.5s-77 -118.5 -77 -196.5s25.667 -143.5 77 -196.5s115.666 -79.5 192.999 -79.5zM410 -189c-16.667 0 -31 5.66699 -43 17s-18 25.666 -18 42.999
c0 16.667 5.83301 30.667 17.5 42s26.167 17 43.5 17c16.667 0 30.667 -5.66699 42 -17s17 -25.333 17 -42c0 -17.333 -5.83301 -31.666 -17.5 -42.999s-25.5 -17 -41.5 -17z" />
    <glyph glyph-name="uni1ECD" unicode="&#x1ecd;" horiz-adv-x="602" 
d="M301 -8c-74.667 0 -136.667 24.833 -186 74.5s-74 110.834 -74 183.501s24.667 133.834 74 183.501s111.333 74.5 186 74.5c74 0 135.667 -24.833 185 -74.5s74 -110.834 74 -183.501s-24.667 -133.834 -74 -183.501s-111 -74.5 -185 -74.5zM301 73
c50 0 90.833 16.833 122.5 50.5s47.5 75.834 47.5 126.501s-15.833 92.834 -47.5 126.501s-72.5 50.5 -122.5 50.5s-91 -16.833 -123 -50.5s-48 -75.834 -48 -126.501s16 -92.834 48 -126.501s73 -50.5 123 -50.5zM302 -189c-16.667 0 -31 5.66699 -43 17
s-18 25.666 -18 42.999c0 16.667 5.83301 30.667 17.5 42s26.167 17 43.5 17c16.667 0 30.667 -5.66699 42 -17s17 -25.333 17 -42c0 -17.333 -5.83301 -31.666 -17.5 -42.999s-25.5 -17 -41.5 -17z" />
    <glyph glyph-name="uni1EE4" unicode="&#x1ee4;" horiz-adv-x="738" 
d="M369 -8c-84 0 -152.169 25 -204.502 75s-78.5 117.667 -78.5 203v440h91v-444c0 -60 17.333 -106.167 52 -138.5s81.334 -48.5 140.001 -48.5s105.334 16.167 140.001 48.5s52 78.5 52 138.5v444h91v-440c0 -85.333 -26.167 -153 -78.5 -203s-120.5 -75 -204.5 -75z
M369.998 -189c-16.667 0 -31 5.66699 -43 17s-18 25.666 -18 42.999c0 16.667 5.83301 30.667 17.5 42s26.167 17 43.5 17c16.667 0 30.667 -5.66699 42 -17s17 -25.333 17 -42c0 -17.333 -5.83301 -31.666 -17.5 -42.999s-25.5 -17 -41.5 -17z" />
    <glyph glyph-name="uni1EE5" unicode="&#x1ee5;" horiz-adv-x="577" 
d="M416 0v56c-34.667 -42.667 -86 -64 -154 -64c-58 0 -104.667 18.5 -140 55.5s-53 86.167 -53 147.5v305h86v-300c0 -37.333 11.333 -67.833 34 -91.5s53 -35.5 91 -35.5c70 0 115.333 33.333 136 100v327h86v-500h-86zM279 -189c-16.667 0 -31 5.66699 -43 17
s-18 25.666 -18 42.999c0 16.667 5.83301 30.667 17.5 42s26.167 17 43.5 17c16.667 0 30.667 -5.66699 42 -17s17 -25.333 17 -42c0 -17.333 -5.83301 -31.666 -17.5 -42.999s-25.5 -17 -41.5 -17z" />
    <glyph glyph-name="Ygrave" unicode="&#x1ef2;" horiz-adv-x="628" 
d="M268 0v301l-260 409h106l200 -319l200 319h106l-260 -409v-301h-92zM273 768l-113 145h109l77 -145h-73z" />
    <glyph glyph-name="ygrave" unicode="&#x1ef3;" horiz-adv-x="507" 
d="M107 -184l103 226l-204 458h93l156 -364l157 364h93l-307 -684h-91zM234 550l-123 160h109l85 -160h-71z" />
    <glyph glyph-name="uni2007" unicode="&#x2007;" horiz-adv-x="824" 
 />
    <glyph glyph-name="uni2008" unicode="&#x2008;" horiz-adv-x="250" 
 />
    <glyph glyph-name="uni2009" unicode="&#x2009;" horiz-adv-x="50" 
 />
    <glyph glyph-name="uni200B" unicode="&#x200b;" 
 />
    <glyph glyph-name="endash" unicode="&#x2013;" horiz-adv-x="570" 
d="M68 233v81h434v-81h-434z" />
    <glyph glyph-name="emdash" unicode="&#x2014;" horiz-adv-x="867" 
d="M68 233v81h731v-81h-731z" />
    <glyph glyph-name="quoteleft" unicode="&#x2018;" horiz-adv-x="244" 
d="M174 710l-43 -142h51v-123h-122v124l57 141h57z" />
    <glyph glyph-name="quoteright" unicode="&#x2019;" horiz-adv-x="234" 
d="M70 445l43 142h-51v123h122v-124l-57 -141h-57z" />
    <glyph glyph-name="quotesinglbase" unicode="&#x201a;" horiz-adv-x="258" 
d="M76 -142l43 142h-51v123h122v-124l-57 -141h-57z" />
    <glyph glyph-name="quotedblleft" unicode="&#x201c;" horiz-adv-x="439" 
d="M174 710l-43 -142h51v-123h-122v124l57 141h57zM369 710l-43 -142h51v-123h-122v124l57 141h57z" />
    <glyph glyph-name="quotedblright" unicode="&#x201d;" horiz-adv-x="429" 
d="M70 445l43 142h-51v123h122v-124l-57 -141h-57zM265 445l43 142h-51v123h122v-124l-57 -141h-57z" />
    <glyph glyph-name="quotedblbase" unicode="&#x201e;" horiz-adv-x="453" 
d="M76 -142l43 142h-51v123h122v-124l-57 -141h-57zM271 -142l43 142h-51v123h122v-124l-57 -141h-57z" />
    <glyph glyph-name="dagger" unicode="&#x2020;" horiz-adv-x="509" 
d="M214 -98v517h-184v81h184v210h81v-210h184v-81h-184v-517h-81z" />
    <glyph glyph-name="daggerdbl" unicode="&#x2021;" horiz-adv-x="541" 
d="M230 -98v210h-184v81h184v226h-184v81h184v210h81v-210h184v-81h-184v-226h184v-81h-184v-210h-81z" />
    <glyph glyph-name="bullet" unicode="&#x2022;" horiz-adv-x="420" 
d="M210 166c-38 0 -70.167 13.167 -96.5 39.5s-39.5 58.5 -39.5 96.5s13.167 70.167 39.5 96.5s58.5 39.5 96.5 39.5s70.167 -13.167 96.5 -39.5s39.5 -58.5 39.5 -96.5s-13.167 -70.167 -39.5 -96.5s-58.5 -39.5 -96.5 -39.5z" />
    <glyph glyph-name="ellipsis" unicode="&#x2026;" horiz-adv-x="748" 
d="M125 -8c-20 0 -37.333 7.16699 -52 21.5s-22 31.833 -22 52.5c0 21.333 7.33301 39 22 53s32 21 52 21s37.333 -7 52 -21s22 -31.667 22 -53c0 -20.667 -7.33301 -38.167 -22 -52.5s-32 -21.5 -52 -21.5zM374 -8c-20 0 -37.333 7.16699 -52 21.5s-22 31.833 -22 52.5
c0 21.333 7.33301 39 22 53s32 21 52 21s37.333 -7 52 -21s22 -31.667 22 -53c0 -20.667 -7.33301 -38.167 -22 -52.5s-32 -21.5 -52 -21.5zM623 -8c-20 0 -37.333 7.16699 -52 21.5s-22 31.833 -22 52.5c0 21.333 7.33301 39 22 53s32 21 52 21s37.333 -7 52 -21
s22 -31.667 22 -53c0 -20.667 -7.33301 -38.167 -22 -52.5s-32 -21.5 -52 -21.5z" />
    <glyph glyph-name="perthousand" unicode="&#x2030;" horiz-adv-x="733" 
d="M211 437c-39.333 0 -72.833 13.5 -100.5 40.5s-41.5 60.167 -41.5 99.5s13.833 72.5 41.5 99.5s61.167 40.5 100.5 40.5c40 0 74.167 -13.5 102.5 -40.5s42.5 -60.167 42.5 -99.5s-14.167 -72.5 -42.5 -99.5s-62.5 -40.5 -102.5 -40.5zM211 502
c22 0 39.833 7.16895 53.5 21.502s20.5 32.166 20.5 53.499c0 20.667 -6.83301 38.167 -20.5 52.5s-31.5 21.5 -53.5 21.5c-21.333 0 -38.666 -7.16699 -51.999 -21.5s-20 -31.833 -20 -52.5s6.66699 -38.334 20 -53.001s30.666 -22 51.999 -22zM71 317.002v73h616v-73h-616
zM211 -6.99805c-39.333 0 -72.833 13.5 -100.5 40.5s-41.5 60.167 -41.5 99.5s13.833 72.5 41.5 99.5s61.167 40.5 100.5 40.5c40 0 74.167 -13.5 102.5 -40.5s42.5 -60.167 42.5 -99.5s-14.167 -72.5 -42.5 -99.5s-62.5 -40.5 -102.5 -40.5zM537 -6.99805
c-39.333 0 -72.833 13.5 -100.5 40.5s-41.5 60.167 -41.5 99.5s13.833 72.5 41.5 99.5s61.167 40.5 100.5 40.5c40 0 74.167 -13.5 102.5 -40.5s42.5 -60.167 42.5 -99.5s-14.167 -72.5 -42.5 -99.5s-62.5 -40.5 -102.5 -40.5zM211 58.002c22 0 39.833 7.1709 53.5 21.5039
s20.5 32.166 20.5 53.499s-6.83301 39.166 -20.5 53.499s-31.5 21.5 -53.5 21.5c-21.333 0 -38.666 -7.33301 -51.999 -22s-20 -32.334 -20 -53.001s6.66699 -38.334 20 -53.001s30.666 -22 51.999 -22zM537 58.0059c22 0 39.833 7.1709 53.5 21.5039
s20.5 32.166 20.5 53.499s-6.83301 39.166 -20.5 53.499s-31.5 21.5 -53.5 21.5c-21.333 0 -38.666 -7.33301 -51.999 -22s-20 -32.334 -20 -53.001s6.66699 -38.334 20 -53.001s30.666 -22 51.999 -22z" />
    <glyph glyph-name="guilsinglleft" unicode="&#x2039;" horiz-adv-x="307" 
d="M194 29l-152 221l152 221l62 -42l-123 -179l123 -179z" />
    <glyph glyph-name="guilsinglright" unicode="&#x203a;" horiz-adv-x="307" 
d="M113 29l-62 42l123 179l-123 179l62 42l152 -221z" />
    <glyph glyph-name="fraction" unicode="&#x2044;" horiz-adv-x="180" 
d="M-199 0l500 710h80l-500 -710h-80z" />
    <glyph glyph-name="uni2060" unicode="&#x2060;" 
 />
    <glyph glyph-name="uni2070" unicode="&#x2070;" horiz-adv-x="507" 
d="M253 405c-60.667 0 -112 21 -154 63s-63 93.333 -63 154s21 112 63 154s93.333 63 154 63s112.167 -21 154.5 -63s63.5 -93.333 63.5 -154s-21.167 -112 -63.5 -154s-93.833 -63 -154.5 -63zM253 468c43.333 0 79 14.833 107 44.5s42 66.167 42 109.5
s-14 79.833 -42 109.5s-63.667 44.5 -107 44.5s-78.666 -14.833 -105.999 -44.5s-41 -66.167 -41 -109.5s13.667 -79.833 41 -109.5s62.666 -44.5 105.999 -44.5z" />
    <glyph glyph-name="uni2074" unicode="&#x2074;" horiz-adv-x="394" 
d="M242 410v114h-232l301 315v-252h53v-63h-53v-114h-69zM150 587h92v94z" />
    <glyph glyph-name="uni2075" unicode="&#x2075;" horiz-adv-x="338" 
d="M166 405c-62 0 -106 23.667 -132 71l52 41c19.333 -32.667 46.333 -49 81 -49c20.667 0 37.667 7.5 51 22.5s20 33.167 20 54.5c0 22.667 -6.66699 41.667 -20 57s-31.333 23 -54 23c-30 0 -52 -11.667 -66 -35l-47 18v226h219v-63h-150v-91c14.667 5.33301 31 8 49 8
c43.333 0 77.5 -13.833 102.5 -41.5s37.5 -61.5 37.5 -101.5c0 -38 -13.5 -70.833 -40.5 -98.5s-61.167 -41.5 -102.5 -41.5z" />
    <glyph glyph-name="uni2076" unicode="&#x2076;" horiz-adv-x="343" 
d="M172 405c-39.333 0 -73.167 13.666 -101.5 40.999s-42.5 60.333 -42.5 99c0 24 9.33301 51.667 28 83l121 206h79l-89 -148h10c40.667 0 74.167 -13.167 100.5 -39.5s39.5 -60.166 39.5 -101.499c0 -39.333 -13.5 -72.5 -40.5 -99.5s-61.833 -40.5 -104.5 -40.5z
M171.999 467.999c22 0 39.833 7.33301 53.5 22s20.5 33 20.5 55s-6.83301 40.5 -20.5 55.5s-31.5 22.5 -53.5 22.5c-21.333 0 -38.833 -7.5 -52.5 -22.5s-20.5 -33.5 -20.5 -55.5s6.83301 -40.333 20.5 -55s31.167 -22 52.5 -22z" />
    <glyph glyph-name="uni2077" unicode="&#x2077;" horiz-adv-x="310" 
d="M40 410l163 361h-178v63h281l-193 -424h-73z" />
    <glyph glyph-name="uni2078" unicode="&#x2078;" horiz-adv-x="358" 
d="M179 405c-40 0 -74 12.333 -102 37s-42 58.334 -42 101.001c0 44 20.333 80.333 61 109c-20.667 17.333 -31 42.333 -31 75c0 34 11 61.167 33 81.5s49 30.5 81 30.5s59 -10.167 81 -30.5s33 -47.5 33 -81.5c0 -32.667 -10.333 -57.667 -31 -75
c40.667 -28.667 61 -65 61 -109c0 -42.667 -14 -76.334 -42 -101.001s-62 -37 -102 -37zM179 682c13.333 0 24.5 4.5 33.5 13.5s13.5 20.167 13.5 33.5s-4.5 24.5 -13.5 33.5s-20.167 13.5 -33.5 13.5s-24.5 -4.5 -33.5 -13.5s-13.5 -20.167 -13.5 -33.5
s4.5 -24.5 13.5 -33.5s20.167 -13.5 33.5 -13.5zM179 468c20 0 37.167 7.16699 51.5 21.5s21.5 31.5 21.5 51.5s-7.16699 37.167 -21.5 51.5s-31.5 21.5 -51.5 21.5s-37.167 -7.16699 -51.5 -21.5s-21.5 -31.5 -21.5 -51.5s7.16699 -37.167 21.5 -51.5
s31.5 -21.5 51.5 -21.5z" />
    <glyph glyph-name="uni2079" unicode="&#x2079;" horiz-adv-x="343" 
d="M171 839c39.333 0 73.167 -13.666 101.5 -40.999s42.5 -60.333 42.5 -99c0 -24 -9.33301 -51.667 -28 -83l-121 -206h-79l89 148h-10c-40.667 0 -74.167 13.167 -100.5 39.5s-39.5 60.166 -39.5 101.499c0 39.333 13.5 72.5 40.5 99.5s61.833 40.5 104.5 40.5z
M171.001 776.001c-22 0 -39.833 -7.33301 -53.5 -22s-20.5 -33 -20.5 -55s6.83301 -40.5 20.5 -55.5s31.5 -22.5 53.5 -22.5c21.333 0 38.833 7.5 52.5 22.5s20.5 33.5 20.5 55.5s-6.83301 40.333 -20.5 55s-31.167 22 -52.5 22z" />
    <glyph glyph-name="uni2080" unicode="&#x2080;" horiz-adv-x="507" 
d="M253 -120c-60.667 0 -112 21 -154 63s-63 93.333 -63 154s21 112 63 154s93.333 63 154 63s112.167 -21 154.5 -63s63.5 -93.333 63.5 -154s-21.167 -112 -63.5 -154s-93.833 -63 -154.5 -63zM253 -57c43.333 0 79 14.833 107 44.5s42 66.167 42 109.5
s-14 79.833 -42 109.5s-63.667 44.5 -107 44.5s-78.666 -14.833 -105.999 -44.5s-41 -66.167 -41 -109.5s13.667 -79.833 41 -109.5s62.666 -44.5 105.999 -44.5z" />
    <glyph glyph-name="uni2081" unicode="&#x2081;" horiz-adv-x="188" 
d="M58 -115v364l69 65v-429h-69z" />
    <glyph glyph-name="uni2082" unicode="&#x2082;" horiz-adv-x="355" 
d="M20 -115l146.999 168.999c-38 2.66699 -69 15.667 -93 39s-36 53 -36 89c0 37.333 13.833 68.666 41.5 93.999s60.834 38 99.501 38s71.667 -12.667 99 -38s41 -56.666 41 -93.999c0 -18.667 -3.83301 -36.667 -11.5 -54s-16 -31.666 -25 -42.999
s-24.5 -29.333 -46.5 -54l-72 -82h146v-64h-290zM178.999 111.999c19.333 0 35.666 6.83301 48.999 20.5s20 30.167 20 49.5s-6.66699 35.666 -20 48.999s-29.666 20 -48.999 20s-35.833 -6.66699 -49.5 -20s-20.5 -29.666 -20.5 -48.999s6.83301 -35.833 20.5 -49.5
s30.167 -20.5 49.5 -20.5z" />
    <glyph glyph-name="uni2083" unicode="&#x2083;" horiz-adv-x="332" 
d="M154 -120c-26.667 0 -52.167 6.33301 -76.5 19s-42.5 30 -54.5 52l52 41c18.667 -32.667 45.334 -49 80.001 -49c20.667 0 37.667 7.83301 51 23.5s20 34.5 20 56.5s-7.33301 40.333 -22 55s-35.334 22 -62.001 22h-42l74 146h-133v63h238l-80 -155
c65.333 -18 98 -61.667 98 -131c0 -38 -13.333 -71.333 -40 -100s-61 -43 -103 -43z" />
    <glyph glyph-name="uni2084" unicode="&#x2084;" horiz-adv-x="394" 
d="M240 -115v114h-232l301 315v-252h53v-63h-53v-114h-69zM148 62h92v94z" />
    <glyph glyph-name="uni2085" unicode="&#x2085;" horiz-adv-x="338" 
d="M166 -120c-62 0 -106 23.667 -132 71l52 41c19.333 -32.667 46.333 -49 81 -49c20.667 0 37.667 7.5 51 22.5s20 33.167 20 54.5c0 22.667 -6.66699 41.667 -20 57s-31.333 23 -54 23c-30 0 -52 -11.667 -66 -35l-47 18v226h219v-63h-150v-91c14.667 5.33301 31 8 49 8
c43.333 0 77.5 -13.833 102.5 -41.5s37.5 -61.5 37.5 -101.5c0 -38 -13.5 -70.833 -40.5 -98.5s-61.167 -41.5 -102.5 -41.5z" />
    <glyph glyph-name="uni2086" unicode="&#x2086;" horiz-adv-x="343" 
d="M172 -120c-39.333 0 -73.167 13.666 -101.5 40.999s-42.5 60.333 -42.5 99c0 24 9.33301 51.667 28 83l121 206h79l-89 -148h10c40.667 0 74.167 -13.167 100.5 -39.5s39.5 -60.166 39.5 -101.499c0 -39.333 -13.5 -72.5 -40.5 -99.5s-61.833 -40.5 -104.5 -40.5z
M171.999 -57.001c22 0 39.833 7.33301 53.5 22s20.5 33 20.5 55s-6.83301 40.5 -20.5 55.5s-31.5 22.5 -53.5 22.5c-21.333 0 -38.833 -7.5 -52.5 -22.5s-20.5 -33.5 -20.5 -55.5s6.83301 -40.333 20.5 -55s31.167 -22 52.5 -22z" />
    <glyph glyph-name="uni2087" unicode="&#x2087;" horiz-adv-x="310" 
d="M40 -115l163 361h-178v63h281l-193 -424h-73z" />
    <glyph glyph-name="uni2088" unicode="&#x2088;" horiz-adv-x="358" 
d="M179 -120c-40 0 -74 12.333 -102 37s-42 58.334 -42 101.001c0 44 20.333 80.333 61 109c-20.667 17.333 -31 42.333 -31 75c0 34 11 61.167 33 81.5s49 30.5 81 30.5s59 -10.167 81 -30.5s33 -47.5 33 -81.5c0 -32.667 -10.333 -57.667 -31 -75
c40.667 -28.667 61 -65 61 -109c0 -42.667 -14 -76.334 -42 -101.001s-62 -37 -102 -37zM179 157c13.333 0 24.5 4.5 33.5 13.5s13.5 20.167 13.5 33.5s-4.5 24.5 -13.5 33.5s-20.167 13.5 -33.5 13.5s-24.5 -4.5 -33.5 -13.5s-13.5 -20.167 -13.5 -33.5
s4.5 -24.5 13.5 -33.5s20.167 -13.5 33.5 -13.5zM179 -57c20 0 37.167 7.16699 51.5 21.5s21.5 31.5 21.5 51.5s-7.16699 37.167 -21.5 51.5s-31.5 21.5 -51.5 21.5s-37.167 -7.16699 -51.5 -21.5s-21.5 -31.5 -21.5 -51.5s7.16699 -37.167 21.5 -51.5
s31.5 -21.5 51.5 -21.5z" />
    <glyph glyph-name="uni2089" unicode="&#x2089;" horiz-adv-x="343" 
d="M171 314c39.333 0 73.167 -13.666 101.5 -40.999s42.5 -60.333 42.5 -99c0 -24 -9.33301 -51.667 -28 -83l-121 -206h-79l89 148h-10c-40.667 0 -74.167 13.167 -100.5 39.5s-39.5 60.166 -39.5 101.499c0 39.333 13.5 72.5 40.5 99.5s61.833 40.5 104.5 40.5z
M171.001 251.001c-22 0 -39.833 -7.33301 -53.5 -22s-20.5 -33 -20.5 -55s6.83301 -40.5 20.5 -55.5s31.5 -22.5 53.5 -22.5c21.333 0 38.833 7.5 52.5 22.5s20.5 33.5 20.5 55.5s-6.83301 40.333 -20.5 55s-31.167 22 -52.5 22z" />
    <glyph glyph-name="Euro" unicode="&#x20ac;" horiz-adv-x="760" 
d="M35 232l25.001 74h102c-2 16 -3 32.333 -3 49v15c0 6 0.333008 10.667 1 14h-125l25 74h113c20 77.333 61.5 140 124.5 188s136.167 72 219.5 72c77.333 0 146.666 -20.333 207.999 -61l-33 -76c-51.333 38.667 -109.666 58 -174.999 58c-64 0 -118 -16.833 -162 -50.5
s-75.333 -77.167 -94 -130.5h397l-26 -74h-387c-0.666992 -3.33301 -1 -8.33301 -1 -15v-14c0 -18.667 1.33301 -35 4 -49h358l-25 -74h-312c21.333 -49.333 53.5 -88.5 96.5 -117.5s93.5 -43.5 151.5 -43.5c67.333 0 125.666 18 174.999 54v-86
c-48.667 -31.333 -107 -47 -175 -47c-79.333 0 -149.5 22 -210.5 66s-103.5 102 -127.5 174h-144z" />
    <glyph glyph-name="uni20B4" unicode="&#x20b4;" horiz-adv-x="609" 
d="M51 391l0.000976562 74.001h338c20 20 30 44.333 30 73c0 29.333 -10.833 52.166 -32.5 68.499s-49.834 24.5 -84.501 24.5c-58 0 -106 -22.667 -144 -68l-64 64c51.333 60.667 120.333 91 207 91c58.667 0 108.167 -16.5 148.5 -49.5s60.5 -75.833 60.5 -128.5
c0 -26.667 -8 -51.667 -24 -75h66v-74h-501zM51.001 245.001v74h501v-74h-351c-13.333 -19.333 -20 -41.333 -20 -66c0 -31.333 11.833 -55.833 35.5 -73.5s56.5 -26.5 98.5 -26.5c63.333 0 117 27.667 161 83l69 -60c-22.667 -32 -54.5 -58.333 -95.5 -79
s-86.167 -31 -135.5 -31c-70 0 -125 17 -165 51s-60 80.333 -60 139c0 24 4 45 12 63h-50z" />
    <glyph glyph-name="uni20B8" unicode="&#x20b8;" horiz-adv-x="564" 
d="M35 636v74h494v-74h-494zM236 0v491h-201v74h494v-74h-202v-491h-91z" />
    <glyph glyph-name="uni20BD" unicode="&#x20bd;" horiz-adv-x="610" 
d="M130 0v128h-76v74h76v74h-76v84h76v350h201c74.667 0 134.334 -19.5 179.001 -58.5s67 -91.833 67 -158.5c0 -66 -22.333 -118.667 -67 -158s-104.334 -59 -179.001 -59h-110v-74h198v-74h-198v-128h-91zM221 360h107c50.667 0 89.334 11.5 116.001 34.5
s40 55.833 40 98.5s-13.333 75.5 -40 98.5s-65.334 34.5 -116.001 34.5h-107v-266z" />
    <glyph glyph-name="uni2116" unicode="&#x2116;" horiz-adv-x="1133" 
d="M936 405c-44 0 -81 14.833 -111 44.5s-45 66.5 -45 110.5s15 80.833 45 110.5s67 44.5 111 44.5s80.833 -14.833 110.5 -44.5s44.5 -66.5 44.5 -110.5s-14.833 -80.833 -44.5 -110.5s-66.5 -44.5 -110.5 -44.5zM936 471c24.667 0 44.834 8.5 60.501 25.5
s23.5 38.167 23.5 63.5s-7.83301 46.5 -23.5 63.5s-35.834 25.5 -60.501 25.5c-25.333 0 -45.833 -8.33301 -61.5 -25s-23.5 -38 -23.5 -64s7.83301 -47.333 23.5 -64s36.167 -25 61.5 -25zM790 265v76h291v-76h-291zM692 -8l-506 513v-505h-91v718l506 -513v505h91v-718z
" />
    <glyph glyph-name="uni2117" unicode="&#x2117;" horiz-adv-x="816" 
d="M408 -9c-100 0 -185.5 35.5 -256.5 106.5s-106.5 156.5 -106.5 256.5s35.5 185.667 106.5 257s156.5 107 256.5 107s185.5 -35.667 256.5 -107s106.5 -157 106.5 -257s-35.5 -185.5 -106.5 -256.5s-156.5 -106.5 -256.5 -106.5zM407 61
c81.333 0 150.666 28.667 207.999 86s86 126.333 86 207c0 81.333 -28.667 150.666 -86 207.999s-126.666 86 -207.999 86c-80.667 0 -149.667 -28.667 -207 -86s-86 -126.666 -86 -207.999c0 -80.667 28.667 -149.667 86 -207s126.333 -86 207 -86zM317 186v336h97
c37.333 0 67.833 -9.83301 91.5 -29.5s35.5 -47.5 35.5 -83.5c0 -34.667 -12 -62 -36 -82s-54.333 -30 -91 -30h-29v-111h-68zM385 359h25c40.667 0 61 16.667 61 50c0 34 -20.333 51 -61 51h-25v-101z" />
    <glyph glyph-name="trademark" unicode="&#x2122;" horiz-adv-x="799" 
d="M355 355v371l183 -180l183 180v-371h-65v228l-118 -116l-119 116v-228h-64zM131 355v295h-96v60h260v-60h-98v-295h-66z" />
    <glyph glyph-name="uni2150" unicode="&#x2150;" horiz-adv-x="714" 
d="M58 287v364l69 65v-429h-69zM9 0l500 710h80l-500 -710h-80zM444 0l163 361h-178v63h281l-193 -424h-73z" />
    <glyph glyph-name="uni2151" unicode="&#x2151;" horiz-adv-x="731" 
d="M58 287v364l69 65v-429h-69zM9 0l500 710h80l-500 -710h-80zM559 429c39.333 0 73.167 -13.666 101.5 -40.999s42.5 -60.333 42.5 -99c0 -24 -9.33301 -51.667 -28 -83l-121 -206h-79l89 148h-10c-40.667 0 -74.167 13.167 -100.5 39.5s-39.5 60.166 -39.5 101.499
c0 39.333 13.5 72.5 40.5 99.5s61.833 40.5 104.5 40.5zM559.001 366.001c-22 0 -39.833 -7.33301 -53.5 -22s-20.5 -33 -20.5 -55s6.83301 -40.5 20.5 -55.5s31.5 -22.5 53.5 -22.5c21.333 0 38.833 7.5 52.5 22.5s20.5 33.5 20.5 55.5s-6.83301 40.333 -20.5 55
s-31.167 22 -52.5 22z" />
    <glyph glyph-name="uni2152" unicode="&#x2152;" horiz-adv-x="1083" 
d="M58 287v364l69 65v-429h-69zM9 0l500 710h80l-500 -710h-80zM446 0v364l69 65v-429h-69zM829 -5c-60.667 0 -112 21 -154 63s-63 93.333 -63 154s21 112 63 154s93.333 63 154 63s112.167 -21 154.5 -63s63.5 -93.333 63.5 -154s-21.167 -112 -63.5 -154
s-93.833 -63 -154.5 -63zM829 58c43.333 0 79 14.833 107 44.5s42 66.167 42 109.5s-14 79.833 -42 109.5s-63.667 44.5 -107 44.5s-78.666 -14.833 -105.999 -44.5s-41 -66.167 -41 -109.5s13.667 -79.833 41 -109.5s62.666 -44.5 105.999 -44.5z" />
    <glyph glyph-name="onethird" unicode="&#x2153;" horiz-adv-x="720" 
d="M58 287v364l69 65v-429h-69zM9 0l500 710h80l-500 -710h-80zM543 -5c-26.667 0 -52.168 6.33301 -76.501 19s-42.5 30 -54.5 52l52 41c18.667 -32.667 45.334 -49 80.001 -49c20.667 0 37.667 7.83301 51 23.5s20 34.5 20 56.5c0 21.333 -7.5 39.5 -22.5 54.5
s-35.5 22.5 -61.5 22.5h-42l74 146h-133v63h238l-80 -155c65.333 -18 98 -61.667 98 -131c0 -38 -13.333 -71.333 -40 -100s-61 -43 -103 -43z" />
    <glyph glyph-name="twothirds" unicode="&#x2154;" horiz-adv-x="867" 
d="M21 287l146.999 168.999c-38 2.66699 -69 15.667 -93 39s-36 53 -36 89c0 37.333 13.833 68.666 41.5 93.999s60.834 38 99.501 38s71.667 -12.667 99 -38s41 -56.666 41 -93.999c0 -18.667 -3.83301 -36.667 -11.5 -54s-16 -31.666 -25 -42.999s-24.5 -29.333 -46.5 -54
l-72 -82h146v-64h-290zM179.999 513.999c19.333 0 35.666 6.83301 48.999 20.5s20 30.167 20 49.5s-6.66699 35.666 -20 48.999s-29.666 20 -48.999 20s-35.833 -6.66699 -49.5 -20s-20.5 -29.666 -20.5 -48.999s6.83301 -35.833 20.5 -49.5s30.167 -20.5 49.5 -20.5z
M155.999 -0.000976562l500 710h80l-500 -710h-80zM689.999 -5.00098c-26.667 0 -52.167 6.33301 -76.5 19s-42.5 30 -54.5 52l52 41c18.667 -32.667 45.334 -49 80.001 -49c20.667 0 37.667 7.83301 51 23.5s20 34.5 20 56.5c0 21.333 -7.33301 39.5 -22 54.5
s-35.334 22.5 -62.001 22.5h-42l74 146h-133v63h238l-80 -155c65.333 -18 98 -61.667 98 -131c0 -38 -13.333 -71.333 -40 -100s-61 -43 -103 -43z" />
    <glyph glyph-name="uni2155" unicode="&#x2155;" horiz-adv-x="726" 
d="M58 287v364l69 65v-429h-69zM9 0l500 710h80l-500 -710h-80zM554 -5c-62 0 -106 23.667 -132 71l52 41c19.333 -32.667 46.333 -49 81 -49c20.667 0 37.667 7.5 51 22.5s20 33.167 20 54.5c0 22.667 -6.66699 41.667 -20 57s-31.333 23 -54 23c-30 0 -52 -11.667 -66 -35
l-47 18v226h219v-63h-150v-91c14.667 5.33301 31 8 49 8c43.333 0 77.5 -13.833 102.5 -41.5s37.5 -61.5 37.5 -101.5c0 -38 -13.5 -70.833 -40.5 -98.5s-61.167 -41.5 -102.5 -41.5z" />
    <glyph glyph-name="uni2156" unicode="&#x2156;" horiz-adv-x="873" 
d="M21 287l146.999 168.999c-38 2.66699 -69 15.667 -93 39s-36 53 -36 89c0 37.333 13.833 68.666 41.5 93.999s60.834 38 99.501 38s71.667 -12.667 99 -38s41 -56.666 41 -93.999c0 -18.667 -3.83301 -36.667 -11.5 -54s-16 -31.666 -25 -42.999s-24.5 -29.333 -46.5 -54
l-72 -82h146v-64h-290zM179.999 513.999c19.333 0 35.666 6.83301 48.999 20.5s20 30.167 20 49.5s-6.66699 35.666 -20 48.999s-29.666 20 -48.999 20s-35.833 -6.66699 -49.5 -20s-20.5 -29.666 -20.5 -48.999s6.83301 -35.833 20.5 -49.5s30.167 -20.5 49.5 -20.5z
M155.999 -0.000976562l500 710h80l-500 -710h-80zM700.999 -5.00098c-62 0 -106 23.667 -132 71l52 41c19.333 -32.667 46.333 -49 81 -49c20.667 0 37.667 7.5 51 22.5s20 33.167 20 54.5c0 22.667 -6.66699 41.667 -20 57s-31.333 23 -54 23c-30 0 -52 -11.667 -66 -35
l-47 18v226h219v-63h-150v-91c14.667 5.33301 31 8 49 8c43.333 0 77.5 -13.833 102.5 -41.5s37.5 -61.5 37.5 -101.5c0 -38 -13.5 -70.833 -40.5 -98.5s-61.167 -41.5 -102.5 -41.5z" />
    <glyph glyph-name="uni2157" unicode="&#x2157;" horiz-adv-x="850" 
d="M155 281c-26.667 0 -52.168 6.33301 -76.501 19s-42.5 30 -54.5 52l52 41c18.667 -32.667 45.334 -49 80.001 -49c20.667 0 37.667 7.83301 51 23.5s20 34.5 20 56.5c0 21.333 -7.5 39.5 -22.5 54.5s-35.5 22.5 -61.5 22.5h-42l74 146h-133v63h238l-80 -155
c65.333 -18 98 -61.667 98 -131c0 -38 -13.333 -71.333 -40 -100s-61 -43 -103 -43zM132.999 0l500 710h80l-500 -710h-80zM677.999 -5c-62 0 -106 23.667 -132 71l52 41c19.333 -32.667 46.333 -49 81 -49c20.667 0 37.667 7.5 51 22.5s20 33.167 20 54.5
c0 22.667 -6.66699 41.667 -20 57s-31.333 23 -54 23c-30 0 -52 -11.667 -66 -35l-47 18v226h219v-63h-150v-91c14.667 5.33301 31 8 49 8c43.333 0 77.5 -13.833 102.5 -41.5s37.5 -61.5 37.5 -101.5c0 -38 -13.5 -70.833 -40.5 -98.5s-61.167 -41.5 -102.5 -41.5z" />
    </font>
</defs>
</svg>
