<?xml version="1.0" standalone="no"?>
<!DOCTYPE svg PUBLIC "-//W3C//DTD SVG 1.1//EN" "http://www.w3.org/Graphics/SVG/1.1/DTD/svg11.dtd" >
<svg>
<metadata>
Created by FontForge 20090914 at Thu Aug 25 10:54:23 2022
 By www-data
Copyright (c) 2018 by Swiss Typefaces. All rights reserved. |DCNT
</metadata>
<defs>
<font id="EuclidFlex-Light" horiz-adv-x="0" >
  <font-face 
    font-family="Euclid Flex Light"
    font-weight="300"
    font-stretch="normal"
    units-per-em="1000"
    panose-1="2 11 3 4 0 0 0 0 0 0"
    ascent="732"
    descent="-268"
    x-height="500"
    cap-height="710"
    bbox="-346 -1767 1577 934"
    underline-thickness="60"
    underline-position="-180"
    unicode-range="U+000D-U+FEFF"
  />
<missing-glyph horiz-adv-x="500" 
d="M0 0v710h500v-710h-500zM34 691l216 -320l216 320h-432zM19 682v-654l221 327zM261 355l220 -327v654zM34 19h432l-216 320z" />
    <glyph glyph-name="uni0407_uni0407" unicode="&#x407;&#x407;" horiz-adv-x="546" 
d="M99 0v710h74v-710h-74zM373 0v710h74v-710h-74zM43 788c-16 0 -29.333 5.33301 -40 16s-16 24 -16 40c0 15.333 5.5 28.333 16.5 39s24.167 16 39.5 16s28.5 -5.33301 39.5 -16s16.5 -23.667 16.5 -39c0 -16 -5.5 -29.333 -16.5 -40s-24.167 -16 -39.5 -16zM274 788
c-16 0 -29.333 5.33301 -40 16s-16 24 -16 40c0 15.333 5.5 28.333 16.5 39s24.167 16 39.5 16s28.5 -5.33301 39.5 -16s16.5 -23.667 16.5 -39c0 -16 -5.5 -29.333 -16.5 -40s-24.167 -16 -39.5 -16zM505 788c-16 0 -29.333 5.33301 -40 16s-16 24 -16 40
c0 15.333 5.5 28.333 16.5 39s24.167 16 39.5 16s28.5 -5.33301 39.5 -16s16.5 -23.667 16.5 -39c0 -16 -5.5 -29.333 -16.5 -40s-24.167 -16 -39.5 -16z" />
    <glyph glyph-name="uni0457_uni0457" unicode="&#x457;&#x457;" horiz-adv-x="458" 
d="M79 0v500h70v-500h-70zM309 0v500h70v-500h-70zM21 576c-16 0 -29.333 5.33301 -40 16s-16 24 -16 40c0 15.333 5.5 28.333 16.5 39s24.167 16 39.5 16s28.5 -5.33301 39.5 -16s16.5 -23.667 16.5 -39c0 -16 -5.5 -29.333 -16.5 -40s-24.167 -16 -39.5 -16zM229 576
c-16 0 -29.333 5.33301 -40 16s-16 24 -16 40c0 15.333 5.5 28.333 16.5 39s24.167 16 39.5 16s28.5 -5.33301 39.5 -16s16.5 -23.667 16.5 -39c0 -16 -5.5 -29.333 -16.5 -40s-24.167 -16 -39.5 -16zM437 576c-16 0 -29.333 5.33301 -40 16s-16 24 -16 40
c0 15.333 5.5 28.333 16.5 39s24.167 16 39.5 16s28.5 -5.33301 39.5 -16s16.5 -23.667 16.5 -39c0 -16 -5.5 -29.333 -16.5 -40s-24.167 -16 -39.5 -16z" />
    <glyph glyph-name="uni0457_uni0458" unicode="&#x457;&#x458;" horiz-adv-x="458" 
d="M21 576c-16 0 -29.333 5.33301 -40 16s-16 24 -16 40c0 15.333 5.5 28.333 16.5 39s24.167 16 39.5 16s28.5 -5.33301 39.5 -16s16.5 -23.667 16.5 -39c0 -16 -5.5 -29.333 -16.5 -40s-24.167 -16 -39.5 -16zM229 576c-16 0 -29.333 5.33301 -40 16s-16 24 -16 40
c0 15.333 5.5 28.333 16.5 39s24.167 16 39.5 16s28.5 -5.33301 39.5 -16s16.5 -23.667 16.5 -39c0 -16 -5.5 -29.333 -16.5 -40s-24.167 -16 -39.5 -16zM437 576c-16 0 -29.333 5.33301 -40 16s-16 24 -16 40c0 15.333 5.5 28.333 16.5 39s24.167 16 39.5 16
s28.5 -5.33301 39.5 -16s16.5 -23.667 16.5 -39c0 -16 -5.5 -29.333 -16.5 -40s-24.167 -16 -39.5 -16zM79 0v500h70v-500h-70zM202 -184v64h25c30.667 0 52 7.5 64 22.5s18 38.5 18 70.5v527h70v-541c0 -95.333 -48.667 -143 -146 -143h-31z" />
    <glyph glyph-name=".notdef" horiz-adv-x="500" 
d="M0 0v710h500v-710h-500zM34 691l216 -320l216 320h-432zM19 682v-654l221 327zM261 355l220 -327v654zM34 19h432l-216 320z" />
    <glyph glyph-name="CR" unicode="&#xd;" horiz-adv-x="258" 
 />
    <glyph glyph-name="space" unicode=" " horiz-adv-x="258" 
 />
    <glyph glyph-name="exclam" unicode="!" horiz-adv-x="258" 
d="M107 211l-13 205v294h71v-294l-14 -205h-44zM128 -8c-18 0 -33.333 6.5 -46 19.5s-19 28.5 -19 46.5c0 26 11 45 33 57h66c22 -12.667 33 -31.667 33 -57c0 -18 -6.5 -33.5 -19.5 -46.5s-28.833 -19.5 -47.5 -19.5z" />
    <glyph glyph-name="quotedbl" unicode="&#x22;" horiz-adv-x="404" 
d="M69 470v240h64v-240h-64zM271 470v240h64v-240h-64z" />
    <glyph glyph-name="numbersign" unicode="#" horiz-adv-x="741" 
d="M163 0h-65l65 206h-128v60h146l59 185h-130v60h149l62 199h64l-62 -199h193l62 199h64l-62 -199h127v-60h-146l-58 -185h130v-60h-148l-65 -206h-64l64 206h-192zM246 266h192l59 185h-193z" />
    <glyph glyph-name="dollar" unicode="$" horiz-adv-x="516" 
d="M226 -88l-0.000976562 81.9971c-85.333 8.66699 -149.333 44 -192 106l52 44c18.667 -25.333 42.834 -46.166 72.501 -62.499s61.834 -24.5 96.501 -24.5c47.333 0 84.5 10.833 111.5 32.5s40.5 50.834 40.5 87.501c0 32 -10.333 58 -31 78s-53.334 41 -98.001 63l-68 32
c-53.333 25.333 -91.666 53.333 -114.999 84s-35 67.667 -35 111c0 42.667 15.333 80 46 112s70.667 51.333 120 58v83h68v-83c62 -6.66699 114.333 -35 157 -85l-49 -45c-36 45.333 -83.333 68 -142 68c-36.667 0 -67.834 -10.167 -93.501 -30.5s-38.5 -45.833 -38.5 -76.5
c0 -29.333 9 -53.833 27 -73.5s47.667 -39.167 89 -58.5l67 -32c54 -25.333 95.333 -53 124 -83s43 -68.333 43 -115c0 -49.333 -15.833 -91.666 -47.5 -126.999s-77.167 -56 -136.5 -62v-83h-68z" />
    <glyph glyph-name="percent" unicode="%" horiz-adv-x="428" 
d="M212 438c-38.667 0 -71.834 13.5 -99.501 40.5s-41.5 60.167 -41.5 99.5s13.833 72.333 41.5 99s60.834 40 99.501 40c40 0 73.833 -13.333 101.5 -40s41.5 -59.667 41.5 -99s-13.833 -72.5 -41.5 -99.5s-61.5 -40.5 -101.5 -40.5zM212 492
c25.333 0 45.833 8.16699 61.5 24.5s23.5 36.833 23.5 61.5c0 24 -7.83301 44.167 -23.5 60.5s-36.167 24.5 -61.5 24.5c-24 0 -43.833 -8.16699 -59.5 -24.5s-23.5 -36.5 -23.5 -60.5s7.83301 -44.333 23.5 -61s35.5 -25 59.5 -25zM77 324v60h278v-60h-278zM212 -7
c-38.667 0 -71.834 13.333 -99.501 40s-41.5 59.667 -41.5 99s13.833 72.5 41.5 99.5s60.834 40.5 99.501 40.5c40 0 73.833 -13.5 101.5 -40.5s41.5 -60.167 41.5 -99.5s-13.833 -72.333 -41.5 -99s-61.5 -40 -101.5 -40zM212 47c25.333 0 45.833 8.16699 61.5 24.5
s23.5 36.5 23.5 60.5c0 24.667 -7.83301 45.167 -23.5 61.5s-36.167 24.5 -61.5 24.5c-24 0 -43.833 -8.33301 -59.5 -25s-23.5 -37 -23.5 -61s7.83301 -44.167 23.5 -60.5s35.5 -24.5 59.5 -24.5z" />
    <glyph glyph-name="ampersand" unicode="&#x26;" horiz-adv-x="613" 
d="M252 -8c-64.667 0 -118.333 21.5 -161 64.5s-64 95.833 -64 158.5c0 62 21.5 114.667 64.5 158s96.5 65 160.5 65c18.667 0 39.667 -4 63 -12l-148 284h354v-64h-246l339 -646h-77l-80 151c-14.667 -50 -40 -89 -76 -117s-79 -42 -129 -42zM252.001 57
c44.667 0 81.667 15 111 45s44 67.667 44 113c0 44.667 -14.5 82.167 -43.5 112.5s-66.167 45.5 -111.5 45.5c-44.667 0 -81.667 -15 -111 -45s-44 -67.667 -44 -113s14.667 -83 44 -113s66.333 -45 111 -45z" />
    <glyph glyph-name="quotesingle" unicode="'" horiz-adv-x="202" 
d="M69 470v240h64v-240h-64z" />
    <glyph glyph-name="parenleft" unicode="(" horiz-adv-x="251" 
d="M214 -112l-56 -24c-37.333 78.667 -64.166 150.167 -80.499 214.5s-24.5 138.5 -24.5 222.5s8.16699 158.167 24.5 222.5s43.166 135.833 80.499 214.5l56 -24c-65.333 -137.333 -98 -275 -98 -413s32.667 -275.667 98 -413z" />
    <glyph glyph-name="parenright" unicode=")" horiz-adv-x="251" 
d="M93 -136l-56 24c65.333 137.333 98 275 98 413s-32.667 275.667 -98 413l56 24c37.333 -78.667 64.166 -150.167 80.499 -214.5s24.5 -138.5 24.5 -222.5s-8.16699 -158.167 -24.5 -222.5s-43.166 -135.833 -80.499 -214.5z" />
    <glyph glyph-name="asterisk" unicode="*" horiz-adv-x="432" 
d="M138 390l-46 31l79 107l-127 43l16 54l129 -44v129h54v-128l129 42l17 -53l-128 -42l79 -107l-44 -33l-80 108z" />
    <glyph glyph-name="plus" unicode="+" horiz-adv-x="590" 
d="M76 245v58h190v183h59v-183h189v-58h-189v-188h-59v188h-190z" />
    <glyph glyph-name="comma" unicode="," horiz-adv-x="252" 
d="M74 -140l44 140h-46v112h108v-113l-56 -139h-50z" />
    <glyph glyph-name="hyphen" unicode="-" horiz-adv-x="375" 
d="M68 237v72h239v-72h-239z" />
    <glyph glyph-name="period" unicode="." horiz-adv-x="242" 
d="M122 -8c-18.667 0 -34.333 6.5 -47 19.5s-19 28.5 -19 46.5c0 18.667 6.5 34.5 19.5 47.5s28.5 19.5 46.5 19.5c17.333 0 32.5 -6.5 45.5 -19.5s19.5 -28.833 19.5 -47.5c0 -18 -6.33301 -33.5 -19 -46.5s-28 -19.5 -46 -19.5z" />
    <glyph glyph-name="slash" unicode="/" horiz-adv-x="465" 
d="M27 0l345 710h67l-345 -710h-67z" />
    <glyph glyph-name="zero" unicode="0" horiz-adv-x="828" 
d="M414 -8c-102 0 -188.167 35 -258.5 105s-105.5 156 -105.5 258s35.167 188 105.5 258s156.5 105 258.5 105s188.167 -35 258.5 -105s105.5 -156 105.5 -258s-35.167 -188 -105.5 -258s-156.5 -105 -258.5 -105zM414 57c83.333 0 153 28.667 209 86s84 128 84 212
s-28 154.667 -84 212s-125.667 86 -209 86s-152.833 -28.5 -208.5 -85.5s-83.5 -127.833 -83.5 -212.5s27.833 -155.5 83.5 -212.5s125.167 -85.5 208.5 -85.5z" />
    <glyph glyph-name="one" unicode="1" horiz-adv-x="265" 
d="M96 0v648l70 70v-718h-70z" />
    <glyph glyph-name="two" unicode="2" horiz-adv-x="538" 
d="M28 0l289.002 315.001c-20 -6.66699 -37.667 -10 -53 -10c-58.667 1.33301 -107.167 21.666 -145.5 60.999s-57.5 87.333 -57.5 144c0 58.667 20.167 108 60.5 148s90.166 60 149.499 60c58.667 0 108.5 -20.167 149.5 -60.5s61.5 -89.5 61.5 -147.5
c0 -40 -9.33301 -77.833 -28 -113.5s-49.334 -77.167 -92.001 -124.5l-187 -207h310v-65h-457zM271.002 366.001c40.667 0 74.334 13.667 101.001 41s40 61.666 40 102.999c0 40.667 -13.333 74.667 -40 102s-60.334 41 -101.001 41c-41.333 0 -75.166 -13.667 -101.499 -41
s-39.5 -61.333 -39.5 -102c0 -41.333 13.167 -75.666 39.5 -102.999s60.166 -41 101.499 -41z" />
    <glyph glyph-name="three" unicode="3" horiz-adv-x="519" 
d="M233 -8c-42 0 -80.834 9.33301 -116.501 28s-63.5 44 -83.5 76l54 41c14 -24 33.833 -43.333 59.5 -58s54.167 -22 85.5 -22c47.333 0 87 15.167 119 45.5s48 70.166 48 119.499c0 50 -16 90.5 -48 121.5s-73.667 46.5 -125 46.5h-58l156 255h-263v65h373l-160 -262
c62.667 -10.667 111 -36.667 145 -78s51 -90.666 51 -147.999c0 -66.667 -22.167 -121.667 -66.5 -165s-101.166 -65 -170.499 -65z" />
    <glyph glyph-name="four" unicode="4" horiz-adv-x="623" 
d="M419 0v199h-408l477 519v-454h95v-65h-95v-199h-69zM154 264h265v291z" />
    <glyph glyph-name="five" unicode="5" horiz-adv-x="524" 
d="M249 -8c-42.667 0 -81.999 9.33301 -117.999 28s-64 44 -84 76l54 42c14 -24 34 -43.5 60 -58.5s54.667 -22.5 86 -22.5c47.333 0 86.666 15.167 117.999 45.5s47 69.833 47 118.5c0 49.333 -15.667 89.666 -47 120.999s-71.666 47 -120.999 47
c-44 0 -82.667 -17.333 -116 -52l-49 22v351h353v-65h-283v-215c32 14.667 64.667 22 98 22c70.667 0 127.667 -21.667 171 -65s65 -98.666 65 -165.999c0 -66 -21.833 -120.667 -65.5 -164s-99.834 -65 -168.501 -65z" />
    <glyph glyph-name="six" unicode="6" horiz-adv-x="541" 
d="M277 -8c-65.333 0 -120.333 22.167 -165 66.5s-67 98.5 -67 162.5c0 42 13 85 39 129l217 360h81l-165 -272c18 8 39.333 12 64 12c63.333 0 117.333 -22.333 162 -67s67 -98.667 67 -162c0 -64 -22.333 -118.167 -67 -162.5s-100 -66.5 -166 -66.5zM277 57
c47.333 0 86.166 15.833 116.499 47.5s45.5 70.5 45.5 116.5s-15.167 85 -45.5 117s-69.166 48 -116.499 48c-46 0 -84.333 -16 -115 -48s-46 -71 -46 -117s15.333 -84.833 46 -116.5s69 -47.5 115 -47.5z" />
    <glyph glyph-name="seven" unicode="7" horiz-adv-x="496" 
d="M70 0l318 645h-357v65h463l-349 -710h-75z" />
    <glyph glyph-name="eight" unicode="8" horiz-adv-x="550" 
d="M275 -8c-63.333 0 -117.002 21.832 -161.002 65.499s-66 97.5 -66 161.5c0 43.333 10.833 82.666 32.5 117.999s50.834 62.333 87.501 81c-42.667 32 -64 75.333 -64 130c0 48.667 16.5 89.167 49.5 121.5s73.5 48.5 121.5 48.5c47.333 0 87.5 -16.167 120.5 -48.5
s49.5 -72.833 49.5 -121.5c0 -55.333 -21 -98.666 -63 -129.999c36.667 -18.667 65.834 -45.667 87.501 -81s32.5 -74.666 32.5 -117.999c0 -63.333 -22.167 -117 -66.5 -161s-97.833 -66 -160.5 -66zM274.998 651.999c-28 0 -51.833 -9.83301 -71.5 -29.5
s-29.5 -44.5 -29.5 -74.5c0 -29.333 9.83301 -53.833 29.5 -73.5s43.5 -29.5 71.5 -29.5s51.833 9.83301 71.5 29.5s29.5 44.167 29.5 73.5c0 30 -9.83301 54.833 -29.5 74.5s-43.5 29.5 -71.5 29.5zM274.998 57.999c43.333 0 79.833 15.5 109.5 46.5
s44.5 69.167 44.5 114.5s-14.833 83.333 -44.5 114s-66.167 46 -109.5 46c-44 0 -80.833 -15.333 -110.5 -46s-44.5 -68.667 -44.5 -114s14.833 -83.5 44.5 -114.5s66.5 -46.5 110.5 -46.5z" />
    <glyph glyph-name="nine" unicode="9" horiz-adv-x="541" 
d="M160 -1l165 272c-18 -8 -39.667 -12 -65 -12c-62.667 0 -116.5 22.5 -161.5 67.5s-67.5 98.833 -67.5 161.5c0 64 22.5 118.333 67.5 163s100.167 67 165.5 67s120.333 -22.333 165 -67s67 -99 67 -163c0 -43.333 -13 -86 -39 -128l-217 -361h-80zM264 324
c46.667 0 85.167 15.833 115.5 47.5s45.5 70.5 45.5 116.5s-15.167 85 -45.5 117s-68.833 48 -115.5 48s-85.167 -16 -115.5 -48s-45.5 -71 -45.5 -117s15.167 -84.833 45.5 -116.5s68.833 -47.5 115.5 -47.5z" />
    <glyph glyph-name="colon" unicode=":" horiz-adv-x="267" 
d="M134 375c-18.667 0 -34.333 6.5 -47 19.5s-19 28.5 -19 46.5c0 18.667 6.5 34.5 19.5 47.5s28.5 19.5 46.5 19.5c17.333 0 32.5 -6.5 45.5 -19.5s19.5 -28.833 19.5 -47.5c0 -18 -6.33301 -33.5 -19 -46.5s-28 -19.5 -46 -19.5zM134.001 -8
c-18.667 0 -34.333 6.5 -47 19.5s-19 28.5 -19 46.5c0 18.667 6.5 34.5 19.5 47.5s28.5 19.5 46.5 19.5c17.333 0 32.5 -6.5 45.5 -19.5s19.5 -28.833 19.5 -47.5c0 -18 -6.33301 -33.5 -19 -46.5s-28 -19.5 -46 -19.5z" />
    <glyph glyph-name="semicolon" unicode=";" horiz-adv-x="269" 
d="M136 375c-18.667 0 -34.333 6.5 -47 19.5s-19 28.5 -19 46.5c0 18.667 6.5 34.5 19.5 47.5s28.5 19.5 46.5 19.5c17.333 0 32.5 -6.5 45.5 -19.5s19.5 -28.833 19.5 -47.5c0 -18 -6.33301 -33.5 -19 -46.5s-28 -19.5 -46 -19.5zM81.001 -140l44 140h-46v112h108v-113
l-56 -139h-50z" />
    <glyph glyph-name="less" unicode="&#x3c;" horiz-adv-x="590" 
d="M414 -8l-289 273l289 273l42 -43l-246 -230l246 -231z" />
    <glyph glyph-name="equal" unicode="=" horiz-adv-x="590" 
d="M72 357v58h446v-58h-446zM72 134v57h446v-57h-446z" />
    <glyph glyph-name="greater" unicode="&#x3e;" horiz-adv-x="590" 
d="M176 -8l-42 42l246 231l-246 230l42 43l289 -273z" />
    <glyph glyph-name="question" unicode="?" horiz-adv-x="508" 
d="M183 300v65h57c42.667 0 77.667 13.5 105 40.5s41 61.5 41 103.5c0 41.333 -13.333 75.666 -40 102.999s-60.334 41 -101.001 41s-74.167 -13.667 -100.5 -41s-39.5 -61.666 -39.5 -102.999h-70c0 58.667 20.5 108.167 61.5 148.5s90.5 60.5 148.5 60.5
s107.5 -20.167 148.5 -60.5s61.5 -89.833 61.5 -148.5c0 -59.333 -20.667 -109 -62 -149s-92.666 -60 -153.999 -60h-56zM242 -8c-18 0 -33.332 6.5 -45.999 19.5s-19 28.5 -19 46.5c0 26 11 45 33 57h66c21.333 -12.667 32 -31.667 32 -57c0 -18 -6.33301 -33.5 -19 -46.5
s-28.334 -19.5 -47.001 -19.5z" />
    <glyph glyph-name="at" unicode="@" horiz-adv-x="810" 
d="M397 -8c-106 0 -191.001 32.832 -255.001 98.499s-96 148.5 -96 248.5c0 110 38.167 200.667 114.5 272s168.5 107 276.5 107c100 0 181.833 -28.5 245.5 -85.5s95.5 -132.5 95.5 -226.5c0 -79.333 -17.5 -139.666 -52.5 -180.999s-76.833 -62 -125.5 -62
c-46.667 0 -79 18.667 -97 56c-37.333 -36 -82.666 -54 -135.999 -54c-47.333 0 -85.5 16.5 -114.5 49.5s-43.5 73.167 -43.5 120.5c0 61.333 20.833 113.5 62.5 156.5s93.167 64.5 154.5 64.5c47.333 0 85.666 -14.667 114.999 -44l7 31h59l-51 -241
c-5.33301 -24.667 -3.33301 -45 6 -61s25 -24 47 -24c30.667 0 57.167 17.167 79.5 51.5s33.5 80.833 33.5 139.5c0 79.333 -26.833 142.166 -80.5 188.499s-122.5 69.5 -206.5 69.5c-93.333 0 -171.833 -30.667 -235.5 -92s-95.5 -139.666 -95.5 -234.999
c0 -84.667 26.5 -154.5 79.5 -209.5s124.167 -82.5 213.5 -82.5c70.667 0 133.334 13.667 188.001 41l21 -52c-66 -29.333 -135.667 -44 -209 -44zM271.999 340.999c0 -37.333 9.83105 -66.833 29.498 -88.5s46.167 -32.5 79.5 -32.5c22.667 0 44 5.16699 64 15.5
s35.667 24.833 47 43.5l3 16l33 154c-23.333 34.667 -58.666 52 -105.999 52c-41.333 0 -76.666 -15.333 -105.999 -46s-44 -68.667 -44 -114z" />
    <glyph glyph-name="A" unicode="A" horiz-adv-x="675" 
d="M-5 0l343 718l342 -718h-79l-94 201h-338l-94 -201h-80zM201 269h274l-137 290z" />
    <glyph glyph-name="B" unicode="B" horiz-adv-x="630" 
d="M99 0l-0.000976562 710.002h232c65.333 0 116 -17.333 152 -52s54 -78.334 54 -131.001c0 -68.667 -28 -119.334 -84 -152.001c87.333 -28 131 -87.333 131 -178c0 -62.667 -21.667 -111.167 -65 -145.5s-101.666 -51.5 -174.999 -51.5h-245zM172.999 397.002
l158 -0.000976562c41.333 0 73.5 11.333 96.5 34s34.5 52.334 34.5 89.001c0 34.667 -11.833 63.667 -35.5 87s-55.5 35 -95.5 35h-158v-245zM172.999 68.001l179.998 0.000976562c50.667 0 89.334 11.667 116.001 35s40 55.666 40 96.999c0 40 -13.167 72.167 -39.5 96.5
s-65.166 36.5 -116.499 36.5h-180v-265z" />
    <glyph glyph-name="C" unicode="C" horiz-adv-x="721" 
d="M410 -8c-102 0 -187.833 34.832 -257.5 104.499s-104.5 155.834 -104.5 258.501c0 102 35 188 105 258s155.667 105 257 105c58 0 112.167 -12.333 162.5 -37s89.5 -56 117.5 -94l-53 -46c-25.333 32.667 -57.666 58.667 -96.999 78s-82.666 29 -129.999 29
c-81.333 0 -149.333 -28.167 -204 -84.5s-82 -125.833 -82 -208.5s27.333 -152 82 -208s122.667 -84 204 -84c47.333 0 90.666 9.66699 129.999 29s71.666 45.333 96.999 78l53 -47c-28 -38 -67.167 -69.333 -117.5 -94s-104.5 -37 -162.5 -37z" />
    <glyph glyph-name="D" unicode="D" horiz-adv-x="735" 
d="M99 0v710h208c110 0 200.833 -33.667 272.5 -101s107.5 -152 107.5 -254s-35.833 -186.667 -107.5 -254s-162.5 -101 -272.5 -101h-208zM173 69h134c90.667 0 164.167 26.833 220.5 80.5s84.5 122.167 84.5 205.5c0 82.667 -28.167 151 -84.5 205s-129.833 81 -220.5 81
h-134v-572z" />
    <glyph glyph-name="E" unicode="E" horiz-adv-x="553" 
d="M99 0v710h405v-71h-331v-239h271v-72h-271v-257h331v-71h-405z" />
    <glyph glyph-name="F" unicode="F" horiz-adv-x="516" 
d="M99 0v710h395v-72h-321v-238h253v-72h-253v-328h-74z" />
    <glyph glyph-name="G" unicode="G" horiz-adv-x="743" 
d="M411 -8c-102 0 -187.999 34.832 -257.999 104.499s-105 155.834 -105 258.501s34.833 188.834 104.5 258.501s155.5 104.5 257.5 104.5c53.333 0 103.5 -10.333 150.5 -31s85.167 -48 114.5 -82l-53 -48c-53.333 60 -124 90 -212 90c-81.333 0 -149.5 -28 -204.5 -84
s-82.5 -125.333 -82.5 -208s27.5 -152 82.5 -208s123.5 -84 205.5 -84c82.667 0 147.667 20 195 60v205h-227l32 72h269v-312c-24.667 -26.667 -61.334 -49.334 -110.001 -68.001s-101.667 -28 -159 -28z" />
    <glyph glyph-name="H" unicode="H" horiz-adv-x="764" 
d="M99 0v710h74v-310h418v310h74v-710h-74v328h-418v-328h-74z" />
    <glyph glyph-name="I" unicode="I" horiz-adv-x="272" 
d="M99 0v710h74v-710h-74z" />
    <glyph glyph-name="J" unicode="J" horiz-adv-x="523" 
d="M226 -8c-58.667 0 -107.333 17.833 -146 53.5s-58 85.5 -58 149.5h74c0 -42.667 11.833 -75.334 35.5 -98.001s55.167 -34 94.5 -34c40 0 71.833 11.333 95.5 34s35.5 55.334 35.5 98.001v515h74v-519c0 -63.333 -19.5 -112.333 -58.5 -147s-87.833 -52 -146.5 -52z" />
    <glyph glyph-name="K" unicode="K" horiz-adv-x="626" 
d="M99 0v710h74v-359l339 359h92l-341 -360l371 -350h-100l-361 339v-339h-74z" />
    <glyph glyph-name="L" unicode="L" horiz-adv-x="515" 
d="M99 0v710h74v-638h325v-72h-399z" />
    <glyph glyph-name="M" unicode="M" horiz-adv-x="881" 
d="M99 0v718l342 -388l341 388v-718h-74v534l-267 -309l-268 309v-534h-74z" />
    <glyph glyph-name="N" unicode="N" horiz-adv-x="788" 
d="M689 -8l-516 551v-543h-74v718l516 -551v543h74v-718z" />
    <glyph glyph-name="O" unicode="O" horiz-adv-x="822" 
d="M411 -8c-102 0 -188 34.833 -258 104.5s-105 155.834 -105 258.501s35 188.834 105 258.501s156 104.5 258 104.5s188 -34.833 258 -104.5s105 -155.834 105 -258.501s-35 -188.834 -105 -258.501s-156 -104.5 -258 -104.5zM411 64c81.333 0 149.333 28.002 204 84.002
s82 125 82 207s-27.333 151 -82 207s-122.667 84 -204 84c-82 0 -150.167 -27.833 -204.5 -83.5s-81.5 -124.834 -81.5 -207.501s27.167 -151.834 81.5 -207.501s122.5 -83.5 204.5 -83.5z" />
    <glyph glyph-name="P" unicode="P" horiz-adv-x="571" 
d="M99 0v709.999h200c74 0 132.333 -19.167 175 -57.5s64 -89.166 64 -152.499s-21.5 -114.333 -64.5 -153s-101.167 -58 -174.5 -58h-126v-289h-74zM173 357.999h125c53.333 0 94 12.5 122 37.5s42 59.833 42 104.5c0 44 -14 78.667 -42 104s-68.667 38 -122 38h-125v-284z
" />
    <glyph glyph-name="Q" unicode="Q" horiz-adv-x="841" 
d="M411 -8c-102 0 -188 34.832 -258 104.499s-105 155.834 -105 258.501s35 188.834 105 258.501s156 104.5 258 104.5s188 -34.833 258 -104.5s105 -155.834 105 -258.501c0 -86 -25.333 -161.333 -76 -226l91 -86l-47 -51l-93 86c-66.667 -57.333 -146 -86 -238 -86z
M411 63.999c70.667 0 132 21.6699 184 65.0029l-93 88l48 51l93 -88c36 49.333 54 107.666 54 174.999c0 82 -27.333 151 -82 207s-122.667 84 -204 84c-82 0 -150.167 -27.833 -204.5 -83.5s-81.5 -124.834 -81.5 -207.501s27.167 -151.834 81.5 -207.501
s122.5 -83.5 204.5 -83.5z" />
    <glyph glyph-name="R" unicode="R" horiz-adv-x="612" 
d="M99 0l0.000976562 709.999h205c70 0 124.833 -17.667 164.5 -53s59.5 -82.666 59.5 -141.999c0 -48 -14.333 -89.667 -43 -125s-73.334 -57.333 -134.001 -66l255 -324h-90l-250 320h-93v-320h-74zM173.001 385.999l128 -0.000976562c49.333 0 86.833 11.167 112.5 33.5
s38.5 53.5 38.5 93.5c0 40.667 -12.833 72.334 -38.5 95.001s-63.167 34 -112.5 34h-128v-256z" />
    <glyph glyph-name="S" unicode="S" horiz-adv-x="524" 
d="M260 -8c-46.667 0 -90.001 10.332 -130.001 30.999s-71.333 46.334 -94 77.001l57 49c18.667 -25.333 42.667 -46 72 -62s61 -24 95 -24c46 0 82.333 10 109 30s40 48 40 84c0 32.667 -10.5 60 -31.5 82s-52.833 42.333 -95.5 61l-68 29
c-53.333 23.333 -92 50.833 -116 82.5s-36 69.5 -36 113.5c0 50.667 20.167 92.167 60.5 124.5s87.833 48.5 142.5 48.5c78.667 0 142.667 -29.333 192 -88l-53 -52c-36.667 46 -84 69 -142 69c-35.333 0 -65.166 -9.33301 -89.499 -28s-36.5 -43.667 -36.5 -75
c0 -28.667 8.66699 -53.334 26 -74.001s46 -40 86 -58l68 -29c53.333 -24 94.5 -51.5 123.5 -82.5s43.5 -69.833 43.5 -116.5c0 -57.333 -20 -103.666 -60 -138.999s-94.333 -53 -163 -53z" />
    <glyph glyph-name="T" unicode="T" horiz-adv-x="517" 
d="M221 0v638h-206v72h487v-72h-207v-638h-74z" />
    <glyph glyph-name="U" unicode="U" horiz-adv-x="736" 
d="M368 -8c-84 0 -151.331 24.5 -201.998 73.5s-76 116.5 -76 202.5v442h74v-445c0 -65.333 18.167 -115.333 54.5 -150s86.166 -52 149.499 -52s113.166 17.333 149.499 52s54.5 84.667 54.5 150v445h74v-442c0 -86 -25.333 -153.5 -76 -202.5s-118 -73.5 -202 -73.5z" />
    <glyph glyph-name="V" unicode="V" horiz-adv-x="653" 
d="M327 -8l-324 718h81l243 -548l242 548h81z" />
    <glyph glyph-name="W" unicode="W" horiz-adv-x="885" 
d="M248 -8l-236 718h76l165 -518l189 526l190 -526l165 518h76l-236 -718l-194 538z" />
    <glyph glyph-name="X" unicode="X" horiz-adv-x="631" 
d="M6 0l263 364l-247 346h85l208 -290l208 290h85l-245 -346l261 -364h-84l-224 309l-223 -309h-87z" />
    <glyph glyph-name="Y" unicode="Y" horiz-adv-x="616" 
d="M271 0v301l-260 409h86l211 -337l211 337h86l-260 -409v-301h-74z" />
    <glyph glyph-name="Z" unicode="Z" horiz-adv-x="584" 
d="M8 0l418 638h-372v72h499l-417 -638h419v-72h-547z" />
    <glyph glyph-name="bracketleft" unicode="[" horiz-adv-x="295" 
d="M268 -135h-176v870h176v-59h-111v-752h111v-59z" />
    <glyph glyph-name="backslash" unicode="\" horiz-adv-x="465" 
d="M371 0l-345 710h66l346 -710h-67z" />
    <glyph glyph-name="bracketright" unicode="]" horiz-adv-x="295" 
d="M203 -135h-176v59h111v752h-111v59h176v-870z" />
    <glyph glyph-name="asciicircum" unicode="^" horiz-adv-x="610" 
d="M34 321l271 393l271 -393h-70l-201 289l-201 -289h-70z" />
    <glyph glyph-name="underscore" unicode="_" horiz-adv-x="551" 
d="M64 -60v60h423v-60h-423z" />
    <glyph glyph-name="grave" unicode="`" 
d="M16 550l-119 160h88l90 -160h-59z" />
    <glyph glyph-name="a" unicode="a" horiz-adv-x="618" 
d="M469 0v57.998c-44 -44 -100.333 -66 -169 -66c-74 0 -135.167 24.833 -183.5 74.5s-72.5 110.834 -72.5 183.501s24.167 133.834 72.5 183.501s109.5 74.5 183.5 74.5c68.667 0 125 -22 169 -66v58h70v-500h-70zM301 57.998c74.667 0 130.667 28.667 168 86v212
c-16.667 26 -39.5 46.833 -68.5 62.5s-62.167 23.5 -99.5 23.5c-53.333 0 -97.5 -18.5 -132.5 -55.5s-52.5 -82.5 -52.5 -136.5s17.5 -99.5 52.5 -136.5s79.167 -55.5 132.5 -55.5z" />
    <glyph glyph-name="b" unicode="b" horiz-adv-x="618" 
d="M79 0v710.002h70v-268c44 44 100.333 66 169 66c74 0 135.167 -24.833 183.5 -74.5s72.5 -110.834 72.5 -183.501s-24.167 -133.834 -72.5 -183.501s-109.5 -74.5 -183.5 -74.5c-68.667 0 -125 22 -169 66v-58h-70zM317 442.002
c-37.333 0 -70.666 -7.83301 -99.999 -23.5s-52 -36.5 -68 -62.5v-212c16 -26 38.667 -46.833 68 -62.5s62.666 -23.5 99.999 -23.5c53.333 0 97.5 18.5 132.5 55.5s52.5 82.5 52.5 136.5s-17.5 99.5 -52.5 136.5s-79.167 55.5 -132.5 55.5z" />
    <glyph glyph-name="c" unicode="c" horiz-adv-x="521" 
d="M301 -8c-74 0 -135.333 24.8311 -184 74.498s-73 110.834 -73 183.501s24.333 133.834 73 183.501s110 74.5 184 74.5c74.667 0 138 -26 190 -78l-45 -49c-40.667 40.667 -89 61 -145 61c-53.333 0 -97.5 -18.5 -132.5 -55.5s-52.5 -82.5 -52.5 -136.5
s17.5 -99.5 52.5 -136.5s79.167 -55.5 132.5 -55.5c56 0 104.333 20.333 145 61l45 -49c-52 -52 -115.333 -78 -190 -78z" />
    <glyph glyph-name="d" unicode="d" horiz-adv-x="618" 
d="M539 0l-70 -0.00195312v58c-44 -44 -100.333 -66 -169 -66c-74 0 -135.167 24.833 -183.5 74.5s-72.5 110.834 -72.5 183.501s24.167 133.834 72.5 183.501s109.5 74.5 183.5 74.5c68.667 0 125 -22 169 -66v268h70v-710zM301 441.998
c-53.333 0 -97.5 -18.5 -132.5 -55.5s-52.5 -82.5 -52.5 -136.5s17.5 -99.5 52.5 -136.5s79.167 -55.5 132.5 -55.5c37.333 0 70.5 7.83301 99.5 23.5s51.833 36.5 68.5 62.5v212c-16.667 26 -39.5 46.833 -68.5 62.5s-62.167 23.5 -99.5 23.5z" />
    <glyph glyph-name="e" unicode="e" horiz-adv-x="573" 
d="M301 -8c-74 0 -135.333 24.832 -184 74.499s-73 110.834 -73 183.501c0 72 24.167 133 72.5 183s107.5 75 177.5 75c73.333 0 132 -25.167 176 -75.5s66 -115.833 66 -196.5h-421c4 -52.667 23.5 -95.5 58.5 -128.5s77.5 -49.5 127.5 -49.5c61.333 0 113 21 155 63
l45 -49c-52 -53.333 -118.667 -80 -200 -80zM290 442.999c-40 0 -76 -12.666 -108 -37.999s-52.667 -61 -62 -107h337c-6 46.667 -24 82.667 -54 108s-67.667 37.666 -113 36.999z" />
    <glyph glyph-name="f" unicode="f" horiz-adv-x="339" 
d="M117 0v436.001h-97v64h95c-28 22 -42 52 -42 90c0 35.333 13.167 64.166 39.5 86.499s61.5 33.5 105.5 33.5h107v-64h-99c-25.333 0 -45.833 -6.16699 -61.5 -18.5s-23.5 -29.833 -23.5 -52.5s7.66699 -40.5 23 -53.5s34.333 -20.167 57 -21.5h105v-64h-139v-436h-70z
" />
    <glyph glyph-name="g" unicode="g" horiz-adv-x="611" 
d="M292 -194c-82.667 0 -153.333 21.001 -212 63.001l38 59c49.333 -38 108 -57 176 -57c54 0 97.833 11.667 131.5 35s50.5 58.333 50.5 105c0 27.333 -4.66699 51 -14 71c-45.333 -45.333 -102 -68 -170 -68c-72.667 0 -132 23.5 -178 70.5s-69 105.833 -69 176.5
s23 129.5 69 176.5s105.333 70.5 178 70.5c67.333 0 123 -22 167 -66v58h70v-393c13.333 -36 20 -70.333 20 -103c0 -66.667 -25 -116.334 -75 -149.001s-110.667 -49 -182 -49zM294.001 80.001c36.667 0 69.334 7.83301 98.001 23.5s51 36.5 67 62.5v190
c-16 26 -38.333 46.833 -67 62.5s-61.334 23.5 -98.001 23.5c-51.333 0 -93.666 -17.167 -126.999 -51.5s-50 -77.5 -50 -129.5s16.667 -95.167 50 -129.5s75.666 -51.5 126.999 -51.5z" />
    <glyph glyph-name="h" unicode="h" horiz-adv-x="579" 
d="M79 0l-0.000976562 710h70v-279c36.667 51.333 91 77 163 77c58.667 0 105.834 -18.5 141.501 -55.5s53.5 -86.167 53.5 -147.5v-305h-70v300c0 42.667 -12.333 77 -37 103s-58.667 39 -102 39c-37.333 0 -69 -10 -95 -30s-44 -47.667 -54 -83v-329h-70z" />
    <glyph glyph-name="i" unicode="i" horiz-adv-x="228" 
d="M79 0v500h70v-500h-70zM149 619h-70c-13.333 11.333 -20 25.666 -20 42.999c0 15.333 5.33301 28.5 16 39.5s23.667 16.5 39 16.5s28.333 -5.5 39 -16.5s16 -24.167 16 -39.5c0 -17.333 -6.66699 -31.666 -20 -42.999z" />
    <glyph glyph-name="j" unicode="j" horiz-adv-x="236" 
d="M-20 -184v64h25c30.667 0 52 7.5 64 22.5s18 38.5 18 70.5v527h70v-541c0 -95.333 -48.667 -143 -146 -143h-31zM157 619h-70c-13.333 11.333 -20 25.666 -20 42.999c0 15.333 5.33301 28.5 16 39.5s23.667 16.5 39 16.5s28.333 -5.5 39 -16.5s16 -24.167 16 -39.5
c0 -17.333 -6.66699 -31.666 -20 -42.999z" />
    <glyph glyph-name="k" unicode="k" horiz-adv-x="502" 
d="M79 0v710h70v-441l239 231h93l-247 -237l274 -263h-96l-263 251v-251h-70z" />
    <glyph glyph-name="l" unicode="l" horiz-adv-x="228" 
d="M79 0v710h70v-710h-70z" />
    <glyph glyph-name="m" unicode="m" horiz-adv-x="879" 
d="M408 0v300c0 42 -11 76.167 -33 102.5s-53 39.5 -93 39.5c-64.667 0 -109 -35 -133 -105v-337h-70v500h70v-66c34.667 49.333 84 74 148 74c73.333 0 125.333 -30.333 156 -91c17.333 29.333 41 51.833 71 67.5s62.667 23.5 98 23.5c58 0 103.333 -18.167 136 -54.5
s49 -85.833 49 -148.5v-305h-70v300c0 42 -11 76.167 -33 102.5s-52.667 39.5 -92 39.5c-68 0 -113 -37.333 -135 -112c0.666992 -2.66699 1 -7 1 -13v-317h-70z" />
    <glyph glyph-name="n" unicode="n" horiz-adv-x="579" 
d="M79 0l-0.000976562 500h70v-69c36.667 51.333 91 77 163 77c58.667 0 105.834 -18.5 141.501 -55.5s53.5 -86.167 53.5 -147.5v-305h-70v300c0 42.667 -12.333 77 -37 103s-58.667 39 -102 39c-37.333 0 -69 -10 -95 -30s-44 -47.667 -54 -83v-329h-70z" />
    <glyph glyph-name="o" unicode="o" horiz-adv-x="606" 
d="M303 -8c-75.333 0 -137.333 24.833 -186 74.5s-73 110.834 -73 183.501s24.333 133.834 73 183.501s110.667 74.5 186 74.5s137.333 -24.833 186 -74.5s73 -110.834 73 -183.501s-24.333 -133.834 -73 -183.501s-110.667 -74.5 -186 -74.5zM303 58
c54.667 0 99.5 18.5 134.5 55.5s52.5 82.5 52.5 136.5s-17.5 99.5 -52.5 136.5s-79.833 55.5 -134.5 55.5c-54 0 -98.667 -18.5 -134 -55.5s-53 -82.5 -53 -136.5s17.667 -99.5 53 -136.5s80 -55.5 134 -55.5z" />
    <glyph glyph-name="p" unicode="p" horiz-adv-x="618" 
d="M79 500l70 0.00195312v-58c44 44 100.333 66 169 66c74 0 135.167 -24.833 183.5 -74.5s72.5 -110.834 72.5 -183.501s-24.167 -133.834 -72.5 -183.501s-109.5 -74.5 -183.5 -74.5c-68.667 0 -125 22 -169 66v-242h-70v684zM317 58.002c53.333 0 97.5 18.5 132.5 55.5
s52.5 82.5 52.5 136.5s-17.5 99.5 -52.5 136.5s-79.167 55.5 -132.5 55.5c-37.333 0 -70.666 -7.83301 -99.999 -23.5s-52 -36.5 -68 -62.5v-212c16 -26 38.667 -46.833 68 -62.5s62.666 -23.5 99.999 -23.5z" />
    <glyph glyph-name="q" unicode="q" horiz-adv-x="618" 
d="M539 500v-684.002h-70v242c-44 -44 -100.333 -66 -169 -66c-74 0 -135.167 24.833 -183.5 74.5s-72.5 110.834 -72.5 183.501s24.167 133.834 72.5 183.501s109.5 74.5 183.5 74.5c68.667 0 125 -22 169 -66v58h70zM301 57.998c37.333 0 70.5 7.83301 99.5 23.5
s51.833 36.5 68.5 62.5v212c-16.667 26 -39.5 46.833 -68.5 62.5s-62.167 23.5 -99.5 23.5c-53.333 0 -97.5 -18.5 -132.5 -55.5s-52.5 -82.5 -52.5 -136.5s17.5 -99.5 52.5 -136.5s79.167 -55.5 132.5 -55.5z" />
    <glyph glyph-name="r" unicode="r" horiz-adv-x="345" 
d="M79 0l0.00195312 500h70v-68c33.333 49.333 82 74 146 74c11.333 0 22.666 -1 33.999 -3v-73c-10.667 3.33301 -25.334 5 -44.001 5c-32 0 -60 -8 -84 -24s-41.333 -38.667 -52 -68v-343h-70z" />
    <glyph glyph-name="s" unicode="s" horiz-adv-x="415" 
d="M206 -8c-78.667 0 -136.667 34.333 -174 103l56 37c28 -51.333 68 -77 120 -77c28.667 0 52.5 6.83301 71.5 20.5s28.5 31.5 28.5 53.5c0 22.667 -7.16699 40.5 -21.5 53.5s-38.166 25.5 -71.499 37.5l-42 16c-77.333 28.667 -116 76.334 -116 143.001
c0 37.333 14.167 68.166 42.5 92.499s64.5 36.5 108.5 36.5c67.333 0 115.666 -28.333 144.999 -85l-56 -32c-17.333 36 -47 54 -89 54c-24 0 -43.667 -5.83301 -59 -17.5s-23 -27.5 -23 -47.5c0 -19.333 6 -35.5 18 -48.5s33 -25.167 63 -36.5l44 -16
c43.333 -16 75.333 -35.667 96 -59s31 -53 31 -89c0 -39.333 -15.667 -72.333 -47 -99s-73 -40 -125 -40z" />
    <glyph glyph-name="t" unicode="t" horiz-adv-x="350" 
d="M322 0l-64.999 0.000976562c-97.333 0 -146 47.667 -146 143v293h-87l-16 64h103v115l70 35v-150h150l-16 -64h-134v-279c0 -32.667 6.16699 -56.334 18.5 -71.001s34.166 -22 65.499 -22h57v-64z" />
    <glyph glyph-name="u" unicode="u" horiz-adv-x="578" 
d="M429 0l-0.00195312 68c-38 -50.667 -92 -76 -162 -76c-60 0 -107.5 18.333 -142.5 55s-52.5 86 -52.5 148v305h70v-300c0 -42.667 12.333 -77 37 -103s58.334 -39 101.001 -39c74.667 0 124.334 36.667 149.001 110v332h70v-500h-70z" />
    <glyph glyph-name="v" unicode="v" horiz-adv-x="517" 
d="M258 -8l-260 508h79l181 -369l182 369h79z" />
    <glyph glyph-name="w" unicode="w" horiz-adv-x="709" 
d="M176 -1l-164 501h73l124 -386l146 394l146 -394l123 386h73l-163 -501h-53l-126 341l-125 -341h-54z" />
    <glyph glyph-name="x" unicode="x" horiz-adv-x="509" 
d="M11 0l201 255l-190 245h81l152 -195l152 195h80l-190 -245l201 -255h-82l-161 206l-162 -206h-82z" />
    <glyph glyph-name="y" unicode="y" horiz-adv-x="507" 
d="M116 -184l102 218l-212 466h76l172 -389l174 389h76l-313 -684h-75z" />
    <glyph glyph-name="z" unicode="z" horiz-adv-x="484" 
d="M16 0l315 436h-282v64h407l-314 -436h304v-64h-430z" />
    <glyph glyph-name="braceleft" unicode="{" horiz-adv-x="303" 
d="M271 -135l-38.001 -0.00292969c-46 0 -78.833 11.5 -98.5 34.5s-29.5 58.833 -29.5 107.5v186c0 26.667 -4.16699 46.334 -12.5 59.001s-24.5 19 -48.5 19h-12v58h12c24 0 40.167 6.33301 48.5 19s12.5 32 12.5 58v187c0 48 9.66699 83.667 29 107s52 35 98 35h39v-59
h-31c-28 0 -46.833 -6.5 -56.5 -19.5s-14.5 -35.5 -14.5 -67.5v-177c0 -32.667 -3.66699 -57.167 -11 -73.5s-21.333 -29.166 -42 -38.499c20.667 -9.33301 34.667 -22.166 42 -38.499s11 -40.833 11 -73.5v-177c0 -32 4.83301 -54.5 14.5 -67.5s28.834 -19.5 57.501 -19.5
h30v-59z" />
    <glyph glyph-name="bar" unicode="|" horiz-adv-x="248" 
d="M92 -184v894h64v-894h-64z" />
    <glyph glyph-name="braceright" unicode="}" horiz-adv-x="302" 
d="M69 -135l-38.001 0.00292969v59h30c28.667 0 47.834 6.5 57.501 19.5s14.5 35.5 14.5 67.5v177c0 32.667 3.66699 57.167 11 73.5s21.333 29.166 42 38.499c-20.667 9.33301 -34.667 22.166 -42 38.499s-11 40.833 -11 73.5v177c0 32 -4.83301 54.5 -14.5 67.5
s-28.5 19.5 -56.5 19.5h-31v59h39c46 0 78.667 -11.667 98 -35s29 -59 29 -107v-187c0 -26 4.16699 -45.333 12.5 -58s24.5 -19 48.5 -19h12v-58h-12c-24 0 -40.167 -6.33301 -48.5 -19s-12.5 -32.334 -12.5 -59.001v-186c0 -48.667 -9.83301 -84.5 -29.5 -107.5
s-52.5 -34.5 -98.5 -34.5z" />
    <glyph glyph-name="asciitilde" unicode="~" horiz-adv-x="590" 
d="M87 211v70l108 73l198 -74l112 74v-67l-108 -75l-199 75z" />
    <glyph glyph-name="uni00A0" unicode="&#xa0;" horiz-adv-x="258" 
 />
    <glyph glyph-name="exclamdown" unicode="&#xa1;" horiz-adv-x="244" 
d="M121 508c18.667 0 34.5 -6.5 47.5 -19.5s19.5 -28.5 19.5 -46.5c0 -25.333 -11 -44.333 -33 -57h-66c-22 12 -33 31 -33 57c0 18 6.33301 33.5 19 46.5s28 19.5 46 19.5zM100 289h44l14 -204v-269h-71v269z" />
    <glyph glyph-name="cent" unicode="&#xa2;" horiz-adv-x="535" 
d="M268 -88l0.000976562 83.998c-65.333 8 -118.666 35.833 -159.999 83.5s-62 104.834 -62 171.501c0 66 20.667 123 62 171s94.666 76 159.999 84v82h68v-81c61.333 -7.33301 113.666 -32.666 156.999 -75.999l-45 -49c-40.667 40.667 -89 61 -145 61
c-53.333 0 -97.5 -18.5 -132.5 -55.5s-52.5 -82.5 -52.5 -136.5s17.5 -99.5 52.5 -136.5s79.167 -55.5 132.5 -55.5c56 0 104.333 20.333 145 61l45 -49c-44 -44 -96.333 -69.333 -157 -76v-83h-68z" />
    <glyph glyph-name="sterling" unicode="&#xa3;" horiz-adv-x="570" 
d="M53 0l-0.000976562 65h104v250h-104v61h104c-42.667 36 -64 82.667 -64 140c0 56 19.5 103.667 58.5 143s88.167 59 147.5 59c58.667 0 107.667 -19.833 147 -59.5s59 -88.167 59 -145.5h-71c0 39.333 -12.667 72.5 -38 99.5s-57.666 40.5 -96.999 40.5
c-40 0 -72.667 -12.833 -98 -38.5s-38 -58.5 -38 -98.5c0 -39.333 12.833 -72.5 38.5 -99.5s58.167 -40.5 97.5 -40.5h86v-61h-158v-250h307v-65h-481z" />
    <glyph glyph-name="currency" unicode="&#xa4;" horiz-adv-x="648" 
d="M562 348c0 -54 -15.333 -101.667 -46 -143l67 -66l-45 -45l-67 67c-44 -34 -93 -51 -147 -51s-103 17 -147 51l-67 -67l-45 45l67 67c-30.667 41.333 -46 88.666 -46 141.999c0 52.667 15.333 99.667 46 141l-67 68l45 44l67 -67c44 34 93 51 147 51s103 -17 147 -51
l67 67l45 -44l-67 -67c30.667 -41.333 46 -88.666 46 -141.999zM493 348c0 50 -15.833 91.167 -47.5 123.5s-72.167 48.5 -121.5 48.5s-89.833 -16.167 -121.5 -48.5s-47.5 -73.5 -47.5 -123.5s15.833 -91.333 47.5 -124s72.167 -49 121.5 -49s89.833 16.333 121.5 49
s47.5 74 47.5 124z" />
    <glyph glyph-name="yen" unicode="&#xa5;" horiz-adv-x="647" 
d="M128 278v61h135l-236 371h86l211 -337l211 337h86l-236 -371h134v-61h-158v-75h158v-61h-158v-142h-74v142h-159v61h159v75h-159z" />
    <glyph glyph-name="brokenbar" unicode="&#xa6;" horiz-adv-x="248" 
d="M92 327v383h64v-383h-64zM92 -184v384h64v-384h-64z" />
    <glyph glyph-name="section" unicode="&#xa7;" horiz-adv-x="456" 
d="M238 -200c-36 0 -68.168 8.83105 -96.501 26.498s-49.166 42.5 -62.499 74.5l51 28c24 -47.333 60 -71 108 -71c28 0 51.333 7.66699 70 23s28 37.333 28 66c-2.66699 52.667 -38.334 94.334 -107.001 125.001l-58 27c-36 16.667 -65 39 -87 67s-33 60.333 -33 97
c0 74.667 39 128 117 160c-73.333 40 -110 92.333 -110 157c0 40.667 14 73.667 42 99s64.667 38 110 38c74.667 0 125 -31.333 151 -94l-52 -26c-22.667 42 -55.667 63 -99 63c-26 0 -47 -7.33301 -63 -22s-24 -34 -24 -58c0 -26.667 9.33301 -49.167 28 -67.5
s44.667 -35.166 78 -50.499l57 -26c79.333 -36.667 119 -90 119 -160c0 -75.333 -38 -130.333 -114 -165c70.667 -38 107.334 -93 110.001 -165c0 -43.333 -15.333 -78.5 -46 -105.5s-69.667 -40.5 -117 -40.5zM209.999 149.998l12 -5c78.667 27.333 118 70 118 128
c0 45.333 -29.667 82 -89 110l-15 7c-80 -26 -120 -67.333 -120 -124c0 -49.333 31.333 -88 94 -116z" />
    <glyph glyph-name="dieresis" unicode="&#xa8;" 
d="M112 576c-15.333 0 -28.5 5.33301 -39.5 16s-16.5 24 -16.5 40c0 15.333 5.5 28.333 16.5 39s24.167 16 39.5 16s28.333 -5.33301 39 -16s16 -23.667 16 -39c0 -16 -5.16699 -29.333 -15.5 -40s-23.5 -16 -39.5 -16zM-110 576c-15.333 0 -28.5 5.33301 -39.5 16
s-16.5 24 -16.5 40c0 15.333 5.33301 28.333 16 39s24 16 40 16c15.333 0 28.333 -5.33301 39 -16s16 -23.667 16 -39c0 -16 -5.5 -29.333 -16.5 -40s-23.833 -16 -38.5 -16z" />
    <glyph glyph-name="copyright" unicode="&#xa9;" horiz-adv-x="820" 
d="M410 -9c-100 0 -185.5 35.5 -256.5 106.5s-106.5 156.5 -106.5 256.5s35.5 185.667 106.5 257s156.5 107 256.5 107s185.5 -35.667 256.5 -107s106.5 -157 106.5 -257s-35.5 -185.5 -106.5 -256.5s-156.5 -106.5 -256.5 -106.5zM410 44
c84.667 0 156.834 30.333 216.501 91s89.5 134 89.5 220s-29.833 159.333 -89.5 220s-131.834 91 -216.501 91c-84 0 -155.833 -30.333 -215.5 -91s-89.5 -134 -89.5 -220s29.833 -159.333 89.5 -220s131.5 -91 215.5 -91zM428 183c-48.667 0 -89.5 16.333 -122.5 49
s-49.5 73.667 -49.5 123c0 48.667 16.667 89.5 50 122.5s74 49.5 122 49.5s86 -15.667 114 -47l-33 -41c-22.667 22.667 -49.667 34 -81 34c-33.333 0 -60.666 -11.167 -81.999 -33.5s-32 -50.5 -32 -84.5s10.667 -62.167 32 -84.5s48.666 -33.5 81.999 -33.5
c30.667 0 57.667 11.667 81 35l33 -42c-27.333 -31.333 -65.333 -47 -114 -47z" />
    <glyph glyph-name="ordfeminine" unicode="&#xaa;" horiz-adv-x="421" 
d="M292 410v28c-26 -22 -57 -33 -93 -33c-44 0 -80.333 14.833 -109 44.5s-43 66.5 -43 110.5s14.333 80.833 43 110.5s65 44.5 109 44.5c34.667 0 65.667 -10.667 93 -32v27h57v-300h-57zM201 459c40.667 0 71 15.667 91 47v108c-20 31.333 -50.333 47 -91 47
c-28 0 -51 -9.66699 -69 -29s-27 -43.333 -27 -72s9 -52.667 27 -72s41 -29 69 -29z" />
    <glyph glyph-name="guillemotleft" unicode="&#xab;" horiz-adv-x="501" 
d="M396 31l-151 219l151 219l51 -35l-127 -184l127 -184zM197 31l-151 219l151 219l51 -35l-127 -184l127 -184z" />
    <glyph glyph-name="uni00AD" unicode="&#xad;" horiz-adv-x="375" 
d="M65 236v73h239v-73h-239z" />
    <glyph glyph-name="registered" unicode="&#xae;" horiz-adv-x="820" 
d="M410 -9c-100 0 -185.5 35.5 -256.5 106.5s-106.5 156.5 -106.5 256.5s35.5 185.667 106.5 257s156.5 107 256.5 107s185.5 -35.667 256.5 -107s106.5 -157 106.5 -257s-35.5 -185.5 -106.5 -256.5s-156.5 -106.5 -256.5 -106.5zM410 49c84 0 155.833 29.833 215.5 89.5
s89.5 131.5 89.5 215.5c0 84.667 -29.833 156.834 -89.5 216.501s-131.5 89.5 -215.5 89.5s-155.833 -29.833 -215.5 -89.5s-89.5 -131.834 -89.5 -216.501c0 -84 29.833 -155.833 89.5 -215.5s131.5 -89.5 215.5 -89.5zM309 186l-0.000976562 336.001h104
c32.667 0 59.334 -8.83301 80.001 -26.5s31 -41.5 31 -71.5c0 -20 -6 -38.833 -18 -56.5s-30.333 -29.834 -55 -36.501l109 -145h-68l-102 139h-25v-139h-56zM364.999 375.001h44c38 0 57 15.667 57 47c0 32.667 -19 49 -57 49h-44v-96z" />
    <glyph glyph-name="macron" unicode="&#xaf;" 
d="M-144 625v54h288v-54h-288z" />
    <glyph glyph-name="degree" unicode="&#xb0;" horiz-adv-x="336" 
d="M168 470c-34 0 -62.833 11.833 -86.5 35.5s-35.5 52.5 -35.5 86.5s11.833 62.833 35.5 86.5s52.5 35.5 86.5 35.5s62.833 -11.833 86.5 -35.5s35.5 -52.5 35.5 -86.5s-11.833 -62.833 -35.5 -86.5s-52.5 -35.5 -86.5 -35.5zM168 516c21.333 0 39.166 7.5 53.499 22.5
s21.5 32.833 21.5 53.5s-7.16699 38.334 -21.5 53.001s-32.166 22 -53.499 22c-20.667 0 -38.5 -7.33301 -53.5 -22s-22.5 -32.334 -22.5 -53.001s7.5 -38.5 22.5 -53.5s32.833 -22.5 53.5 -22.5z" />
    <glyph glyph-name="plusminus" unicode="&#xb1;" horiz-adv-x="590" 
d="M267 141v152h-191v58h191v149h58v-149h190v-58h-190v-152h-58zM76 0v58h439v-58h-439z" />
    <glyph glyph-name="twosuperior" unicode="&#xb2;" horiz-adv-x="347" 
d="M22 410l153.998 174.001c-39.333 0 -72 11.833 -98 35.5s-39 54.167 -39 91.5c0 36 13.333 66.333 40 91s58.667 37 96 37c36.667 0 68.167 -12.333 94.5 -37s39.5 -55 39.5 -91c0 -18.667 -3.66699 -36.334 -11 -53.001s-15.166 -30.5 -23.499 -41.5
s-23.166 -28.833 -44.499 -53.5l-89 -100h163v-53h-282zM174.998 633.001c21.333 0 39.333 7.5 54 22.5s22 33.5 22 55.5c0 21.333 -7.33301 39.333 -22 54s-32.667 22 -54 22s-39.5 -7.33301 -54.5 -22s-22.5 -32.667 -22.5 -54c0 -22 7.5 -40.5 22.5 -55.5
s33.167 -22.5 54.5 -22.5z" />
    <glyph glyph-name="threesuperior" unicode="&#xb3;" horiz-adv-x="328" 
d="M152 404c-26 0 -50.667 5.83398 -74 17.501s-41 28.167 -53 49.5l44 34c18.667 -32.667 46.667 -49 84 -49c24 0 43.667 8.5 59 25.5s23 38.167 23 63.5c0 24.667 -8.5 45.167 -25.5 61.5s-39.5 24.5 -67.5 24.5h-39l84 150h-144v52h231l-87 -156
c71.333 -16 107 -60 107 -132c0 -38.667 -13.167 -71.834 -39.5 -99.501s-60.5 -41.5 -102.5 -41.5z" />
    <glyph glyph-name="acute" unicode="&#xb4;" 
d="M104 710l-119 -160h-59l90 160h88z" />
    <glyph glyph-name="paragraph" unicode="&#xb6;" horiz-adv-x="632" 
d="M256 -184v444c-62 0 -115 22 -159 66s-66 97 -66 159s22 115 66 159s97 66 159 66h268v-894h-63v830h-140v-830h-65z" />
    <glyph glyph-name="periodcentered" unicode="&#xb7;" horiz-adv-x="263" 
d="M132 184c-18.667 0 -34.333 6.5 -47 19.5s-19 28.5 -19 46.5c0 18.667 6.5 34.5 19.5 47.5s28.5 19.5 46.5 19.5c17.333 0 32.5 -6.5 45.5 -19.5s19.5 -28.833 19.5 -47.5c0 -18 -6.33301 -33.5 -19 -46.5s-28 -19.5 -46 -19.5z" />
    <glyph glyph-name="cedilla" unicode="&#xb8;" 
d="M-86 -165l97 165h50l-67 -165h-80z" />
    <glyph glyph-name="onesuperior" unicode="&#xb9;" horiz-adv-x="183" 
d="M62 410v375l57 54v-429h-57z" />
    <glyph glyph-name="ordmasculine" unicode="&#xba;" horiz-adv-x="403" 
d="M202 405c-45.333 0 -82.666 14.833 -111.999 44.5s-44 66.5 -44 110.5s14.667 80.833 44 110.5s66.666 44.5 111.999 44.5s82.5 -14.833 111.5 -44.5s43.5 -66.5 43.5 -110.5s-14.5 -80.833 -43.5 -110.5s-66.167 -44.5 -111.5 -44.5zM202 459
c28.667 0 51.834 9.5 69.501 28.5s26.5 43.167 26.5 72.5s-8.83301 53.5 -26.5 72.5s-40.834 28.5 -69.501 28.5c-29.333 0 -53 -9.66699 -71 -29s-27 -43.333 -27 -72s9 -52.667 27 -72s41.667 -29 71 -29z" />
    <glyph glyph-name="guillemotright" unicode="&#xbb;" horiz-adv-x="500" 
d="M304 31l-51 35l127 184l-127 184l51 35l150 -219zM105 31l-51 35l127 184l-127 184l51 35l150 -219z" />
    <glyph glyph-name="onequarter" unicode="&#xbc;" horiz-adv-x="714" 
d="M62 287v375l57 54v-429h-57zM16 0l500 710h66l-500 -710h-66zM573 1v116h-237l294 313v-261h55v-52h-55v-116h-57zM452 169h121v130z" />
    <glyph glyph-name="onehalf" unicode="&#xbd;" horiz-adv-x="735" 
d="M62 287v375l57 54v-429h-57zM16 0l500 710h66l-500 -710h-66zM410 0l153.998 174.001c-39.333 0 -72 11.833 -98 35.5s-39 54.167 -39 91.5c0 36 13.333 66.333 40 91s58.667 37 96 37c36.667 0 68.167 -12.333 94.5 -37s39.5 -55 39.5 -91
c0 -18.667 -3.66699 -36.334 -11 -53.001s-15.166 -30.5 -23.499 -41.5s-23.166 -28.833 -44.499 -53.5l-89 -100h163v-53h-282zM562.998 223.001c21.333 0 39.333 7.5 54 22.5s22 33.5 22 55.5c0 21.333 -7.33301 39.333 -22 54s-32.667 22 -54 22
s-39.5 -7.33301 -54.5 -22s-22.5 -32.667 -22.5 -54c0 -22 7.5 -40.5 22.5 -55.5s33.167 -22.5 54.5 -22.5z" />
    <glyph glyph-name="threequarters" unicode="&#xbe;" horiz-adv-x="834" 
d="M151 281c-26 0 -50.667 5.83398 -74 17.501s-41 28.167 -53 49.5l44 34c18.667 -32.667 46.667 -49 84 -49c24 0 43.667 8.5 59 25.5s23 38.167 23 63.5c0 24.667 -8.5 45.167 -25.5 61.5s-39.5 24.5 -67.5 24.5h-39l84 150h-144v52h231l-87 -156
c71.333 -16 107 -60 107 -132c0 -38.667 -13.167 -71.834 -39.5 -99.501s-60.5 -41.5 -102.5 -41.5zM136 0.000976562l500 710h66l-500 -710h-66zM693 1.00098v116h-237l294 313v-261h55v-52h-55v-116h-57zM572 169.001h121v130z" />
    <glyph glyph-name="questiondown" unicode="&#xbf;" horiz-adv-x="491" 
d="M285 385h-66c-22 12.667 -33 31.667 -33 57c0 18 6.5 33.5 19.5 46.5s28.833 19.5 47.5 19.5c18 0 33.333 -6.5 46 -19.5s19 -28.5 19 -46.5c0 -26 -11 -45 -33 -57zM250 -194c-58 0 -107.5 20.167 -148.5 60.5s-61.5 89.833 -61.5 148.5c0 59.333 20.667 109 62 149
s92.666 60 153.999 60h56v-65h-57c-42.667 0 -77.667 -13.5 -105 -40.5s-41 -61.5 -41 -103.5c0 -41.333 13.333 -75.666 40 -102.999s60.334 -41 101.001 -41s74.167 13.667 100.5 41s39.5 61.666 39.5 102.999h70c0 -58.667 -20.5 -108.167 -61.5 -148.5
s-90.5 -60.5 -148.5 -60.5z" />
    <glyph glyph-name="Agrave" unicode="&#xc0;" horiz-adv-x="675" 
d="M-5 0l343 718l342 -718h-79l-94 201h-338l-94 -201h-80zM201 269h274l-137 290zM303 768l-112 145h88l84 -145h-60z" />
    <glyph glyph-name="Aacute" unicode="&#xc1;" horiz-adv-x="675" 
d="M338 718l-343 -718h80l94 201h338l94 -201h79zM475 269h-274l137 290zM481 913l-112 -145h-60l84 145h88z" />
    <glyph glyph-name="Acircumflex" unicode="&#xc2;" horiz-adv-x="675" 
d="M-5 0l343 718l342 -718h-79l-94 201h-338l-94 -201h-80zM201 269h274l-137 290zM196 768l-29 49l171 109l171 -109l-29 -49l-142 94z" />
    <glyph glyph-name="Atilde" unicode="&#xc3;" horiz-adv-x="675" 
d="M-5 0l343 718l342 -718h-79l-94 201h-338l-94 -201h-80zM201 269h274l-137 290zM168 789l2.99805 17c5.33301 28 17 50 35 66s38.667 24 62 24c20.667 0 45.5 -8.33301 74.5 -25s48.833 -25 59.5 -25c14.667 0 26 4 34 12s13.667 20.667 17 38h55l-3 -16
c-5.33301 -28 -16.833 -50 -34.5 -66s-38.5 -24 -62.5 -24c-20.667 0 -45.667 8.33301 -75 25s-49.666 25 -60.999 25c-25.333 0 -41.666 -17 -48.999 -51h-55z" />
    <glyph glyph-name="Adieresis" unicode="&#xc4;" horiz-adv-x="675" 
d="M-5 0l343 718l342 -718h-79l-94 201h-338l-94 -201h-80zM201 269h274l-137 290zM450 788c-15.333 0 -28.5 5.33301 -39.5 16s-16.5 24 -16.5 40c0 15.333 5.5 28.333 16.5 39s24.167 16 39.5 16s28.333 -5.33301 39 -16s16 -23.667 16 -39
c0 -16 -5.16699 -29.333 -15.5 -40s-23.5 -16 -39.5 -16zM228 788c-15.333 0 -28.5 5.33301 -39.5 16s-16.5 24 -16.5 40c0 15.333 5.33301 28.333 16 39s24 16 40 16c15.333 0 28.333 -5.33301 39 -16s16 -23.667 16 -39c0 -16 -5.5 -29.333 -16.5 -40
s-23.833 -16 -38.5 -16z" />
    <glyph glyph-name="Aring" unicode="&#xc5;" horiz-adv-x="675" 
d="M-5 0l343 718l342 -718h-79l-94 201h-338l-94 -201h-80zM201 269h274l-137 290zM338 752c-26 0 -48.167 8.83301 -66.5 26.5s-27.5 39.167 -27.5 64.5c0 26 9.16699 47.667 27.5 65s40.5 26 66.5 26s48.167 -8.66699 66.5 -26s27.5 -39 27.5 -65
c0 -25.333 -9.16699 -46.833 -27.5 -64.5s-40.5 -26.5 -66.5 -26.5zM338 792c14.667 0 26.834 4.66699 36.501 14s14.5 21.666 14.5 36.999s-4.83301 27.666 -14.5 36.999s-21.834 14 -36.501 14s-26.834 -4.66699 -36.501 -14s-14.5 -21.666 -14.5 -36.999
s4.83301 -27.666 14.5 -36.999s21.834 -14 36.501 -14z" />
    <glyph glyph-name="AE" unicode="&#xc6;" horiz-adv-x="1010" 
d="M83 0h-80l305 639l-34 71h397l35 -72h-322l114 -238h276l34 -72h-276l122 -256h321l35 -72h-401l-95 201h-336zM210 270h272l-136 289z" />
    <glyph glyph-name="Ccedilla" unicode="&#xc7;" horiz-adv-x="721" 
d="M410 -8c-102 0 -187.833 34.832 -257.5 104.499s-104.5 155.834 -104.5 258.501c0 102 35 188 105 258s155.667 105 257 105c58 0 112.167 -12.333 162.5 -37s89.5 -56 117.5 -94l-53 -46c-25.333 32.667 -57.666 58.667 -96.999 78s-82.666 29 -129.999 29
c-81.333 0 -149.333 -28.167 -204 -84.5s-82 -125.833 -82 -208.5s27.333 -152 82 -208s122.667 -84 204 -84c47.333 0 90.666 9.66699 129.999 29s71.666 45.333 96.999 78l53 -47c-28 -38 -67.167 -69.333 -117.5 -94s-104.5 -37 -162.5 -37zM311 -165.001l97 165h50
l-67 -165h-80z" />
    <glyph glyph-name="Egrave" unicode="&#xc8;" horiz-adv-x="553" 
d="M99 0v710h405v-71h-331v-239h271v-72h-271v-257h331v-71h-405zM275 768l-112 145h88l84 -145h-60z" />
    <glyph glyph-name="Eacute" unicode="&#xc9;" horiz-adv-x="553" 
d="M99 710v-710h405v71h-331v257h271v72h-271v239h331v71h-405zM452 913l-112 -145h-60l84 145h88z" />
    <glyph glyph-name="Ecircumflex" unicode="&#xca;" horiz-adv-x="553" 
d="M99 0v710h405v-71h-331v-239h271v-72h-271v-257h331v-71h-405zM167 768l-29 49l171 109l171 -109l-29 -49l-142 94z" />
    <glyph glyph-name="Edieresis" unicode="&#xcb;" horiz-adv-x="553" 
d="M99 0v710h405v-71h-331v-239h271v-72h-271v-257h331v-71h-405zM421 788c-15.333 0 -28.5 5.33301 -39.5 16s-16.5 24 -16.5 40c0 15.333 5.5 28.333 16.5 39s24.167 16 39.5 16s28.333 -5.33301 39 -16s16 -23.667 16 -39c0 -16 -5.33301 -29.333 -16 -40
s-23.667 -16 -39 -16zM199 788c-15.333 0 -28.5 5.33301 -39.5 16s-16.5 24 -16.5 40c0 15.333 5.33301 28.333 16 39s24 16 40 16c15.333 0 28.333 -5.33301 39 -16s16 -23.667 16 -39c0 -16 -5.5 -29.333 -16.5 -40s-23.833 -16 -38.5 -16z" />
    <glyph glyph-name="Igrave" unicode="&#xcc;" horiz-adv-x="272" 
d="M99 0v710h74v-710h-74zM101 768l-112 145h88l84 -145h-60z" />
    <glyph glyph-name="Iacute" unicode="&#xcd;" horiz-adv-x="272" 
d="M99 710v-710h74v710h-74zM279 913l-112 -145h-60l84 145h88z" />
    <glyph glyph-name="Icircumflex" unicode="&#xce;" horiz-adv-x="272" 
d="M99 0v710h74v-710h-74zM-6 768l-29 49l171 109l171 -109l-29 -49l-142 94z" />
    <glyph glyph-name="Idieresis" unicode="&#xcf;" horiz-adv-x="272" 
d="M99 0v710h74v-710h-74zM248 788c-15.333 0 -28.5 5.33301 -39.5 16s-16.5 24 -16.5 40c0 15.333 5.5 28.333 16.5 39s24.167 16 39.5 16s28.333 -5.33301 39 -16s16 -23.667 16 -39c0 -16 -5.16699 -29.333 -15.5 -40s-23.5 -16 -39.5 -16zM26 788
c-15.333 0 -28.5 5.33301 -39.5 16s-16.5 24 -16.5 40c0 15.333 5.33301 28.333 16 39s24 16 40 16c15.333 0 28.333 -5.33301 39 -16s16 -23.667 16 -39c0 -16 -5.5 -29.333 -16.5 -40s-23.833 -16 -38.5 -16z" />
    <glyph glyph-name="Eth" unicode="&#xd0;" horiz-adv-x="762" 
d="M126 0v710h208c110 0 200.833 -33.667 272.5 -101s107.5 -152 107.5 -254s-35.833 -186.667 -107.5 -254s-162.5 -101 -272.5 -101h-208zM200 69h134c90.667 0 164.167 26.833 220.5 80.5s84.5 122.167 84.5 205.5c0 82.667 -28.167 151 -84.5 205s-129.833 81 -220.5 81
h-134v-572zM6 328v61h333v-61h-333z" />
    <glyph glyph-name="Ntilde" unicode="&#xd1;" horiz-adv-x="788" 
d="M689 -8l-516 551v-543h-74v718l516 -551v543h74v-718zM222 789l2.99805 17c5.33301 28 17 50 35 66s38.667 24 62 24c20.667 0 45.5 -8.33301 74.5 -25s48.833 -25 59.5 -25c14.667 0 26 4 34 12s13.667 20.667 17 38h55l-3 -16c-5.33301 -28 -16.833 -50 -34.5 -66
s-38.5 -24 -62.5 -24c-20.667 0 -45.667 8.33301 -75 25s-49.666 25 -60.999 25c-25.333 0 -41.666 -17 -48.999 -51h-55z" />
    <glyph glyph-name="Ograve" unicode="&#xd2;" horiz-adv-x="822" 
d="M411 -8c-102 0 -188 34.833 -258 104.5s-105 155.834 -105 258.501s35 188.834 105 258.501s156 104.5 258 104.5s188 -34.833 258 -104.5s105 -155.834 105 -258.501s-35 -188.834 -105 -258.501s-156 -104.5 -258 -104.5zM411 64c81.333 0 149.333 28.002 204 84.002
s82 125 82 207s-27.333 151 -82 207s-122.667 84 -204 84c-82 0 -150.167 -27.833 -204.5 -83.5s-81.5 -124.834 -81.5 -207.501s27.167 -151.834 81.5 -207.501s122.5 -83.5 204.5 -83.5zM376 768.002l-112 145h88l84 -145h-60z" />
    <glyph glyph-name="Oacute" unicode="&#xd3;" horiz-adv-x="822" 
d="M411 -8c102 0 188 34.833 258 104.5s105 155.834 105 258.501s-35 188.834 -105 258.501s-156 104.5 -258 104.5s-188 -34.833 -258 -104.5s-105 -155.834 -105 -258.501s35 -188.834 105 -258.501s156 -104.5 258 -104.5zM411 64c-82 0 -150.167 27.8311 -204.5 83.498
s-81.5 124.834 -81.5 207.501s27.167 151.834 81.5 207.501s122.5 83.5 204.5 83.5c81.333 0 149.333 -28 204 -84s82 -125 82 -207s-27.333 -151 -82 -207s-122.667 -84 -204 -84zM553 912.998l-112 -145h-60l84 145h88z" />
    <glyph glyph-name="Ocircumflex" unicode="&#xd4;" horiz-adv-x="822" 
d="M411 -8c-102 0 -188 34.833 -258 104.5s-105 155.834 -105 258.501s35 188.834 105 258.501s156 104.5 258 104.5s188 -34.833 258 -104.5s105 -155.834 105 -258.501s-35 -188.834 -105 -258.501s-156 -104.5 -258 -104.5zM411 64c81.333 0 149.333 28.002 204 84.002
s82 125 82 207s-27.333 151 -82 207s-122.667 84 -204 84c-82 0 -150.167 -27.833 -204.5 -83.5s-81.5 -124.834 -81.5 -207.501s27.167 -151.834 81.5 -207.501s122.5 -83.5 204.5 -83.5zM268 768.002l-29 49l171 109l171 -109l-29 -49l-142 94z" />
    <glyph glyph-name="Otilde" unicode="&#xd5;" horiz-adv-x="822" 
d="M411 -8c-102 0 -188 34.833 -258 104.5s-105 155.834 -105 258.501s35 188.834 105 258.501s156 104.5 258 104.5s188 -34.833 258 -104.5s105 -155.834 105 -258.501s-35 -188.834 -105 -258.501s-156 -104.5 -258 -104.5zM411 64c81.333 0 149.333 28.002 204 84.002
s82 125 82 207s-27.333 151 -82 207s-122.667 84 -204 84c-82 0 -150.167 -27.833 -204.5 -83.5s-81.5 -124.834 -81.5 -207.501s27.167 -151.834 81.5 -207.501s122.5 -83.5 204.5 -83.5zM240 788.002l2.99805 17c5.33301 28 17 50 35 66s38.667 24 62 24
c20.667 0 45.5 -8.33301 74.5 -25s48.833 -25 59.5 -25c14.667 0 26 4 34 12s13.667 20.667 17 38h55l-3 -16c-5.33301 -28 -16.833 -50 -34.5 -66s-38.5 -24 -62.5 -24c-20.667 0 -45.667 8.33301 -75 25s-49.666 25 -60.999 25c-25.333 0 -41.666 -17 -48.999 -51h-55z
" />
    <glyph glyph-name="Odieresis" unicode="&#xd6;" horiz-adv-x="822" 
d="M411 -8c-102 0 -188 34.833 -258 104.5s-105 155.834 -105 258.501s35 188.834 105 258.501s156 104.5 258 104.5s188 -34.833 258 -104.5s105 -155.834 105 -258.501s-35 -188.834 -105 -258.501s-156 -104.5 -258 -104.5zM411 64c81.333 0 149.333 28.002 204 84.002
s82 125 82 207s-27.333 151 -82 207s-122.667 84 -204 84c-82 0 -150.167 -27.833 -204.5 -83.5s-81.5 -124.834 -81.5 -207.501s27.167 -151.834 81.5 -207.501s122.5 -83.5 204.5 -83.5zM522 787.002c-15.333 0 -28.5 5.33301 -39.5 16s-16.5 24 -16.5 40
c0 15.333 5.5 28.333 16.5 39s24.167 16 39.5 16s28.333 -5.33301 39 -16s16 -23.667 16 -39c0 -16.667 -5.16699 -30.167 -15.5 -40.5s-23.5 -15.5 -39.5 -15.5zM300 787.002c-15.333 0 -28.5 5.33301 -39.5 16s-16.5 24 -16.5 40c0 15.333 5.33301 28.333 16 39
s24 16 40 16c15.333 0 28.333 -5.33301 39 -16s16 -23.667 16 -39c0 -16 -5.5 -29.333 -16.5 -40s-23.833 -16 -38.5 -16z" />
    <glyph glyph-name="multiply" unicode="&#xd7;" horiz-adv-x="590" 
d="M148 80l-41 40l147 147l-150 150l42 41l149 -150l146 146l41 -40l-146 -146l149 -150l-41 -40l-149 149z" />
    <glyph glyph-name="Oslash" unicode="&#xd8;" horiz-adv-x="822" 
d="M127 -57l-46.998 38l82 106l-9 9c-70 70 -105 156.333 -105 259s35 188.834 105 258.501s156 104.5 258 104.5c51.333 0 98.666 -9.33301 141.999 -28c17.333 -7.33301 35.333 -17 54 -29l83 107l48 -38l-82 -105l13 -12c70 -68.667 105 -154.667 105 -258
c0 -102.667 -35 -188.834 -105 -258.501s-156 -104.5 -258 -104.5c-51.333 0 -99 9 -143 27c-18.667 8 -38.334 18 -59.001 30zM411.002 64c81.333 0 149.333 28 204 84s82 125 82 207s-27.333 151 -82 207l-5 4l-355 -458c10.667 -6.66699 24.667 -14 42 -22
c34 -14.667 72 -22 114 -22zM524.002 623c-36 15.333 -73.667 23.002 -113 23.002c-82 0 -150.167 -27.833 -204.5 -83.5s-81.5 -124.834 -81.5 -207.501s27 -151.667 81 -207l2 -2l355 458c-17.333 9.33301 -30.333 15.666 -39 18.999z" />
    <glyph glyph-name="Ugrave" unicode="&#xd9;" horiz-adv-x="736" 
d="M368 -8c-84 0 -151.331 24.5 -201.998 73.5s-76 116.5 -76 202.5v442h74v-445c0 -65.333 18.167 -115.333 54.5 -150s86.166 -52 149.499 -52s113.166 17.333 149.499 52s54.5 84.667 54.5 150v445h74v-442c0 -86 -25.333 -153.5 -76 -202.5s-118 -73.5 -202 -73.5z
M332.002 768l-112 145h88l84 -145h-60z" />
    <glyph glyph-name="Uacute" unicode="&#xda;" horiz-adv-x="736" 
d="M368 -8c84 0 151.331 24.5 201.998 73.5s76 116.5 76 202.5v442h-74v-445c0 -65.333 -18.167 -115.333 -54.5 -150s-86.166 -52 -149.499 -52s-113.166 17.333 -149.499 52s-54.5 84.667 -54.5 150v445h-74v-442c0 -86 25.333 -153.5 76 -202.5s118 -73.5 202 -73.5z
M508.998 913l-112 -145h-60l84 145h88z" />
    <glyph glyph-name="Ucircumflex" unicode="&#xdb;" horiz-adv-x="736" 
d="M368 -8c-84 0 -151.331 24.5 -201.998 73.5s-76 116.5 -76 202.5v442h74v-445c0 -65.333 18.167 -115.333 54.5 -150s86.166 -52 149.499 -52s113.166 17.333 149.499 52s54.5 84.667 54.5 150v445h74v-442c0 -86 -25.333 -153.5 -76 -202.5s-118 -73.5 -202 -73.5z
M224.002 768l-29 49l171 109l171 -109l-29 -49l-142 94z" />
    <glyph glyph-name="Udieresis" unicode="&#xdc;" horiz-adv-x="736" 
d="M368 -8c-84 0 -151.331 24.5 -201.998 73.5s-76 116.5 -76 202.5v442h74v-445c0 -65.333 18.167 -115.333 54.5 -150s86.166 -52 149.499 -52s113.166 17.333 149.499 52s54.5 84.667 54.5 150v445h74v-442c0 -86 -25.333 -153.5 -76 -202.5s-118 -73.5 -202 -73.5z
M478.002 788c-15.333 0 -28.5 5.33301 -39.5 16s-16.5 24 -16.5 40c0 15.333 5.5 28.333 16.5 39s24.167 16 39.5 16s28.333 -5.33301 39 -16s16 -23.667 16 -39c0 -16 -5.16699 -29.333 -15.5 -40s-23.5 -16 -39.5 -16zM256.002 788c-15.333 0 -28.5 5.33301 -39.5 16
s-16.5 24 -16.5 40c0 15.333 5.33301 28.333 16 39s24 16 40 16c15.333 0 28.333 -5.33301 39 -16s16 -23.667 16 -39c0 -16 -5.5 -29.333 -16.5 -40s-23.833 -16 -38.5 -16z" />
    <glyph glyph-name="Yacute" unicode="&#xdd;" horiz-adv-x="616" 
d="M271 301v-301h74v301l260 409h-86l-211 -337l-211 337h-86zM452 913l-112 -145h-60l84 145h88z" />
    <glyph glyph-name="Thorn" unicode="&#xde;" horiz-adv-x="578" 
d="M99 0v710h74v-141h120c75.333 0 134.666 -19.333 177.999 -58s65 -89.667 65 -153s-21.667 -114.333 -65 -153s-102.666 -58 -177.999 -58h-120v-147h-74zM293 500h-120v-284h120c54.667 0 96.334 12.5 125.001 37.5s43 59.833 43 104.5s-14.333 79.5 -43 104.5
s-70.334 37.5 -125.001 37.5z" />
    <glyph glyph-name="germandbls" unicode="&#xdf;" horiz-adv-x="537" 
d="M432 53c0 50 -17.501 91.002 -52.501 123.002s-80.5 48 -136.5 48v55l110 157h-204v-436h-70v567c0 95.333 48.667 143 146 143h36v-64h-28c-31.333 0 -53.166 -7.33301 -65.499 -22s-18.5 -38.334 -18.5 -71.001v-53h327l-155 -224c57.333 -14 101.833 -41 133.5 -81
s47.5 -87.333 47.5 -142c0 -68.667 -24.333 -125.334 -73 -170.001s-110.667 -67 -186 -67v67c56 0 101.5 15.833 136.5 47.5s52.5 72.5 52.5 122.5z" />
    <glyph glyph-name="agrave" unicode="&#xe0;" horiz-adv-x="618" 
d="M469 0v57.998c-44 -44 -100.333 -66 -169 -66c-74 0 -135.167 24.833 -183.5 74.5s-72.5 110.834 -72.5 183.501s24.167 133.834 72.5 183.501s109.5 74.5 183.5 74.5c68.667 0 125 -22 169 -66v58h70v-500h-70zM301 57.998c74.667 0 130.667 28.667 168 86v212
c-16.667 26 -39.5 46.833 -68.5 62.5s-62.167 23.5 -99.5 23.5c-53.333 0 -97.5 -18.5 -132.5 -55.5s-52.5 -82.5 -52.5 -136.5s17.5 -99.5 52.5 -136.5s79.167 -55.5 132.5 -55.5zM293 549.998l-119 160h88l90 -160h-59z" />
    <glyph glyph-name="aacute" unicode="&#xe1;" horiz-adv-x="618" 
d="M469 58v-57.998h70v500h-70v-58c-44 44 -100.333 66 -169 66c-74 0 -135.167 -24.833 -183.5 -74.5s-72.5 -110.834 -72.5 -183.501s24.167 -133.834 72.5 -183.501s109.5 -74.5 183.5 -74.5c68.667 0 125 22 169 66zM301 58.002c-53.333 0 -97.5 18.5 -132.5 55.5
s-52.5 82.5 -52.5 136.5s17.5 99.5 52.5 136.5s79.167 55.5 132.5 55.5c37.333 0 70.5 -7.83301 99.5 -23.5s51.833 -36.5 68.5 -62.5v-212c-37.333 -57.333 -93.333 -86 -168 -86zM457 710.002l-119 -160h-59l90 160h88z" />
    <glyph glyph-name="acircumflex" unicode="&#xe2;" horiz-adv-x="618" 
d="M469 0v57.998c-44 -44 -100.333 -66 -169 -66c-74 0 -135.167 24.833 -183.5 74.5s-72.5 110.834 -72.5 183.501s24.167 133.834 72.5 183.501s109.5 74.5 183.5 74.5c68.667 0 125 -22 169 -66v58h70v-500h-70zM301 57.998c74.667 0 130.667 28.667 168 86v212
c-16.667 26 -39.5 46.833 -68.5 62.5s-62.167 23.5 -99.5 23.5c-53.333 0 -97.5 -18.5 -132.5 -55.5s-52.5 -82.5 -52.5 -136.5s17.5 -99.5 52.5 -136.5s79.167 -55.5 132.5 -55.5zM313 717.998l158 -116l-31 -45l-127 94l-127 -94l-31 45z" />
    <glyph glyph-name="atilde" unicode="&#xe3;" horiz-adv-x="618" 
d="M469 0v57.998c-44 -44 -100.333 -66 -169 -66c-74 0 -135.167 24.833 -183.5 74.5s-72.5 110.834 -72.5 183.501s24.167 133.834 72.5 183.501s109.5 74.5 183.5 74.5c68.667 0 125 -22 169 -66v58h70v-500h-70zM301 57.998c74.667 0 130.667 28.667 168 86v212
c-16.667 26 -39.5 46.833 -68.5 62.5s-62.167 23.5 -99.5 23.5c-53.333 0 -97.5 -18.5 -132.5 -55.5s-52.5 -82.5 -52.5 -136.5s17.5 -99.5 52.5 -136.5s79.167 -55.5 132.5 -55.5zM144 569.998l2.99805 17c5.33301 28 17 50 35 66s38.667 24 62 24
c20.667 0 45.5 -8.33301 74.5 -25s48.833 -25 59.5 -25c14.667 0 26 4 34 12s13.667 20.667 17 38h55l-3 -16c-5.33301 -28 -16.833 -50 -34.5 -66s-38.5 -24 -62.5 -24c-20.667 0 -45.667 8.33301 -75 25s-49.666 25 -60.999 25c-25.333 0 -41.666 -17 -48.999 -51h-55z
" />
    <glyph glyph-name="adieresis" unicode="&#xe4;" horiz-adv-x="618" 
d="M469 0v57.998c-44 -44 -100.333 -66 -169 -66c-74 0 -135.167 24.833 -183.5 74.5s-72.5 110.834 -72.5 183.501s24.167 133.834 72.5 183.501s109.5 74.5 183.5 74.5c68.667 0 125 -22 169 -66v58h70v-500h-70zM301 57.998c74.667 0 130.667 28.667 168 86v212
c-16.667 26 -39.5 46.833 -68.5 62.5s-62.167 23.5 -99.5 23.5c-53.333 0 -97.5 -18.5 -132.5 -55.5s-52.5 -82.5 -52.5 -136.5s17.5 -99.5 52.5 -136.5s79.167 -55.5 132.5 -55.5zM425 575.998c-15.333 0 -28.5 5.33301 -39.5 16s-16.5 24 -16.5 40
c0 15.333 5.5 28.333 16.5 39s24.167 16 39.5 16s28.333 -5.33301 39 -16s16 -23.667 16 -39c0 -16 -5.33301 -29.333 -16 -40s-23.667 -16 -39 -16zM203 575.998c-15.333 0 -28.5 5.33301 -39.5 16s-16.5 24 -16.5 40c0 15.333 5.33301 28.333 16 39s24 16 40 16
c15.333 0 28.333 -5.33301 39 -16s16 -23.667 16 -39c0 -16 -5.5 -29.333 -16.5 -40s-23.833 -16 -38.5 -16z" />
    <glyph glyph-name="aring" unicode="&#xe5;" horiz-adv-x="618" 
d="M469 0v57.998c-44 -44 -100.333 -66 -169 -66c-74 0 -135.167 24.833 -183.5 74.5s-72.5 110.834 -72.5 183.501s24.167 133.834 72.5 183.501s109.5 74.5 183.5 74.5c68.667 0 125 -22 169 -66v58h70v-500h-70zM301 57.998c74.667 0 130.667 28.667 168 86v212
c-16.667 26 -39.5 46.833 -68.5 62.5s-62.167 23.5 -99.5 23.5c-53.333 0 -97.5 -18.5 -132.5 -55.5s-52.5 -82.5 -52.5 -136.5s17.5 -99.5 52.5 -136.5s79.167 -55.5 132.5 -55.5zM313 571.998c-26 0 -48.167 8.83301 -66.5 26.5s-27.5 39.167 -27.5 64.5
c0 26 9.16699 47.667 27.5 65s40.5 26 66.5 26s48.167 -8.66699 66.5 -26s27.5 -39 27.5 -65c0 -25.333 -9.16699 -46.833 -27.5 -64.5s-40.5 -26.5 -66.5 -26.5zM313 611.998c14.667 0 26.834 4.66699 36.501 14s14.5 21.666 14.5 36.999s-4.83301 27.666 -14.5 36.999
s-21.834 14 -36.501 14s-26.834 -4.66699 -36.501 -14s-14.5 -21.666 -14.5 -36.999s4.83301 -27.666 14.5 -36.999s21.834 -14 36.501 -14z" />
    <glyph glyph-name="ae" unicode="&#xe6;" horiz-adv-x="934" 
d="M816 121l46.001 -49.001c-52 -53.333 -118.667 -80 -200 -80c-90 0 -160 35 -210 105c-55.333 -70 -128.333 -105 -219 -105c-60 0 -107.833 14.833 -143.5 44.5s-53.5 69.834 -53.5 120.501c0 48 18.667 87.167 56 117.5s85.666 45.5 144.999 45.5
c66.667 0 122.334 -14.667 167.001 -44v36c0 46 -14 79.167 -42 99.5s-64 30.5 -108 30.5c-59.333 0 -109.333 -18.667 -150 -56l-34 57c52 43.333 113.667 65 185 65c43.333 0 82.666 -8.83301 117.999 -26.5s60.333 -46.5 75 -86.5c22.667 36.667 52.5 64.667 89.5 84
s76.167 29 117.5 29c70 0 127.5 -23.833 172.5 -71.5s68.167 -114.5 69.5 -200.5h-420c4 -53.333 23.5 -96.333 58.5 -129s77.167 -49 126.5 -49c60.667 0 112 21 154 63zM651.001 442.999c-39.333 0 -75.333 -12.832 -108 -38.499s-53.667 -61.167 -63 -106.5h338
c-6 46.667 -24 82.667 -54 108s-67.667 37.666 -113 36.999zM236.001 58c38.667 0 72.999 7.99902 102.999 23.999s53.667 37.667 71 65c-4 6.66699 -6 27.334 -6 62.001c-41.333 34 -95 51 -161 51c-39.333 0 -71.666 -9 -96.999 -27s-38 -43.333 -38 -76
c0 -32 12 -56.5 36 -73.5s54.667 -25.5 92 -25.5z" />
    <glyph glyph-name="ccedilla" unicode="&#xe7;" horiz-adv-x="521" 
d="M301 -8c-74 0 -135.333 24.8311 -184 74.498s-73 110.834 -73 183.501s24.333 133.834 73 183.501s110 74.5 184 74.5c74.667 0 138 -26 190 -78l-45 -49c-40.667 40.667 -89 61 -145 61c-53.333 0 -97.5 -18.5 -132.5 -55.5s-52.5 -82.5 -52.5 -136.5
s17.5 -99.5 52.5 -136.5s79.167 -55.5 132.5 -55.5c56 0 104.333 20.333 145 61l45 -49c-52 -52 -115.333 -78 -190 -78zM184 -165.002l97 165h50l-67 -165h-80z" />
    <glyph glyph-name="egrave" unicode="&#xe8;" horiz-adv-x="573" 
d="M301 -8c-74 0 -135.333 24.832 -184 74.499s-73 110.834 -73 183.501c0 72 24.167 133 72.5 183s107.5 75 177.5 75c73.333 0 132 -25.167 176 -75.5s66 -115.833 66 -196.5h-421c4 -52.667 23.5 -95.5 58.5 -128.5s77.5 -49.5 127.5 -49.5c61.333 0 113 21 155 63
l45 -49c-52 -53.333 -118.667 -80 -200 -80zM290 442.999c-40 0 -76 -12.666 -108 -37.999s-52.667 -61 -62 -107h337c-6 46.667 -24 82.667 -54 108s-67.667 37.666 -113 36.999zM275 550l-119 160h88l90 -160h-59z" />
    <glyph glyph-name="eacute" unicode="&#xe9;" horiz-adv-x="573" 
d="M301 -8c81.333 0 148 26.668 200 80.001l-45 49c-42 -42 -93.667 -63 -155 -63c-50 0 -92.5 16.5 -127.5 49.5s-54.5 75.833 -58.5 128.5h421c0 80.667 -22 146.167 -66 196.5s-102.667 75.5 -176 75.5c-70 0 -129.167 -25 -177.5 -75s-72.5 -111 -72.5 -183
c0 -72.667 24.333 -133.834 73 -183.501s110 -74.5 184 -74.5zM290 443.001c45.333 0.666992 83 -11.667 113 -37s48 -61.333 54 -108h-337c9.33301 46 30 81.667 62 107s68 38 108 38zM439 710l-119 -160h-59l90 160h88z" />
    <glyph glyph-name="ecircumflex" unicode="&#xea;" horiz-adv-x="573" 
d="M301 -8c-74 0 -135.333 24.832 -184 74.499s-73 110.834 -73 183.501c0 72 24.167 133 72.5 183s107.5 75 177.5 75c73.333 0 132 -25.167 176 -75.5s66 -115.833 66 -196.5h-421c4 -52.667 23.5 -95.5 58.5 -128.5s77.5 -49.5 127.5 -49.5c61.333 0 113 21 155 63
l45 -49c-52 -53.333 -118.667 -80 -200 -80zM290 442.999c-40 0 -76 -12.666 -108 -37.999s-52.667 -61 -62 -107h337c-6 46.667 -24 82.667 -54 108s-67.667 37.666 -113 36.999zM295 718l158 -116l-31 -45l-127 94l-127 -94l-31 45z" />
    <glyph glyph-name="edieresis" unicode="&#xeb;" horiz-adv-x="573" 
d="M301 -8c-74 0 -135.333 24.832 -184 74.499s-73 110.834 -73 183.501c0 72 24.167 133 72.5 183s107.5 75 177.5 75c73.333 0 132 -25.167 176 -75.5s66 -115.833 66 -196.5h-421c4 -52.667 23.5 -95.5 58.5 -128.5s77.5 -49.5 127.5 -49.5c61.333 0 113 21 155 63
l45 -49c-52 -53.333 -118.667 -80 -200 -80zM290 442.999c-40 0 -76 -12.666 -108 -37.999s-52.667 -61 -62 -107h337c-6 46.667 -24 82.667 -54 108s-67.667 37.666 -113 36.999zM407 576c-15.333 0 -28.5 5.33301 -39.5 16s-16.5 24 -16.5 40c0 15.333 5.5 28.333 16.5 39
s24.167 16 39.5 16s28.333 -5.33301 39 -16s16 -23.667 16 -39c0 -16 -5.33301 -29.333 -16 -40s-23.667 -16 -39 -16zM185 576c-15.333 0 -28.5 5.33301 -39.5 16s-16.5 24 -16.5 40c0 15.333 5.33301 28.333 16 39s24 16 40 16c15.333 0 28.333 -5.33301 39 -16
s16 -23.667 16 -39c0 -16 -5.5 -29.333 -16.5 -40s-23.833 -16 -38.5 -16z" />
    <glyph glyph-name="igrave" unicode="&#xec;" horiz-adv-x="228" 
d="M79 0v500h70v-500h-70zM94 550l-119 160h88l90 -160h-59z" />
    <glyph glyph-name="iacute" unicode="&#xed;" horiz-adv-x="228" 
d="M79 500v-500h70v500h-70zM258 710l-119 -160h-59l90 160h88z" />
    <glyph glyph-name="icircumflex" unicode="&#xee;" horiz-adv-x="228" 
d="M79 0v500h70v-500h-70zM114 718l158 -116l-31 -45l-127 94l-127 -94l-31 45z" />
    <glyph glyph-name="idieresis" unicode="&#xef;" horiz-adv-x="228" 
d="M79 0v500h70v-500h-70zM8 576c-15.333 0 -28.5 5.33301 -39.5 16s-16.5 24 -16.5 40c0 15.333 5.5 28.333 16.5 39s24.167 16 39.5 16s28.5 -5.33301 39.5 -16s16.5 -23.667 16.5 -39c0 -16 -5.5 -29.333 -16.5 -40s-24.167 -16 -39.5 -16zM220 576
c-15.333 0 -28.5 5.33301 -39.5 16s-16.5 24 -16.5 40c0 15.333 5.5 28.333 16.5 39s24.167 16 39.5 16s28.5 -5.33301 39.5 -16s16.5 -23.667 16.5 -39c0 -16 -5.5 -29.333 -16.5 -40s-24.167 -16 -39.5 -16z" />
    <glyph glyph-name="eth" unicode="&#xf0;" horiz-adv-x="605" 
d="M183 574v53.999h96l-57 82h77l57 -82h128v-54h-90l115 -166c34.667 -50 52 -102.667 52 -158c0 -71.333 -24.833 -132.166 -74.5 -182.499s-111.167 -75.5 -184.5 -75.5c-74.667 0 -136.5 25 -185.5 75s-73.5 111 -73.5 183c0 70.667 24 131 72 181
s108.333 75.667 181 77c22.667 0 47.667 -4.66699 75 -14l-55 80h-133zM302 56.999c55.333 0 100.5 18.5 135.5 55.5s52.5 82.833 52.5 137.5s-17.5 100.5 -52.5 137.5s-80.167 55.5 -135.5 55.5c-54.667 0 -99.667 -18.667 -135 -56s-53 -83 -53 -137
s17.667 -99.667 53 -137s80.333 -56 135 -56z" />
    <glyph glyph-name="ntilde" unicode="&#xf1;" horiz-adv-x="579" 
d="M79 0l-0.000976562 500h70v-69c36.667 51.333 91 77 163 77c58.667 0 105.834 -18.5 141.501 -55.5s53.5 -86.167 53.5 -147.5v-305h-70v300c0 42.667 -12.333 77 -37 103s-58.667 39 -102 39c-37.333 0 -69 -10 -95 -30s-44 -47.667 -54 -83v-329h-70zM137.999 570
l2.99805 17c5.33301 28 17 50 35 66s38.667 24 62 24c20.667 0 45.5 -8.33301 74.5 -25s48.833 -25 59.5 -25c14.667 0 26 4 34 12s13.667 20.667 17 38h55l-3 -16c-5.33301 -28 -16.833 -50 -34.5 -66s-38.5 -24 -62.5 -24c-20.667 0 -45.667 8.33301 -75 25
s-49.666 25 -60.999 25c-25.333 0 -41.666 -17 -48.999 -51h-55z" />
    <glyph glyph-name="ograve" unicode="&#xf2;" horiz-adv-x="606" 
d="M303 -8c-75.333 0 -137.333 24.833 -186 74.5s-73 110.834 -73 183.501s24.333 133.834 73 183.501s110.667 74.5 186 74.5s137.333 -24.833 186 -74.5s73 -110.834 73 -183.501s-24.333 -133.834 -73 -183.501s-110.667 -74.5 -186 -74.5zM303 58
c54.667 0 99.5 18.5 134.5 55.5s52.5 82.5 52.5 136.5s-17.5 99.5 -52.5 136.5s-79.833 55.5 -134.5 55.5c-54 0 -98.667 -18.5 -134 -55.5s-53 -82.5 -53 -136.5s17.667 -99.5 53 -136.5s80 -55.5 134 -55.5zM284 550l-119 160h88l90 -160h-59z" />
    <glyph glyph-name="oacute" unicode="&#xf3;" horiz-adv-x="606" 
d="M303 -8c75.333 0 137.333 24.833 186 74.5s73 110.834 73 183.501s-24.333 133.834 -73 183.501s-110.667 74.5 -186 74.5s-137.333 -24.833 -186 -74.5s-73 -110.834 -73 -183.501s24.333 -133.834 73 -183.501s110.667 -74.5 186 -74.5zM303 58
c-54 0 -98.667 18.5 -134 55.5s-53 82.5 -53 136.5s17.667 99.5 53 136.5s80 55.5 134 55.5c54.667 0 99.5 -18.5 134.5 -55.5s52.5 -82.5 52.5 -136.5s-17.5 -99.5 -52.5 -136.5s-79.833 -55.5 -134.5 -55.5zM448 710l-119 -160h-59l90 160h88z" />
    <glyph glyph-name="ocircumflex" unicode="&#xf4;" horiz-adv-x="606" 
d="M303 -8c-75.333 0 -137.333 24.833 -186 74.5s-73 110.834 -73 183.501s24.333 133.834 73 183.501s110.667 74.5 186 74.5s137.333 -24.833 186 -74.5s73 -110.834 73 -183.501s-24.333 -133.834 -73 -183.501s-110.667 -74.5 -186 -74.5zM303 58
c54.667 0 99.5 18.5 134.5 55.5s52.5 82.5 52.5 136.5s-17.5 99.5 -52.5 136.5s-79.833 55.5 -134.5 55.5c-54 0 -98.667 -18.5 -134 -55.5s-53 -82.5 -53 -136.5s17.667 -99.5 53 -136.5s80 -55.5 134 -55.5zM303 718l158 -116l-31 -45l-127 94l-127 -94l-31 45z" />
    <glyph glyph-name="otilde" unicode="&#xf5;" horiz-adv-x="606" 
d="M303 -8c-75.333 0 -137.333 24.833 -186 74.5s-73 110.834 -73 183.501s24.333 133.834 73 183.501s110.667 74.5 186 74.5s137.333 -24.833 186 -74.5s73 -110.834 73 -183.501s-24.333 -133.834 -73 -183.501s-110.667 -74.5 -186 -74.5zM303 58
c54.667 0 99.5 18.5 134.5 55.5s52.5 82.5 52.5 136.5s-17.5 99.5 -52.5 136.5s-79.833 55.5 -134.5 55.5c-54 0 -98.667 -18.5 -134 -55.5s-53 -82.5 -53 -136.5s17.667 -99.5 53 -136.5s80 -55.5 134 -55.5zM134 570l2.99805 17c5.33301 28 17 50 35 66s38.667 24 62 24
c20.667 0 45.5 -8.33301 74.5 -25s48.833 -25 59.5 -25c14.667 0 26 4 34 12s13.667 20.667 17 38h55l-3 -16c-5.33301 -28 -16.833 -50 -34.5 -66s-38.5 -24 -62.5 -24c-20.667 0 -45.667 8.33301 -75 25s-49.666 25 -60.999 25c-25.333 0 -41.666 -17 -48.999 -51h-55z
" />
    <glyph glyph-name="odieresis" unicode="&#xf6;" horiz-adv-x="606" 
d="M303 -8c-75.333 0 -137.333 24.833 -186 74.5s-73 110.834 -73 183.501s24.333 133.834 73 183.501s110.667 74.5 186 74.5s137.333 -24.833 186 -74.5s73 -110.834 73 -183.501s-24.333 -133.834 -73 -183.501s-110.667 -74.5 -186 -74.5zM303 58
c54.667 0 99.5 18.5 134.5 55.5s52.5 82.5 52.5 136.5s-17.5 99.5 -52.5 136.5s-79.833 55.5 -134.5 55.5c-54 0 -98.667 -18.5 -134 -55.5s-53 -82.5 -53 -136.5s17.667 -99.5 53 -136.5s80 -55.5 134 -55.5zM415 576c-15.333 0 -28.5 5.33301 -39.5 16s-16.5 24 -16.5 40
c0 15.333 5.5 28.333 16.5 39s24.167 16 39.5 16s28.333 -5.33301 39 -16s16 -23.667 16 -39c0 -16 -5.33301 -29.333 -16 -40s-23.667 -16 -39 -16zM193 576c-15.333 0 -28.5 5.33301 -39.5 16s-16.5 24 -16.5 40c0 15.333 5.33301 28.333 16 39s24 16 40 16
c15.333 0 28.333 -5.33301 39 -16s16 -23.667 16 -39c0 -16 -5.5 -29.333 -16.5 -40s-23.833 -16 -38.5 -16z" />
    <glyph glyph-name="divide" unicode="&#xf7;" horiz-adv-x="590" 
d="M295 349c-18 0 -33.167 5.99902 -45.5 17.999s-18.5 27 -18.5 45c0 17.333 6.33301 32.166 19 44.499s27.667 18.5 45 18.5s32 -6.16699 44 -18.5s18 -27.166 18 -44.499s-6 -32.166 -18 -44.499s-26.667 -18.5 -44 -18.5zM75 241.999v61h439v-61h-439zM295 69.999
c-18 0 -33.167 6 -45.5 18s-18.5 27 -18.5 45c0 17.333 6.33301 32 19 44s27.667 18 45 18s32 -6 44 -18s18 -26.667 18 -44c0 -18 -6 -33 -18 -45s-26.667 -18 -44 -18z" />
    <glyph glyph-name="oslash" unicode="&#xf8;" horiz-adv-x="608" 
d="M92 -58l-45 37l71 87l-1 1c-48 50 -72 111 -72 183c0 72.667 24.333 133.834 73 183.501s110.667 74.5 186 74.5c37.333 0 72 -6.66699 104 -20c10.667 -4 22.667 -10.333 36 -19l74 92l45 -37l-73 -91c48.667 -48.667 73 -109.667 73 -183
c0 -72.667 -24.333 -133.834 -73 -183.501s-110.667 -74.5 -186 -74.5c-37.333 0 -72.333 6.66699 -105 20c-12.667 5.33301 -24.667 11.333 -36 18zM304 58c54.667 0 99.501 18.5 134.501 55.5s52.5 82.5 52.5 136.5c0 26 -4.66699 51 -14 75
c-6.66699 19.333 -17.334 37.333 -32.001 54l-238 -295c9.33301 -5.33301 16.333 -9 21 -11c22.667 -10 48 -15 76 -15zM380.001 427c-23.333 10 -48.667 15 -76 15c-54 0 -98.667 -18.5 -134 -55.5s-53 -82.5 -53 -136.5c0 -28 4.33301 -53 13 -75
c8 -19.333 18.667 -37.333 32 -54l239 295c-9.33301 5.33301 -16.333 9 -21 11z" />
    <glyph glyph-name="ugrave" unicode="&#xf9;" horiz-adv-x="578" 
d="M429 0l-0.00195312 68c-38 -50.667 -92 -76 -162 -76c-60 0 -107.5 18.333 -142.5 55s-52.5 86 -52.5 148v305h70v-300c0 -42.667 12.333 -77 37 -103s58.334 -39 101.001 -39c74.667 0 124.334 36.667 149.001 110v332h70v-500h-70zM265.998 550l-119 160h88l90 -160
h-59z" />
    <glyph glyph-name="uacute" unicode="&#xfa;" horiz-adv-x="578" 
d="M429 68l0.00195312 -68h70v500h-70v-332c-24.667 -73.333 -74.334 -110 -149.001 -110c-42.667 0 -76.334 13 -101.001 39s-37 60.333 -37 103v300h-70v-305c0 -62 17.5 -111.333 52.5 -148s82.5 -55 142.5 -55c70 0 124 25.333 162 76zM430.002 710l-119 -160h-59
l90 160h88z" />
    <glyph glyph-name="ucircumflex" unicode="&#xfb;" horiz-adv-x="578" 
d="M429 0l-0.00195312 68c-38 -50.667 -92 -76 -162 -76c-60 0 -107.5 18.333 -142.5 55s-52.5 86 -52.5 148v305h70v-300c0 -42.667 12.333 -77 37 -103s58.334 -39 101.001 -39c74.667 0 124.334 36.667 149.001 110v332h70v-500h-70zM284.998 718l158 -116l-31 -45
l-127 94l-127 -94l-31 45z" />
    <glyph glyph-name="udieresis" unicode="&#xfc;" horiz-adv-x="578" 
d="M429 0l-0.00195312 68c-38 -50.667 -92 -76 -162 -76c-60 0 -107.5 18.333 -142.5 55s-52.5 86 -52.5 148v305h70v-300c0 -42.667 12.333 -77 37 -103s58.334 -39 101.001 -39c74.667 0 124.334 36.667 149.001 110v332h70v-500h-70zM396.998 576
c-15.333 0 -28.5 5.33301 -39.5 16s-16.5 24 -16.5 40c0 15.333 5.5 28.333 16.5 39s24.167 16 39.5 16s28.333 -5.33301 39 -16s16 -23.667 16 -39c0 -16 -5.33301 -29.333 -16 -40s-23.667 -16 -39 -16zM174.998 576c-15.333 0 -28.5 5.33301 -39.5 16s-16.5 24 -16.5 40
c0 15.333 5.33301 28.333 16 39s24 16 40 16c15.333 0 28.333 -5.33301 39 -16s16 -23.667 16 -39c0 -16 -5.5 -29.333 -16.5 -40s-23.833 -16 -38.5 -16z" />
    <glyph glyph-name="yacute" unicode="&#xfd;" horiz-adv-x="507" 
d="M218 34l-102 -218h75l313 684h-76l-174 -389l-172 389h-76zM401 710l-119 -160h-59l90 160h88z" />
    <glyph glyph-name="thorn" unicode="&#xfe;" horiz-adv-x="618" 
d="M149 -184l-70 0.00195312v894h70v-268c44 44 100.333 66 169 66c74 0 135.167 -24.833 183.5 -74.5s72.5 -110.834 72.5 -183.501s-24.167 -133.834 -72.5 -183.501s-109.5 -74.5 -183.5 -74.5c-68.667 0 -125 22 -169 66v-242zM317 442.002
c-37.333 0 -70.667 -7.83301 -100 -23.5s-52 -36.5 -68 -62.5v-212c16.667 -26 39.5 -46.833 68.5 -62.5s62.167 -23.5 99.5 -23.5c53.333 0 97.5 18.5 132.5 55.5s52.5 82.5 52.5 136.5s-17.5 99.5 -52.5 136.5s-79.167 55.5 -132.5 55.5z" />
    <glyph glyph-name="ydieresis" unicode="&#xff;" horiz-adv-x="507" 
d="M116 -184l102 218l-212 466h76l172 -389l174 389h76l-313 -684h-75zM368 576c-15.333 0 -28.5 5.33301 -39.5 16s-16.5 24 -16.5 40c0 15.333 5.5 28.333 16.5 39s24.167 16 39.5 16s28.333 -5.33301 39 -16s16 -23.667 16 -39c0 -16 -5.16699 -29.333 -15.5 -40
s-23.5 -16 -39.5 -16zM146 576c-15.333 0 -28.5 5.33301 -39.5 16s-16.5 24 -16.5 40c0 15.333 5.33301 28.333 16 39s24 16 40 16c15.333 0 28.333 -5.33301 39 -16s16 -23.667 16 -39c0 -16 -5.5 -29.333 -16.5 -40s-23.833 -16 -38.5 -16z" />
    <glyph glyph-name="Amacron" unicode="&#x100;" horiz-adv-x="675" 
d="M-5 0l343 718l342 -718h-79l-94 201h-338l-94 -201h-80zM201 269h274l-137 290zM194 810v54h288v-54h-288z" />
    <glyph glyph-name="amacron" unicode="&#x101;" horiz-adv-x="618" 
d="M469 0v57.998c-44 -44 -100.333 -66 -169 -66c-74 0 -135.167 24.833 -183.5 74.5s-72.5 110.834 -72.5 183.501s24.167 133.834 72.5 183.501s109.5 74.5 183.5 74.5c68.667 0 125 -22 169 -66v58h70v-500h-70zM301 57.998c74.667 0 130.667 28.667 168 86v212
c-16.667 26 -39.5 46.833 -68.5 62.5s-62.167 23.5 -99.5 23.5c-53.333 0 -97.5 -18.5 -132.5 -55.5s-52.5 -82.5 -52.5 -136.5s17.5 -99.5 52.5 -136.5s79.167 -55.5 132.5 -55.5zM169 624.998v54h288v-54h-288z" />
    <glyph glyph-name="Abreve" unicode="&#x102;" horiz-adv-x="675" 
d="M-5 0l343 718l342 -718h-79l-94 201h-338l-94 -201h-80zM201 269h274l-137 290zM337 774c-44.667 0 -80.668 12.667 -108.001 38s-41.666 57 -42.999 95h53c2.66699 -25.333 12.5 -45.666 29.5 -60.999s40.167 -23 69.5 -23s52.666 7.66699 69.999 23
s27.333 35.666 30 60.999h53c-2.66699 -38.667 -17.667 -70.5 -45 -95.5s-63.666 -37.5 -108.999 -37.5z" />
    <glyph glyph-name="abreve" unicode="&#x103;" horiz-adv-x="618" 
d="M469 0v57.998c-44 -44 -100.333 -66 -169 -66c-74 0 -135.167 24.833 -183.5 74.5s-72.5 110.834 -72.5 183.501s24.167 133.834 72.5 183.501s109.5 74.5 183.5 74.5c68.667 0 125 -22 169 -66v58h70v-500h-70zM301 57.998c74.667 0 130.667 28.667 168 86v212
c-16.667 26 -39.5 46.833 -68.5 62.5s-62.167 23.5 -99.5 23.5c-53.333 0 -97.5 -18.5 -132.5 -55.5s-52.5 -82.5 -52.5 -136.5s17.5 -99.5 52.5 -136.5s79.167 -55.5 132.5 -55.5zM313 576.998c-46.667 0 -83.168 12.333 -109.501 37s-40.833 56.667 -43.5 96h56
c2 -25.333 11.333 -45.666 28 -60.999s39.667 -23 69 -23s52.333 7.66699 69 23s26.334 35.666 29.001 60.999h55c-2.66699 -39.333 -17.167 -71.333 -43.5 -96s-62.833 -37 -109.5 -37z" />
    <glyph glyph-name="Aogonek" unicode="&#x104;" horiz-adv-x="675" 
d="M-5 0l343 717.998l342 -718h1c-26 -11.333 -46.5 -25.166 -61.5 -41.499s-22.5 -33.166 -22.5 -50.499c0 -30.667 18 -46 54 -46c10 0 22 2.66699 36 8v-49c-13.333 -8.66699 -33 -13 -59 -13c-28 0 -52 7.5 -72 22.5s-30 35.833 -30 62.5c0 23.333 7.33301 44.5 22 63.5
s32 33.833 52 44.5l-93 200h-338l-94 -201h-80zM201 268.998h274l-137 290z" />
    <glyph glyph-name="aogonek" unicode="&#x105;" horiz-adv-x="618" 
d="M469 0v57.998c-44 -44 -100.333 -66 -169 -66c-74 0 -135.167 24.833 -183.5 74.5s-72.5 110.834 -72.5 183.501s24.167 133.834 72.5 183.501s109.5 74.5 183.5 74.5c68.667 0 125 -22 169 -66v58h70v-500h-70zM301 57.998c74.667 0 130.667 28.667 168 86v212
c-16.667 26 -39.5 46.833 -68.5 62.5s-62.167 23.5 -99.5 23.5c-53.333 0 -97.5 -18.5 -132.5 -55.5s-52.5 -82.5 -52.5 -136.5s17.5 -99.5 52.5 -136.5s79.167 -55.5 132.5 -55.5zM486 -192.002c-27.333 0 -50.666 7.49805 -69.999 22.498s-29 35.833 -29 62.5
c0 23.333 8.5 45 25.5 65s35.833 34.667 56.5 44l70 -2c-26 -11.333 -46.333 -25.166 -61 -41.499s-22 -33.166 -22 -50.499c0 -30.667 17.667 -46 53 -46c8 0 15 1 21 3l15 5v-49c-12.667 -8.66699 -32.334 -13 -59.001 -13z" />
    <glyph glyph-name="Cacute" unicode="&#x106;" horiz-adv-x="721" 
d="M410 -8c58 0 112.167 12.334 162.5 37.001s89.5 56 117.5 94l-53 47c-25.333 -32.667 -57.666 -58.667 -96.999 -78s-82.666 -29 -129.999 -29c-81.333 0 -149.333 28 -204 84s-82 125.333 -82 208s27.333 152.167 82 208.5s122.667 84.5 204 84.5
c47.333 0 90.666 -9.66699 129.999 -29s71.666 -45.333 96.999 -78l53 46c-28 38 -67.167 69.333 -117.5 94s-104.5 37 -162.5 37c-101.333 0 -187 -35 -257 -105s-105 -156 -105 -258c0 -102.667 34.833 -188.834 104.5 -258.501s155.5 -104.5 257.5 -104.5zM552 913.001
l-112 -145h-60l84 145h88z" />
    <glyph glyph-name="cacute" unicode="&#x107;" horiz-adv-x="521" 
d="M301 -8c74.667 0 138 26.002 190 78.002l-45 49c-40.667 -40.667 -89 -61 -145 -61c-53.333 0 -97.5 18.5 -132.5 55.5s-52.5 82.5 -52.5 136.5s17.5 99.5 52.5 136.5s79.167 55.5 132.5 55.5c56 0 104.333 -20.333 145 -61l45 49c-52 52 -115.333 78 -190 78
c-74 0 -135.333 -24.833 -184 -74.5s-73 -110.834 -73 -183.501s24.333 -133.834 73 -183.501s110 -74.5 184 -74.5zM445 710.002l-119 -160h-59l90 160h88z" />
    <glyph glyph-name="Ccircumflex" unicode="&#x108;" horiz-adv-x="721" 
d="M410 -8c-102 0 -187.833 34.832 -257.5 104.499s-104.5 155.834 -104.5 258.501c0 102 35 188 105 258s155.667 105 257 105c58 0 112.167 -12.333 162.5 -37s89.5 -56 117.5 -94l-53 -46c-25.333 32.667 -57.666 58.667 -96.999 78s-82.666 29 -129.999 29
c-81.333 0 -149.333 -28.167 -204 -84.5s-82 -125.833 -82 -208.5s27.333 -152 82 -208s122.667 -84 204 -84c47.333 0 90.666 9.66699 129.999 29s71.666 45.333 96.999 78l53 -47c-28 -38 -67.167 -69.333 -117.5 -94s-104.5 -37 -162.5 -37zM267 767.999l-29 49l171 109
l171 -109l-29 -49l-142 94z" />
    <glyph glyph-name="ccircumflex" unicode="&#x109;" horiz-adv-x="521" 
d="M301 -8c-74 0 -135.333 24.8311 -184 74.498s-73 110.834 -73 183.501s24.333 133.834 73 183.501s110 74.5 184 74.5c74.667 0 138 -26 190 -78l-45 -49c-40.667 40.667 -89 61 -145 61c-53.333 0 -97.5 -18.5 -132.5 -55.5s-52.5 -82.5 -52.5 -136.5
s17.5 -99.5 52.5 -136.5s79.167 -55.5 132.5 -55.5c56 0 104.333 20.333 145 61l45 -49c-52 -52 -115.333 -78 -190 -78zM301 717.998l158 -116l-31 -45l-127 94l-127 -94l-31 45z" />
    <glyph glyph-name="Cdotaccent" unicode="&#x10a;" horiz-adv-x="721" 
d="M410 -8c-102 0 -187.833 34.832 -257.5 104.499s-104.5 155.834 -104.5 258.501c0 102 35 188 105 258s155.667 105 257 105c58 0 112.167 -12.333 162.5 -37s89.5 -56 117.5 -94l-53 -46c-25.333 32.667 -57.666 58.667 -96.999 78s-82.666 29 -129.999 29
c-81.333 0 -149.333 -28.167 -204 -84.5s-82 -125.833 -82 -208.5s27.333 -152 82 -208s122.667 -84 204 -84c47.333 0 90.666 9.66699 129.999 29s71.666 45.333 96.999 78l53 -47c-28 -38 -67.167 -69.333 -117.5 -94s-104.5 -37 -162.5 -37zM409 787.999
c-16 0 -29.333 5.33301 -40 16s-16 24 -16 40c0 15.333 5.5 28.333 16.5 39s24.167 16 39.5 16s28.5 -5.33301 39.5 -16s16.5 -23.667 16.5 -39c0 -16 -5.5 -29.333 -16.5 -40s-24.167 -16 -39.5 -16z" />
    <glyph glyph-name="cdotaccent" unicode="&#x10b;" horiz-adv-x="521" 
d="M301 -8c-74 0 -135.333 24.8311 -184 74.498s-73 110.834 -73 183.501s24.333 133.834 73 183.501s110 74.5 184 74.5c74.667 0 138 -26 190 -78l-45 -49c-40.667 40.667 -89 61 -145 61c-53.333 0 -97.5 -18.5 -132.5 -55.5s-52.5 -82.5 -52.5 -136.5
s17.5 -99.5 52.5 -136.5s79.167 -55.5 132.5 -55.5c56 0 104.333 20.333 145 61l45 -49c-52 -52 -115.333 -78 -190 -78zM301 575.998c-16 0 -29.333 5.33301 -40 16s-16 24 -16 40c0 15.333 5.5 28.333 16.5 39s24.167 16 39.5 16s28.5 -5.33301 39.5 -16
s16.5 -23.667 16.5 -39c0 -16 -5.5 -29.333 -16.5 -40s-24.167 -16 -39.5 -16z" />
    <glyph glyph-name="Ccaron" unicode="&#x10c;" horiz-adv-x="721" 
d="M410 -8c-102 0 -187.833 34.832 -257.5 104.499s-104.5 155.834 -104.5 258.501c0 102 35 188 105 258s155.667 105 257 105c58 0 112.167 -12.333 162.5 -37s89.5 -56 117.5 -94l-53 -46c-25.333 32.667 -57.666 58.667 -96.999 78s-82.666 29 -129.999 29
c-81.333 0 -149.333 -28.167 -204 -84.5s-82 -125.833 -82 -208.5s27.333 -152 82 -208s122.667 -84 204 -84c47.333 0 90.666 9.66699 129.999 29s71.666 45.333 96.999 78l53 -47c-28 -38 -67.167 -69.333 -117.5 -94s-104.5 -37 -162.5 -37zM551 926.999l29 -49
l-171 -109l-171 109l29 49l142 -94z" />
    <glyph glyph-name="ccaron" unicode="&#x10d;" horiz-adv-x="521" 
d="M301 -8c-74 0 -135.333 24.8311 -184 74.498s-73 110.834 -73 183.501s24.333 133.834 73 183.501s110 74.5 184 74.5c74.667 0 138 -26 190 -78l-45 -49c-40.667 40.667 -89 61 -145 61c-53.333 0 -97.5 -18.5 -132.5 -55.5s-52.5 -82.5 -52.5 -136.5
s17.5 -99.5 52.5 -136.5s79.167 -55.5 132.5 -55.5c56 0 104.333 20.333 145 61l45 -49c-52 -52 -115.333 -78 -190 -78zM300 555.998l-158 116l31 45l127 -94l127 94l31 -45z" />
    <glyph glyph-name="Dcaron" unicode="&#x10e;" horiz-adv-x="735" 
d="M99 0v710h208c110 0 200.833 -33.667 272.5 -101s107.5 -152 107.5 -254s-35.833 -186.667 -107.5 -254s-162.5 -101 -272.5 -101h-208zM173 69h134c90.667 0 164.167 26.833 220.5 80.5s84.5 122.167 84.5 205.5c0 82.667 -28.167 151 -84.5 205s-129.833 81 -220.5 81
h-134v-572zM480 927l29 -49l-171 -109l-171 109l29 49l142 -94z" />
    <glyph glyph-name="dcaron" unicode="&#x10f;" horiz-adv-x="642" 
d="M539 0l-70 -0.00195312v58c-44 -44 -100.333 -66 -169 -66c-74 0 -135.167 24.833 -183.5 74.5s-72.5 110.834 -72.5 183.501s24.167 133.834 72.5 183.501s109.5 74.5 183.5 74.5c68.667 0 125 -22 169 -66v268h70v-710zM301 441.998
c-53.333 0 -97.5 -18.5 -132.5 -55.5s-52.5 -82.5 -52.5 -136.5s17.5 -99.5 52.5 -136.5s79.167 -55.5 132.5 -55.5c37.333 0 70.5 7.83301 99.5 23.5s51.833 36.5 68.5 62.5v212c-16.667 26 -39.5 46.833 -68.5 62.5s-62.167 23.5 -99.5 23.5zM605 543.998l26 166h71
l-47 -166h-50z" />
    <glyph glyph-name="Dcroat" unicode="&#x110;" horiz-adv-x="762" 
d="M126 0v710h208c110 0 200.833 -33.667 272.5 -101s107.5 -152 107.5 -254s-35.833 -186.667 -107.5 -254s-162.5 -101 -272.5 -101h-208zM200 69h134c90.667 0 164.167 26.833 220.5 80.5s84.5 122.167 84.5 205.5c0 82.667 -28.167 151 -84.5 205s-129.833 81 -220.5 81
h-134v-572zM6 328v61h333v-61h-333z" />
    <glyph glyph-name="dcroat" unicode="&#x111;" horiz-adv-x="618" 
d="M539 0l-70 -0.00195312v58c-44 -44 -100.333 -66 -169 -66c-74 0 -135.167 24.833 -183.5 74.5s-72.5 110.834 -72.5 183.501s24.167 133.834 72.5 183.501s109.5 74.5 183.5 74.5c68.667 0 125 -22 169 -66v268h70v-710zM301 441.998
c-53.333 0 -97.5 -18.5 -132.5 -55.5s-52.5 -82.5 -52.5 -136.5s17.5 -99.5 52.5 -136.5s79.167 -55.5 132.5 -55.5c37.333 0 70.5 7.83301 99.5 23.5s51.833 36.5 68.5 62.5v212c-16.667 26 -39.5 46.833 -68.5 62.5s-62.167 23.5 -99.5 23.5zM294 581.998v54h319v-54h-319
z" />
    <glyph glyph-name="Emacron" unicode="&#x112;" horiz-adv-x="553" 
d="M99 0v710h405v-71h-331v-239h271v-72h-271v-257h331v-71h-405zM165 810v54h288v-54h-288z" />
    <glyph glyph-name="emacron" unicode="&#x113;" horiz-adv-x="573" 
d="M301 -8c-74 0 -135.333 24.832 -184 74.499s-73 110.834 -73 183.501c0 72 24.167 133 72.5 183s107.5 75 177.5 75c73.333 0 132 -25.167 176 -75.5s66 -115.833 66 -196.5h-421c4 -52.667 23.5 -95.5 58.5 -128.5s77.5 -49.5 127.5 -49.5c61.333 0 113 21 155 63
l45 -49c-52 -53.333 -118.667 -80 -200 -80zM290 442.999c-40 0 -76 -12.666 -108 -37.999s-52.667 -61 -62 -107h337c-6 46.667 -24 82.667 -54 108s-67.667 37.666 -113 36.999zM151 625v54h288v-54h-288z" />
    <glyph glyph-name="Ebreve" unicode="&#x114;" horiz-adv-x="553" 
d="M99 0v710h405v-71h-331v-239h271v-72h-271v-257h331v-71h-405zM308 774c-44.667 0 -80.668 12.667 -108.001 38s-41.666 57 -42.999 95h53c2.66699 -25.333 12.5 -45.666 29.5 -60.999s40.167 -23 69.5 -23s52.666 7.66699 69.999 23s27.333 35.666 30 60.999h53
c-2.66699 -38.667 -17.667 -70.5 -45 -95.5s-63.666 -37.5 -108.999 -37.5z" />
    <glyph glyph-name="ebreve" unicode="&#x115;" horiz-adv-x="573" 
d="M301 -8c-74 0 -135.333 24.832 -184 74.499s-73 110.834 -73 183.501c0 72 24.167 133 72.5 183s107.5 75 177.5 75c73.333 0 132 -25.167 176 -75.5s66 -115.833 66 -196.5h-421c4 -52.667 23.5 -95.5 58.5 -128.5s77.5 -49.5 127.5 -49.5c61.333 0 113 21 155 63
l45 -49c-52 -53.333 -118.667 -80 -200 -80zM290 442.999c-40 0 -76 -12.666 -108 -37.999s-52.667 -61 -62 -107h337c-6 46.667 -24 82.667 -54 108s-67.667 37.666 -113 36.999zM295 577c-46.667 0 -83.168 12.333 -109.501 37s-40.833 56.667 -43.5 96h56
c2 -25.333 11.333 -45.666 28 -60.999s39.667 -23 69 -23s52.333 7.66699 69 23s26.334 35.666 29.001 60.999h55c-2.66699 -39.333 -17.167 -71.333 -43.5 -96s-62.833 -37 -109.5 -37z" />
    <glyph glyph-name="Edotaccent" unicode="&#x116;" horiz-adv-x="553" 
d="M99 0v710h405v-71h-331v-239h271v-72h-271v-257h331v-71h-405zM309 788c-16 0 -29.333 5.33301 -40 16s-16 24 -16 40c0 15.333 5.5 28.333 16.5 39s24.167 16 39.5 16s28.5 -5.33301 39.5 -16s16.5 -23.667 16.5 -39c0 -16 -5.5 -29.333 -16.5 -40
s-24.167 -16 -39.5 -16z" />
    <glyph glyph-name="edotaccent" unicode="&#x117;" horiz-adv-x="573" 
d="M301 -8c-74 0 -135.333 24.832 -184 74.499s-73 110.834 -73 183.501c0 72 24.167 133 72.5 183s107.5 75 177.5 75c73.333 0 132 -25.167 176 -75.5s66 -115.833 66 -196.5h-421c4 -52.667 23.5 -95.5 58.5 -128.5s77.5 -49.5 127.5 -49.5c61.333 0 113 21 155 63
l45 -49c-52 -53.333 -118.667 -80 -200 -80zM290 442.999c-40 0 -76 -12.666 -108 -37.999s-52.667 -61 -62 -107h337c-6 46.667 -24 82.667 -54 108s-67.667 37.666 -113 36.999zM295 576c-16 0 -29.333 5.33301 -40 16s-16 24 -16 40c0 15.333 5.5 28.333 16.5 39
s24.167 16 39.5 16s28.5 -5.33301 39.5 -16s16.5 -23.667 16.5 -39c0 -16 -5.5 -29.333 -16.5 -40s-24.167 -16 -39.5 -16z" />
    <glyph glyph-name="Eogonek" unicode="&#x118;" horiz-adv-x="553" 
d="M99 0v710h405v-71h-331v-239h271v-72h-271v-257h331v-71h-405zM452 -192c-28 0 -51.999 7.50195 -71.999 22.502s-30 35.833 -30 62.5c0 23.333 8.16699 45.166 24.5 65.499s35.166 34.833 56.499 43.5l74 -2c-55.333 -24.667 -83 -55.334 -83 -92.001
c0 -30.667 17.667 -46 53 -46c10 0 22 2.66699 36 8v-49c-13.333 -8.66699 -33 -13 -59 -13z" />
    <glyph glyph-name="eogonek" unicode="&#x119;" horiz-adv-x="572" 
d="M493 -130v-48.999c-13.333 -8.66699 -33 -13 -59 -13c-30 0 -55.167 8.16699 -75.5 24.5s-30.5 39.166 -30.5 68.499c0 33.333 13.667 66.666 41 99.999c-18 -6 -40.667 -9 -68 -9c-74 0 -135.333 24.833 -184 74.5s-73 110.834 -73 183.501c0 72 24.167 133 72.5 183
s107.5 75 177.5 75c70.667 0 128.667 -24.5 174 -73.5s68 -115.167 68 -198.5h-420c2.66699 -54 22 -97.167 58 -129.5s78.333 -48.5 127 -48.5c61.333 0 113 21 155 63l45 -49c-69.333 -60.667 -104 -112.667 -104 -156c0 -36 20 -54 60 -54c10 0 22 2.66699 36 8z
M290 443.001c-41.333 0 -78 -13 -110 -39s-52 -61.333 -60 -106h337c-6 46.667 -24 82.5 -54 107.5s-67.667 37.5 -113 37.5z" />
    <glyph glyph-name="Ecaron" unicode="&#x11a;" horiz-adv-x="553" 
d="M99 0v710h405v-71h-331v-239h271v-72h-271v-257h331v-71h-405zM451 927l29 -49l-171 -109l-171 109l29 49l142 -94z" />
    <glyph glyph-name="ecaron" unicode="&#x11b;" horiz-adv-x="573" 
d="M301 -8c-74 0 -135.333 24.832 -184 74.499s-73 110.834 -73 183.501c0 72 24.167 133 72.5 183s107.5 75 177.5 75c73.333 0 132 -25.167 176 -75.5s66 -115.833 66 -196.5h-421c4 -52.667 23.5 -95.5 58.5 -128.5s77.5 -49.5 127.5 -49.5c61.333 0 113 21 155 63
l45 -49c-52 -53.333 -118.667 -80 -200 -80zM290 442.999c-40 0 -76 -12.666 -108 -37.999s-52.667 -61 -62 -107h337c-6 46.667 -24 82.667 -54 108s-67.667 37.666 -113 36.999zM294 556l-158 116l31 45l127 -94l127 94l31 -45z" />
    <glyph glyph-name="Gcircumflex" unicode="&#x11c;" horiz-adv-x="743" 
d="M411 -8c-102 0 -187.999 34.832 -257.999 104.499s-105 155.834 -105 258.501s34.833 188.834 104.5 258.501s155.5 104.5 257.5 104.5c53.333 0 103.5 -10.333 150.5 -31s85.167 -48 114.5 -82l-53 -48c-53.333 60 -124 90 -212 90c-81.333 0 -149.5 -28 -204.5 -84
s-82.5 -125.333 -82.5 -208s27.5 -152 82.5 -208s123.5 -84 205.5 -84c82.667 0 147.667 20 195 60v205h-227l32 72h269v-312c-24.667 -26.667 -61.334 -49.334 -110.001 -68.001s-101.667 -28 -159 -28zM253.001 767.999l-29 49l171 109l171 -109l-29 -49l-142 94z" />
    <glyph glyph-name="gcircumflex" unicode="&#x11d;" horiz-adv-x="611" 
d="M292 -194c-82.667 0 -153.333 21.001 -212 63.001l38 59c49.333 -38 108 -57 176 -57c54 0 97.833 11.667 131.5 35s50.5 58.333 50.5 105c0 27.333 -4.66699 51 -14 71c-45.333 -45.333 -102 -68 -170 -68c-72.667 0 -132 23.5 -178 70.5s-69 105.833 -69 176.5
s23 129.5 69 176.5s105.333 70.5 178 70.5c67.333 0 123 -22 167 -66v58h70v-393c13.333 -36 20 -70.333 20 -103c0 -66.667 -25 -116.334 -75 -149.001s-110.667 -49 -182 -49zM294.001 80.001c36.667 0 69.334 7.83301 98.001 23.5s51 36.5 67 62.5v190
c-16 26 -38.333 46.833 -67 62.5s-61.334 23.5 -98.001 23.5c-51.333 0 -93.666 -17.167 -126.999 -51.5s-50 -77.5 -50 -129.5s16.667 -95.167 50 -129.5s75.666 -51.5 126.999 -51.5zM292.001 718.001l158 -116l-31 -45l-127 94l-127 -94l-31 45z" />
    <glyph glyph-name="Gbreve" unicode="&#x11e;" horiz-adv-x="743" 
d="M411 -8c-102 0 -187.999 34.832 -257.999 104.499s-105 155.834 -105 258.501s34.833 188.834 104.5 258.501s155.5 104.5 257.5 104.5c53.333 0 103.5 -10.333 150.5 -31s85.167 -48 114.5 -82l-53 -48c-53.333 60 -124 90 -212 90c-81.333 0 -149.5 -28 -204.5 -84
s-82.5 -125.333 -82.5 -208s27.5 -152 82.5 -208s123.5 -84 205.5 -84c82.667 0 147.667 20 195 60v205h-227l32 72h269v-312c-24.667 -26.667 -61.334 -49.334 -110.001 -68.001s-101.667 -28 -159 -28zM394.001 773.999c-44.667 0 -80.668 12.667 -108.001 38
s-41.666 57 -42.999 95h53c2.66699 -25.333 12.5 -45.666 29.5 -60.999s40.167 -23 69.5 -23s52.666 7.66699 69.999 23s27.333 35.666 30 60.999h53c-2.66699 -38.667 -17.667 -70.5 -45 -95.5s-63.666 -37.5 -108.999 -37.5z" />
    <glyph glyph-name="gbreve" unicode="&#x11f;" horiz-adv-x="611" 
d="M292 -194c-82.667 0 -153.333 21.001 -212 63.001l38 59c49.333 -38 108 -57 176 -57c54 0 97.833 11.667 131.5 35s50.5 58.333 50.5 105c0 27.333 -4.66699 51 -14 71c-45.333 -45.333 -102 -68 -170 -68c-72.667 0 -132 23.5 -178 70.5s-69 105.833 -69 176.5
s23 129.5 69 176.5s105.333 70.5 178 70.5c67.333 0 123 -22 167 -66v58h70v-393c13.333 -36 20 -70.333 20 -103c0 -66.667 -25 -116.334 -75 -149.001s-110.667 -49 -182 -49zM294.001 80.001c36.667 0 69.334 7.83301 98.001 23.5s51 36.5 67 62.5v190
c-16 26 -38.333 46.833 -67 62.5s-61.334 23.5 -98.001 23.5c-51.333 0 -93.666 -17.167 -126.999 -51.5s-50 -77.5 -50 -129.5s16.667 -95.167 50 -129.5s75.666 -51.5 126.999 -51.5zM292.001 577.001c-46.667 0 -83.168 12.333 -109.501 37s-40.833 56.667 -43.5 96h56
c2 -25.333 11.333 -45.666 28 -60.999s39.667 -23 69 -23s52.333 7.66699 69 23s26.334 35.666 29.001 60.999h55c-2.66699 -39.333 -17.167 -71.333 -43.5 -96s-62.833 -37 -109.5 -37z" />
    <glyph glyph-name="Gdotaccent" unicode="&#x120;" horiz-adv-x="743" 
d="M411 -8c-102 0 -187.999 34.832 -257.999 104.499s-105 155.834 -105 258.501s34.833 188.834 104.5 258.501s155.5 104.5 257.5 104.5c53.333 0 103.5 -10.333 150.5 -31s85.167 -48 114.5 -82l-53 -48c-53.333 60 -124 90 -212 90c-81.333 0 -149.5 -28 -204.5 -84
s-82.5 -125.333 -82.5 -208s27.5 -152 82.5 -208s123.5 -84 205.5 -84c82.667 0 147.667 20 195 60v205h-227l32 72h269v-312c-24.667 -26.667 -61.334 -49.334 -110.001 -68.001s-101.667 -28 -159 -28zM395.001 787.999c-16 0 -29.333 5.33301 -40 16s-16 24 -16 40
c0 15.333 5.5 28.333 16.5 39s24.167 16 39.5 16s28.5 -5.33301 39.5 -16s16.5 -23.667 16.5 -39c0 -16 -5.5 -29.333 -16.5 -40s-24.167 -16 -39.5 -16z" />
    <glyph glyph-name="gdotaccent" unicode="&#x121;" horiz-adv-x="611" 
d="M292 -194c-82.667 0 -153.333 21.001 -212 63.001l38 59c49.333 -38 108 -57 176 -57c54 0 97.833 11.667 131.5 35s50.5 58.333 50.5 105c0 27.333 -4.66699 51 -14 71c-45.333 -45.333 -102 -68 -170 -68c-72.667 0 -132 23.5 -178 70.5s-69 105.833 -69 176.5
s23 129.5 69 176.5s105.333 70.5 178 70.5c67.333 0 123 -22 167 -66v58h70v-393c13.333 -36 20 -70.333 20 -103c0 -66.667 -25 -116.334 -75 -149.001s-110.667 -49 -182 -49zM294.001 80.001c36.667 0 69.334 7.83301 98.001 23.5s51 36.5 67 62.5v190
c-16 26 -38.333 46.833 -67 62.5s-61.334 23.5 -98.001 23.5c-51.333 0 -93.666 -17.167 -126.999 -51.5s-50 -77.5 -50 -129.5s16.667 -95.167 50 -129.5s75.666 -51.5 126.999 -51.5zM292.001 576.001c-16 0 -29.333 5.33301 -40 16s-16 24 -16 40
c0 15.333 5.5 28.333 16.5 39s24.167 16 39.5 16s28.5 -5.33301 39.5 -16s16.5 -23.667 16.5 -39c0 -16 -5.5 -29.333 -16.5 -40s-24.167 -16 -39.5 -16z" />
    <glyph glyph-name="uni0122" unicode="&#x122;" horiz-adv-x="743" 
d="M411 -8c-102 0 -187.999 34.832 -257.999 104.499s-105 155.834 -105 258.501s34.833 188.834 104.5 258.501s155.5 104.5 257.5 104.5c53.333 0 103.5 -10.333 150.5 -31s85.167 -48 114.5 -82l-53 -48c-53.333 60 -124 90 -212 90c-81.333 0 -149.5 -28 -204.5 -84
s-82.5 -125.333 -82.5 -208s27.5 -152 82.5 -208s123.5 -84 205.5 -84c82.667 0 147.667 20 195 60v205h-227l32 72h269v-312c-24.667 -26.667 -61.334 -49.334 -110.001 -68.001s-101.667 -28 -159 -28zM286.001 -215.001l79 165h81l-106 -165h-54z" />
    <glyph glyph-name="uni0123" unicode="&#x123;" horiz-adv-x="611" 
d="M292 -194c-82.667 0 -153.333 21.001 -212 63.001l38 59c49.333 -38 108 -57 176 -57c54 0 97.833 11.667 131.5 35s50.5 58.333 50.5 105c0 27.333 -4.66699 51 -14 71c-45.333 -45.333 -102 -68 -170 -68c-72.667 0 -132 23.5 -178 70.5s-69 105.833 -69 176.5
s23 129.5 69 176.5s105.333 70.5 178 70.5c67.333 0 123 -22 167 -66v58h70v-393c13.333 -36 20 -70.333 20 -103c0 -66.667 -25 -116.334 -75 -149.001s-110.667 -49 -182 -49zM294.001 80.001c36.667 0 69.334 7.83301 98.001 23.5s51 36.5 67 62.5v190
c-16 26 -38.333 46.833 -67 62.5s-61.334 23.5 -98.001 23.5c-51.333 0 -93.666 -17.167 -126.999 -51.5s-50 -77.5 -50 -129.5s16.667 -95.167 50 -129.5s75.666 -51.5 126.999 -51.5zM415.001 710.001l-79 -165h-81l106 165h54z" />
    <glyph glyph-name="Hcircumflex" unicode="&#x124;" horiz-adv-x="764" 
d="M99 0v710h74v-310h418v310h74v-710h-74v328h-418v-328h-74zM240 768l-29 49l171 109l171 -109l-29 -49l-142 94z" />
    <glyph glyph-name="hcircumflex" unicode="&#x125;" horiz-adv-x="579" 
d="M79 0l-0.000976562 710h70v-279c36.667 51.333 91 77 163 77c58.667 0 105.834 -18.5 141.501 -55.5s53.5 -86.167 53.5 -147.5v-305h-70v300c0 42.667 -12.333 77 -37 103s-58.667 39 -102 39c-37.333 0 -69 -10 -95 -30s-44 -47.667 -54 -83v-329h-70zM171.999 768
l-29 49l171 109l171 -109l-29 -49l-142 94z" />
    <glyph glyph-name="Hbar" unicode="&#x126;" horiz-adv-x="766" 
d="M100 0v710h74v-310h418v310h74v-710h-74v328h-418v-328h-74zM37 525v61h692v-61h-692z" />
    <glyph glyph-name="hbar" unicode="&#x127;" horiz-adv-x="579" 
d="M79 0l-0.000976562 710h70v-279c36.667 51.333 91 77 163 77c58.667 0 105.834 -18.5 141.501 -55.5s53.5 -86.167 53.5 -147.5v-305h-70v300c0 42.667 -12.333 77 -37 103s-58.667 39 -102 39c-37.333 0 -69 -10 -95 -30s-44 -47.667 -54 -83v-329h-70zM4.99902 582v54
h319v-54h-319z" />
    <glyph glyph-name="Itilde" unicode="&#x128;" horiz-adv-x="272" 
d="M99 0v710h74v-710h-74zM-34 789l2.99805 17c5.33301 28 17 50 35 66s38.667 24 62 24c20.667 0 45.5 -8.33301 74.5 -25s48.833 -25 59.5 -25c14.667 0 26 4 34 12s13.667 20.667 17 38h55l-3 -16c-5.33301 -28 -16.833 -50 -34.5 -66s-38.5 -24 -62.5 -24
c-20.667 0 -45.667 8.33301 -75 25s-49.666 25 -60.999 25c-25.333 0 -41.666 -17 -48.999 -51h-55z" />
    <glyph glyph-name="itilde" unicode="&#x129;" horiz-adv-x="228" 
d="M79 0v500h70v-500h-70zM-55 570l2.99805 17c5.33301 28 17 50 35 66s38.667 24 62 24c20.667 0 45.5 -8.33301 74.5 -25s48.833 -25 59.5 -25c14.667 0 26 4 34 12s13.667 20.667 17 38h55l-3 -16c-5.33301 -28 -16.833 -50 -34.5 -66s-38.5 -24 -62.5 -24
c-20.667 0 -45.667 8.33301 -75 25s-49.666 25 -60.999 25c-25.333 0 -41.666 -17 -48.999 -51h-55z" />
    <glyph glyph-name="Imacron" unicode="&#x12a;" horiz-adv-x="272" 
d="M99 0v710h74v-710h-74zM-8 810v54h288v-54h-288z" />
    <glyph glyph-name="imacron" unicode="&#x12b;" horiz-adv-x="228" 
d="M79 0v500h70v-500h-70zM-30 625v54h288v-54h-288z" />
    <glyph glyph-name="Ibreve" unicode="&#x12c;" horiz-adv-x="272" 
d="M99 0v710h74v-710h-74zM135 774c-44.667 0 -80.668 12.667 -108.001 38s-41.666 57 -42.999 95h53c2.66699 -25.333 12.5 -45.666 29.5 -60.999s40.167 -23 69.5 -23s52.666 7.66699 69.999 23s27.333 35.666 30 60.999h53c-2.66699 -38.667 -17.667 -70.5 -45 -95.5
s-63.666 -37.5 -108.999 -37.5z" />
    <glyph glyph-name="ibreve" unicode="&#x12d;" horiz-adv-x="228" 
d="M79 0v500h70v-500h-70zM114 577c-46.667 0 -83.168 12.333 -109.501 37s-40.833 56.667 -43.5 96h56c2 -25.333 11.333 -45.666 28 -60.999s39.667 -23 69 -23s52.333 7.66699 69 23s26.334 35.666 29.001 60.999h55c-2.66699 -39.333 -17.167 -71.333 -43.5 -96
s-62.833 -37 -109.5 -37z" />
    <glyph glyph-name="Iogonek" unicode="&#x12e;" horiz-adv-x="272" 
d="M99 0v710h74v-710h-74zM120 -192c-28 0 -51.999 7.50195 -71.999 22.502s-30 35.833 -30 62.5c0 23.333 8.16699 45.166 24.5 65.499s35.166 34.833 56.499 43.5l74 -2c-55.333 -24.667 -83 -55.334 -83 -92.001c0 -30.667 17.667 -46 53 -46c10 0 22 2.66699 36 8v-49
c-13.333 -8.66699 -33 -13 -59 -13z" />
    <glyph glyph-name="iogonek" unicode="&#x12f;" horiz-adv-x="228" 
d="M79 0v500h70v-500h-70zM149 619h-70c-13.333 11.333 -20 25.666 -20 42.999c0 15.333 5.33301 28.5 16 39.5s23.667 16.5 39 16.5s28.333 -5.5 39 -16.5s16 -24.167 16 -39.5c0 -17.333 -6.66699 -31.666 -20 -42.999zM96 -192c-27.333 0 -50.666 7.49805 -69.999 22.498
s-29 35.833 -29 62.5c0 23.333 8.5 45 25.5 65s35.833 34.667 56.5 44l70 -2c-26 -11.333 -46.333 -25.166 -61 -41.499s-22 -33.166 -22 -50.499c0 -30.667 17.667 -46 53 -46c8 0 15 1 21 3l15 5v-49c-12.667 -8.66699 -32.334 -13 -59.001 -13z" />
    <glyph glyph-name="Idotaccent" unicode="&#x130;" horiz-adv-x="272" 
d="M99 0v710h74v-710h-74zM136 788c-16 0 -29.333 5.33301 -40 16s-16 24 -16 40c0 15.333 5.5 28.333 16.5 39s24.167 16 39.5 16s28.5 -5.33301 39.5 -16s16.5 -23.667 16.5 -39c0 -16 -5.5 -29.333 -16.5 -40s-24.167 -16 -39.5 -16z" />
    <glyph glyph-name="dotlessi" unicode="&#x131;" horiz-adv-x="228" 
d="M79 0v500h70v-500h-70z" />
    <glyph glyph-name="Jcircumflex" unicode="&#x134;" horiz-adv-x="523" 
d="M226 -8c-58.667 0 -107.333 17.833 -146 53.5s-58 85.5 -58 149.5h74c0 -42.667 11.833 -75.334 35.5 -98.001s55.167 -34 94.5 -34c40 0 71.833 11.333 95.5 34s35.5 55.334 35.5 98.001v515h74v-519c0 -63.333 -19.5 -112.333 -58.5 -147s-87.833 -52 -146.5 -52z
M251.001 768l-29 49l171 109l171 -109l-29 -49l-142 94z" />
    <glyph glyph-name="jcircumflex" unicode="&#x135;" horiz-adv-x="236" 
d="M-20 -184v64h25c30.667 0 52 7.5 64 22.5s18 38.5 18 70.5v527h70v-541c0 -95.333 -48.667 -143 -146 -143h-31zM122 718l158 -116l-31 -45l-127 94l-127 -94l-31 45z" />
    <glyph glyph-name="uni0136" unicode="&#x136;" horiz-adv-x="626" 
d="M99 0v710h74v-359l339 359h92l-341 -360l371 -350h-100l-361 339v-339h-74zM227 -215l79 165h81l-106 -165h-54z" />
    <glyph glyph-name="uni0137" unicode="&#x137;" horiz-adv-x="502" 
d="M79 0v710h70v-441l239 231h93l-247 -237l274 -263h-96l-263 251v-251h-70zM160 -215l79 165h81l-106 -165h-54z" />
    <glyph glyph-name="Lacute" unicode="&#x139;" horiz-adv-x="515" 
d="M99 710v-710h399v72h-325v638h-74zM280 913l-112 -145h-60l84 145h88z" />
    <glyph glyph-name="lacute" unicode="&#x13a;" horiz-adv-x="228" 
d="M79 710v-710h70v710h-70zM258 920l-119 -160h-59l90 160h88z" />
    <glyph glyph-name="uni013B" unicode="&#x13b;" horiz-adv-x="515" 
d="M99 0v710h74v-638h325v-72h-399zM176 -215l79 165h81l-106 -165h-54z" />
    <glyph glyph-name="uni013C" unicode="&#x13c;" horiz-adv-x="228" 
d="M79 0v710h70v-710h-70zM-5 -215l79 165h81l-106 -165h-54z" />
    <glyph glyph-name="Lcaron" unicode="&#x13d;" horiz-adv-x="517" 
d="M99 0v710h74v-638h325v-72h-399zM272 544l26 166h71l-47 -166h-50z" />
    <glyph glyph-name="lcaron" unicode="&#x13e;" horiz-adv-x="252" 
d="M79 0v710h70v-710h-70zM215 544l26 166h71l-47 -166h-50z" />
    <glyph glyph-name="Ldot" unicode="&#x13f;" horiz-adv-x="520" 
d="M99 0v710h74v-638h325v-72h-399zM386 321c-16 0 -29.333 5.33301 -40 16s-16 24 -16 40c0 15.333 5.5 28.333 16.5 39s24.167 16 39.5 16s28.5 -5.33301 39.5 -16s16.5 -23.667 16.5 -39c0 -16 -5.5 -29.333 -16.5 -40s-24.167 -16 -39.5 -16z" />
    <glyph glyph-name="ldot" unicode="&#x140;" horiz-adv-x="345" 
d="M79 0v710h70v-710h-70zM284 308c-16 0 -29.333 5.33301 -40 16s-16 24 -16 40c0 15.333 5.5 28.333 16.5 39s24.167 16 39.5 16s28.5 -5.33301 39.5 -16s16.5 -23.667 16.5 -39c0 -16 -5.5 -29.333 -16.5 -40s-24.167 -16 -39.5 -16z" />
    <glyph glyph-name="Lslash" unicode="&#x141;" horiz-adv-x="597" 
d="M180 0v710h74v-638h325v-72h-399zM51 221l-34 52l366 242l35 -52z" />
    <glyph glyph-name="lslash" unicode="&#x142;" horiz-adv-x="340" 
d="M142 0v710h70v-710h-70zM54 259l-30 47l276 181l31 -47z" />
    <glyph glyph-name="Nacute" unicode="&#x143;" horiz-adv-x="788" 
d="M173 543l516 -551v718h-74v-543l-516 551v-718h74v543zM535 913l-112 -145h-60l84 145h88z" />
    <glyph glyph-name="nacute" unicode="&#x144;" horiz-adv-x="579" 
d="M79 500l0.000976562 -500h70v329c10 35.333 28 63 54 83s57.667 30 95 30c43.333 0 77.333 -13 102 -39s37 -60.333 37 -103v-300h70v305c0 61.333 -17.833 110.5 -53.5 147.5s-82.834 55.5 -141.501 55.5c-72 0 -126.333 -25.667 -163 -77v69h-70zM452.001 710
l-119 -160h-59l90 160h88z" />
    <glyph glyph-name="uni0145" unicode="&#x145;" horiz-adv-x="788" 
d="M689 -8l-516 551v-543h-74v718l516 -551v543h74v-718zM296 -215l79 165h81l-106 -165h-54z" />
    <glyph glyph-name="uni0146" unicode="&#x146;" horiz-adv-x="579" 
d="M79 0l-0.000976562 500h70v-69c36.667 51.333 91 77 163 77c58.667 0 105.834 -18.5 141.501 -55.5s53.5 -86.167 53.5 -147.5v-305h-70v300c0 42.667 -12.333 77 -37 103s-58.667 39 -102 39c-37.333 0 -69 -10 -95 -30s-44 -47.667 -54 -83v-329h-70zM175.999 -215
l79 165h81l-106 -165h-54z" />
    <glyph glyph-name="Ncaron" unicode="&#x147;" horiz-adv-x="788" 
d="M689 -8l-516 551v-543h-74v718l516 -551v543h74v-718zM534 927l29 -49l-171 -109l-171 109l29 49l142 -94z" />
    <glyph glyph-name="ncaron" unicode="&#x148;" horiz-adv-x="579" 
d="M79 0l-0.000976562 500h70v-69c36.667 51.333 91 77 163 77c58.667 0 105.834 -18.5 141.501 -55.5s53.5 -86.167 53.5 -147.5v-305h-70v300c0 42.667 -12.333 77 -37 103s-58.667 39 -102 39c-37.333 0 -69 -10 -95 -30s-44 -47.667 -54 -83v-329h-70zM305.999 556
l-158 116l31 45l127 -94l127 94l31 -45z" />
    <glyph glyph-name="Eng" unicode="&#x14a;" horiz-adv-x="788" 
d="M689 710v-744.001c0 -100 -50 -150 -150 -150h-32v62h14c33.333 0 57.333 7.83301 72 23.5s22 39.834 22 72.501v97l-442 472v-543h-74v718l516 -551v543h74z" />
    <glyph glyph-name="eng" unicode="&#x14b;" horiz-adv-x="579" 
d="M367 -184l-37.001 -0.000976562v64h25c30 0 51.167 6.83301 63.5 20.5s18.5 36.5 18.5 68.5v331c0 42.667 -12.333 77 -37 103s-58.667 39 -102 39c-37.333 0 -69 -10 -95 -30s-44 -47.667 -54 -83v-329h-70v500h70v-69c36.667 51.333 91 77 163 77
c58.667 0 105.834 -18.5 141.501 -55.5s53.5 -86.167 53.5 -147.5v-348c0 -45.333 -12 -80.166 -36 -104.499s-58.667 -36.5 -104 -36.5z" />
    <glyph glyph-name="Omacron" unicode="&#x14c;" horiz-adv-x="822" 
d="M411 -8c-102 0 -188 34.833 -258 104.5s-105 155.834 -105 258.501s35 188.834 105 258.501s156 104.5 258 104.5s188 -34.833 258 -104.5s105 -155.834 105 -258.501s-35 -188.834 -105 -258.501s-156 -104.5 -258 -104.5zM411 64c81.333 0 149.333 28.002 204 84.002
s82 125 82 207s-27.333 151 -82 207s-122.667 84 -204 84c-82 0 -150.167 -27.833 -204.5 -83.5s-81.5 -124.834 -81.5 -207.501s27.167 -151.834 81.5 -207.501s122.5 -83.5 204.5 -83.5zM266 810.002v54h288v-54h-288z" />
    <glyph glyph-name="omacron" unicode="&#x14d;" horiz-adv-x="606" 
d="M303 -8c-75.333 0 -137.333 24.833 -186 74.5s-73 110.834 -73 183.501s24.333 133.834 73 183.501s110.667 74.5 186 74.5s137.333 -24.833 186 -74.5s73 -110.834 73 -183.501s-24.333 -133.834 -73 -183.501s-110.667 -74.5 -186 -74.5zM303 58
c54.667 0 99.5 18.5 134.5 55.5s52.5 82.5 52.5 136.5s-17.5 99.5 -52.5 136.5s-79.833 55.5 -134.5 55.5c-54 0 -98.667 -18.5 -134 -55.5s-53 -82.5 -53 -136.5s17.667 -99.5 53 -136.5s80 -55.5 134 -55.5zM159 625v54h288v-54h-288z" />
    <glyph glyph-name="Obreve" unicode="&#x14e;" horiz-adv-x="822" 
d="M411 -8c-102 0 -188 34.833 -258 104.5s-105 155.834 -105 258.501s35 188.834 105 258.501s156 104.5 258 104.5s188 -34.833 258 -104.5s105 -155.834 105 -258.501s-35 -188.834 -105 -258.501s-156 -104.5 -258 -104.5zM411 64c81.333 0 149.333 28.002 204 84.002
s82 125 82 207s-27.333 151 -82 207s-122.667 84 -204 84c-82 0 -150.167 -27.833 -204.5 -83.5s-81.5 -124.834 -81.5 -207.501s27.167 -151.834 81.5 -207.501s122.5 -83.5 204.5 -83.5zM409 774.002c-44.667 0 -80.668 12.667 -108.001 38s-41.666 57 -42.999 95h53
c2.66699 -25.333 12.5 -45.666 29.5 -60.999s40.167 -23 69.5 -23s52.666 7.66699 69.999 23s27.333 35.666 30 60.999h53c-2.66699 -38.667 -17.667 -70.5 -45 -95.5s-63.666 -37.5 -108.999 -37.5z" />
    <glyph glyph-name="obreve" unicode="&#x14f;" horiz-adv-x="606" 
d="M303 -8c-75.333 0 -137.333 24.833 -186 74.5s-73 110.834 -73 183.501s24.333 133.834 73 183.501s110.667 74.5 186 74.5s137.333 -24.833 186 -74.5s73 -110.834 73 -183.501s-24.333 -133.834 -73 -183.501s-110.667 -74.5 -186 -74.5zM303 58
c54.667 0 99.5 18.5 134.5 55.5s52.5 82.5 52.5 136.5s-17.5 99.5 -52.5 136.5s-79.833 55.5 -134.5 55.5c-54 0 -98.667 -18.5 -134 -55.5s-53 -82.5 -53 -136.5s17.667 -99.5 53 -136.5s80 -55.5 134 -55.5zM303 577c-46.667 0 -83.168 12.333 -109.501 37
s-40.833 56.667 -43.5 96h56c2 -25.333 11.333 -45.666 28 -60.999s39.667 -23 69 -23s52.333 7.66699 69 23s26.334 35.666 29.001 60.999h55c-2.66699 -39.333 -17.167 -71.333 -43.5 -96s-62.833 -37 -109.5 -37z" />
    <glyph glyph-name="Ohungarumlaut" unicode="&#x150;" horiz-adv-x="822" 
d="M411 -8c-102 0 -188 34.833 -258 104.5s-105 155.834 -105 258.501s35 188.834 105 258.501s156 104.5 258 104.5s188 -34.833 258 -104.5s105 -155.834 105 -258.501s-35 -188.834 -105 -258.501s-156 -104.5 -258 -104.5zM411 64c81.333 0 149.333 28.002 204 84.002
s82 125 82 207s-27.333 151 -82 207s-122.667 84 -204 84c-82 0 -150.167 -27.833 -204.5 -83.5s-81.5 -124.834 -81.5 -207.501s27.167 -151.834 81.5 -207.501s122.5 -83.5 204.5 -83.5zM289 768.002l85 145h84l-112 -145h-57zM489 768.002l85 145h84l-112 -145h-57z" />
    <glyph glyph-name="ohungarumlaut" unicode="&#x151;" horiz-adv-x="606" 
d="M303 -8c-75.333 0 -137.333 24.833 -186 74.5s-73 110.834 -73 183.501s24.333 133.834 73 183.501s110.667 74.5 186 74.5s137.333 -24.833 186 -74.5s73 -110.834 73 -183.501s-24.333 -133.834 -73 -183.501s-110.667 -74.5 -186 -74.5zM303 58
c54.667 0 99.5 18.5 134.5 55.5s52.5 82.5 52.5 136.5s-17.5 99.5 -52.5 136.5s-79.833 55.5 -134.5 55.5c-54 0 -98.667 -18.5 -134 -55.5s-53 -82.5 -53 -136.5s17.667 -99.5 53 -136.5s80 -55.5 134 -55.5zM196 549l91 161h82l-120 -161h-53zM363 549l90 161h82
l-119 -161h-53z" />
    <glyph glyph-name="OE" unicode="&#x152;" horiz-adv-x="1086" 
d="M411 -8c-102 0 -187.998 34.832 -257.998 104.499s-105 155.834 -105 258.501s35 188.834 105 258.501s156 104.5 258 104.5c81.333 0 154.666 -24 219.999 -72v64h406v-72h-335v-63c39.333 -52 62.333 -110.333 69 -175h205v-72h-203
c-4.66699 -70.667 -28.334 -135.334 -71.001 -194.001v-62h335v-72h-406v64c-62 -48 -135.333 -72 -220 -72zM411.002 63.999c81.333 0 149.333 28.002 204 84.002s82 125 82 207s-27.333 151 -82 207s-122.667 84 -204 84c-82 0 -150.167 -27.833 -204.5 -83.5
s-81.5 -124.834 -81.5 -207.501s27.167 -151.834 81.5 -207.501s122.5 -83.5 204.5 -83.5z" />
    <glyph glyph-name="oe" unicode="&#x153;" horiz-adv-x="1020" 
d="M903 121l44.999 -49.001c-52 -53.333 -118.667 -80 -200 -80c-97.333 0 -171.333 42 -222 126c-49.333 -84 -123.666 -126 -222.999 -126c-75.333 0 -137.333 24.833 -186 74.5s-73 110.834 -73 183.501s24.333 133.834 73 183.501s110.667 74.5 186 74.5
c99.333 0 173.666 -42 222.999 -126c23.333 41.333 53.833 72.666 91.5 93.999s78.834 32 123.501 32c69.333 0 127 -24.167 173 -72.5s69 -114.833 69 -199.5h-422c4 -52.667 23.833 -95.5 59.5 -128.5s78.167 -49.5 127.5 -49.5c61.333 0 113 21 155 63zM736.999 442.999
c-40.667 0 -77.168 -12.666 -109.501 -37.999s-53.166 -61 -62.499 -107h339c-6 46.667 -24 82.667 -54 108s-67.667 37.666 -113 36.999zM302.998 58c54.667 0 99.667 18.5 135 55.5s53 82.5 53 136.5s-17.667 99.5 -53 136.5s-80.333 55.5 -135 55.5
c-54 0 -98.667 -18.5 -134 -55.5s-53 -82.5 -53 -136.5s17.667 -99.5 53 -136.5s80 -55.5 134 -55.5z" />
    <glyph glyph-name="Racute" unicode="&#x154;" horiz-adv-x="612" 
d="M99 710l-0.000976562 -709.999h74v320h93l250 -320h90l-255 324c60.667 8.66699 105.334 30.667 134.001 66s43 77 43 125c0 59.333 -19.833 106.666 -59.5 141.999s-94.5 53 -164.5 53h-205zM300.999 386.001l-128 0.000976562v256h128
c49.333 0 86.833 -11.333 112.5 -34s38.5 -54.334 38.5 -95.001c0 -40 -12.833 -71.167 -38.5 -93.5s-63.167 -33.5 -112.5 -33.5zM441.999 913.002l-112 -145h-60l84 145h88z" />
    <glyph glyph-name="racute" unicode="&#x155;" horiz-adv-x="345" 
d="M79 500l-0.000976562 -500h70v343c10.667 29.333 28 52 52 68s52 24 84 24c18.667 0 33.334 -1.66699 44.001 -5v73c-10.667 2 -22 3 -34 3c-64 0 -112.667 -24.667 -146 -74v68h-70zM352.999 710l-119 -160h-59l90 160h88z" />
    <glyph glyph-name="uni0156" unicode="&#x156;" horiz-adv-x="612" 
d="M99 0l0.000976562 709.999h205c70 0 124.833 -17.667 164.5 -53s59.5 -82.666 59.5 -141.999c0 -48 -14.333 -89.667 -43 -125s-73.334 -57.333 -134.001 -66l255 -324h-90l-250 320h-93v-320h-74zM173.001 385.999l128 -0.000976562c49.333 0 86.833 11.167 112.5 33.5
s38.5 53.5 38.5 93.5c0 40.667 -12.833 72.334 -38.5 95.001s-63.167 34 -112.5 34h-128v-256zM216.001 -215.002l79 165h81l-106 -165h-54z" />
    <glyph glyph-name="uni0157" unicode="&#x157;" horiz-adv-x="345" 
d="M79 0l0.00195312 500h70v-68c33.333 49.333 82 74 146 74c11.333 0 22.666 -1 33.999 -3v-73c-10.667 3.33301 -25.334 5 -44.001 5c-32 0 -60 -8 -84 -24s-41.333 -38.667 -52 -68v-343h-70zM-5.99805 -215l79 165h81l-106 -165h-54z" />
    <glyph glyph-name="Rcaron" unicode="&#x158;" horiz-adv-x="612" 
d="M99 0l0.000976562 709.999h205c70 0 124.833 -17.667 164.5 -53s59.5 -82.666 59.5 -141.999c0 -48 -14.333 -89.667 -43 -125s-73.334 -57.333 -134.001 -66l255 -324h-90l-250 320h-93v-320h-74zM173.001 385.999l128 -0.000976562c49.333 0 86.833 11.167 112.5 33.5
s38.5 53.5 38.5 93.5c0 40.667 -12.833 72.334 -38.5 95.001s-63.167 34 -112.5 34h-128v-256zM441.001 926.998l29 -49l-171 -109l-171 109l29 49l142 -94z" />
    <glyph glyph-name="rcaron" unicode="&#x159;" horiz-adv-x="345" 
d="M79 0l0.00195312 500h70v-68c33.333 49.333 82 74 146 74c11.333 0 22.666 -1 33.999 -3v-73c-10.667 3.33301 -25.334 5 -44.001 5c-32 0 -60 -8 -84 -24s-41.333 -38.667 -52 -68v-343h-70zM208.002 556l-158 116l31 45l127 -94l127 94l31 -45z" />
    <glyph glyph-name="Sacute" unicode="&#x15a;" horiz-adv-x="524" 
d="M260 -8c68.667 0 123.001 17.668 163.001 53.001s60 81.666 60 138.999c0 46.667 -14.5 85.5 -43.5 116.5s-70.167 58.5 -123.5 82.5l-68 29c-40 18 -68.667 37.333 -86 58s-26 45.334 -26 74.001c0 31.333 12.167 56.333 36.5 75s54.166 28 89.499 28
c58 0 105.333 -23 142 -69l53 52c-49.333 58.667 -113.333 88 -192 88c-54.667 0 -102.167 -16.167 -142.5 -48.5s-60.5 -73.833 -60.5 -124.5c0 -44 12 -81.833 36 -113.5s62.667 -59.167 116 -82.5l68 -29c42.667 -18.667 74.5 -39 95.5 -61s31.5 -49.333 31.5 -82
c0 -36 -13.333 -64 -40 -84s-63 -30 -109 -30c-34 0 -65.667 8 -95 24s-53.333 36.667 -72 62l-57 -49c22.667 -30.667 54 -56.334 94 -77.001s83.333 -31 130 -31zM407.001 913.001l-112 -145h-60l84 145h88z" />
    <glyph glyph-name="sacute" unicode="&#x15b;" horiz-adv-x="415" 
d="M206 -8c52 0 93.667 13.333 125 40s47 59.667 47 99c0 36 -10.333 65.667 -31 89s-52.667 43 -96 59l-44 16c-30 11.333 -51 23.5 -63 36.5s-18 29.167 -18 48.5c0 20 7.66699 35.833 23 47.5s35 17.5 59 17.5c42 0 71.667 -18 89 -54l56 32
c-29.333 56.667 -77.666 85 -144.999 85c-44 0 -80.167 -12.167 -108.5 -36.5s-42.5 -55.166 -42.5 -92.499c0 -66.667 38.667 -114.334 116 -143.001l42 -16c33.333 -12 57.166 -24.5 71.499 -37.5s21.5 -30.833 21.5 -53.5c0 -22 -9.5 -39.833 -28.5 -53.5
s-42.833 -20.5 -71.5 -20.5c-52 0 -92 25.667 -120 77l-56 -37c37.333 -68.667 95.333 -103 174 -103zM356 710l-119 -160h-59l90 160h88z" />
    <glyph glyph-name="Scircumflex" unicode="&#x15c;" horiz-adv-x="524" 
d="M260 -8c-46.667 0 -90.001 10.332 -130.001 30.999s-71.333 46.334 -94 77.001l57 49c18.667 -25.333 42.667 -46 72 -62s61 -24 95 -24c46 0 82.333 10 109 30s40 48 40 84c0 32.667 -10.5 60 -31.5 82s-52.833 42.333 -95.5 61l-68 29
c-53.333 23.333 -92 50.833 -116 82.5s-36 69.5 -36 113.5c0 50.667 20.167 92.167 60.5 124.5s87.833 48.5 142.5 48.5c78.667 0 142.667 -29.333 192 -88l-53 -52c-36.667 46 -84 69 -142 69c-35.333 0 -65.166 -9.33301 -89.499 -28s-36.5 -43.667 -36.5 -75
c0 -28.667 8.66699 -53.334 26 -74.001s46 -40 86 -58l68 -29c53.333 -24 94.5 -51.5 123.5 -82.5s43.5 -69.833 43.5 -116.5c0 -57.333 -20 -103.666 -60 -138.999s-94.333 -53 -163 -53zM121.999 767.999l-29 49l171 109l171 -109l-29 -49l-142 94z" />
    <glyph glyph-name="scircumflex" unicode="&#x15d;" horiz-adv-x="415" 
d="M206 -8c-78.667 0 -136.667 34.333 -174 103l56 37c28 -51.333 68 -77 120 -77c28.667 0 52.5 6.83301 71.5 20.5s28.5 31.5 28.5 53.5c0 22.667 -7.16699 40.5 -21.5 53.5s-38.166 25.5 -71.499 37.5l-42 16c-77.333 28.667 -116 76.334 -116 143.001
c0 37.333 14.167 68.166 42.5 92.499s64.5 36.5 108.5 36.5c67.333 0 115.666 -28.333 144.999 -85l-56 -32c-17.333 36 -47 54 -89 54c-24 0 -43.667 -5.83301 -59 -17.5s-23 -27.5 -23 -47.5c0 -19.333 6 -35.5 18 -48.5s33 -25.167 63 -36.5l44 -16
c43.333 -16 75.333 -35.667 96 -59s31 -53 31 -89c0 -39.333 -15.667 -72.333 -47 -99s-73 -40 -125 -40zM212 718l158 -116l-31 -45l-127 94l-127 -94l-31 45z" />
    <glyph glyph-name="Scedilla" unicode="&#x15e;" horiz-adv-x="524" 
d="M260 -8c-46.667 0 -90.001 10.332 -130.001 30.999s-71.333 46.334 -94 77.001l57 49c18.667 -25.333 42.667 -46 72 -62s61 -24 95 -24c46 0 82.333 10 109 30s40 48 40 84c0 32.667 -10.5 60 -31.5 82s-52.833 42.333 -95.5 61l-68 29
c-53.333 23.333 -92 50.833 -116 82.5s-36 69.5 -36 113.5c0 50.667 20.167 92.167 60.5 124.5s87.833 48.5 142.5 48.5c78.667 0 142.667 -29.333 192 -88l-53 -52c-36.667 46 -84 69 -142 69c-35.333 0 -65.166 -9.33301 -89.499 -28s-36.5 -43.667 -36.5 -75
c0 -28.667 8.66699 -53.334 26 -74.001s46 -40 86 -58l68 -29c53.333 -24 94.5 -51.5 123.5 -82.5s43.5 -69.833 43.5 -116.5c0 -57.333 -20 -103.666 -60 -138.999s-94.333 -53 -163 -53zM173.999 -165.001l97 165h50l-67 -165h-80z" />
    <glyph glyph-name="scedilla" unicode="&#x15f;" horiz-adv-x="415" 
d="M206 -8c-78.667 0 -136.667 34.333 -174 103l56 37c28 -51.333 68 -77 120 -77c28.667 0 52.5 6.83301 71.5 20.5s28.5 31.5 28.5 53.5c0 22.667 -7.16699 40.5 -21.5 53.5s-38.166 25.5 -71.499 37.5l-42 16c-77.333 28.667 -116 76.334 -116 143.001
c0 37.333 14.167 68.166 42.5 92.499s64.5 36.5 108.5 36.5c67.333 0 115.666 -28.333 144.999 -85l-56 -32c-17.333 36 -47 54 -89 54c-24 0 -43.667 -5.83301 -59 -17.5s-23 -27.5 -23 -47.5c0 -19.333 6 -35.5 18 -48.5s33 -25.167 63 -36.5l44 -16
c43.333 -16 75.333 -35.667 96 -59s31 -53 31 -89c0 -39.333 -15.667 -72.333 -47 -99s-73 -40 -125 -40zM100 -165l97 165h50l-67 -165h-80z" />
    <glyph glyph-name="Scaron" unicode="&#x160;" horiz-adv-x="524" 
d="M260 -8c-46.667 0 -90.001 10.332 -130.001 30.999s-71.333 46.334 -94 77.001l57 49c18.667 -25.333 42.667 -46 72 -62s61 -24 95 -24c46 0 82.333 10 109 30s40 48 40 84c0 32.667 -10.5 60 -31.5 82s-52.833 42.333 -95.5 61l-68 29
c-53.333 23.333 -92 50.833 -116 82.5s-36 69.5 -36 113.5c0 50.667 20.167 92.167 60.5 124.5s87.833 48.5 142.5 48.5c78.667 0 142.667 -29.333 192 -88l-53 -52c-36.667 46 -84 69 -142 69c-35.333 0 -65.166 -9.33301 -89.499 -28s-36.5 -43.667 -36.5 -75
c0 -28.667 8.66699 -53.334 26 -74.001s46 -40 86 -58l68 -29c53.333 -24 94.5 -51.5 123.5 -82.5s43.5 -69.833 43.5 -116.5c0 -57.333 -20 -103.666 -60 -138.999s-94.333 -53 -163 -53zM405.999 926.999l29 -49l-171 -109l-171 109l29 49l142 -94z" />
    <glyph glyph-name="scaron" unicode="&#x161;" horiz-adv-x="415" 
d="M206 -8c-78.667 0 -136.667 34.333 -174 103l56 37c28 -51.333 68 -77 120 -77c28.667 0 52.5 6.83301 71.5 20.5s28.5 31.5 28.5 53.5c0 22.667 -7.16699 40.5 -21.5 53.5s-38.166 25.5 -71.499 37.5l-42 16c-77.333 28.667 -116 76.334 -116 143.001
c0 37.333 14.167 68.166 42.5 92.499s64.5 36.5 108.5 36.5c67.333 0 115.666 -28.333 144.999 -85l-56 -32c-17.333 36 -47 54 -89 54c-24 0 -43.667 -5.83301 -59 -17.5s-23 -27.5 -23 -47.5c0 -19.333 6 -35.5 18 -48.5s33 -25.167 63 -36.5l44 -16
c43.333 -16 75.333 -35.667 96 -59s31 -53 31 -89c0 -39.333 -15.667 -72.333 -47 -99s-73 -40 -125 -40zM211 556l-158 116l31 45l127 -94l127 94l31 -45z" />
    <glyph glyph-name="uni0162" unicode="&#x162;" horiz-adv-x="517" 
d="M221 0v638h-206v72h487v-72h-207v-638h-74zM136 -215l79 165h81l-106 -165h-54z" />
    <glyph glyph-name="uni0163" unicode="&#x163;" horiz-adv-x="350" 
d="M322 0l-64.999 0.000976562c-97.333 0 -146 47.667 -146 143v293h-87l-16 64h103v115l70 35v-150h150l-16 -64h-134v-279c0 -32.667 6.16699 -56.334 18.5 -71.001s34.166 -22 65.499 -22h57v-64zM95.001 -214.999l79 165h81l-106 -165h-54z" />
    <glyph glyph-name="Tcaron" unicode="&#x164;" horiz-adv-x="517" 
d="M221 0v638h-206v72h487v-72h-207v-638h-74zM399 927l29 -49l-171 -109l-171 109l29 49l142 -94z" />
    <glyph glyph-name="tcaron" unicode="&#x165;" horiz-adv-x="350" 
d="M322 0l-64.999 0.000976562c-97.333 0 -146 47.667 -146 143v293h-87l-16 64h103v115l70 35v-150h150l-16 -64h-134v-279c0 -32.667 6.16699 -56.334 18.5 -71.001s34.166 -22 65.499 -22h57v-64zM252.001 544.001l26 166h71l-47 -166h-50z" />
    <glyph glyph-name="Tbar" unicode="&#x166;" horiz-adv-x="555" 
d="M240 0v638h-206v72h487v-72h-207v-638h-74zM78 344v61h399v-61h-399z" />
    <glyph glyph-name="tbar" unicode="&#x167;" horiz-adv-x="365" 
d="M331 0l-64.999 0.000976562c-97.333 0 -146 47.667 -146 143v293h-87l-16 64h103v115l70 35v-150h150l-16 -64h-134v-279c0 -32.667 6.16699 -56.334 18.5 -71.001s34.166 -22 65.499 -22h57v-64zM25.001 284.001v54h308v-54h-308z" />
    <glyph glyph-name="Utilde" unicode="&#x168;" horiz-adv-x="736" 
d="M368 -8c-84 0 -151.331 24.5 -201.998 73.5s-76 116.5 -76 202.5v442h74v-445c0 -65.333 18.167 -115.333 54.5 -150s86.166 -52 149.499 -52s113.166 17.333 149.499 52s54.5 84.667 54.5 150v445h74v-442c0 -86 -25.333 -153.5 -76 -202.5s-118 -73.5 -202 -73.5z
M196.002 789l2.99805 17c5.33301 28 17 50 35 66s38.667 24 62 24c20.667 0 45.5 -8.33301 74.5 -25s48.833 -25 59.5 -25c14.667 0 26 4 34 12s13.667 20.667 17 38h55l-3 -16c-5.33301 -28 -16.833 -50 -34.5 -66s-38.5 -24 -62.5 -24c-20.667 0 -45.667 8.33301 -75 25
s-49.666 25 -60.999 25c-25.333 0 -41.666 -17 -48.999 -51h-55z" />
    <glyph glyph-name="utilde" unicode="&#x169;" horiz-adv-x="578" 
d="M429 0l-0.00195312 68c-38 -50.667 -92 -76 -162 -76c-60 0 -107.5 18.333 -142.5 55s-52.5 86 -52.5 148v305h70v-300c0 -42.667 12.333 -77 37 -103s58.334 -39 101.001 -39c74.667 0 124.334 36.667 149.001 110v332h70v-500h-70zM115.998 570l2.99805 17
c5.33301 28 17 50 35 66s38.667 24 62 24c20.667 0 45.5 -8.33301 74.5 -25s48.833 -25 59.5 -25c14.667 0 26 4 34 12s13.667 20.667 17 38h55l-3 -16c-5.33301 -28 -16.833 -50 -34.5 -66s-38.5 -24 -62.5 -24c-20.667 0 -45.667 8.33301 -75 25s-49.666 25 -60.999 25
c-25.333 0 -41.666 -17 -48.999 -51h-55z" />
    <glyph glyph-name="Umacron" unicode="&#x16a;" horiz-adv-x="736" 
d="M368 -8c-84 0 -151.331 24.5 -201.998 73.5s-76 116.5 -76 202.5v442h74v-445c0 -65.333 18.167 -115.333 54.5 -150s86.166 -52 149.499 -52s113.166 17.333 149.499 52s54.5 84.667 54.5 150v445h74v-442c0 -86 -25.333 -153.5 -76 -202.5s-118 -73.5 -202 -73.5z
M222.002 810v54h288v-54h-288z" />
    <glyph glyph-name="umacron" unicode="&#x16b;" horiz-adv-x="578" 
d="M429 0l-0.00195312 68c-38 -50.667 -92 -76 -162 -76c-60 0 -107.5 18.333 -142.5 55s-52.5 86 -52.5 148v305h70v-300c0 -42.667 12.333 -77 37 -103s58.334 -39 101.001 -39c74.667 0 124.334 36.667 149.001 110v332h70v-500h-70zM140.998 625v54h288v-54h-288z" />
    <glyph glyph-name="Ubreve" unicode="&#x16c;" horiz-adv-x="736" 
d="M368 -8c-84 0 -151.331 24.5 -201.998 73.5s-76 116.5 -76 202.5v442h74v-445c0 -65.333 18.167 -115.333 54.5 -150s86.166 -52 149.499 -52s113.166 17.333 149.499 52s54.5 84.667 54.5 150v445h74v-442c0 -86 -25.333 -153.5 -76 -202.5s-118 -73.5 -202 -73.5z
M365.002 774c-44.667 0 -80.668 12.667 -108.001 38s-41.666 57 -42.999 95h53c2.66699 -25.333 12.5 -45.666 29.5 -60.999s40.167 -23 69.5 -23s52.666 7.66699 69.999 23s27.333 35.666 30 60.999h53c-2.66699 -38.667 -17.667 -70.5 -45 -95.5
s-63.666 -37.5 -108.999 -37.5z" />
    <glyph glyph-name="ubreve" unicode="&#x16d;" horiz-adv-x="578" 
d="M429 0l-0.00195312 68c-38 -50.667 -92 -76 -162 -76c-60 0 -107.5 18.333 -142.5 55s-52.5 86 -52.5 148v305h70v-300c0 -42.667 12.333 -77 37 -103s58.334 -39 101.001 -39c74.667 0 124.334 36.667 149.001 110v332h70v-500h-70zM284.998 577
c-46.667 0 -83.168 12.333 -109.501 37s-40.833 56.667 -43.5 96h56c2 -25.333 11.333 -45.666 28 -60.999s39.667 -23 69 -23s52.333 7.66699 69 23s26.334 35.666 29.001 60.999h55c-2.66699 -39.333 -17.167 -71.333 -43.5 -96s-62.833 -37 -109.5 -37z" />
    <glyph glyph-name="Uring" unicode="&#x16e;" horiz-adv-x="736" 
d="M368 -8c-84 0 -151.331 24.5 -201.998 73.5s-76 116.5 -76 202.5v442h74v-445c0 -65.333 18.167 -115.333 54.5 -150s86.166 -52 149.499 -52s113.166 17.333 149.499 52s54.5 84.667 54.5 150v445h74v-442c0 -86 -25.333 -153.5 -76 -202.5s-118 -73.5 -202 -73.5z
M366.002 752c-26 0 -48.167 8.83301 -66.5 26.5s-27.5 39.167 -27.5 64.5c0 26 9.16699 47.667 27.5 65s40.5 26 66.5 26s48.167 -8.66699 66.5 -26s27.5 -39 27.5 -65c0 -25.333 -9.16699 -46.833 -27.5 -64.5s-40.5 -26.5 -66.5 -26.5zM366.002 792
c14.667 0 26.834 4.66699 36.501 14s14.5 21.666 14.5 36.999s-4.83301 27.666 -14.5 36.999s-21.834 14 -36.501 14s-26.834 -4.66699 -36.501 -14s-14.5 -21.666 -14.5 -36.999s4.83301 -27.666 14.5 -36.999s21.834 -14 36.501 -14z" />
    <glyph glyph-name="uring" unicode="&#x16f;" horiz-adv-x="578" 
d="M429 0l-0.00195312 68c-38 -50.667 -92 -76 -162 -76c-60 0 -107.5 18.333 -142.5 55s-52.5 86 -52.5 148v305h70v-300c0 -42.667 12.333 -77 37 -103s58.334 -39 101.001 -39c74.667 0 124.334 36.667 149.001 110v332h70v-500h-70zM284.998 572
c-26 0 -48.167 8.83301 -66.5 26.5s-27.5 39.167 -27.5 64.5c0 26 9.16699 47.667 27.5 65s40.5 26 66.5 26s48.167 -8.66699 66.5 -26s27.5 -39 27.5 -65c0 -25.333 -9.16699 -46.833 -27.5 -64.5s-40.5 -26.5 -66.5 -26.5zM284.998 612c14.667 0 26.834 4.66699 36.501 14
s14.5 21.666 14.5 36.999s-4.83301 27.666 -14.5 36.999s-21.834 14 -36.501 14s-26.834 -4.66699 -36.501 -14s-14.5 -21.666 -14.5 -36.999s4.83301 -27.666 14.5 -36.999s21.834 -14 36.501 -14z" />
    <glyph glyph-name="Uhungarumlaut" unicode="&#x170;" horiz-adv-x="736" 
d="M368 -8c-84 0 -151.331 24.5 -201.998 73.5s-76 116.5 -76 202.5v442h74v-445c0 -65.333 18.167 -115.333 54.5 -150s86.166 -52 149.499 -52s113.166 17.333 149.499 52s54.5 84.667 54.5 150v445h74v-442c0 -86 -25.333 -153.5 -76 -202.5s-118 -73.5 -202 -73.5z
M245.002 768l85 145h84l-112 -145h-57zM445.002 768l85 145h84l-112 -145h-57z" />
    <glyph glyph-name="uhungarumlaut" unicode="&#x171;" horiz-adv-x="578" 
d="M429 0l-0.00195312 68c-38 -50.667 -92 -76 -162 -76c-60 0 -107.5 18.333 -142.5 55s-52.5 86 -52.5 148v305h70v-300c0 -42.667 12.333 -77 37 -103s58.334 -39 101.001 -39c74.667 0 124.334 36.667 149.001 110v332h70v-500h-70zM177.998 549l91 161h82l-120 -161
h-53zM344.998 549l90 161h82l-119 -161h-53z" />
    <glyph glyph-name="Uogonek" unicode="&#x172;" horiz-adv-x="736" 
d="M368 -8c-84 0 -151.331 24.5 -201.998 73.5s-76 116.5 -76 202.5v442h74v-445c0 -65.333 18.167 -115.333 54.5 -150s86.166 -52 149.499 -52s113.166 17.333 149.499 52s54.5 84.667 54.5 150v445h74v-442c0 -86 -25.333 -153.5 -76 -202.5s-118 -73.5 -202 -73.5z
M380.002 -192c-28 0 -51.999 7.50195 -71.999 22.502s-30 35.833 -30 62.5c0 23.333 8.16699 45.166 24.5 65.499s35.166 34.833 56.499 43.5l74 -2c-55.333 -24.667 -83 -55.334 -83 -92.001c0 -30.667 17.667 -46 53 -46c10 0 22 2.66699 36 8v-49
c-13.333 -8.66699 -33 -13 -59 -13z" />
    <glyph glyph-name="uogonek" unicode="&#x173;" horiz-adv-x="578" 
d="M429 0l-0.00195312 68c-38 -50.667 -92 -76 -162 -76c-60 0 -107.5 18.333 -142.5 55s-52.5 86 -52.5 148v305h70v-300c0 -42.667 12.333 -77 37 -103s58.334 -39 101.001 -39c74.667 0 124.334 36.667 149.001 110v332h70v-500h-70zM445.998 -192
c-27.333 0 -50.666 7.49805 -69.999 22.498s-29 35.833 -29 62.5c0 23.333 8.5 45 25.5 65s35.833 34.667 56.5 44l70 -2c-26 -11.333 -46.333 -25.166 -61 -41.499s-22 -33.166 -22 -50.499c0 -30.667 17.667 -46 53 -46c8 0 15 1 21 3l15 5v-49
c-12.667 -8.66699 -32.334 -13 -59.001 -13z" />
    <glyph glyph-name="Wcircumflex" unicode="&#x174;" horiz-adv-x="885" 
d="M248 -8l-236 718h76l165 -518l189 526l190 -526l165 518h76l-236 -718l-194 538zM300 768l-29 49l171 109l171 -109l-29 -49l-142 94z" />
    <glyph glyph-name="wcircumflex" unicode="&#x175;" horiz-adv-x="709" 
d="M176 -1l-164 501h73l124 -386l146 394l146 -394l123 386h73l-163 -501h-53l-126 341l-125 -341h-54zM355 718l158 -116l-31 -45l-127 94l-127 -94l-31 45z" />
    <glyph glyph-name="Ycircumflex" unicode="&#x176;" horiz-adv-x="616" 
d="M271 0v301l-260 409h86l211 -337l211 337h86l-260 -409v-301h-74zM167 768l-29 49l171 109l171 -109l-29 -49l-142 94z" />
    <glyph glyph-name="ycircumflex" unicode="&#x177;" horiz-adv-x="507" 
d="M116 -184l102 218l-212 466h76l172 -389l174 389h76l-313 -684h-75zM256 718l158 -116l-31 -45l-127 94l-127 -94l-31 45z" />
    <glyph glyph-name="Ydieresis" unicode="&#x178;" horiz-adv-x="616" 
d="M271 0v301l-260 409h86l211 -337l211 337h86l-260 -409v-301h-74zM421 788c-15.333 0 -28.5 5.33301 -39.5 16s-16.5 24 -16.5 40c0 15.333 5.5 28.333 16.5 39s24.167 16 39.5 16s28.333 -5.33301 39 -16s16 -23.667 16 -39c0 -16 -5.33301 -29.333 -16 -40
s-23.667 -16 -39 -16zM199 788c-15.333 0 -28.5 5.33301 -39.5 16s-16.5 24 -16.5 40c0 15.333 5.33301 28.333 16 39s24 16 40 16c15.333 0 28.333 -5.33301 39 -16s16 -23.667 16 -39c0 -16 -5.5 -29.333 -16.5 -40s-23.833 -16 -38.5 -16z" />
    <glyph glyph-name="Zacute" unicode="&#x179;" horiz-adv-x="584" 
d="M426 638l-418 -638h547v72h-419l417 638h-499v-72h372zM449 913l-112 -145h-60l84 145h88z" />
    <glyph glyph-name="zacute" unicode="&#x17a;" horiz-adv-x="484" 
d="M331 436l-315 -436h430v64h-304l314 436h-407v-64h282zM397 710l-119 -160h-59l90 160h88z" />
    <glyph glyph-name="Zdotaccent" unicode="&#x17b;" horiz-adv-x="584" 
d="M8 0l418 638h-372v72h499l-417 -638h419v-72h-547zM306 788c-16 0 -29.333 5.33301 -40 16s-16 24 -16 40c0 15.333 5.5 28.333 16.5 39s24.167 16 39.5 16s28.5 -5.33301 39.5 -16s16.5 -23.667 16.5 -39c0 -16 -5.5 -29.333 -16.5 -40s-24.167 -16 -39.5 -16z" />
    <glyph glyph-name="zdotaccent" unicode="&#x17c;" horiz-adv-x="484" 
d="M16 0l315 436h-282v64h407l-314 -436h304v-64h-430zM253 576c-16 0 -29.333 5.33301 -40 16s-16 24 -16 40c0 15.333 5.5 28.333 16.5 39s24.167 16 39.5 16s28.5 -5.33301 39.5 -16s16.5 -23.667 16.5 -39c0 -16 -5.5 -29.333 -16.5 -40s-24.167 -16 -39.5 -16z" />
    <glyph glyph-name="Zcaron" unicode="&#x17d;" horiz-adv-x="584" 
d="M8 0l418 638h-372v72h499l-417 -638h419v-72h-547zM448 927l29 -49l-171 -109l-171 109l29 49l142 -94z" />
    <glyph glyph-name="zcaron" unicode="&#x17e;" horiz-adv-x="484" 
d="M16 0l315 436h-282v64h407l-314 -436h304v-64h-430zM252 556l-158 116l31 45l127 -94l127 94l31 -45z" />
    <glyph glyph-name="uni018F" unicode="&#x18f;" horiz-adv-x="782" 
d="M388 -7c-110 0 -195.834 36.332 -257.501 108.999s-92.5 163.667 -92.5 273h618c-4 78 -32.167 143 -84.5 195s-116.166 78 -191.499 78c-88 0 -167.667 -31.333 -239 -94l-48 52c75.333 75.333 171 113 287 113c100 0 184 -34.667 252 -104s102 -155.666 102 -258.999
c0 -102 -33.167 -188 -99.5 -258s-148.5 -105 -246.5 -105zM387.999 63.999c70 0 129.501 22.1689 178.501 66.502s78.167 102.166 87.5 173.499h-533c8 -70.667 35.667 -128.334 83 -173.001s108.666 -67 183.999 -67z" />
    <glyph glyph-name="uni0218" unicode="&#x218;" horiz-adv-x="524" 
d="M260 -8c-46.667 0 -90.001 10.332 -130.001 30.999s-71.333 46.334 -94 77.001l57 49c18.667 -25.333 42.667 -46 72 -62s61 -24 95 -24c46 0 82.333 10 109 30s40 48 40 84c0 32.667 -10.5 60 -31.5 82s-52.833 42.333 -95.5 61l-68 29
c-53.333 23.333 -92 50.833 -116 82.5s-36 69.5 -36 113.5c0 50.667 20.167 92.167 60.5 124.5s87.833 48.5 142.5 48.5c78.667 0 142.667 -29.333 192 -88l-53 -52c-36.667 46 -84 69 -142 69c-35.333 0 -65.166 -9.33301 -89.499 -28s-36.5 -43.667 -36.5 -75
c0 -28.667 8.66699 -53.334 26 -74.001s46 -40 86 -58l68 -29c53.333 -24 94.5 -51.5 123.5 -82.5s43.5 -69.833 43.5 -116.5c0 -57.333 -20 -103.666 -60 -138.999s-94.333 -53 -163 -53zM138.999 -215.001l79 165h81l-106 -165h-54z" />
    <glyph glyph-name="uni0219" unicode="&#x219;" horiz-adv-x="415" 
d="M206 -8c-78.667 0 -136.667 34.333 -174 103l56 37c28 -51.333 68 -77 120 -77c28.667 0 52.5 6.83301 71.5 20.5s28.5 31.5 28.5 53.5c0 22.667 -7.16699 40.5 -21.5 53.5s-38.166 25.5 -71.499 37.5l-42 16c-77.333 28.667 -116 76.334 -116 143.001
c0 37.333 14.167 68.166 42.5 92.499s64.5 36.5 108.5 36.5c67.333 0 115.666 -28.333 144.999 -85l-56 -32c-17.333 36 -47 54 -89 54c-24 0 -43.667 -5.83301 -59 -17.5s-23 -27.5 -23 -47.5c0 -19.333 6 -35.5 18 -48.5s33 -25.167 63 -36.5l44 -16
c43.333 -16 75.333 -35.667 96 -59s31 -53 31 -89c0 -39.333 -15.667 -72.333 -47 -99s-73 -40 -125 -40zM91 -215l79 165h81l-106 -165h-54z" />
    <glyph glyph-name="uni021A" unicode="&#x21a;" horiz-adv-x="517" 
d="M221 0v638h-206v72h487v-72h-207v-638h-74zM136 -215l79 165h81l-106 -165h-54z" />
    <glyph glyph-name="uni021B" unicode="&#x21b;" horiz-adv-x="350" 
d="M322 0l-64.999 0.000976562c-97.333 0 -146 47.667 -146 143v293h-87l-16 64h103v115l70 35v-150h150l-16 -64h-134v-279c0 -32.667 6.16699 -56.334 18.5 -71.001s34.166 -22 65.499 -22h57v-64zM95.001 -214.999l79 165h81l-106 -165h-54z" />
    <glyph glyph-name="uni0232" unicode="&#x232;" horiz-adv-x="616" 
d="M271 0v301l-260 409h86l211 -337l211 337h86l-260 -409v-301h-74zM165 810v54h288v-54h-288z" />
    <glyph glyph-name="uni0233" unicode="&#x233;" horiz-adv-x="507" 
d="M116 -184l102 218l-212 466h76l172 -389l174 389h76l-313 -684h-75zM112 625v54h288v-54h-288z" />
    <glyph glyph-name="uni0237" unicode="&#x237;" horiz-adv-x="236" 
d="M-20 -184v64h25c30.667 0 52 7.5 64 22.5s18 38.5 18 70.5v527h70v-541c0 -95.333 -48.667 -143 -146 -143h-31z" />
    <glyph glyph-name="uni0259" unicode="&#x259;" horiz-adv-x="573" 
d="M272 509c74 0 135.333 -24.832 184 -74.499s73 -110.834 73 -183.501c0 -72 -24.167 -133 -72.5 -183s-107.5 -75 -177.5 -75c-73.333 0 -132 25.167 -176 75.5s-66 115.833 -66 196.5h421c-4 52.667 -23.5 95.5 -58.5 128.5s-77.5 49.5 -127.5 49.5
c-61.333 0 -113 -21 -155 -63l-45 49c52 53.333 118.667 80 200 80zM283 58.001c40 0 76 12.666 108 37.999s52.667 61 62 107h-337c6 -46.667 24 -82.667 54 -108s67.667 -37.666 113 -36.999z" />
    <glyph glyph-name="uni02BB" unicode="&#x2bb;" horiz-adv-x="234" 
d="M167 709l-44 -140h46v-112h-108v113l56 139h50z" />
    <glyph glyph-name="uni02BC" unicode="&#x2bc;" horiz-adv-x="227" 
d="M69 452l44 140h-46v112h108v-113l-56 -139h-50z" />
    <glyph glyph-name="circumflex" unicode="&#x2c6;" 
d="M0 718l158 -116l-31 -45l-127 94l-127 -94l-31 45z" />
    <glyph glyph-name="caron" unicode="&#x2c7;" 
d="M0 556l-158 116l31 45l127 -94l127 94l31 -45z" />
    <glyph glyph-name="breve" unicode="&#x2d8;" 
d="M0 577c-46.667 0 -83.168 12.333 -109.501 37s-40.833 56.667 -43.5 96h56c2 -25.333 11.333 -45.666 28 -60.999s39.667 -23 69 -23s52.333 7.66699 69 23s26.334 35.666 29.001 60.999h55c-2.66699 -39.333 -17.167 -71.333 -43.5 -96s-62.833 -37 -109.5 -37z" />
    <glyph glyph-name="dotaccent" unicode="&#x2d9;" 
d="M0 576c-16 0 -29.333 5.33301 -40 16s-16 24 -16 40c0 15.333 5.5 28.333 16.5 39s24.167 16 39.5 16s28.5 -5.33301 39.5 -16s16.5 -23.667 16.5 -39c0 -16 -5.5 -29.333 -16.5 -40s-24.167 -16 -39.5 -16z" />
    <glyph glyph-name="ring" unicode="&#x2da;" 
d="M0 572c-26 0 -48.167 8.83301 -66.5 26.5s-27.5 39.167 -27.5 64.5c0 26 9.16699 47.667 27.5 65s40.5 26 66.5 26s48.167 -8.66699 66.5 -26s27.5 -39 27.5 -65c0 -25.333 -9.16699 -46.833 -27.5 -64.5s-40.5 -26.5 -66.5 -26.5zM0 612
c14.667 0 26.834 4.66699 36.501 14s14.5 21.666 14.5 36.999s-4.83301 27.666 -14.5 36.999s-21.834 14 -36.501 14s-26.834 -4.66699 -36.501 -14s-14.5 -21.666 -14.5 -36.999s4.83301 -27.666 14.5 -36.999s21.834 -14 36.501 -14z" />
    <glyph glyph-name="ogonek" unicode="&#x2db;" 
d="M20 -192c-27.333 0 -50.666 7.49805 -69.999 22.498s-29 35.833 -29 62.5c0 23.333 8.5 45 25.5 65s35.833 34.667 56.5 44l70 -2c-26 -11.333 -46.333 -25.166 -61 -41.499s-22 -33.166 -22 -50.499c0 -30.667 17.667 -46 53 -46c8 0 15 1 21 3l15 5v-49
c-12.667 -8.66699 -32.334 -13 -59.001 -13z" />
    <glyph glyph-name="tilde" unicode="&#x2dc;" 
d="M-169 570l2.99805 17c5.33301 28 17 50 35 66s38.667 24 62 24c20.667 0 45.5 -8.33301 74.5 -25s48.833 -25 59.5 -25c14.667 0 26 4 34 12s13.667 20.667 17 38h55l-3 -16c-5.33301 -28 -16.833 -50 -34.5 -66s-38.5 -24 -62.5 -24c-20.667 0 -45.667 8.33301 -75 25
s-49.666 25 -60.999 25c-25.333 0 -41.666 -17 -48.999 -51h-55z" />
    <glyph glyph-name="hungarumlaut" unicode="&#x2dd;" 
d="M-169 549l91 161h82l-120 -161h-53zM-2 549l90 161h82l-119 -161h-53z" />
    <glyph glyph-name="uni0326" unicode="&#x326;" 
d="M-91 -215l79 165h81l-106 -165h-54z" />
    <glyph glyph-name="uni0401" unicode="&#x401;" horiz-adv-x="554" 
d="M99 0v710h405v-72h-332v-238h272v-72h-272v-256h332v-72h-405zM413 788c-15.333 0 -28.5 5.33301 -39.5 16s-16.5 24 -16.5 40c0 15.333 5.5 28.333 16.5 39s24.167 16 39.5 16s28.333 -5.33301 39 -16s16 -23.667 16 -39c0 -16 -5.33301 -29.333 -16 -40
s-23.667 -16 -39 -16zM191 788c-15.333 0 -28.5 5.33301 -39.5 16s-16.5 24 -16.5 40c0 15.333 5.33301 28.333 16 39s24 16 40 16c15.333 0 28.333 -5.33301 39 -16s16 -23.667 16 -39c0 -16 -5.5 -29.333 -16.5 -40s-23.833 -16 -38.5 -16z" />
    <glyph glyph-name="uni0402" unicode="&#x402;" horiz-adv-x="718" 
d="M188 0l-0.00195312 638.001h-172v72h472v-72h-226v-238c74 27.333 141.333 41 202 41c67.333 0 120 -20.5 158 -61.5s57 -100.167 57 -177.5c0 -92.667 -26.167 -166.334 -78.5 -221.001s-116.166 -82 -191.499 -82h-14v67h12c16 0 32.333 2.16699 49 6.5s34 12 52 23
s34.167 24.833 48.5 41.5s26 38.5 35 65.5s13.5 57.5 13.5 91.5c0 57.333 -13.167 100.833 -39.5 130.5s-64.166 44.5 -113.499 44.5c-35.333 0 -66 -3 -92 -9s-58.667 -16.333 -98 -31v-329h-74z" />
    <glyph glyph-name="uni0403" unicode="&#x403;" horiz-adv-x="502" 
d="M486 638v72h-387v-710h73v638h314zM435 913l-112 -145h-60l84 145h88z" />
    <glyph glyph-name="uni0404" unicode="&#x404;" horiz-adv-x="725" 
d="M410 -8c-102 0 -187.836 34.833 -257.503 104.5s-104.5 155.834 -104.5 258.501c0 102 35 188 105 258s155.667 105 257 105c58 0 112.167 -12.333 162.5 -37s89.5 -56 117.5 -94l-53 -46c-25.333 32.667 -57.666 58.667 -96.999 78s-82.666 29 -129.999 29
c-73.333 0 -136.666 -23.833 -189.999 -71.5s-84.666 -107.834 -93.999 -180.501h370v-72h-371c8 -76 38.333 -138.5 91 -187.5s117.334 -73.5 194.001 -73.5c47.333 0 90.666 9.66699 129.999 29s71.666 45.333 96.999 78l53 -47c-28 -38 -67.167 -69.333 -117.5 -94
s-104.5 -37 -162.5 -37z" />
    <glyph glyph-name="uni0405" unicode="&#x405;" horiz-adv-x="524" 
d="M260 -8c-46.667 0 -90.001 10.332 -130.001 30.999s-71.333 46.334 -94 77.001l57 49c18.667 -25.333 42.667 -46 72 -62s61 -24 95 -24c46 0 82.333 10 109 30s40 48 40 84c0 32.667 -10.5 60 -31.5 82s-52.833 42.333 -95.5 61l-68 29
c-53.333 23.333 -92 50.833 -116 82.5s-36 69.5 -36 113.5c0 50.667 20.167 92.167 60.5 124.5s87.833 48.5 142.5 48.5c78.667 0 142.667 -29.333 192 -88l-53 -52c-36.667 46 -84 69 -142 69c-35.333 0 -65.166 -9.33301 -89.499 -28s-36.5 -43.667 -36.5 -75
c0 -28.667 8.66699 -53.334 26 -74.001s46 -40 86 -58l68 -29c53.333 -24 94.5 -51.5 123.5 -82.5s43.5 -69.833 43.5 -116.5c0 -57.333 -20 -103.666 -60 -138.999s-94.333 -53 -163 -53z" />
    <glyph glyph-name="uni0406" unicode="&#x406;" horiz-adv-x="272" 
d="M99 0v710h74v-710h-74z" />
    <glyph glyph-name="uni0407" unicode="&#x407;" horiz-adv-x="272" 
d="M40 788c-16 0 -29.333 5.33301 -40 16s-16 24 -16 40c0 15.333 5.5 28.333 16.5 39s24.167 16 39.5 16s28.5 -5.33301 39.5 -16s16.5 -23.667 16.5 -39c0 -16 -5.5 -29.333 -16.5 -40s-24.167 -16 -39.5 -16zM232 788c-16 0 -29.333 5.33301 -40 16s-16 24 -16 40
c0 15.333 5.5 28.333 16.5 39s24.167 16 39.5 16s28.5 -5.33301 39.5 -16s16.5 -23.667 16.5 -39c0 -16 -5.5 -29.333 -16.5 -40s-24.167 -16 -39.5 -16zM99 0v710h74v-710h-74z" />
    <glyph glyph-name="uni0408" unicode="&#x408;" horiz-adv-x="523" 
d="M226 -8c-58.667 0 -107.333 17.833 -146 53.5s-58 85.5 -58 149.5h74c0 -42.667 11.833 -75.334 35.5 -98.001s55.167 -34 94.5 -34c40 0 71.833 11.333 95.5 34s35.5 55.334 35.5 98.001v515h74v-519c0 -63.333 -19.5 -112.333 -58.5 -147s-87.833 -52 -146.5 -52z" />
    <glyph glyph-name="uni0409" unicode="&#x409;" horiz-adv-x="950" 
d="M-5 0l343 718l144 -302h194c74.667 0 133.5 -19 176.5 -57s64.5 -88.333 64.5 -151c0 -63.333 -21.5 -113.833 -64.5 -151.5s-101.833 -56.5 -176.5 -56.5h-75l-263 561l-263 -561h-80zM676 347h-161l133 -279h28c53.333 0 94.5 12.333 123.5 37s43.5 59 43.5 103
s-14.333 78.167 -43 102.5s-70 36.5 -124 36.5z" />
    <glyph glyph-name="uni040A" unicode="&#x40a;" horiz-adv-x="1009" 
d="M99 0l-0.00195312 710h73v-310h368v310h74v-310h119c74.667 0 133.834 -18.333 177.501 -55s65.5 -83 65.5 -139c0 -62 -21.667 -111.833 -65 -149.5s-102.666 -56.5 -177.999 -56.5h-193v328h-368v-328h-73zM733.998 328l-120 -0.000976562v-260h120
c54.667 0 96.167 11.833 124.5 35.5s42.5 57.5 42.5 101.5c0 38.667 -14.167 68.834 -42.5 90.501s-69.833 32.5 -124.5 32.5z" />
    <glyph glyph-name="uni040B" unicode="&#x40b;" horiz-adv-x="743" 
d="M188 638h-172.001v72h472v-72h-226v-238c68.667 26.667 140 40 214 40c66.667 0 120 -19.5 160 -58.5s60 -89.833 60 -152.5v-229h-74v220c-0.666992 45.333 -14.167 81.5 -40.5 108.5s-63.166 40.5 -110.499 40.5c-72 0 -141.667 -13.333 -209 -40v-329h-74v638z" />
    <glyph glyph-name="uni040C" unicode="&#x40c;" horiz-adv-x="625" 
d="M99 710v-710h73v339l361 -339h100l-371 349l341 361h-92l-339 -359v359h-73zM482 913l-112 -145h-60l84 145h88z" />
    <glyph glyph-name="uni040E" unicode="&#x40e;" horiz-adv-x="649" 
d="M204 0l89 168l-278 542h82l237 -464l246 464h77l-376 -710h-77zM437 911h59.001c-1.33301 -46.667 -16.333 -83 -45 -109s-66.334 -39 -113.001 -39s-84.5 13 -113.5 39s-44.167 62.333 -45.5 109h60c1.33301 -32.667 10.833 -57.167 28.5 -73.5s41.167 -24.5 70.5 -24.5
s52.833 8.16699 70.5 24.5s27.167 40.833 28.5 73.5z" />
    <glyph glyph-name="uni040F" unicode="&#x40f;" horiz-adv-x="734" 
d="M403 0v-148h-73v148h-231v710h73v-638h389v638h74v-710h-232z" />
    <glyph glyph-name="uni0410" unicode="&#x410;" horiz-adv-x="675" 
d="M-5 0l343 718l342 -718h-79l-94 201h-338l-94 -201h-80zM201 269h274l-137 290z" />
    <glyph glyph-name="uni0411" unicode="&#x411;" horiz-adv-x="617" 
d="M172 638v-234h177c70 0 126.5 -18.5 169.5 -55.5s64.5 -86.5 64.5 -148.5c0 -63.333 -22.833 -112.5 -68.5 -147.5s-106.167 -52.5 -181.5 -52.5h-234v710h417v-72h-344zM172 69h174c52 0 92.167 11.667 120.5 35s42.5 56 42.5 98c0 41.333 -14.333 74 -43 98
s-68.667 36 -120 36h-174v-267z" />
    <glyph glyph-name="uni0412" unicode="&#x412;" horiz-adv-x="630" 
d="M99 0l-0.000976562 710.002h232c65.333 0 116 -17.333 152 -52s54 -78.334 54 -131.001c0 -68.667 -28 -119.334 -84 -152.001c87.333 -28 131 -87.333 131 -178c0 -62.667 -21.667 -111.167 -65 -145.5s-101.666 -51.5 -174.999 -51.5h-245zM172.999 397.002
l158 -0.000976562c41.333 0 73.5 11.333 96.5 34s34.5 52.334 34.5 89.001c0 34.667 -11.833 63.667 -35.5 87s-55.5 35 -95.5 35h-158v-245zM172.999 68.001l179.998 0.000976562c50.667 0 89.334 11.667 116.001 35s40 55.666 40 96.999c0 40 -13.167 72.167 -39.5 96.5
s-65.166 36.5 -116.499 36.5h-180v-265z" />
    <glyph glyph-name="uni0413" unicode="&#x413;" horiz-adv-x="502" 
d="M486 710v-72h-314v-638h-73v710h387z" />
    <glyph glyph-name="uni0414" unicode="&#x414;" horiz-adv-x="757" 
d="M16 -148v220h66l297 646l296 -646h66v-220h-72v148h-581v-148h-72zM158 72h441l-220 488z" />
    <glyph glyph-name="uni0415" unicode="&#x415;" horiz-adv-x="554" 
d="M99 0v710h405v-72h-332v-238h272v-72h-272v-256h332v-72h-405z" />
    <glyph glyph-name="uni0416" unicode="&#x416;" horiz-adv-x="940" 
d="M-7 0l352 349l-322 361h92l318 -358v358h74v-358l319 358h92l-323 -361l352 -349h-99l-341 339v-339h-74v339l-340 -339h-100z" />
    <glyph glyph-name="uni0417" unicode="&#x417;" horiz-adv-x="552" 
d="M106 581l-51 50c60 58 128.667 87 206 87c62.667 0 113.334 -17.667 152.001 -53s58 -81 58 -137c0 -74 -33.333 -126.333 -100 -157c38.667 -12 69.5 -32.833 92.5 -62.5s34.5 -66.5 34.5 -110.5c0 -64.667 -23.333 -115.167 -70 -151.5s-103.334 -54.5 -170.001 -54.5
c-49.333 0 -94.833 9.83301 -136.5 29.5s-75.5 46.834 -101.5 81.501l56 49c21.333 -28.667 48.333 -50.834 81 -66.501s67.334 -23.5 104.001 -23.5c48.667 0 88 13 118 39s45 59.333 45 100c0 40 -14 72.333 -42 97s-67.333 37 -118 37h-75v64h78
c40.667 0 72.5 11.833 95.5 35.5s34.5 53.167 34.5 88.5c0 38 -12.167 68.333 -36.5 91s-58.5 34 -102.5 34c-56.667 0 -107.334 -22.333 -152.001 -67z" />
    <glyph glyph-name="uni0418" unicode="&#x418;" horiz-adv-x="787" 
d="M99 -8v718h73v-543l516 551v-718h-74v543z" />
    <glyph glyph-name="uni0419" unicode="&#x419;" horiz-adv-x="787" 
d="M99 -8v718h73v-543l516 551v-718h-74v543zM504 911h59.001c-1.33301 -46.667 -16.333 -83 -45 -109s-66.334 -39 -113.001 -39s-84.5 13 -113.5 39s-44.167 62.333 -45.5 109h60c1.33301 -32.667 10.833 -57.167 28.5 -73.5s41.167 -24.5 70.5 -24.5
s52.833 8.16699 70.5 24.5s27.167 40.833 28.5 73.5z" />
    <glyph glyph-name="uni041A" unicode="&#x41a;" horiz-adv-x="625" 
d="M99 0v710h73v-359l339 359h92l-341 -361l371 -349h-100l-361 339v-339h-73z" />
    <glyph glyph-name="uni041B" unicode="&#x41b;" horiz-adv-x="676" 
d="M-5 0l343 718l343 -718h-80l-263 560l-263 -560h-80z" />
    <glyph glyph-name="uni041C" unicode="&#x41c;" horiz-adv-x="881" 
d="M99 0v718l342 -388l341 388v-718h-74v534l-267 -309l-268 309v-534h-74z" />
    <glyph glyph-name="uni041D" unicode="&#x41d;" horiz-adv-x="763" 
d="M99 0v710h73v-310h419v310h73v-710h-73v328h-419v-328h-73z" />
    <glyph glyph-name="uni041E" unicode="&#x41e;" horiz-adv-x="822" 
d="M411 -8c-102 0 -188 34.833 -258 104.5s-105 155.834 -105 258.501s35 188.834 105 258.501s156 104.5 258 104.5s188 -34.833 258 -104.5s105 -155.834 105 -258.501s-35 -188.834 -105 -258.501s-156 -104.5 -258 -104.5zM411 63c81.333 0 149.5 28 204.5 84
s82.5 125.333 82.5 208s-27.5 152 -82.5 208s-123.167 84 -204.5 84s-149.666 -28 -204.999 -84s-83 -125.333 -83 -208s27.667 -152 83 -208s123.666 -84 204.999 -84z" />
    <glyph glyph-name="uni041F" unicode="&#x41f;" horiz-adv-x="732" 
d="M559 0v638h-387v-638h-73v710h534v-710h-74z" />
    <glyph glyph-name="uni0420" unicode="&#x420;" horiz-adv-x="571" 
d="M99 0v709.999h200c74 0 132.333 -19.167 175 -57.5s64 -89.166 64 -152.499s-21.5 -114.333 -64.5 -153s-101.167 -58 -174.5 -58h-126v-289h-74zM173 357.999h125c53.333 0 94 12.5 122 37.5s42 59.833 42 104.5c0 44 -14 78.667 -42 104s-68.667 38 -122 38h-125v-284z
" />
    <glyph glyph-name="uni0421" unicode="&#x421;" horiz-adv-x="721" 
d="M410 -8c-102 0 -187.833 34.832 -257.5 104.499s-104.5 155.834 -104.5 258.501c0 102 35 188 105 258s155.667 105 257 105c58 0 112.167 -12.333 162.5 -37s89.5 -56 117.5 -94l-53 -46c-25.333 32.667 -57.666 58.667 -96.999 78s-82.666 29 -129.999 29
c-81.333 0 -149.333 -28.167 -204 -84.5s-82 -125.833 -82 -208.5s27.333 -152 82 -208s122.667 -84 204 -84c47.333 0 90.666 9.66699 129.999 29s71.666 45.333 96.999 78l53 -47c-28 -38 -67.167 -69.333 -117.5 -94s-104.5 -37 -162.5 -37z" />
    <glyph glyph-name="uni0422" unicode="&#x422;" horiz-adv-x="517" 
d="M221 0v638h-206v72h487v-72h-207v-638h-74z" />
    <glyph glyph-name="uni0423" unicode="&#x423;" horiz-adv-x="649" 
d="M204 0l89 168l-278 542h82l237 -464l246 464h77l-376 -710h-77z" />
    <glyph glyph-name="uni0424" unicode="&#x424;" horiz-adv-x="849" 
d="M461 -20h-72.999v87h-5c-105.333 2.66699 -188.166 30 -248.499 82s-90.5 122 -90.5 210c0 87.333 30.167 156.833 90.5 208.5s143.166 78.834 248.499 81.501h5v81h73v-81h5c105.333 -2.66699 188.166 -30 248.499 -82s90.5 -122 90.5 -210
c0 -87.333 -30 -156.833 -90 -208.5s-143 -78.834 -249 -81.501h-5v-87zM461.001 135l6 0.000976562c86.667 2 152.167 22.167 196.5 60.5s66.5 92.166 66.5 161.499c0 71.333 -22.167 126 -66.5 164s-109.833 58 -196.5 60h-6v-446zM388.001 135.001v446h-6
c-86 -2 -151.333 -22 -196 -60s-67 -92 -67 -162c0 -71.333 22.167 -126 66.5 -164s109.833 -58 196.5 -60h6z" />
    <glyph glyph-name="uni0425" unicode="&#x425;" horiz-adv-x="631" 
d="M6 0l263 364l-247 346h85l208 -290l208 290h85l-245 -346l261 -364h-84l-224 309l-223 -309h-87z" />
    <glyph glyph-name="uni0426" unicode="&#x426;" horiz-adv-x="747" 
d="M623 72h87v-220h-72v148h-539v710h73v-638h378v638h73v-638z" />
    <glyph glyph-name="uni0427" unicode="&#x427;" horiz-adv-x="682" 
d="M583 0h-74.001v313c-70.667 -25.333 -144.667 -38 -222 -38c-75.333 0 -134.166 18.167 -176.499 54.5s-63.5 88.833 -63.5 157.5v223h74v-208c0 -104 58.667 -156 176 -156c77.333 0 148 12.667 212 38v326h74v-710z" />
    <glyph glyph-name="uni0428" unicode="&#x428;" horiz-adv-x="973" 
d="M99 0v710h73v-638h278v638h74v-638h276v638h74v-710h-775z" />
    <glyph glyph-name="uni0429" unicode="&#x429;" horiz-adv-x="998" 
d="M450 72v638h74v-638h276v638h74v-638h87v-220h-73v148h-789v710h73v-638h278z" />
    <glyph glyph-name="uni042A" unicode="&#x42a;" horiz-adv-x="688" 
d="M210 0v638h-194v72h268v-294h129c74 0 132.667 -19 176 -57s65 -88.333 65 -151c0 -63.333 -21.667 -113.833 -65 -151.5s-102.333 -56.5 -177 -56.5h-202zM284 68h128c54 0 95.5 12.167 124.5 36.5s43.5 58.833 43.5 103.5c0 44 -14.5 78.167 -43.5 102.5
s-70.5 36.5 -124.5 36.5h-128v-279z" />
    <glyph glyph-name="uni042B" unicode="&#x42b;" horiz-adv-x="832" 
d="M172 416h134c74.667 0 133.667 -19 177 -57s65 -88.333 65 -151c0 -63.333 -21.667 -113.833 -65 -151.5s-102.333 -56.5 -177 -56.5h-207v710h73v-294zM172 68h134c54 0 95.5 12.167 124.5 36.5s43.5 58.833 43.5 103.5c0 44 -14.5 78.167 -43.5 102.5
s-70.5 36.5 -124.5 36.5h-134v-279zM659 0v710h74v-710h-74z" />
    <glyph glyph-name="uni042C" unicode="&#x42c;" horiz-adv-x="582" 
d="M172 416h134c74.667 0 133.667 -19 177 -57s65 -88.333 65 -151c0 -63.333 -21.667 -113.833 -65 -151.5s-102.333 -56.5 -177 -56.5h-207v710h73v-294zM172 68h134c54 0 95.5 12.167 124.5 36.5s43.5 58.833 43.5 103.5c0 44 -14.5 78.167 -43.5 102.5
s-70.5 36.5 -124.5 36.5h-134v-279z" />
    <glyph glyph-name="uni042D" unicode="&#x42d;" horiz-adv-x="726" 
d="M315 -8c-58 0 -111.67 12.335 -161.003 37.002s-89 56 -119 94l53 47c24.667 -33.333 56.834 -59.5 96.501 -78.5s83.167 -28.5 130.5 -28.5c76.667 0 141.5 24.5 194.5 73.5s83.5 111.5 91.5 187.5h-360v72h358c-9.33301 72.667 -40.5 132.667 -93.5 180
s-116.5 71 -190.5 71c-47.333 0 -90.666 -9.5 -129.999 -28.5s-71.666 -44.833 -96.999 -77.5l-53 46c30 38 69.667 69.333 119 94s103 37 161 37c102 0 188 -34.833 258 -104.5s105 -155.834 105 -258.501s-35 -188.834 -105 -258.501s-156 -104.5 -258 -104.5z" />
    <glyph glyph-name="uni042E" unicode="&#x42e;" horiz-adv-x="1056" 
d="M99 0l0.00390625 710.002h73v-310h133c9.33301 91.333 47.166 167.166 113.499 227.499s145.166 90.5 236.499 90.5c98.667 0 182.167 -35 250.5 -105s102.5 -156 102.5 -258c0 -102.667 -34.167 -188.834 -102.5 -258.501s-151.833 -104.5 -250.5 -104.5
c-94.667 0 -175.334 32 -242.001 96s-103.334 144 -110.001 240h-131v-328h-73zM655.004 63.002c78.667 0 144.5 28 197.5 84s79.5 125.333 79.5 208s-26.5 152 -79.5 208s-118.833 84 -197.5 84s-144.667 -28 -198 -84s-80 -125.333 -80 -208s26.667 -152 80 -208
s119.333 -84 198 -84z" />
    <glyph glyph-name="uni042F" unicode="&#x42f;" horiz-adv-x="617" 
d="M27 0l207 306.001c-52.667 10 -92.667 32.167 -120 66.5s-41 76.833 -41 127.5c0 63.333 21.333 114.166 64 152.499s101 57.5 175 57.5h206v-710h-73v289h-136l-195 -289h-87zM313 358.001h132v284h-132c-53.333 0 -94.166 -12.667 -122.499 -38s-42.5 -60 -42.5 -104
c0 -44.667 14.167 -79.5 42.5 -104.5s69.166 -37.5 122.499 -37.5z" />
    <glyph glyph-name="uni0430" unicode="&#x430;" horiz-adv-x="618" 
d="M469 0v57.998c-44 -44 -100.333 -66 -169 -66c-74 0 -135.167 24.833 -183.5 74.5s-72.5 110.834 -72.5 183.501s24.167 133.834 72.5 183.501s109.5 74.5 183.5 74.5c68.667 0 125 -22 169 -66v58h70v-500h-70zM301 57.998c74.667 0 130.667 28.667 168 86v212
c-16.667 26 -39.5 46.833 -68.5 62.5s-62.167 23.5 -99.5 23.5c-53.333 0 -97.5 -18.5 -132.5 -55.5s-52.5 -82.5 -52.5 -136.5s17.5 -99.5 52.5 -136.5s79.167 -55.5 132.5 -55.5z" />
    <glyph glyph-name="uni0431" unicode="&#x431;" horiz-adv-x="621" 
d="M318 -8c-75.333 0 -136.833 25.667 -184.5 77s-71.5 117 -71.5 197v58c0 111.333 22 197.166 66 257.499s115.333 100.166 214 119.499l189 36v-66l-175 -33c-80 -14 -135.833 -39.5 -167.5 -76.5s-53.167 -93.167 -64.5 -168.5c23.333 36.667 52.833 64 88.5 82
s73.5 27 113.5 27c74.667 0 135.167 -24.167 181.5 -72.5s69.5 -107.166 69.5 -176.499c0 -73.333 -24.333 -135.166 -73 -185.499s-110.667 -75.5 -186 -75.5zM318 57c55.333 0 100.501 18.667 135.501 56s52.5 84 52.5 140c0 54 -17.333 98.333 -52 133
s-79.334 52 -134.001 52s-99.5 -17.833 -134.5 -53.5s-52.5 -79.167 -52.5 -130.5c0 -56.667 17.167 -103.667 51.5 -141s78.833 -56 133.5 -56z" />
    <glyph glyph-name="uni0432" unicode="&#x432;" horiz-adv-x="532" 
d="M79 0v500h211c53.333 0 94.333 -11.5 123 -34.5s43 -55.5 43 -97.5c0 -44.667 -19 -78.667 -57 -102c60 -20 90 -61 90 -123c0 -42.667 -15 -77.167 -45 -103.5s-74.667 -39.5 -134 -39.5h-231zM149 287l149 -0.000976562c24 0 44.167 6.33301 60.5 19
s24.5 31.334 24.5 56.001s-8.16699 43.5 -24.5 56.5s-36.5 19.5 -60.5 19.5h-149v-151zM149 61.999l168 0.000976562c30 0 53.833 7.66699 71.5 23s26.5 36.333 26.5 63c0 25.333 -8.83301 45.666 -26.5 60.999s-41.5 23 -71.5 23h-168v-170z" />
    <glyph glyph-name="uni0433" unicode="&#x433;" horiz-adv-x="397" 
d="M79 0v500h302v-64h-233v-436h-69z" />
    <glyph glyph-name="uni0434" unicode="&#x434;" horiz-adv-x="580" 
d="M13 -127v191h53l224 444l225 -444h52v-191h-65v127h-423v-127h-66zM439 64l-151 309l-149 -309h300z" />
    <glyph glyph-name="uni0435" unicode="&#x435;" horiz-adv-x="573" 
d="M302 -8c-74 0 -135.5 24.832 -184.5 74.499s-73.5 110.834 -73.5 183.501c0 72 24.167 133 72.5 183s107.833 75 178.5 75s128.5 -24.333 173.5 -73s67.5 -115 67.5 -199h-420c4 -52.667 23.5 -95.5 58.5 -128.5s77.5 -49.5 127.5 -49.5c60.667 0 112 21 154 63l45 -49
c-50.667 -53.333 -117 -80 -199 -80zM291 442.999c-40 0 -76.168 -12.667 -108.501 -38s-53.166 -61 -62.499 -107h337c-5.33301 46.667 -23.333 82.5 -54 107.5s-68 37.5 -112 37.5z" />
    <glyph glyph-name="uni0436" unicode="&#x436;" horiz-adv-x="745" 
d="M2 0l255 251l-233 249h83l231 -248v248h70v-247l230 247h83l-233 -249l255 -251h-89l-246 243v-243h-70v244l-247 -244h-89z" />
    <glyph glyph-name="uni0437" unicode="&#x437;" horiz-adv-x="455" 
d="M222 -8c-86.667 0 -151.333 33.668 -194 101.001l56 37c30.667 -51.333 76.667 -77 138 -77c40 0 69.5 8.33301 88.5 25s28.5 38.334 28.5 65.001c0 28 -10.5 50 -31.5 66s-50.167 24 -87.5 24h-64v56h65c28 0 51.667 7 71 21s29 33.667 29 59
s-9.83301 44.666 -29.5 57.999s-43.5 20 -71.5 20c-57.333 0 -97.333 -21.333 -120 -64l-55 34c40 60.667 98.667 91 176 91c50 0 90.5 -12.5 121.5 -37.5s46.5 -57.5 46.5 -97.5c0 -24 -6.16699 -45.833 -18.5 -65.5s-29.833 -34.834 -52.5 -45.501
c29.333 -10 52 -26 68 -48s24 -47.333 24 -76c0 -40.667 -16.5 -75.167 -49.5 -103.5s-79.167 -42.5 -138.5 -42.5z" />
    <glyph glyph-name="uni0438" unicode="&#x438;" horiz-adv-x="596" 
d="M79 -8v508h69v-363l369 371v-508h-69v359z" />
    <glyph glyph-name="uni0439" unicode="&#x439;" horiz-adv-x="596" 
d="M79 -8v508h69v-363l369 371v-508h-69v359zM405 710h56.999c-2 -47.333 -16.5 -83.833 -43.5 -109.5s-63.833 -38.5 -110.5 -38.5s-83.667 12.833 -111 38.5s-41.666 62.167 -42.999 109.5h57c1.33301 -33.333 10.5 -58.333 27.5 -75s40.167 -25 69.5 -25
c60.667 0 93 33.333 97 100z" />
    <glyph glyph-name="uni043A" unicode="&#x43a;" horiz-adv-x="496" 
d="M79 0v500h70v-248l239 248h87l-241 -250l268 -250h-93l-260 244v-244h-70z" />
    <glyph glyph-name="uni043B" unicode="&#x43b;" horiz-adv-x="518" 
d="M1 0l258 508l258 -508h-79l-178 365l-181 -365h-78z" />
    <glyph glyph-name="uni043C" unicode="&#x43c;" horiz-adv-x="678" 
d="M530 0v338l-191 -224l-191 224v-338h-69v509l260 -302l260 302v-509h-69z" />
    <glyph glyph-name="uni043D" unicode="&#x43d;" horiz-adv-x="588" 
d="M79 0v500h69v-212h292v212h69v-500h-69v224h-292v-224h-69z" />
    <glyph glyph-name="uni043E" unicode="&#x43e;" horiz-adv-x="607" 
d="M304 -8c-75.333 0 -137.5 24.833 -186.5 74.5s-73.5 110.834 -73.5 183.501s24.5 133.834 73.5 183.501s111.167 74.5 186.5 74.5s137.333 -24.833 186 -74.5s73 -110.834 73 -183.501s-24.333 -133.834 -73 -183.501s-110.667 -74.5 -186 -74.5zM304 58
c54.667 0 99.334 18.3311 134.001 54.998s52 82.334 52 137.001s-17.333 100.334 -52 137.001s-79.334 55 -134.001 55s-99.5 -18.5 -134.5 -55.5s-52.5 -82.5 -52.5 -136.5s17.5 -99.5 52.5 -136.5s79.833 -55.5 134.5 -55.5z" />
    <glyph glyph-name="uni043F" unicode="&#x43f;" horiz-adv-x="579" 
d="M79 0v500h421v-500h-70v436h-281v-436h-70z" />
    <glyph glyph-name="uni0440" unicode="&#x440;" horiz-adv-x="618" 
d="M79 500l70 0.00195312v-58c44 44 100.333 66 169 66c74 0 135.167 -24.833 183.5 -74.5s72.5 -110.834 72.5 -183.501s-24.167 -133.834 -72.5 -183.501s-109.5 -74.5 -183.5 -74.5c-68.667 0 -125 22 -169 66v-242h-70v684zM317 58.002c53.333 0 97.5 18.5 132.5 55.5
s52.5 82.5 52.5 136.5s-17.5 99.5 -52.5 136.5s-79.167 55.5 -132.5 55.5c-37.333 0 -70.666 -7.83301 -99.999 -23.5s-52 -36.5 -68 -62.5v-212c16 -26 38.667 -46.833 68 -62.5s62.666 -23.5 99.999 -23.5z" />
    <glyph glyph-name="uni0441" unicode="&#x441;" horiz-adv-x="521" 
d="M301 -8c-74 0 -135.333 24.8311 -184 74.498s-73 110.834 -73 183.501s24.333 133.834 73 183.501s110 74.5 184 74.5c74.667 0 138 -26 190 -78l-45 -49c-40.667 40.667 -89 61 -145 61c-53.333 0 -97.5 -18.5 -132.5 -55.5s-52.5 -82.5 -52.5 -136.5
s17.5 -99.5 52.5 -136.5s79.167 -55.5 132.5 -55.5c56 0 104.333 20.333 145 61l45 -49c-52 -52 -115.333 -78 -190 -78z" />
    <glyph glyph-name="uni0442" unicode="&#x442;" horiz-adv-x="439" 
d="M181 0v436h-165v64h407v-64h-172v-436h-70z" />
    <glyph glyph-name="uni0443" unicode="&#x443;" horiz-adv-x="507" 
d="M116 -184l102 218l-212 466h76l172 -389l174 389h76l-313 -684h-75z" />
    <glyph glyph-name="uni0444" unicode="&#x444;" horiz-adv-x="714" 
d="M392 -184h-70v176h-4c-84 1.33301 -150.667 26.666 -200 75.999s-74 110 -74 182c0 72.667 24.667 133.5 74 182.5s116 74.167 200 75.5h4v202h70v-202h4c84 -1.33301 150.667 -26.5 200 -75.5s74 -109.833 74 -182.5c0 -72 -24.667 -132.667 -74 -182
s-116 -74.666 -200 -75.999h-4v-176zM392 56l4 -0.000976562c63.333 1.33301 113 20.333 149 57s54 82.334 54 137.001c0 55.333 -18.167 101.5 -54.5 138.5s-85.833 55.5 -148.5 55.5h-4v-388zM322 55.999v388.001h-4c-62.667 0 -112.167 -18.5 -148.5 -55.5
s-54.5 -83.167 -54.5 -138.5c0 -54.667 18 -100.334 54 -137.001s85.667 -55.667 149 -57h4z" />
    <glyph glyph-name="uni0445" unicode="&#x445;" horiz-adv-x="509" 
d="M11 0l201 255l-190 245h81l152 -195l152 195h80l-190 -245l201 -255h-82l-161 206l-162 -206h-82z" />
    <glyph glyph-name="uni0446" unicode="&#x446;" horiz-adv-x="604" 
d="M571 64v-191h-66v127h-426v500h70v-436h277v436h70v-436h75z" />
    <glyph glyph-name="uni0447" unicode="&#x447;" horiz-adv-x="529" 
d="M450 0h-70.001v210c-47.333 -22.667 -97.666 -34 -150.999 -34c-58.667 0 -104.667 15.667 -138 47s-50 75 -50 131v146h70v-137c0 -80.667 43 -121 129 -121c51.333 0 98 12 140 36v222h70v-500z" />
    <glyph glyph-name="uni0448" unicode="&#x448;" horiz-adv-x="793" 
d="M79 0v500h69v-436h214v436h69v-436h214v436h69v-500h-635z" />
    <glyph glyph-name="uni0449" unicode="&#x449;" horiz-adv-x="822" 
d="M789 64v-191h-65v127h-645v500h69v-436h214v436h69v-436h214v436h69v-436h75z" />
    <glyph glyph-name="uni044A" unicode="&#x44a;" horiz-adv-x="554" 
d="M161 0l-0.000976562 436h-144v64h214v-190h108c60.667 0 106.334 -14.833 137.001 -44.5s46 -66.167 46 -109.5c0 -44 -15.333 -81 -46 -111s-76.667 -45 -138 -45h-177zM230.999 64l110 0.000976562c36 0 63.5 8 82.5 24s28.5 38.667 28.5 68s-9.5 51.666 -28.5 66.999
s-45.833 23 -80.5 23h-112v-182z" />
    <glyph glyph-name="uni044B" unicode="&#x44b;" horiz-adv-x="678" 
d="M529 0v500h70v-500h-70zM79 0l-0.000976562 500h70v-190h120c60.667 0 106.334 -14.833 137.001 -44.5s46 -66.167 46 -109.5c0 -44 -15.333 -81 -46 -111s-76.667 -45 -138 -45h-189zM148.999 64h123c36 0 63.5 8 82.5 24s28.5 38.667 28.5 68c0 60 -36.667 90 -110 90
h-124v-182z" />
    <glyph glyph-name="uni044C" unicode="&#x44c;" horiz-adv-x="484" 
d="M79 0l-0.000976562 500h70v-190h120c60.667 0 106.334 -14.833 137.001 -44.5s46 -66.167 46 -109.5c0 -44 -15.333 -81 -46 -111s-76.667 -45 -138 -45h-189zM148.999 64h123c36 0 63.5 8 82.5 24s28.5 38.667 28.5 68c0 60 -36.667 90 -110 90h-124v-182z" />
    <glyph glyph-name="uni044D" unicode="&#x44d;" horiz-adv-x="524" 
d="M223 -8c-76 0 -139.333 26.002 -190 78.002l45 49c40.667 -40.667 89 -61 145 -61c48.667 0 90 15.667 124 47s53.667 70.666 59 117.999h-238v63h237c-8 46.667 -28.333 84.334 -61 113.001s-73 43 -121 43c-56 0 -104.333 -20.333 -145 -61l-45 49
c50.667 52 114 78 190 78c74 0 135.333 -24.833 184 -74.5s73 -110.834 73 -183.501s-24.333 -133.834 -73 -183.501s-110 -74.5 -184 -74.5z" />
    <glyph glyph-name="uni044E" unicode="&#x44e;" horiz-adv-x="791" 
d="M149 287l102.001 0.00195312c8 63.333 35 116 81 158s101.333 63 166 63c72 0 131.5 -24.833 178.5 -74.5s70.5 -110.834 70.5 -183.501s-23.5 -133.834 -70.5 -183.501s-106.5 -74.5 -178.5 -74.5c-66.667 0 -123.334 22.167 -170.001 66.5s-72.667 99.5 -78 165.5h-101
v-224h-70v500h70v-213zM498.001 58.002c52 0 94.5 18.5 127.5 55.5s49.5 82.5 49.5 136.5s-16.5 99.5 -49.5 136.5s-75.5 55.5 -127.5 55.5s-94.5 -18.5 -127.5 -55.5s-49.5 -82.5 -49.5 -136.5s16.5 -99.5 49.5 -136.5s75.5 -55.5 127.5 -55.5z" />
    <glyph glyph-name="uni044F" unicode="&#x44f;" horiz-adv-x="509" 
d="M28 0l156.001 208.001c-39.333 7.33301 -69.333 23.833 -90 49.5s-31 56.5 -31 92.5c0 45.333 15.167 81.666 45.5 108.999s76.166 41 137.499 41h184v-500h-70v197h-106l-147 -197h-79zM241.001 258.001l119 -0.000976562v181h-119
c-73.333 -1.33301 -110 -31.666 -110 -90.999c0 -60 36.667 -90 110 -90z" />
    <glyph glyph-name="uni0451" unicode="&#x451;" horiz-adv-x="573" 
d="M302 -8c-74 0 -135.5 24.832 -184.5 74.499s-73.5 110.834 -73.5 183.501c0 72 24.167 133 72.5 183s107.833 75 178.5 75s128.5 -24.333 173.5 -73s67.5 -115 67.5 -199h-420c4 -52.667 23.5 -95.5 58.5 -128.5s77.5 -49.5 127.5 -49.5c60.667 0 112 21 154 63l45 -49
c-50.667 -53.333 -117 -80 -199 -80zM291 442.999c-40 0 -76.168 -12.667 -108.501 -38s-53.166 -61 -62.499 -107h337c-5.33301 46.667 -23.333 82.5 -54 107.5s-68 37.5 -112 37.5zM406.999 575.999c-15.333 0 -28.5 5.33301 -39.5 16s-16.5 24 -16.5 40
c0 15.333 5.5 28.333 16.5 39s24.167 16 39.5 16s28.333 -5.33301 39 -16s16 -23.667 16 -39c0 -16 -5.33301 -29.333 -16 -40s-23.667 -16 -39 -16zM184.999 575.999c-15.333 0 -28.5 5.33301 -39.5 16s-16.5 24 -16.5 40c0 15.333 5.33301 28.333 16 39s24 16 40 16
c15.333 0 28.333 -5.33301 39 -16s16 -23.667 16 -39c0 -16 -5.5 -29.333 -16.5 -40s-23.833 -16 -38.5 -16z" />
    <glyph glyph-name="uni0452" unicode="&#x452;" horiz-adv-x="577" 
d="M310 -184l0.000976562 64h36c31.333 0 54 7.16699 68 21.5s21 38.166 21 71.499v326c0 42.667 -12.167 77.167 -36.5 103.5s-57.833 39.5 -100.5 39.5c-37.333 0 -69 -10.167 -95 -30.5s-44 -47.833 -54 -82.5v-329h-70v582h-74v54h74v74h70v-74h176v-54h-176v-151
c37.333 51.333 91.666 77 162.999 77c58.667 0 105.5 -18.667 140.5 -56s52.5 -86.666 52.5 -147.999v-343c0 -96.667 -51 -145 -153 -145h-42z" />
    <glyph glyph-name="uni0453" unicode="&#x453;" horiz-adv-x="397" 
d="M79 500v-500h69v436h233v64h-302zM382 710l-119 -160h-59l90 160h88z" />
    <glyph glyph-name="uni0454" unicode="&#x454;" horiz-adv-x="524" 
d="M301 -8c-74 0 -135.333 24.8301 -184 74.4971s-73 110.834 -73 183.501s24.333 133.834 73 183.501s110 74.5 184 74.5c74.667 0 138 -26 190 -78l-45 -49c-40.667 40.667 -89 61 -145 61c-47.333 0 -87.5 -14.667 -120.5 -44s-53.5 -66.666 -61.5 -111.999h237v-63h-238
c5.33301 -48 24.833 -87.5 58.5 -118.5s75.167 -46.5 124.5 -46.5c56 0 104.333 20.333 145 61l45 -49c-52 -52 -115.333 -78 -190 -78z" />
    <glyph glyph-name="uni0455" unicode="&#x455;" horiz-adv-x="415" 
d="M206 -8c-78.667 0 -136.667 34.333 -174 103l56 37c28 -51.333 68 -77 120 -77c28.667 0 52.5 6.83301 71.5 20.5s28.5 31.5 28.5 53.5c0 22.667 -7.16699 40.5 -21.5 53.5s-38.166 25.5 -71.499 37.5l-42 16c-77.333 28.667 -116 76.334 -116 143.001
c0 37.333 14.167 68.166 42.5 92.499s64.5 36.5 108.5 36.5c67.333 0 115.666 -28.333 144.999 -85l-56 -32c-17.333 36 -47 54 -89 54c-24 0 -43.667 -5.83301 -59 -17.5s-23 -27.5 -23 -47.5c0 -19.333 6 -35.5 18 -48.5s33 -25.167 63 -36.5l44 -16
c43.333 -16 75.333 -35.667 96 -59s31 -53 31 -89c0 -39.333 -15.667 -72.333 -47 -99s-73 -40 -125 -40z" />
    <glyph glyph-name="uni0456" unicode="&#x456;" horiz-adv-x="228" 
d="M149 619h-70c-13.333 11.333 -20 25.666 -20 42.999c0 15.333 5.33301 28.5 16 39.5s23.667 16.5 39 16.5s28.333 -5.5 39 -16.5s16 -24.167 16 -39.5c0 -17.333 -6.66699 -31.666 -20 -42.999zM79 0v500h70v-500h-70z" />
    <glyph glyph-name="uni0457" unicode="&#x457;" horiz-adv-x="228" 
d="M79 0v500h70v-500h-70zM22 576c-16 0 -29.333 5.33301 -40 16s-16 24 -16 40c0 15.333 5.5 28.333 16.5 39s24.167 16 39.5 16s28.5 -5.33301 39.5 -16s16.5 -23.667 16.5 -39c0 -16 -5.5 -29.333 -16.5 -40s-24.167 -16 -39.5 -16zM207 576
c-16 0 -29.333 5.33301 -40 16s-16 24 -16 40c0 15.333 5.5 28.333 16.5 39s24.167 16 39.5 16s28.5 -5.33301 39.5 -16s16.5 -23.667 16.5 -39c0 -16 -5.5 -29.333 -16.5 -40s-24.167 -16 -39.5 -16z" />
    <glyph glyph-name="uni0458" unicode="&#x458;" horiz-adv-x="236" 
d="M157 619h-70c-13.333 11.333 -20 25.666 -20 42.999c0 15.333 5.33301 28.5 16 39.5s23.667 16.5 39 16.5s28.333 -5.5 39 -16.5s16 -24.167 16 -39.5c0 -17.333 -6.66699 -31.666 -20 -42.999zM-20 -184v64h25c30.667 0 52 7.5 64 22.5s18 38.5 18 70.5v527h70v-541
c0 -95.333 -48.667 -143 -146 -143h-31z" />
    <glyph glyph-name="uni0459" unicode="&#x459;" horiz-adv-x="724" 
d="M259 508l99 -197.999h153c62 0 107.667 -14.667 137 -44s44 -66 44 -110c0 -44.667 -15 -81.834 -45 -111.501s-76 -44.5 -138 -44.5h-74l-178 362l-178 -362h-78zM514 246.001h-124l91 -182h32c36 0 63.5 8 82.5 24s28.5 38.667 28.5 68c0 60 -36.667 90 -110 90z" />
    <glyph glyph-name="uni045A" unicode="&#x45a;" horiz-adv-x="773" 
d="M569 0h-170v226h-251v-226h-69v500h69v-211h251v211h69v-211h102c57.333 0 100.333 -13.833 129 -41.5s43 -61.5 43 -101.5c0 -41.333 -14.333 -76 -43 -104s-72 -42 -130 -42zM674 145c0 26 -8.5 46 -25.5 60s-41.5 21 -73.5 21h-107v-163h105
c32 0 56.833 7.33301 74.5 22s26.5 34.667 26.5 60z" />
    <glyph glyph-name="uni045B" unicode="&#x45b;" horiz-adv-x="579" 
d="M79 0l-0.000976562 582h-74v54h74v74h70v-74h176v-54h-176v-151c36.667 51.333 91 77 163 77c58.667 0 105.834 -18.5 141.501 -55.5s53.5 -86.167 53.5 -147.5v-305h-70v300c0 42.667 -12.333 77 -37 103s-58.667 39 -102 39c-37.333 0 -69 -10 -95 -30
s-44 -47.667 -54 -83v-329h-70z" />
    <glyph glyph-name="uni045C" unicode="&#x45c;" horiz-adv-x="496" 
d="M79 500v-500h70v244l260 -244h93l-268 250l241 250h-87l-239 -248v248h-70zM422 710l-119 -160h-59l90 160h88z" />
    <glyph glyph-name="uni045E" unicode="&#x45e;" horiz-adv-x="507" 
d="M116 -184l102 218l-212 466h76l172 -389l174 389h76l-313 -684h-75zM352 710h56.999c-2 -47.333 -16.5 -83.833 -43.5 -109.5s-63.833 -38.5 -110.5 -38.5s-83.667 12.833 -111 38.5s-41.666 62.167 -42.999 109.5h57c1.33301 -33.333 10.5 -58.333 27.5 -75
s40.167 -25 69.5 -25c60.667 0 93 33.333 97 100z" />
    <glyph glyph-name="uni045F" unicode="&#x45f;" horiz-adv-x="583" 
d="M504 0h-179v-127h-66v127h-180v500h69v-436h287v436h69v-500z" />
    <glyph glyph-name="uni0462" unicode="&#x462;" horiz-adv-x="695" 
d="M285 428h127c76.667 0 137.167 -19.333 181.5 -58s66.5 -90.667 66.5 -156s-22.167 -117.333 -66.5 -156s-104.833 -58 -181.5 -58h-201v543h-184v54h184v133h74v-133h228v-54h-228v-115zM285 68h126c56 0 99.167 12.833 129.5 38.5s45.5 61.5 45.5 107.5
s-15.167 81.833 -45.5 107.5s-73.5 38.5 -129.5 38.5h-126v-292z" />
    <glyph glyph-name="uni0463" unicode="&#x463;" horiz-adv-x="545" 
d="M205 500h210v-54h-210v-125h113c64 0 112.167 -14.667 144.5 -44s48.5 -66.333 48.5 -111c0 -46.667 -16.5 -86 -49.5 -118s-81.167 -48 -144.5 -48h-182v446h-118v54h118v210h70v-210zM205 261l-0.000976562 -198h121c36.667 0 65.334 9.16699 86.001 27.5
s31 43.5 31 75.5c0 63.333 -38.667 95 -116 95h-122z" />
    <glyph glyph-name="uni0472" unicode="&#x472;" horiz-adv-x="822" 
d="M411 -8c-102 0 -188 34.833 -258 104.5s-105 155.834 -105 258.501s35 188.834 105 258.501s156 104.5 258 104.5s188 -34.833 258 -104.5s105 -155.834 105 -258.501s-35 -188.834 -105 -258.501s-156 -104.5 -258 -104.5zM411 63c81.333 0 149.5 28 204.5 84
s82.5 125.333 82.5 208s-27.5 152 -82.5 208s-123.167 84 -204.5 84s-149.666 -28 -204.999 -84s-83 -125.333 -83 -208s27.667 -152 83 -208s123.666 -84 204.999 -84zM114 369l3.99902 -71c46 38.667 96 58 150 58c28 0 74.5 -8.33301 139.5 -25s116.167 -25 153.5 -25
c53.333 0 102.333 11.667 147 35l-1 67c-42.667 -26.667 -94 -40 -154 -40c-36 0 -83 8.5 -141 25.5s-103 25.5 -135 25.5c-61.333 0 -115.666 -16.667 -162.999 -50z" />
    <glyph glyph-name="uni0473" unicode="&#x473;" horiz-adv-x="607" 
d="M304 -8c-75.333 0 -137.5 24.833 -186.5 74.5s-73.5 110.834 -73.5 183.501s24.5 133.834 73.5 183.501s111.167 74.5 186.5 74.5s137.333 -24.833 186 -74.5s73 -110.834 73 -183.501s-24.333 -133.834 -73 -183.501s-110.667 -74.5 -186 -74.5zM304 58
c54.667 0 99.334 18.3311 134.001 54.998s52 82.334 52 137.001s-17.333 100.334 -52 137.001s-79.334 55 -134.001 55s-99.5 -18.5 -134.5 -55.5s-52.5 -82.5 -52.5 -136.5s17.5 -99.5 52.5 -136.5s79.833 -55.5 134.5 -55.5zM99 277.998v-54h409v54h-409z" />
    <glyph glyph-name="uni0474" unicode="&#x474;" horiz-adv-x="659" 
d="M574 574l-246.999 -582l-324 718h81l242 -547l184 446c27.333 67.333 68.666 101 123.999 101h8v-75c-16 0 -28.833 -4.5 -38.5 -13.5s-19.5 -24.833 -29.5 -47.5z" />
    <glyph glyph-name="uni0475" unicode="&#x475;" horiz-adv-x="530" 
d="M454 379l-194 -387l-260 508h81l180 -367l134 276c28.667 60.667 69 91 121 91v-65c-23.333 0 -44 -18.667 -62 -56z" />
    <glyph glyph-name="uni0490" unicode="&#x490;" horiz-adv-x="503" 
d="M99 710h314v148h73v-220h-314v-638h-73v710z" />
    <glyph glyph-name="uni0491" unicode="&#x491;" horiz-adv-x="397" 
d="M79 0v500h235v127h67v-191h-233v-436h-69z" />
    <glyph glyph-name="uni0492" unicode="&#x492;" horiz-adv-x="516" 
d="M496 710v-72h-314v-638h-73v710h387zM18 391h353v-61h-353v61z" />
    <glyph glyph-name="uni0493" unicode="&#x493;" horiz-adv-x="416" 
d="M98 0v500h302v-64h-233v-436h-69zM306 241h-288v54h288v-54z" />
    <glyph glyph-name="uni0496" unicode="&#x496;" horiz-adv-x="967" 
d="M-7 0l352 349l-322 361h92l318 -358v358h74v-358l319 358h92l-323 -361l352 -349h-99l-341 339v-339h-74v339l-340 -339h-100zM889 -148v148h-22v72h92v-220h-70z" />
    <glyph glyph-name="uni0497" unicode="&#x497;" horiz-adv-x="769" 
d="M2 0l255 251l-233 249h83l231 -248v248h70v-247l230 247h83l-233 -249l255 -251h-89l-246 243v-243h-70v244l-247 -244h-89zM689 -127v127h-30v64h95v-191h-65z" />
    <glyph glyph-name="uni049A" unicode="&#x49a;" horiz-adv-x="650" 
d="M99 0v710h73v-359l339 359h92l-341 -361l371 -349h-100l-361 339v-339h-73zM571 -148v148h-22v72h92v-220h-70z" />
    <glyph glyph-name="uni049B" unicode="&#x49b;" horiz-adv-x="520" 
d="M79 0v500h70v-248l239 248h87l-241 -250l268 -250h-93l-260 244v-244h-70zM446 -127v127h-30v64h95v-191h-65z" />
    <glyph glyph-name="uni04A2" unicode="&#x4a2;" horiz-adv-x="785" 
d="M99 0v710h73v-310h419v310h73v-710h-73v328h-419v-328h-73zM672 -148v148h-22v72h92v-220h-70z" />
    <glyph glyph-name="uni04A3" unicode="&#x4a3;" horiz-adv-x="617" 
d="M79 0v500h69v-212h292v212h69v-500h-69v224h-292v-224h-69zM519 -127v127h-30v64h95v-191h-65z" />
    <glyph glyph-name="uni04AE" unicode="&#x4ae;" horiz-adv-x="616" 
d="M271 0v301l-260 409h86l211 -337l211 337h86l-260 -409v-301h-74z" />
    <glyph glyph-name="uni04AF" unicode="&#x4af;" horiz-adv-x="531" 
d="M230 -184v187l-225 497h79l181 -422l182 422h79l-226 -497v-187h-70z" />
    <glyph glyph-name="uni04B0" unicode="&#x4b0;" horiz-adv-x="619" 
d="M273 0v301l-260 409h86l211 -337l211 337h86l-260 -409v-301h-74zM506 302v-61h-392v61h392z" />
    <glyph glyph-name="uni04B1" unicode="&#x4b1;" horiz-adv-x="531" 
d="M230 -184v187l-225 497h79l181 -422l182 422h79l-226 -497v-187h-70zM91 -51v54h349v-54h-349z" />
    <glyph glyph-name="uni04B2" unicode="&#x4b2;" horiz-adv-x="665" 
d="M6 0l263 364l-247 346h85l208 -290l208 290h85l-245 -346l261 -364h-84l-224 309l-223 -309h-87zM584 -148v148h-22v72h92v-220h-70z" />
    <glyph glyph-name="uni04B3" unicode="&#x4b3;" horiz-adv-x="541" 
d="M11 0l201 255l-190 245h81l152 -195l152 195h80l-190 -245l201 -255h-82l-161 206l-162 -206h-82zM459 -127v127h-30v64h95v-191h-65z" />
    <glyph glyph-name="uni04B6" unicode="&#x4b6;" horiz-adv-x="704" 
d="M583 0h-74.001v313c-70.667 -25.333 -144.667 -38 -222 -38c-75.333 0 -134.166 18.167 -176.499 54.5s-63.5 88.833 -63.5 157.5v223h74v-208c0 -104 58.667 -156 176 -156c77.333 0 148 12.667 212 38v326h74v-710zM590.999 -148v148h-22v72h92v-220h-70z" />
    <glyph glyph-name="uni04B7" unicode="&#x4b7;" horiz-adv-x="558" 
d="M450 0h-70.001v210c-47.333 -22.667 -97.666 -34 -150.999 -34c-58.667 0 -104.667 15.667 -138 47s-50 75 -50 131v146h70v-137c0 -80.667 43 -121 129 -121c51.333 0 98 12 140 36v222h70v-500zM459.999 -127v127h-30v64h95v-191h-65z" />
    <glyph glyph-name="uni04BA" unicode="&#x4ba;" horiz-adv-x="682" 
d="M99 710h74.001v-313c70.667 25.333 144.667 38 222 38c75.333 0 134.166 -18.167 176.499 -54.5s63.5 -88.833 63.5 -157.5v-223h-74v208c0 104 -58.667 156 -176 156c-77.333 0 -148 -12.667 -212 -38v-326h-74v710z" />
    <glyph glyph-name="uni04BB" unicode="&#x4bb;" horiz-adv-x="579" 
d="M79 0l-0.000976562 710h70v-279c36.667 51.333 91 77 163 77c58.667 0 105.834 -18.5 141.501 -55.5s53.5 -86.167 53.5 -147.5v-305h-70v300c0 42.667 -12.333 77 -37 103s-58.667 39 -102 39c-37.333 0 -69 -10 -95 -30s-44 -47.667 -54 -83v-329h-70z" />
    <glyph glyph-name="uni04C0" unicode="&#x4c0;" horiz-adv-x="272" 
d="M99 0v710h74v-710h-74z" />
    <glyph glyph-name="uni04CF" unicode="&#x4cf;" horiz-adv-x="228" 
d="M79 0v710h70v-710h-70z" />
    <glyph glyph-name="uni04D8" unicode="&#x4d8;" horiz-adv-x="779" 
d="M382 -7c-106.667 0 -191.498 36.333 -254.498 109s-95.167 168 -96.5 286h620c-8 78 -38.167 140.833 -90.5 188.5s-112.833 71.5 -181.5 71.5c-76.667 0 -142.334 -22.333 -197.001 -67l-44 55c63.333 55.333 143 83 239 83c97.333 0 180.5 -35 249.5 -105
s103.5 -156 103.5 -258c0 -104 -32.833 -190.5 -98.5 -259.5s-148.834 -103.5 -249.501 -103.5zM382.002 64c73.333 0 134.831 23.5 184.498 70.5s77.834 109.833 84.501 188.5h-542c6.66699 -76 34.334 -138.167 83.001 -186.5s112 -72.5 190 -72.5z" />
    <glyph glyph-name="uni04D9" unicode="&#x4d9;" horiz-adv-x="573" 
d="M272 509c74 0 135.333 -24.832 184 -74.499s73 -110.834 73 -183.501c0 -72 -24.167 -133 -72.5 -183s-107.5 -75 -177.5 -75c-73.333 0 -132 25.167 -176 75.5s-66 115.833 -66 196.5h421c-4 52.667 -23.5 95.5 -58.5 128.5s-77.5 49.5 -127.5 49.5
c-61.333 0 -113 -21 -155 -63l-45 49c52 53.333 118.667 80 200 80zM283 58.001c40 0 76 12.666 108 37.999s52.667 61 62 107h-337c6 -46.667 24 -82.667 54 -108s67.667 -37.666 113 -36.999z" />
    <glyph glyph-name="uni04E2" unicode="&#x4e2;" horiz-adv-x="787" 
d="M99 -8v718h73v-543l516 551v-718h-74v543zM261 810v54h288v-54h-288z" />
    <glyph glyph-name="uni04E3" unicode="&#x4e3;" horiz-adv-x="596" 
d="M79 -8v508h69v-363l369 371v-508h-69v359zM164 625v54h288v-54h-288z" />
    <glyph glyph-name="uni04E8" unicode="&#x4e8;" horiz-adv-x="822" 
d="M411 -8c-102 0 -188 34.833 -258 104.5s-105 155.834 -105 258.501s35 188.834 105 258.501s156 104.5 258 104.5s188 -34.833 258 -104.5s105 -155.834 105 -258.501s-35 -188.834 -105 -258.501s-156 -104.5 -258 -104.5zM411 63c81.333 0 149.5 28 204.5 84
s82.5 125.333 82.5 208s-27.5 152 -82.5 208s-123.167 84 -204.5 84s-149.666 -28 -204.999 -84s-83 -125.333 -83 -208s27.667 -152 83 -208s123.666 -84 204.999 -84zM84 386v-61h654v61h-654z" />
    <glyph glyph-name="uni04E9" unicode="&#x4e9;" horiz-adv-x="607" 
d="M304 -8c-75.333 0 -137.5 24.833 -186.5 74.5s-73.5 110.834 -73.5 183.501s24.5 133.834 73.5 183.501s111.167 74.5 186.5 74.5s137.333 -24.833 186 -74.5s73 -110.834 73 -183.501s-24.333 -133.834 -73 -183.501s-110.667 -74.5 -186 -74.5zM304 58
c54.667 0 99.334 18.3311 134.001 54.998s52 82.334 52 137.001s-17.333 100.334 -52 137.001s-79.334 55 -134.001 55s-99.5 -18.5 -134.5 -55.5s-52.5 -82.5 -52.5 -136.5s17.5 -99.5 52.5 -136.5s79.833 -55.5 134.5 -55.5zM99 277.998v-54h409v54h-409z" />
    <glyph glyph-name="uni04EE" unicode="&#x4ee;" horiz-adv-x="649" 
d="M204 0l89 168l-278 542h82l237 -464l246 464h77l-376 -710h-77zM194 810v54h288v-54h-288z" />
    <glyph glyph-name="uni04EF" unicode="&#x4ef;" horiz-adv-x="507" 
d="M116 -184l102 218l-212 466h76l172 -389l174 389h76l-313 -684h-75zM111 625v54h288v-54h-288z" />
    <glyph glyph-name="Wgrave" unicode="&#x1e80;" horiz-adv-x="885" 
d="M248 -8l-236 718h76l165 -518l189 526l190 -526l165 518h76l-236 -718l-194 538zM408 768l-112 145h88l84 -145h-60z" />
    <glyph glyph-name="wgrave" unicode="&#x1e81;" horiz-adv-x="709" 
d="M176 -1l-164 501h73l124 -386l146 394l146 -394l123 386h73l-163 -501h-53l-126 341l-125 -341h-54zM335 550l-119 160h88l90 -160h-59z" />
    <glyph glyph-name="Wacute" unicode="&#x1e82;" horiz-adv-x="885" 
d="M12 710l236 -718l195 538l194 -538l236 718h-76l-165 -518l-190 526l-189 -526l-165 518h-76zM585 913l-112 -145h-60l84 145h88z" />
    <glyph glyph-name="wacute" unicode="&#x1e83;" horiz-adv-x="709" 
d="M12 500l164 -501h54l125 341l126 -341h53l163 501h-73l-123 -386l-146 394l-146 -394l-124 386h-73zM499 710l-119 -160h-59l90 160h88z" />
    <glyph glyph-name="Wdieresis" unicode="&#x1e84;" horiz-adv-x="885" 
d="M248 -8l-236 718h76l165 -518l189 526l190 -526l165 518h76l-236 -718l-194 538zM554 788c-15.333 0 -28.5 5.33301 -39.5 16s-16.5 24 -16.5 40c0 15.333 5.5 28.333 16.5 39s24.167 16 39.5 16s28.333 -5.33301 39 -16s16 -23.667 16 -39
c0 -16 -5.16699 -29.333 -15.5 -40s-23.5 -16 -39.5 -16zM332 788c-15.333 0 -28.5 5.33301 -39.5 16s-16.5 24 -16.5 40c0 15.333 5.33301 28.333 16 39s24 16 40 16c15.333 0 28.333 -5.33301 39 -16s16 -23.667 16 -39c0 -16 -5.5 -29.333 -16.5 -40
s-23.833 -16 -38.5 -16z" />
    <glyph glyph-name="wdieresis" unicode="&#x1e85;" horiz-adv-x="709" 
d="M176 -1l-164 501h73l124 -386l146 394l146 -394l123 386h73l-163 -501h-53l-126 341l-125 -341h-54zM467 576c-15.333 0 -28.5 5.33301 -39.5 16s-16.5 24 -16.5 40c0 15.333 5.5 28.333 16.5 39s24.167 16 39.5 16s28.333 -5.33301 39 -16s16 -23.667 16 -39
c0 -16 -5.33301 -29.333 -16 -40s-23.667 -16 -39 -16zM245 576c-15.333 0 -28.5 5.33301 -39.5 16s-16.5 24 -16.5 40c0 15.333 5.33301 28.333 16 39s24 16 40 16c15.333 0 28.333 -5.33301 39 -16s16 -23.667 16 -39c0 -16 -5.5 -29.333 -16.5 -40s-23.833 -16 -38.5 -16
z" />
    <glyph glyph-name="uni1E9E" unicode="&#x1e9e;" horiz-adv-x="626" 
d="M99 0v709.998h426l-148 -260c63.333 -7.33301 113 -30.333 149 -69s54 -89.667 54 -153c0 -71.333 -23.167 -127.166 -69.5 -167.499s-106.5 -60.5 -180.5 -60.5h-37v72h43c49.333 0 89.833 13.833 121.5 41.5s47.5 65.834 47.5 114.501s-15.833 87 -47.5 115
s-72.167 42 -121.5 42h-43v63l112 194h-230v-642h-76z" />
    <glyph glyph-name="uni1ECA" unicode="&#x1eca;" horiz-adv-x="272" 
d="M99 0v710h74v-710h-74zM136 -191c-16 0 -29.333 5.33301 -40 16s-16 24 -16 40c0 15.333 5.5 28.333 16.5 39s24.167 16 39.5 16s28.5 -5.33301 39.5 -16s16.5 -23.667 16.5 -39c0 -16 -5.5 -29.333 -16.5 -40s-24.167 -16 -39.5 -16z" />
    <glyph glyph-name="uni1ECB" unicode="&#x1ecb;" horiz-adv-x="228" 
d="M79 0v500h70v-500h-70zM149 619h-70c-13.333 11.333 -20 25.666 -20 42.999c0 15.333 5.33301 28.5 16 39.5s23.667 16.5 39 16.5s28.333 -5.5 39 -16.5s16 -24.167 16 -39.5c0 -17.333 -6.66699 -31.666 -20 -42.999zM114 -186c-16 0 -29.333 5.33301 -40 16
s-16 24 -16 40c0 15.333 5.5 28.333 16.5 39s24.167 16 39.5 16s28.5 -5.33301 39.5 -16s16.5 -23.667 16.5 -39c0 -16 -5.5 -29.333 -16.5 -40s-24.167 -16 -39.5 -16z" />
    <glyph glyph-name="uni1ECC" unicode="&#x1ecc;" horiz-adv-x="822" 
d="M411 -8c-102 0 -188 34.833 -258 104.5s-105 155.834 -105 258.501s35 188.834 105 258.501s156 104.5 258 104.5s188 -34.833 258 -104.5s105 -155.834 105 -258.501s-35 -188.834 -105 -258.501s-156 -104.5 -258 -104.5zM411 64c81.333 0 149.333 28.002 204 84.002
s82 125 82 207s-27.333 151 -82 207s-122.667 84 -204 84c-82 0 -150.167 -27.833 -204.5 -83.5s-81.5 -124.834 -81.5 -207.501s27.167 -151.834 81.5 -207.501s122.5 -83.5 204.5 -83.5zM409 -190.998c-16 0 -29.333 5.33301 -40 16s-16 24 -16 40
c0 15.333 5.5 28.333 16.5 39s24.167 16 39.5 16s28.5 -5.33301 39.5 -16s16.5 -23.667 16.5 -39c0 -16 -5.5 -29.333 -16.5 -40s-24.167 -16 -39.5 -16z" />
    <glyph glyph-name="uni1ECD" unicode="&#x1ecd;" horiz-adv-x="606" 
d="M303 -8c-75.333 0 -137.333 24.833 -186 74.5s-73 110.834 -73 183.501s24.333 133.834 73 183.501s110.667 74.5 186 74.5s137.333 -24.833 186 -74.5s73 -110.834 73 -183.501s-24.333 -133.834 -73 -183.501s-110.667 -74.5 -186 -74.5zM303 58
c54.667 0 99.5 18.5 134.5 55.5s52.5 82.5 52.5 136.5s-17.5 99.5 -52.5 136.5s-79.833 55.5 -134.5 55.5c-54 0 -98.667 -18.5 -134 -55.5s-53 -82.5 -53 -136.5s17.667 -99.5 53 -136.5s80 -55.5 134 -55.5zM303 -186c-16 0 -29.333 5.33301 -40 16s-16 24 -16 40
c0 15.333 5.5 28.333 16.5 39s24.167 16 39.5 16s28.5 -5.33301 39.5 -16s16.5 -23.667 16.5 -39c0 -16 -5.5 -29.333 -16.5 -40s-24.167 -16 -39.5 -16z" />
    <glyph glyph-name="uni1EE4" unicode="&#x1ee4;" horiz-adv-x="736" 
d="M368 -8c-84 0 -151.331 24.5 -201.998 73.5s-76 116.5 -76 202.5v442h74v-445c0 -65.333 18.167 -115.333 54.5 -150s86.166 -52 149.499 -52s113.166 17.333 149.499 52s54.5 84.667 54.5 150v445h74v-442c0 -86 -25.333 -153.5 -76 -202.5s-118 -73.5 -202 -73.5z
M368.002 -191c-16 0 -29.333 5.33301 -40 16s-16 24 -16 40c0 15.333 5.5 28.333 16.5 39s24.167 16 39.5 16s28.5 -5.33301 39.5 -16s16.5 -23.667 16.5 -39c0 -16 -5.5 -29.333 -16.5 -40s-24.167 -16 -39.5 -16z" />
    <glyph glyph-name="uni1EE5" unicode="&#x1ee5;" horiz-adv-x="578" 
d="M429 0l-0.00195312 68c-38 -50.667 -92 -76 -162 -76c-60 0 -107.5 18.333 -142.5 55s-52.5 86 -52.5 148v305h70v-300c0 -42.667 12.333 -77 37 -103s58.334 -39 101.001 -39c74.667 0 124.334 36.667 149.001 110v332h70v-500h-70zM278.998 -186
c-16 0 -29.333 5.33301 -40 16s-16 24 -16 40c0 15.333 5.5 28.333 16.5 39s24.167 16 39.5 16s28.5 -5.33301 39.5 -16s16.5 -23.667 16.5 -39c0 -16 -5.5 -29.333 -16.5 -40s-24.167 -16 -39.5 -16z" />
    <glyph glyph-name="Ygrave" unicode="&#x1ef2;" horiz-adv-x="616" 
d="M271 0v301l-260 409h86l211 -337l211 337h86l-260 -409v-301h-74zM274 768l-112 145h88l84 -145h-60z" />
    <glyph glyph-name="ygrave" unicode="&#x1ef3;" horiz-adv-x="507" 
d="M116 -184l102 218l-212 466h76l172 -389l174 389h76l-313 -684h-75zM237 550l-119 160h88l90 -160h-59z" />
    <glyph glyph-name="uni2007" unicode="&#x2007;" horiz-adv-x="828" 
 />
    <glyph glyph-name="uni2008" unicode="&#x2008;" horiz-adv-x="242" 
 />
    <glyph glyph-name="uni2009" unicode="&#x2009;" horiz-adv-x="51" 
 />
    <glyph glyph-name="uni200B" unicode="&#x200b;" 
 />
    <glyph glyph-name="endash" unicode="&#x2013;" horiz-adv-x="570" 
d="M71 240v66h428v-66h-428z" />
    <glyph glyph-name="emdash" unicode="&#x2014;" horiz-adv-x="869" 
d="M71 240v66h727v-66h-727z" />
    <glyph glyph-name="quoteleft" unicode="&#x2018;" horiz-adv-x="234" 
d="M167 709l-44 -140h46v-112h-108v113l56 139h50z" />
    <glyph glyph-name="quoteright" unicode="&#x2019;" horiz-adv-x="227" 
d="M69 452l44 140h-46v112h108v-113l-56 -139h-50z" />
    <glyph glyph-name="quotesinglbase" unicode="&#x201a;" horiz-adv-x="252" 
d="M74 -140l44 140h-46v112h108v-113l-56 -139h-50z" />
    <glyph glyph-name="quotedblleft" unicode="&#x201c;" horiz-adv-x="427" 
d="M167 709l-44 -140h46v-112h-108v113l56 139h50zM360 709l-44 -140h46v-112h-108v113l56 139h50z" />
    <glyph glyph-name="quotedblright" unicode="&#x201d;" horiz-adv-x="420" 
d="M69 452l44 140h-46v112h108v-113l-56 -139h-50zM262 452l44 140h-46v112h108v-113l-56 -139h-50z" />
    <glyph glyph-name="quotedblbase" unicode="&#x201e;" horiz-adv-x="445" 
d="M74 -140l44 140h-46v112h108v-113l-56 -139h-50zM267 -140l44 140h-46v112h108v-113l-56 -139h-50z" />
    <glyph glyph-name="dagger" unicode="&#x2020;" horiz-adv-x="507" 
d="M221 -98v532h-191v66h191v210h66v-210h190v-66h-190v-532h-66z" />
    <glyph glyph-name="daggerdbl" unicode="&#x2021;" horiz-adv-x="541" 
d="M238 -98v210h-191v66h191v256h-191v66h191v210h66v-210h190v-66h-190v-256h190v-66h-190v-210h-66z" />
    <glyph glyph-name="bullet" unicode="&#x2022;" horiz-adv-x="426" 
d="M213 166c-38 0 -70.167 13.167 -96.5 39.5s-39.5 58.5 -39.5 96.5s13.167 70.167 39.5 96.5s58.5 39.5 96.5 39.5s70.167 -13.167 96.5 -39.5s39.5 -58.5 39.5 -96.5s-13.167 -70.167 -39.5 -96.5s-58.5 -39.5 -96.5 -39.5z" />
    <glyph glyph-name="ellipsis" unicode="&#x2026;" horiz-adv-x="722" 
d="M122 -8c-18.667 0 -34.333 6.5 -47 19.5s-19 28.5 -19 46.5c0 18.667 6.5 34.5 19.5 47.5s28.5 19.5 46.5 19.5c17.333 0 32.5 -6.5 45.5 -19.5s19.5 -28.833 19.5 -47.5c0 -18 -6.33301 -33.5 -19 -46.5s-28 -19.5 -46 -19.5zM362.001 -8
c-18.667 0 -34.333 6.5 -47 19.5s-19 28.5 -19 46.5c0 18.667 6.5 34.5 19.5 47.5s28.5 19.5 46.5 19.5c17.333 0 32.5 -6.5 45.5 -19.5s19.5 -28.833 19.5 -47.5c0 -18 -6.33301 -33.5 -19 -46.5s-28 -19.5 -46 -19.5zM602.002 -8c-18.667 0 -34.333 6.5 -47 19.5
s-19 28.5 -19 46.5c0 18.667 6.5 34.5 19.5 47.5s28.5 19.5 46.5 19.5c17.333 0 32.5 -6.5 45.5 -19.5s19.5 -28.833 19.5 -47.5c0 -18 -6.33301 -33.5 -19 -46.5s-28 -19.5 -46 -19.5z" />
    <glyph glyph-name="perthousand" unicode="&#x2030;" horiz-adv-x="735" 
d="M212 438c-38.667 0 -71.834 13.5 -99.501 40.5s-41.5 60.167 -41.5 99.5s13.833 72.333 41.5 99s60.834 40 99.501 40c40 0 73.833 -13.333 101.5 -40s41.5 -59.667 41.5 -99s-13.833 -72.5 -41.5 -99.5s-61.5 -40.5 -101.5 -40.5zM212 492
c25.333 0 45.833 8.16699 61.5 24.5s23.5 36.833 23.5 61.5c0 24 -7.83301 44.167 -23.5 60.5s-36.167 24.5 -61.5 24.5c-24 0 -43.833 -8.16699 -59.5 -24.5s-23.5 -36.5 -23.5 -60.5s7.83301 -44.333 23.5 -61s35.5 -25 59.5 -25zM77 324v60h607v-60h-607zM212 -7
c-38.667 0 -71.834 13.333 -99.501 40s-41.5 59.667 -41.5 99s13.833 72.5 41.5 99.5s60.834 40.5 99.501 40.5c40 0 73.833 -13.5 101.5 -40.5s41.5 -60.167 41.5 -99.5s-13.833 -72.333 -41.5 -99s-61.5 -40 -101.5 -40zM541 -7c-38.667 0 -71.834 13.333 -99.501 40
s-41.5 59.667 -41.5 99s13.833 72.5 41.5 99.5s60.834 40.5 99.501 40.5c40 0 74 -13.5 102 -40.5s42 -60.167 42 -99.5s-14 -72.333 -42 -99s-62 -40 -102 -40zM212 47c25.333 0 45.833 8.16699 61.5 24.5s23.5 36.5 23.5 60.5c0 24.667 -7.83301 45.167 -23.5 61.5
s-36.167 24.5 -61.5 24.5c-24 0 -43.833 -8.33301 -59.5 -25s-23.5 -37 -23.5 -61s7.83301 -44.167 23.5 -60.5s35.5 -24.5 59.5 -24.5zM541 47c25.333 0 45.833 8.16699 61.5 24.5s23.5 36.5 23.5 60.5c0 24.667 -7.83301 45.167 -23.5 61.5s-36.167 24.5 -61.5 24.5
c-24 0 -43.833 -8.33301 -59.5 -25s-23.5 -37 -23.5 -61s7.83301 -44.167 23.5 -60.5s35.5 -24.5 59.5 -24.5z" />
    <glyph glyph-name="guilsinglleft" unicode="&#x2039;" horiz-adv-x="302" 
d="M197 31l-151 219l151 219l51 -35l-127 -184l127 -184z" />
    <glyph glyph-name="guilsinglright" unicode="&#x203a;" horiz-adv-x="301" 
d="M105 31l-51 35l127 184l-127 184l51 35l150 -219z" />
    <glyph glyph-name="fraction" unicode="&#x2044;" horiz-adv-x="180" 
d="M-192 0l500 710h66l-500 -710h-66z" />
    <glyph glyph-name="uni2060" unicode="&#x2060;" 
 />
    <glyph glyph-name="uni2070" unicode="&#x2070;" horiz-adv-x="509" 
d="M254 404c-60.667 0 -112 21 -154 63s-63 93.333 -63 154s21 112 63 154s93.333 63 154 63c61.333 0 113 -21 155 -63s63 -93.333 63 -154s-21.167 -112 -63.5 -154s-93.833 -63 -154.5 -63zM254 456c46 0 84.334 15.833 115.001 47.5s46 70.834 46 117.501
s-15.333 85.834 -46 117.501s-69 47.5 -115 47.5s-84 -15.833 -114 -47.5s-45 -70.834 -45 -117.501s15.167 -85.834 45.5 -117.501s68.166 -47.5 113.499 -47.5z" />
    <glyph glyph-name="uni2074" unicode="&#x2074;" horiz-adv-x="387" 
d="M246 410v116h-237l294 313v-261h55v-52h-55v-116h-57zM125 578h121v130z" />
    <glyph glyph-name="uni2075" unicode="&#x2075;" horiz-adv-x="335" 
d="M163 404c-58.667 0 -101.333 22.332 -128 66.999l43 34c21.333 -32.667 50 -49 86 -49c23.333 0 42.833 8.33301 58.5 25s23.5 37.334 23.5 62.001c0 26 -7.83301 47.167 -23.5 63.5s-36.167 24.5 -61.5 24.5c-28.667 0 -51.667 -10.667 -69 -32l-39 15v219h216v-52h-159
v-107c19.333 6.66699 37.666 10 54.999 10c42 0 75.667 -13.5 101 -40.5s38 -60.5 38 -100.5c0 -38.667 -13.167 -71.5 -39.5 -98.5s-60.166 -40.5 -101.499 -40.5z" />
    <glyph glyph-name="uni2076" unicode="&#x2076;" horiz-adv-x="341" 
d="M172 404c-39.333 0 -72.832 13.5 -100.499 40.5s-41.5 59.833 -41.5 98.5c0 25.333 8.66699 52 26 80l125 210h65l-92 -153c9.33301 1.33301 16.666 2 21.999 2c40 0 73 -13.167 99 -39.5s39 -59.5 39 -99.5c0 -39.333 -13.333 -72.333 -40 -99s-60.667 -40 -102 -40z
M172.001 456c24.667 0 44.834 8.33105 60.501 24.998s23.5 37.334 23.5 62.001s-7.83301 45.334 -23.5 62.001s-35.834 25 -60.501 25c-24 0 -44 -8.5 -60 -25.5s-24 -37.5 -24 -61.5s8 -44.5 24 -61.5s36 -25.5 60 -25.5z" />
    <glyph glyph-name="uni2077" unicode="&#x2077;" horiz-adv-x="308" 
d="M43 410l175 371h-194v52h279l-200 -423h-60z" />
    <glyph glyph-name="uni2078" unicode="&#x2078;" horiz-adv-x="358" 
d="M179 405c-39.333 0 -72.833 12.5 -100.5 37.5s-41.5 58.167 -41.5 99.5c0 50.667 23 88.334 69 113.001c-24 18 -36 43.667 -36 77c0 32 10.5 57.833 31.5 77.5s46.833 29.5 77.5 29.5s56.5 -9.83301 77.5 -29.5s31.5 -45.5 31.5 -77.5c0 -33.333 -11.667 -59 -35 -77
c45.333 -24.667 68 -62.334 68 -113.001c0 -41.333 -13.833 -74.5 -41.5 -99.5s-61.167 -37.5 -100.5 -37.5zM179 680c15.333 0 28.166 5 38.499 15s15.5 22.667 15.5 38s-5.16699 28.166 -15.5 38.499s-23.166 15.5 -38.499 15.5s-28.166 -5.16699 -38.499 -15.5
s-15.5 -23.166 -15.5 -38.499s5.16699 -28 15.5 -38s23.166 -15 38.499 -15zM179 457c23.333 0 43 8.16699 59 24.5s24 35.833 24 58.5c0 23.333 -8 43.166 -24 59.499s-35.667 24.5 -59 24.5s-43 -8.16699 -59 -24.5s-24 -36.166 -24 -59.499c0 -22.667 8 -42.167 24 -58.5
s35.667 -24.5 59 -24.5z" />
    <glyph glyph-name="uni2079" unicode="&#x2079;" horiz-adv-x="341" 
d="M169 839c39.333 0 72.832 -13.5 100.499 -40.5s41.5 -59.833 41.5 -98.5c0 -25.333 -8.66699 -52 -26 -80l-125 -210h-65l92 153c-9.33301 -1.33301 -16.666 -2 -21.999 -2c-40 0 -73 13.167 -99 39.5s-39 59.5 -39 99.5c0 39.333 13.333 72.333 40 99s60.667 40 102 40z
M168.999 787c-24.667 0 -44.834 -8.33105 -60.501 -24.998s-23.5 -37.334 -23.5 -62.001s7.83301 -45.334 23.5 -62.001s35.834 -25 60.501 -25c24 0 44 8.5 60 25.5s24 37.5 24 61.5s-8 44.5 -24 61.5s-36 25.5 -60 25.5z" />
    <glyph glyph-name="uni2080" unicode="&#x2080;" horiz-adv-x="509" 
d="M254 -120c-60.667 0 -112 21 -154 63s-63 93.333 -63 154s21 112 63 154s93.333 63 154 63c61.333 0 113 -21 155 -63s63 -93.333 63 -154s-21.167 -112 -63.5 -154s-93.833 -63 -154.5 -63zM254 -68c46 0 84.334 15.833 115.001 47.5s46 70.834 46 117.501
s-15.333 85.834 -46 117.501s-69 47.5 -115 47.5s-84 -15.833 -114 -47.5s-45 -70.834 -45 -117.501s15.167 -85.834 45.5 -117.501s68.166 -47.5 113.499 -47.5z" />
    <glyph glyph-name="uni2081" unicode="&#x2081;" horiz-adv-x="183" 
d="M62 -115v375l57 54v-429h-57z" />
    <glyph glyph-name="uni2082" unicode="&#x2082;" horiz-adv-x="347" 
d="M22 -115l153.998 174.001c-39.333 0 -72 11.833 -98 35.5s-39 54.167 -39 91.5c0 36 13.333 66.333 40 91s58.667 37 96 37c36.667 0 68.167 -12.333 94.5 -37s39.5 -55 39.5 -91c0 -18.667 -3.66699 -36.334 -11 -53.001s-15.166 -30.5 -23.499 -41.5
s-23.166 -28.833 -44.499 -53.5l-89 -100h163v-53h-282zM174.998 108.001c21.333 0 39.333 7.5 54 22.5s22 33.5 22 55.5c0 21.333 -7.33301 39.333 -22 54s-32.667 22 -54 22s-39.5 -7.33301 -54.5 -22s-22.5 -32.667 -22.5 -54c0 -22 7.5 -40.5 22.5 -55.5
s33.167 -22.5 54.5 -22.5z" />
    <glyph glyph-name="uni2083" unicode="&#x2083;" horiz-adv-x="328" 
d="M151 -121c-26 0 -50.667 5.83398 -74 17.501s-41 28.167 -53 49.5l44 34c18.667 -32.667 46.667 -49 84 -49c24 0 43.667 8.5 59 25.5s23 38.167 23 63.5c0 24.667 -8.5 45.167 -25.5 61.5s-39.5 24.5 -67.5 24.5h-39l84 150h-144v52h231l-87 -156
c71.333 -16 107 -60 107 -132c0 -38.667 -13.167 -71.834 -39.5 -99.501s-60.5 -41.5 -102.5 -41.5z" />
    <glyph glyph-name="uni2084" unicode="&#x2084;" horiz-adv-x="387" 
d="M246 -115v116h-237l294 313v-261h55v-52h-55v-116h-57zM125 53h121v130z" />
    <glyph glyph-name="uni2085" unicode="&#x2085;" horiz-adv-x="335" 
d="M163 -121c-58.667 0 -101.333 22.332 -128 66.999l43 34c21.333 -32.667 50 -49 86 -49c23.333 0 42.833 8.33301 58.5 25s23.5 37.334 23.5 62.001c0 26 -7.83301 47.167 -23.5 63.5s-36.167 24.5 -61.5 24.5c-28.667 0 -51.667 -10.667 -69 -32l-39 15v219h216v-52
h-159v-107c19.333 6.66699 37.666 10 54.999 10c42 0 75.667 -13.5 101 -40.5s38 -60.5 38 -100.5c0 -38.667 -13.167 -71.5 -39.5 -98.5s-60.166 -40.5 -101.499 -40.5z" />
    <glyph glyph-name="uni2086" unicode="&#x2086;" horiz-adv-x="341" 
d="M171 -121c-39.333 0 -72.832 13.5 -100.499 40.5s-41.5 59.833 -41.5 98.5c0 25.333 8.66699 52 26 80l125 210h65l-92 -153c9.33301 1.33301 16.666 2 21.999 2c40 0 73 -13.167 99 -39.5s39 -59.5 39 -99.5c0 -39.333 -13.333 -72.333 -40 -99s-60.667 -40 -102 -40z
M171.001 -69c24.667 0 44.834 8.33105 60.501 24.998s23.5 37.334 23.5 62.001s-7.83301 45.334 -23.5 62.001s-35.834 25 -60.501 25c-24 0 -44 -8.5 -60 -25.5s-24 -37.5 -24 -61.5s8 -44.5 24 -61.5s36 -25.5 60 -25.5z" />
    <glyph glyph-name="uni2087" unicode="&#x2087;" horiz-adv-x="308" 
d="M43 -115l175 371h-194v52h279l-200 -423h-60z" />
    <glyph glyph-name="uni2088" unicode="&#x2088;" horiz-adv-x="358" 
d="M179 -120c-39.333 0 -72.833 12.5 -100.5 37.5s-41.5 58.167 -41.5 99.5c0 50.667 23 88.334 69 113.001c-24 18 -36 43.667 -36 77c0 32 10.5 57.833 31.5 77.5s46.833 29.5 77.5 29.5s56.5 -9.83301 77.5 -29.5s31.5 -45.5 31.5 -77.5c0 -33.333 -11.667 -59 -35 -77
c45.333 -24.667 68 -62.334 68 -113.001c0 -41.333 -13.833 -74.5 -41.5 -99.5s-61.167 -37.5 -100.5 -37.5zM179 155c15.333 0 28.166 5 38.499 15s15.5 22.667 15.5 38s-5.16699 28.166 -15.5 38.499s-23.166 15.5 -38.499 15.5s-28.166 -5.16699 -38.499 -15.5
s-15.5 -23.166 -15.5 -38.499s5.16699 -28 15.5 -38s23.166 -15 38.499 -15zM179 -68c23.333 0 43 8.16699 59 24.5s24 35.833 24 58.5c0 23.333 -8 43.166 -24 59.499s-35.667 24.5 -59 24.5s-43 -8.16699 -59 -24.5s-24 -36.166 -24 -59.499c0 -22.667 8 -42.167 24 -58.5
s35.667 -24.5 59 -24.5z" />
    <glyph glyph-name="uni2089" unicode="&#x2089;" horiz-adv-x="341" 
d="M169 314c39.333 0 72.832 -13.5 100.499 -40.5s41.5 -59.833 41.5 -98.5c0 -25.333 -8.66699 -52 -26 -80l-125 -210h-65l92 153c-9.33301 -1.33301 -16.666 -2 -21.999 -2c-40 0 -73 13.167 -99 39.5s-39 59.5 -39 99.5c0 39.333 13.333 72.333 40 99s60.667 40 102 40z
M168.999 262c-24.667 0 -44.834 -8.33105 -60.501 -24.998s-23.5 -37.334 -23.5 -62.001s7.83301 -45.334 23.5 -62.001s35.834 -25 60.501 -25c24 0 44 8.5 60 25.5s24 37.5 24 61.5s-8 44.5 -24 61.5s-36 25.5 -60 25.5z" />
    <glyph glyph-name="Euro" unicode="&#x20ac;" horiz-adv-x="757" 
d="M35 238l21 60.999h103c-2.66699 16.667 -4 35.334 -4 56.001c0 10 0.666992 23.667 2 41h-122l21 61h112c22 78 64.333 141 127 189s135.667 72 219 72c76.667 0 145.334 -20 206.001 -60l-27 -62c-51.333 38 -111 57 -179 57c-67.333 0 -124.833 -18.333 -172.5 -55
s-81.167 -83.667 -100.5 -141h411l-21 -61h-403c-2 -14 -3 -27.667 -3 -41c0 -16 1.66699 -34.667 5 -56h368l-20 -61h-332c22 -55.333 56.5 -99.333 103.5 -132s101.833 -49 164.5 -49c70 0 129.667 18 179 54v-70c-48.667 -32.667 -108.334 -49 -179.001 -49
c-80 0 -150.833 22.5 -212.5 67.5s-104.5 104.5 -128.5 178.5h-138z" />
    <glyph glyph-name="uni20B4" unicode="&#x20b4;" horiz-adv-x="609" 
d="M53 394l-0.000976562 61h335c28 24 42 53.667 42 89c0 31.333 -12.167 56.333 -36.5 75s-55.166 28 -92.499 28c-60.667 0 -109.667 -23 -147 -69l-53 52c50.667 58.667 116.667 88 198 88c57.333 0 105.833 -16.167 145.5 -48.5s59.5 -73.833 59.5 -124.5
c0 -32.667 -11 -62.667 -33 -90h81v-61h-499zM52.999 257v61.001h499v-61h-357c-20 -22 -30 -48.667 -30 -80c0 -36 13.333 -64 40 -84s63 -30 109 -30c34 0 65.5 8 94.5 24s52.833 36.667 71.5 62l57 -49c-22.667 -30.667 -54 -56.334 -94 -77.001s-83.333 -31 -130 -31
c-69.333 0 -123.833 17 -163.5 51s-59.5 79.333 -59.5 136c0 30.667 7 56.667 21 78h-58z" />
    <glyph glyph-name="uni20B8" unicode="&#x20b8;" horiz-adv-x="557" 
d="M35 649v61h487v-61h-487zM241 0v513h-206v60h487v-60h-207v-513h-74z" />
    <glyph glyph-name="uni20BD" unicode="&#x20bd;" horiz-adv-x="605" 
d="M137 0v145.999h-84v61h84v82h-84v69h84v352h195c74 0 132.333 -19.167 175 -57.5s64 -89.166 64 -152.499s-21.5 -114.333 -64.5 -153s-101.167 -58 -174.5 -58h-121v-82h211v-61h-211v-146h-74zM211 357.999h120c53.333 0 94 12.5 122 37.5s42 59.833 42 104.5
c0 44 -14 78.667 -42 104s-68.667 38 -122 38h-120v-284z" />
    <glyph glyph-name="uni2116" unicode="&#x2116;" horiz-adv-x="1134" 
d="M937 405c-45.333 0 -82.666 14.833 -111.999 44.5s-44 66.5 -44 110.5s14.667 80.833 44 110.5s66.666 44.5 111.999 44.5c44 0 80.833 -14.833 110.5 -44.5s44.5 -66.5 44.5 -110.5s-14.833 -80.833 -44.5 -110.5s-66.5 -44.5 -110.5 -44.5zM937 460
c28 0 51 9.5 69 28.5s27 42.833 27 71.5s-9 52.5 -27 71.5s-41 28.5 -69 28.5s-51.167 -9.5 -69.5 -28.5s-27.5 -42.833 -27.5 -71.5s9.16699 -52.5 27.5 -71.5s41.5 -28.5 69.5 -28.5zM791 279v62h291v-62h-291zM689 -8l-516 551v-543h-74v718l516 -551v543h74v-718z" />
    <glyph glyph-name="uni2117" unicode="&#x2117;" horiz-adv-x="820" 
d="M410 -9c-100 0 -185.5 35.5 -256.5 106.5s-106.5 156.5 -106.5 256.5s35.5 185.667 106.5 257s156.5 107 256.5 107s185.5 -35.667 256.5 -107s106.5 -157 106.5 -257s-35.5 -185.5 -106.5 -256.5s-156.5 -106.5 -256.5 -106.5zM410 49c84 0 155.833 29.833 215.5 89.5
s89.5 131.5 89.5 215.5c0 84.667 -29.833 156.834 -89.5 216.501s-131.5 89.5 -215.5 89.5s-155.833 -29.833 -215.5 -89.5s-89.5 -131.834 -89.5 -216.501c0 -84 29.833 -155.833 89.5 -215.5s131.5 -89.5 215.5 -89.5zM321 186v336h96c37.333 0 67 -9.33301 89 -28
s33 -45.334 33 -80.001c0 -33.333 -11.167 -59.666 -33.5 -78.999s-51.833 -29 -88.5 -29h-40v-120h-56zM377 358h37c44.667 0 67 18.667 67 56c0 38 -22.333 57 -67 57h-37v-113z" />
    <glyph glyph-name="trademark" unicode="&#x2122;" horiz-adv-x="798" 
d="M354 355v371l181 -193l181 193v-371h-54v249l-127 -139l-127 139v-249h-54zM137 355v305h-102v50h260v-50h-103v-305h-55z" />
    <glyph glyph-name="uni2150" unicode="&#x2150;" horiz-adv-x="706" 
d="M62 287v375l57 54v-429h-57zM16 0l500 710h66l-500 -710h-66zM441 0l175 372h-194v52h279l-200 -424h-60z" />
    <glyph glyph-name="uni2151" unicode="&#x2151;" horiz-adv-x="729" 
d="M62 287v375l57 54v-429h-57zM16 0l500 710h66l-500 -710h-66zM558 429c39.333 0 72.832 -13.5 100.499 -40.5s41.5 -59.833 41.5 -98.5c0 -25.333 -8.66699 -52 -26 -80l-125 -210h-65l92 153c-9.33301 -1.33301 -16.666 -2 -21.999 -2c-40 0 -73 13.167 -99 39.5
s-39 59.5 -39 99.5c0 39.333 13.333 72.333 40 99s60.667 40 102 40zM557.999 377c-24.667 0 -44.834 -8.33105 -60.501 -24.998s-23.5 -37.334 -23.5 -62.001s7.83301 -45.334 23.5 -62.001s35.834 -25 60.501 -25c24 0 44 8.5 60 25.5s24 37.5 24 61.5s-8 44.5 -24 61.5
s-36 25.5 -60 25.5z" />
    <glyph glyph-name="uni2152" unicode="&#x2152;" horiz-adv-x="1080" 
d="M62 287v375l57 54v-429h-57zM16 0l500 710h66l-500 -710h-66zM450 0v375l57 54v-429h-57zM825 -5c-60.667 0 -112 21 -154 63s-63 93.333 -63 154s21 112 63 154s93.333 63 154 63c61.333 0 113 -21 155 -63s63 -93.333 63 -154s-21.167 -112 -63.5 -154
s-93.833 -63 -154.5 -63zM825 47c46 0 84.334 15.833 115.001 47.5s46 70.834 46 117.501s-15.333 85.834 -46 117.501s-69 47.5 -115 47.5s-84 -15.833 -114 -47.5s-45 -70.834 -45 -117.501s15.167 -85.834 45.5 -117.501s68.166 -47.5 113.499 -47.5z" />
    <glyph glyph-name="onethird" unicode="&#x2153;" horiz-adv-x="716" 
d="M62 287v375l57 54v-429h-57zM16 0l500 710h66l-500 -710h-66zM539 -5c-26 0 -50.667 5.83398 -74 17.501s-41 28.167 -53 49.5l44 34c18.667 -32.667 46.667 -49 84 -49c24 0 43.667 8.5 59 25.5s23 38.167 23 63.5c0 24.667 -8.5 45.167 -25.5 61.5
s-39.5 24.5 -67.5 24.5h-39l84 150h-144v52h231l-87 -156c71.333 -16 107 -60 107 -132c0 -38.667 -13.167 -71.834 -39.5 -99.501s-60.5 -41.5 -102.5 -41.5z" />
    <glyph glyph-name="twothirds" unicode="&#x2154;" horiz-adv-x="855" 
d="M22 287l153.998 174.001c-39.333 0 -72 11.833 -98 35.5s-39 54.167 -39 91.5c0 36 13.333 66.333 40 91s58.667 37 96 37c36.667 0 68.167 -12.333 94.5 -37s39.5 -55 39.5 -91c0 -18.667 -3.66699 -36.334 -11 -53.001s-15.166 -30.5 -23.499 -41.5
s-23.166 -28.833 -44.499 -53.5l-89 -100h163v-53h-282zM174.998 510.001c21.333 0 39.333 7.5 54 22.5s22 33.5 22 55.5c0 21.333 -7.33301 39.333 -22 54s-32.667 22 -54 22s-39.5 -7.33301 -54.5 -22s-22.5 -32.667 -22.5 -54c0 -22 7.5 -40.5 22.5 -55.5
s33.167 -22.5 54.5 -22.5zM154.998 0.000976562l500 710h66l-500 -710h-66zM677.998 -4.99902c-26 0 -50.667 5.83398 -74 17.501s-41 28.167 -53 49.5l44 34c18.667 -32.667 46.667 -49 84 -49c24 0 43.667 8.5 59 25.5s23 38.167 23 63.5c0 24.667 -8.5 45.167 -25.5 61.5
s-39.5 24.5 -67.5 24.5h-39l84 150h-144v52h231l-87 -156c71.333 -16 107 -60 107 -132c0 -38.667 -13.167 -71.834 -39.5 -99.501s-60.5 -41.5 -102.5 -41.5z" />
    <glyph glyph-name="uni2155" unicode="&#x2155;" horiz-adv-x="723" 
d="M62 287v375l57 54v-429h-57zM16 0l500 710h66l-500 -710h-66zM551 -5c-58.667 0 -101.333 22.332 -128 66.999l43 34c21.333 -32.667 50 -49 86 -49c23.333 0 42.833 8.33301 58.5 25s23.5 37.334 23.5 62.001c0 26 -7.83301 47.167 -23.5 63.5s-36.167 24.5 -61.5 24.5
c-28.667 0 -51.667 -10.667 -69 -32l-39 15v219h216v-52h-159v-107c19.333 6.66699 37.666 10 54.999 10c42 0 75.667 -13.5 101 -40.5s38 -60.5 38 -100.5c0 -38.667 -13.167 -71.5 -39.5 -98.5s-60.166 -40.5 -101.499 -40.5z" />
    <glyph glyph-name="uni2156" unicode="&#x2156;" horiz-adv-x="862" 
d="M22 287l153.998 174.001c-39.333 0 -72 11.833 -98 35.5s-39 54.167 -39 91.5c0 36 13.333 66.333 40 91s58.667 37 96 37c36.667 0 68.167 -12.333 94.5 -37s39.5 -55 39.5 -91c0 -18.667 -3.66699 -36.334 -11 -53.001s-15.166 -30.5 -23.499 -41.5
s-23.166 -28.833 -44.499 -53.5l-89 -100h163v-53h-282zM174.998 510.001c21.333 0 39.333 7.5 54 22.5s22 33.5 22 55.5c0 21.333 -7.33301 39.333 -22 54s-32.667 22 -54 22s-39.5 -7.33301 -54.5 -22s-22.5 -32.667 -22.5 -54c0 -22 7.5 -40.5 22.5 -55.5
s33.167 -22.5 54.5 -22.5zM154.998 0.000976562l500 710h66l-500 -710h-66zM689.998 -4.99902c-58.667 0 -101.333 22.332 -128 66.999l43 34c21.333 -32.667 50 -49 86 -49c23.333 0 42.833 8.33301 58.5 25s23.5 37.334 23.5 62.001c0 26 -7.83301 47.167 -23.5 63.5
s-36.167 24.5 -61.5 24.5c-28.667 0 -51.667 -10.667 -69 -32l-39 15v219h216v-52h-159v-107c19.333 6.66699 37.666 10 54.999 10c42 0 75.667 -13.5 101 -40.5s38 -60.5 38 -100.5c0 -38.667 -13.167 -71.5 -39.5 -98.5s-60.166 -40.5 -101.499 -40.5z" />
    <glyph glyph-name="uni2157" unicode="&#x2157;" horiz-adv-x="843" 
d="M151 281c-26 0 -50.667 5.83398 -74 17.501s-41 28.167 -53 49.5l44 34c18.667 -32.667 46.667 -49 84 -49c24 0 43.667 8.5 59 25.5s23 38.167 23 63.5c0 24.667 -8.5 45.167 -25.5 61.5s-39.5 24.5 -67.5 24.5h-39l84 150h-144v52h231l-87 -156
c71.333 -16 107 -60 107 -132c0 -38.667 -13.167 -71.834 -39.5 -99.501s-60.5 -41.5 -102.5 -41.5zM136 0.000976562l500 710h66l-500 -710h-66zM671 -4.99902c-58.667 0 -101.333 22.332 -128 66.999l43 34c21.333 -32.667 50 -49 86 -49c23.333 0 42.833 8.33301 58.5 25
s23.5 37.334 23.5 62.001c0 26 -7.83301 47.167 -23.5 63.5s-36.167 24.5 -61.5 24.5c-28.667 0 -51.667 -10.667 -69 -32l-39 15v219h216v-52h-159v-107c19.333 6.66699 37.666 10 54.999 10c42 0 75.667 -13.5 101 -40.5s38 -60.5 38 -100.5
c0 -38.667 -13.167 -71.5 -39.5 -98.5s-60.166 -40.5 -101.499 -40.5z" />
    <glyph glyph-name="uni2158" unicode="&#x2158;" horiz-adv-x="902" 
d="M247 287v116h-237l294 313v-261h55v-52h-55v-116h-57zM126 455h121v130zM195 0l500 710h66l-500 -710h-66zM730 -5c-58.667 0 -101.333 22.332 -128 66.999l43 34c21.333 -32.667 50 -49 86 -49c23.333 0 42.833 8.33301 58.5 25s23.5 37.334 23.5 62.001
c0 26 -7.83301 47.167 -23.5 63.5s-36.167 24.5 -61.5 24.5c-28.667 0 -51.667 -10.667 -69 -32l-39 15v219h216v-52h-159v-107c19.333 6.66699 37.666 10 54.999 10c42 0 75.667 -13.5 101 -40.5s38 -60.5 38 -100.5c0 -38.667 -13.167 -71.5 -39.5 -98.5
s-60.166 -40.5 -101.499 -40.5z" />
    </font>
</defs>
</svg>
